G04 #@! TF.FileFunction,Legend,Bot*
%FSLAX46Y46*%
G04 Gerber Fmt 4.6, Leading zero omitted, Abs format (unit mm)*
G04 Created by KiCad (PCBNEW 4.0.6) date 10/26/17 18:12:14*
%MOMM*%
%LPD*%
G01*
G04 APERTURE LIST*
%ADD10C,0.100000*%
%ADD11C,0.300000*%
G04 APERTURE END LIST*
D10*
D11*
X128366762Y-65368714D02*
X128971524Y-65973476D01*
X130785809Y-66578238D01*
X131995333Y-66578238D01*
X133809619Y-65973476D01*
X135019143Y-64763952D01*
X135623904Y-63554429D01*
X136228666Y-61135381D01*
X136228666Y-59321095D01*
X135623904Y-56902048D01*
X135019143Y-55692524D01*
X133809619Y-54483000D01*
X131995333Y-53878238D01*
X130785809Y-53878238D01*
X128971524Y-54483000D01*
X128366762Y-55087762D01*
X124133428Y-53878238D02*
X121109619Y-66578238D01*
X118690571Y-57506810D01*
X116271524Y-66578238D01*
X113247714Y-53878238D01*
X101152476Y-66578238D02*
X105385809Y-60530619D01*
X108409618Y-66578238D02*
X108409618Y-53878238D01*
X103571523Y-53878238D01*
X102361999Y-54483000D01*
X101757238Y-55087762D01*
X101152476Y-56297286D01*
X101152476Y-58111571D01*
X101757238Y-59321095D01*
X102361999Y-59925857D01*
X103571523Y-60530619D01*
X108409618Y-60530619D01*
X95709618Y-53878238D02*
X95709618Y-64159190D01*
X95104857Y-65368714D01*
X94500095Y-65973476D01*
X93290571Y-66578238D01*
X90871523Y-66578238D01*
X89661999Y-65973476D01*
X89057238Y-65368714D01*
X88452476Y-64159190D01*
X88452476Y-53878238D01*
X72728666Y-59925857D02*
X68495333Y-59925857D01*
X66681047Y-66578238D02*
X72728666Y-66578238D01*
X72728666Y-53878238D01*
X66681047Y-53878238D01*
X61238190Y-59925857D02*
X57004857Y-59925857D01*
X55190571Y-66578238D02*
X61238190Y-66578238D01*
X61238190Y-53878238D01*
X55190571Y-53878238D01*
X42490572Y-65368714D02*
X43095334Y-65973476D01*
X44909619Y-66578238D01*
X46119143Y-66578238D01*
X47933429Y-65973476D01*
X49142953Y-64763952D01*
X49747714Y-63554429D01*
X50352476Y-61135381D01*
X50352476Y-59321095D01*
X49747714Y-56902048D01*
X49142953Y-55692524D01*
X47933429Y-54483000D01*
X46119143Y-53878238D01*
X44909619Y-53878238D01*
X43095334Y-54483000D01*
X42490572Y-55087762D01*
X37652476Y-65973476D02*
X35838191Y-66578238D01*
X32814381Y-66578238D01*
X31604857Y-65973476D01*
X31000095Y-65368714D01*
X30395334Y-64159190D01*
X30395334Y-62949667D01*
X31000095Y-61740143D01*
X31604857Y-61135381D01*
X32814381Y-60530619D01*
X35233429Y-59925857D01*
X36442953Y-59321095D01*
X37047714Y-58716333D01*
X37652476Y-57506810D01*
X37652476Y-56297286D01*
X37047714Y-55087762D01*
X36442953Y-54483000D01*
X35233429Y-53878238D01*
X32209619Y-53878238D01*
X30395334Y-54483000D01*
M02*
