G04 #@! TF.FileFunction,Soldermask,Top*
%FSLAX46Y46*%
G04 Gerber Fmt 4.6, Leading zero omitted, Abs format (unit mm)*
G04 Created by KiCad (PCBNEW 4.0.6) date 10/26/17 18:12:15*
%MOMM*%
%LPD*%
G01*
G04 APERTURE LIST*
%ADD10C,0.100000*%
%ADD11C,2.900000*%
%ADD12R,2.100000X2.400000*%
%ADD13R,1.924000X1.924000*%
%ADD14C,1.924000*%
%ADD15R,2.400000X2.000000*%
%ADD16R,2.000000X2.400000*%
%ADD17R,2.400000X2.100000*%
%ADD18R,2.400000X4.000000*%
%ADD19O,2.400000X4.000000*%
%ADD20R,4.000000X2.400000*%
%ADD21O,4.000000X2.400000*%
%ADD22R,1.000000X2.100000*%
%ADD23R,7.900000X5.600000*%
%ADD24C,1.100000*%
%ADD25R,2.000000X2.000000*%
%ADD26O,2.000000X2.000000*%
%ADD27R,1.400000X0.850000*%
%ADD28R,5.400000X2.850000*%
%ADD29R,0.800000X1.900000*%
%ADD30R,1.100000X1.400000*%
%ADD31R,1.400000X1.100000*%
%ADD32R,1.200000X1.300000*%
%ADD33C,8.600000*%
%ADD34R,2.100000X2.100000*%
%ADD35O,2.100000X2.100000*%
G04 APERTURE END LIST*
D10*
D11*
X133170000Y-64008000D03*
X110670000Y-64008000D03*
X116420000Y-73758000D03*
X116420000Y-54258000D03*
D12*
X156718000Y-32036000D03*
X156718000Y-36036000D03*
D13*
X62230000Y-63500000D03*
D14*
X62230000Y-60960000D03*
X62230000Y-58420000D03*
X62230000Y-55880000D03*
X62230000Y-53340000D03*
X62230000Y-50800000D03*
X62230000Y-48260000D03*
X62230000Y-45720000D03*
X62230000Y-43180000D03*
X62230000Y-40640000D03*
X62230000Y-38100000D03*
X62230000Y-35560000D03*
X62230000Y-33020000D03*
X62230000Y-30480000D03*
X62230000Y-27940000D03*
X46990000Y-27940000D03*
X46990000Y-30480000D03*
X46990000Y-33020000D03*
X46990000Y-35560000D03*
X46990000Y-38100000D03*
X46990000Y-40640000D03*
X46990000Y-43180000D03*
X46990000Y-45720000D03*
X46990000Y-48260000D03*
X46990000Y-50800000D03*
X46990000Y-53340000D03*
X46990000Y-55880000D03*
X46990000Y-58420000D03*
X46990000Y-60960000D03*
X46990000Y-63500000D03*
D15*
X35274000Y-60706000D03*
X31274000Y-60706000D03*
D16*
X42164000Y-32988000D03*
X42164000Y-28988000D03*
X149098000Y-35782000D03*
X149098000Y-31782000D03*
X142494000Y-41942000D03*
X142494000Y-45942000D03*
X145288000Y-41942000D03*
X145288000Y-45942000D03*
D15*
X35274000Y-54864000D03*
X31274000Y-54864000D03*
D16*
X152908000Y-35782000D03*
X152908000Y-31782000D03*
X61722000Y-20923000D03*
X61722000Y-16923000D03*
X90424000Y-55023000D03*
X90424000Y-59023000D03*
X99568000Y-50070000D03*
X99568000Y-54070000D03*
X96774000Y-55023000D03*
X96774000Y-59023000D03*
X86868000Y-55023000D03*
X86868000Y-59023000D03*
X94107000Y-59023000D03*
X94107000Y-55023000D03*
X151417000Y-70726000D03*
X151417000Y-66726000D03*
X144559000Y-80315000D03*
X144559000Y-84315000D03*
X147861000Y-80315000D03*
X147861000Y-84315000D03*
X155194000Y-70707000D03*
X155194000Y-66707000D03*
X147607000Y-66726000D03*
X147607000Y-70726000D03*
X65976500Y-86899500D03*
X65976500Y-82899500D03*
D15*
X68421500Y-87058500D03*
X72421500Y-87058500D03*
X53372000Y-98552000D03*
X57372000Y-98552000D03*
D16*
X89916000Y-90456000D03*
X89916000Y-94456000D03*
D15*
X92170000Y-67945000D03*
X88170000Y-67945000D03*
X41878000Y-94234000D03*
X37878000Y-94234000D03*
D16*
X96901000Y-73057000D03*
X96901000Y-77057000D03*
D15*
X53372000Y-94742000D03*
X57372000Y-94742000D03*
D16*
X86360000Y-90456000D03*
X86360000Y-94456000D03*
D15*
X41878000Y-98552000D03*
X37878000Y-98552000D03*
X31464000Y-104902000D03*
X27464000Y-104902000D03*
D16*
X93472000Y-93440000D03*
X93472000Y-89440000D03*
D12*
X162814000Y-40100000D03*
X162814000Y-36100000D03*
D17*
X90392000Y-15494000D03*
X86392000Y-15494000D03*
D12*
X82072500Y-44526500D03*
X82072500Y-48526500D03*
X80264000Y-83344000D03*
X80264000Y-87344000D03*
D17*
X65690500Y-78740000D03*
X61690500Y-78740000D03*
D18*
X86868000Y-100584000D03*
D19*
X94368000Y-100584000D03*
D20*
X18800000Y-27600000D03*
D21*
X18800000Y-35100000D03*
D17*
X64548000Y-22860000D03*
X68548000Y-22860000D03*
D12*
X66040000Y-89694000D03*
X66040000Y-93694000D03*
X162814000Y-43466000D03*
X162814000Y-47466000D03*
X160274000Y-32036000D03*
X160274000Y-36036000D03*
D17*
X145447000Y-55880000D03*
X149447000Y-55880000D03*
D12*
X56134000Y-16986500D03*
X56134000Y-20986500D03*
X82042000Y-41116000D03*
X82042000Y-37116000D03*
D17*
X93504000Y-15494000D03*
X97504000Y-15494000D03*
X100616000Y-15494000D03*
X104616000Y-15494000D03*
X107474000Y-15494000D03*
X111474000Y-15494000D03*
D12*
X80772000Y-59150000D03*
X80772000Y-55150000D03*
X83820000Y-59023000D03*
X83820000Y-55023000D03*
D17*
X96488000Y-36830000D03*
X92488000Y-36830000D03*
X31274000Y-63500000D03*
X35274000Y-63500000D03*
X32290000Y-30988000D03*
X36290000Y-30988000D03*
X32290000Y-35052000D03*
X36290000Y-35052000D03*
D12*
X164465000Y-79661000D03*
X164465000Y-83661000D03*
X161544000Y-66707000D03*
X161544000Y-70707000D03*
D17*
X54134000Y-60960000D03*
X58134000Y-60960000D03*
X58642000Y-43434000D03*
X54642000Y-43434000D03*
X58134000Y-63500000D03*
X54134000Y-63500000D03*
X54642000Y-40640000D03*
X58642000Y-40640000D03*
D12*
X158275000Y-66726000D03*
X158275000Y-70726000D03*
X40894000Y-54896000D03*
X40894000Y-58896000D03*
D17*
X148114000Y-90170000D03*
X152114000Y-90170000D03*
D12*
X35814000Y-47784000D03*
X35814000Y-51784000D03*
D17*
X57372000Y-77978000D03*
X53372000Y-77978000D03*
D12*
X48260000Y-78518000D03*
X48260000Y-82518000D03*
D17*
X57372000Y-84328000D03*
X53372000Y-84328000D03*
X57372000Y-81280000D03*
X53372000Y-81280000D03*
D12*
X80264000Y-80232000D03*
X80264000Y-76232000D03*
X68516500Y-79089500D03*
X68516500Y-83089500D03*
D17*
X45752000Y-98552000D03*
X49752000Y-98552000D03*
D12*
X61976000Y-89694000D03*
X61976000Y-93694000D03*
D17*
X53372000Y-90932000D03*
X57372000Y-90932000D03*
D12*
X80264000Y-94456000D03*
X80264000Y-90456000D03*
X83312000Y-94456000D03*
X83312000Y-90456000D03*
D17*
X92170000Y-70739000D03*
X88170000Y-70739000D03*
D14*
X81534000Y-19304000D03*
X78740000Y-19304000D03*
X73914000Y-19304000D03*
X68834000Y-19304000D03*
D22*
X148475000Y-51903500D03*
D23*
X152875000Y-46971000D03*
D22*
X149275000Y-51903500D03*
X150075000Y-51903500D03*
X150875000Y-51903500D03*
X151675000Y-51903500D03*
X152475000Y-51903500D03*
X153275000Y-51903500D03*
X154075000Y-51903500D03*
X154875000Y-51903500D03*
X155675000Y-51903500D03*
X156475000Y-51903500D03*
X157275000Y-51903500D03*
X157275000Y-42038500D03*
X156475000Y-42038500D03*
X155675000Y-42038500D03*
X154875000Y-42038500D03*
X154075000Y-42038500D03*
X153275000Y-42038500D03*
X152475000Y-42038500D03*
X151675000Y-42038500D03*
X150875000Y-42038500D03*
X150075000Y-42038500D03*
X149275000Y-42038500D03*
X148475000Y-42038500D03*
D24*
X151375000Y-48471000D03*
X151375000Y-46971000D03*
X151375000Y-45471000D03*
X152375000Y-48471000D03*
X152375000Y-46971000D03*
X152375000Y-45471000D03*
X153375000Y-48471000D03*
X153375000Y-46971000D03*
X153375000Y-45471000D03*
X154375000Y-48471000D03*
X154375000Y-46971000D03*
X154375000Y-45471000D03*
D22*
X93711500Y-39943000D03*
D23*
X89311500Y-44875500D03*
D22*
X92911500Y-39943000D03*
X92111500Y-39943000D03*
X91311500Y-39943000D03*
X90511500Y-39943000D03*
X89711500Y-39943000D03*
X88911500Y-39943000D03*
X88111500Y-39943000D03*
X87311500Y-39943000D03*
X86511500Y-39943000D03*
X85711500Y-39943000D03*
X84911500Y-39943000D03*
X84911500Y-49808000D03*
X85711500Y-49808000D03*
X86511500Y-49808000D03*
X87311500Y-49808000D03*
X88111500Y-49808000D03*
X88911500Y-49808000D03*
X89711500Y-49808000D03*
X90511500Y-49808000D03*
X91311500Y-49808000D03*
X92111500Y-49808000D03*
X92911500Y-49808000D03*
X93711500Y-49808000D03*
D24*
X90811500Y-43375500D03*
X90811500Y-44875500D03*
X90811500Y-46375500D03*
X89811500Y-43375500D03*
X89811500Y-44875500D03*
X89811500Y-46375500D03*
X88811500Y-43375500D03*
X88811500Y-44875500D03*
X88811500Y-46375500D03*
X87811500Y-43375500D03*
X87811500Y-44875500D03*
X87811500Y-46375500D03*
D22*
X151335000Y-86993500D03*
D23*
X155735000Y-82061000D03*
D22*
X152135000Y-86993500D03*
X152935000Y-86993500D03*
X153735000Y-86993500D03*
X154535000Y-86993500D03*
X155335000Y-86993500D03*
X156135000Y-86993500D03*
X156935000Y-86993500D03*
X157735000Y-86993500D03*
X158535000Y-86993500D03*
X159335000Y-86993500D03*
X160135000Y-86993500D03*
X160135000Y-77128500D03*
X159335000Y-77128500D03*
X158535000Y-77128500D03*
X157735000Y-77128500D03*
X156935000Y-77128500D03*
X156135000Y-77128500D03*
X155335000Y-77128500D03*
X154535000Y-77128500D03*
X153735000Y-77128500D03*
X152935000Y-77128500D03*
X152135000Y-77128500D03*
X151335000Y-77128500D03*
D24*
X154235000Y-83561000D03*
X154235000Y-82061000D03*
X154235000Y-80561000D03*
X155235000Y-83561000D03*
X155235000Y-82061000D03*
X155235000Y-80561000D03*
X156235000Y-83561000D03*
X156235000Y-82061000D03*
X156235000Y-80561000D03*
X157235000Y-83561000D03*
X157235000Y-82061000D03*
X157235000Y-80561000D03*
D14*
X70358000Y-106680000D03*
X70358000Y-103886000D03*
X70358000Y-99060000D03*
X70358000Y-93980000D03*
D25*
X44196000Y-80772000D03*
D26*
X36576000Y-88392000D03*
X41656000Y-80772000D03*
X39116000Y-88392000D03*
X39116000Y-80772000D03*
X41656000Y-88392000D03*
X36576000Y-80772000D03*
X44196000Y-88392000D03*
D22*
X92190000Y-75731500D03*
D23*
X87790000Y-80664000D03*
D22*
X91390000Y-75731500D03*
X90590000Y-75731500D03*
X89790000Y-75731500D03*
X88990000Y-75731500D03*
X88190000Y-75731500D03*
X87390000Y-75731500D03*
X86590000Y-75731500D03*
X85790000Y-75731500D03*
X84990000Y-75731500D03*
X84190000Y-75731500D03*
X83390000Y-75731500D03*
X83390000Y-85596500D03*
X84190000Y-85596500D03*
X84990000Y-85596500D03*
X85790000Y-85596500D03*
X86590000Y-85596500D03*
X87390000Y-85596500D03*
X88190000Y-85596500D03*
X88990000Y-85596500D03*
X89790000Y-85596500D03*
X90590000Y-85596500D03*
X91390000Y-85596500D03*
X92190000Y-85596500D03*
D24*
X89290000Y-79164000D03*
X89290000Y-80664000D03*
X89290000Y-82164000D03*
X88290000Y-79164000D03*
X88290000Y-80664000D03*
X88290000Y-82164000D03*
X87290000Y-79164000D03*
X87290000Y-80664000D03*
X87290000Y-82164000D03*
X86290000Y-79164000D03*
X86290000Y-80664000D03*
X86290000Y-82164000D03*
D27*
X132640000Y-40164000D03*
X132640000Y-39514000D03*
X132640000Y-40824000D03*
X132640000Y-41484000D03*
D28*
X129410000Y-40494000D03*
D27*
X107240000Y-39148000D03*
X107240000Y-38498000D03*
X107240000Y-39808000D03*
X107240000Y-40468000D03*
D28*
X104010000Y-39478000D03*
D27*
X133148000Y-32544000D03*
X133148000Y-31894000D03*
X133148000Y-33204000D03*
X133148000Y-33864000D03*
D28*
X129918000Y-32874000D03*
D27*
X107240000Y-31020000D03*
X107240000Y-30370000D03*
X107240000Y-31680000D03*
X107240000Y-32340000D03*
D28*
X104010000Y-31350000D03*
D27*
X133656000Y-87281000D03*
X133656000Y-86631000D03*
X133656000Y-87941000D03*
X133656000Y-88601000D03*
D28*
X130426000Y-87611000D03*
D27*
X107875000Y-87662000D03*
X107875000Y-87012000D03*
X107875000Y-88322000D03*
X107875000Y-88982000D03*
D28*
X104645000Y-87992000D03*
D27*
X133910000Y-95282000D03*
X133910000Y-94632000D03*
X133910000Y-95942000D03*
X133910000Y-96602000D03*
D28*
X130680000Y-95612000D03*
D27*
X107875000Y-94901000D03*
X107875000Y-94251000D03*
X107875000Y-95561000D03*
X107875000Y-96221000D03*
D28*
X104645000Y-95231000D03*
D29*
X53213000Y-75411000D03*
X54483000Y-75411000D03*
X54483000Y-68861000D03*
X53213000Y-68861000D03*
X47879000Y-75411000D03*
X49149000Y-75411000D03*
X49149000Y-68861000D03*
X47879000Y-68861000D03*
X41529000Y-69115000D03*
X40259000Y-69115000D03*
X40259000Y-75665000D03*
X41529000Y-75665000D03*
X37211000Y-69115000D03*
X35941000Y-69115000D03*
X35941000Y-75665000D03*
X37211000Y-75665000D03*
D16*
X145542000Y-31782000D03*
X145542000Y-35782000D03*
D12*
X58928000Y-16923000D03*
X58928000Y-20923000D03*
D30*
X26990000Y-39554000D03*
X27940000Y-39554000D03*
X28890000Y-39554000D03*
X28890000Y-37154000D03*
X27940000Y-37154000D03*
X26990000Y-37154000D03*
D31*
X28378000Y-21270000D03*
X28378000Y-20320000D03*
X28378000Y-19370000D03*
X25978000Y-19370000D03*
X25978000Y-20320000D03*
X25978000Y-21270000D03*
D12*
X164465000Y-76549000D03*
X164465000Y-72549000D03*
X40894000Y-51784000D03*
X40894000Y-47784000D03*
D17*
X36100000Y-43434000D03*
X40100000Y-43434000D03*
D32*
X48448000Y-92472000D03*
X46548000Y-92472000D03*
X47498000Y-94472000D03*
D33*
X165400000Y-105800000D03*
X17900000Y-17500000D03*
D20*
X113792000Y-40132000D03*
D21*
X113792000Y-32632000D03*
D33*
X166200000Y-17200000D03*
X18800000Y-104500000D03*
D20*
X18800000Y-45700000D03*
D21*
X18800000Y-53200000D03*
X18800000Y-60700000D03*
X18800000Y-68200000D03*
X18800000Y-75700000D03*
D18*
X48200000Y-18700000D03*
D19*
X40700000Y-18700000D03*
D34*
X27686000Y-32258000D03*
D35*
X27686000Y-29718000D03*
D20*
X115189000Y-96266000D03*
D21*
X115189000Y-88766000D03*
D18*
X40000000Y-105200000D03*
D19*
X47500000Y-105200000D03*
X55000000Y-105200000D03*
D34*
X32512000Y-26670000D03*
D35*
X35052000Y-26670000D03*
M02*
