M48
;DRILL file {KiCad 4.0.7} date 04/26/18 12:11:18
;FORMAT={-:-/ absolute / inch / decimal}
FMAT,2
INCH,TZ
T1C0.012
T2C0.016
T3C0.028
T4C0.031
T5C0.045
T6C0.047
T7C0.055
T8C0.079
T9C0.138
%
G90
G05
M72
T1
X3.6713Y-3.1257
X3.6713Y-3.1707
X3.6713Y-3.2157
X3.7013Y-3.1257
X3.7013Y-3.1707
X3.7013Y-3.2157
X3.7313Y-3.1257
X3.7313Y-3.1707
X3.7313Y-3.2157
X3.7613Y-3.1257
X3.7613Y-3.1707
X3.7613Y-3.2157
X3.7912Y-1.3568
X3.7912Y-1.4018
X3.7912Y-1.4468
X3.8212Y-1.3568
X3.8212Y-1.4018
X3.8212Y-1.4468
X3.8512Y-1.3568
X3.8512Y-1.4018
X3.8512Y-1.4468
X3.8812Y-1.3568
X3.8812Y-1.4018
X3.8812Y-1.4468
X6.18Y-1.825
X6.18Y-1.87
X6.18Y-1.915
X6.21Y-1.825
X6.21Y-1.87
X6.21Y-1.915
X6.24Y-1.825
X6.24Y-1.87
X6.24Y-1.915
X6.2463Y-3.1857
X6.2463Y-3.2307
X6.2463Y-3.2757
X6.27Y-1.825
X6.27Y-1.87
X6.27Y-1.915
X6.2763Y-3.1857
X6.2763Y-3.2307
X6.2763Y-3.2757
X6.3063Y-3.1857
X6.3063Y-3.2307
X6.3063Y-3.2757
X6.3363Y-3.1857
X6.3363Y-3.2307
X6.3363Y-3.2757
T2
X1.015Y-2.05
X1.11Y-2.06
X1.19Y-1.835
X1.26Y-2.755
X1.4Y-1.81
X1.4Y-1.91
X1.53Y-2.82
X1.57Y-3.79
X1.625Y-1.475
X1.64Y-2.35
X1.67Y-2.25
X1.7Y-1.41
X1.72Y-1.345
X1.785Y-3.31
X1.79Y-3.405
X1.94Y-3.64
X2.16Y-1.52
X2.18Y-1.46
X2.18Y-2.29
X2.24Y-2.05
X2.245Y-1.635
X2.32Y-1.75
X2.72Y-1.3
X2.855Y-1.87
X3.46Y-2.495
X3.46Y-2.535
X3.52Y-3.65
X3.59Y-3.17
X3.61Y-3.65
X3.67Y-1.4
X3.67Y-3.44
X3.71Y-1.87
X3.79Y-1.86
X3.8293Y-3.1707
X3.85Y-1.68
X3.99Y-1.4
X4.105Y-3.36
X4.19Y-1.48
X4.38Y-1.46
X4.385Y-3.355
X4.63Y-1.16
X4.63Y-1.48
X4.67Y-1.18
X4.67Y-1.48
X4.72Y-3.31
X4.72Y-3.62
X4.76Y-3.62
X4.77Y-3.33
X5.5Y-1.77
X5.63Y-1.52
X5.64Y-3.62
X5.645Y-3.3
X5.65Y-1.22
X5.855Y-1.645
X5.995Y-3.235
X6.09Y-1.88
X6.16Y-3.23
X6.26Y-1.56
X6.3Y-1.34
X6.32Y-2.92
X6.36Y-1.86
X6.36Y-2.72
X6.4Y-1.34
X6.45Y-2.72
X6.54Y-3.23
T3
X4.12Y-4.06
X4.32Y-4.06
T4
X1.22Y-3.255
X1.22Y-3.555
X1.32Y-3.255
X1.32Y-3.555
X1.42Y-3.255
X1.42Y-3.555
X1.52Y-3.255
X1.52Y-3.555
X1.835Y-1.35
X1.835Y-1.45
X1.835Y-1.55
X1.835Y-1.65
X1.835Y-1.75
X1.835Y-1.85
X1.835Y-1.95
X1.835Y-2.05
X1.835Y-2.15
X1.835Y-2.25
X1.835Y-2.35
X1.835Y-2.45
X1.835Y-2.55
X1.835Y-2.65
X1.835Y-2.75
X2.435Y-1.35
X2.435Y-1.45
X2.435Y-1.55
X2.435Y-1.65
X2.435Y-1.75
X2.435Y-1.85
X2.435Y-1.95
X2.435Y-2.05
X2.435Y-2.15
X2.435Y-2.25
X2.435Y-2.35
X2.435Y-2.45
X2.435Y-2.55
X2.435Y-2.65
X2.435Y-2.75
X2.79Y-1.245
X2.79Y-1.345
X2.79Y-1.445
X2.79Y-1.545
X2.79Y-1.645
X2.79Y-1.745
X3.09Y-1.245
X3.09Y-1.345
X3.09Y-1.445
X3.09Y-1.545
X3.09Y-1.645
X3.09Y-1.745
T5
X2.365Y-3.705
X2.365Y-3.905
X2.365Y-4.095
X2.365Y-4.205
X3.135Y-0.695
X3.335Y-0.695
X3.525Y-0.695
X3.635Y-0.695
T6
X0.8Y-1.8
X0.8Y-2.
X0.8Y-2.2
X0.8Y-2.4
X0.8Y-2.6
X1.37Y-4.205
X1.57Y-4.205
X1.77Y-4.205
T7
X0.7402Y-1.0866
X0.7402Y-1.3819
X1.3347Y-0.71
X1.63Y-0.71
X2.785Y-3.71
X2.7897Y-3.285
X3.0803Y-3.71
X3.085Y-3.285
X3.419Y-4.052
X3.7143Y-4.052
X4.99Y-1.3047
X4.99Y-1.6
X5.115Y-3.4297
X5.115Y-3.725
T8
X4.5721Y-2.52
X4.7985Y-2.1361
X4.7985Y-2.9039
X5.4579Y-2.52
T9
X0.7047Y-0.689
X0.7402Y-4.1142
X6.5118Y-4.1654
X6.554Y-0.685
T0
M30
