G04 #@! TF.FileFunction,Soldermask,Bot*
%FSLAX46Y46*%
G04 Gerber Fmt 4.6, Leading zero omitted, Abs format (unit mm)*
G04 Created by KiCad (PCBNEW 4.0.6) date 11/14/17 15:59:32*
%MOMM*%
%LPD*%
G01*
G04 APERTURE LIST*
%ADD10C,0.100000*%
%ADD11C,2.900000*%
%ADD12R,1.924000X1.924000*%
%ADD13C,1.924000*%
%ADD14R,2.000000X2.000000*%
%ADD15O,2.000000X2.000000*%
%ADD16C,8.600000*%
%ADD17R,2.100000X2.100000*%
%ADD18O,2.100000X2.100000*%
%ADD19R,3.400000X3.400000*%
%ADD20C,0.900000*%
%ADD21R,4.000000X2.200000*%
%ADD22O,4.000000X2.200000*%
%ADD23R,2.200000X4.000000*%
%ADD24O,2.200000X4.000000*%
%ADD25R,2.400000X4.000000*%
%ADD26O,2.400000X4.000000*%
%ADD27R,4.000000X2.400000*%
%ADD28O,4.000000X2.400000*%
G04 APERTURE END LIST*
D10*
D11*
X133170000Y-64008000D03*
X110670000Y-64008000D03*
X116420000Y-73758000D03*
X116420000Y-54258000D03*
D12*
X62230000Y-63500000D03*
D13*
X62230000Y-60960000D03*
X62230000Y-58420000D03*
X62230000Y-55880000D03*
X62230000Y-53340000D03*
X62230000Y-50800000D03*
X62230000Y-48260000D03*
X62230000Y-45720000D03*
X62230000Y-43180000D03*
X62230000Y-40640000D03*
X62230000Y-38100000D03*
X62230000Y-35560000D03*
X62230000Y-33020000D03*
X62230000Y-30480000D03*
X62230000Y-27940000D03*
X46990000Y-27940000D03*
X46990000Y-30480000D03*
X46990000Y-33020000D03*
X46990000Y-35560000D03*
X46990000Y-38100000D03*
X46990000Y-40640000D03*
X46990000Y-43180000D03*
X46990000Y-45720000D03*
X46990000Y-48260000D03*
X46990000Y-50800000D03*
X46990000Y-53340000D03*
X46990000Y-55880000D03*
X46990000Y-58420000D03*
X46990000Y-60960000D03*
X46990000Y-63500000D03*
X81534000Y-19304000D03*
X78740000Y-19304000D03*
X73914000Y-19304000D03*
X68834000Y-19304000D03*
X70358000Y-106680000D03*
X70358000Y-103886000D03*
X70358000Y-99060000D03*
X70358000Y-93980000D03*
D14*
X44196000Y-80772000D03*
D15*
X36576000Y-88392000D03*
X41656000Y-80772000D03*
X39116000Y-88392000D03*
X39116000Y-80772000D03*
X41656000Y-88392000D03*
X36576000Y-80772000D03*
X44196000Y-88392000D03*
D16*
X166000000Y-106000000D03*
X18000000Y-18000000D03*
X166000000Y-18000000D03*
X18000000Y-106000000D03*
D17*
X27686000Y-32258000D03*
D18*
X27686000Y-29718000D03*
D17*
X32512000Y-26670000D03*
D18*
X35052000Y-26670000D03*
D19*
X152875000Y-46971000D03*
D20*
X151732000Y-45828000D03*
X154018000Y-45828000D03*
X154018000Y-48114000D03*
X151732000Y-48114000D03*
X151732000Y-46971000D03*
X152494000Y-48114000D03*
X152494000Y-46971000D03*
X152494000Y-45828000D03*
X153256000Y-45828000D03*
X153256000Y-46971000D03*
X153256000Y-48114000D03*
X154018000Y-46971000D03*
D19*
X89311500Y-44875500D03*
D20*
X90454500Y-46018500D03*
X88168500Y-46018500D03*
X88168500Y-43732500D03*
X90454500Y-43732500D03*
X90454500Y-44875500D03*
X89692500Y-43732500D03*
X89692500Y-44875500D03*
X89692500Y-46018500D03*
X88930500Y-46018500D03*
X88930500Y-44875500D03*
X88930500Y-43732500D03*
X88168500Y-44875500D03*
D19*
X155735000Y-82061000D03*
D20*
X154592000Y-80918000D03*
X156878000Y-80918000D03*
X156878000Y-83204000D03*
X154592000Y-83204000D03*
X154592000Y-82061000D03*
X155354000Y-83204000D03*
X155354000Y-82061000D03*
X155354000Y-80918000D03*
X156116000Y-80918000D03*
X156116000Y-82061000D03*
X156116000Y-83204000D03*
X156878000Y-82061000D03*
D19*
X87790000Y-80664000D03*
D20*
X88933000Y-81807000D03*
X86647000Y-81807000D03*
X86647000Y-79521000D03*
X88933000Y-79521000D03*
X88933000Y-80664000D03*
X88171000Y-79521000D03*
X88171000Y-80664000D03*
X88171000Y-81807000D03*
X87409000Y-81807000D03*
X87409000Y-80664000D03*
X87409000Y-79521000D03*
X86647000Y-80664000D03*
D21*
X18800000Y-45700000D03*
D22*
X18800000Y-50780000D03*
X18800000Y-55860000D03*
X18800000Y-60940000D03*
X18800000Y-66020000D03*
D23*
X42545000Y-104749600D03*
D24*
X47625000Y-104749600D03*
X52705000Y-104749600D03*
D25*
X86842600Y-102920800D03*
D26*
X94342600Y-102920800D03*
D27*
X113792000Y-40132000D03*
D28*
X113792000Y-32632000D03*
D27*
X18800000Y-27600000D03*
D28*
X18800000Y-35100000D03*
D25*
X48200000Y-18700000D03*
D26*
X40700000Y-18700000D03*
D27*
X115189000Y-96266000D03*
D28*
X115189000Y-88766000D03*
M02*
