G04 #@! TF.FileFunction,Copper,L2,Bot,Plane*
%FSLAX46Y46*%
G04 Gerber Fmt 4.6, Leading zero omitted, Abs format (unit mm)*
G04 Created by KiCad (PCBNEW 4.0.7) date 04/26/18 12:10:45*
%MOMM*%
%LPD*%
G01*
G04 APERTURE LIST*
%ADD10C,0.100000*%
%ADD11R,1.600000X1.600000*%
%ADD12O,1.600000X1.600000*%
%ADD13R,3.000000X3.000000*%
%ADD14C,0.500000*%
%ADD15R,3.600000X1.800000*%
%ADD16O,3.600000X1.800000*%
%ADD17R,1.800000X3.600000*%
%ADD18O,1.800000X3.600000*%
%ADD19R,2.000000X3.600000*%
%ADD20O,2.000000X3.600000*%
%ADD21R,3.600000X2.000000*%
%ADD22O,3.600000X2.000000*%
%ADD23C,2.500000*%
%ADD24C,1.400000*%
%ADD25O,1.400000X1.400000*%
%ADD26C,8.200000*%
%ADD27C,1.524000*%
%ADD28C,0.600000*%
%ADD29C,0.508000*%
%ADD30C,2.540000*%
%ADD31C,0.400000*%
%ADD32C,0.254000*%
G04 APERTURE END LIST*
D10*
D11*
X38608000Y-82677000D03*
D12*
X30988000Y-90297000D03*
X36068000Y-82677000D03*
X33528000Y-90297000D03*
X33528000Y-82677000D03*
X36068000Y-90297000D03*
X30988000Y-82677000D03*
X38608000Y-90297000D03*
D13*
X158115000Y-47498000D03*
D14*
X156972000Y-46355000D03*
X159258000Y-46355000D03*
X159258000Y-48641000D03*
X156972000Y-48641000D03*
X156972000Y-47498000D03*
X157734000Y-48641000D03*
X157734000Y-47498000D03*
X157734000Y-46355000D03*
X158496000Y-46355000D03*
X158496000Y-47498000D03*
X158496000Y-48641000D03*
X159258000Y-47498000D03*
D13*
X97439500Y-35604500D03*
D14*
X98582500Y-36747500D03*
X96296500Y-36747500D03*
X96296500Y-34461500D03*
X98582500Y-34461500D03*
X98582500Y-35604500D03*
X97820500Y-34461500D03*
X97820500Y-35604500D03*
X97820500Y-36747500D03*
X97058500Y-36747500D03*
X97058500Y-35604500D03*
X97058500Y-34461500D03*
X96296500Y-35604500D03*
D13*
X159799000Y-82061000D03*
D14*
X158656000Y-80918000D03*
X160942000Y-80918000D03*
X160942000Y-83204000D03*
X158656000Y-83204000D03*
X158656000Y-82061000D03*
X159418000Y-83204000D03*
X159418000Y-82061000D03*
X159418000Y-80918000D03*
X160180000Y-80918000D03*
X160180000Y-82061000D03*
X160180000Y-83204000D03*
X160942000Y-82061000D03*
D13*
X94394000Y-80537000D03*
D14*
X95537000Y-81680000D03*
X93251000Y-81680000D03*
X93251000Y-79394000D03*
X95537000Y-79394000D03*
X95537000Y-80537000D03*
X94775000Y-79394000D03*
X94775000Y-80537000D03*
X94775000Y-81680000D03*
X94013000Y-81680000D03*
X94013000Y-80537000D03*
X94013000Y-79394000D03*
X93251000Y-80537000D03*
D15*
X20320000Y-45720000D03*
D16*
X20320000Y-50800000D03*
X20320000Y-55880000D03*
X20320000Y-60960000D03*
X20320000Y-66040000D03*
D17*
X34798000Y-106807000D03*
D18*
X39878000Y-106807000D03*
X44958000Y-106807000D03*
D19*
X86842600Y-102920800D03*
D20*
X94342600Y-102920800D03*
D21*
X126746000Y-40640000D03*
D22*
X126746000Y-33140000D03*
D21*
X18800000Y-27600000D03*
D22*
X18800000Y-35100000D03*
D19*
X41402000Y-18034000D03*
D20*
X33902000Y-18034000D03*
D21*
X129921000Y-94615000D03*
D22*
X129921000Y-87115000D03*
D23*
X138631000Y-64008000D03*
X116131000Y-64008000D03*
X121881000Y-73758000D03*
X121881000Y-54258000D03*
D24*
X109728000Y-103124000D03*
D25*
X104648000Y-103124000D03*
D26*
X165400000Y-105800000D03*
X17900000Y-17500000D03*
X166471600Y-17399000D03*
X18800000Y-104500000D03*
D19*
X78359000Y-83439000D03*
D20*
X70859000Y-83439000D03*
D19*
X70739000Y-94234000D03*
D20*
X78239000Y-94234000D03*
D11*
X78486000Y-44323000D03*
D12*
X70866000Y-31623000D03*
X78486000Y-41783000D03*
X70866000Y-34163000D03*
X78486000Y-39243000D03*
X70866000Y-36703000D03*
X78486000Y-36703000D03*
X70866000Y-39243000D03*
X78486000Y-34163000D03*
X70866000Y-41783000D03*
X78486000Y-31623000D03*
X70866000Y-44323000D03*
D27*
X92329000Y-17653000D03*
X89535000Y-17653000D03*
X84709000Y-17653000D03*
X79629000Y-17653000D03*
D11*
X61849000Y-69850000D03*
D12*
X46609000Y-36830000D03*
X61849000Y-67310000D03*
X46609000Y-39370000D03*
X61849000Y-64770000D03*
X46609000Y-41910000D03*
X61849000Y-62230000D03*
X46609000Y-44450000D03*
X61849000Y-59690000D03*
X46609000Y-46990000D03*
X61849000Y-57150000D03*
X46609000Y-49530000D03*
X61849000Y-54610000D03*
X46609000Y-52070000D03*
X61849000Y-52070000D03*
X46609000Y-54610000D03*
X61849000Y-49530000D03*
X46609000Y-57150000D03*
X61849000Y-46990000D03*
X46609000Y-59690000D03*
X61849000Y-44450000D03*
X46609000Y-62230000D03*
X61849000Y-41910000D03*
X46609000Y-64770000D03*
X61849000Y-39370000D03*
X46609000Y-67310000D03*
X61849000Y-36830000D03*
X46609000Y-69850000D03*
X61849000Y-34290000D03*
X46609000Y-34290000D03*
D27*
X60071000Y-106807000D03*
X60071000Y-104013000D03*
X60071000Y-99187000D03*
X60071000Y-94107000D03*
D28*
X49276000Y-92456000D03*
X104267000Y-85344000D03*
X111379000Y-85217000D03*
X148717000Y-41783000D03*
X139700000Y-44958000D03*
X106426000Y-37592000D03*
X111252000Y-37084000D03*
X118618000Y-37592000D03*
X159004000Y-39624000D03*
X118618000Y-29972000D03*
X97790000Y-42672000D03*
X160528000Y-74168000D03*
X121158000Y-84582000D03*
X39878000Y-96266000D03*
X120904000Y-91948000D03*
X93218000Y-87376000D03*
X143002000Y-38608000D03*
X162560000Y-34036000D03*
X117602000Y-37592000D03*
X160020000Y-34036000D03*
X94234000Y-47498000D03*
X143510000Y-30988000D03*
X117602000Y-29464000D03*
X96266000Y-47244000D03*
X163830000Y-69088000D03*
X143383000Y-83820000D03*
X56896000Y-52070000D03*
X32004000Y-69977000D03*
X38862000Y-71628000D03*
X58928000Y-44450000D03*
X161544000Y-69088000D03*
X119888000Y-84074000D03*
X45466000Y-86487000D03*
X45339000Y-84074000D03*
X143256000Y-91948000D03*
X89408000Y-92710000D03*
X119888000Y-91948000D03*
X91694000Y-92710000D03*
X30226000Y-46609000D03*
X42418000Y-57150000D03*
X35560000Y-45974000D03*
X41656000Y-59690000D03*
X166116000Y-82042000D03*
X156464000Y-82042000D03*
X161544000Y-47244000D03*
X154686000Y-47752000D03*
X93218000Y-35560000D03*
X101346000Y-35560000D03*
X91186000Y-80518000D03*
X97263000Y-80537000D03*
X25781000Y-52070000D03*
X152273000Y-82169000D03*
X72517000Y-47498000D03*
X41275000Y-37465000D03*
X43180000Y-35814000D03*
X55372000Y-58166000D03*
X54864000Y-38608000D03*
X87884000Y-63373000D03*
X87884000Y-64389000D03*
X28194000Y-52324000D03*
X35560000Y-48514000D03*
X55372000Y-37084000D03*
X69088000Y-33020000D03*
X57023000Y-41529000D03*
X43688000Y-34163000D03*
D29*
X49276000Y-92456000D02*
X49276000Y-99314000D01*
X44090000Y-104500000D02*
X18800000Y-104500000D01*
X49276000Y-99314000D02*
X44090000Y-104500000D01*
X104267000Y-85344000D02*
X111252000Y-85344000D01*
X111252000Y-85344000D02*
X111379000Y-85217000D01*
X139700000Y-44958000D02*
X145542000Y-44958000D01*
X145542000Y-44958000D02*
X148717000Y-41783000D01*
X106426000Y-37592000D02*
X110744000Y-37592000D01*
X110744000Y-37592000D02*
X111252000Y-37084000D01*
X118618000Y-37592000D02*
X156972000Y-37592000D01*
X156972000Y-37592000D02*
X159004000Y-39624000D01*
X117856000Y-27940000D02*
X108966000Y-27940000D01*
X108966000Y-27940000D02*
X103124000Y-33782000D01*
X118618000Y-29972000D02*
X118618000Y-28702000D01*
X103124000Y-33782000D02*
X103124000Y-39878000D01*
X103124000Y-39878000D02*
X97790000Y-42672000D01*
X103124000Y-33655000D02*
X103124000Y-33782000D01*
X118618000Y-28702000D02*
X117856000Y-27940000D01*
X117856000Y-27940000D02*
X118110000Y-28194000D01*
X133096000Y-74168000D02*
X131572000Y-74168000D01*
X131572000Y-74168000D02*
X121158000Y-84582000D01*
X160528000Y-74168000D02*
X133096000Y-74168000D01*
X120904000Y-91948000D02*
X120904000Y-90170000D01*
X118110000Y-87376000D02*
X93218000Y-87376000D01*
X120904000Y-90170000D02*
X118110000Y-87376000D01*
X162560000Y-34036000D02*
X165608000Y-34036000D01*
X145288000Y-40640000D02*
X143002000Y-38608000D01*
X162814000Y-40640000D02*
X145288000Y-40640000D01*
X167132000Y-36576000D02*
X162814000Y-40640000D01*
X167132000Y-35560000D02*
X167132000Y-36576000D01*
X165608000Y-34036000D02*
X167132000Y-35560000D01*
X117602000Y-37592000D02*
X117602000Y-36830000D01*
X157734000Y-36322000D02*
X160020000Y-34036000D01*
X118110000Y-36322000D02*
X157734000Y-36322000D01*
X117602000Y-36830000D02*
X118110000Y-36322000D01*
X98552000Y-26924000D02*
X94742000Y-26924000D01*
X98552000Y-26924000D02*
X139446000Y-26924000D01*
X139446000Y-26924000D02*
X143510000Y-30988000D01*
X90170000Y-43434000D02*
X94234000Y-47498000D01*
X90170000Y-31496000D02*
X90170000Y-43434000D01*
X94742000Y-26924000D02*
X90170000Y-31496000D01*
X110998000Y-29464000D02*
X117602000Y-29464000D01*
X97536000Y-47244000D02*
X96266000Y-47244000D01*
X104902000Y-42164000D02*
X97536000Y-47244000D01*
X104902000Y-35560000D02*
X104902000Y-42164000D01*
X110998000Y-29464000D02*
X104902000Y-35560000D01*
X143383000Y-83820000D02*
X147320000Y-83820000D01*
X165354000Y-69088000D02*
X167640000Y-71374000D01*
X167640000Y-71374000D02*
X167640000Y-78740000D01*
X167640000Y-78740000D02*
X166878000Y-79502000D01*
X166878000Y-79502000D02*
X151638000Y-79502000D01*
X151638000Y-79502000D02*
X147320000Y-83820000D01*
X163830000Y-69088000D02*
X165354000Y-69088000D01*
X56896000Y-52070000D02*
X56896000Y-62992000D01*
X33401000Y-68580000D02*
X32004000Y-69977000D01*
X41656000Y-68580000D02*
X33401000Y-68580000D01*
X45466000Y-72390000D02*
X41656000Y-68580000D01*
X47498000Y-72390000D02*
X45466000Y-72390000D01*
X56896000Y-62992000D02*
X47498000Y-72390000D01*
X58928000Y-62738000D02*
X58928000Y-44450000D01*
X48006000Y-73660000D02*
X58928000Y-62738000D01*
X45212000Y-73660000D02*
X48006000Y-73660000D01*
X43180000Y-71628000D02*
X45212000Y-73660000D01*
X38862000Y-71628000D02*
X43180000Y-71628000D01*
X133350000Y-69088000D02*
X134874000Y-69088000D01*
X119888000Y-82550000D02*
X133350000Y-69088000D01*
X134874000Y-69088000D02*
X161544000Y-69088000D01*
X119888000Y-84074000D02*
X119888000Y-82550000D01*
X45466000Y-86487000D02*
X38481000Y-86487000D01*
X36068000Y-84074000D02*
X36068000Y-82677000D01*
X38481000Y-86487000D02*
X36068000Y-84074000D01*
X45339000Y-84074000D02*
X45339000Y-81915000D01*
X32893000Y-80772000D02*
X30988000Y-82677000D01*
X44196000Y-80772000D02*
X32893000Y-80772000D01*
X45339000Y-81915000D02*
X44196000Y-80772000D01*
X89408000Y-92710000D02*
X89408000Y-94996000D01*
X138684000Y-99060000D02*
X143256000Y-91948000D01*
X93472000Y-99060000D02*
X138684000Y-99060000D01*
X89408000Y-94996000D02*
X93472000Y-99060000D01*
X119888000Y-91948000D02*
X92456000Y-91948000D01*
X92456000Y-91948000D02*
X91694000Y-92710000D01*
X42418000Y-57150000D02*
X37084000Y-57150000D01*
X30226000Y-50292000D02*
X30226000Y-46609000D01*
X37084000Y-57150000D02*
X30226000Y-50292000D01*
X35560000Y-45974000D02*
X35560000Y-44958000D01*
X37592000Y-59690000D02*
X41656000Y-59690000D01*
X28702000Y-50800000D02*
X37592000Y-59690000D01*
X28702000Y-46228000D02*
X28702000Y-50800000D01*
X30480000Y-44450000D02*
X28702000Y-46228000D01*
X35052000Y-44450000D02*
X30480000Y-44450000D01*
X35560000Y-44958000D02*
X35052000Y-44450000D01*
D30*
X156464000Y-82042000D02*
X166116000Y-82042000D01*
D29*
X159799000Y-82061000D02*
X156483000Y-82061000D01*
X156483000Y-82061000D02*
X156464000Y-82042000D01*
D30*
X154686000Y-47752000D02*
X161036000Y-47752000D01*
X161036000Y-47752000D02*
X161544000Y-47244000D01*
X93218000Y-35560000D02*
X101346000Y-35560000D01*
X91186000Y-80518000D02*
X97244000Y-80518000D01*
X97244000Y-80518000D02*
X97263000Y-80537000D01*
D31*
X97263000Y-80537000D02*
X97282000Y-80518000D01*
D29*
X46609000Y-54610000D02*
X45720000Y-54610000D01*
X80137000Y-63373000D02*
X87884000Y-63373000D01*
X68834000Y-74676000D02*
X80137000Y-63373000D01*
X44958000Y-74676000D02*
X68834000Y-74676000D01*
X42672000Y-72390000D02*
X44958000Y-74676000D01*
X32004000Y-72390000D02*
X42672000Y-72390000D01*
X30226000Y-70612000D02*
X32004000Y-72390000D01*
X30226000Y-68565266D02*
X30226000Y-70612000D01*
X35037266Y-63754000D02*
X30226000Y-68565266D01*
X40386000Y-63754000D02*
X35037266Y-63754000D01*
X44704000Y-59436000D02*
X40386000Y-63754000D01*
X44704000Y-55626000D02*
X44704000Y-59436000D01*
X45720000Y-54610000D02*
X44704000Y-55626000D01*
X87884000Y-64389000D02*
X81407000Y-64389000D01*
X81407000Y-64389000D02*
X70104000Y-75692000D01*
X70104000Y-75692000D02*
X44958000Y-75692000D01*
X44958000Y-75692000D02*
X42164000Y-73406000D01*
X42164000Y-73406000D02*
X31496000Y-73406000D01*
X31496000Y-73406000D02*
X29464000Y-70866000D01*
X29464000Y-70866000D02*
X29464000Y-68326000D01*
X29464000Y-68326000D02*
X35052000Y-62738000D01*
X35052000Y-62738000D02*
X39878000Y-62738000D01*
X39878000Y-62738000D02*
X43688000Y-58928000D01*
X43688000Y-58928000D02*
X43688000Y-54991000D01*
X43688000Y-54991000D02*
X46609000Y-52070000D01*
X28194000Y-52324000D02*
X28194000Y-52070000D01*
X64262000Y-42037000D02*
X61849000Y-44450000D01*
X64262000Y-31496000D02*
X64262000Y-42037000D01*
X62230000Y-29464000D02*
X64262000Y-31496000D01*
X38608000Y-29464000D02*
X62230000Y-29464000D01*
X27432000Y-40640000D02*
X38608000Y-29464000D01*
X27432000Y-51308000D02*
X27432000Y-40640000D01*
X28194000Y-52070000D02*
X27432000Y-51308000D01*
X61849000Y-41910000D02*
X61849000Y-41836998D01*
X61849000Y-41836998D02*
X63553998Y-40132000D01*
X37084000Y-46990000D02*
X35560000Y-48514000D01*
X37084000Y-36576000D02*
X37084000Y-46990000D01*
X43434000Y-30226000D02*
X37084000Y-36576000D01*
X61722000Y-30226000D02*
X43434000Y-30226000D01*
X63553998Y-32057998D02*
X61722000Y-30226000D01*
X63553998Y-40132000D02*
X63553998Y-32057998D01*
X55372000Y-37084000D02*
X55372000Y-35560000D01*
X56642000Y-34290000D02*
X61849000Y-34290000D01*
X55372000Y-35560000D02*
X56642000Y-34290000D01*
X57023000Y-41529000D02*
X58547000Y-41529000D01*
X69088000Y-69850000D02*
X69088000Y-33020000D01*
X65532000Y-73406000D02*
X69088000Y-69850000D01*
X61468000Y-73406000D02*
X65532000Y-73406000D01*
X59944000Y-71882000D02*
X61468000Y-73406000D01*
X59944000Y-42926000D02*
X59944000Y-71882000D01*
X58547000Y-41529000D02*
X59944000Y-42926000D01*
X43688000Y-34163000D02*
X43688000Y-33528000D01*
X53213000Y-41529000D02*
X57023000Y-41529000D01*
X52070000Y-40386000D02*
X53213000Y-41529000D01*
X52070000Y-36322000D02*
X52070000Y-40386000D01*
X48260000Y-32512000D02*
X52070000Y-36322000D01*
X44704000Y-32512000D02*
X48260000Y-32512000D01*
X43688000Y-33528000D02*
X44704000Y-32512000D01*
D32*
G36*
X44395051Y-76380048D02*
X44509747Y-76441134D01*
X44617794Y-76513329D01*
X44661697Y-76522062D01*
X44701208Y-76543105D01*
X44830551Y-76555649D01*
X44892332Y-76567938D01*
X48170197Y-79845803D01*
X48212211Y-79873666D01*
X48260000Y-79883000D01*
X62357000Y-79883000D01*
X62357000Y-100457000D01*
X60687219Y-100457000D01*
X60802143Y-100409397D01*
X60871608Y-100167213D01*
X60071000Y-99366605D01*
X59270392Y-100167213D01*
X59339857Y-100409397D01*
X59473286Y-100457000D01*
X56896000Y-100457000D01*
X56846590Y-100467006D01*
X56804965Y-100495447D01*
X56777685Y-100537841D01*
X56769000Y-100584000D01*
X56769000Y-111125000D01*
X13843000Y-111125000D01*
X13843000Y-105437718D01*
X14064180Y-105437718D01*
X14783522Y-107178658D01*
X16114336Y-108511797D01*
X17854018Y-109234176D01*
X19737718Y-109235820D01*
X21478658Y-108516478D01*
X22811797Y-107185664D01*
X23534176Y-105445982D01*
X23534226Y-105389000D01*
X33250560Y-105389000D01*
X33250560Y-108607000D01*
X33294838Y-108842317D01*
X33433910Y-109058441D01*
X33646110Y-109203431D01*
X33898000Y-109254440D01*
X35698000Y-109254440D01*
X35933317Y-109210162D01*
X36149441Y-109071090D01*
X36294431Y-108858890D01*
X36345440Y-108607000D01*
X36345440Y-105389000D01*
X38436548Y-105389000D01*
X38343000Y-105859296D01*
X38343000Y-107754704D01*
X38459845Y-108342123D01*
X38792591Y-108840113D01*
X39290581Y-109172859D01*
X39878000Y-109289704D01*
X40465419Y-109172859D01*
X40963409Y-108840113D01*
X41296155Y-108342123D01*
X41413000Y-107754704D01*
X41413000Y-106934000D01*
X43423000Y-106934000D01*
X43423000Y-107834000D01*
X43588446Y-108411752D01*
X43962394Y-108882212D01*
X44487914Y-109173756D01*
X44593260Y-109198036D01*
X44831000Y-109077378D01*
X44831000Y-106934000D01*
X45085000Y-106934000D01*
X45085000Y-109077378D01*
X45322740Y-109198036D01*
X45428086Y-109173756D01*
X45953606Y-108882212D01*
X46327554Y-108411752D01*
X46493000Y-107834000D01*
X46493000Y-106934000D01*
X45085000Y-106934000D01*
X44831000Y-106934000D01*
X43423000Y-106934000D01*
X41413000Y-106934000D01*
X41413000Y-105859296D01*
X41319452Y-105389000D01*
X43534967Y-105389000D01*
X43423000Y-105780000D01*
X43423000Y-106680000D01*
X44831000Y-106680000D01*
X44831000Y-106660000D01*
X45085000Y-106660000D01*
X45085000Y-106680000D01*
X46493000Y-106680000D01*
X46493000Y-105780000D01*
X46327554Y-105202248D01*
X45953606Y-104731788D01*
X45428086Y-104440244D01*
X45410943Y-104436293D01*
X49904618Y-99942618D01*
X50097330Y-99654205D01*
X50165000Y-99314000D01*
X50165000Y-98979302D01*
X58661856Y-98979302D01*
X58689638Y-99534368D01*
X58848603Y-99918143D01*
X59090787Y-99987608D01*
X59891395Y-99187000D01*
X60250605Y-99187000D01*
X61051213Y-99987608D01*
X61293397Y-99918143D01*
X61480144Y-99394698D01*
X61452362Y-98839632D01*
X61293397Y-98455857D01*
X61051213Y-98386392D01*
X60250605Y-99187000D01*
X59891395Y-99187000D01*
X59090787Y-98386392D01*
X58848603Y-98455857D01*
X58661856Y-98979302D01*
X50165000Y-98979302D01*
X50165000Y-98206787D01*
X59270392Y-98206787D01*
X60071000Y-99007395D01*
X60871608Y-98206787D01*
X60802143Y-97964603D01*
X60278698Y-97777856D01*
X59723632Y-97805638D01*
X59339857Y-97964603D01*
X59270392Y-98206787D01*
X50165000Y-98206787D01*
X50165000Y-94383661D01*
X58673758Y-94383661D01*
X58885990Y-94897303D01*
X59278630Y-95290629D01*
X59791900Y-95503757D01*
X60347661Y-95504242D01*
X60861303Y-95292010D01*
X61254629Y-94899370D01*
X61467757Y-94386100D01*
X61468242Y-93830339D01*
X61256010Y-93316697D01*
X60863370Y-92923371D01*
X60350100Y-92710243D01*
X59794339Y-92709758D01*
X59280697Y-92921990D01*
X58887371Y-93314630D01*
X58674243Y-93827900D01*
X58673758Y-94383661D01*
X50165000Y-94383661D01*
X50165000Y-92753189D01*
X50210838Y-92642799D01*
X50211162Y-92270833D01*
X50069117Y-91927057D01*
X49806327Y-91663808D01*
X49462799Y-91521162D01*
X49090833Y-91520838D01*
X48747057Y-91662883D01*
X48483808Y-91925673D01*
X48341162Y-92269201D01*
X48340838Y-92641167D01*
X48387000Y-92752888D01*
X48387000Y-98945764D01*
X43721764Y-103611000D01*
X23535777Y-103611000D01*
X23535820Y-103562282D01*
X22816478Y-101821342D01*
X21485664Y-100488203D01*
X19745982Y-99765824D01*
X17862282Y-99764180D01*
X16121342Y-100483522D01*
X14788203Y-101814336D01*
X14065824Y-103554018D01*
X14064180Y-105437718D01*
X13843000Y-105437718D01*
X13843000Y-90646041D01*
X29596086Y-90646041D01*
X29835611Y-91152134D01*
X30250577Y-91528041D01*
X30638961Y-91688904D01*
X30861000Y-91566915D01*
X30861000Y-90424000D01*
X29717371Y-90424000D01*
X29596086Y-90646041D01*
X13843000Y-90646041D01*
X13843000Y-89947959D01*
X29596086Y-89947959D01*
X29717371Y-90170000D01*
X30861000Y-90170000D01*
X30861000Y-89027085D01*
X31115000Y-89027085D01*
X31115000Y-90170000D01*
X31135000Y-90170000D01*
X31135000Y-90424000D01*
X31115000Y-90424000D01*
X31115000Y-91566915D01*
X31337039Y-91688904D01*
X31725423Y-91528041D01*
X32140389Y-91152134D01*
X32243014Y-90935297D01*
X32513302Y-91339811D01*
X32978849Y-91650880D01*
X33528000Y-91760113D01*
X34077151Y-91650880D01*
X34542698Y-91339811D01*
X34798000Y-90957725D01*
X35053302Y-91339811D01*
X35518849Y-91650880D01*
X36068000Y-91760113D01*
X36617151Y-91650880D01*
X37082698Y-91339811D01*
X37338000Y-90957725D01*
X37593302Y-91339811D01*
X38058849Y-91650880D01*
X38608000Y-91760113D01*
X39157151Y-91650880D01*
X39622698Y-91339811D01*
X39933767Y-90874264D01*
X40043000Y-90325113D01*
X40043000Y-90268887D01*
X39933767Y-89719736D01*
X39622698Y-89254189D01*
X39157151Y-88943120D01*
X38608000Y-88833887D01*
X38058849Y-88943120D01*
X37593302Y-89254189D01*
X37338000Y-89636275D01*
X37082698Y-89254189D01*
X36617151Y-88943120D01*
X36068000Y-88833887D01*
X35518849Y-88943120D01*
X35053302Y-89254189D01*
X34798000Y-89636275D01*
X34542698Y-89254189D01*
X34077151Y-88943120D01*
X33528000Y-88833887D01*
X32978849Y-88943120D01*
X32513302Y-89254189D01*
X32243014Y-89658703D01*
X32140389Y-89441866D01*
X31725423Y-89065959D01*
X31337039Y-88905096D01*
X31115000Y-89027085D01*
X30861000Y-89027085D01*
X30638961Y-88905096D01*
X30250577Y-89065959D01*
X29835611Y-89441866D01*
X29596086Y-89947959D01*
X13843000Y-89947959D01*
X13843000Y-82648887D01*
X29553000Y-82648887D01*
X29553000Y-82705113D01*
X29662233Y-83254264D01*
X29973302Y-83719811D01*
X30438849Y-84030880D01*
X30988000Y-84140113D01*
X31537151Y-84030880D01*
X32002698Y-83719811D01*
X32258000Y-83337725D01*
X32513302Y-83719811D01*
X32978849Y-84030880D01*
X33528000Y-84140113D01*
X34077151Y-84030880D01*
X34542698Y-83719811D01*
X34798000Y-83337725D01*
X35053302Y-83719811D01*
X35179000Y-83803800D01*
X35179000Y-84074000D01*
X35246671Y-84414206D01*
X35372781Y-84602943D01*
X35439382Y-84702618D01*
X37852382Y-87115618D01*
X38140794Y-87308329D01*
X38481000Y-87376000D01*
X45168811Y-87376000D01*
X45279201Y-87421838D01*
X45651167Y-87422162D01*
X45994943Y-87280117D01*
X46258192Y-87017327D01*
X46400838Y-86673799D01*
X46401162Y-86301833D01*
X46259117Y-85958057D01*
X45996327Y-85694808D01*
X45652799Y-85552162D01*
X45280833Y-85551838D01*
X45169112Y-85598000D01*
X38849236Y-85598000D01*
X37015768Y-83764532D01*
X37082698Y-83719811D01*
X37179101Y-83575535D01*
X37204838Y-83712317D01*
X37343910Y-83928441D01*
X37556110Y-84073431D01*
X37808000Y-84124440D01*
X39408000Y-84124440D01*
X39643317Y-84080162D01*
X39859441Y-83941090D01*
X40004431Y-83728890D01*
X40055440Y-83477000D01*
X40055440Y-81877000D01*
X40014797Y-81661000D01*
X43827764Y-81661000D01*
X44450000Y-82283236D01*
X44450000Y-83776811D01*
X44404162Y-83887201D01*
X44403838Y-84259167D01*
X44545883Y-84602943D01*
X44808673Y-84866192D01*
X45152201Y-85008838D01*
X45524167Y-85009162D01*
X45867943Y-84867117D01*
X46131192Y-84604327D01*
X46273838Y-84260799D01*
X46274162Y-83888833D01*
X46228000Y-83777112D01*
X46228000Y-81915000D01*
X46160329Y-81574794D01*
X45967618Y-81286382D01*
X44824618Y-80143382D01*
X44536206Y-79950671D01*
X44196000Y-79883000D01*
X32893000Y-79883000D01*
X32552794Y-79950671D01*
X32264382Y-80143382D01*
X31159720Y-81248044D01*
X30988000Y-81213887D01*
X30438849Y-81323120D01*
X29973302Y-81634189D01*
X29662233Y-82099736D01*
X29553000Y-82648887D01*
X13843000Y-82648887D01*
X13843000Y-75819000D01*
X43709326Y-75819000D01*
X44395051Y-76380048D01*
X44395051Y-76380048D01*
G37*
X44395051Y-76380048D02*
X44509747Y-76441134D01*
X44617794Y-76513329D01*
X44661697Y-76522062D01*
X44701208Y-76543105D01*
X44830551Y-76555649D01*
X44892332Y-76567938D01*
X48170197Y-79845803D01*
X48212211Y-79873666D01*
X48260000Y-79883000D01*
X62357000Y-79883000D01*
X62357000Y-100457000D01*
X60687219Y-100457000D01*
X60802143Y-100409397D01*
X60871608Y-100167213D01*
X60071000Y-99366605D01*
X59270392Y-100167213D01*
X59339857Y-100409397D01*
X59473286Y-100457000D01*
X56896000Y-100457000D01*
X56846590Y-100467006D01*
X56804965Y-100495447D01*
X56777685Y-100537841D01*
X56769000Y-100584000D01*
X56769000Y-111125000D01*
X13843000Y-111125000D01*
X13843000Y-105437718D01*
X14064180Y-105437718D01*
X14783522Y-107178658D01*
X16114336Y-108511797D01*
X17854018Y-109234176D01*
X19737718Y-109235820D01*
X21478658Y-108516478D01*
X22811797Y-107185664D01*
X23534176Y-105445982D01*
X23534226Y-105389000D01*
X33250560Y-105389000D01*
X33250560Y-108607000D01*
X33294838Y-108842317D01*
X33433910Y-109058441D01*
X33646110Y-109203431D01*
X33898000Y-109254440D01*
X35698000Y-109254440D01*
X35933317Y-109210162D01*
X36149441Y-109071090D01*
X36294431Y-108858890D01*
X36345440Y-108607000D01*
X36345440Y-105389000D01*
X38436548Y-105389000D01*
X38343000Y-105859296D01*
X38343000Y-107754704D01*
X38459845Y-108342123D01*
X38792591Y-108840113D01*
X39290581Y-109172859D01*
X39878000Y-109289704D01*
X40465419Y-109172859D01*
X40963409Y-108840113D01*
X41296155Y-108342123D01*
X41413000Y-107754704D01*
X41413000Y-106934000D01*
X43423000Y-106934000D01*
X43423000Y-107834000D01*
X43588446Y-108411752D01*
X43962394Y-108882212D01*
X44487914Y-109173756D01*
X44593260Y-109198036D01*
X44831000Y-109077378D01*
X44831000Y-106934000D01*
X45085000Y-106934000D01*
X45085000Y-109077378D01*
X45322740Y-109198036D01*
X45428086Y-109173756D01*
X45953606Y-108882212D01*
X46327554Y-108411752D01*
X46493000Y-107834000D01*
X46493000Y-106934000D01*
X45085000Y-106934000D01*
X44831000Y-106934000D01*
X43423000Y-106934000D01*
X41413000Y-106934000D01*
X41413000Y-105859296D01*
X41319452Y-105389000D01*
X43534967Y-105389000D01*
X43423000Y-105780000D01*
X43423000Y-106680000D01*
X44831000Y-106680000D01*
X44831000Y-106660000D01*
X45085000Y-106660000D01*
X45085000Y-106680000D01*
X46493000Y-106680000D01*
X46493000Y-105780000D01*
X46327554Y-105202248D01*
X45953606Y-104731788D01*
X45428086Y-104440244D01*
X45410943Y-104436293D01*
X49904618Y-99942618D01*
X50097330Y-99654205D01*
X50165000Y-99314000D01*
X50165000Y-98979302D01*
X58661856Y-98979302D01*
X58689638Y-99534368D01*
X58848603Y-99918143D01*
X59090787Y-99987608D01*
X59891395Y-99187000D01*
X60250605Y-99187000D01*
X61051213Y-99987608D01*
X61293397Y-99918143D01*
X61480144Y-99394698D01*
X61452362Y-98839632D01*
X61293397Y-98455857D01*
X61051213Y-98386392D01*
X60250605Y-99187000D01*
X59891395Y-99187000D01*
X59090787Y-98386392D01*
X58848603Y-98455857D01*
X58661856Y-98979302D01*
X50165000Y-98979302D01*
X50165000Y-98206787D01*
X59270392Y-98206787D01*
X60071000Y-99007395D01*
X60871608Y-98206787D01*
X60802143Y-97964603D01*
X60278698Y-97777856D01*
X59723632Y-97805638D01*
X59339857Y-97964603D01*
X59270392Y-98206787D01*
X50165000Y-98206787D01*
X50165000Y-94383661D01*
X58673758Y-94383661D01*
X58885990Y-94897303D01*
X59278630Y-95290629D01*
X59791900Y-95503757D01*
X60347661Y-95504242D01*
X60861303Y-95292010D01*
X61254629Y-94899370D01*
X61467757Y-94386100D01*
X61468242Y-93830339D01*
X61256010Y-93316697D01*
X60863370Y-92923371D01*
X60350100Y-92710243D01*
X59794339Y-92709758D01*
X59280697Y-92921990D01*
X58887371Y-93314630D01*
X58674243Y-93827900D01*
X58673758Y-94383661D01*
X50165000Y-94383661D01*
X50165000Y-92753189D01*
X50210838Y-92642799D01*
X50211162Y-92270833D01*
X50069117Y-91927057D01*
X49806327Y-91663808D01*
X49462799Y-91521162D01*
X49090833Y-91520838D01*
X48747057Y-91662883D01*
X48483808Y-91925673D01*
X48341162Y-92269201D01*
X48340838Y-92641167D01*
X48387000Y-92752888D01*
X48387000Y-98945764D01*
X43721764Y-103611000D01*
X23535777Y-103611000D01*
X23535820Y-103562282D01*
X22816478Y-101821342D01*
X21485664Y-100488203D01*
X19745982Y-99765824D01*
X17862282Y-99764180D01*
X16121342Y-100483522D01*
X14788203Y-101814336D01*
X14065824Y-103554018D01*
X14064180Y-105437718D01*
X13843000Y-105437718D01*
X13843000Y-90646041D01*
X29596086Y-90646041D01*
X29835611Y-91152134D01*
X30250577Y-91528041D01*
X30638961Y-91688904D01*
X30861000Y-91566915D01*
X30861000Y-90424000D01*
X29717371Y-90424000D01*
X29596086Y-90646041D01*
X13843000Y-90646041D01*
X13843000Y-89947959D01*
X29596086Y-89947959D01*
X29717371Y-90170000D01*
X30861000Y-90170000D01*
X30861000Y-89027085D01*
X31115000Y-89027085D01*
X31115000Y-90170000D01*
X31135000Y-90170000D01*
X31135000Y-90424000D01*
X31115000Y-90424000D01*
X31115000Y-91566915D01*
X31337039Y-91688904D01*
X31725423Y-91528041D01*
X32140389Y-91152134D01*
X32243014Y-90935297D01*
X32513302Y-91339811D01*
X32978849Y-91650880D01*
X33528000Y-91760113D01*
X34077151Y-91650880D01*
X34542698Y-91339811D01*
X34798000Y-90957725D01*
X35053302Y-91339811D01*
X35518849Y-91650880D01*
X36068000Y-91760113D01*
X36617151Y-91650880D01*
X37082698Y-91339811D01*
X37338000Y-90957725D01*
X37593302Y-91339811D01*
X38058849Y-91650880D01*
X38608000Y-91760113D01*
X39157151Y-91650880D01*
X39622698Y-91339811D01*
X39933767Y-90874264D01*
X40043000Y-90325113D01*
X40043000Y-90268887D01*
X39933767Y-89719736D01*
X39622698Y-89254189D01*
X39157151Y-88943120D01*
X38608000Y-88833887D01*
X38058849Y-88943120D01*
X37593302Y-89254189D01*
X37338000Y-89636275D01*
X37082698Y-89254189D01*
X36617151Y-88943120D01*
X36068000Y-88833887D01*
X35518849Y-88943120D01*
X35053302Y-89254189D01*
X34798000Y-89636275D01*
X34542698Y-89254189D01*
X34077151Y-88943120D01*
X33528000Y-88833887D01*
X32978849Y-88943120D01*
X32513302Y-89254189D01*
X32243014Y-89658703D01*
X32140389Y-89441866D01*
X31725423Y-89065959D01*
X31337039Y-88905096D01*
X31115000Y-89027085D01*
X30861000Y-89027085D01*
X30638961Y-88905096D01*
X30250577Y-89065959D01*
X29835611Y-89441866D01*
X29596086Y-89947959D01*
X13843000Y-89947959D01*
X13843000Y-82648887D01*
X29553000Y-82648887D01*
X29553000Y-82705113D01*
X29662233Y-83254264D01*
X29973302Y-83719811D01*
X30438849Y-84030880D01*
X30988000Y-84140113D01*
X31537151Y-84030880D01*
X32002698Y-83719811D01*
X32258000Y-83337725D01*
X32513302Y-83719811D01*
X32978849Y-84030880D01*
X33528000Y-84140113D01*
X34077151Y-84030880D01*
X34542698Y-83719811D01*
X34798000Y-83337725D01*
X35053302Y-83719811D01*
X35179000Y-83803800D01*
X35179000Y-84074000D01*
X35246671Y-84414206D01*
X35372781Y-84602943D01*
X35439382Y-84702618D01*
X37852382Y-87115618D01*
X38140794Y-87308329D01*
X38481000Y-87376000D01*
X45168811Y-87376000D01*
X45279201Y-87421838D01*
X45651167Y-87422162D01*
X45994943Y-87280117D01*
X46258192Y-87017327D01*
X46400838Y-86673799D01*
X46401162Y-86301833D01*
X46259117Y-85958057D01*
X45996327Y-85694808D01*
X45652799Y-85552162D01*
X45280833Y-85551838D01*
X45169112Y-85598000D01*
X38849236Y-85598000D01*
X37015768Y-83764532D01*
X37082698Y-83719811D01*
X37179101Y-83575535D01*
X37204838Y-83712317D01*
X37343910Y-83928441D01*
X37556110Y-84073431D01*
X37808000Y-84124440D01*
X39408000Y-84124440D01*
X39643317Y-84080162D01*
X39859441Y-83941090D01*
X40004431Y-83728890D01*
X40055440Y-83477000D01*
X40055440Y-81877000D01*
X40014797Y-81661000D01*
X43827764Y-81661000D01*
X44450000Y-82283236D01*
X44450000Y-83776811D01*
X44404162Y-83887201D01*
X44403838Y-84259167D01*
X44545883Y-84602943D01*
X44808673Y-84866192D01*
X45152201Y-85008838D01*
X45524167Y-85009162D01*
X45867943Y-84867117D01*
X46131192Y-84604327D01*
X46273838Y-84260799D01*
X46274162Y-83888833D01*
X46228000Y-83777112D01*
X46228000Y-81915000D01*
X46160329Y-81574794D01*
X45967618Y-81286382D01*
X44824618Y-80143382D01*
X44536206Y-79950671D01*
X44196000Y-79883000D01*
X32893000Y-79883000D01*
X32552794Y-79950671D01*
X32264382Y-80143382D01*
X31159720Y-81248044D01*
X30988000Y-81213887D01*
X30438849Y-81323120D01*
X29973302Y-81634189D01*
X29662233Y-82099736D01*
X29553000Y-82648887D01*
X13843000Y-82648887D01*
X13843000Y-75819000D01*
X43709326Y-75819000D01*
X44395051Y-76380048D01*
G36*
X15221342Y-13483522D02*
X13888203Y-14814336D01*
X13165824Y-16554018D01*
X13164180Y-18437718D01*
X13883522Y-20178658D01*
X15214336Y-21511797D01*
X16954018Y-22234176D01*
X18837718Y-22235820D01*
X20578658Y-21516478D01*
X21911797Y-20185664D01*
X22634176Y-18445982D01*
X22635275Y-17186296D01*
X32267000Y-17186296D01*
X32267000Y-18881704D01*
X32391457Y-19507391D01*
X32745880Y-20037824D01*
X33276313Y-20392247D01*
X33902000Y-20516704D01*
X34527687Y-20392247D01*
X35058120Y-20037824D01*
X35412543Y-19507391D01*
X35537000Y-18881704D01*
X35537000Y-17186296D01*
X35412543Y-16560609D01*
X35194311Y-16234000D01*
X39754560Y-16234000D01*
X39754560Y-19834000D01*
X39798838Y-20069317D01*
X39937910Y-20285441D01*
X40150110Y-20430431D01*
X40402000Y-20481440D01*
X42402000Y-20481440D01*
X42637317Y-20437162D01*
X42853441Y-20298090D01*
X42998431Y-20085890D01*
X43049440Y-19834000D01*
X43049440Y-17929661D01*
X78231758Y-17929661D01*
X78443990Y-18443303D01*
X78836630Y-18836629D01*
X79349900Y-19049757D01*
X79905661Y-19050242D01*
X80419303Y-18838010D01*
X80624457Y-18633213D01*
X83908392Y-18633213D01*
X83977857Y-18875397D01*
X84501302Y-19062144D01*
X85056368Y-19034362D01*
X85440143Y-18875397D01*
X85509608Y-18633213D01*
X88734392Y-18633213D01*
X88803857Y-18875397D01*
X89327302Y-19062144D01*
X89882368Y-19034362D01*
X90266143Y-18875397D01*
X90335608Y-18633213D01*
X89535000Y-17832605D01*
X88734392Y-18633213D01*
X85509608Y-18633213D01*
X84709000Y-17832605D01*
X83908392Y-18633213D01*
X80624457Y-18633213D01*
X80812629Y-18445370D01*
X81025757Y-17932100D01*
X81026181Y-17445302D01*
X83299856Y-17445302D01*
X83327638Y-18000368D01*
X83486603Y-18384143D01*
X83728787Y-18453608D01*
X84529395Y-17653000D01*
X84888605Y-17653000D01*
X85689213Y-18453608D01*
X85931397Y-18384143D01*
X86118144Y-17860698D01*
X86097353Y-17445302D01*
X88125856Y-17445302D01*
X88153638Y-18000368D01*
X88312603Y-18384143D01*
X88554787Y-18453608D01*
X89355395Y-17653000D01*
X89714605Y-17653000D01*
X90515213Y-18453608D01*
X90757397Y-18384143D01*
X90931788Y-17895332D01*
X90931758Y-17929661D01*
X91143990Y-18443303D01*
X91536630Y-18836629D01*
X92049900Y-19049757D01*
X92605661Y-19050242D01*
X93119303Y-18838010D01*
X93512629Y-18445370D01*
X93725757Y-17932100D01*
X93726242Y-17376339D01*
X93514010Y-16862697D01*
X93121370Y-16469371D01*
X92608100Y-16256243D01*
X92052339Y-16255758D01*
X91538697Y-16467990D01*
X91145371Y-16860630D01*
X90932243Y-17373900D01*
X90932029Y-17618656D01*
X90916362Y-17305632D01*
X90757397Y-16921857D01*
X90515213Y-16852392D01*
X89714605Y-17653000D01*
X89355395Y-17653000D01*
X88554787Y-16852392D01*
X88312603Y-16921857D01*
X88125856Y-17445302D01*
X86097353Y-17445302D01*
X86090362Y-17305632D01*
X85931397Y-16921857D01*
X85689213Y-16852392D01*
X84888605Y-17653000D01*
X84529395Y-17653000D01*
X83728787Y-16852392D01*
X83486603Y-16921857D01*
X83299856Y-17445302D01*
X81026181Y-17445302D01*
X81026242Y-17376339D01*
X80814010Y-16862697D01*
X80624432Y-16672787D01*
X83908392Y-16672787D01*
X84709000Y-17473395D01*
X85509608Y-16672787D01*
X88734392Y-16672787D01*
X89535000Y-17473395D01*
X90335608Y-16672787D01*
X90266143Y-16430603D01*
X89742698Y-16243856D01*
X89187632Y-16271638D01*
X88803857Y-16430603D01*
X88734392Y-16672787D01*
X85509608Y-16672787D01*
X85440143Y-16430603D01*
X84916698Y-16243856D01*
X84361632Y-16271638D01*
X83977857Y-16430603D01*
X83908392Y-16672787D01*
X80624432Y-16672787D01*
X80421370Y-16469371D01*
X79908100Y-16256243D01*
X79352339Y-16255758D01*
X78838697Y-16467990D01*
X78445371Y-16860630D01*
X78232243Y-17373900D01*
X78231758Y-17929661D01*
X43049440Y-17929661D01*
X43049440Y-16234000D01*
X43005162Y-15998683D01*
X42866090Y-15782559D01*
X42653890Y-15637569D01*
X42402000Y-15586560D01*
X40402000Y-15586560D01*
X40166683Y-15630838D01*
X39950559Y-15769910D01*
X39805569Y-15982110D01*
X39754560Y-16234000D01*
X35194311Y-16234000D01*
X35058120Y-16030176D01*
X34527687Y-15675753D01*
X33902000Y-15551296D01*
X33276313Y-15675753D01*
X32745880Y-16030176D01*
X32391457Y-16560609D01*
X32267000Y-17186296D01*
X22635275Y-17186296D01*
X22635820Y-16562282D01*
X21916478Y-14821342D01*
X20585664Y-13488203D01*
X18993310Y-12827000D01*
X123571000Y-12827000D01*
X123571000Y-21209000D01*
X87376000Y-21209000D01*
X87326590Y-21219006D01*
X87284965Y-21247447D01*
X87257685Y-21289841D01*
X87249000Y-21336000D01*
X87249000Y-26035000D01*
X87259006Y-26084410D01*
X87287447Y-26126035D01*
X87329841Y-26153315D01*
X87376000Y-26162000D01*
X94313002Y-26162000D01*
X94113382Y-26295382D01*
X89541382Y-30867382D01*
X89348671Y-31155794D01*
X89281000Y-31496000D01*
X89281000Y-43434000D01*
X89348671Y-43774206D01*
X89445869Y-43919673D01*
X89541382Y-44062618D01*
X93395238Y-47916474D01*
X93440883Y-48026943D01*
X93703673Y-48290192D01*
X94047201Y-48432838D01*
X94419167Y-48433162D01*
X94762943Y-48291117D01*
X95026192Y-48028327D01*
X95168838Y-47684799D01*
X95169162Y-47312833D01*
X95027117Y-46969057D01*
X94764327Y-46705808D01*
X94652687Y-46659451D01*
X91059000Y-43065764D01*
X91059000Y-33978191D01*
X95304500Y-33978191D01*
X95304500Y-35318750D01*
X95422662Y-35436912D01*
X95398372Y-35517430D01*
X95423739Y-35771011D01*
X95304500Y-35890250D01*
X95304500Y-37230809D01*
X95401173Y-37464198D01*
X95579801Y-37642827D01*
X95813190Y-37739500D01*
X97153750Y-37739500D01*
X97278322Y-37614928D01*
X97321757Y-37610583D01*
X97446282Y-37559002D01*
X97587291Y-37601541D01*
X97725250Y-37739500D01*
X99065810Y-37739500D01*
X99299199Y-37642827D01*
X99477827Y-37464198D01*
X99574500Y-37230809D01*
X99574500Y-35890250D01*
X99456338Y-35772088D01*
X99480628Y-35691570D01*
X99455261Y-35437989D01*
X99574500Y-35318750D01*
X99574500Y-33978191D01*
X99477827Y-33744802D01*
X99299199Y-33566173D01*
X99065810Y-33469500D01*
X97725250Y-33469500D01*
X97600678Y-33594072D01*
X97557243Y-33598417D01*
X97432718Y-33649998D01*
X97291709Y-33607459D01*
X97153750Y-33469500D01*
X95813190Y-33469500D01*
X95579801Y-33566173D01*
X95401173Y-33744802D01*
X95304500Y-33978191D01*
X91059000Y-33978191D01*
X91059000Y-31864236D01*
X95110236Y-27813000D01*
X107696000Y-27813000D01*
X107696000Y-27952764D01*
X102822865Y-32825899D01*
X102783794Y-32833671D01*
X102495382Y-33026382D01*
X102302671Y-33314794D01*
X102235000Y-33655000D01*
X102235000Y-39340090D01*
X97659300Y-41736885D01*
X97604833Y-41736838D01*
X97261057Y-41878883D01*
X96997808Y-42141673D01*
X96855162Y-42485201D01*
X96854838Y-42857167D01*
X96996883Y-43200943D01*
X97259673Y-43464192D01*
X97603201Y-43606838D01*
X97975167Y-43607162D01*
X98318943Y-43465117D01*
X98459329Y-43324975D01*
X103536502Y-40665504D01*
X103640988Y-40581207D01*
X103752618Y-40506618D01*
X103775047Y-40473051D01*
X103806468Y-40447701D01*
X103870743Y-40329832D01*
X103945329Y-40218206D01*
X103953205Y-40178610D01*
X103972533Y-40143166D01*
X103986809Y-40009672D01*
X104013000Y-39878000D01*
X104013000Y-41697189D01*
X97259173Y-46355000D01*
X96563189Y-46355000D01*
X96452799Y-46309162D01*
X96080833Y-46308838D01*
X95737057Y-46450883D01*
X95473808Y-46713673D01*
X95331162Y-47057201D01*
X95330838Y-47429167D01*
X95472883Y-47772943D01*
X95735673Y-48036192D01*
X96079201Y-48178838D01*
X96451167Y-48179162D01*
X96562888Y-48133000D01*
X97536000Y-48133000D01*
X97628216Y-48114657D01*
X97722234Y-48113275D01*
X97796682Y-48081147D01*
X97876206Y-48065329D01*
X97954385Y-48013091D01*
X98040715Y-47975836D01*
X105406715Y-42895836D01*
X105463200Y-42837665D01*
X105530618Y-42792618D01*
X105582855Y-42714439D01*
X105648358Y-42646982D01*
X105678283Y-42571622D01*
X105723329Y-42504206D01*
X105741672Y-42411989D01*
X105776374Y-42324599D01*
X105775182Y-42243522D01*
X105791000Y-42164000D01*
X105791000Y-38279336D01*
X105895673Y-38384192D01*
X106239201Y-38526838D01*
X106611167Y-38527162D01*
X106722888Y-38481000D01*
X107696000Y-38481000D01*
X107696000Y-52197000D01*
X107706006Y-52246410D01*
X107734447Y-52288035D01*
X107776841Y-52315315D01*
X107823000Y-52324000D01*
X111125000Y-52324000D01*
X111174410Y-52313994D01*
X111216035Y-52285553D01*
X111243315Y-52243159D01*
X111251999Y-52196430D01*
X111195693Y-39640000D01*
X124298560Y-39640000D01*
X124298560Y-41640000D01*
X124342838Y-41875317D01*
X124481910Y-42091441D01*
X124694110Y-42236431D01*
X124946000Y-42287440D01*
X128546000Y-42287440D01*
X128781317Y-42243162D01*
X128997441Y-42104090D01*
X129142431Y-41891890D01*
X129193440Y-41640000D01*
X129193440Y-39640000D01*
X129149162Y-39404683D01*
X129010090Y-39188559D01*
X128797890Y-39043569D01*
X128546000Y-38992560D01*
X124946000Y-38992560D01*
X124710683Y-39036838D01*
X124494559Y-39175910D01*
X124349569Y-39388110D01*
X124298560Y-39640000D01*
X111195693Y-39640000D01*
X111189875Y-38342723D01*
X111372618Y-38220618D01*
X111670474Y-37922762D01*
X111780943Y-37877117D01*
X112044192Y-37614327D01*
X112186838Y-37270799D01*
X112187162Y-36898833D01*
X112045117Y-36555057D01*
X111782327Y-36291808D01*
X111438799Y-36149162D01*
X111180037Y-36148937D01*
X111166545Y-33140000D01*
X124263296Y-33140000D01*
X124387753Y-33765687D01*
X124742176Y-34296120D01*
X125272609Y-34650543D01*
X125898296Y-34775000D01*
X127593704Y-34775000D01*
X128219391Y-34650543D01*
X128749824Y-34296120D01*
X129104247Y-33765687D01*
X129228704Y-33140000D01*
X129104247Y-32514313D01*
X128749824Y-31983880D01*
X128219391Y-31629457D01*
X127593704Y-31505000D01*
X125898296Y-31505000D01*
X125272609Y-31629457D01*
X124742176Y-31983880D01*
X124387753Y-32514313D01*
X124263296Y-33140000D01*
X111166545Y-33140000D01*
X111154994Y-30564242D01*
X111366236Y-30353000D01*
X117304811Y-30353000D01*
X117415201Y-30398838D01*
X117782826Y-30399158D01*
X117824883Y-30500943D01*
X118087673Y-30764192D01*
X118431201Y-30906838D01*
X118803167Y-30907162D01*
X119146943Y-30765117D01*
X119410192Y-30502327D01*
X119552838Y-30158799D01*
X119553162Y-29786833D01*
X119507000Y-29675112D01*
X119507000Y-28702000D01*
X119439329Y-28361794D01*
X119246618Y-28073382D01*
X118986236Y-27813000D01*
X139077764Y-27813000D01*
X142671238Y-31406474D01*
X142716883Y-31516943D01*
X142979673Y-31780192D01*
X143323201Y-31922838D01*
X143695167Y-31923162D01*
X144038943Y-31781117D01*
X144302192Y-31518327D01*
X144444838Y-31174799D01*
X144445162Y-30802833D01*
X144303117Y-30459057D01*
X144040327Y-30195808D01*
X143928687Y-30149451D01*
X140074618Y-26295382D01*
X139786206Y-26102671D01*
X139446000Y-26035000D01*
X111134683Y-26035000D01*
X111125571Y-24003000D01*
X147574499Y-24003000D01*
X147619499Y-35433000D01*
X118110000Y-35433000D01*
X117769794Y-35500671D01*
X117481382Y-35693382D01*
X116973382Y-36201382D01*
X116780671Y-36489794D01*
X116713000Y-36830000D01*
X116713000Y-37294811D01*
X116667162Y-37405201D01*
X116666838Y-37777167D01*
X116808883Y-38120943D01*
X117071673Y-38384192D01*
X117415201Y-38526838D01*
X117787167Y-38527162D01*
X118110371Y-38393617D01*
X118431201Y-38526838D01*
X118803167Y-38527162D01*
X118914888Y-38481000D01*
X142067110Y-38481000D01*
X142066838Y-38793167D01*
X142208883Y-39136943D01*
X142471673Y-39400192D01*
X142628227Y-39465199D01*
X144697381Y-41304447D01*
X144824886Y-41379205D01*
X144947794Y-41461329D01*
X144973768Y-41466496D01*
X144996612Y-41479889D01*
X145143025Y-41500163D01*
X145288000Y-41529000D01*
X147643499Y-41529000D01*
X147643775Y-41598989D01*
X145173764Y-44069000D01*
X139997189Y-44069000D01*
X139886799Y-44023162D01*
X139514833Y-44022838D01*
X139171057Y-44164883D01*
X138907808Y-44427673D01*
X138765162Y-44771201D01*
X138764838Y-45143167D01*
X138906883Y-45486943D01*
X139169673Y-45750192D01*
X139513201Y-45892838D01*
X139885167Y-45893162D01*
X139996888Y-45847000D01*
X145542000Y-45847000D01*
X145882206Y-45779329D01*
X146170618Y-45586618D01*
X147653635Y-44103601D01*
X147701001Y-56134500D01*
X147711201Y-56183870D01*
X147739806Y-56225383D01*
X147782307Y-56252495D01*
X147828000Y-56261000D01*
X150622000Y-56261000D01*
X150671410Y-56250994D01*
X150713035Y-56222553D01*
X150740315Y-56180159D01*
X150749000Y-56134000D01*
X150749000Y-45871691D01*
X155980000Y-45871691D01*
X155980000Y-47212250D01*
X156098162Y-47330412D01*
X156073872Y-47410930D01*
X156099239Y-47664511D01*
X155980000Y-47783750D01*
X155980000Y-49124309D01*
X156076673Y-49357698D01*
X156255301Y-49536327D01*
X156488690Y-49633000D01*
X157829250Y-49633000D01*
X157953822Y-49508428D01*
X157997257Y-49504083D01*
X158121782Y-49452502D01*
X158262791Y-49495041D01*
X158400750Y-49633000D01*
X159741310Y-49633000D01*
X159974699Y-49536327D01*
X160153327Y-49357698D01*
X160250000Y-49124309D01*
X160250000Y-47783750D01*
X160131838Y-47665588D01*
X160156128Y-47585070D01*
X160130761Y-47331489D01*
X160250000Y-47212250D01*
X160250000Y-45871691D01*
X160153327Y-45638302D01*
X159974699Y-45459673D01*
X159741310Y-45363000D01*
X158400750Y-45363000D01*
X158276178Y-45487572D01*
X158232743Y-45491917D01*
X158108218Y-45543498D01*
X157967209Y-45500959D01*
X157829250Y-45363000D01*
X156488690Y-45363000D01*
X156255301Y-45459673D01*
X156076673Y-45638302D01*
X155980000Y-45871691D01*
X150749000Y-45871691D01*
X150749000Y-41529000D01*
X162814000Y-41529000D01*
X162971146Y-41497742D01*
X163129172Y-41471257D01*
X163140780Y-41464000D01*
X163154206Y-41461329D01*
X163287432Y-41372310D01*
X163423289Y-41287370D01*
X167741289Y-37223370D01*
X167749235Y-37212224D01*
X167760618Y-37204618D01*
X167849641Y-37071386D01*
X167942648Y-36940926D01*
X167945724Y-36927588D01*
X167953329Y-36916206D01*
X167984588Y-36759056D01*
X168020592Y-36602927D01*
X168018329Y-36589426D01*
X168021000Y-36576000D01*
X168021000Y-35560000D01*
X167953329Y-35219794D01*
X167760618Y-34931382D01*
X166236618Y-33407382D01*
X166098050Y-33314794D01*
X165948206Y-33214671D01*
X165608000Y-33147000D01*
X162857189Y-33147000D01*
X162746799Y-33101162D01*
X162374833Y-33100838D01*
X162031057Y-33242883D01*
X161767808Y-33505673D01*
X161625162Y-33849201D01*
X161624838Y-34221167D01*
X161766883Y-34564943D01*
X162029673Y-34828192D01*
X162373201Y-34970838D01*
X162745167Y-34971162D01*
X162856888Y-34925000D01*
X165239764Y-34925000D01*
X166243000Y-35928236D01*
X166243000Y-36191887D01*
X162461443Y-39751000D01*
X159938890Y-39751000D01*
X159939162Y-39438833D01*
X159797117Y-39095057D01*
X159534327Y-38831808D01*
X159422687Y-38785451D01*
X157829283Y-37192047D01*
X158074206Y-37143329D01*
X158362618Y-36950618D01*
X160438474Y-34874762D01*
X160548943Y-34829117D01*
X160812192Y-34566327D01*
X160954838Y-34222799D01*
X160955162Y-33850833D01*
X160813117Y-33507057D01*
X160550327Y-33243808D01*
X160206799Y-33101162D01*
X159834833Y-33100838D01*
X159491057Y-33242883D01*
X159227808Y-33505673D01*
X159181451Y-33617313D01*
X157365764Y-35433000D01*
X150749000Y-35433000D01*
X150749000Y-26416000D01*
X169926000Y-26416000D01*
X169926000Y-62992000D01*
X150114000Y-62992000D01*
X150064590Y-63002006D01*
X150022965Y-63030447D01*
X149995685Y-63072841D01*
X149987000Y-63119000D01*
X149987000Y-64643000D01*
X149997006Y-64692410D01*
X150025447Y-64734035D01*
X150067841Y-64761315D01*
X150114000Y-64770000D01*
X170180000Y-64770000D01*
X170180000Y-110998000D01*
X151129603Y-110998000D01*
X151123954Y-109190072D01*
X162189533Y-109190072D01*
X162666039Y-109779040D01*
X164396862Y-110522396D01*
X166280403Y-110546809D01*
X168029912Y-109848565D01*
X168133961Y-109779040D01*
X168610467Y-109190072D01*
X165400000Y-105979605D01*
X162189533Y-109190072D01*
X151123954Y-109190072D01*
X151116111Y-106680403D01*
X160653191Y-106680403D01*
X161351435Y-108429912D01*
X161420960Y-108533961D01*
X162009928Y-109010467D01*
X165220395Y-105800000D01*
X165579605Y-105800000D01*
X168790072Y-109010467D01*
X169379040Y-108533961D01*
X170122396Y-106803138D01*
X170146809Y-104919597D01*
X169448565Y-103170088D01*
X169379040Y-103066039D01*
X168790072Y-102589533D01*
X165579605Y-105800000D01*
X165220395Y-105800000D01*
X162009928Y-102589533D01*
X161420960Y-103066039D01*
X160677604Y-104796862D01*
X160653191Y-106680403D01*
X151116111Y-106680403D01*
X151102766Y-102409928D01*
X162189533Y-102409928D01*
X165400000Y-105620395D01*
X168610467Y-102409928D01*
X168133961Y-101820960D01*
X166403138Y-101077604D01*
X164519597Y-101053191D01*
X162770088Y-101751435D01*
X162666039Y-101820960D01*
X162189533Y-102409928D01*
X151102766Y-102409928D01*
X151036985Y-81360251D01*
X152006236Y-80391000D01*
X157682097Y-80391000D01*
X157664000Y-80434691D01*
X157664000Y-81775250D01*
X157782162Y-81893412D01*
X157757872Y-81973930D01*
X157783239Y-82227511D01*
X157664000Y-82346750D01*
X157664000Y-83687309D01*
X157760673Y-83920698D01*
X157939301Y-84099327D01*
X158172690Y-84196000D01*
X159513250Y-84196000D01*
X159637822Y-84071428D01*
X159681257Y-84067083D01*
X159805782Y-84015502D01*
X159946791Y-84058041D01*
X160084750Y-84196000D01*
X161425310Y-84196000D01*
X161658699Y-84099327D01*
X161837327Y-83920698D01*
X161934000Y-83687309D01*
X161934000Y-82346750D01*
X161815838Y-82228588D01*
X161840128Y-82148070D01*
X161814761Y-81894489D01*
X161934000Y-81775250D01*
X161934000Y-80434691D01*
X161915903Y-80391000D01*
X166878000Y-80391000D01*
X167218206Y-80323329D01*
X167506618Y-80130618D01*
X168268618Y-79368618D01*
X168369777Y-79217223D01*
X168461329Y-79080206D01*
X168529000Y-78740000D01*
X168529000Y-71374000D01*
X168461329Y-71033794D01*
X168268618Y-70745382D01*
X165982618Y-68459382D01*
X165897578Y-68402560D01*
X165694206Y-68266671D01*
X165354000Y-68199000D01*
X164127189Y-68199000D01*
X164016799Y-68153162D01*
X163644833Y-68152838D01*
X163301057Y-68294883D01*
X163037808Y-68557673D01*
X162895162Y-68901201D01*
X162894838Y-69273167D01*
X163036883Y-69616943D01*
X163299673Y-69880192D01*
X163643201Y-70022838D01*
X164015167Y-70023162D01*
X164126888Y-69977000D01*
X164985764Y-69977000D01*
X166751000Y-71742236D01*
X166751000Y-78371764D01*
X166509764Y-78613000D01*
X151638000Y-78613000D01*
X151297794Y-78680671D01*
X151138216Y-78787298D01*
X151029173Y-78860158D01*
X151017288Y-75057000D01*
X160230811Y-75057000D01*
X160341201Y-75102838D01*
X160713167Y-75103162D01*
X161056943Y-74961117D01*
X161320192Y-74698327D01*
X161462838Y-74354799D01*
X161463162Y-73982833D01*
X161321117Y-73639057D01*
X161058327Y-73375808D01*
X160714799Y-73233162D01*
X160342833Y-73232838D01*
X160231112Y-73279000D01*
X151011731Y-73279000D01*
X151002999Y-70484603D01*
X150992839Y-70435225D01*
X150964268Y-70393689D01*
X150921789Y-70366542D01*
X150876000Y-70358000D01*
X148209000Y-70358000D01*
X148159590Y-70368006D01*
X148117965Y-70396447D01*
X148090685Y-70438841D01*
X148082001Y-70485555D01*
X148094199Y-73279000D01*
X131572000Y-73279000D01*
X131231794Y-73346671D01*
X130943382Y-73539382D01*
X120777000Y-83705764D01*
X120777000Y-82918236D01*
X133718236Y-69977000D01*
X161246811Y-69977000D01*
X161357201Y-70022838D01*
X161729167Y-70023162D01*
X162072943Y-69881117D01*
X162336192Y-69618327D01*
X162478838Y-69274799D01*
X162479162Y-68902833D01*
X162337117Y-68559057D01*
X162074327Y-68295808D01*
X161730799Y-68153162D01*
X161358833Y-68152838D01*
X161247112Y-68199000D01*
X133350000Y-68199000D01*
X133009794Y-68266671D01*
X132806422Y-68402560D01*
X132721382Y-68459382D01*
X119259382Y-81921382D01*
X119066671Y-82209794D01*
X118999000Y-82550000D01*
X118999000Y-83776811D01*
X118953162Y-83887201D01*
X118952838Y-84259167D01*
X119094883Y-84602943D01*
X119357673Y-84866192D01*
X119701201Y-85008838D01*
X120073167Y-85009162D01*
X120286420Y-84921048D01*
X120364883Y-85110943D01*
X120627673Y-85374192D01*
X120971201Y-85516838D01*
X121343167Y-85517162D01*
X121686943Y-85375117D01*
X121950192Y-85112327D01*
X121996549Y-85000687D01*
X131940236Y-75057000D01*
X148101964Y-75057000D01*
X148131198Y-81751566D01*
X146951764Y-82931000D01*
X143680189Y-82931000D01*
X143569799Y-82885162D01*
X143197833Y-82884838D01*
X142854057Y-83026883D01*
X142590808Y-83289673D01*
X142448162Y-83633201D01*
X142447838Y-84005167D01*
X142589883Y-84348943D01*
X142852673Y-84612192D01*
X143196201Y-84754838D01*
X143568167Y-84755162D01*
X143679888Y-84709000D01*
X147320000Y-84709000D01*
X147660206Y-84641329D01*
X147948618Y-84448618D01*
X148142130Y-84255106D01*
X148208444Y-99441000D01*
X139495922Y-99441000D01*
X143835317Y-92690830D01*
X144048192Y-92478327D01*
X144190838Y-92134799D01*
X144191162Y-91762833D01*
X144049117Y-91419057D01*
X143786327Y-91155808D01*
X143442799Y-91013162D01*
X143070833Y-91012838D01*
X142727057Y-91154883D01*
X142463808Y-91417673D01*
X142324678Y-91752733D01*
X138198649Y-98171000D01*
X112649000Y-98171000D01*
X112649000Y-93615000D01*
X127473560Y-93615000D01*
X127473560Y-95615000D01*
X127517838Y-95850317D01*
X127656910Y-96066441D01*
X127869110Y-96211431D01*
X128121000Y-96262440D01*
X131721000Y-96262440D01*
X131956317Y-96218162D01*
X132172441Y-96079090D01*
X132317431Y-95866890D01*
X132368440Y-95615000D01*
X132368440Y-93615000D01*
X132324162Y-93379683D01*
X132185090Y-93163559D01*
X131972890Y-93018569D01*
X131721000Y-92967560D01*
X128121000Y-92967560D01*
X127885683Y-93011838D01*
X127669559Y-93150910D01*
X127524569Y-93363110D01*
X127473560Y-93615000D01*
X112649000Y-93615000D01*
X112649000Y-92837000D01*
X119590811Y-92837000D01*
X119701201Y-92882838D01*
X120073167Y-92883162D01*
X120396371Y-92749617D01*
X120717201Y-92882838D01*
X121089167Y-92883162D01*
X121432943Y-92741117D01*
X121696192Y-92478327D01*
X121838838Y-92134799D01*
X121839162Y-91762833D01*
X121793000Y-91651112D01*
X121793000Y-90170000D01*
X121725329Y-89829794D01*
X121532618Y-89541382D01*
X119106236Y-87115000D01*
X127438296Y-87115000D01*
X127562753Y-87740687D01*
X127917176Y-88271120D01*
X128447609Y-88625543D01*
X129073296Y-88750000D01*
X130768704Y-88750000D01*
X131394391Y-88625543D01*
X131924824Y-88271120D01*
X132279247Y-87740687D01*
X132403704Y-87115000D01*
X132279247Y-86489313D01*
X131924824Y-85958880D01*
X131394391Y-85604457D01*
X130768704Y-85480000D01*
X129073296Y-85480000D01*
X128447609Y-85604457D01*
X127917176Y-85958880D01*
X127562753Y-86489313D01*
X127438296Y-87115000D01*
X119106236Y-87115000D01*
X118738618Y-86747382D01*
X118626051Y-86672167D01*
X118450206Y-86554671D01*
X118110000Y-86487000D01*
X112649000Y-86487000D01*
X112649000Y-74131305D01*
X119995674Y-74131305D01*
X120282043Y-74824372D01*
X120811839Y-75355093D01*
X121504405Y-75642672D01*
X122254305Y-75643326D01*
X122947372Y-75356957D01*
X123478093Y-74827161D01*
X123765672Y-74134595D01*
X123766326Y-73384695D01*
X123479957Y-72691628D01*
X122950161Y-72160907D01*
X122257595Y-71873328D01*
X121507695Y-71872674D01*
X120814628Y-72159043D01*
X120283907Y-72688839D01*
X119996328Y-73381405D01*
X119995674Y-74131305D01*
X112649000Y-74131305D01*
X112649000Y-64770000D01*
X112638994Y-64720590D01*
X112610553Y-64678965D01*
X112568159Y-64651685D01*
X112522000Y-64643000D01*
X108712000Y-64643000D01*
X108662590Y-64653006D01*
X108622197Y-64680197D01*
X107987197Y-65315197D01*
X107959334Y-65357211D01*
X107950000Y-65405000D01*
X107950000Y-84455000D01*
X104564189Y-84455000D01*
X104453799Y-84409162D01*
X104081833Y-84408838D01*
X103738057Y-84550883D01*
X103474808Y-84813673D01*
X103332162Y-85157201D01*
X103331838Y-85529167D01*
X103473883Y-85872943D01*
X103736673Y-86136192D01*
X104080201Y-86278838D01*
X104452167Y-86279162D01*
X104563888Y-86233000D01*
X107950000Y-86233000D01*
X107950000Y-86487000D01*
X93515189Y-86487000D01*
X93404799Y-86441162D01*
X93032833Y-86440838D01*
X92689057Y-86582883D01*
X92425808Y-86845673D01*
X92283162Y-87189201D01*
X92282838Y-87561167D01*
X92424883Y-87904943D01*
X92687673Y-88168192D01*
X93031201Y-88310838D01*
X93403167Y-88311162D01*
X93514888Y-88265000D01*
X107950000Y-88265000D01*
X107950000Y-91059000D01*
X92456000Y-91059000D01*
X92115794Y-91126671D01*
X91979581Y-91217686D01*
X91827382Y-91319382D01*
X91275526Y-91871238D01*
X91165057Y-91916883D01*
X90901808Y-92179673D01*
X90759162Y-92523201D01*
X90758838Y-92895167D01*
X90900883Y-93238943D01*
X91163673Y-93502192D01*
X91507201Y-93644838D01*
X91879167Y-93645162D01*
X92222943Y-93503117D01*
X92486192Y-93240327D01*
X92532549Y-93128687D01*
X92824236Y-92837000D01*
X107950000Y-92837000D01*
X107950000Y-98171000D01*
X93840236Y-98171000D01*
X90297000Y-94627764D01*
X90297000Y-93007189D01*
X90342838Y-92896799D01*
X90343162Y-92524833D01*
X90201117Y-92181057D01*
X89938327Y-91917808D01*
X89594799Y-91775162D01*
X89222833Y-91774838D01*
X88879057Y-91916883D01*
X88615808Y-92179673D01*
X88473162Y-92523201D01*
X88472838Y-92895167D01*
X88519000Y-93006888D01*
X88519000Y-94996000D01*
X88586671Y-95336206D01*
X88677996Y-95472883D01*
X88779382Y-95624618D01*
X92843382Y-99688618D01*
X93131794Y-99881329D01*
X93472000Y-99949000D01*
X107950000Y-99949000D01*
X107950000Y-107442000D01*
X81534000Y-107442000D01*
X81484590Y-107452006D01*
X81442965Y-107480447D01*
X81415685Y-107522841D01*
X81407000Y-107569000D01*
X81407000Y-110109000D01*
X58039000Y-110109000D01*
X58039000Y-107083661D01*
X58673758Y-107083661D01*
X58885990Y-107597303D01*
X59278630Y-107990629D01*
X59791900Y-108203757D01*
X60347661Y-108204242D01*
X60861303Y-107992010D01*
X61254629Y-107599370D01*
X61467757Y-107086100D01*
X61468242Y-106530339D01*
X61256010Y-106016697D01*
X60863370Y-105623371D01*
X60350100Y-105410243D01*
X60105344Y-105410029D01*
X60418368Y-105394362D01*
X60802143Y-105235397D01*
X60871608Y-104993213D01*
X60071000Y-104192605D01*
X59270392Y-104993213D01*
X59339857Y-105235397D01*
X59828668Y-105409788D01*
X59794339Y-105409758D01*
X59280697Y-105621990D01*
X58887371Y-106014630D01*
X58674243Y-106527900D01*
X58673758Y-107083661D01*
X58039000Y-107083661D01*
X58039000Y-103805302D01*
X58661856Y-103805302D01*
X58689638Y-104360368D01*
X58848603Y-104744143D01*
X59090787Y-104813608D01*
X59891395Y-104013000D01*
X60250605Y-104013000D01*
X61051213Y-104813608D01*
X61293397Y-104744143D01*
X61480144Y-104220698D01*
X61452362Y-103665632D01*
X61293397Y-103281857D01*
X61051213Y-103212392D01*
X60250605Y-104013000D01*
X59891395Y-104013000D01*
X59090787Y-103212392D01*
X58848603Y-103281857D01*
X58661856Y-103805302D01*
X58039000Y-103805302D01*
X58039000Y-103032787D01*
X59270392Y-103032787D01*
X60071000Y-103833395D01*
X60871608Y-103032787D01*
X60802143Y-102790603D01*
X60278698Y-102603856D01*
X59723632Y-102631638D01*
X59339857Y-102790603D01*
X59270392Y-103032787D01*
X58039000Y-103032787D01*
X58039000Y-101727000D01*
X63500000Y-101727000D01*
X63549410Y-101716994D01*
X63591035Y-101688553D01*
X63618315Y-101646159D01*
X63627000Y-101600000D01*
X63627000Y-101120800D01*
X85195160Y-101120800D01*
X85195160Y-104720800D01*
X85239438Y-104956117D01*
X85378510Y-105172241D01*
X85590710Y-105317231D01*
X85842600Y-105368240D01*
X87842600Y-105368240D01*
X88077917Y-105323962D01*
X88294041Y-105184890D01*
X88439031Y-104972690D01*
X88490040Y-104720800D01*
X88490040Y-103047800D01*
X92707600Y-103047800D01*
X92707600Y-103847800D01*
X92880658Y-104463820D01*
X93276283Y-104966722D01*
X93834245Y-105279944D01*
X93962166Y-105310924D01*
X94215600Y-105191577D01*
X94215600Y-103047800D01*
X94469600Y-103047800D01*
X94469600Y-105191577D01*
X94723034Y-105310924D01*
X94850955Y-105279944D01*
X95408917Y-104966722D01*
X95804542Y-104463820D01*
X95977600Y-103847800D01*
X95977600Y-103124000D01*
X103286846Y-103124000D01*
X103388467Y-103634882D01*
X103677858Y-104067988D01*
X104110964Y-104357379D01*
X104621846Y-104459000D01*
X104674154Y-104459000D01*
X105185036Y-104357379D01*
X105618142Y-104067988D01*
X105907533Y-103634882D01*
X106009154Y-103124000D01*
X105907533Y-102613118D01*
X105618142Y-102180012D01*
X105185036Y-101890621D01*
X104674154Y-101789000D01*
X104621846Y-101789000D01*
X104110964Y-101890621D01*
X103677858Y-102180012D01*
X103388467Y-102613118D01*
X103286846Y-103124000D01*
X95977600Y-103124000D01*
X95977600Y-103047800D01*
X94469600Y-103047800D01*
X94215600Y-103047800D01*
X92707600Y-103047800D01*
X88490040Y-103047800D01*
X88490040Y-101993800D01*
X92707600Y-101993800D01*
X92707600Y-102793800D01*
X94215600Y-102793800D01*
X94215600Y-100650023D01*
X94469600Y-100650023D01*
X94469600Y-102793800D01*
X95977600Y-102793800D01*
X95977600Y-101993800D01*
X95804542Y-101377780D01*
X95408917Y-100874878D01*
X94850955Y-100561656D01*
X94723034Y-100530676D01*
X94469600Y-100650023D01*
X94215600Y-100650023D01*
X93962166Y-100530676D01*
X93834245Y-100561656D01*
X93276283Y-100874878D01*
X92880658Y-101377780D01*
X92707600Y-101993800D01*
X88490040Y-101993800D01*
X88490040Y-101120800D01*
X88445762Y-100885483D01*
X88306690Y-100669359D01*
X88094490Y-100524369D01*
X87842600Y-100473360D01*
X85842600Y-100473360D01*
X85607283Y-100517638D01*
X85391159Y-100656710D01*
X85246169Y-100868910D01*
X85195160Y-101120800D01*
X63627000Y-101120800D01*
X63627000Y-96774000D01*
X81407000Y-96774000D01*
X81407000Y-98844100D01*
X81417006Y-98893510D01*
X81445447Y-98935135D01*
X81487841Y-98962415D01*
X81537509Y-98971052D01*
X81586623Y-98959684D01*
X81627446Y-98930105D01*
X81653545Y-98886973D01*
X81660611Y-98854038D01*
X81836940Y-96607609D01*
X81830831Y-96557567D01*
X81805735Y-96513845D01*
X81765605Y-96483331D01*
X81716765Y-96470834D01*
X81666912Y-96478323D01*
X81620526Y-96507868D01*
X81444197Y-96684197D01*
X81416334Y-96726211D01*
X81407000Y-96774000D01*
X63627000Y-96774000D01*
X63627000Y-92434000D01*
X69091560Y-92434000D01*
X69091560Y-96034000D01*
X69135838Y-96269317D01*
X69274910Y-96485441D01*
X69487110Y-96630431D01*
X69739000Y-96681440D01*
X71739000Y-96681440D01*
X71974317Y-96637162D01*
X72190441Y-96498090D01*
X72335431Y-96285890D01*
X72386440Y-96034000D01*
X72386440Y-93386296D01*
X76604000Y-93386296D01*
X76604000Y-95081704D01*
X76728457Y-95707391D01*
X77082880Y-96237824D01*
X77613313Y-96592247D01*
X78239000Y-96716704D01*
X78864687Y-96592247D01*
X79395120Y-96237824D01*
X79749543Y-95707391D01*
X79874000Y-95081704D01*
X79874000Y-93386296D01*
X79749543Y-92760609D01*
X79395120Y-92230176D01*
X78864687Y-91875753D01*
X78239000Y-91751296D01*
X77613313Y-91875753D01*
X77082880Y-92230176D01*
X76728457Y-92760609D01*
X76604000Y-93386296D01*
X72386440Y-93386296D01*
X72386440Y-92434000D01*
X72342162Y-92198683D01*
X72203090Y-91982559D01*
X71990890Y-91837569D01*
X71739000Y-91786560D01*
X69739000Y-91786560D01*
X69503683Y-91830838D01*
X69287559Y-91969910D01*
X69142569Y-92182110D01*
X69091560Y-92434000D01*
X63627000Y-92434000D01*
X63627000Y-82591296D01*
X69224000Y-82591296D01*
X69224000Y-84286704D01*
X69348457Y-84912391D01*
X69702880Y-85442824D01*
X70233313Y-85797247D01*
X70859000Y-85921704D01*
X71484687Y-85797247D01*
X72015120Y-85442824D01*
X72369543Y-84912391D01*
X72494000Y-84286704D01*
X72494000Y-82591296D01*
X72369543Y-81965609D01*
X72151311Y-81639000D01*
X76711560Y-81639000D01*
X76711560Y-85239000D01*
X76755838Y-85474317D01*
X76894910Y-85690441D01*
X77107110Y-85835431D01*
X77359000Y-85886440D01*
X79359000Y-85886440D01*
X79594317Y-85842162D01*
X79810441Y-85703090D01*
X79955431Y-85490890D01*
X80006440Y-85239000D01*
X80006440Y-81639000D01*
X79962162Y-81403683D01*
X79823090Y-81187559D01*
X79610890Y-81042569D01*
X79359000Y-80991560D01*
X77359000Y-80991560D01*
X77123683Y-81035838D01*
X76907559Y-81174910D01*
X76762569Y-81387110D01*
X76711560Y-81639000D01*
X72151311Y-81639000D01*
X72015120Y-81435176D01*
X71484687Y-81080753D01*
X70859000Y-80956296D01*
X70233313Y-81080753D01*
X69702880Y-81435176D01*
X69348457Y-81965609D01*
X69224000Y-82591296D01*
X63627000Y-82591296D01*
X63627000Y-78910691D01*
X92259000Y-78910691D01*
X92259000Y-80251250D01*
X92377162Y-80369412D01*
X92352872Y-80449930D01*
X92378239Y-80703511D01*
X92259000Y-80822750D01*
X92259000Y-82163309D01*
X92355673Y-82396698D01*
X92534301Y-82575327D01*
X92767690Y-82672000D01*
X94108250Y-82672000D01*
X94232822Y-82547428D01*
X94276257Y-82543083D01*
X94400782Y-82491502D01*
X94541791Y-82534041D01*
X94679750Y-82672000D01*
X96020310Y-82672000D01*
X96253699Y-82575327D01*
X96432327Y-82396698D01*
X96529000Y-82163309D01*
X96529000Y-80822750D01*
X96410838Y-80704588D01*
X96435128Y-80624070D01*
X96409761Y-80370489D01*
X96529000Y-80251250D01*
X96529000Y-78910691D01*
X96432327Y-78677302D01*
X96253699Y-78498673D01*
X96020310Y-78402000D01*
X94679750Y-78402000D01*
X94555178Y-78526572D01*
X94511743Y-78530917D01*
X94387218Y-78582498D01*
X94246209Y-78539959D01*
X94108250Y-78402000D01*
X92767690Y-78402000D01*
X92534301Y-78498673D01*
X92355673Y-78677302D01*
X92259000Y-78910691D01*
X63627000Y-78910691D01*
X63627000Y-78740000D01*
X63616994Y-78690590D01*
X63588553Y-78648965D01*
X63546159Y-78621685D01*
X63500000Y-78613000D01*
X49328606Y-78613000D01*
X47296606Y-76581000D01*
X70104000Y-76581000D01*
X70444206Y-76513329D01*
X70732618Y-76320618D01*
X81775236Y-65278000D01*
X87586811Y-65278000D01*
X87697201Y-65323838D01*
X88069167Y-65324162D01*
X88412943Y-65182117D01*
X88676192Y-64919327D01*
X88818838Y-64575799D01*
X88819007Y-64381305D01*
X114245674Y-64381305D01*
X114532043Y-65074372D01*
X115061839Y-65605093D01*
X115754405Y-65892672D01*
X116504305Y-65893326D01*
X117197372Y-65606957D01*
X117463472Y-65341320D01*
X137477285Y-65341320D01*
X137606533Y-65634123D01*
X138306806Y-65902388D01*
X139056435Y-65882250D01*
X139655467Y-65634123D01*
X139784715Y-65341320D01*
X138631000Y-64187605D01*
X137477285Y-65341320D01*
X117463472Y-65341320D01*
X117728093Y-65077161D01*
X118015672Y-64384595D01*
X118016283Y-63683806D01*
X136736612Y-63683806D01*
X136756750Y-64433435D01*
X137004877Y-65032467D01*
X137297680Y-65161715D01*
X138451395Y-64008000D01*
X138810605Y-64008000D01*
X139964320Y-65161715D01*
X140257123Y-65032467D01*
X140525388Y-64332194D01*
X140505250Y-63582565D01*
X140257123Y-62983533D01*
X139964320Y-62854285D01*
X138810605Y-64008000D01*
X138451395Y-64008000D01*
X137297680Y-62854285D01*
X137004877Y-62983533D01*
X136736612Y-63683806D01*
X118016283Y-63683806D01*
X118016326Y-63634695D01*
X117729957Y-62941628D01*
X117463475Y-62674680D01*
X137477285Y-62674680D01*
X138631000Y-63828395D01*
X139784715Y-62674680D01*
X139655467Y-62381877D01*
X138955194Y-62113612D01*
X138205565Y-62133750D01*
X137606533Y-62381877D01*
X137477285Y-62674680D01*
X117463475Y-62674680D01*
X117200161Y-62410907D01*
X116507595Y-62123328D01*
X115757695Y-62122674D01*
X115064628Y-62409043D01*
X114533907Y-62938839D01*
X114246328Y-63631405D01*
X114245674Y-64381305D01*
X88819007Y-64381305D01*
X88819162Y-64203833D01*
X88685617Y-63880629D01*
X88818838Y-63559799D01*
X88819162Y-63187833D01*
X88677117Y-62844057D01*
X88414327Y-62580808D01*
X88070799Y-62438162D01*
X87698833Y-62437838D01*
X87587112Y-62484000D01*
X80137000Y-62484000D01*
X79796794Y-62551671D01*
X79517933Y-62738000D01*
X79508382Y-62744382D01*
X68465764Y-73787000D01*
X66408236Y-73787000D01*
X69716618Y-70478618D01*
X69909329Y-70190206D01*
X69977000Y-69850000D01*
X69977000Y-54631305D01*
X119995674Y-54631305D01*
X120282043Y-55324372D01*
X120811839Y-55855093D01*
X121504405Y-56142672D01*
X122254305Y-56143326D01*
X122947372Y-55856957D01*
X123478093Y-55327161D01*
X123765672Y-54634595D01*
X123766326Y-53884695D01*
X123479957Y-53191628D01*
X122950161Y-52660907D01*
X122257595Y-52373328D01*
X121507695Y-52372674D01*
X120814628Y-52659043D01*
X120283907Y-53188839D01*
X119996328Y-53881405D01*
X119995674Y-54631305D01*
X69977000Y-54631305D01*
X69977000Y-45440471D01*
X70288736Y-45648767D01*
X70837887Y-45758000D01*
X70894113Y-45758000D01*
X71443264Y-45648767D01*
X71908811Y-45337698D01*
X72219880Y-44872151D01*
X72272273Y-44608750D01*
X77051000Y-44608750D01*
X77051000Y-45249310D01*
X77147673Y-45482699D01*
X77326302Y-45661327D01*
X77559691Y-45758000D01*
X78200250Y-45758000D01*
X78359000Y-45599250D01*
X78359000Y-44450000D01*
X78613000Y-44450000D01*
X78613000Y-45599250D01*
X78771750Y-45758000D01*
X79412309Y-45758000D01*
X79645698Y-45661327D01*
X79824327Y-45482699D01*
X79921000Y-45249310D01*
X79921000Y-44608750D01*
X79762250Y-44450000D01*
X78613000Y-44450000D01*
X78359000Y-44450000D01*
X77209750Y-44450000D01*
X77051000Y-44608750D01*
X72272273Y-44608750D01*
X72329113Y-44323000D01*
X72219880Y-43773849D01*
X71967871Y-43396690D01*
X77051000Y-43396690D01*
X77051000Y-44037250D01*
X77209750Y-44196000D01*
X78359000Y-44196000D01*
X78359000Y-41910000D01*
X78613000Y-41910000D01*
X78613000Y-44196000D01*
X79762250Y-44196000D01*
X79921000Y-44037250D01*
X79921000Y-43396690D01*
X79824327Y-43163301D01*
X79645698Y-42984673D01*
X79412309Y-42888000D01*
X79384062Y-42888000D01*
X79717041Y-42520423D01*
X79877904Y-42132039D01*
X79755915Y-41910000D01*
X78613000Y-41910000D01*
X78359000Y-41910000D01*
X77216085Y-41910000D01*
X77094096Y-42132039D01*
X77254959Y-42520423D01*
X77587938Y-42888000D01*
X77559691Y-42888000D01*
X77326302Y-42984673D01*
X77147673Y-43163301D01*
X77051000Y-43396690D01*
X71967871Y-43396690D01*
X71908811Y-43308302D01*
X71526725Y-43053000D01*
X71908811Y-42797698D01*
X72219880Y-42332151D01*
X72329113Y-41783000D01*
X72219880Y-41233849D01*
X71908811Y-40768302D01*
X71526725Y-40513000D01*
X71908811Y-40257698D01*
X72219880Y-39792151D01*
X72259684Y-39592039D01*
X77094096Y-39592039D01*
X77254959Y-39980423D01*
X77630866Y-40395389D01*
X77879367Y-40513000D01*
X77630866Y-40630611D01*
X77254959Y-41045577D01*
X77094096Y-41433961D01*
X77216085Y-41656000D01*
X78359000Y-41656000D01*
X78359000Y-39370000D01*
X78613000Y-39370000D01*
X78613000Y-41656000D01*
X79755915Y-41656000D01*
X79877904Y-41433961D01*
X79717041Y-41045577D01*
X79341134Y-40630611D01*
X79092633Y-40513000D01*
X79341134Y-40395389D01*
X79717041Y-39980423D01*
X79877904Y-39592039D01*
X79755915Y-39370000D01*
X78613000Y-39370000D01*
X78359000Y-39370000D01*
X77216085Y-39370000D01*
X77094096Y-39592039D01*
X72259684Y-39592039D01*
X72329113Y-39243000D01*
X72219880Y-38693849D01*
X71908811Y-38228302D01*
X71526725Y-37973000D01*
X71908811Y-37717698D01*
X72219880Y-37252151D01*
X72259684Y-37052039D01*
X77094096Y-37052039D01*
X77254959Y-37440423D01*
X77630866Y-37855389D01*
X77879367Y-37973000D01*
X77630866Y-38090611D01*
X77254959Y-38505577D01*
X77094096Y-38893961D01*
X77216085Y-39116000D01*
X78359000Y-39116000D01*
X78359000Y-36830000D01*
X78613000Y-36830000D01*
X78613000Y-39116000D01*
X79755915Y-39116000D01*
X79877904Y-38893961D01*
X79717041Y-38505577D01*
X79341134Y-38090611D01*
X79092633Y-37973000D01*
X79341134Y-37855389D01*
X79717041Y-37440423D01*
X79877904Y-37052039D01*
X79755915Y-36830000D01*
X78613000Y-36830000D01*
X78359000Y-36830000D01*
X77216085Y-36830000D01*
X77094096Y-37052039D01*
X72259684Y-37052039D01*
X72329113Y-36703000D01*
X72219880Y-36153849D01*
X71908811Y-35688302D01*
X71526725Y-35433000D01*
X71908811Y-35177698D01*
X72219880Y-34712151D01*
X72259684Y-34512039D01*
X77094096Y-34512039D01*
X77254959Y-34900423D01*
X77630866Y-35315389D01*
X77879367Y-35433000D01*
X77630866Y-35550611D01*
X77254959Y-35965577D01*
X77094096Y-36353961D01*
X77216085Y-36576000D01*
X78359000Y-36576000D01*
X78359000Y-34290000D01*
X78613000Y-34290000D01*
X78613000Y-36576000D01*
X79755915Y-36576000D01*
X79877904Y-36353961D01*
X79717041Y-35965577D01*
X79341134Y-35550611D01*
X79092633Y-35433000D01*
X79341134Y-35315389D01*
X79717041Y-34900423D01*
X79877904Y-34512039D01*
X79755915Y-34290000D01*
X78613000Y-34290000D01*
X78359000Y-34290000D01*
X77216085Y-34290000D01*
X77094096Y-34512039D01*
X72259684Y-34512039D01*
X72329113Y-34163000D01*
X72219880Y-33613849D01*
X71908811Y-33148302D01*
X71526725Y-32893000D01*
X71908811Y-32637698D01*
X72219880Y-32172151D01*
X72259684Y-31972039D01*
X77094096Y-31972039D01*
X77254959Y-32360423D01*
X77630866Y-32775389D01*
X77879367Y-32893000D01*
X77630866Y-33010611D01*
X77254959Y-33425577D01*
X77094096Y-33813961D01*
X77216085Y-34036000D01*
X78359000Y-34036000D01*
X78359000Y-31750000D01*
X78613000Y-31750000D01*
X78613000Y-34036000D01*
X79755915Y-34036000D01*
X79877904Y-33813961D01*
X79717041Y-33425577D01*
X79341134Y-33010611D01*
X79092633Y-32893000D01*
X79341134Y-32775389D01*
X79717041Y-32360423D01*
X79877904Y-31972039D01*
X79755915Y-31750000D01*
X78613000Y-31750000D01*
X78359000Y-31750000D01*
X77216085Y-31750000D01*
X77094096Y-31972039D01*
X72259684Y-31972039D01*
X72329113Y-31623000D01*
X72259685Y-31273961D01*
X77094096Y-31273961D01*
X77216085Y-31496000D01*
X78359000Y-31496000D01*
X78359000Y-30352371D01*
X78613000Y-30352371D01*
X78613000Y-31496000D01*
X79755915Y-31496000D01*
X79877904Y-31273961D01*
X79717041Y-30885577D01*
X79341134Y-30470611D01*
X78835041Y-30231086D01*
X78613000Y-30352371D01*
X78359000Y-30352371D01*
X78136959Y-30231086D01*
X77630866Y-30470611D01*
X77254959Y-30885577D01*
X77094096Y-31273961D01*
X72259685Y-31273961D01*
X72219880Y-31073849D01*
X71908811Y-30608302D01*
X71443264Y-30297233D01*
X70894113Y-30188000D01*
X70837887Y-30188000D01*
X70288736Y-30297233D01*
X69823189Y-30608302D01*
X69512120Y-31073849D01*
X69402887Y-31623000D01*
X69512120Y-32172151D01*
X69522806Y-32188144D01*
X69274799Y-32085162D01*
X68902833Y-32084838D01*
X68559057Y-32226883D01*
X68295808Y-32489673D01*
X68153162Y-32833201D01*
X68152838Y-33205167D01*
X68199000Y-33316888D01*
X68199000Y-69481764D01*
X65163764Y-72517000D01*
X61836236Y-72517000D01*
X60833000Y-71513764D01*
X60833000Y-71253699D01*
X61049000Y-71297440D01*
X62649000Y-71297440D01*
X62884317Y-71253162D01*
X63100441Y-71114090D01*
X63245431Y-70901890D01*
X63296440Y-70650000D01*
X63296440Y-69050000D01*
X63252162Y-68814683D01*
X63113090Y-68598559D01*
X62900890Y-68453569D01*
X62745911Y-68422185D01*
X62891811Y-68324698D01*
X63202880Y-67859151D01*
X63312113Y-67310000D01*
X63202880Y-66760849D01*
X62891811Y-66295302D01*
X62509725Y-66040000D01*
X62891811Y-65784698D01*
X63202880Y-65319151D01*
X63312113Y-64770000D01*
X63202880Y-64220849D01*
X62891811Y-63755302D01*
X62487297Y-63485014D01*
X62704134Y-63382389D01*
X63080041Y-62967423D01*
X63240904Y-62579039D01*
X63118915Y-62357000D01*
X61976000Y-62357000D01*
X61976000Y-62377000D01*
X61722000Y-62377000D01*
X61722000Y-62357000D01*
X61702000Y-62357000D01*
X61702000Y-62103000D01*
X61722000Y-62103000D01*
X61722000Y-62083000D01*
X61976000Y-62083000D01*
X61976000Y-62103000D01*
X63118915Y-62103000D01*
X63240904Y-61880961D01*
X63080041Y-61492577D01*
X62704134Y-61077611D01*
X62487297Y-60974986D01*
X62891811Y-60704698D01*
X63202880Y-60239151D01*
X63312113Y-59690000D01*
X63202880Y-59140849D01*
X62891811Y-58675302D01*
X62509725Y-58420000D01*
X62891811Y-58164698D01*
X63202880Y-57699151D01*
X63312113Y-57150000D01*
X63202880Y-56600849D01*
X62891811Y-56135302D01*
X62509725Y-55880000D01*
X62891811Y-55624698D01*
X63202880Y-55159151D01*
X63312113Y-54610000D01*
X63202880Y-54060849D01*
X62891811Y-53595302D01*
X62509725Y-53340000D01*
X62891811Y-53084698D01*
X63202880Y-52619151D01*
X63312113Y-52070000D01*
X63202880Y-51520849D01*
X62891811Y-51055302D01*
X62509725Y-50800000D01*
X62891811Y-50544698D01*
X63202880Y-50079151D01*
X63312113Y-49530000D01*
X63202880Y-48980849D01*
X62891811Y-48515302D01*
X62509725Y-48260000D01*
X62891811Y-48004698D01*
X63202880Y-47539151D01*
X63312113Y-46990000D01*
X63202880Y-46440849D01*
X62891811Y-45975302D01*
X62509725Y-45720000D01*
X62891811Y-45464698D01*
X63202880Y-44999151D01*
X63312113Y-44450000D01*
X63277956Y-44278280D01*
X64890618Y-42665618D01*
X65083329Y-42377206D01*
X65151000Y-42037000D01*
X65151000Y-31496000D01*
X65083329Y-31155794D01*
X64890618Y-30867382D01*
X62858618Y-28835382D01*
X62747790Y-28761329D01*
X62570206Y-28642671D01*
X62230000Y-28575000D01*
X38608000Y-28575000D01*
X38267794Y-28642671D01*
X38090210Y-28761329D01*
X37979382Y-28835382D01*
X26803382Y-40011382D01*
X26610671Y-40299794D01*
X26543000Y-40640000D01*
X26543000Y-51308000D01*
X26610671Y-51648206D01*
X26707869Y-51793673D01*
X26803382Y-51936618D01*
X27258940Y-52392176D01*
X27258838Y-52509167D01*
X27400883Y-52852943D01*
X27663673Y-53116192D01*
X28007201Y-53258838D01*
X28379167Y-53259162D01*
X28722943Y-53117117D01*
X28986192Y-52854327D01*
X29128838Y-52510799D01*
X29128861Y-52484097D01*
X36963382Y-60318618D01*
X37251795Y-60511330D01*
X37592000Y-60579000D01*
X40779764Y-60579000D01*
X39509764Y-61849000D01*
X35052000Y-61849000D01*
X34711794Y-61916671D01*
X34423382Y-62109382D01*
X28835382Y-67697382D01*
X28642671Y-67985794D01*
X28575000Y-68326000D01*
X28575000Y-70866000D01*
X28599414Y-70988738D01*
X28610125Y-71113424D01*
X28632984Y-71157504D01*
X28642671Y-71206206D01*
X28712199Y-71310262D01*
X28769808Y-71421354D01*
X30459125Y-73533000D01*
X12827000Y-73533000D01*
X12827000Y-66404740D01*
X17928964Y-66404740D01*
X17953244Y-66510086D01*
X18244788Y-67035606D01*
X18715248Y-67409554D01*
X19293000Y-67575000D01*
X20193000Y-67575000D01*
X20193000Y-66167000D01*
X20447000Y-66167000D01*
X20447000Y-67575000D01*
X21347000Y-67575000D01*
X21924752Y-67409554D01*
X22395212Y-67035606D01*
X22686756Y-66510086D01*
X22711036Y-66404740D01*
X22590378Y-66167000D01*
X20447000Y-66167000D01*
X20193000Y-66167000D01*
X18049622Y-66167000D01*
X17928964Y-66404740D01*
X12827000Y-66404740D01*
X12827000Y-65675260D01*
X17928964Y-65675260D01*
X18049622Y-65913000D01*
X20193000Y-65913000D01*
X20193000Y-64505000D01*
X20447000Y-64505000D01*
X20447000Y-65913000D01*
X22590378Y-65913000D01*
X22711036Y-65675260D01*
X22686756Y-65569914D01*
X22395212Y-65044394D01*
X21924752Y-64670446D01*
X21347000Y-64505000D01*
X20447000Y-64505000D01*
X20193000Y-64505000D01*
X19293000Y-64505000D01*
X18715248Y-64670446D01*
X18244788Y-65044394D01*
X17953244Y-65569914D01*
X17928964Y-65675260D01*
X12827000Y-65675260D01*
X12827000Y-61324740D01*
X17928964Y-61324740D01*
X17953244Y-61430086D01*
X18244788Y-61955606D01*
X18715248Y-62329554D01*
X19293000Y-62495000D01*
X20193000Y-62495000D01*
X20193000Y-61087000D01*
X20447000Y-61087000D01*
X20447000Y-62495000D01*
X21347000Y-62495000D01*
X21924752Y-62329554D01*
X22395212Y-61955606D01*
X22686756Y-61430086D01*
X22711036Y-61324740D01*
X22590378Y-61087000D01*
X20447000Y-61087000D01*
X20193000Y-61087000D01*
X18049622Y-61087000D01*
X17928964Y-61324740D01*
X12827000Y-61324740D01*
X12827000Y-60595260D01*
X17928964Y-60595260D01*
X18049622Y-60833000D01*
X20193000Y-60833000D01*
X20193000Y-59425000D01*
X20447000Y-59425000D01*
X20447000Y-60833000D01*
X22590378Y-60833000D01*
X22711036Y-60595260D01*
X22686756Y-60489914D01*
X22395212Y-59964394D01*
X21924752Y-59590446D01*
X21347000Y-59425000D01*
X20447000Y-59425000D01*
X20193000Y-59425000D01*
X19293000Y-59425000D01*
X18715248Y-59590446D01*
X18244788Y-59964394D01*
X17953244Y-60489914D01*
X17928964Y-60595260D01*
X12827000Y-60595260D01*
X12827000Y-55880000D01*
X17837296Y-55880000D01*
X17954141Y-56467419D01*
X18286887Y-56965409D01*
X18784877Y-57298155D01*
X19372296Y-57415000D01*
X21267704Y-57415000D01*
X21855123Y-57298155D01*
X22353113Y-56965409D01*
X22685859Y-56467419D01*
X22802704Y-55880000D01*
X22685859Y-55292581D01*
X22353113Y-54794591D01*
X21855123Y-54461845D01*
X21267704Y-54345000D01*
X19372296Y-54345000D01*
X18784877Y-54461845D01*
X18286887Y-54794591D01*
X17954141Y-55292581D01*
X17837296Y-55880000D01*
X12827000Y-55880000D01*
X12827000Y-50800000D01*
X17837296Y-50800000D01*
X17954141Y-51387419D01*
X18286887Y-51885409D01*
X18784877Y-52218155D01*
X19372296Y-52335000D01*
X21267704Y-52335000D01*
X21855123Y-52218155D01*
X22353113Y-51885409D01*
X22685859Y-51387419D01*
X22802704Y-50800000D01*
X22685859Y-50212581D01*
X22353113Y-49714591D01*
X21855123Y-49381845D01*
X21267704Y-49265000D01*
X19372296Y-49265000D01*
X18784877Y-49381845D01*
X18286887Y-49714591D01*
X17954141Y-50212581D01*
X17837296Y-50800000D01*
X12827000Y-50800000D01*
X12827000Y-44820000D01*
X17872560Y-44820000D01*
X17872560Y-46620000D01*
X17916838Y-46855317D01*
X18055910Y-47071441D01*
X18268110Y-47216431D01*
X18520000Y-47267440D01*
X22120000Y-47267440D01*
X22355317Y-47223162D01*
X22571441Y-47084090D01*
X22716431Y-46871890D01*
X22767440Y-46620000D01*
X22767440Y-44820000D01*
X22723162Y-44584683D01*
X22584090Y-44368559D01*
X22371890Y-44223569D01*
X22120000Y-44172560D01*
X18520000Y-44172560D01*
X18284683Y-44216838D01*
X18068559Y-44355910D01*
X17923569Y-44568110D01*
X17872560Y-44820000D01*
X12827000Y-44820000D01*
X12827000Y-35100000D01*
X16317296Y-35100000D01*
X16441753Y-35725687D01*
X16796176Y-36256120D01*
X17326609Y-36610543D01*
X17952296Y-36735000D01*
X19647704Y-36735000D01*
X20273391Y-36610543D01*
X20803824Y-36256120D01*
X21158247Y-35725687D01*
X21282704Y-35100000D01*
X21158247Y-34474313D01*
X20803824Y-33943880D01*
X20273391Y-33589457D01*
X19647704Y-33465000D01*
X17952296Y-33465000D01*
X17326609Y-33589457D01*
X16796176Y-33943880D01*
X16441753Y-34474313D01*
X16317296Y-35100000D01*
X12827000Y-35100000D01*
X12827000Y-26600000D01*
X16352560Y-26600000D01*
X16352560Y-28600000D01*
X16396838Y-28835317D01*
X16535910Y-29051441D01*
X16748110Y-29196431D01*
X17000000Y-29247440D01*
X20600000Y-29247440D01*
X20835317Y-29203162D01*
X21051441Y-29064090D01*
X21196431Y-28851890D01*
X21247440Y-28600000D01*
X21247440Y-26600000D01*
X21203162Y-26364683D01*
X21064090Y-26148559D01*
X20851890Y-26003569D01*
X20600000Y-25952560D01*
X17000000Y-25952560D01*
X16764683Y-25996838D01*
X16548559Y-26135910D01*
X16403569Y-26348110D01*
X16352560Y-26600000D01*
X12827000Y-26600000D01*
X12827000Y-12827000D01*
X16810246Y-12827000D01*
X15221342Y-13483522D01*
X15221342Y-13483522D01*
G37*
X15221342Y-13483522D02*
X13888203Y-14814336D01*
X13165824Y-16554018D01*
X13164180Y-18437718D01*
X13883522Y-20178658D01*
X15214336Y-21511797D01*
X16954018Y-22234176D01*
X18837718Y-22235820D01*
X20578658Y-21516478D01*
X21911797Y-20185664D01*
X22634176Y-18445982D01*
X22635275Y-17186296D01*
X32267000Y-17186296D01*
X32267000Y-18881704D01*
X32391457Y-19507391D01*
X32745880Y-20037824D01*
X33276313Y-20392247D01*
X33902000Y-20516704D01*
X34527687Y-20392247D01*
X35058120Y-20037824D01*
X35412543Y-19507391D01*
X35537000Y-18881704D01*
X35537000Y-17186296D01*
X35412543Y-16560609D01*
X35194311Y-16234000D01*
X39754560Y-16234000D01*
X39754560Y-19834000D01*
X39798838Y-20069317D01*
X39937910Y-20285441D01*
X40150110Y-20430431D01*
X40402000Y-20481440D01*
X42402000Y-20481440D01*
X42637317Y-20437162D01*
X42853441Y-20298090D01*
X42998431Y-20085890D01*
X43049440Y-19834000D01*
X43049440Y-17929661D01*
X78231758Y-17929661D01*
X78443990Y-18443303D01*
X78836630Y-18836629D01*
X79349900Y-19049757D01*
X79905661Y-19050242D01*
X80419303Y-18838010D01*
X80624457Y-18633213D01*
X83908392Y-18633213D01*
X83977857Y-18875397D01*
X84501302Y-19062144D01*
X85056368Y-19034362D01*
X85440143Y-18875397D01*
X85509608Y-18633213D01*
X88734392Y-18633213D01*
X88803857Y-18875397D01*
X89327302Y-19062144D01*
X89882368Y-19034362D01*
X90266143Y-18875397D01*
X90335608Y-18633213D01*
X89535000Y-17832605D01*
X88734392Y-18633213D01*
X85509608Y-18633213D01*
X84709000Y-17832605D01*
X83908392Y-18633213D01*
X80624457Y-18633213D01*
X80812629Y-18445370D01*
X81025757Y-17932100D01*
X81026181Y-17445302D01*
X83299856Y-17445302D01*
X83327638Y-18000368D01*
X83486603Y-18384143D01*
X83728787Y-18453608D01*
X84529395Y-17653000D01*
X84888605Y-17653000D01*
X85689213Y-18453608D01*
X85931397Y-18384143D01*
X86118144Y-17860698D01*
X86097353Y-17445302D01*
X88125856Y-17445302D01*
X88153638Y-18000368D01*
X88312603Y-18384143D01*
X88554787Y-18453608D01*
X89355395Y-17653000D01*
X89714605Y-17653000D01*
X90515213Y-18453608D01*
X90757397Y-18384143D01*
X90931788Y-17895332D01*
X90931758Y-17929661D01*
X91143990Y-18443303D01*
X91536630Y-18836629D01*
X92049900Y-19049757D01*
X92605661Y-19050242D01*
X93119303Y-18838010D01*
X93512629Y-18445370D01*
X93725757Y-17932100D01*
X93726242Y-17376339D01*
X93514010Y-16862697D01*
X93121370Y-16469371D01*
X92608100Y-16256243D01*
X92052339Y-16255758D01*
X91538697Y-16467990D01*
X91145371Y-16860630D01*
X90932243Y-17373900D01*
X90932029Y-17618656D01*
X90916362Y-17305632D01*
X90757397Y-16921857D01*
X90515213Y-16852392D01*
X89714605Y-17653000D01*
X89355395Y-17653000D01*
X88554787Y-16852392D01*
X88312603Y-16921857D01*
X88125856Y-17445302D01*
X86097353Y-17445302D01*
X86090362Y-17305632D01*
X85931397Y-16921857D01*
X85689213Y-16852392D01*
X84888605Y-17653000D01*
X84529395Y-17653000D01*
X83728787Y-16852392D01*
X83486603Y-16921857D01*
X83299856Y-17445302D01*
X81026181Y-17445302D01*
X81026242Y-17376339D01*
X80814010Y-16862697D01*
X80624432Y-16672787D01*
X83908392Y-16672787D01*
X84709000Y-17473395D01*
X85509608Y-16672787D01*
X88734392Y-16672787D01*
X89535000Y-17473395D01*
X90335608Y-16672787D01*
X90266143Y-16430603D01*
X89742698Y-16243856D01*
X89187632Y-16271638D01*
X88803857Y-16430603D01*
X88734392Y-16672787D01*
X85509608Y-16672787D01*
X85440143Y-16430603D01*
X84916698Y-16243856D01*
X84361632Y-16271638D01*
X83977857Y-16430603D01*
X83908392Y-16672787D01*
X80624432Y-16672787D01*
X80421370Y-16469371D01*
X79908100Y-16256243D01*
X79352339Y-16255758D01*
X78838697Y-16467990D01*
X78445371Y-16860630D01*
X78232243Y-17373900D01*
X78231758Y-17929661D01*
X43049440Y-17929661D01*
X43049440Y-16234000D01*
X43005162Y-15998683D01*
X42866090Y-15782559D01*
X42653890Y-15637569D01*
X42402000Y-15586560D01*
X40402000Y-15586560D01*
X40166683Y-15630838D01*
X39950559Y-15769910D01*
X39805569Y-15982110D01*
X39754560Y-16234000D01*
X35194311Y-16234000D01*
X35058120Y-16030176D01*
X34527687Y-15675753D01*
X33902000Y-15551296D01*
X33276313Y-15675753D01*
X32745880Y-16030176D01*
X32391457Y-16560609D01*
X32267000Y-17186296D01*
X22635275Y-17186296D01*
X22635820Y-16562282D01*
X21916478Y-14821342D01*
X20585664Y-13488203D01*
X18993310Y-12827000D01*
X123571000Y-12827000D01*
X123571000Y-21209000D01*
X87376000Y-21209000D01*
X87326590Y-21219006D01*
X87284965Y-21247447D01*
X87257685Y-21289841D01*
X87249000Y-21336000D01*
X87249000Y-26035000D01*
X87259006Y-26084410D01*
X87287447Y-26126035D01*
X87329841Y-26153315D01*
X87376000Y-26162000D01*
X94313002Y-26162000D01*
X94113382Y-26295382D01*
X89541382Y-30867382D01*
X89348671Y-31155794D01*
X89281000Y-31496000D01*
X89281000Y-43434000D01*
X89348671Y-43774206D01*
X89445869Y-43919673D01*
X89541382Y-44062618D01*
X93395238Y-47916474D01*
X93440883Y-48026943D01*
X93703673Y-48290192D01*
X94047201Y-48432838D01*
X94419167Y-48433162D01*
X94762943Y-48291117D01*
X95026192Y-48028327D01*
X95168838Y-47684799D01*
X95169162Y-47312833D01*
X95027117Y-46969057D01*
X94764327Y-46705808D01*
X94652687Y-46659451D01*
X91059000Y-43065764D01*
X91059000Y-33978191D01*
X95304500Y-33978191D01*
X95304500Y-35318750D01*
X95422662Y-35436912D01*
X95398372Y-35517430D01*
X95423739Y-35771011D01*
X95304500Y-35890250D01*
X95304500Y-37230809D01*
X95401173Y-37464198D01*
X95579801Y-37642827D01*
X95813190Y-37739500D01*
X97153750Y-37739500D01*
X97278322Y-37614928D01*
X97321757Y-37610583D01*
X97446282Y-37559002D01*
X97587291Y-37601541D01*
X97725250Y-37739500D01*
X99065810Y-37739500D01*
X99299199Y-37642827D01*
X99477827Y-37464198D01*
X99574500Y-37230809D01*
X99574500Y-35890250D01*
X99456338Y-35772088D01*
X99480628Y-35691570D01*
X99455261Y-35437989D01*
X99574500Y-35318750D01*
X99574500Y-33978191D01*
X99477827Y-33744802D01*
X99299199Y-33566173D01*
X99065810Y-33469500D01*
X97725250Y-33469500D01*
X97600678Y-33594072D01*
X97557243Y-33598417D01*
X97432718Y-33649998D01*
X97291709Y-33607459D01*
X97153750Y-33469500D01*
X95813190Y-33469500D01*
X95579801Y-33566173D01*
X95401173Y-33744802D01*
X95304500Y-33978191D01*
X91059000Y-33978191D01*
X91059000Y-31864236D01*
X95110236Y-27813000D01*
X107696000Y-27813000D01*
X107696000Y-27952764D01*
X102822865Y-32825899D01*
X102783794Y-32833671D01*
X102495382Y-33026382D01*
X102302671Y-33314794D01*
X102235000Y-33655000D01*
X102235000Y-39340090D01*
X97659300Y-41736885D01*
X97604833Y-41736838D01*
X97261057Y-41878883D01*
X96997808Y-42141673D01*
X96855162Y-42485201D01*
X96854838Y-42857167D01*
X96996883Y-43200943D01*
X97259673Y-43464192D01*
X97603201Y-43606838D01*
X97975167Y-43607162D01*
X98318943Y-43465117D01*
X98459329Y-43324975D01*
X103536502Y-40665504D01*
X103640988Y-40581207D01*
X103752618Y-40506618D01*
X103775047Y-40473051D01*
X103806468Y-40447701D01*
X103870743Y-40329832D01*
X103945329Y-40218206D01*
X103953205Y-40178610D01*
X103972533Y-40143166D01*
X103986809Y-40009672D01*
X104013000Y-39878000D01*
X104013000Y-41697189D01*
X97259173Y-46355000D01*
X96563189Y-46355000D01*
X96452799Y-46309162D01*
X96080833Y-46308838D01*
X95737057Y-46450883D01*
X95473808Y-46713673D01*
X95331162Y-47057201D01*
X95330838Y-47429167D01*
X95472883Y-47772943D01*
X95735673Y-48036192D01*
X96079201Y-48178838D01*
X96451167Y-48179162D01*
X96562888Y-48133000D01*
X97536000Y-48133000D01*
X97628216Y-48114657D01*
X97722234Y-48113275D01*
X97796682Y-48081147D01*
X97876206Y-48065329D01*
X97954385Y-48013091D01*
X98040715Y-47975836D01*
X105406715Y-42895836D01*
X105463200Y-42837665D01*
X105530618Y-42792618D01*
X105582855Y-42714439D01*
X105648358Y-42646982D01*
X105678283Y-42571622D01*
X105723329Y-42504206D01*
X105741672Y-42411989D01*
X105776374Y-42324599D01*
X105775182Y-42243522D01*
X105791000Y-42164000D01*
X105791000Y-38279336D01*
X105895673Y-38384192D01*
X106239201Y-38526838D01*
X106611167Y-38527162D01*
X106722888Y-38481000D01*
X107696000Y-38481000D01*
X107696000Y-52197000D01*
X107706006Y-52246410D01*
X107734447Y-52288035D01*
X107776841Y-52315315D01*
X107823000Y-52324000D01*
X111125000Y-52324000D01*
X111174410Y-52313994D01*
X111216035Y-52285553D01*
X111243315Y-52243159D01*
X111251999Y-52196430D01*
X111195693Y-39640000D01*
X124298560Y-39640000D01*
X124298560Y-41640000D01*
X124342838Y-41875317D01*
X124481910Y-42091441D01*
X124694110Y-42236431D01*
X124946000Y-42287440D01*
X128546000Y-42287440D01*
X128781317Y-42243162D01*
X128997441Y-42104090D01*
X129142431Y-41891890D01*
X129193440Y-41640000D01*
X129193440Y-39640000D01*
X129149162Y-39404683D01*
X129010090Y-39188559D01*
X128797890Y-39043569D01*
X128546000Y-38992560D01*
X124946000Y-38992560D01*
X124710683Y-39036838D01*
X124494559Y-39175910D01*
X124349569Y-39388110D01*
X124298560Y-39640000D01*
X111195693Y-39640000D01*
X111189875Y-38342723D01*
X111372618Y-38220618D01*
X111670474Y-37922762D01*
X111780943Y-37877117D01*
X112044192Y-37614327D01*
X112186838Y-37270799D01*
X112187162Y-36898833D01*
X112045117Y-36555057D01*
X111782327Y-36291808D01*
X111438799Y-36149162D01*
X111180037Y-36148937D01*
X111166545Y-33140000D01*
X124263296Y-33140000D01*
X124387753Y-33765687D01*
X124742176Y-34296120D01*
X125272609Y-34650543D01*
X125898296Y-34775000D01*
X127593704Y-34775000D01*
X128219391Y-34650543D01*
X128749824Y-34296120D01*
X129104247Y-33765687D01*
X129228704Y-33140000D01*
X129104247Y-32514313D01*
X128749824Y-31983880D01*
X128219391Y-31629457D01*
X127593704Y-31505000D01*
X125898296Y-31505000D01*
X125272609Y-31629457D01*
X124742176Y-31983880D01*
X124387753Y-32514313D01*
X124263296Y-33140000D01*
X111166545Y-33140000D01*
X111154994Y-30564242D01*
X111366236Y-30353000D01*
X117304811Y-30353000D01*
X117415201Y-30398838D01*
X117782826Y-30399158D01*
X117824883Y-30500943D01*
X118087673Y-30764192D01*
X118431201Y-30906838D01*
X118803167Y-30907162D01*
X119146943Y-30765117D01*
X119410192Y-30502327D01*
X119552838Y-30158799D01*
X119553162Y-29786833D01*
X119507000Y-29675112D01*
X119507000Y-28702000D01*
X119439329Y-28361794D01*
X119246618Y-28073382D01*
X118986236Y-27813000D01*
X139077764Y-27813000D01*
X142671238Y-31406474D01*
X142716883Y-31516943D01*
X142979673Y-31780192D01*
X143323201Y-31922838D01*
X143695167Y-31923162D01*
X144038943Y-31781117D01*
X144302192Y-31518327D01*
X144444838Y-31174799D01*
X144445162Y-30802833D01*
X144303117Y-30459057D01*
X144040327Y-30195808D01*
X143928687Y-30149451D01*
X140074618Y-26295382D01*
X139786206Y-26102671D01*
X139446000Y-26035000D01*
X111134683Y-26035000D01*
X111125571Y-24003000D01*
X147574499Y-24003000D01*
X147619499Y-35433000D01*
X118110000Y-35433000D01*
X117769794Y-35500671D01*
X117481382Y-35693382D01*
X116973382Y-36201382D01*
X116780671Y-36489794D01*
X116713000Y-36830000D01*
X116713000Y-37294811D01*
X116667162Y-37405201D01*
X116666838Y-37777167D01*
X116808883Y-38120943D01*
X117071673Y-38384192D01*
X117415201Y-38526838D01*
X117787167Y-38527162D01*
X118110371Y-38393617D01*
X118431201Y-38526838D01*
X118803167Y-38527162D01*
X118914888Y-38481000D01*
X142067110Y-38481000D01*
X142066838Y-38793167D01*
X142208883Y-39136943D01*
X142471673Y-39400192D01*
X142628227Y-39465199D01*
X144697381Y-41304447D01*
X144824886Y-41379205D01*
X144947794Y-41461329D01*
X144973768Y-41466496D01*
X144996612Y-41479889D01*
X145143025Y-41500163D01*
X145288000Y-41529000D01*
X147643499Y-41529000D01*
X147643775Y-41598989D01*
X145173764Y-44069000D01*
X139997189Y-44069000D01*
X139886799Y-44023162D01*
X139514833Y-44022838D01*
X139171057Y-44164883D01*
X138907808Y-44427673D01*
X138765162Y-44771201D01*
X138764838Y-45143167D01*
X138906883Y-45486943D01*
X139169673Y-45750192D01*
X139513201Y-45892838D01*
X139885167Y-45893162D01*
X139996888Y-45847000D01*
X145542000Y-45847000D01*
X145882206Y-45779329D01*
X146170618Y-45586618D01*
X147653635Y-44103601D01*
X147701001Y-56134500D01*
X147711201Y-56183870D01*
X147739806Y-56225383D01*
X147782307Y-56252495D01*
X147828000Y-56261000D01*
X150622000Y-56261000D01*
X150671410Y-56250994D01*
X150713035Y-56222553D01*
X150740315Y-56180159D01*
X150749000Y-56134000D01*
X150749000Y-45871691D01*
X155980000Y-45871691D01*
X155980000Y-47212250D01*
X156098162Y-47330412D01*
X156073872Y-47410930D01*
X156099239Y-47664511D01*
X155980000Y-47783750D01*
X155980000Y-49124309D01*
X156076673Y-49357698D01*
X156255301Y-49536327D01*
X156488690Y-49633000D01*
X157829250Y-49633000D01*
X157953822Y-49508428D01*
X157997257Y-49504083D01*
X158121782Y-49452502D01*
X158262791Y-49495041D01*
X158400750Y-49633000D01*
X159741310Y-49633000D01*
X159974699Y-49536327D01*
X160153327Y-49357698D01*
X160250000Y-49124309D01*
X160250000Y-47783750D01*
X160131838Y-47665588D01*
X160156128Y-47585070D01*
X160130761Y-47331489D01*
X160250000Y-47212250D01*
X160250000Y-45871691D01*
X160153327Y-45638302D01*
X159974699Y-45459673D01*
X159741310Y-45363000D01*
X158400750Y-45363000D01*
X158276178Y-45487572D01*
X158232743Y-45491917D01*
X158108218Y-45543498D01*
X157967209Y-45500959D01*
X157829250Y-45363000D01*
X156488690Y-45363000D01*
X156255301Y-45459673D01*
X156076673Y-45638302D01*
X155980000Y-45871691D01*
X150749000Y-45871691D01*
X150749000Y-41529000D01*
X162814000Y-41529000D01*
X162971146Y-41497742D01*
X163129172Y-41471257D01*
X163140780Y-41464000D01*
X163154206Y-41461329D01*
X163287432Y-41372310D01*
X163423289Y-41287370D01*
X167741289Y-37223370D01*
X167749235Y-37212224D01*
X167760618Y-37204618D01*
X167849641Y-37071386D01*
X167942648Y-36940926D01*
X167945724Y-36927588D01*
X167953329Y-36916206D01*
X167984588Y-36759056D01*
X168020592Y-36602927D01*
X168018329Y-36589426D01*
X168021000Y-36576000D01*
X168021000Y-35560000D01*
X167953329Y-35219794D01*
X167760618Y-34931382D01*
X166236618Y-33407382D01*
X166098050Y-33314794D01*
X165948206Y-33214671D01*
X165608000Y-33147000D01*
X162857189Y-33147000D01*
X162746799Y-33101162D01*
X162374833Y-33100838D01*
X162031057Y-33242883D01*
X161767808Y-33505673D01*
X161625162Y-33849201D01*
X161624838Y-34221167D01*
X161766883Y-34564943D01*
X162029673Y-34828192D01*
X162373201Y-34970838D01*
X162745167Y-34971162D01*
X162856888Y-34925000D01*
X165239764Y-34925000D01*
X166243000Y-35928236D01*
X166243000Y-36191887D01*
X162461443Y-39751000D01*
X159938890Y-39751000D01*
X159939162Y-39438833D01*
X159797117Y-39095057D01*
X159534327Y-38831808D01*
X159422687Y-38785451D01*
X157829283Y-37192047D01*
X158074206Y-37143329D01*
X158362618Y-36950618D01*
X160438474Y-34874762D01*
X160548943Y-34829117D01*
X160812192Y-34566327D01*
X160954838Y-34222799D01*
X160955162Y-33850833D01*
X160813117Y-33507057D01*
X160550327Y-33243808D01*
X160206799Y-33101162D01*
X159834833Y-33100838D01*
X159491057Y-33242883D01*
X159227808Y-33505673D01*
X159181451Y-33617313D01*
X157365764Y-35433000D01*
X150749000Y-35433000D01*
X150749000Y-26416000D01*
X169926000Y-26416000D01*
X169926000Y-62992000D01*
X150114000Y-62992000D01*
X150064590Y-63002006D01*
X150022965Y-63030447D01*
X149995685Y-63072841D01*
X149987000Y-63119000D01*
X149987000Y-64643000D01*
X149997006Y-64692410D01*
X150025447Y-64734035D01*
X150067841Y-64761315D01*
X150114000Y-64770000D01*
X170180000Y-64770000D01*
X170180000Y-110998000D01*
X151129603Y-110998000D01*
X151123954Y-109190072D01*
X162189533Y-109190072D01*
X162666039Y-109779040D01*
X164396862Y-110522396D01*
X166280403Y-110546809D01*
X168029912Y-109848565D01*
X168133961Y-109779040D01*
X168610467Y-109190072D01*
X165400000Y-105979605D01*
X162189533Y-109190072D01*
X151123954Y-109190072D01*
X151116111Y-106680403D01*
X160653191Y-106680403D01*
X161351435Y-108429912D01*
X161420960Y-108533961D01*
X162009928Y-109010467D01*
X165220395Y-105800000D01*
X165579605Y-105800000D01*
X168790072Y-109010467D01*
X169379040Y-108533961D01*
X170122396Y-106803138D01*
X170146809Y-104919597D01*
X169448565Y-103170088D01*
X169379040Y-103066039D01*
X168790072Y-102589533D01*
X165579605Y-105800000D01*
X165220395Y-105800000D01*
X162009928Y-102589533D01*
X161420960Y-103066039D01*
X160677604Y-104796862D01*
X160653191Y-106680403D01*
X151116111Y-106680403D01*
X151102766Y-102409928D01*
X162189533Y-102409928D01*
X165400000Y-105620395D01*
X168610467Y-102409928D01*
X168133961Y-101820960D01*
X166403138Y-101077604D01*
X164519597Y-101053191D01*
X162770088Y-101751435D01*
X162666039Y-101820960D01*
X162189533Y-102409928D01*
X151102766Y-102409928D01*
X151036985Y-81360251D01*
X152006236Y-80391000D01*
X157682097Y-80391000D01*
X157664000Y-80434691D01*
X157664000Y-81775250D01*
X157782162Y-81893412D01*
X157757872Y-81973930D01*
X157783239Y-82227511D01*
X157664000Y-82346750D01*
X157664000Y-83687309D01*
X157760673Y-83920698D01*
X157939301Y-84099327D01*
X158172690Y-84196000D01*
X159513250Y-84196000D01*
X159637822Y-84071428D01*
X159681257Y-84067083D01*
X159805782Y-84015502D01*
X159946791Y-84058041D01*
X160084750Y-84196000D01*
X161425310Y-84196000D01*
X161658699Y-84099327D01*
X161837327Y-83920698D01*
X161934000Y-83687309D01*
X161934000Y-82346750D01*
X161815838Y-82228588D01*
X161840128Y-82148070D01*
X161814761Y-81894489D01*
X161934000Y-81775250D01*
X161934000Y-80434691D01*
X161915903Y-80391000D01*
X166878000Y-80391000D01*
X167218206Y-80323329D01*
X167506618Y-80130618D01*
X168268618Y-79368618D01*
X168369777Y-79217223D01*
X168461329Y-79080206D01*
X168529000Y-78740000D01*
X168529000Y-71374000D01*
X168461329Y-71033794D01*
X168268618Y-70745382D01*
X165982618Y-68459382D01*
X165897578Y-68402560D01*
X165694206Y-68266671D01*
X165354000Y-68199000D01*
X164127189Y-68199000D01*
X164016799Y-68153162D01*
X163644833Y-68152838D01*
X163301057Y-68294883D01*
X163037808Y-68557673D01*
X162895162Y-68901201D01*
X162894838Y-69273167D01*
X163036883Y-69616943D01*
X163299673Y-69880192D01*
X163643201Y-70022838D01*
X164015167Y-70023162D01*
X164126888Y-69977000D01*
X164985764Y-69977000D01*
X166751000Y-71742236D01*
X166751000Y-78371764D01*
X166509764Y-78613000D01*
X151638000Y-78613000D01*
X151297794Y-78680671D01*
X151138216Y-78787298D01*
X151029173Y-78860158D01*
X151017288Y-75057000D01*
X160230811Y-75057000D01*
X160341201Y-75102838D01*
X160713167Y-75103162D01*
X161056943Y-74961117D01*
X161320192Y-74698327D01*
X161462838Y-74354799D01*
X161463162Y-73982833D01*
X161321117Y-73639057D01*
X161058327Y-73375808D01*
X160714799Y-73233162D01*
X160342833Y-73232838D01*
X160231112Y-73279000D01*
X151011731Y-73279000D01*
X151002999Y-70484603D01*
X150992839Y-70435225D01*
X150964268Y-70393689D01*
X150921789Y-70366542D01*
X150876000Y-70358000D01*
X148209000Y-70358000D01*
X148159590Y-70368006D01*
X148117965Y-70396447D01*
X148090685Y-70438841D01*
X148082001Y-70485555D01*
X148094199Y-73279000D01*
X131572000Y-73279000D01*
X131231794Y-73346671D01*
X130943382Y-73539382D01*
X120777000Y-83705764D01*
X120777000Y-82918236D01*
X133718236Y-69977000D01*
X161246811Y-69977000D01*
X161357201Y-70022838D01*
X161729167Y-70023162D01*
X162072943Y-69881117D01*
X162336192Y-69618327D01*
X162478838Y-69274799D01*
X162479162Y-68902833D01*
X162337117Y-68559057D01*
X162074327Y-68295808D01*
X161730799Y-68153162D01*
X161358833Y-68152838D01*
X161247112Y-68199000D01*
X133350000Y-68199000D01*
X133009794Y-68266671D01*
X132806422Y-68402560D01*
X132721382Y-68459382D01*
X119259382Y-81921382D01*
X119066671Y-82209794D01*
X118999000Y-82550000D01*
X118999000Y-83776811D01*
X118953162Y-83887201D01*
X118952838Y-84259167D01*
X119094883Y-84602943D01*
X119357673Y-84866192D01*
X119701201Y-85008838D01*
X120073167Y-85009162D01*
X120286420Y-84921048D01*
X120364883Y-85110943D01*
X120627673Y-85374192D01*
X120971201Y-85516838D01*
X121343167Y-85517162D01*
X121686943Y-85375117D01*
X121950192Y-85112327D01*
X121996549Y-85000687D01*
X131940236Y-75057000D01*
X148101964Y-75057000D01*
X148131198Y-81751566D01*
X146951764Y-82931000D01*
X143680189Y-82931000D01*
X143569799Y-82885162D01*
X143197833Y-82884838D01*
X142854057Y-83026883D01*
X142590808Y-83289673D01*
X142448162Y-83633201D01*
X142447838Y-84005167D01*
X142589883Y-84348943D01*
X142852673Y-84612192D01*
X143196201Y-84754838D01*
X143568167Y-84755162D01*
X143679888Y-84709000D01*
X147320000Y-84709000D01*
X147660206Y-84641329D01*
X147948618Y-84448618D01*
X148142130Y-84255106D01*
X148208444Y-99441000D01*
X139495922Y-99441000D01*
X143835317Y-92690830D01*
X144048192Y-92478327D01*
X144190838Y-92134799D01*
X144191162Y-91762833D01*
X144049117Y-91419057D01*
X143786327Y-91155808D01*
X143442799Y-91013162D01*
X143070833Y-91012838D01*
X142727057Y-91154883D01*
X142463808Y-91417673D01*
X142324678Y-91752733D01*
X138198649Y-98171000D01*
X112649000Y-98171000D01*
X112649000Y-93615000D01*
X127473560Y-93615000D01*
X127473560Y-95615000D01*
X127517838Y-95850317D01*
X127656910Y-96066441D01*
X127869110Y-96211431D01*
X128121000Y-96262440D01*
X131721000Y-96262440D01*
X131956317Y-96218162D01*
X132172441Y-96079090D01*
X132317431Y-95866890D01*
X132368440Y-95615000D01*
X132368440Y-93615000D01*
X132324162Y-93379683D01*
X132185090Y-93163559D01*
X131972890Y-93018569D01*
X131721000Y-92967560D01*
X128121000Y-92967560D01*
X127885683Y-93011838D01*
X127669559Y-93150910D01*
X127524569Y-93363110D01*
X127473560Y-93615000D01*
X112649000Y-93615000D01*
X112649000Y-92837000D01*
X119590811Y-92837000D01*
X119701201Y-92882838D01*
X120073167Y-92883162D01*
X120396371Y-92749617D01*
X120717201Y-92882838D01*
X121089167Y-92883162D01*
X121432943Y-92741117D01*
X121696192Y-92478327D01*
X121838838Y-92134799D01*
X121839162Y-91762833D01*
X121793000Y-91651112D01*
X121793000Y-90170000D01*
X121725329Y-89829794D01*
X121532618Y-89541382D01*
X119106236Y-87115000D01*
X127438296Y-87115000D01*
X127562753Y-87740687D01*
X127917176Y-88271120D01*
X128447609Y-88625543D01*
X129073296Y-88750000D01*
X130768704Y-88750000D01*
X131394391Y-88625543D01*
X131924824Y-88271120D01*
X132279247Y-87740687D01*
X132403704Y-87115000D01*
X132279247Y-86489313D01*
X131924824Y-85958880D01*
X131394391Y-85604457D01*
X130768704Y-85480000D01*
X129073296Y-85480000D01*
X128447609Y-85604457D01*
X127917176Y-85958880D01*
X127562753Y-86489313D01*
X127438296Y-87115000D01*
X119106236Y-87115000D01*
X118738618Y-86747382D01*
X118626051Y-86672167D01*
X118450206Y-86554671D01*
X118110000Y-86487000D01*
X112649000Y-86487000D01*
X112649000Y-74131305D01*
X119995674Y-74131305D01*
X120282043Y-74824372D01*
X120811839Y-75355093D01*
X121504405Y-75642672D01*
X122254305Y-75643326D01*
X122947372Y-75356957D01*
X123478093Y-74827161D01*
X123765672Y-74134595D01*
X123766326Y-73384695D01*
X123479957Y-72691628D01*
X122950161Y-72160907D01*
X122257595Y-71873328D01*
X121507695Y-71872674D01*
X120814628Y-72159043D01*
X120283907Y-72688839D01*
X119996328Y-73381405D01*
X119995674Y-74131305D01*
X112649000Y-74131305D01*
X112649000Y-64770000D01*
X112638994Y-64720590D01*
X112610553Y-64678965D01*
X112568159Y-64651685D01*
X112522000Y-64643000D01*
X108712000Y-64643000D01*
X108662590Y-64653006D01*
X108622197Y-64680197D01*
X107987197Y-65315197D01*
X107959334Y-65357211D01*
X107950000Y-65405000D01*
X107950000Y-84455000D01*
X104564189Y-84455000D01*
X104453799Y-84409162D01*
X104081833Y-84408838D01*
X103738057Y-84550883D01*
X103474808Y-84813673D01*
X103332162Y-85157201D01*
X103331838Y-85529167D01*
X103473883Y-85872943D01*
X103736673Y-86136192D01*
X104080201Y-86278838D01*
X104452167Y-86279162D01*
X104563888Y-86233000D01*
X107950000Y-86233000D01*
X107950000Y-86487000D01*
X93515189Y-86487000D01*
X93404799Y-86441162D01*
X93032833Y-86440838D01*
X92689057Y-86582883D01*
X92425808Y-86845673D01*
X92283162Y-87189201D01*
X92282838Y-87561167D01*
X92424883Y-87904943D01*
X92687673Y-88168192D01*
X93031201Y-88310838D01*
X93403167Y-88311162D01*
X93514888Y-88265000D01*
X107950000Y-88265000D01*
X107950000Y-91059000D01*
X92456000Y-91059000D01*
X92115794Y-91126671D01*
X91979581Y-91217686D01*
X91827382Y-91319382D01*
X91275526Y-91871238D01*
X91165057Y-91916883D01*
X90901808Y-92179673D01*
X90759162Y-92523201D01*
X90758838Y-92895167D01*
X90900883Y-93238943D01*
X91163673Y-93502192D01*
X91507201Y-93644838D01*
X91879167Y-93645162D01*
X92222943Y-93503117D01*
X92486192Y-93240327D01*
X92532549Y-93128687D01*
X92824236Y-92837000D01*
X107950000Y-92837000D01*
X107950000Y-98171000D01*
X93840236Y-98171000D01*
X90297000Y-94627764D01*
X90297000Y-93007189D01*
X90342838Y-92896799D01*
X90343162Y-92524833D01*
X90201117Y-92181057D01*
X89938327Y-91917808D01*
X89594799Y-91775162D01*
X89222833Y-91774838D01*
X88879057Y-91916883D01*
X88615808Y-92179673D01*
X88473162Y-92523201D01*
X88472838Y-92895167D01*
X88519000Y-93006888D01*
X88519000Y-94996000D01*
X88586671Y-95336206D01*
X88677996Y-95472883D01*
X88779382Y-95624618D01*
X92843382Y-99688618D01*
X93131794Y-99881329D01*
X93472000Y-99949000D01*
X107950000Y-99949000D01*
X107950000Y-107442000D01*
X81534000Y-107442000D01*
X81484590Y-107452006D01*
X81442965Y-107480447D01*
X81415685Y-107522841D01*
X81407000Y-107569000D01*
X81407000Y-110109000D01*
X58039000Y-110109000D01*
X58039000Y-107083661D01*
X58673758Y-107083661D01*
X58885990Y-107597303D01*
X59278630Y-107990629D01*
X59791900Y-108203757D01*
X60347661Y-108204242D01*
X60861303Y-107992010D01*
X61254629Y-107599370D01*
X61467757Y-107086100D01*
X61468242Y-106530339D01*
X61256010Y-106016697D01*
X60863370Y-105623371D01*
X60350100Y-105410243D01*
X60105344Y-105410029D01*
X60418368Y-105394362D01*
X60802143Y-105235397D01*
X60871608Y-104993213D01*
X60071000Y-104192605D01*
X59270392Y-104993213D01*
X59339857Y-105235397D01*
X59828668Y-105409788D01*
X59794339Y-105409758D01*
X59280697Y-105621990D01*
X58887371Y-106014630D01*
X58674243Y-106527900D01*
X58673758Y-107083661D01*
X58039000Y-107083661D01*
X58039000Y-103805302D01*
X58661856Y-103805302D01*
X58689638Y-104360368D01*
X58848603Y-104744143D01*
X59090787Y-104813608D01*
X59891395Y-104013000D01*
X60250605Y-104013000D01*
X61051213Y-104813608D01*
X61293397Y-104744143D01*
X61480144Y-104220698D01*
X61452362Y-103665632D01*
X61293397Y-103281857D01*
X61051213Y-103212392D01*
X60250605Y-104013000D01*
X59891395Y-104013000D01*
X59090787Y-103212392D01*
X58848603Y-103281857D01*
X58661856Y-103805302D01*
X58039000Y-103805302D01*
X58039000Y-103032787D01*
X59270392Y-103032787D01*
X60071000Y-103833395D01*
X60871608Y-103032787D01*
X60802143Y-102790603D01*
X60278698Y-102603856D01*
X59723632Y-102631638D01*
X59339857Y-102790603D01*
X59270392Y-103032787D01*
X58039000Y-103032787D01*
X58039000Y-101727000D01*
X63500000Y-101727000D01*
X63549410Y-101716994D01*
X63591035Y-101688553D01*
X63618315Y-101646159D01*
X63627000Y-101600000D01*
X63627000Y-101120800D01*
X85195160Y-101120800D01*
X85195160Y-104720800D01*
X85239438Y-104956117D01*
X85378510Y-105172241D01*
X85590710Y-105317231D01*
X85842600Y-105368240D01*
X87842600Y-105368240D01*
X88077917Y-105323962D01*
X88294041Y-105184890D01*
X88439031Y-104972690D01*
X88490040Y-104720800D01*
X88490040Y-103047800D01*
X92707600Y-103047800D01*
X92707600Y-103847800D01*
X92880658Y-104463820D01*
X93276283Y-104966722D01*
X93834245Y-105279944D01*
X93962166Y-105310924D01*
X94215600Y-105191577D01*
X94215600Y-103047800D01*
X94469600Y-103047800D01*
X94469600Y-105191577D01*
X94723034Y-105310924D01*
X94850955Y-105279944D01*
X95408917Y-104966722D01*
X95804542Y-104463820D01*
X95977600Y-103847800D01*
X95977600Y-103124000D01*
X103286846Y-103124000D01*
X103388467Y-103634882D01*
X103677858Y-104067988D01*
X104110964Y-104357379D01*
X104621846Y-104459000D01*
X104674154Y-104459000D01*
X105185036Y-104357379D01*
X105618142Y-104067988D01*
X105907533Y-103634882D01*
X106009154Y-103124000D01*
X105907533Y-102613118D01*
X105618142Y-102180012D01*
X105185036Y-101890621D01*
X104674154Y-101789000D01*
X104621846Y-101789000D01*
X104110964Y-101890621D01*
X103677858Y-102180012D01*
X103388467Y-102613118D01*
X103286846Y-103124000D01*
X95977600Y-103124000D01*
X95977600Y-103047800D01*
X94469600Y-103047800D01*
X94215600Y-103047800D01*
X92707600Y-103047800D01*
X88490040Y-103047800D01*
X88490040Y-101993800D01*
X92707600Y-101993800D01*
X92707600Y-102793800D01*
X94215600Y-102793800D01*
X94215600Y-100650023D01*
X94469600Y-100650023D01*
X94469600Y-102793800D01*
X95977600Y-102793800D01*
X95977600Y-101993800D01*
X95804542Y-101377780D01*
X95408917Y-100874878D01*
X94850955Y-100561656D01*
X94723034Y-100530676D01*
X94469600Y-100650023D01*
X94215600Y-100650023D01*
X93962166Y-100530676D01*
X93834245Y-100561656D01*
X93276283Y-100874878D01*
X92880658Y-101377780D01*
X92707600Y-101993800D01*
X88490040Y-101993800D01*
X88490040Y-101120800D01*
X88445762Y-100885483D01*
X88306690Y-100669359D01*
X88094490Y-100524369D01*
X87842600Y-100473360D01*
X85842600Y-100473360D01*
X85607283Y-100517638D01*
X85391159Y-100656710D01*
X85246169Y-100868910D01*
X85195160Y-101120800D01*
X63627000Y-101120800D01*
X63627000Y-96774000D01*
X81407000Y-96774000D01*
X81407000Y-98844100D01*
X81417006Y-98893510D01*
X81445447Y-98935135D01*
X81487841Y-98962415D01*
X81537509Y-98971052D01*
X81586623Y-98959684D01*
X81627446Y-98930105D01*
X81653545Y-98886973D01*
X81660611Y-98854038D01*
X81836940Y-96607609D01*
X81830831Y-96557567D01*
X81805735Y-96513845D01*
X81765605Y-96483331D01*
X81716765Y-96470834D01*
X81666912Y-96478323D01*
X81620526Y-96507868D01*
X81444197Y-96684197D01*
X81416334Y-96726211D01*
X81407000Y-96774000D01*
X63627000Y-96774000D01*
X63627000Y-92434000D01*
X69091560Y-92434000D01*
X69091560Y-96034000D01*
X69135838Y-96269317D01*
X69274910Y-96485441D01*
X69487110Y-96630431D01*
X69739000Y-96681440D01*
X71739000Y-96681440D01*
X71974317Y-96637162D01*
X72190441Y-96498090D01*
X72335431Y-96285890D01*
X72386440Y-96034000D01*
X72386440Y-93386296D01*
X76604000Y-93386296D01*
X76604000Y-95081704D01*
X76728457Y-95707391D01*
X77082880Y-96237824D01*
X77613313Y-96592247D01*
X78239000Y-96716704D01*
X78864687Y-96592247D01*
X79395120Y-96237824D01*
X79749543Y-95707391D01*
X79874000Y-95081704D01*
X79874000Y-93386296D01*
X79749543Y-92760609D01*
X79395120Y-92230176D01*
X78864687Y-91875753D01*
X78239000Y-91751296D01*
X77613313Y-91875753D01*
X77082880Y-92230176D01*
X76728457Y-92760609D01*
X76604000Y-93386296D01*
X72386440Y-93386296D01*
X72386440Y-92434000D01*
X72342162Y-92198683D01*
X72203090Y-91982559D01*
X71990890Y-91837569D01*
X71739000Y-91786560D01*
X69739000Y-91786560D01*
X69503683Y-91830838D01*
X69287559Y-91969910D01*
X69142569Y-92182110D01*
X69091560Y-92434000D01*
X63627000Y-92434000D01*
X63627000Y-82591296D01*
X69224000Y-82591296D01*
X69224000Y-84286704D01*
X69348457Y-84912391D01*
X69702880Y-85442824D01*
X70233313Y-85797247D01*
X70859000Y-85921704D01*
X71484687Y-85797247D01*
X72015120Y-85442824D01*
X72369543Y-84912391D01*
X72494000Y-84286704D01*
X72494000Y-82591296D01*
X72369543Y-81965609D01*
X72151311Y-81639000D01*
X76711560Y-81639000D01*
X76711560Y-85239000D01*
X76755838Y-85474317D01*
X76894910Y-85690441D01*
X77107110Y-85835431D01*
X77359000Y-85886440D01*
X79359000Y-85886440D01*
X79594317Y-85842162D01*
X79810441Y-85703090D01*
X79955431Y-85490890D01*
X80006440Y-85239000D01*
X80006440Y-81639000D01*
X79962162Y-81403683D01*
X79823090Y-81187559D01*
X79610890Y-81042569D01*
X79359000Y-80991560D01*
X77359000Y-80991560D01*
X77123683Y-81035838D01*
X76907559Y-81174910D01*
X76762569Y-81387110D01*
X76711560Y-81639000D01*
X72151311Y-81639000D01*
X72015120Y-81435176D01*
X71484687Y-81080753D01*
X70859000Y-80956296D01*
X70233313Y-81080753D01*
X69702880Y-81435176D01*
X69348457Y-81965609D01*
X69224000Y-82591296D01*
X63627000Y-82591296D01*
X63627000Y-78910691D01*
X92259000Y-78910691D01*
X92259000Y-80251250D01*
X92377162Y-80369412D01*
X92352872Y-80449930D01*
X92378239Y-80703511D01*
X92259000Y-80822750D01*
X92259000Y-82163309D01*
X92355673Y-82396698D01*
X92534301Y-82575327D01*
X92767690Y-82672000D01*
X94108250Y-82672000D01*
X94232822Y-82547428D01*
X94276257Y-82543083D01*
X94400782Y-82491502D01*
X94541791Y-82534041D01*
X94679750Y-82672000D01*
X96020310Y-82672000D01*
X96253699Y-82575327D01*
X96432327Y-82396698D01*
X96529000Y-82163309D01*
X96529000Y-80822750D01*
X96410838Y-80704588D01*
X96435128Y-80624070D01*
X96409761Y-80370489D01*
X96529000Y-80251250D01*
X96529000Y-78910691D01*
X96432327Y-78677302D01*
X96253699Y-78498673D01*
X96020310Y-78402000D01*
X94679750Y-78402000D01*
X94555178Y-78526572D01*
X94511743Y-78530917D01*
X94387218Y-78582498D01*
X94246209Y-78539959D01*
X94108250Y-78402000D01*
X92767690Y-78402000D01*
X92534301Y-78498673D01*
X92355673Y-78677302D01*
X92259000Y-78910691D01*
X63627000Y-78910691D01*
X63627000Y-78740000D01*
X63616994Y-78690590D01*
X63588553Y-78648965D01*
X63546159Y-78621685D01*
X63500000Y-78613000D01*
X49328606Y-78613000D01*
X47296606Y-76581000D01*
X70104000Y-76581000D01*
X70444206Y-76513329D01*
X70732618Y-76320618D01*
X81775236Y-65278000D01*
X87586811Y-65278000D01*
X87697201Y-65323838D01*
X88069167Y-65324162D01*
X88412943Y-65182117D01*
X88676192Y-64919327D01*
X88818838Y-64575799D01*
X88819007Y-64381305D01*
X114245674Y-64381305D01*
X114532043Y-65074372D01*
X115061839Y-65605093D01*
X115754405Y-65892672D01*
X116504305Y-65893326D01*
X117197372Y-65606957D01*
X117463472Y-65341320D01*
X137477285Y-65341320D01*
X137606533Y-65634123D01*
X138306806Y-65902388D01*
X139056435Y-65882250D01*
X139655467Y-65634123D01*
X139784715Y-65341320D01*
X138631000Y-64187605D01*
X137477285Y-65341320D01*
X117463472Y-65341320D01*
X117728093Y-65077161D01*
X118015672Y-64384595D01*
X118016283Y-63683806D01*
X136736612Y-63683806D01*
X136756750Y-64433435D01*
X137004877Y-65032467D01*
X137297680Y-65161715D01*
X138451395Y-64008000D01*
X138810605Y-64008000D01*
X139964320Y-65161715D01*
X140257123Y-65032467D01*
X140525388Y-64332194D01*
X140505250Y-63582565D01*
X140257123Y-62983533D01*
X139964320Y-62854285D01*
X138810605Y-64008000D01*
X138451395Y-64008000D01*
X137297680Y-62854285D01*
X137004877Y-62983533D01*
X136736612Y-63683806D01*
X118016283Y-63683806D01*
X118016326Y-63634695D01*
X117729957Y-62941628D01*
X117463475Y-62674680D01*
X137477285Y-62674680D01*
X138631000Y-63828395D01*
X139784715Y-62674680D01*
X139655467Y-62381877D01*
X138955194Y-62113612D01*
X138205565Y-62133750D01*
X137606533Y-62381877D01*
X137477285Y-62674680D01*
X117463475Y-62674680D01*
X117200161Y-62410907D01*
X116507595Y-62123328D01*
X115757695Y-62122674D01*
X115064628Y-62409043D01*
X114533907Y-62938839D01*
X114246328Y-63631405D01*
X114245674Y-64381305D01*
X88819007Y-64381305D01*
X88819162Y-64203833D01*
X88685617Y-63880629D01*
X88818838Y-63559799D01*
X88819162Y-63187833D01*
X88677117Y-62844057D01*
X88414327Y-62580808D01*
X88070799Y-62438162D01*
X87698833Y-62437838D01*
X87587112Y-62484000D01*
X80137000Y-62484000D01*
X79796794Y-62551671D01*
X79517933Y-62738000D01*
X79508382Y-62744382D01*
X68465764Y-73787000D01*
X66408236Y-73787000D01*
X69716618Y-70478618D01*
X69909329Y-70190206D01*
X69977000Y-69850000D01*
X69977000Y-54631305D01*
X119995674Y-54631305D01*
X120282043Y-55324372D01*
X120811839Y-55855093D01*
X121504405Y-56142672D01*
X122254305Y-56143326D01*
X122947372Y-55856957D01*
X123478093Y-55327161D01*
X123765672Y-54634595D01*
X123766326Y-53884695D01*
X123479957Y-53191628D01*
X122950161Y-52660907D01*
X122257595Y-52373328D01*
X121507695Y-52372674D01*
X120814628Y-52659043D01*
X120283907Y-53188839D01*
X119996328Y-53881405D01*
X119995674Y-54631305D01*
X69977000Y-54631305D01*
X69977000Y-45440471D01*
X70288736Y-45648767D01*
X70837887Y-45758000D01*
X70894113Y-45758000D01*
X71443264Y-45648767D01*
X71908811Y-45337698D01*
X72219880Y-44872151D01*
X72272273Y-44608750D01*
X77051000Y-44608750D01*
X77051000Y-45249310D01*
X77147673Y-45482699D01*
X77326302Y-45661327D01*
X77559691Y-45758000D01*
X78200250Y-45758000D01*
X78359000Y-45599250D01*
X78359000Y-44450000D01*
X78613000Y-44450000D01*
X78613000Y-45599250D01*
X78771750Y-45758000D01*
X79412309Y-45758000D01*
X79645698Y-45661327D01*
X79824327Y-45482699D01*
X79921000Y-45249310D01*
X79921000Y-44608750D01*
X79762250Y-44450000D01*
X78613000Y-44450000D01*
X78359000Y-44450000D01*
X77209750Y-44450000D01*
X77051000Y-44608750D01*
X72272273Y-44608750D01*
X72329113Y-44323000D01*
X72219880Y-43773849D01*
X71967871Y-43396690D01*
X77051000Y-43396690D01*
X77051000Y-44037250D01*
X77209750Y-44196000D01*
X78359000Y-44196000D01*
X78359000Y-41910000D01*
X78613000Y-41910000D01*
X78613000Y-44196000D01*
X79762250Y-44196000D01*
X79921000Y-44037250D01*
X79921000Y-43396690D01*
X79824327Y-43163301D01*
X79645698Y-42984673D01*
X79412309Y-42888000D01*
X79384062Y-42888000D01*
X79717041Y-42520423D01*
X79877904Y-42132039D01*
X79755915Y-41910000D01*
X78613000Y-41910000D01*
X78359000Y-41910000D01*
X77216085Y-41910000D01*
X77094096Y-42132039D01*
X77254959Y-42520423D01*
X77587938Y-42888000D01*
X77559691Y-42888000D01*
X77326302Y-42984673D01*
X77147673Y-43163301D01*
X77051000Y-43396690D01*
X71967871Y-43396690D01*
X71908811Y-43308302D01*
X71526725Y-43053000D01*
X71908811Y-42797698D01*
X72219880Y-42332151D01*
X72329113Y-41783000D01*
X72219880Y-41233849D01*
X71908811Y-40768302D01*
X71526725Y-40513000D01*
X71908811Y-40257698D01*
X72219880Y-39792151D01*
X72259684Y-39592039D01*
X77094096Y-39592039D01*
X77254959Y-39980423D01*
X77630866Y-40395389D01*
X77879367Y-40513000D01*
X77630866Y-40630611D01*
X77254959Y-41045577D01*
X77094096Y-41433961D01*
X77216085Y-41656000D01*
X78359000Y-41656000D01*
X78359000Y-39370000D01*
X78613000Y-39370000D01*
X78613000Y-41656000D01*
X79755915Y-41656000D01*
X79877904Y-41433961D01*
X79717041Y-41045577D01*
X79341134Y-40630611D01*
X79092633Y-40513000D01*
X79341134Y-40395389D01*
X79717041Y-39980423D01*
X79877904Y-39592039D01*
X79755915Y-39370000D01*
X78613000Y-39370000D01*
X78359000Y-39370000D01*
X77216085Y-39370000D01*
X77094096Y-39592039D01*
X72259684Y-39592039D01*
X72329113Y-39243000D01*
X72219880Y-38693849D01*
X71908811Y-38228302D01*
X71526725Y-37973000D01*
X71908811Y-37717698D01*
X72219880Y-37252151D01*
X72259684Y-37052039D01*
X77094096Y-37052039D01*
X77254959Y-37440423D01*
X77630866Y-37855389D01*
X77879367Y-37973000D01*
X77630866Y-38090611D01*
X77254959Y-38505577D01*
X77094096Y-38893961D01*
X77216085Y-39116000D01*
X78359000Y-39116000D01*
X78359000Y-36830000D01*
X78613000Y-36830000D01*
X78613000Y-39116000D01*
X79755915Y-39116000D01*
X79877904Y-38893961D01*
X79717041Y-38505577D01*
X79341134Y-38090611D01*
X79092633Y-37973000D01*
X79341134Y-37855389D01*
X79717041Y-37440423D01*
X79877904Y-37052039D01*
X79755915Y-36830000D01*
X78613000Y-36830000D01*
X78359000Y-36830000D01*
X77216085Y-36830000D01*
X77094096Y-37052039D01*
X72259684Y-37052039D01*
X72329113Y-36703000D01*
X72219880Y-36153849D01*
X71908811Y-35688302D01*
X71526725Y-35433000D01*
X71908811Y-35177698D01*
X72219880Y-34712151D01*
X72259684Y-34512039D01*
X77094096Y-34512039D01*
X77254959Y-34900423D01*
X77630866Y-35315389D01*
X77879367Y-35433000D01*
X77630866Y-35550611D01*
X77254959Y-35965577D01*
X77094096Y-36353961D01*
X77216085Y-36576000D01*
X78359000Y-36576000D01*
X78359000Y-34290000D01*
X78613000Y-34290000D01*
X78613000Y-36576000D01*
X79755915Y-36576000D01*
X79877904Y-36353961D01*
X79717041Y-35965577D01*
X79341134Y-35550611D01*
X79092633Y-35433000D01*
X79341134Y-35315389D01*
X79717041Y-34900423D01*
X79877904Y-34512039D01*
X79755915Y-34290000D01*
X78613000Y-34290000D01*
X78359000Y-34290000D01*
X77216085Y-34290000D01*
X77094096Y-34512039D01*
X72259684Y-34512039D01*
X72329113Y-34163000D01*
X72219880Y-33613849D01*
X71908811Y-33148302D01*
X71526725Y-32893000D01*
X71908811Y-32637698D01*
X72219880Y-32172151D01*
X72259684Y-31972039D01*
X77094096Y-31972039D01*
X77254959Y-32360423D01*
X77630866Y-32775389D01*
X77879367Y-32893000D01*
X77630866Y-33010611D01*
X77254959Y-33425577D01*
X77094096Y-33813961D01*
X77216085Y-34036000D01*
X78359000Y-34036000D01*
X78359000Y-31750000D01*
X78613000Y-31750000D01*
X78613000Y-34036000D01*
X79755915Y-34036000D01*
X79877904Y-33813961D01*
X79717041Y-33425577D01*
X79341134Y-33010611D01*
X79092633Y-32893000D01*
X79341134Y-32775389D01*
X79717041Y-32360423D01*
X79877904Y-31972039D01*
X79755915Y-31750000D01*
X78613000Y-31750000D01*
X78359000Y-31750000D01*
X77216085Y-31750000D01*
X77094096Y-31972039D01*
X72259684Y-31972039D01*
X72329113Y-31623000D01*
X72259685Y-31273961D01*
X77094096Y-31273961D01*
X77216085Y-31496000D01*
X78359000Y-31496000D01*
X78359000Y-30352371D01*
X78613000Y-30352371D01*
X78613000Y-31496000D01*
X79755915Y-31496000D01*
X79877904Y-31273961D01*
X79717041Y-30885577D01*
X79341134Y-30470611D01*
X78835041Y-30231086D01*
X78613000Y-30352371D01*
X78359000Y-30352371D01*
X78136959Y-30231086D01*
X77630866Y-30470611D01*
X77254959Y-30885577D01*
X77094096Y-31273961D01*
X72259685Y-31273961D01*
X72219880Y-31073849D01*
X71908811Y-30608302D01*
X71443264Y-30297233D01*
X70894113Y-30188000D01*
X70837887Y-30188000D01*
X70288736Y-30297233D01*
X69823189Y-30608302D01*
X69512120Y-31073849D01*
X69402887Y-31623000D01*
X69512120Y-32172151D01*
X69522806Y-32188144D01*
X69274799Y-32085162D01*
X68902833Y-32084838D01*
X68559057Y-32226883D01*
X68295808Y-32489673D01*
X68153162Y-32833201D01*
X68152838Y-33205167D01*
X68199000Y-33316888D01*
X68199000Y-69481764D01*
X65163764Y-72517000D01*
X61836236Y-72517000D01*
X60833000Y-71513764D01*
X60833000Y-71253699D01*
X61049000Y-71297440D01*
X62649000Y-71297440D01*
X62884317Y-71253162D01*
X63100441Y-71114090D01*
X63245431Y-70901890D01*
X63296440Y-70650000D01*
X63296440Y-69050000D01*
X63252162Y-68814683D01*
X63113090Y-68598559D01*
X62900890Y-68453569D01*
X62745911Y-68422185D01*
X62891811Y-68324698D01*
X63202880Y-67859151D01*
X63312113Y-67310000D01*
X63202880Y-66760849D01*
X62891811Y-66295302D01*
X62509725Y-66040000D01*
X62891811Y-65784698D01*
X63202880Y-65319151D01*
X63312113Y-64770000D01*
X63202880Y-64220849D01*
X62891811Y-63755302D01*
X62487297Y-63485014D01*
X62704134Y-63382389D01*
X63080041Y-62967423D01*
X63240904Y-62579039D01*
X63118915Y-62357000D01*
X61976000Y-62357000D01*
X61976000Y-62377000D01*
X61722000Y-62377000D01*
X61722000Y-62357000D01*
X61702000Y-62357000D01*
X61702000Y-62103000D01*
X61722000Y-62103000D01*
X61722000Y-62083000D01*
X61976000Y-62083000D01*
X61976000Y-62103000D01*
X63118915Y-62103000D01*
X63240904Y-61880961D01*
X63080041Y-61492577D01*
X62704134Y-61077611D01*
X62487297Y-60974986D01*
X62891811Y-60704698D01*
X63202880Y-60239151D01*
X63312113Y-59690000D01*
X63202880Y-59140849D01*
X62891811Y-58675302D01*
X62509725Y-58420000D01*
X62891811Y-58164698D01*
X63202880Y-57699151D01*
X63312113Y-57150000D01*
X63202880Y-56600849D01*
X62891811Y-56135302D01*
X62509725Y-55880000D01*
X62891811Y-55624698D01*
X63202880Y-55159151D01*
X63312113Y-54610000D01*
X63202880Y-54060849D01*
X62891811Y-53595302D01*
X62509725Y-53340000D01*
X62891811Y-53084698D01*
X63202880Y-52619151D01*
X63312113Y-52070000D01*
X63202880Y-51520849D01*
X62891811Y-51055302D01*
X62509725Y-50800000D01*
X62891811Y-50544698D01*
X63202880Y-50079151D01*
X63312113Y-49530000D01*
X63202880Y-48980849D01*
X62891811Y-48515302D01*
X62509725Y-48260000D01*
X62891811Y-48004698D01*
X63202880Y-47539151D01*
X63312113Y-46990000D01*
X63202880Y-46440849D01*
X62891811Y-45975302D01*
X62509725Y-45720000D01*
X62891811Y-45464698D01*
X63202880Y-44999151D01*
X63312113Y-44450000D01*
X63277956Y-44278280D01*
X64890618Y-42665618D01*
X65083329Y-42377206D01*
X65151000Y-42037000D01*
X65151000Y-31496000D01*
X65083329Y-31155794D01*
X64890618Y-30867382D01*
X62858618Y-28835382D01*
X62747790Y-28761329D01*
X62570206Y-28642671D01*
X62230000Y-28575000D01*
X38608000Y-28575000D01*
X38267794Y-28642671D01*
X38090210Y-28761329D01*
X37979382Y-28835382D01*
X26803382Y-40011382D01*
X26610671Y-40299794D01*
X26543000Y-40640000D01*
X26543000Y-51308000D01*
X26610671Y-51648206D01*
X26707869Y-51793673D01*
X26803382Y-51936618D01*
X27258940Y-52392176D01*
X27258838Y-52509167D01*
X27400883Y-52852943D01*
X27663673Y-53116192D01*
X28007201Y-53258838D01*
X28379167Y-53259162D01*
X28722943Y-53117117D01*
X28986192Y-52854327D01*
X29128838Y-52510799D01*
X29128861Y-52484097D01*
X36963382Y-60318618D01*
X37251795Y-60511330D01*
X37592000Y-60579000D01*
X40779764Y-60579000D01*
X39509764Y-61849000D01*
X35052000Y-61849000D01*
X34711794Y-61916671D01*
X34423382Y-62109382D01*
X28835382Y-67697382D01*
X28642671Y-67985794D01*
X28575000Y-68326000D01*
X28575000Y-70866000D01*
X28599414Y-70988738D01*
X28610125Y-71113424D01*
X28632984Y-71157504D01*
X28642671Y-71206206D01*
X28712199Y-71310262D01*
X28769808Y-71421354D01*
X30459125Y-73533000D01*
X12827000Y-73533000D01*
X12827000Y-66404740D01*
X17928964Y-66404740D01*
X17953244Y-66510086D01*
X18244788Y-67035606D01*
X18715248Y-67409554D01*
X19293000Y-67575000D01*
X20193000Y-67575000D01*
X20193000Y-66167000D01*
X20447000Y-66167000D01*
X20447000Y-67575000D01*
X21347000Y-67575000D01*
X21924752Y-67409554D01*
X22395212Y-67035606D01*
X22686756Y-66510086D01*
X22711036Y-66404740D01*
X22590378Y-66167000D01*
X20447000Y-66167000D01*
X20193000Y-66167000D01*
X18049622Y-66167000D01*
X17928964Y-66404740D01*
X12827000Y-66404740D01*
X12827000Y-65675260D01*
X17928964Y-65675260D01*
X18049622Y-65913000D01*
X20193000Y-65913000D01*
X20193000Y-64505000D01*
X20447000Y-64505000D01*
X20447000Y-65913000D01*
X22590378Y-65913000D01*
X22711036Y-65675260D01*
X22686756Y-65569914D01*
X22395212Y-65044394D01*
X21924752Y-64670446D01*
X21347000Y-64505000D01*
X20447000Y-64505000D01*
X20193000Y-64505000D01*
X19293000Y-64505000D01*
X18715248Y-64670446D01*
X18244788Y-65044394D01*
X17953244Y-65569914D01*
X17928964Y-65675260D01*
X12827000Y-65675260D01*
X12827000Y-61324740D01*
X17928964Y-61324740D01*
X17953244Y-61430086D01*
X18244788Y-61955606D01*
X18715248Y-62329554D01*
X19293000Y-62495000D01*
X20193000Y-62495000D01*
X20193000Y-61087000D01*
X20447000Y-61087000D01*
X20447000Y-62495000D01*
X21347000Y-62495000D01*
X21924752Y-62329554D01*
X22395212Y-61955606D01*
X22686756Y-61430086D01*
X22711036Y-61324740D01*
X22590378Y-61087000D01*
X20447000Y-61087000D01*
X20193000Y-61087000D01*
X18049622Y-61087000D01*
X17928964Y-61324740D01*
X12827000Y-61324740D01*
X12827000Y-60595260D01*
X17928964Y-60595260D01*
X18049622Y-60833000D01*
X20193000Y-60833000D01*
X20193000Y-59425000D01*
X20447000Y-59425000D01*
X20447000Y-60833000D01*
X22590378Y-60833000D01*
X22711036Y-60595260D01*
X22686756Y-60489914D01*
X22395212Y-59964394D01*
X21924752Y-59590446D01*
X21347000Y-59425000D01*
X20447000Y-59425000D01*
X20193000Y-59425000D01*
X19293000Y-59425000D01*
X18715248Y-59590446D01*
X18244788Y-59964394D01*
X17953244Y-60489914D01*
X17928964Y-60595260D01*
X12827000Y-60595260D01*
X12827000Y-55880000D01*
X17837296Y-55880000D01*
X17954141Y-56467419D01*
X18286887Y-56965409D01*
X18784877Y-57298155D01*
X19372296Y-57415000D01*
X21267704Y-57415000D01*
X21855123Y-57298155D01*
X22353113Y-56965409D01*
X22685859Y-56467419D01*
X22802704Y-55880000D01*
X22685859Y-55292581D01*
X22353113Y-54794591D01*
X21855123Y-54461845D01*
X21267704Y-54345000D01*
X19372296Y-54345000D01*
X18784877Y-54461845D01*
X18286887Y-54794591D01*
X17954141Y-55292581D01*
X17837296Y-55880000D01*
X12827000Y-55880000D01*
X12827000Y-50800000D01*
X17837296Y-50800000D01*
X17954141Y-51387419D01*
X18286887Y-51885409D01*
X18784877Y-52218155D01*
X19372296Y-52335000D01*
X21267704Y-52335000D01*
X21855123Y-52218155D01*
X22353113Y-51885409D01*
X22685859Y-51387419D01*
X22802704Y-50800000D01*
X22685859Y-50212581D01*
X22353113Y-49714591D01*
X21855123Y-49381845D01*
X21267704Y-49265000D01*
X19372296Y-49265000D01*
X18784877Y-49381845D01*
X18286887Y-49714591D01*
X17954141Y-50212581D01*
X17837296Y-50800000D01*
X12827000Y-50800000D01*
X12827000Y-44820000D01*
X17872560Y-44820000D01*
X17872560Y-46620000D01*
X17916838Y-46855317D01*
X18055910Y-47071441D01*
X18268110Y-47216431D01*
X18520000Y-47267440D01*
X22120000Y-47267440D01*
X22355317Y-47223162D01*
X22571441Y-47084090D01*
X22716431Y-46871890D01*
X22767440Y-46620000D01*
X22767440Y-44820000D01*
X22723162Y-44584683D01*
X22584090Y-44368559D01*
X22371890Y-44223569D01*
X22120000Y-44172560D01*
X18520000Y-44172560D01*
X18284683Y-44216838D01*
X18068559Y-44355910D01*
X17923569Y-44568110D01*
X17872560Y-44820000D01*
X12827000Y-44820000D01*
X12827000Y-35100000D01*
X16317296Y-35100000D01*
X16441753Y-35725687D01*
X16796176Y-36256120D01*
X17326609Y-36610543D01*
X17952296Y-36735000D01*
X19647704Y-36735000D01*
X20273391Y-36610543D01*
X20803824Y-36256120D01*
X21158247Y-35725687D01*
X21282704Y-35100000D01*
X21158247Y-34474313D01*
X20803824Y-33943880D01*
X20273391Y-33589457D01*
X19647704Y-33465000D01*
X17952296Y-33465000D01*
X17326609Y-33589457D01*
X16796176Y-33943880D01*
X16441753Y-34474313D01*
X16317296Y-35100000D01*
X12827000Y-35100000D01*
X12827000Y-26600000D01*
X16352560Y-26600000D01*
X16352560Y-28600000D01*
X16396838Y-28835317D01*
X16535910Y-29051441D01*
X16748110Y-29196431D01*
X17000000Y-29247440D01*
X20600000Y-29247440D01*
X20835317Y-29203162D01*
X21051441Y-29064090D01*
X21196431Y-28851890D01*
X21247440Y-28600000D01*
X21247440Y-26600000D01*
X21203162Y-26364683D01*
X21064090Y-26148559D01*
X20851890Y-26003569D01*
X20600000Y-25952560D01*
X17000000Y-25952560D01*
X16764683Y-25996838D01*
X16548559Y-26135910D01*
X16403569Y-26348110D01*
X16352560Y-26600000D01*
X12827000Y-26600000D01*
X12827000Y-12827000D01*
X16810246Y-12827000D01*
X15221342Y-13483522D01*
G36*
X51181000Y-36690236D02*
X51181000Y-40386000D01*
X51248671Y-40726206D01*
X51406004Y-40961671D01*
X51441382Y-41014618D01*
X52584382Y-42157618D01*
X52872794Y-42350329D01*
X53213000Y-42418000D01*
X56725811Y-42418000D01*
X56836201Y-42463838D01*
X57208167Y-42464162D01*
X57319888Y-42418000D01*
X58178764Y-42418000D01*
X59055000Y-43294236D01*
X59055000Y-43515110D01*
X58742833Y-43514838D01*
X58399057Y-43656883D01*
X58135808Y-43919673D01*
X57993162Y-44263201D01*
X57992838Y-44635167D01*
X58039000Y-44746888D01*
X58039000Y-62369764D01*
X57785000Y-62623764D01*
X57785000Y-52367189D01*
X57830838Y-52256799D01*
X57831162Y-51884833D01*
X57689117Y-51541057D01*
X57426327Y-51277808D01*
X57082799Y-51135162D01*
X56710833Y-51134838D01*
X56367057Y-51276883D01*
X56103808Y-51539673D01*
X55961162Y-51883201D01*
X55960838Y-52255167D01*
X56007000Y-52366888D01*
X56007000Y-62623764D01*
X47129764Y-71501000D01*
X45834236Y-71501000D01*
X44183236Y-69850000D01*
X45145887Y-69850000D01*
X45255120Y-70399151D01*
X45566189Y-70864698D01*
X46031736Y-71175767D01*
X46580887Y-71285000D01*
X46637113Y-71285000D01*
X47186264Y-71175767D01*
X47651811Y-70864698D01*
X47962880Y-70399151D01*
X48072113Y-69850000D01*
X47962880Y-69300849D01*
X47651811Y-68835302D01*
X47247297Y-68565014D01*
X47464134Y-68462389D01*
X47840041Y-68047423D01*
X48000904Y-67659039D01*
X47878915Y-67437000D01*
X46736000Y-67437000D01*
X46736000Y-67457000D01*
X46482000Y-67457000D01*
X46482000Y-67437000D01*
X45339085Y-67437000D01*
X45217096Y-67659039D01*
X45377959Y-68047423D01*
X45753866Y-68462389D01*
X45970703Y-68565014D01*
X45566189Y-68835302D01*
X45255120Y-69300849D01*
X45145887Y-69850000D01*
X44183236Y-69850000D01*
X42284618Y-67951382D01*
X42262567Y-67936648D01*
X41996206Y-67758671D01*
X41656000Y-67691000D01*
X33401000Y-67691000D01*
X33060794Y-67758671D01*
X32772382Y-67951382D01*
X31585526Y-69138238D01*
X31475057Y-69183883D01*
X31211808Y-69446673D01*
X31115000Y-69679811D01*
X31115000Y-68933502D01*
X35405502Y-64643000D01*
X40386000Y-64643000D01*
X40726206Y-64575329D01*
X41014618Y-64382618D01*
X45239021Y-60158215D01*
X45255120Y-60239151D01*
X45566189Y-60704698D01*
X45948275Y-60960000D01*
X45566189Y-61215302D01*
X45255120Y-61680849D01*
X45145887Y-62230000D01*
X45255120Y-62779151D01*
X45566189Y-63244698D01*
X45948275Y-63500000D01*
X45566189Y-63755302D01*
X45255120Y-64220849D01*
X45145887Y-64770000D01*
X45255120Y-65319151D01*
X45566189Y-65784698D01*
X45970703Y-66054986D01*
X45753866Y-66157611D01*
X45377959Y-66572577D01*
X45217096Y-66960961D01*
X45339085Y-67183000D01*
X46482000Y-67183000D01*
X46482000Y-67163000D01*
X46736000Y-67163000D01*
X46736000Y-67183000D01*
X47878915Y-67183000D01*
X48000904Y-66960961D01*
X47840041Y-66572577D01*
X47464134Y-66157611D01*
X47247297Y-66054986D01*
X47651811Y-65784698D01*
X47962880Y-65319151D01*
X48072113Y-64770000D01*
X47962880Y-64220849D01*
X47651811Y-63755302D01*
X47269725Y-63500000D01*
X47651811Y-63244698D01*
X47962880Y-62779151D01*
X48072113Y-62230000D01*
X47962880Y-61680849D01*
X47651811Y-61215302D01*
X47269725Y-60960000D01*
X47651811Y-60704698D01*
X47962880Y-60239151D01*
X48072113Y-59690000D01*
X47962880Y-59140849D01*
X47651811Y-58675302D01*
X47269725Y-58420000D01*
X47651811Y-58164698D01*
X47962880Y-57699151D01*
X48072113Y-57150000D01*
X47962880Y-56600849D01*
X47651811Y-56135302D01*
X47269725Y-55880000D01*
X47651811Y-55624698D01*
X47962880Y-55159151D01*
X48072113Y-54610000D01*
X47962880Y-54060849D01*
X47651811Y-53595302D01*
X47269725Y-53340000D01*
X47651811Y-53084698D01*
X47962880Y-52619151D01*
X48072113Y-52070000D01*
X47962880Y-51520849D01*
X47651811Y-51055302D01*
X47269725Y-50800000D01*
X47651811Y-50544698D01*
X47962880Y-50079151D01*
X48072113Y-49530000D01*
X47962880Y-48980849D01*
X47651811Y-48515302D01*
X47269725Y-48260000D01*
X47651811Y-48004698D01*
X47962880Y-47539151D01*
X48072113Y-46990000D01*
X47962880Y-46440849D01*
X47651811Y-45975302D01*
X47269725Y-45720000D01*
X47651811Y-45464698D01*
X47962880Y-44999151D01*
X48072113Y-44450000D01*
X47962880Y-43900849D01*
X47651811Y-43435302D01*
X47269725Y-43180000D01*
X47651811Y-42924698D01*
X47962880Y-42459151D01*
X48072113Y-41910000D01*
X47962880Y-41360849D01*
X47651811Y-40895302D01*
X47269725Y-40640000D01*
X47651811Y-40384698D01*
X47962880Y-39919151D01*
X48072113Y-39370000D01*
X47962880Y-38820849D01*
X47651811Y-38355302D01*
X47269725Y-38100000D01*
X47651811Y-37844698D01*
X47962880Y-37379151D01*
X48072113Y-36830000D01*
X47962880Y-36280849D01*
X47651811Y-35815302D01*
X47269725Y-35560000D01*
X47651811Y-35304698D01*
X47962880Y-34839151D01*
X48072113Y-34290000D01*
X47962880Y-33740849D01*
X47735800Y-33401000D01*
X47891764Y-33401000D01*
X51181000Y-36690236D01*
X51181000Y-36690236D01*
G37*
X51181000Y-36690236D02*
X51181000Y-40386000D01*
X51248671Y-40726206D01*
X51406004Y-40961671D01*
X51441382Y-41014618D01*
X52584382Y-42157618D01*
X52872794Y-42350329D01*
X53213000Y-42418000D01*
X56725811Y-42418000D01*
X56836201Y-42463838D01*
X57208167Y-42464162D01*
X57319888Y-42418000D01*
X58178764Y-42418000D01*
X59055000Y-43294236D01*
X59055000Y-43515110D01*
X58742833Y-43514838D01*
X58399057Y-43656883D01*
X58135808Y-43919673D01*
X57993162Y-44263201D01*
X57992838Y-44635167D01*
X58039000Y-44746888D01*
X58039000Y-62369764D01*
X57785000Y-62623764D01*
X57785000Y-52367189D01*
X57830838Y-52256799D01*
X57831162Y-51884833D01*
X57689117Y-51541057D01*
X57426327Y-51277808D01*
X57082799Y-51135162D01*
X56710833Y-51134838D01*
X56367057Y-51276883D01*
X56103808Y-51539673D01*
X55961162Y-51883201D01*
X55960838Y-52255167D01*
X56007000Y-52366888D01*
X56007000Y-62623764D01*
X47129764Y-71501000D01*
X45834236Y-71501000D01*
X44183236Y-69850000D01*
X45145887Y-69850000D01*
X45255120Y-70399151D01*
X45566189Y-70864698D01*
X46031736Y-71175767D01*
X46580887Y-71285000D01*
X46637113Y-71285000D01*
X47186264Y-71175767D01*
X47651811Y-70864698D01*
X47962880Y-70399151D01*
X48072113Y-69850000D01*
X47962880Y-69300849D01*
X47651811Y-68835302D01*
X47247297Y-68565014D01*
X47464134Y-68462389D01*
X47840041Y-68047423D01*
X48000904Y-67659039D01*
X47878915Y-67437000D01*
X46736000Y-67437000D01*
X46736000Y-67457000D01*
X46482000Y-67457000D01*
X46482000Y-67437000D01*
X45339085Y-67437000D01*
X45217096Y-67659039D01*
X45377959Y-68047423D01*
X45753866Y-68462389D01*
X45970703Y-68565014D01*
X45566189Y-68835302D01*
X45255120Y-69300849D01*
X45145887Y-69850000D01*
X44183236Y-69850000D01*
X42284618Y-67951382D01*
X42262567Y-67936648D01*
X41996206Y-67758671D01*
X41656000Y-67691000D01*
X33401000Y-67691000D01*
X33060794Y-67758671D01*
X32772382Y-67951382D01*
X31585526Y-69138238D01*
X31475057Y-69183883D01*
X31211808Y-69446673D01*
X31115000Y-69679811D01*
X31115000Y-68933502D01*
X35405502Y-64643000D01*
X40386000Y-64643000D01*
X40726206Y-64575329D01*
X41014618Y-64382618D01*
X45239021Y-60158215D01*
X45255120Y-60239151D01*
X45566189Y-60704698D01*
X45948275Y-60960000D01*
X45566189Y-61215302D01*
X45255120Y-61680849D01*
X45145887Y-62230000D01*
X45255120Y-62779151D01*
X45566189Y-63244698D01*
X45948275Y-63500000D01*
X45566189Y-63755302D01*
X45255120Y-64220849D01*
X45145887Y-64770000D01*
X45255120Y-65319151D01*
X45566189Y-65784698D01*
X45970703Y-66054986D01*
X45753866Y-66157611D01*
X45377959Y-66572577D01*
X45217096Y-66960961D01*
X45339085Y-67183000D01*
X46482000Y-67183000D01*
X46482000Y-67163000D01*
X46736000Y-67163000D01*
X46736000Y-67183000D01*
X47878915Y-67183000D01*
X48000904Y-66960961D01*
X47840041Y-66572577D01*
X47464134Y-66157611D01*
X47247297Y-66054986D01*
X47651811Y-65784698D01*
X47962880Y-65319151D01*
X48072113Y-64770000D01*
X47962880Y-64220849D01*
X47651811Y-63755302D01*
X47269725Y-63500000D01*
X47651811Y-63244698D01*
X47962880Y-62779151D01*
X48072113Y-62230000D01*
X47962880Y-61680849D01*
X47651811Y-61215302D01*
X47269725Y-60960000D01*
X47651811Y-60704698D01*
X47962880Y-60239151D01*
X48072113Y-59690000D01*
X47962880Y-59140849D01*
X47651811Y-58675302D01*
X47269725Y-58420000D01*
X47651811Y-58164698D01*
X47962880Y-57699151D01*
X48072113Y-57150000D01*
X47962880Y-56600849D01*
X47651811Y-56135302D01*
X47269725Y-55880000D01*
X47651811Y-55624698D01*
X47962880Y-55159151D01*
X48072113Y-54610000D01*
X47962880Y-54060849D01*
X47651811Y-53595302D01*
X47269725Y-53340000D01*
X47651811Y-53084698D01*
X47962880Y-52619151D01*
X48072113Y-52070000D01*
X47962880Y-51520849D01*
X47651811Y-51055302D01*
X47269725Y-50800000D01*
X47651811Y-50544698D01*
X47962880Y-50079151D01*
X48072113Y-49530000D01*
X47962880Y-48980849D01*
X47651811Y-48515302D01*
X47269725Y-48260000D01*
X47651811Y-48004698D01*
X47962880Y-47539151D01*
X48072113Y-46990000D01*
X47962880Y-46440849D01*
X47651811Y-45975302D01*
X47269725Y-45720000D01*
X47651811Y-45464698D01*
X47962880Y-44999151D01*
X48072113Y-44450000D01*
X47962880Y-43900849D01*
X47651811Y-43435302D01*
X47269725Y-43180000D01*
X47651811Y-42924698D01*
X47962880Y-42459151D01*
X48072113Y-41910000D01*
X47962880Y-41360849D01*
X47651811Y-40895302D01*
X47269725Y-40640000D01*
X47651811Y-40384698D01*
X47962880Y-39919151D01*
X48072113Y-39370000D01*
X47962880Y-38820849D01*
X47651811Y-38355302D01*
X47269725Y-38100000D01*
X47651811Y-37844698D01*
X47962880Y-37379151D01*
X48072113Y-36830000D01*
X47962880Y-36280849D01*
X47651811Y-35815302D01*
X47269725Y-35560000D01*
X47651811Y-35304698D01*
X47962880Y-34839151D01*
X48072113Y-34290000D01*
X47962880Y-33740849D01*
X47735800Y-33401000D01*
X47891764Y-33401000D01*
X51181000Y-36690236D01*
G36*
X62664998Y-32426234D02*
X62664998Y-33123750D01*
X62426264Y-32964233D01*
X61877113Y-32855000D01*
X61820887Y-32855000D01*
X61271736Y-32964233D01*
X60806189Y-33275302D01*
X60722200Y-33401000D01*
X56642000Y-33401000D01*
X56301794Y-33468671D01*
X56056348Y-33632673D01*
X56013382Y-33661382D01*
X54743382Y-34931382D01*
X54550671Y-35219794D01*
X54483000Y-35560000D01*
X54483000Y-36786811D01*
X54437162Y-36897201D01*
X54436838Y-37269167D01*
X54578883Y-37612943D01*
X54841673Y-37876192D01*
X55185201Y-38018838D01*
X55557167Y-38019162D01*
X55900943Y-37877117D01*
X56164192Y-37614327D01*
X56306838Y-37270799D01*
X56307162Y-36898833D01*
X56261000Y-36787112D01*
X56261000Y-35928236D01*
X57010236Y-35179000D01*
X60722200Y-35179000D01*
X60806189Y-35304698D01*
X61188275Y-35560000D01*
X60806189Y-35815302D01*
X60495120Y-36280849D01*
X60385887Y-36830000D01*
X60495120Y-37379151D01*
X60806189Y-37844698D01*
X61188275Y-38100000D01*
X60806189Y-38355302D01*
X60495120Y-38820849D01*
X60385887Y-39370000D01*
X60495120Y-39919151D01*
X60806189Y-40384698D01*
X61188275Y-40640000D01*
X60806189Y-40895302D01*
X60495120Y-41360849D01*
X60385887Y-41910000D01*
X60435709Y-42160473D01*
X59175618Y-40900382D01*
X59096980Y-40847838D01*
X58887206Y-40707671D01*
X58547000Y-40640000D01*
X57320189Y-40640000D01*
X57209799Y-40594162D01*
X56837833Y-40593838D01*
X56726112Y-40640000D01*
X53581236Y-40640000D01*
X52959000Y-40017764D01*
X52959000Y-36322000D01*
X52958120Y-36317575D01*
X52891330Y-35981795D01*
X52698618Y-35693382D01*
X48888618Y-31883382D01*
X48879067Y-31877000D01*
X48600206Y-31690671D01*
X48260000Y-31623000D01*
X44704000Y-31623000D01*
X44363794Y-31690671D01*
X44084933Y-31877000D01*
X44075382Y-31883382D01*
X43059382Y-32899382D01*
X42866671Y-33187794D01*
X42799000Y-33528000D01*
X42799000Y-33865811D01*
X42753162Y-33976201D01*
X42752838Y-34348167D01*
X42894883Y-34691943D01*
X43157673Y-34955192D01*
X43501201Y-35097838D01*
X43873167Y-35098162D01*
X44216943Y-34956117D01*
X44480192Y-34693327D01*
X44622838Y-34349799D01*
X44623162Y-33977833D01*
X44585808Y-33887428D01*
X45072236Y-33401000D01*
X45482200Y-33401000D01*
X45255120Y-33740849D01*
X45145887Y-34290000D01*
X45255120Y-34839151D01*
X45566189Y-35304698D01*
X45948275Y-35560000D01*
X45566189Y-35815302D01*
X45255120Y-36280849D01*
X45145887Y-36830000D01*
X45255120Y-37379151D01*
X45566189Y-37844698D01*
X45948275Y-38100000D01*
X45566189Y-38355302D01*
X45255120Y-38820849D01*
X45145887Y-39370000D01*
X45255120Y-39919151D01*
X45566189Y-40384698D01*
X45948275Y-40640000D01*
X45566189Y-40895302D01*
X45255120Y-41360849D01*
X45145887Y-41910000D01*
X45255120Y-42459151D01*
X45566189Y-42924698D01*
X45948275Y-43180000D01*
X45566189Y-43435302D01*
X45255120Y-43900849D01*
X45145887Y-44450000D01*
X45255120Y-44999151D01*
X45566189Y-45464698D01*
X45948275Y-45720000D01*
X45566189Y-45975302D01*
X45255120Y-46440849D01*
X45145887Y-46990000D01*
X45255120Y-47539151D01*
X45566189Y-48004698D01*
X45948275Y-48260000D01*
X45566189Y-48515302D01*
X45255120Y-48980849D01*
X45145887Y-49530000D01*
X45255120Y-50079151D01*
X45566189Y-50544698D01*
X45948275Y-50800000D01*
X45566189Y-51055302D01*
X45255120Y-51520849D01*
X45145887Y-52070000D01*
X45180044Y-52241720D01*
X43059382Y-54362382D01*
X42866671Y-54650794D01*
X42799000Y-54991000D01*
X42799000Y-56295802D01*
X42604799Y-56215162D01*
X42232833Y-56214838D01*
X42121112Y-56261000D01*
X37452236Y-56261000D01*
X31115000Y-49923764D01*
X31115000Y-46906189D01*
X31160838Y-46795799D01*
X31161162Y-46423833D01*
X31019117Y-46080057D01*
X30756327Y-45816808D01*
X30483653Y-45703583D01*
X30848236Y-45339000D01*
X34671000Y-45339000D01*
X34671000Y-45676811D01*
X34625162Y-45787201D01*
X34624838Y-46159167D01*
X34766883Y-46502943D01*
X35029673Y-46766192D01*
X35373201Y-46908838D01*
X35745167Y-46909162D01*
X36021977Y-46794787D01*
X35141526Y-47675238D01*
X35031057Y-47720883D01*
X34767808Y-47983673D01*
X34625162Y-48327201D01*
X34624838Y-48699167D01*
X34766883Y-49042943D01*
X35029673Y-49306192D01*
X35373201Y-49448838D01*
X35745167Y-49449162D01*
X36088943Y-49307117D01*
X36352192Y-49044327D01*
X36398549Y-48932687D01*
X37712618Y-47618618D01*
X37905329Y-47330206D01*
X37973000Y-46990000D01*
X37973000Y-36944236D01*
X43802236Y-31115000D01*
X61353764Y-31115000D01*
X62664998Y-32426234D01*
X62664998Y-32426234D01*
G37*
X62664998Y-32426234D02*
X62664998Y-33123750D01*
X62426264Y-32964233D01*
X61877113Y-32855000D01*
X61820887Y-32855000D01*
X61271736Y-32964233D01*
X60806189Y-33275302D01*
X60722200Y-33401000D01*
X56642000Y-33401000D01*
X56301794Y-33468671D01*
X56056348Y-33632673D01*
X56013382Y-33661382D01*
X54743382Y-34931382D01*
X54550671Y-35219794D01*
X54483000Y-35560000D01*
X54483000Y-36786811D01*
X54437162Y-36897201D01*
X54436838Y-37269167D01*
X54578883Y-37612943D01*
X54841673Y-37876192D01*
X55185201Y-38018838D01*
X55557167Y-38019162D01*
X55900943Y-37877117D01*
X56164192Y-37614327D01*
X56306838Y-37270799D01*
X56307162Y-36898833D01*
X56261000Y-36787112D01*
X56261000Y-35928236D01*
X57010236Y-35179000D01*
X60722200Y-35179000D01*
X60806189Y-35304698D01*
X61188275Y-35560000D01*
X60806189Y-35815302D01*
X60495120Y-36280849D01*
X60385887Y-36830000D01*
X60495120Y-37379151D01*
X60806189Y-37844698D01*
X61188275Y-38100000D01*
X60806189Y-38355302D01*
X60495120Y-38820849D01*
X60385887Y-39370000D01*
X60495120Y-39919151D01*
X60806189Y-40384698D01*
X61188275Y-40640000D01*
X60806189Y-40895302D01*
X60495120Y-41360849D01*
X60385887Y-41910000D01*
X60435709Y-42160473D01*
X59175618Y-40900382D01*
X59096980Y-40847838D01*
X58887206Y-40707671D01*
X58547000Y-40640000D01*
X57320189Y-40640000D01*
X57209799Y-40594162D01*
X56837833Y-40593838D01*
X56726112Y-40640000D01*
X53581236Y-40640000D01*
X52959000Y-40017764D01*
X52959000Y-36322000D01*
X52958120Y-36317575D01*
X52891330Y-35981795D01*
X52698618Y-35693382D01*
X48888618Y-31883382D01*
X48879067Y-31877000D01*
X48600206Y-31690671D01*
X48260000Y-31623000D01*
X44704000Y-31623000D01*
X44363794Y-31690671D01*
X44084933Y-31877000D01*
X44075382Y-31883382D01*
X43059382Y-32899382D01*
X42866671Y-33187794D01*
X42799000Y-33528000D01*
X42799000Y-33865811D01*
X42753162Y-33976201D01*
X42752838Y-34348167D01*
X42894883Y-34691943D01*
X43157673Y-34955192D01*
X43501201Y-35097838D01*
X43873167Y-35098162D01*
X44216943Y-34956117D01*
X44480192Y-34693327D01*
X44622838Y-34349799D01*
X44623162Y-33977833D01*
X44585808Y-33887428D01*
X45072236Y-33401000D01*
X45482200Y-33401000D01*
X45255120Y-33740849D01*
X45145887Y-34290000D01*
X45255120Y-34839151D01*
X45566189Y-35304698D01*
X45948275Y-35560000D01*
X45566189Y-35815302D01*
X45255120Y-36280849D01*
X45145887Y-36830000D01*
X45255120Y-37379151D01*
X45566189Y-37844698D01*
X45948275Y-38100000D01*
X45566189Y-38355302D01*
X45255120Y-38820849D01*
X45145887Y-39370000D01*
X45255120Y-39919151D01*
X45566189Y-40384698D01*
X45948275Y-40640000D01*
X45566189Y-40895302D01*
X45255120Y-41360849D01*
X45145887Y-41910000D01*
X45255120Y-42459151D01*
X45566189Y-42924698D01*
X45948275Y-43180000D01*
X45566189Y-43435302D01*
X45255120Y-43900849D01*
X45145887Y-44450000D01*
X45255120Y-44999151D01*
X45566189Y-45464698D01*
X45948275Y-45720000D01*
X45566189Y-45975302D01*
X45255120Y-46440849D01*
X45145887Y-46990000D01*
X45255120Y-47539151D01*
X45566189Y-48004698D01*
X45948275Y-48260000D01*
X45566189Y-48515302D01*
X45255120Y-48980849D01*
X45145887Y-49530000D01*
X45255120Y-50079151D01*
X45566189Y-50544698D01*
X45948275Y-50800000D01*
X45566189Y-51055302D01*
X45255120Y-51520849D01*
X45145887Y-52070000D01*
X45180044Y-52241720D01*
X43059382Y-54362382D01*
X42866671Y-54650794D01*
X42799000Y-54991000D01*
X42799000Y-56295802D01*
X42604799Y-56215162D01*
X42232833Y-56214838D01*
X42121112Y-56261000D01*
X37452236Y-56261000D01*
X31115000Y-49923764D01*
X31115000Y-46906189D01*
X31160838Y-46795799D01*
X31161162Y-46423833D01*
X31019117Y-46080057D01*
X30756327Y-45816808D01*
X30483653Y-45703583D01*
X30848236Y-45339000D01*
X34671000Y-45339000D01*
X34671000Y-45676811D01*
X34625162Y-45787201D01*
X34624838Y-46159167D01*
X34766883Y-46502943D01*
X35029673Y-46766192D01*
X35373201Y-46908838D01*
X35745167Y-46909162D01*
X36021977Y-46794787D01*
X35141526Y-47675238D01*
X35031057Y-47720883D01*
X34767808Y-47983673D01*
X34625162Y-48327201D01*
X34624838Y-48699167D01*
X34766883Y-49042943D01*
X35029673Y-49306192D01*
X35373201Y-49448838D01*
X35745167Y-49449162D01*
X36088943Y-49307117D01*
X36352192Y-49044327D01*
X36398549Y-48932687D01*
X37712618Y-47618618D01*
X37905329Y-47330206D01*
X37973000Y-46990000D01*
X37973000Y-36944236D01*
X43802236Y-31115000D01*
X61353764Y-31115000D01*
X62664998Y-32426234D01*
M02*
