M48
;DRILL file {KiCad 4.0.6} date 10/26/17 18:11:50
;FORMAT={-:-/ absolute / inch / decimal}
FMAT,2
INCH,TZ
T1C0.012
T2C0.016
T3C0.031
T4C0.039
T5C0.040
T6C0.045
T7C0.055
T8C0.079
T9C0.138
%
G90
G05
M72
T1
X3.3972Y-3.1167
X3.3972Y-3.1757
X3.3972Y-3.2348
X3.4366Y-3.1167
X3.4366Y-3.1757
X3.4366Y-3.2348
X3.4571Y-1.7077
X3.4571Y-1.7668
X3.4571Y-1.8258
X3.476Y-3.1167
X3.476Y-3.1757
X3.476Y-3.2348
X3.4965Y-1.7077
X3.4965Y-1.7668
X3.4965Y-1.8258
X3.5154Y-3.1167
X3.5154Y-3.1757
X3.5154Y-3.2348
X3.5359Y-1.7077
X3.5359Y-1.7668
X3.5359Y-1.8258
X3.5753Y-1.7077
X3.5753Y-1.7668
X3.5753Y-1.8258
X5.9596Y-1.7902
X5.9596Y-1.8493
X5.9596Y-1.9083
X5.999Y-1.7902
X5.999Y-1.8493
X5.999Y-1.9083
X6.0384Y-1.7902
X6.0384Y-1.8493
X6.0384Y-1.9083
X6.0722Y-3.1717
X6.0722Y-3.2307
X6.0722Y-3.2898
X6.0778Y-1.7902
X6.0778Y-1.8493
X6.0778Y-1.9083
X6.1116Y-3.1717
X6.1116Y-3.2307
X6.1116Y-3.2898
X6.151Y-3.1717
X6.151Y-3.2307
X6.151Y-3.2898
X6.1904Y-3.1717
X6.1904Y-3.2307
X6.1904Y-3.2898
T2
X1.17Y-0.8
X1.189Y-1.268
X1.49Y-3.965
X1.51Y-3.04
X1.58Y-3.07
X1.68Y-2.72
X1.99Y-3.2
X1.99Y-3.32
X2.03Y-2.71
X2.148Y-1.834
X2.31Y-1.483
X2.36Y-3.79
X2.578Y-1.096
X3.16Y-3.84
X3.18Y-2.43
X3.28Y-3.8
X3.3Y-2.435
X3.36Y-2.425
X3.442Y-3.494
X3.815Y-2.79
X3.99Y-1.965
X4.04Y-2.84
X4.165Y-1.965
X4.224Y-1.146
X4.224Y-1.459
X4.249Y-3.364
X4.249Y-3.665
X4.26Y-1.345
X4.268Y-1.462
X4.289Y-3.666
X4.29Y-3.316
X5.224Y-1.508
X5.26Y-1.795
X5.263Y-3.362
X5.272Y-3.671
X5.327Y-1.221
X5.785Y-1.62
X6.094Y-1.03
X6.17Y-1.155
X6.17Y-2.785
X6.23Y-2.56
X6.31Y-1.155
X6.445Y-2.625
T3
X1.44Y-3.18
X1.44Y-3.48
X1.54Y-3.18
X1.54Y-3.48
X1.64Y-3.18
X1.64Y-3.48
X1.74Y-3.18
X1.74Y-3.48
T4
X1.09Y-1.17
X1.09Y-1.27
X1.28Y-1.05
X1.38Y-1.05
T5
X1.85Y-1.1
X1.85Y-1.2
X1.85Y-1.3
X1.85Y-1.4
X1.85Y-1.5
X1.85Y-1.6
X1.85Y-1.7
X1.85Y-1.8
X1.85Y-1.9
X1.85Y-2.
X1.85Y-2.1
X1.85Y-2.2
X1.85Y-2.3
X1.85Y-2.4
X1.85Y-2.5
X2.45Y-1.1
X2.45Y-1.2
X2.45Y-1.3
X2.45Y-1.4
X2.45Y-1.5
X2.45Y-1.6
X2.45Y-1.7
X2.45Y-1.8
X2.45Y-1.9
X2.45Y-2.
X2.45Y-2.1
X2.45Y-2.2
X2.45Y-2.3
X2.45Y-2.4
X2.45Y-2.5
T6
X2.71Y-0.76
X2.77Y-3.7
X2.77Y-3.9
X2.77Y-4.09
X2.77Y-4.2
X2.91Y-0.76
X3.1Y-0.76
X3.21Y-0.76
T7
X0.7402Y-1.0866
X0.7402Y-1.3819
X0.7402Y-1.7992
X0.7402Y-2.0945
X0.7402Y-2.3898
X0.7402Y-2.685
X0.7402Y-2.9803
X1.5748Y-4.1417
X1.6024Y-0.7362
X1.8701Y-4.1417
X1.8976Y-0.7362
X2.1654Y-4.1417
X3.42Y-3.96
X3.7153Y-3.96
X4.48Y-1.2847
X4.48Y-1.58
X4.535Y-3.4947
X4.535Y-3.79
T8
X4.3571Y-2.52
X4.5835Y-2.1361
X4.5835Y-2.9039
X5.2429Y-2.52
T9
X0.7047Y-0.689
X0.7402Y-4.1142
X6.5118Y-4.1654
X6.5433Y-0.6772
T0
M30
