G04 #@! TF.FileFunction,Soldermask,Bot*
%FSLAX46Y46*%
G04 Gerber Fmt 4.6, Leading zero omitted, Abs format (unit mm)*
G04 Created by KiCad (PCBNEW 4.0.7) date 04/26/18 12:10:46*
%MOMM*%
%LPD*%
G01*
G04 APERTURE LIST*
%ADD10C,0.100000*%
%ADD11R,2.000000X2.000000*%
%ADD12O,2.000000X2.000000*%
%ADD13R,3.400000X3.400000*%
%ADD14C,0.900000*%
%ADD15R,4.000000X2.200000*%
%ADD16O,4.000000X2.200000*%
%ADD17R,2.200000X4.000000*%
%ADD18O,2.200000X4.000000*%
%ADD19R,2.400000X4.000000*%
%ADD20O,2.400000X4.000000*%
%ADD21R,4.000000X2.400000*%
%ADD22O,4.000000X2.400000*%
%ADD23C,2.900000*%
%ADD24C,1.800000*%
%ADD25O,1.800000X1.800000*%
%ADD26C,8.600000*%
%ADD27C,1.924000*%
G04 APERTURE END LIST*
D10*
D11*
X38608000Y-82677000D03*
D12*
X30988000Y-90297000D03*
X36068000Y-82677000D03*
X33528000Y-90297000D03*
X33528000Y-82677000D03*
X36068000Y-90297000D03*
X30988000Y-82677000D03*
X38608000Y-90297000D03*
D13*
X158115000Y-47498000D03*
D14*
X156972000Y-46355000D03*
X159258000Y-46355000D03*
X159258000Y-48641000D03*
X156972000Y-48641000D03*
X156972000Y-47498000D03*
X157734000Y-48641000D03*
X157734000Y-47498000D03*
X157734000Y-46355000D03*
X158496000Y-46355000D03*
X158496000Y-47498000D03*
X158496000Y-48641000D03*
X159258000Y-47498000D03*
D13*
X97439500Y-35604500D03*
D14*
X98582500Y-36747500D03*
X96296500Y-36747500D03*
X96296500Y-34461500D03*
X98582500Y-34461500D03*
X98582500Y-35604500D03*
X97820500Y-34461500D03*
X97820500Y-35604500D03*
X97820500Y-36747500D03*
X97058500Y-36747500D03*
X97058500Y-35604500D03*
X97058500Y-34461500D03*
X96296500Y-35604500D03*
D13*
X159799000Y-82061000D03*
D14*
X158656000Y-80918000D03*
X160942000Y-80918000D03*
X160942000Y-83204000D03*
X158656000Y-83204000D03*
X158656000Y-82061000D03*
X159418000Y-83204000D03*
X159418000Y-82061000D03*
X159418000Y-80918000D03*
X160180000Y-80918000D03*
X160180000Y-82061000D03*
X160180000Y-83204000D03*
X160942000Y-82061000D03*
D13*
X94394000Y-80537000D03*
D14*
X95537000Y-81680000D03*
X93251000Y-81680000D03*
X93251000Y-79394000D03*
X95537000Y-79394000D03*
X95537000Y-80537000D03*
X94775000Y-79394000D03*
X94775000Y-80537000D03*
X94775000Y-81680000D03*
X94013000Y-81680000D03*
X94013000Y-80537000D03*
X94013000Y-79394000D03*
X93251000Y-80537000D03*
D15*
X20320000Y-45720000D03*
D16*
X20320000Y-50800000D03*
X20320000Y-55880000D03*
X20320000Y-60960000D03*
X20320000Y-66040000D03*
D17*
X34798000Y-106807000D03*
D18*
X39878000Y-106807000D03*
X44958000Y-106807000D03*
D19*
X86842600Y-102920800D03*
D20*
X94342600Y-102920800D03*
D21*
X126746000Y-40640000D03*
D22*
X126746000Y-33140000D03*
D21*
X18800000Y-27600000D03*
D22*
X18800000Y-35100000D03*
D19*
X41402000Y-18034000D03*
D20*
X33902000Y-18034000D03*
D21*
X129921000Y-94615000D03*
D22*
X129921000Y-87115000D03*
D23*
X138631000Y-64008000D03*
X116131000Y-64008000D03*
X121881000Y-73758000D03*
X121881000Y-54258000D03*
D24*
X109728000Y-103124000D03*
D25*
X104648000Y-103124000D03*
D26*
X165400000Y-105800000D03*
X17900000Y-17500000D03*
X166471600Y-17399000D03*
X18800000Y-104500000D03*
D19*
X78359000Y-83439000D03*
D20*
X70859000Y-83439000D03*
D19*
X70739000Y-94234000D03*
D20*
X78239000Y-94234000D03*
D11*
X78486000Y-44323000D03*
D12*
X70866000Y-31623000D03*
X78486000Y-41783000D03*
X70866000Y-34163000D03*
X78486000Y-39243000D03*
X70866000Y-36703000D03*
X78486000Y-36703000D03*
X70866000Y-39243000D03*
X78486000Y-34163000D03*
X70866000Y-41783000D03*
X78486000Y-31623000D03*
X70866000Y-44323000D03*
D27*
X92329000Y-17653000D03*
X89535000Y-17653000D03*
X84709000Y-17653000D03*
X79629000Y-17653000D03*
D11*
X61849000Y-69850000D03*
D12*
X46609000Y-36830000D03*
X61849000Y-67310000D03*
X46609000Y-39370000D03*
X61849000Y-64770000D03*
X46609000Y-41910000D03*
X61849000Y-62230000D03*
X46609000Y-44450000D03*
X61849000Y-59690000D03*
X46609000Y-46990000D03*
X61849000Y-57150000D03*
X46609000Y-49530000D03*
X61849000Y-54610000D03*
X46609000Y-52070000D03*
X61849000Y-52070000D03*
X46609000Y-54610000D03*
X61849000Y-49530000D03*
X46609000Y-57150000D03*
X61849000Y-46990000D03*
X46609000Y-59690000D03*
X61849000Y-44450000D03*
X46609000Y-62230000D03*
X61849000Y-41910000D03*
X46609000Y-64770000D03*
X61849000Y-39370000D03*
X46609000Y-67310000D03*
X61849000Y-36830000D03*
X46609000Y-69850000D03*
X61849000Y-34290000D03*
X46609000Y-34290000D03*
D27*
X60071000Y-106807000D03*
X60071000Y-104013000D03*
X60071000Y-99187000D03*
X60071000Y-94107000D03*
M02*
