G04 #@! TF.FileFunction,Soldermask,Bot*
%FSLAX46Y46*%
G04 Gerber Fmt 4.6, Leading zero omitted, Abs format (unit mm)*
G04 Created by KiCad (PCBNEW 4.0.6) date 10/26/17 18:12:15*
%MOMM*%
%LPD*%
G01*
G04 APERTURE LIST*
%ADD10C,0.100000*%
%ADD11C,2.900000*%
%ADD12R,1.924000X1.924000*%
%ADD13C,1.924000*%
%ADD14R,2.400000X4.000000*%
%ADD15O,2.400000X4.000000*%
%ADD16R,4.000000X2.400000*%
%ADD17O,4.000000X2.400000*%
%ADD18C,1.100000*%
%ADD19R,4.700000X4.700000*%
%ADD20R,2.000000X2.000000*%
%ADD21O,2.000000X2.000000*%
%ADD22C,8.600000*%
%ADD23R,2.100000X2.100000*%
%ADD24O,2.100000X2.100000*%
G04 APERTURE END LIST*
D10*
D11*
X133170000Y-64008000D03*
X110670000Y-64008000D03*
X116420000Y-73758000D03*
X116420000Y-54258000D03*
D12*
X62230000Y-63500000D03*
D13*
X62230000Y-60960000D03*
X62230000Y-58420000D03*
X62230000Y-55880000D03*
X62230000Y-53340000D03*
X62230000Y-50800000D03*
X62230000Y-48260000D03*
X62230000Y-45720000D03*
X62230000Y-43180000D03*
X62230000Y-40640000D03*
X62230000Y-38100000D03*
X62230000Y-35560000D03*
X62230000Y-33020000D03*
X62230000Y-30480000D03*
X62230000Y-27940000D03*
X46990000Y-27940000D03*
X46990000Y-30480000D03*
X46990000Y-33020000D03*
X46990000Y-35560000D03*
X46990000Y-38100000D03*
X46990000Y-40640000D03*
X46990000Y-43180000D03*
X46990000Y-45720000D03*
X46990000Y-48260000D03*
X46990000Y-50800000D03*
X46990000Y-53340000D03*
X46990000Y-55880000D03*
X46990000Y-58420000D03*
X46990000Y-60960000D03*
X46990000Y-63500000D03*
D14*
X86868000Y-100584000D03*
D15*
X94368000Y-100584000D03*
D16*
X18800000Y-27600000D03*
D17*
X18800000Y-35100000D03*
D13*
X81534000Y-19304000D03*
X78740000Y-19304000D03*
X73914000Y-19304000D03*
X68834000Y-19304000D03*
D18*
X151375000Y-48471000D03*
X151375000Y-46971000D03*
X151375000Y-45471000D03*
X152375000Y-48471000D03*
X152375000Y-46971000D03*
X152375000Y-45471000D03*
X153375000Y-48471000D03*
X153375000Y-46971000D03*
X153375000Y-45471000D03*
X154375000Y-48471000D03*
X154375000Y-46971000D03*
X154375000Y-45471000D03*
D19*
X152875000Y-46971000D03*
D18*
X90811500Y-43375500D03*
X90811500Y-44875500D03*
X90811500Y-46375500D03*
X89811500Y-43375500D03*
X89811500Y-44875500D03*
X89811500Y-46375500D03*
X88811500Y-43375500D03*
X88811500Y-44875500D03*
X88811500Y-46375500D03*
X87811500Y-43375500D03*
X87811500Y-44875500D03*
X87811500Y-46375500D03*
D19*
X89311500Y-44875500D03*
D18*
X154235000Y-83561000D03*
X154235000Y-82061000D03*
X154235000Y-80561000D03*
X155235000Y-83561000D03*
X155235000Y-82061000D03*
X155235000Y-80561000D03*
X156235000Y-83561000D03*
X156235000Y-82061000D03*
X156235000Y-80561000D03*
X157235000Y-83561000D03*
X157235000Y-82061000D03*
X157235000Y-80561000D03*
D19*
X155735000Y-82061000D03*
D13*
X70358000Y-106680000D03*
X70358000Y-103886000D03*
X70358000Y-99060000D03*
X70358000Y-93980000D03*
D20*
X44196000Y-80772000D03*
D21*
X36576000Y-88392000D03*
X41656000Y-80772000D03*
X39116000Y-88392000D03*
X39116000Y-80772000D03*
X41656000Y-88392000D03*
X36576000Y-80772000D03*
X44196000Y-88392000D03*
D18*
X89290000Y-79164000D03*
X89290000Y-80664000D03*
X89290000Y-82164000D03*
X88290000Y-79164000D03*
X88290000Y-80664000D03*
X88290000Y-82164000D03*
X87290000Y-79164000D03*
X87290000Y-80664000D03*
X87290000Y-82164000D03*
X86290000Y-79164000D03*
X86290000Y-80664000D03*
X86290000Y-82164000D03*
D19*
X87790000Y-80664000D03*
D22*
X165400000Y-105800000D03*
X17900000Y-17500000D03*
D16*
X113792000Y-40132000D03*
D17*
X113792000Y-32632000D03*
D22*
X166200000Y-17200000D03*
X18800000Y-104500000D03*
D16*
X18800000Y-45700000D03*
D17*
X18800000Y-53200000D03*
X18800000Y-60700000D03*
X18800000Y-68200000D03*
X18800000Y-75700000D03*
D14*
X48200000Y-18700000D03*
D15*
X40700000Y-18700000D03*
D23*
X27686000Y-32258000D03*
D24*
X27686000Y-29718000D03*
D16*
X115189000Y-96266000D03*
D17*
X115189000Y-88766000D03*
D14*
X40000000Y-105200000D03*
D15*
X47500000Y-105200000D03*
X55000000Y-105200000D03*
D23*
X32512000Y-26670000D03*
D24*
X35052000Y-26670000D03*
M02*
