G04 #@! TF.FileFunction,Legend,Bot*
%FSLAX46Y46*%
G04 Gerber Fmt 4.6, Leading zero omitted, Abs format (unit mm)*
G04 Created by KiCad (PCBNEW 4.0.7) date 04/26/18 12:10:45*
%MOMM*%
%LPD*%
G01*
G04 APERTURE LIST*
%ADD10C,0.100000*%
%ADD11C,0.300000*%
G04 APERTURE END LIST*
D10*
D11*
X136240762Y-63590714D02*
X136845524Y-64195476D01*
X138659809Y-64800238D01*
X139869333Y-64800238D01*
X141683619Y-64195476D01*
X142893143Y-62985952D01*
X143497904Y-61776429D01*
X144102666Y-59357381D01*
X144102666Y-57543095D01*
X143497904Y-55124048D01*
X142893143Y-53914524D01*
X141683619Y-52705000D01*
X139869333Y-52100238D01*
X138659809Y-52100238D01*
X136845524Y-52705000D01*
X136240762Y-53309762D01*
X132007428Y-52100238D02*
X128983619Y-64800238D01*
X126564571Y-55728810D01*
X124145524Y-64800238D01*
X121121714Y-52100238D01*
X109026476Y-64800238D02*
X113259809Y-58752619D01*
X116283618Y-64800238D02*
X116283618Y-52100238D01*
X111445523Y-52100238D01*
X110235999Y-52705000D01*
X109631238Y-53309762D01*
X109026476Y-54519286D01*
X109026476Y-56333571D01*
X109631238Y-57543095D01*
X110235999Y-58147857D01*
X111445523Y-58752619D01*
X116283618Y-58752619D01*
X103583618Y-52100238D02*
X103583618Y-62381190D01*
X102978857Y-63590714D01*
X102374095Y-64195476D01*
X101164571Y-64800238D01*
X98745523Y-64800238D01*
X97535999Y-64195476D01*
X96931238Y-63590714D01*
X96326476Y-62381190D01*
X96326476Y-52100238D01*
X80602666Y-58147857D02*
X76369333Y-58147857D01*
X74555047Y-64800238D02*
X80602666Y-64800238D01*
X80602666Y-52100238D01*
X74555047Y-52100238D01*
X69112190Y-58147857D02*
X64878857Y-58147857D01*
X63064571Y-64800238D02*
X69112190Y-64800238D01*
X69112190Y-52100238D01*
X63064571Y-52100238D01*
X50364572Y-63590714D02*
X50969334Y-64195476D01*
X52783619Y-64800238D01*
X53993143Y-64800238D01*
X55807429Y-64195476D01*
X57016953Y-62985952D01*
X57621714Y-61776429D01*
X58226476Y-59357381D01*
X58226476Y-57543095D01*
X57621714Y-55124048D01*
X57016953Y-53914524D01*
X55807429Y-52705000D01*
X53993143Y-52100238D01*
X52783619Y-52100238D01*
X50969334Y-52705000D01*
X50364572Y-53309762D01*
X45526476Y-64195476D02*
X43712191Y-64800238D01*
X40688381Y-64800238D01*
X39478857Y-64195476D01*
X38874095Y-63590714D01*
X38269334Y-62381190D01*
X38269334Y-61171667D01*
X38874095Y-59962143D01*
X39478857Y-59357381D01*
X40688381Y-58752619D01*
X43107429Y-58147857D01*
X44316953Y-57543095D01*
X44921714Y-56938333D01*
X45526476Y-55728810D01*
X45526476Y-54519286D01*
X44921714Y-53309762D01*
X44316953Y-52705000D01*
X43107429Y-52100238D01*
X40083619Y-52100238D01*
X38269334Y-52705000D01*
M02*
