G04 #@! TF.FileFunction,Copper,L2,Bot,Plane*
%FSLAX46Y46*%
G04 Gerber Fmt 4.6, Leading zero omitted, Abs format (unit mm)*
G04 Created by KiCad (PCBNEW 4.0.6) date 10/26/17 18:12:14*
%MOMM*%
%LPD*%
G01*
G04 APERTURE LIST*
%ADD10C,0.100000*%
%ADD11C,2.500000*%
%ADD12R,1.524000X1.524000*%
%ADD13C,1.524000*%
%ADD14R,2.000000X3.600000*%
%ADD15O,2.000000X3.600000*%
%ADD16R,3.600000X2.000000*%
%ADD17O,3.600000X2.000000*%
%ADD18C,0.700000*%
%ADD19R,4.300000X4.300000*%
%ADD20R,1.600000X1.600000*%
%ADD21O,1.600000X1.600000*%
%ADD22C,8.200000*%
%ADD23R,1.700000X1.700000*%
%ADD24O,1.700000X1.700000*%
%ADD25C,0.600000*%
%ADD26C,0.508000*%
%ADD27C,0.440000*%
%ADD28C,0.254000*%
G04 APERTURE END LIST*
D10*
D11*
X133170000Y-64008000D03*
X110670000Y-64008000D03*
X116420000Y-73758000D03*
X116420000Y-54258000D03*
D12*
X62230000Y-63500000D03*
D13*
X62230000Y-60960000D03*
X62230000Y-58420000D03*
X62230000Y-55880000D03*
X62230000Y-53340000D03*
X62230000Y-50800000D03*
X62230000Y-48260000D03*
X62230000Y-45720000D03*
X62230000Y-43180000D03*
X62230000Y-40640000D03*
X62230000Y-38100000D03*
X62230000Y-35560000D03*
X62230000Y-33020000D03*
X62230000Y-30480000D03*
X62230000Y-27940000D03*
X46990000Y-27940000D03*
X46990000Y-30480000D03*
X46990000Y-33020000D03*
X46990000Y-35560000D03*
X46990000Y-38100000D03*
X46990000Y-40640000D03*
X46990000Y-43180000D03*
X46990000Y-45720000D03*
X46990000Y-48260000D03*
X46990000Y-50800000D03*
X46990000Y-53340000D03*
X46990000Y-55880000D03*
X46990000Y-58420000D03*
X46990000Y-60960000D03*
X46990000Y-63500000D03*
D14*
X86868000Y-100584000D03*
D15*
X94368000Y-100584000D03*
D16*
X18800000Y-27600000D03*
D17*
X18800000Y-35100000D03*
D13*
X81534000Y-19304000D03*
X78740000Y-19304000D03*
X73914000Y-19304000D03*
X68834000Y-19304000D03*
D18*
X151375000Y-48471000D03*
X151375000Y-46971000D03*
X151375000Y-45471000D03*
X152375000Y-48471000D03*
X152375000Y-46971000D03*
X152375000Y-45471000D03*
X153375000Y-48471000D03*
X153375000Y-46971000D03*
X153375000Y-45471000D03*
X154375000Y-48471000D03*
X154375000Y-46971000D03*
X154375000Y-45471000D03*
D19*
X152875000Y-46971000D03*
D18*
X90811500Y-43375500D03*
X90811500Y-44875500D03*
X90811500Y-46375500D03*
X89811500Y-43375500D03*
X89811500Y-44875500D03*
X89811500Y-46375500D03*
X88811500Y-43375500D03*
X88811500Y-44875500D03*
X88811500Y-46375500D03*
X87811500Y-43375500D03*
X87811500Y-44875500D03*
X87811500Y-46375500D03*
D19*
X89311500Y-44875500D03*
D18*
X154235000Y-83561000D03*
X154235000Y-82061000D03*
X154235000Y-80561000D03*
X155235000Y-83561000D03*
X155235000Y-82061000D03*
X155235000Y-80561000D03*
X156235000Y-83561000D03*
X156235000Y-82061000D03*
X156235000Y-80561000D03*
X157235000Y-83561000D03*
X157235000Y-82061000D03*
X157235000Y-80561000D03*
D19*
X155735000Y-82061000D03*
D13*
X70358000Y-106680000D03*
X70358000Y-103886000D03*
X70358000Y-99060000D03*
X70358000Y-93980000D03*
D20*
X44196000Y-80772000D03*
D21*
X36576000Y-88392000D03*
X41656000Y-80772000D03*
X39116000Y-88392000D03*
X39116000Y-80772000D03*
X41656000Y-88392000D03*
X36576000Y-80772000D03*
X44196000Y-88392000D03*
D18*
X89290000Y-79164000D03*
X89290000Y-80664000D03*
X89290000Y-82164000D03*
X88290000Y-79164000D03*
X88290000Y-80664000D03*
X88290000Y-82164000D03*
X87290000Y-79164000D03*
X87290000Y-80664000D03*
X87290000Y-82164000D03*
X86290000Y-79164000D03*
X86290000Y-80664000D03*
X86290000Y-82164000D03*
D19*
X87790000Y-80664000D03*
D22*
X165400000Y-105800000D03*
X17900000Y-17500000D03*
D16*
X113792000Y-40132000D03*
D17*
X113792000Y-32632000D03*
D22*
X166200000Y-17200000D03*
X18800000Y-104500000D03*
D16*
X18800000Y-45700000D03*
D17*
X18800000Y-53200000D03*
X18800000Y-60700000D03*
X18800000Y-68200000D03*
X18800000Y-75700000D03*
D14*
X48200000Y-18700000D03*
D15*
X40700000Y-18700000D03*
D23*
X27686000Y-32258000D03*
D24*
X27686000Y-29718000D03*
D16*
X115189000Y-96266000D03*
D17*
X115189000Y-88766000D03*
D14*
X40000000Y-105200000D03*
D15*
X47500000Y-105200000D03*
X55000000Y-105200000D03*
D23*
X32512000Y-26670000D03*
D24*
X35052000Y-26670000D03*
D25*
X37846000Y-100711000D03*
X59944000Y-96266000D03*
X133604000Y-45593000D03*
X146939000Y-41148000D03*
X96901000Y-70866000D03*
X102616000Y-72136000D03*
X105791000Y-49911000D03*
X101346000Y-49911000D03*
X154787600Y-26162000D03*
X108407200Y-37134800D03*
X85344000Y-61595000D03*
X108204000Y-34163000D03*
X156718000Y-70739000D03*
X108966000Y-84226400D03*
X87426800Y-88747600D03*
X108940600Y-93116400D03*
X30200600Y-32207200D03*
X65481200Y-27838400D03*
X160274000Y-29337000D03*
X132689600Y-38303200D03*
X156718000Y-29337000D03*
X107289600Y-37058600D03*
X135305800Y-31013400D03*
X80772000Y-61722000D03*
X107289600Y-29108400D03*
X83820000Y-61849000D03*
X163703000Y-66675000D03*
X133680200Y-85394800D03*
X42672000Y-69088000D03*
X54559200Y-46583600D03*
X51562000Y-68834000D03*
X58674000Y-37668200D03*
X158242000Y-65024000D03*
X107924600Y-85445600D03*
X50546000Y-84328000D03*
X40132000Y-77978000D03*
X50546000Y-81280000D03*
X38354000Y-77216000D03*
X80264000Y-97536000D03*
X133908800Y-93243400D03*
X83312000Y-96520000D03*
X107924600Y-93091000D03*
X29718000Y-20320000D03*
D26*
X37846000Y-100711000D02*
X57353200Y-100711000D01*
X59944000Y-98120200D02*
X59944000Y-96266000D01*
X57353200Y-100711000D02*
X59944000Y-98120200D01*
X146939000Y-44831000D02*
X146939000Y-41148000D01*
X146177000Y-45593000D02*
X146939000Y-44831000D01*
X133604000Y-45593000D02*
X146177000Y-45593000D01*
X102616000Y-72136000D02*
X100076000Y-72136000D01*
X98806000Y-70866000D02*
X96901000Y-70866000D01*
X100076000Y-72136000D02*
X98806000Y-70866000D01*
X101346000Y-49911000D02*
X105791000Y-49911000D01*
X101346000Y-49911000D02*
X101219000Y-49911000D01*
X108407200Y-37134800D02*
X142443200Y-37134800D01*
X153416000Y-26162000D02*
X154787600Y-26162000D01*
X142443200Y-37134800D02*
X153416000Y-26162000D01*
X108204000Y-34163000D02*
X104648000Y-34163000D01*
X92913200Y-61595000D02*
X85344000Y-61595000D01*
X97510600Y-56997600D02*
X92913200Y-61595000D01*
X97510600Y-41300400D02*
X97510600Y-56997600D01*
X104648000Y-34163000D02*
X97510600Y-41300400D01*
X108204000Y-34163000D02*
X108204000Y-34188400D01*
X108966000Y-84226400D02*
X122783600Y-84226400D01*
X159816800Y-67640200D02*
X156718000Y-70739000D01*
X159816800Y-64414400D02*
X159816800Y-67640200D01*
X158851600Y-63449200D02*
X159816800Y-64414400D01*
X143560800Y-63449200D02*
X158851600Y-63449200D01*
X122783600Y-84226400D02*
X143560800Y-63449200D01*
X108940600Y-93116400D02*
X108940600Y-92862400D01*
X104825800Y-88747600D02*
X87426800Y-88747600D01*
X108940600Y-92862400D02*
X104825800Y-88747600D01*
D27*
X108966000Y-93091000D02*
X108966000Y-93065600D01*
X108940600Y-93116400D02*
X108966000Y-93091000D01*
D26*
X65481200Y-27838400D02*
X65481200Y-25831800D01*
X33197800Y-32207200D02*
X30200600Y-32207200D01*
X41325800Y-24079200D02*
X33197800Y-32207200D01*
X63728600Y-24079200D02*
X41325800Y-24079200D01*
X65481200Y-25831800D02*
X63728600Y-24079200D01*
D27*
X132689600Y-38303200D02*
X143687800Y-38303200D01*
X160274000Y-28549600D02*
X160274000Y-29337000D01*
X159486600Y-27000200D02*
X160274000Y-28549600D01*
X154228800Y-27000200D02*
X159486600Y-27000200D01*
X143687800Y-38303200D02*
X154228800Y-27000200D01*
D26*
X156718000Y-29337000D02*
X155067000Y-29337000D01*
X109728000Y-38735000D02*
X107289600Y-38735000D01*
X110490000Y-37973000D02*
X109728000Y-38735000D01*
X129794000Y-37973000D02*
X110490000Y-37973000D01*
X131191000Y-39370000D02*
X129794000Y-37973000D01*
X145034000Y-39370000D02*
X131191000Y-39370000D01*
X155067000Y-29337000D02*
X145034000Y-39370000D01*
X107289600Y-37058600D02*
X107289600Y-38735000D01*
D27*
X107289600Y-37058600D02*
X107264200Y-37058600D01*
D26*
X98837692Y-41402000D02*
X98837692Y-41385222D01*
D27*
X135305800Y-33604200D02*
X135305800Y-31013400D01*
X134010400Y-34899600D02*
X135305800Y-33604200D01*
X106730800Y-34899600D02*
X134010400Y-34899600D01*
X99060000Y-41162914D02*
X106730800Y-34899600D01*
D26*
X98837692Y-41385222D02*
X99060000Y-41162914D01*
X82092800Y-63398400D02*
X92811600Y-63398400D01*
D27*
X80772000Y-62585600D02*
X82092800Y-63398400D01*
X80772000Y-61722000D02*
X80772000Y-62585600D01*
D26*
X98806000Y-41370308D02*
X98837692Y-41402000D01*
X98806000Y-57404000D02*
X98806000Y-41370308D01*
X92811600Y-63398400D02*
X98806000Y-57404000D01*
X85217000Y-60452000D02*
X83820000Y-61849000D01*
X92202000Y-60452000D02*
X85217000Y-60452000D01*
X96774000Y-55880000D02*
X92202000Y-60452000D01*
X96774000Y-40894000D02*
X96774000Y-55880000D01*
X102870000Y-34798000D02*
X96774000Y-40894000D01*
X102870000Y-30226000D02*
X102870000Y-34798000D01*
X103987600Y-29108400D02*
X102870000Y-30226000D01*
X107289600Y-29108400D02*
X103987600Y-29108400D01*
X133680200Y-85394800D02*
X144983200Y-85394800D01*
X144983200Y-85394800D02*
X163703000Y-66675000D01*
X42672000Y-69088000D02*
X44577000Y-69088000D01*
X54559200Y-59105800D02*
X54559200Y-46583600D01*
X44577000Y-69088000D02*
X54559200Y-59105800D01*
X51562000Y-68834000D02*
X51562000Y-67030600D01*
X58674000Y-26695400D02*
X58674000Y-37668200D01*
X59791600Y-25577800D02*
X58674000Y-26695400D01*
X62788800Y-25577800D02*
X59791600Y-25577800D01*
X64414400Y-27203400D02*
X62788800Y-25577800D01*
X64414400Y-28371800D02*
X64414400Y-27203400D01*
X67640200Y-31597600D02*
X64414400Y-28371800D01*
X67640200Y-63931800D02*
X67640200Y-31597600D01*
X66141600Y-65430400D02*
X67640200Y-63931800D01*
X53162200Y-65430400D02*
X66141600Y-65430400D01*
X51562000Y-67030600D02*
X53162200Y-65430400D01*
X158242000Y-65024000D02*
X143814800Y-65024000D01*
X123393200Y-85445600D02*
X107924600Y-85445600D01*
X143814800Y-65024000D02*
X123393200Y-85445600D01*
X50546000Y-84328000D02*
X43180000Y-84328000D01*
X41656000Y-82804000D02*
X41656000Y-80772000D01*
X43180000Y-84328000D02*
X41656000Y-82804000D01*
X50546000Y-81280000D02*
X50546000Y-79756000D01*
X39370000Y-76200000D02*
X38354000Y-77216000D01*
X46990000Y-76200000D02*
X39370000Y-76200000D01*
X50546000Y-79756000D02*
X46990000Y-76200000D01*
X133908800Y-93243400D02*
X128498600Y-93243400D01*
X80264000Y-102870000D02*
X80264000Y-97536000D01*
X81280000Y-103886000D02*
X80264000Y-102870000D01*
X117856000Y-103886000D02*
X81280000Y-103886000D01*
X128498600Y-93243400D02*
X117856000Y-103886000D01*
X107924600Y-93091000D02*
X86487000Y-93091000D01*
X84226400Y-96520000D02*
X83312000Y-96520000D01*
X85013800Y-95732600D02*
X84226400Y-96520000D01*
X85013800Y-94564200D02*
X85013800Y-95732600D01*
X86487000Y-93091000D02*
X85013800Y-94564200D01*
X18800000Y-53200000D02*
X20650500Y-53200000D01*
X44323000Y-50863500D02*
X46990000Y-50800000D01*
X24701500Y-50863500D02*
X44323000Y-50863500D01*
X20650500Y-53200000D02*
X24701500Y-50863500D01*
X46990000Y-53340000D02*
X26670000Y-53340000D01*
X26670000Y-53340000D02*
X19310000Y-60700000D01*
X19310000Y-60700000D02*
X18800000Y-60700000D01*
D28*
G36*
X76428600Y-101498400D02*
X67386200Y-101498400D01*
X67336790Y-101508406D01*
X67295165Y-101536847D01*
X67267885Y-101579241D01*
X67259200Y-101625400D01*
X67259200Y-111290000D01*
X12710000Y-111290000D01*
X12710000Y-105437718D01*
X14064180Y-105437718D01*
X14783522Y-107178658D01*
X16114336Y-108511797D01*
X17854018Y-109234176D01*
X19737718Y-109235820D01*
X21478658Y-108516478D01*
X22811797Y-107185664D01*
X23534176Y-105445982D01*
X23535820Y-103562282D01*
X23468767Y-103400000D01*
X38352560Y-103400000D01*
X38352560Y-107000000D01*
X38396838Y-107235317D01*
X38535910Y-107451441D01*
X38748110Y-107596431D01*
X39000000Y-107647440D01*
X41000000Y-107647440D01*
X41235317Y-107603162D01*
X41451441Y-107464090D01*
X41596431Y-107251890D01*
X41647440Y-107000000D01*
X41647440Y-104352296D01*
X45865000Y-104352296D01*
X45865000Y-106047704D01*
X45989457Y-106673391D01*
X46343880Y-107203824D01*
X46874313Y-107558247D01*
X47500000Y-107682704D01*
X48125687Y-107558247D01*
X48656120Y-107203824D01*
X49010543Y-106673391D01*
X49135000Y-106047704D01*
X49135000Y-105327000D01*
X53365000Y-105327000D01*
X53365000Y-106127000D01*
X53538058Y-106743020D01*
X53933683Y-107245922D01*
X54491645Y-107559144D01*
X54619566Y-107590124D01*
X54873000Y-107470777D01*
X54873000Y-105327000D01*
X55127000Y-105327000D01*
X55127000Y-107470777D01*
X55380434Y-107590124D01*
X55508355Y-107559144D01*
X56066317Y-107245922D01*
X56461942Y-106743020D01*
X56635000Y-106127000D01*
X56635000Y-105327000D01*
X55127000Y-105327000D01*
X54873000Y-105327000D01*
X53365000Y-105327000D01*
X49135000Y-105327000D01*
X49135000Y-104352296D01*
X49119228Y-104273000D01*
X53365000Y-104273000D01*
X53365000Y-105073000D01*
X54873000Y-105073000D01*
X54873000Y-102929223D01*
X55127000Y-102929223D01*
X55127000Y-105073000D01*
X56635000Y-105073000D01*
X56635000Y-104273000D01*
X56461942Y-103656980D01*
X56066317Y-103154078D01*
X55508355Y-102840856D01*
X55380434Y-102809876D01*
X55127000Y-102929223D01*
X54873000Y-102929223D01*
X54619566Y-102809876D01*
X54491645Y-102840856D01*
X53933683Y-103154078D01*
X53538058Y-103656980D01*
X53365000Y-104273000D01*
X49119228Y-104273000D01*
X49010543Y-103726609D01*
X48656120Y-103196176D01*
X48125687Y-102841753D01*
X47500000Y-102717296D01*
X46874313Y-102841753D01*
X46343880Y-103196176D01*
X45989457Y-103726609D01*
X45865000Y-104352296D01*
X41647440Y-104352296D01*
X41647440Y-103400000D01*
X41603162Y-103164683D01*
X41464090Y-102948559D01*
X41251890Y-102803569D01*
X41000000Y-102752560D01*
X39000000Y-102752560D01*
X38764683Y-102796838D01*
X38548559Y-102935910D01*
X38403569Y-103148110D01*
X38352560Y-103400000D01*
X23468767Y-103400000D01*
X22816478Y-101821342D01*
X21892917Y-100896167D01*
X36910838Y-100896167D01*
X37052883Y-101239943D01*
X37315673Y-101503192D01*
X37659201Y-101645838D01*
X38031167Y-101646162D01*
X38142888Y-101600000D01*
X57353200Y-101600000D01*
X57693406Y-101532329D01*
X57981818Y-101339618D01*
X59281223Y-100040213D01*
X69557392Y-100040213D01*
X69626857Y-100282397D01*
X70150302Y-100469144D01*
X70705368Y-100441362D01*
X71089143Y-100282397D01*
X71158608Y-100040213D01*
X70358000Y-99239605D01*
X69557392Y-100040213D01*
X59281223Y-100040213D01*
X60469134Y-98852302D01*
X68948856Y-98852302D01*
X68976638Y-99407368D01*
X69135603Y-99791143D01*
X69377787Y-99860608D01*
X70178395Y-99060000D01*
X70537605Y-99060000D01*
X71338213Y-99860608D01*
X71580397Y-99791143D01*
X71767144Y-99267698D01*
X71739362Y-98712632D01*
X71580397Y-98328857D01*
X71338213Y-98259392D01*
X70537605Y-99060000D01*
X70178395Y-99060000D01*
X69377787Y-98259392D01*
X69135603Y-98328857D01*
X68948856Y-98852302D01*
X60469134Y-98852302D01*
X60572618Y-98748818D01*
X60765329Y-98460406D01*
X60833000Y-98120200D01*
X60833000Y-98079787D01*
X69557392Y-98079787D01*
X70358000Y-98880395D01*
X71158608Y-98079787D01*
X71089143Y-97837603D01*
X70565698Y-97650856D01*
X70010632Y-97678638D01*
X69626857Y-97837603D01*
X69557392Y-98079787D01*
X60833000Y-98079787D01*
X60833000Y-96563189D01*
X60878838Y-96452799D01*
X60879162Y-96080833D01*
X60737117Y-95737057D01*
X60474327Y-95473808D01*
X60130799Y-95331162D01*
X59758833Y-95330838D01*
X59415057Y-95472883D01*
X59151808Y-95735673D01*
X59009162Y-96079201D01*
X59008838Y-96451167D01*
X59055000Y-96562888D01*
X59055000Y-97751964D01*
X56984964Y-99822000D01*
X38143189Y-99822000D01*
X38032799Y-99776162D01*
X37660833Y-99775838D01*
X37317057Y-99917883D01*
X37053808Y-100180673D01*
X36911162Y-100524201D01*
X36910838Y-100896167D01*
X21892917Y-100896167D01*
X21485664Y-100488203D01*
X19745982Y-99765824D01*
X17862282Y-99764180D01*
X16121342Y-100483522D01*
X14788203Y-101814336D01*
X14065824Y-103554018D01*
X14064180Y-105437718D01*
X12710000Y-105437718D01*
X12710000Y-94256661D01*
X68960758Y-94256661D01*
X69172990Y-94770303D01*
X69565630Y-95163629D01*
X70078900Y-95376757D01*
X70634661Y-95377242D01*
X71148303Y-95165010D01*
X71541629Y-94772370D01*
X71754757Y-94259100D01*
X71755242Y-93703339D01*
X71543010Y-93189697D01*
X71150370Y-92796371D01*
X70637100Y-92583243D01*
X70081339Y-92582758D01*
X69567697Y-92794990D01*
X69174371Y-93187630D01*
X68961243Y-93700900D01*
X68960758Y-94256661D01*
X12710000Y-94256661D01*
X12710000Y-88741041D01*
X35184086Y-88741041D01*
X35423611Y-89247134D01*
X35838577Y-89623041D01*
X36226961Y-89783904D01*
X36449000Y-89661915D01*
X36449000Y-88519000D01*
X35305371Y-88519000D01*
X35184086Y-88741041D01*
X12710000Y-88741041D01*
X12710000Y-88569800D01*
X12958065Y-88569800D01*
X12984041Y-88586515D01*
X13030200Y-88595200D01*
X27660600Y-88595200D01*
X27710010Y-88585194D01*
X27751635Y-88556753D01*
X27778915Y-88514359D01*
X27787600Y-88468200D01*
X27787600Y-88042959D01*
X35184086Y-88042959D01*
X35305371Y-88265000D01*
X36449000Y-88265000D01*
X36449000Y-87122085D01*
X36703000Y-87122085D01*
X36703000Y-88265000D01*
X36723000Y-88265000D01*
X36723000Y-88519000D01*
X36703000Y-88519000D01*
X36703000Y-89661915D01*
X36925039Y-89783904D01*
X37313423Y-89623041D01*
X37728389Y-89247134D01*
X37831014Y-89030297D01*
X38101302Y-89434811D01*
X38566849Y-89745880D01*
X39116000Y-89855113D01*
X39665151Y-89745880D01*
X40130698Y-89434811D01*
X40386000Y-89052725D01*
X40641302Y-89434811D01*
X41106849Y-89745880D01*
X41656000Y-89855113D01*
X42205151Y-89745880D01*
X42670698Y-89434811D01*
X42926000Y-89052725D01*
X43181302Y-89434811D01*
X43646849Y-89745880D01*
X44196000Y-89855113D01*
X44745151Y-89745880D01*
X45210698Y-89434811D01*
X45521767Y-88969264D01*
X45631000Y-88420113D01*
X45631000Y-88363887D01*
X45521767Y-87814736D01*
X45210698Y-87349189D01*
X44745151Y-87038120D01*
X44196000Y-86928887D01*
X43646849Y-87038120D01*
X43181302Y-87349189D01*
X42926000Y-87731275D01*
X42670698Y-87349189D01*
X42205151Y-87038120D01*
X41656000Y-86928887D01*
X41106849Y-87038120D01*
X40641302Y-87349189D01*
X40386000Y-87731275D01*
X40130698Y-87349189D01*
X39665151Y-87038120D01*
X39116000Y-86928887D01*
X38566849Y-87038120D01*
X38101302Y-87349189D01*
X37831014Y-87753703D01*
X37728389Y-87536866D01*
X37313423Y-87160959D01*
X36925039Y-87000096D01*
X36703000Y-87122085D01*
X36449000Y-87122085D01*
X36226961Y-87000096D01*
X35838577Y-87160959D01*
X35423611Y-87536866D01*
X35184086Y-88042959D01*
X27787600Y-88042959D01*
X27787600Y-80743887D01*
X35141000Y-80743887D01*
X35141000Y-80800113D01*
X35250233Y-81349264D01*
X35561302Y-81814811D01*
X36026849Y-82125880D01*
X36576000Y-82235113D01*
X37125151Y-82125880D01*
X37590698Y-81814811D01*
X37846000Y-81432725D01*
X38101302Y-81814811D01*
X38566849Y-82125880D01*
X39116000Y-82235113D01*
X39665151Y-82125880D01*
X40130698Y-81814811D01*
X40386000Y-81432725D01*
X40641302Y-81814811D01*
X40767000Y-81898800D01*
X40767000Y-82804000D01*
X40834671Y-83144206D01*
X41000802Y-83392838D01*
X41027382Y-83432618D01*
X42551382Y-84956618D01*
X42839794Y-85149329D01*
X43180000Y-85217000D01*
X50248811Y-85217000D01*
X50359201Y-85262838D01*
X50731167Y-85263162D01*
X51074943Y-85121117D01*
X51338192Y-84858327D01*
X51480838Y-84514799D01*
X51481162Y-84142833D01*
X51339117Y-83799057D01*
X51076327Y-83535808D01*
X50732799Y-83393162D01*
X50360833Y-83392838D01*
X50249112Y-83439000D01*
X43548236Y-83439000D01*
X42545000Y-82435764D01*
X42545000Y-81898800D01*
X42670698Y-81814811D01*
X42767101Y-81670535D01*
X42792838Y-81807317D01*
X42931910Y-82023441D01*
X43144110Y-82168431D01*
X43396000Y-82219440D01*
X44996000Y-82219440D01*
X45231317Y-82175162D01*
X45447441Y-82036090D01*
X45592431Y-81823890D01*
X45643440Y-81572000D01*
X45643440Y-79972000D01*
X45599162Y-79736683D01*
X45460090Y-79520559D01*
X45247890Y-79375569D01*
X44996000Y-79324560D01*
X43396000Y-79324560D01*
X43160683Y-79368838D01*
X42944559Y-79507910D01*
X42799569Y-79720110D01*
X42768185Y-79875089D01*
X42670698Y-79729189D01*
X42205151Y-79418120D01*
X41656000Y-79308887D01*
X41106849Y-79418120D01*
X40641302Y-79729189D01*
X40386000Y-80111275D01*
X40130698Y-79729189D01*
X39665151Y-79418120D01*
X39116000Y-79308887D01*
X38566849Y-79418120D01*
X38101302Y-79729189D01*
X37846000Y-80111275D01*
X37590698Y-79729189D01*
X37125151Y-79418120D01*
X36576000Y-79308887D01*
X36026849Y-79418120D01*
X35561302Y-79729189D01*
X35250233Y-80194736D01*
X35141000Y-80743887D01*
X27787600Y-80743887D01*
X27787600Y-77401167D01*
X37418838Y-77401167D01*
X37560883Y-77744943D01*
X37823673Y-78008192D01*
X38167201Y-78150838D01*
X38539167Y-78151162D01*
X38882943Y-78009117D01*
X39146192Y-77746327D01*
X39192549Y-77634687D01*
X39311578Y-77515658D01*
X39197162Y-77791201D01*
X39196838Y-78163167D01*
X39338883Y-78506943D01*
X39601673Y-78770192D01*
X39945201Y-78912838D01*
X40317167Y-78913162D01*
X40660943Y-78771117D01*
X40924192Y-78508327D01*
X41066838Y-78164799D01*
X41067162Y-77792833D01*
X40925117Y-77449057D01*
X40662327Y-77185808D01*
X40429189Y-77089000D01*
X46621764Y-77089000D01*
X49657000Y-80124236D01*
X49657000Y-80982811D01*
X49611162Y-81093201D01*
X49610838Y-81465167D01*
X49752883Y-81808943D01*
X50015673Y-82072192D01*
X50359201Y-82214838D01*
X50731167Y-82215162D01*
X51074943Y-82073117D01*
X51338192Y-81810327D01*
X51480838Y-81466799D01*
X51481162Y-81094833D01*
X51435000Y-80983112D01*
X51435000Y-79756000D01*
X51367329Y-79415794D01*
X51174618Y-79127382D01*
X47618618Y-75571382D01*
X47330206Y-75378671D01*
X46990000Y-75311000D01*
X39370000Y-75311000D01*
X39029794Y-75378671D01*
X38741382Y-75571382D01*
X37935526Y-76377238D01*
X37825057Y-76422883D01*
X37561808Y-76685673D01*
X37419162Y-77029201D01*
X37418838Y-77401167D01*
X27787600Y-77401167D01*
X27787600Y-73660000D01*
X76428600Y-73660000D01*
X76428600Y-101498400D01*
X76428600Y-101498400D01*
G37*
X76428600Y-101498400D02*
X67386200Y-101498400D01*
X67336790Y-101508406D01*
X67295165Y-101536847D01*
X67267885Y-101579241D01*
X67259200Y-101625400D01*
X67259200Y-111290000D01*
X12710000Y-111290000D01*
X12710000Y-105437718D01*
X14064180Y-105437718D01*
X14783522Y-107178658D01*
X16114336Y-108511797D01*
X17854018Y-109234176D01*
X19737718Y-109235820D01*
X21478658Y-108516478D01*
X22811797Y-107185664D01*
X23534176Y-105445982D01*
X23535820Y-103562282D01*
X23468767Y-103400000D01*
X38352560Y-103400000D01*
X38352560Y-107000000D01*
X38396838Y-107235317D01*
X38535910Y-107451441D01*
X38748110Y-107596431D01*
X39000000Y-107647440D01*
X41000000Y-107647440D01*
X41235317Y-107603162D01*
X41451441Y-107464090D01*
X41596431Y-107251890D01*
X41647440Y-107000000D01*
X41647440Y-104352296D01*
X45865000Y-104352296D01*
X45865000Y-106047704D01*
X45989457Y-106673391D01*
X46343880Y-107203824D01*
X46874313Y-107558247D01*
X47500000Y-107682704D01*
X48125687Y-107558247D01*
X48656120Y-107203824D01*
X49010543Y-106673391D01*
X49135000Y-106047704D01*
X49135000Y-105327000D01*
X53365000Y-105327000D01*
X53365000Y-106127000D01*
X53538058Y-106743020D01*
X53933683Y-107245922D01*
X54491645Y-107559144D01*
X54619566Y-107590124D01*
X54873000Y-107470777D01*
X54873000Y-105327000D01*
X55127000Y-105327000D01*
X55127000Y-107470777D01*
X55380434Y-107590124D01*
X55508355Y-107559144D01*
X56066317Y-107245922D01*
X56461942Y-106743020D01*
X56635000Y-106127000D01*
X56635000Y-105327000D01*
X55127000Y-105327000D01*
X54873000Y-105327000D01*
X53365000Y-105327000D01*
X49135000Y-105327000D01*
X49135000Y-104352296D01*
X49119228Y-104273000D01*
X53365000Y-104273000D01*
X53365000Y-105073000D01*
X54873000Y-105073000D01*
X54873000Y-102929223D01*
X55127000Y-102929223D01*
X55127000Y-105073000D01*
X56635000Y-105073000D01*
X56635000Y-104273000D01*
X56461942Y-103656980D01*
X56066317Y-103154078D01*
X55508355Y-102840856D01*
X55380434Y-102809876D01*
X55127000Y-102929223D01*
X54873000Y-102929223D01*
X54619566Y-102809876D01*
X54491645Y-102840856D01*
X53933683Y-103154078D01*
X53538058Y-103656980D01*
X53365000Y-104273000D01*
X49119228Y-104273000D01*
X49010543Y-103726609D01*
X48656120Y-103196176D01*
X48125687Y-102841753D01*
X47500000Y-102717296D01*
X46874313Y-102841753D01*
X46343880Y-103196176D01*
X45989457Y-103726609D01*
X45865000Y-104352296D01*
X41647440Y-104352296D01*
X41647440Y-103400000D01*
X41603162Y-103164683D01*
X41464090Y-102948559D01*
X41251890Y-102803569D01*
X41000000Y-102752560D01*
X39000000Y-102752560D01*
X38764683Y-102796838D01*
X38548559Y-102935910D01*
X38403569Y-103148110D01*
X38352560Y-103400000D01*
X23468767Y-103400000D01*
X22816478Y-101821342D01*
X21892917Y-100896167D01*
X36910838Y-100896167D01*
X37052883Y-101239943D01*
X37315673Y-101503192D01*
X37659201Y-101645838D01*
X38031167Y-101646162D01*
X38142888Y-101600000D01*
X57353200Y-101600000D01*
X57693406Y-101532329D01*
X57981818Y-101339618D01*
X59281223Y-100040213D01*
X69557392Y-100040213D01*
X69626857Y-100282397D01*
X70150302Y-100469144D01*
X70705368Y-100441362D01*
X71089143Y-100282397D01*
X71158608Y-100040213D01*
X70358000Y-99239605D01*
X69557392Y-100040213D01*
X59281223Y-100040213D01*
X60469134Y-98852302D01*
X68948856Y-98852302D01*
X68976638Y-99407368D01*
X69135603Y-99791143D01*
X69377787Y-99860608D01*
X70178395Y-99060000D01*
X70537605Y-99060000D01*
X71338213Y-99860608D01*
X71580397Y-99791143D01*
X71767144Y-99267698D01*
X71739362Y-98712632D01*
X71580397Y-98328857D01*
X71338213Y-98259392D01*
X70537605Y-99060000D01*
X70178395Y-99060000D01*
X69377787Y-98259392D01*
X69135603Y-98328857D01*
X68948856Y-98852302D01*
X60469134Y-98852302D01*
X60572618Y-98748818D01*
X60765329Y-98460406D01*
X60833000Y-98120200D01*
X60833000Y-98079787D01*
X69557392Y-98079787D01*
X70358000Y-98880395D01*
X71158608Y-98079787D01*
X71089143Y-97837603D01*
X70565698Y-97650856D01*
X70010632Y-97678638D01*
X69626857Y-97837603D01*
X69557392Y-98079787D01*
X60833000Y-98079787D01*
X60833000Y-96563189D01*
X60878838Y-96452799D01*
X60879162Y-96080833D01*
X60737117Y-95737057D01*
X60474327Y-95473808D01*
X60130799Y-95331162D01*
X59758833Y-95330838D01*
X59415057Y-95472883D01*
X59151808Y-95735673D01*
X59009162Y-96079201D01*
X59008838Y-96451167D01*
X59055000Y-96562888D01*
X59055000Y-97751964D01*
X56984964Y-99822000D01*
X38143189Y-99822000D01*
X38032799Y-99776162D01*
X37660833Y-99775838D01*
X37317057Y-99917883D01*
X37053808Y-100180673D01*
X36911162Y-100524201D01*
X36910838Y-100896167D01*
X21892917Y-100896167D01*
X21485664Y-100488203D01*
X19745982Y-99765824D01*
X17862282Y-99764180D01*
X16121342Y-100483522D01*
X14788203Y-101814336D01*
X14065824Y-103554018D01*
X14064180Y-105437718D01*
X12710000Y-105437718D01*
X12710000Y-94256661D01*
X68960758Y-94256661D01*
X69172990Y-94770303D01*
X69565630Y-95163629D01*
X70078900Y-95376757D01*
X70634661Y-95377242D01*
X71148303Y-95165010D01*
X71541629Y-94772370D01*
X71754757Y-94259100D01*
X71755242Y-93703339D01*
X71543010Y-93189697D01*
X71150370Y-92796371D01*
X70637100Y-92583243D01*
X70081339Y-92582758D01*
X69567697Y-92794990D01*
X69174371Y-93187630D01*
X68961243Y-93700900D01*
X68960758Y-94256661D01*
X12710000Y-94256661D01*
X12710000Y-88741041D01*
X35184086Y-88741041D01*
X35423611Y-89247134D01*
X35838577Y-89623041D01*
X36226961Y-89783904D01*
X36449000Y-89661915D01*
X36449000Y-88519000D01*
X35305371Y-88519000D01*
X35184086Y-88741041D01*
X12710000Y-88741041D01*
X12710000Y-88569800D01*
X12958065Y-88569800D01*
X12984041Y-88586515D01*
X13030200Y-88595200D01*
X27660600Y-88595200D01*
X27710010Y-88585194D01*
X27751635Y-88556753D01*
X27778915Y-88514359D01*
X27787600Y-88468200D01*
X27787600Y-88042959D01*
X35184086Y-88042959D01*
X35305371Y-88265000D01*
X36449000Y-88265000D01*
X36449000Y-87122085D01*
X36703000Y-87122085D01*
X36703000Y-88265000D01*
X36723000Y-88265000D01*
X36723000Y-88519000D01*
X36703000Y-88519000D01*
X36703000Y-89661915D01*
X36925039Y-89783904D01*
X37313423Y-89623041D01*
X37728389Y-89247134D01*
X37831014Y-89030297D01*
X38101302Y-89434811D01*
X38566849Y-89745880D01*
X39116000Y-89855113D01*
X39665151Y-89745880D01*
X40130698Y-89434811D01*
X40386000Y-89052725D01*
X40641302Y-89434811D01*
X41106849Y-89745880D01*
X41656000Y-89855113D01*
X42205151Y-89745880D01*
X42670698Y-89434811D01*
X42926000Y-89052725D01*
X43181302Y-89434811D01*
X43646849Y-89745880D01*
X44196000Y-89855113D01*
X44745151Y-89745880D01*
X45210698Y-89434811D01*
X45521767Y-88969264D01*
X45631000Y-88420113D01*
X45631000Y-88363887D01*
X45521767Y-87814736D01*
X45210698Y-87349189D01*
X44745151Y-87038120D01*
X44196000Y-86928887D01*
X43646849Y-87038120D01*
X43181302Y-87349189D01*
X42926000Y-87731275D01*
X42670698Y-87349189D01*
X42205151Y-87038120D01*
X41656000Y-86928887D01*
X41106849Y-87038120D01*
X40641302Y-87349189D01*
X40386000Y-87731275D01*
X40130698Y-87349189D01*
X39665151Y-87038120D01*
X39116000Y-86928887D01*
X38566849Y-87038120D01*
X38101302Y-87349189D01*
X37831014Y-87753703D01*
X37728389Y-87536866D01*
X37313423Y-87160959D01*
X36925039Y-87000096D01*
X36703000Y-87122085D01*
X36449000Y-87122085D01*
X36226961Y-87000096D01*
X35838577Y-87160959D01*
X35423611Y-87536866D01*
X35184086Y-88042959D01*
X27787600Y-88042959D01*
X27787600Y-80743887D01*
X35141000Y-80743887D01*
X35141000Y-80800113D01*
X35250233Y-81349264D01*
X35561302Y-81814811D01*
X36026849Y-82125880D01*
X36576000Y-82235113D01*
X37125151Y-82125880D01*
X37590698Y-81814811D01*
X37846000Y-81432725D01*
X38101302Y-81814811D01*
X38566849Y-82125880D01*
X39116000Y-82235113D01*
X39665151Y-82125880D01*
X40130698Y-81814811D01*
X40386000Y-81432725D01*
X40641302Y-81814811D01*
X40767000Y-81898800D01*
X40767000Y-82804000D01*
X40834671Y-83144206D01*
X41000802Y-83392838D01*
X41027382Y-83432618D01*
X42551382Y-84956618D01*
X42839794Y-85149329D01*
X43180000Y-85217000D01*
X50248811Y-85217000D01*
X50359201Y-85262838D01*
X50731167Y-85263162D01*
X51074943Y-85121117D01*
X51338192Y-84858327D01*
X51480838Y-84514799D01*
X51481162Y-84142833D01*
X51339117Y-83799057D01*
X51076327Y-83535808D01*
X50732799Y-83393162D01*
X50360833Y-83392838D01*
X50249112Y-83439000D01*
X43548236Y-83439000D01*
X42545000Y-82435764D01*
X42545000Y-81898800D01*
X42670698Y-81814811D01*
X42767101Y-81670535D01*
X42792838Y-81807317D01*
X42931910Y-82023441D01*
X43144110Y-82168431D01*
X43396000Y-82219440D01*
X44996000Y-82219440D01*
X45231317Y-82175162D01*
X45447441Y-82036090D01*
X45592431Y-81823890D01*
X45643440Y-81572000D01*
X45643440Y-79972000D01*
X45599162Y-79736683D01*
X45460090Y-79520559D01*
X45247890Y-79375569D01*
X44996000Y-79324560D01*
X43396000Y-79324560D01*
X43160683Y-79368838D01*
X42944559Y-79507910D01*
X42799569Y-79720110D01*
X42768185Y-79875089D01*
X42670698Y-79729189D01*
X42205151Y-79418120D01*
X41656000Y-79308887D01*
X41106849Y-79418120D01*
X40641302Y-79729189D01*
X40386000Y-80111275D01*
X40130698Y-79729189D01*
X39665151Y-79418120D01*
X39116000Y-79308887D01*
X38566849Y-79418120D01*
X38101302Y-79729189D01*
X37846000Y-80111275D01*
X37590698Y-79729189D01*
X37125151Y-79418120D01*
X36576000Y-79308887D01*
X36026849Y-79418120D01*
X35561302Y-79729189D01*
X35250233Y-80194736D01*
X35141000Y-80743887D01*
X27787600Y-80743887D01*
X27787600Y-77401167D01*
X37418838Y-77401167D01*
X37560883Y-77744943D01*
X37823673Y-78008192D01*
X38167201Y-78150838D01*
X38539167Y-78151162D01*
X38882943Y-78009117D01*
X39146192Y-77746327D01*
X39192549Y-77634687D01*
X39311578Y-77515658D01*
X39197162Y-77791201D01*
X39196838Y-78163167D01*
X39338883Y-78506943D01*
X39601673Y-78770192D01*
X39945201Y-78912838D01*
X40317167Y-78913162D01*
X40660943Y-78771117D01*
X40924192Y-78508327D01*
X41066838Y-78164799D01*
X41067162Y-77792833D01*
X40925117Y-77449057D01*
X40662327Y-77185808D01*
X40429189Y-77089000D01*
X46621764Y-77089000D01*
X49657000Y-80124236D01*
X49657000Y-80982811D01*
X49611162Y-81093201D01*
X49610838Y-81465167D01*
X49752883Y-81808943D01*
X50015673Y-82072192D01*
X50359201Y-82214838D01*
X50731167Y-82215162D01*
X51074943Y-82073117D01*
X51338192Y-81810327D01*
X51480838Y-81466799D01*
X51481162Y-81094833D01*
X51435000Y-80983112D01*
X51435000Y-79756000D01*
X51367329Y-79415794D01*
X51174618Y-79127382D01*
X47618618Y-75571382D01*
X47330206Y-75378671D01*
X46990000Y-75311000D01*
X39370000Y-75311000D01*
X39029794Y-75378671D01*
X38741382Y-75571382D01*
X37935526Y-76377238D01*
X37825057Y-76422883D01*
X37561808Y-76685673D01*
X37419162Y-77029201D01*
X37418838Y-77401167D01*
X27787600Y-77401167D01*
X27787600Y-73660000D01*
X76428600Y-73660000D01*
X76428600Y-101498400D01*
G36*
X116662200Y-17158640D02*
X116313482Y-17703511D01*
X85776327Y-17576801D01*
X85726876Y-17586602D01*
X85685134Y-17614870D01*
X85657678Y-17657150D01*
X85648800Y-17703800D01*
X85648800Y-23039505D01*
X76376084Y-23164812D01*
X76326814Y-23175484D01*
X76285577Y-23204485D01*
X76258873Y-23247244D01*
X76250800Y-23291800D01*
X76250800Y-72491600D01*
X25349200Y-72491600D01*
X25299790Y-72501606D01*
X25258165Y-72530047D01*
X25230885Y-72572441D01*
X25222200Y-72618600D01*
X25222200Y-79298800D01*
X13360400Y-79298800D01*
X13360400Y-76080434D01*
X16409876Y-76080434D01*
X16440856Y-76208355D01*
X16754078Y-76766317D01*
X17256980Y-77161942D01*
X17873000Y-77335000D01*
X18673000Y-77335000D01*
X18673000Y-75827000D01*
X18927000Y-75827000D01*
X18927000Y-77335000D01*
X19727000Y-77335000D01*
X20343020Y-77161942D01*
X20845922Y-76766317D01*
X21159144Y-76208355D01*
X21190124Y-76080434D01*
X21070777Y-75827000D01*
X18927000Y-75827000D01*
X18673000Y-75827000D01*
X16529223Y-75827000D01*
X16409876Y-76080434D01*
X13360400Y-76080434D01*
X13360400Y-75319566D01*
X16409876Y-75319566D01*
X16529223Y-75573000D01*
X18673000Y-75573000D01*
X18673000Y-74065000D01*
X18927000Y-74065000D01*
X18927000Y-75573000D01*
X21070777Y-75573000D01*
X21190124Y-75319566D01*
X21159144Y-75191645D01*
X20845922Y-74633683D01*
X20343020Y-74238058D01*
X19727000Y-74065000D01*
X18927000Y-74065000D01*
X18673000Y-74065000D01*
X17873000Y-74065000D01*
X17256980Y-74238058D01*
X16754078Y-74633683D01*
X16440856Y-75191645D01*
X16409876Y-75319566D01*
X13360400Y-75319566D01*
X13360400Y-68580434D01*
X16409876Y-68580434D01*
X16440856Y-68708355D01*
X16754078Y-69266317D01*
X17256980Y-69661942D01*
X17873000Y-69835000D01*
X18673000Y-69835000D01*
X18673000Y-68327000D01*
X18927000Y-68327000D01*
X18927000Y-69835000D01*
X19727000Y-69835000D01*
X20343020Y-69661942D01*
X20837214Y-69273167D01*
X41736838Y-69273167D01*
X41878883Y-69616943D01*
X42141673Y-69880192D01*
X42485201Y-70022838D01*
X42857167Y-70023162D01*
X42968888Y-69977000D01*
X44577000Y-69977000D01*
X44917206Y-69909329D01*
X45205618Y-69716618D01*
X55187818Y-59734418D01*
X55380530Y-59446005D01*
X55448200Y-59105800D01*
X55448200Y-55672302D01*
X60820856Y-55672302D01*
X60848638Y-56227368D01*
X61007603Y-56611143D01*
X61249787Y-56680608D01*
X62050395Y-55880000D01*
X62409605Y-55880000D01*
X63210213Y-56680608D01*
X63452397Y-56611143D01*
X63639144Y-56087698D01*
X63611362Y-55532632D01*
X63452397Y-55148857D01*
X63210213Y-55079392D01*
X62409605Y-55880000D01*
X62050395Y-55880000D01*
X61249787Y-55079392D01*
X61007603Y-55148857D01*
X60820856Y-55672302D01*
X55448200Y-55672302D01*
X55448200Y-46880789D01*
X55494038Y-46770399D01*
X55494362Y-46398433D01*
X55352317Y-46054657D01*
X55089527Y-45791408D01*
X54745999Y-45648762D01*
X54374033Y-45648438D01*
X54030257Y-45790483D01*
X53767008Y-46053273D01*
X53624362Y-46396801D01*
X53624038Y-46768767D01*
X53670200Y-46880488D01*
X53670200Y-58737564D01*
X48214981Y-64192783D01*
X48386757Y-63779100D01*
X48387242Y-63223339D01*
X48175010Y-62709697D01*
X47782370Y-62316371D01*
X47590273Y-62236605D01*
X47721143Y-62182397D01*
X47790608Y-61940213D01*
X46990000Y-61139605D01*
X46189392Y-61940213D01*
X46258857Y-62182397D01*
X46399318Y-62232509D01*
X46199697Y-62314990D01*
X45806371Y-62707630D01*
X45593243Y-63220900D01*
X45592758Y-63776661D01*
X45804990Y-64290303D01*
X46197630Y-64683629D01*
X46710900Y-64896757D01*
X47266661Y-64897242D01*
X47682232Y-64725532D01*
X44208764Y-68199000D01*
X42969189Y-68199000D01*
X42858799Y-68153162D01*
X42486833Y-68152838D01*
X42143057Y-68294883D01*
X41879808Y-68557673D01*
X41737162Y-68901201D01*
X41736838Y-69273167D01*
X20837214Y-69273167D01*
X20845922Y-69266317D01*
X21159144Y-68708355D01*
X21190124Y-68580434D01*
X21070777Y-68327000D01*
X18927000Y-68327000D01*
X18673000Y-68327000D01*
X16529223Y-68327000D01*
X16409876Y-68580434D01*
X13360400Y-68580434D01*
X13360400Y-67819566D01*
X16409876Y-67819566D01*
X16529223Y-68073000D01*
X18673000Y-68073000D01*
X18673000Y-66565000D01*
X18927000Y-66565000D01*
X18927000Y-68073000D01*
X21070777Y-68073000D01*
X21190124Y-67819566D01*
X21159144Y-67691645D01*
X20845922Y-67133683D01*
X20343020Y-66738058D01*
X19727000Y-66565000D01*
X18927000Y-66565000D01*
X18673000Y-66565000D01*
X17873000Y-66565000D01*
X17256980Y-66738058D01*
X16754078Y-67133683D01*
X16440856Y-67691645D01*
X16409876Y-67819566D01*
X13360400Y-67819566D01*
X13360400Y-53200000D01*
X16317296Y-53200000D01*
X16441753Y-53825687D01*
X16796176Y-54356120D01*
X17326609Y-54710543D01*
X17952296Y-54835000D01*
X19647704Y-54835000D01*
X20273391Y-54710543D01*
X20803824Y-54356120D01*
X21052125Y-53984510D01*
X21094665Y-53970090D01*
X24939500Y-51752500D01*
X44323000Y-51752500D01*
X44333557Y-51750400D01*
X44344161Y-51752248D01*
X45928984Y-51714514D01*
X46197630Y-51983629D01*
X46405512Y-52069949D01*
X46199697Y-52154990D01*
X45903170Y-52451000D01*
X26670000Y-52451000D01*
X26329794Y-52518671D01*
X26120518Y-52658505D01*
X26041382Y-52711382D01*
X19681118Y-59071646D01*
X19647704Y-59065000D01*
X17952296Y-59065000D01*
X17326609Y-59189457D01*
X16796176Y-59543880D01*
X16441753Y-60074313D01*
X16317296Y-60700000D01*
X16441753Y-61325687D01*
X16796176Y-61856120D01*
X17326609Y-62210543D01*
X17952296Y-62335000D01*
X19647704Y-62335000D01*
X20273391Y-62210543D01*
X20803824Y-61856120D01*
X21158247Y-61325687D01*
X21272300Y-60752302D01*
X45580856Y-60752302D01*
X45608638Y-61307368D01*
X45767603Y-61691143D01*
X46009787Y-61760608D01*
X46810395Y-60960000D01*
X47169605Y-60960000D01*
X47970213Y-61760608D01*
X48212397Y-61691143D01*
X48399144Y-61167698D01*
X48371362Y-60612632D01*
X48212397Y-60228857D01*
X47970213Y-60159392D01*
X47169605Y-60960000D01*
X46810395Y-60960000D01*
X46009787Y-60159392D01*
X45767603Y-60228857D01*
X45580856Y-60752302D01*
X21272300Y-60752302D01*
X21282704Y-60700000D01*
X21164000Y-60103236D01*
X27038236Y-54229000D01*
X45903515Y-54229000D01*
X46197630Y-54523629D01*
X46405512Y-54609949D01*
X46199697Y-54694990D01*
X45806371Y-55087630D01*
X45593243Y-55600900D01*
X45592758Y-56156661D01*
X45804990Y-56670303D01*
X46197630Y-57063629D01*
X46405512Y-57149949D01*
X46199697Y-57234990D01*
X45806371Y-57627630D01*
X45593243Y-58140900D01*
X45592758Y-58696661D01*
X45804990Y-59210303D01*
X46197630Y-59603629D01*
X46389727Y-59683395D01*
X46258857Y-59737603D01*
X46189392Y-59979787D01*
X46990000Y-60780395D01*
X47790608Y-59979787D01*
X47721143Y-59737603D01*
X47580682Y-59687491D01*
X47780303Y-59605010D01*
X48173629Y-59212370D01*
X48386757Y-58699100D01*
X48387242Y-58143339D01*
X48175010Y-57629697D01*
X47782370Y-57236371D01*
X47574488Y-57150051D01*
X47780303Y-57065010D01*
X48173629Y-56672370D01*
X48386757Y-56159100D01*
X48387242Y-55603339D01*
X48175010Y-55089697D01*
X47782370Y-54696371D01*
X47574488Y-54610051D01*
X47780303Y-54525010D01*
X48173629Y-54132370D01*
X48386757Y-53619100D01*
X48387242Y-53063339D01*
X48175010Y-52549697D01*
X47782370Y-52156371D01*
X47574488Y-52070051D01*
X47780303Y-51985010D01*
X48173629Y-51592370D01*
X48386757Y-51079100D01*
X48387242Y-50523339D01*
X48175010Y-50009697D01*
X47782370Y-49616371D01*
X47574488Y-49530051D01*
X47780303Y-49445010D01*
X48173629Y-49052370D01*
X48386757Y-48539100D01*
X48387242Y-47983339D01*
X48175010Y-47469697D01*
X47782370Y-47076371D01*
X47574488Y-46990051D01*
X47780303Y-46905010D01*
X48173629Y-46512370D01*
X48386757Y-45999100D01*
X48387242Y-45443339D01*
X48175010Y-44929697D01*
X47782370Y-44536371D01*
X47574488Y-44450051D01*
X47780303Y-44365010D01*
X48173629Y-43972370D01*
X48386757Y-43459100D01*
X48387242Y-42903339D01*
X48175010Y-42389697D01*
X47782370Y-41996371D01*
X47574488Y-41910051D01*
X47780303Y-41825010D01*
X48173629Y-41432370D01*
X48386757Y-40919100D01*
X48387242Y-40363339D01*
X48175010Y-39849697D01*
X47782370Y-39456371D01*
X47574488Y-39370051D01*
X47780303Y-39285010D01*
X48173629Y-38892370D01*
X48386757Y-38379100D01*
X48387242Y-37823339D01*
X48175010Y-37309697D01*
X47782370Y-36916371D01*
X47574488Y-36830051D01*
X47780303Y-36745010D01*
X48173629Y-36352370D01*
X48386757Y-35839100D01*
X48387242Y-35283339D01*
X48175010Y-34769697D01*
X47782370Y-34376371D01*
X47574488Y-34290051D01*
X47780303Y-34205010D01*
X48173629Y-33812370D01*
X48386757Y-33299100D01*
X48387242Y-32743339D01*
X48175010Y-32229697D01*
X47782370Y-31836371D01*
X47574488Y-31750051D01*
X47780303Y-31665010D01*
X48173629Y-31272370D01*
X48386757Y-30759100D01*
X48387242Y-30203339D01*
X48175010Y-29689697D01*
X47782370Y-29296371D01*
X47574488Y-29210051D01*
X47780303Y-29125010D01*
X48173629Y-28732370D01*
X48386757Y-28219100D01*
X48387242Y-27663339D01*
X48175010Y-27149697D01*
X47782370Y-26756371D01*
X47269100Y-26543243D01*
X46713339Y-26542758D01*
X46199697Y-26754990D01*
X45806371Y-27147630D01*
X45593243Y-27660900D01*
X45592758Y-28216661D01*
X45804990Y-28730303D01*
X46197630Y-29123629D01*
X46405512Y-29209949D01*
X46199697Y-29294990D01*
X45806371Y-29687630D01*
X45593243Y-30200900D01*
X45592758Y-30756661D01*
X45804990Y-31270303D01*
X46197630Y-31663629D01*
X46405512Y-31749949D01*
X46199697Y-31834990D01*
X45806371Y-32227630D01*
X45593243Y-32740900D01*
X45592758Y-33296661D01*
X45804990Y-33810303D01*
X46197630Y-34203629D01*
X46405512Y-34289949D01*
X46199697Y-34374990D01*
X45806371Y-34767630D01*
X45593243Y-35280900D01*
X45592758Y-35836661D01*
X45804990Y-36350303D01*
X46197630Y-36743629D01*
X46405512Y-36829949D01*
X46199697Y-36914990D01*
X45806371Y-37307630D01*
X45593243Y-37820900D01*
X45592758Y-38376661D01*
X45804990Y-38890303D01*
X46197630Y-39283629D01*
X46405512Y-39369949D01*
X46199697Y-39454990D01*
X45806371Y-39847630D01*
X45593243Y-40360900D01*
X45592758Y-40916661D01*
X45804990Y-41430303D01*
X46197630Y-41823629D01*
X46405512Y-41909949D01*
X46199697Y-41994990D01*
X45806371Y-42387630D01*
X45593243Y-42900900D01*
X45592758Y-43456661D01*
X45804990Y-43970303D01*
X46197630Y-44363629D01*
X46405512Y-44449949D01*
X46199697Y-44534990D01*
X45806371Y-44927630D01*
X45593243Y-45440900D01*
X45592758Y-45996661D01*
X45804990Y-46510303D01*
X46197630Y-46903629D01*
X46405512Y-46989949D01*
X46199697Y-47074990D01*
X45806371Y-47467630D01*
X45593243Y-47980900D01*
X45592758Y-48536661D01*
X45804990Y-49050303D01*
X46197630Y-49443629D01*
X46405512Y-49529949D01*
X46199697Y-49614990D01*
X45876873Y-49937251D01*
X44312423Y-49974500D01*
X24701500Y-49974500D01*
X24644171Y-49985903D01*
X24585845Y-49982055D01*
X24475534Y-50019447D01*
X24361294Y-50042171D01*
X24312691Y-50074647D01*
X24257334Y-50093411D01*
X20823799Y-52073775D01*
X20803824Y-52043880D01*
X20273391Y-51689457D01*
X19647704Y-51565000D01*
X17952296Y-51565000D01*
X17326609Y-51689457D01*
X16796176Y-52043880D01*
X16441753Y-52574313D01*
X16317296Y-53200000D01*
X13360400Y-53200000D01*
X13360400Y-44700000D01*
X16352560Y-44700000D01*
X16352560Y-46700000D01*
X16396838Y-46935317D01*
X16535910Y-47151441D01*
X16748110Y-47296431D01*
X17000000Y-47347440D01*
X20600000Y-47347440D01*
X20835317Y-47303162D01*
X21051441Y-47164090D01*
X21196431Y-46951890D01*
X21247440Y-46700000D01*
X21247440Y-44700000D01*
X21203162Y-44464683D01*
X21064090Y-44248559D01*
X20851890Y-44103569D01*
X20600000Y-44052560D01*
X17000000Y-44052560D01*
X16764683Y-44096838D01*
X16548559Y-44235910D01*
X16403569Y-44448110D01*
X16352560Y-44700000D01*
X13360400Y-44700000D01*
X13360400Y-35100000D01*
X16317296Y-35100000D01*
X16441753Y-35725687D01*
X16796176Y-36256120D01*
X17326609Y-36610543D01*
X17952296Y-36735000D01*
X19647704Y-36735000D01*
X20273391Y-36610543D01*
X20803824Y-36256120D01*
X21158247Y-35725687D01*
X21282704Y-35100000D01*
X21158247Y-34474313D01*
X20803824Y-33943880D01*
X20273391Y-33589457D01*
X19647704Y-33465000D01*
X17952296Y-33465000D01*
X17326609Y-33589457D01*
X16796176Y-33943880D01*
X16441753Y-34474313D01*
X16317296Y-35100000D01*
X13360400Y-35100000D01*
X13360400Y-31408000D01*
X26188560Y-31408000D01*
X26188560Y-33108000D01*
X26232838Y-33343317D01*
X26371910Y-33559441D01*
X26584110Y-33704431D01*
X26836000Y-33755440D01*
X28536000Y-33755440D01*
X28771317Y-33711162D01*
X28987441Y-33572090D01*
X29132431Y-33359890D01*
X29183440Y-33108000D01*
X29183440Y-32392367D01*
X29265438Y-32392367D01*
X29407483Y-32736143D01*
X29670273Y-32999392D01*
X30013801Y-33142038D01*
X30385767Y-33142362D01*
X30497488Y-33096200D01*
X33197800Y-33096200D01*
X33538006Y-33028529D01*
X33826418Y-32835818D01*
X41694036Y-24968200D01*
X59143964Y-24968200D01*
X58045382Y-26066782D01*
X57852671Y-26355194D01*
X57785000Y-26695400D01*
X57785000Y-37371011D01*
X57739162Y-37481401D01*
X57738838Y-37853367D01*
X57880883Y-38197143D01*
X58143673Y-38460392D01*
X58487201Y-38603038D01*
X58859167Y-38603362D01*
X59202943Y-38461317D01*
X59466192Y-38198527D01*
X59608838Y-37854999D01*
X59609162Y-37483033D01*
X59563000Y-37371312D01*
X59563000Y-27063636D01*
X60159836Y-26466800D01*
X62420564Y-26466800D01*
X62496996Y-26543232D01*
X61953339Y-26542758D01*
X61439697Y-26754990D01*
X61046371Y-27147630D01*
X60833243Y-27660900D01*
X60832758Y-28216661D01*
X61044990Y-28730303D01*
X61437630Y-29123629D01*
X61645512Y-29209949D01*
X61439697Y-29294990D01*
X61046371Y-29687630D01*
X60833243Y-30200900D01*
X60832758Y-30756661D01*
X61044990Y-31270303D01*
X61437630Y-31663629D01*
X61645512Y-31749949D01*
X61439697Y-31834990D01*
X61046371Y-32227630D01*
X60833243Y-32740900D01*
X60832758Y-33296661D01*
X61044990Y-33810303D01*
X61437630Y-34203629D01*
X61645512Y-34289949D01*
X61439697Y-34374990D01*
X61046371Y-34767630D01*
X60833243Y-35280900D01*
X60832758Y-35836661D01*
X61044990Y-36350303D01*
X61437630Y-36743629D01*
X61645512Y-36829949D01*
X61439697Y-36914990D01*
X61046371Y-37307630D01*
X60833243Y-37820900D01*
X60832758Y-38376661D01*
X61044990Y-38890303D01*
X61437630Y-39283629D01*
X61645512Y-39369949D01*
X61439697Y-39454990D01*
X61046371Y-39847630D01*
X60833243Y-40360900D01*
X60832758Y-40916661D01*
X61044990Y-41430303D01*
X61437630Y-41823629D01*
X61645512Y-41909949D01*
X61439697Y-41994990D01*
X61046371Y-42387630D01*
X60833243Y-42900900D01*
X60832758Y-43456661D01*
X61044990Y-43970303D01*
X61437630Y-44363629D01*
X61645512Y-44449949D01*
X61439697Y-44534990D01*
X61046371Y-44927630D01*
X60833243Y-45440900D01*
X60832758Y-45996661D01*
X61044990Y-46510303D01*
X61437630Y-46903629D01*
X61645512Y-46989949D01*
X61439697Y-47074990D01*
X61046371Y-47467630D01*
X60833243Y-47980900D01*
X60832758Y-48536661D01*
X61044990Y-49050303D01*
X61437630Y-49443629D01*
X61645512Y-49529949D01*
X61439697Y-49614990D01*
X61046371Y-50007630D01*
X60833243Y-50520900D01*
X60832758Y-51076661D01*
X61044990Y-51590303D01*
X61437630Y-51983629D01*
X61645512Y-52069949D01*
X61439697Y-52154990D01*
X61046371Y-52547630D01*
X60833243Y-53060900D01*
X60832758Y-53616661D01*
X61044990Y-54130303D01*
X61437630Y-54523629D01*
X61629727Y-54603395D01*
X61498857Y-54657603D01*
X61429392Y-54899787D01*
X62230000Y-55700395D01*
X63030608Y-54899787D01*
X62961143Y-54657603D01*
X62820682Y-54607491D01*
X63020303Y-54525010D01*
X63413629Y-54132370D01*
X63626757Y-53619100D01*
X63627242Y-53063339D01*
X63415010Y-52549697D01*
X63022370Y-52156371D01*
X62814488Y-52070051D01*
X63020303Y-51985010D01*
X63413629Y-51592370D01*
X63626757Y-51079100D01*
X63627242Y-50523339D01*
X63415010Y-50009697D01*
X63022370Y-49616371D01*
X62814488Y-49530051D01*
X63020303Y-49445010D01*
X63413629Y-49052370D01*
X63626757Y-48539100D01*
X63627242Y-47983339D01*
X63415010Y-47469697D01*
X63022370Y-47076371D01*
X62814488Y-46990051D01*
X63020303Y-46905010D01*
X63413629Y-46512370D01*
X63626757Y-45999100D01*
X63627242Y-45443339D01*
X63415010Y-44929697D01*
X63022370Y-44536371D01*
X62814488Y-44450051D01*
X63020303Y-44365010D01*
X63413629Y-43972370D01*
X63626757Y-43459100D01*
X63627242Y-42903339D01*
X63415010Y-42389697D01*
X63022370Y-41996371D01*
X62814488Y-41910051D01*
X63020303Y-41825010D01*
X63413629Y-41432370D01*
X63626757Y-40919100D01*
X63627242Y-40363339D01*
X63415010Y-39849697D01*
X63022370Y-39456371D01*
X62814488Y-39370051D01*
X63020303Y-39285010D01*
X63413629Y-38892370D01*
X63626757Y-38379100D01*
X63627242Y-37823339D01*
X63415010Y-37309697D01*
X63022370Y-36916371D01*
X62814488Y-36830051D01*
X63020303Y-36745010D01*
X63413629Y-36352370D01*
X63626757Y-35839100D01*
X63627242Y-35283339D01*
X63415010Y-34769697D01*
X63022370Y-34376371D01*
X62814488Y-34290051D01*
X63020303Y-34205010D01*
X63413629Y-33812370D01*
X63626757Y-33299100D01*
X63627242Y-32743339D01*
X63415010Y-32229697D01*
X63022370Y-31836371D01*
X62814488Y-31750051D01*
X63020303Y-31665010D01*
X63413629Y-31272370D01*
X63626757Y-30759100D01*
X63627242Y-30203339D01*
X63415010Y-29689697D01*
X63022370Y-29296371D01*
X62814488Y-29210051D01*
X63020303Y-29125010D01*
X63413629Y-28732370D01*
X63537692Y-28433594D01*
X63593071Y-28712006D01*
X63675465Y-28835317D01*
X63785782Y-29000418D01*
X66751200Y-31965836D01*
X66751200Y-63563564D01*
X65773364Y-64541400D01*
X63569634Y-64541400D01*
X63588431Y-64513890D01*
X63639440Y-64262000D01*
X63639440Y-62738000D01*
X63595162Y-62502683D01*
X63456090Y-62286559D01*
X63243890Y-62141569D01*
X63060876Y-62104508D01*
X63413629Y-61752370D01*
X63626757Y-61239100D01*
X63627242Y-60683339D01*
X63415010Y-60169697D01*
X63022370Y-59776371D01*
X62814488Y-59690051D01*
X63020303Y-59605010D01*
X63413629Y-59212370D01*
X63626757Y-58699100D01*
X63627242Y-58143339D01*
X63415010Y-57629697D01*
X63022370Y-57236371D01*
X62830273Y-57156605D01*
X62961143Y-57102397D01*
X63030608Y-56860213D01*
X62230000Y-56059605D01*
X61429392Y-56860213D01*
X61498857Y-57102397D01*
X61639318Y-57152509D01*
X61439697Y-57234990D01*
X61046371Y-57627630D01*
X60833243Y-58140900D01*
X60832758Y-58696661D01*
X61044990Y-59210303D01*
X61437630Y-59603629D01*
X61645512Y-59689949D01*
X61439697Y-59774990D01*
X61046371Y-60167630D01*
X60833243Y-60680900D01*
X60832758Y-61236661D01*
X61044990Y-61750303D01*
X61397833Y-62103763D01*
X61232683Y-62134838D01*
X61016559Y-62273910D01*
X60871569Y-62486110D01*
X60820560Y-62738000D01*
X60820560Y-64262000D01*
X60864838Y-64497317D01*
X60893205Y-64541400D01*
X53162200Y-64541400D01*
X52821995Y-64609070D01*
X52533582Y-64801782D01*
X50933382Y-66401982D01*
X50740671Y-66690394D01*
X50673000Y-67030600D01*
X50673000Y-68536811D01*
X50627162Y-68647201D01*
X50626838Y-69019167D01*
X50768883Y-69362943D01*
X51031673Y-69626192D01*
X51375201Y-69768838D01*
X51747167Y-69769162D01*
X52090943Y-69627117D01*
X52354192Y-69364327D01*
X52496838Y-69020799D01*
X52497162Y-68648833D01*
X52451000Y-68537112D01*
X52451000Y-67398836D01*
X53530436Y-66319400D01*
X66141600Y-66319400D01*
X66481806Y-66251729D01*
X66770218Y-66059018D01*
X68268818Y-64560418D01*
X68461529Y-64272006D01*
X68529200Y-63931800D01*
X68529200Y-31597600D01*
X68461529Y-31257394D01*
X68268818Y-30968982D01*
X65954390Y-28654554D01*
X66010143Y-28631517D01*
X66273392Y-28368727D01*
X66416038Y-28025199D01*
X66416362Y-27653233D01*
X66370200Y-27541512D01*
X66370200Y-25831800D01*
X66302529Y-25491594D01*
X66109818Y-25203182D01*
X64357218Y-23450582D01*
X64068806Y-23257871D01*
X63728600Y-23190200D01*
X41325800Y-23190200D01*
X40985594Y-23257871D01*
X40697182Y-23450582D01*
X32829564Y-31318200D01*
X30497789Y-31318200D01*
X30387399Y-31272362D01*
X30015433Y-31272038D01*
X29671657Y-31414083D01*
X29408408Y-31676873D01*
X29265762Y-32020401D01*
X29265438Y-32392367D01*
X29183440Y-32392367D01*
X29183440Y-31408000D01*
X29139162Y-31172683D01*
X29000090Y-30956559D01*
X28787890Y-30811569D01*
X28679893Y-30789699D01*
X28957645Y-30484924D01*
X29127476Y-30074890D01*
X29006155Y-29845000D01*
X27813000Y-29845000D01*
X27813000Y-29865000D01*
X27559000Y-29865000D01*
X27559000Y-29845000D01*
X26365845Y-29845000D01*
X26244524Y-30074890D01*
X26414355Y-30484924D01*
X26690501Y-30787937D01*
X26600683Y-30804838D01*
X26384559Y-30943910D01*
X26239569Y-31156110D01*
X26188560Y-31408000D01*
X13360400Y-31408000D01*
X13360400Y-29361110D01*
X26244524Y-29361110D01*
X26365845Y-29591000D01*
X27559000Y-29591000D01*
X27559000Y-28397181D01*
X27813000Y-28397181D01*
X27813000Y-29591000D01*
X29006155Y-29591000D01*
X29127476Y-29361110D01*
X28957645Y-28951076D01*
X28567358Y-28522817D01*
X28042892Y-28276514D01*
X27813000Y-28397181D01*
X27559000Y-28397181D01*
X27329108Y-28276514D01*
X26804642Y-28522817D01*
X26414355Y-28951076D01*
X26244524Y-29361110D01*
X13360400Y-29361110D01*
X13360400Y-26600000D01*
X16352560Y-26600000D01*
X16352560Y-28600000D01*
X16396838Y-28835317D01*
X16535910Y-29051441D01*
X16748110Y-29196431D01*
X17000000Y-29247440D01*
X20600000Y-29247440D01*
X20835317Y-29203162D01*
X21051441Y-29064090D01*
X21196431Y-28851890D01*
X21247440Y-28600000D01*
X21247440Y-26600000D01*
X21203162Y-26364683D01*
X21064090Y-26148559D01*
X20851890Y-26003569D01*
X20600000Y-25952560D01*
X17000000Y-25952560D01*
X16764683Y-25996838D01*
X16548559Y-26135910D01*
X16403569Y-26348110D01*
X16352560Y-26600000D01*
X13360400Y-26600000D01*
X13360400Y-25820000D01*
X31014560Y-25820000D01*
X31014560Y-27520000D01*
X31058838Y-27755317D01*
X31197910Y-27971441D01*
X31410110Y-28116431D01*
X31662000Y-28167440D01*
X33362000Y-28167440D01*
X33597317Y-28123162D01*
X33813441Y-27984090D01*
X33958431Y-27771890D01*
X33980301Y-27663893D01*
X34285076Y-27941645D01*
X34695110Y-28111476D01*
X34925000Y-27990155D01*
X34925000Y-26797000D01*
X35179000Y-26797000D01*
X35179000Y-27990155D01*
X35408890Y-28111476D01*
X35818924Y-27941645D01*
X36247183Y-27551358D01*
X36493486Y-27026892D01*
X36372819Y-26797000D01*
X35179000Y-26797000D01*
X34925000Y-26797000D01*
X34905000Y-26797000D01*
X34905000Y-26543000D01*
X34925000Y-26543000D01*
X34925000Y-25349845D01*
X35179000Y-25349845D01*
X35179000Y-26543000D01*
X36372819Y-26543000D01*
X36493486Y-26313108D01*
X36247183Y-25788642D01*
X35818924Y-25398355D01*
X35408890Y-25228524D01*
X35179000Y-25349845D01*
X34925000Y-25349845D01*
X34695110Y-25228524D01*
X34285076Y-25398355D01*
X33982063Y-25674501D01*
X33965162Y-25584683D01*
X33826090Y-25368559D01*
X33613890Y-25223569D01*
X33362000Y-25172560D01*
X31662000Y-25172560D01*
X31426683Y-25216838D01*
X31210559Y-25355910D01*
X31065569Y-25568110D01*
X31014560Y-25820000D01*
X13360400Y-25820000D01*
X13360400Y-18912607D01*
X13883522Y-20178658D01*
X15214336Y-21511797D01*
X16954018Y-22234176D01*
X18837718Y-22235820D01*
X20578658Y-21516478D01*
X21911797Y-20185664D01*
X22634176Y-18445982D01*
X22634694Y-17852296D01*
X39065000Y-17852296D01*
X39065000Y-19547704D01*
X39189457Y-20173391D01*
X39543880Y-20703824D01*
X40074313Y-21058247D01*
X40700000Y-21182704D01*
X41325687Y-21058247D01*
X41856120Y-20703824D01*
X42210543Y-20173391D01*
X42335000Y-19547704D01*
X42335000Y-17852296D01*
X42210543Y-17226609D01*
X41992311Y-16900000D01*
X46552560Y-16900000D01*
X46552560Y-20500000D01*
X46596838Y-20735317D01*
X46735910Y-20951441D01*
X46948110Y-21096431D01*
X47200000Y-21147440D01*
X49200000Y-21147440D01*
X49435317Y-21103162D01*
X49651441Y-20964090D01*
X49796431Y-20751890D01*
X49847440Y-20500000D01*
X49847440Y-19580661D01*
X67436758Y-19580661D01*
X67648990Y-20094303D01*
X68041630Y-20487629D01*
X68554900Y-20700757D01*
X69110661Y-20701242D01*
X69624303Y-20489010D01*
X69829457Y-20284213D01*
X73113392Y-20284213D01*
X73182857Y-20526397D01*
X73706302Y-20713144D01*
X74261368Y-20685362D01*
X74645143Y-20526397D01*
X74714608Y-20284213D01*
X77939392Y-20284213D01*
X78008857Y-20526397D01*
X78532302Y-20713144D01*
X79087368Y-20685362D01*
X79471143Y-20526397D01*
X79540608Y-20284213D01*
X78740000Y-19483605D01*
X77939392Y-20284213D01*
X74714608Y-20284213D01*
X73914000Y-19483605D01*
X73113392Y-20284213D01*
X69829457Y-20284213D01*
X70017629Y-20096370D01*
X70230757Y-19583100D01*
X70231181Y-19096302D01*
X72504856Y-19096302D01*
X72532638Y-19651368D01*
X72691603Y-20035143D01*
X72933787Y-20104608D01*
X73734395Y-19304000D01*
X74093605Y-19304000D01*
X74894213Y-20104608D01*
X75136397Y-20035143D01*
X75323144Y-19511698D01*
X75302353Y-19096302D01*
X77330856Y-19096302D01*
X77358638Y-19651368D01*
X77517603Y-20035143D01*
X77759787Y-20104608D01*
X78560395Y-19304000D01*
X78919605Y-19304000D01*
X79720213Y-20104608D01*
X79962397Y-20035143D01*
X80136788Y-19546332D01*
X80136758Y-19580661D01*
X80348990Y-20094303D01*
X80741630Y-20487629D01*
X81254900Y-20700757D01*
X81810661Y-20701242D01*
X82324303Y-20489010D01*
X82717629Y-20096370D01*
X82930757Y-19583100D01*
X82931242Y-19027339D01*
X82719010Y-18513697D01*
X82326370Y-18120371D01*
X81813100Y-17907243D01*
X81257339Y-17906758D01*
X80743697Y-18118990D01*
X80350371Y-18511630D01*
X80137243Y-19024900D01*
X80137029Y-19269656D01*
X80121362Y-18956632D01*
X79962397Y-18572857D01*
X79720213Y-18503392D01*
X78919605Y-19304000D01*
X78560395Y-19304000D01*
X77759787Y-18503392D01*
X77517603Y-18572857D01*
X77330856Y-19096302D01*
X75302353Y-19096302D01*
X75295362Y-18956632D01*
X75136397Y-18572857D01*
X74894213Y-18503392D01*
X74093605Y-19304000D01*
X73734395Y-19304000D01*
X72933787Y-18503392D01*
X72691603Y-18572857D01*
X72504856Y-19096302D01*
X70231181Y-19096302D01*
X70231242Y-19027339D01*
X70019010Y-18513697D01*
X69829432Y-18323787D01*
X73113392Y-18323787D01*
X73914000Y-19124395D01*
X74714608Y-18323787D01*
X77939392Y-18323787D01*
X78740000Y-19124395D01*
X79540608Y-18323787D01*
X79471143Y-18081603D01*
X78947698Y-17894856D01*
X78392632Y-17922638D01*
X78008857Y-18081603D01*
X77939392Y-18323787D01*
X74714608Y-18323787D01*
X74645143Y-18081603D01*
X74121698Y-17894856D01*
X73566632Y-17922638D01*
X73182857Y-18081603D01*
X73113392Y-18323787D01*
X69829432Y-18323787D01*
X69626370Y-18120371D01*
X69113100Y-17907243D01*
X68557339Y-17906758D01*
X68043697Y-18118990D01*
X67650371Y-18511630D01*
X67437243Y-19024900D01*
X67436758Y-19580661D01*
X49847440Y-19580661D01*
X49847440Y-16900000D01*
X49803162Y-16664683D01*
X49664090Y-16448559D01*
X49451890Y-16303569D01*
X49200000Y-16252560D01*
X47200000Y-16252560D01*
X46964683Y-16296838D01*
X46748559Y-16435910D01*
X46603569Y-16648110D01*
X46552560Y-16900000D01*
X41992311Y-16900000D01*
X41856120Y-16696176D01*
X41325687Y-16341753D01*
X40700000Y-16217296D01*
X40074313Y-16341753D01*
X39543880Y-16696176D01*
X39189457Y-17226609D01*
X39065000Y-17852296D01*
X22634694Y-17852296D01*
X22635820Y-16562282D01*
X21916478Y-14821342D01*
X20585664Y-13488203D01*
X18932140Y-12801600D01*
X116662200Y-12801600D01*
X116662200Y-17158640D01*
X116662200Y-17158640D01*
G37*
X116662200Y-17158640D02*
X116313482Y-17703511D01*
X85776327Y-17576801D01*
X85726876Y-17586602D01*
X85685134Y-17614870D01*
X85657678Y-17657150D01*
X85648800Y-17703800D01*
X85648800Y-23039505D01*
X76376084Y-23164812D01*
X76326814Y-23175484D01*
X76285577Y-23204485D01*
X76258873Y-23247244D01*
X76250800Y-23291800D01*
X76250800Y-72491600D01*
X25349200Y-72491600D01*
X25299790Y-72501606D01*
X25258165Y-72530047D01*
X25230885Y-72572441D01*
X25222200Y-72618600D01*
X25222200Y-79298800D01*
X13360400Y-79298800D01*
X13360400Y-76080434D01*
X16409876Y-76080434D01*
X16440856Y-76208355D01*
X16754078Y-76766317D01*
X17256980Y-77161942D01*
X17873000Y-77335000D01*
X18673000Y-77335000D01*
X18673000Y-75827000D01*
X18927000Y-75827000D01*
X18927000Y-77335000D01*
X19727000Y-77335000D01*
X20343020Y-77161942D01*
X20845922Y-76766317D01*
X21159144Y-76208355D01*
X21190124Y-76080434D01*
X21070777Y-75827000D01*
X18927000Y-75827000D01*
X18673000Y-75827000D01*
X16529223Y-75827000D01*
X16409876Y-76080434D01*
X13360400Y-76080434D01*
X13360400Y-75319566D01*
X16409876Y-75319566D01*
X16529223Y-75573000D01*
X18673000Y-75573000D01*
X18673000Y-74065000D01*
X18927000Y-74065000D01*
X18927000Y-75573000D01*
X21070777Y-75573000D01*
X21190124Y-75319566D01*
X21159144Y-75191645D01*
X20845922Y-74633683D01*
X20343020Y-74238058D01*
X19727000Y-74065000D01*
X18927000Y-74065000D01*
X18673000Y-74065000D01*
X17873000Y-74065000D01*
X17256980Y-74238058D01*
X16754078Y-74633683D01*
X16440856Y-75191645D01*
X16409876Y-75319566D01*
X13360400Y-75319566D01*
X13360400Y-68580434D01*
X16409876Y-68580434D01*
X16440856Y-68708355D01*
X16754078Y-69266317D01*
X17256980Y-69661942D01*
X17873000Y-69835000D01*
X18673000Y-69835000D01*
X18673000Y-68327000D01*
X18927000Y-68327000D01*
X18927000Y-69835000D01*
X19727000Y-69835000D01*
X20343020Y-69661942D01*
X20837214Y-69273167D01*
X41736838Y-69273167D01*
X41878883Y-69616943D01*
X42141673Y-69880192D01*
X42485201Y-70022838D01*
X42857167Y-70023162D01*
X42968888Y-69977000D01*
X44577000Y-69977000D01*
X44917206Y-69909329D01*
X45205618Y-69716618D01*
X55187818Y-59734418D01*
X55380530Y-59446005D01*
X55448200Y-59105800D01*
X55448200Y-55672302D01*
X60820856Y-55672302D01*
X60848638Y-56227368D01*
X61007603Y-56611143D01*
X61249787Y-56680608D01*
X62050395Y-55880000D01*
X62409605Y-55880000D01*
X63210213Y-56680608D01*
X63452397Y-56611143D01*
X63639144Y-56087698D01*
X63611362Y-55532632D01*
X63452397Y-55148857D01*
X63210213Y-55079392D01*
X62409605Y-55880000D01*
X62050395Y-55880000D01*
X61249787Y-55079392D01*
X61007603Y-55148857D01*
X60820856Y-55672302D01*
X55448200Y-55672302D01*
X55448200Y-46880789D01*
X55494038Y-46770399D01*
X55494362Y-46398433D01*
X55352317Y-46054657D01*
X55089527Y-45791408D01*
X54745999Y-45648762D01*
X54374033Y-45648438D01*
X54030257Y-45790483D01*
X53767008Y-46053273D01*
X53624362Y-46396801D01*
X53624038Y-46768767D01*
X53670200Y-46880488D01*
X53670200Y-58737564D01*
X48214981Y-64192783D01*
X48386757Y-63779100D01*
X48387242Y-63223339D01*
X48175010Y-62709697D01*
X47782370Y-62316371D01*
X47590273Y-62236605D01*
X47721143Y-62182397D01*
X47790608Y-61940213D01*
X46990000Y-61139605D01*
X46189392Y-61940213D01*
X46258857Y-62182397D01*
X46399318Y-62232509D01*
X46199697Y-62314990D01*
X45806371Y-62707630D01*
X45593243Y-63220900D01*
X45592758Y-63776661D01*
X45804990Y-64290303D01*
X46197630Y-64683629D01*
X46710900Y-64896757D01*
X47266661Y-64897242D01*
X47682232Y-64725532D01*
X44208764Y-68199000D01*
X42969189Y-68199000D01*
X42858799Y-68153162D01*
X42486833Y-68152838D01*
X42143057Y-68294883D01*
X41879808Y-68557673D01*
X41737162Y-68901201D01*
X41736838Y-69273167D01*
X20837214Y-69273167D01*
X20845922Y-69266317D01*
X21159144Y-68708355D01*
X21190124Y-68580434D01*
X21070777Y-68327000D01*
X18927000Y-68327000D01*
X18673000Y-68327000D01*
X16529223Y-68327000D01*
X16409876Y-68580434D01*
X13360400Y-68580434D01*
X13360400Y-67819566D01*
X16409876Y-67819566D01*
X16529223Y-68073000D01*
X18673000Y-68073000D01*
X18673000Y-66565000D01*
X18927000Y-66565000D01*
X18927000Y-68073000D01*
X21070777Y-68073000D01*
X21190124Y-67819566D01*
X21159144Y-67691645D01*
X20845922Y-67133683D01*
X20343020Y-66738058D01*
X19727000Y-66565000D01*
X18927000Y-66565000D01*
X18673000Y-66565000D01*
X17873000Y-66565000D01*
X17256980Y-66738058D01*
X16754078Y-67133683D01*
X16440856Y-67691645D01*
X16409876Y-67819566D01*
X13360400Y-67819566D01*
X13360400Y-53200000D01*
X16317296Y-53200000D01*
X16441753Y-53825687D01*
X16796176Y-54356120D01*
X17326609Y-54710543D01*
X17952296Y-54835000D01*
X19647704Y-54835000D01*
X20273391Y-54710543D01*
X20803824Y-54356120D01*
X21052125Y-53984510D01*
X21094665Y-53970090D01*
X24939500Y-51752500D01*
X44323000Y-51752500D01*
X44333557Y-51750400D01*
X44344161Y-51752248D01*
X45928984Y-51714514D01*
X46197630Y-51983629D01*
X46405512Y-52069949D01*
X46199697Y-52154990D01*
X45903170Y-52451000D01*
X26670000Y-52451000D01*
X26329794Y-52518671D01*
X26120518Y-52658505D01*
X26041382Y-52711382D01*
X19681118Y-59071646D01*
X19647704Y-59065000D01*
X17952296Y-59065000D01*
X17326609Y-59189457D01*
X16796176Y-59543880D01*
X16441753Y-60074313D01*
X16317296Y-60700000D01*
X16441753Y-61325687D01*
X16796176Y-61856120D01*
X17326609Y-62210543D01*
X17952296Y-62335000D01*
X19647704Y-62335000D01*
X20273391Y-62210543D01*
X20803824Y-61856120D01*
X21158247Y-61325687D01*
X21272300Y-60752302D01*
X45580856Y-60752302D01*
X45608638Y-61307368D01*
X45767603Y-61691143D01*
X46009787Y-61760608D01*
X46810395Y-60960000D01*
X47169605Y-60960000D01*
X47970213Y-61760608D01*
X48212397Y-61691143D01*
X48399144Y-61167698D01*
X48371362Y-60612632D01*
X48212397Y-60228857D01*
X47970213Y-60159392D01*
X47169605Y-60960000D01*
X46810395Y-60960000D01*
X46009787Y-60159392D01*
X45767603Y-60228857D01*
X45580856Y-60752302D01*
X21272300Y-60752302D01*
X21282704Y-60700000D01*
X21164000Y-60103236D01*
X27038236Y-54229000D01*
X45903515Y-54229000D01*
X46197630Y-54523629D01*
X46405512Y-54609949D01*
X46199697Y-54694990D01*
X45806371Y-55087630D01*
X45593243Y-55600900D01*
X45592758Y-56156661D01*
X45804990Y-56670303D01*
X46197630Y-57063629D01*
X46405512Y-57149949D01*
X46199697Y-57234990D01*
X45806371Y-57627630D01*
X45593243Y-58140900D01*
X45592758Y-58696661D01*
X45804990Y-59210303D01*
X46197630Y-59603629D01*
X46389727Y-59683395D01*
X46258857Y-59737603D01*
X46189392Y-59979787D01*
X46990000Y-60780395D01*
X47790608Y-59979787D01*
X47721143Y-59737603D01*
X47580682Y-59687491D01*
X47780303Y-59605010D01*
X48173629Y-59212370D01*
X48386757Y-58699100D01*
X48387242Y-58143339D01*
X48175010Y-57629697D01*
X47782370Y-57236371D01*
X47574488Y-57150051D01*
X47780303Y-57065010D01*
X48173629Y-56672370D01*
X48386757Y-56159100D01*
X48387242Y-55603339D01*
X48175010Y-55089697D01*
X47782370Y-54696371D01*
X47574488Y-54610051D01*
X47780303Y-54525010D01*
X48173629Y-54132370D01*
X48386757Y-53619100D01*
X48387242Y-53063339D01*
X48175010Y-52549697D01*
X47782370Y-52156371D01*
X47574488Y-52070051D01*
X47780303Y-51985010D01*
X48173629Y-51592370D01*
X48386757Y-51079100D01*
X48387242Y-50523339D01*
X48175010Y-50009697D01*
X47782370Y-49616371D01*
X47574488Y-49530051D01*
X47780303Y-49445010D01*
X48173629Y-49052370D01*
X48386757Y-48539100D01*
X48387242Y-47983339D01*
X48175010Y-47469697D01*
X47782370Y-47076371D01*
X47574488Y-46990051D01*
X47780303Y-46905010D01*
X48173629Y-46512370D01*
X48386757Y-45999100D01*
X48387242Y-45443339D01*
X48175010Y-44929697D01*
X47782370Y-44536371D01*
X47574488Y-44450051D01*
X47780303Y-44365010D01*
X48173629Y-43972370D01*
X48386757Y-43459100D01*
X48387242Y-42903339D01*
X48175010Y-42389697D01*
X47782370Y-41996371D01*
X47574488Y-41910051D01*
X47780303Y-41825010D01*
X48173629Y-41432370D01*
X48386757Y-40919100D01*
X48387242Y-40363339D01*
X48175010Y-39849697D01*
X47782370Y-39456371D01*
X47574488Y-39370051D01*
X47780303Y-39285010D01*
X48173629Y-38892370D01*
X48386757Y-38379100D01*
X48387242Y-37823339D01*
X48175010Y-37309697D01*
X47782370Y-36916371D01*
X47574488Y-36830051D01*
X47780303Y-36745010D01*
X48173629Y-36352370D01*
X48386757Y-35839100D01*
X48387242Y-35283339D01*
X48175010Y-34769697D01*
X47782370Y-34376371D01*
X47574488Y-34290051D01*
X47780303Y-34205010D01*
X48173629Y-33812370D01*
X48386757Y-33299100D01*
X48387242Y-32743339D01*
X48175010Y-32229697D01*
X47782370Y-31836371D01*
X47574488Y-31750051D01*
X47780303Y-31665010D01*
X48173629Y-31272370D01*
X48386757Y-30759100D01*
X48387242Y-30203339D01*
X48175010Y-29689697D01*
X47782370Y-29296371D01*
X47574488Y-29210051D01*
X47780303Y-29125010D01*
X48173629Y-28732370D01*
X48386757Y-28219100D01*
X48387242Y-27663339D01*
X48175010Y-27149697D01*
X47782370Y-26756371D01*
X47269100Y-26543243D01*
X46713339Y-26542758D01*
X46199697Y-26754990D01*
X45806371Y-27147630D01*
X45593243Y-27660900D01*
X45592758Y-28216661D01*
X45804990Y-28730303D01*
X46197630Y-29123629D01*
X46405512Y-29209949D01*
X46199697Y-29294990D01*
X45806371Y-29687630D01*
X45593243Y-30200900D01*
X45592758Y-30756661D01*
X45804990Y-31270303D01*
X46197630Y-31663629D01*
X46405512Y-31749949D01*
X46199697Y-31834990D01*
X45806371Y-32227630D01*
X45593243Y-32740900D01*
X45592758Y-33296661D01*
X45804990Y-33810303D01*
X46197630Y-34203629D01*
X46405512Y-34289949D01*
X46199697Y-34374990D01*
X45806371Y-34767630D01*
X45593243Y-35280900D01*
X45592758Y-35836661D01*
X45804990Y-36350303D01*
X46197630Y-36743629D01*
X46405512Y-36829949D01*
X46199697Y-36914990D01*
X45806371Y-37307630D01*
X45593243Y-37820900D01*
X45592758Y-38376661D01*
X45804990Y-38890303D01*
X46197630Y-39283629D01*
X46405512Y-39369949D01*
X46199697Y-39454990D01*
X45806371Y-39847630D01*
X45593243Y-40360900D01*
X45592758Y-40916661D01*
X45804990Y-41430303D01*
X46197630Y-41823629D01*
X46405512Y-41909949D01*
X46199697Y-41994990D01*
X45806371Y-42387630D01*
X45593243Y-42900900D01*
X45592758Y-43456661D01*
X45804990Y-43970303D01*
X46197630Y-44363629D01*
X46405512Y-44449949D01*
X46199697Y-44534990D01*
X45806371Y-44927630D01*
X45593243Y-45440900D01*
X45592758Y-45996661D01*
X45804990Y-46510303D01*
X46197630Y-46903629D01*
X46405512Y-46989949D01*
X46199697Y-47074990D01*
X45806371Y-47467630D01*
X45593243Y-47980900D01*
X45592758Y-48536661D01*
X45804990Y-49050303D01*
X46197630Y-49443629D01*
X46405512Y-49529949D01*
X46199697Y-49614990D01*
X45876873Y-49937251D01*
X44312423Y-49974500D01*
X24701500Y-49974500D01*
X24644171Y-49985903D01*
X24585845Y-49982055D01*
X24475534Y-50019447D01*
X24361294Y-50042171D01*
X24312691Y-50074647D01*
X24257334Y-50093411D01*
X20823799Y-52073775D01*
X20803824Y-52043880D01*
X20273391Y-51689457D01*
X19647704Y-51565000D01*
X17952296Y-51565000D01*
X17326609Y-51689457D01*
X16796176Y-52043880D01*
X16441753Y-52574313D01*
X16317296Y-53200000D01*
X13360400Y-53200000D01*
X13360400Y-44700000D01*
X16352560Y-44700000D01*
X16352560Y-46700000D01*
X16396838Y-46935317D01*
X16535910Y-47151441D01*
X16748110Y-47296431D01*
X17000000Y-47347440D01*
X20600000Y-47347440D01*
X20835317Y-47303162D01*
X21051441Y-47164090D01*
X21196431Y-46951890D01*
X21247440Y-46700000D01*
X21247440Y-44700000D01*
X21203162Y-44464683D01*
X21064090Y-44248559D01*
X20851890Y-44103569D01*
X20600000Y-44052560D01*
X17000000Y-44052560D01*
X16764683Y-44096838D01*
X16548559Y-44235910D01*
X16403569Y-44448110D01*
X16352560Y-44700000D01*
X13360400Y-44700000D01*
X13360400Y-35100000D01*
X16317296Y-35100000D01*
X16441753Y-35725687D01*
X16796176Y-36256120D01*
X17326609Y-36610543D01*
X17952296Y-36735000D01*
X19647704Y-36735000D01*
X20273391Y-36610543D01*
X20803824Y-36256120D01*
X21158247Y-35725687D01*
X21282704Y-35100000D01*
X21158247Y-34474313D01*
X20803824Y-33943880D01*
X20273391Y-33589457D01*
X19647704Y-33465000D01*
X17952296Y-33465000D01*
X17326609Y-33589457D01*
X16796176Y-33943880D01*
X16441753Y-34474313D01*
X16317296Y-35100000D01*
X13360400Y-35100000D01*
X13360400Y-31408000D01*
X26188560Y-31408000D01*
X26188560Y-33108000D01*
X26232838Y-33343317D01*
X26371910Y-33559441D01*
X26584110Y-33704431D01*
X26836000Y-33755440D01*
X28536000Y-33755440D01*
X28771317Y-33711162D01*
X28987441Y-33572090D01*
X29132431Y-33359890D01*
X29183440Y-33108000D01*
X29183440Y-32392367D01*
X29265438Y-32392367D01*
X29407483Y-32736143D01*
X29670273Y-32999392D01*
X30013801Y-33142038D01*
X30385767Y-33142362D01*
X30497488Y-33096200D01*
X33197800Y-33096200D01*
X33538006Y-33028529D01*
X33826418Y-32835818D01*
X41694036Y-24968200D01*
X59143964Y-24968200D01*
X58045382Y-26066782D01*
X57852671Y-26355194D01*
X57785000Y-26695400D01*
X57785000Y-37371011D01*
X57739162Y-37481401D01*
X57738838Y-37853367D01*
X57880883Y-38197143D01*
X58143673Y-38460392D01*
X58487201Y-38603038D01*
X58859167Y-38603362D01*
X59202943Y-38461317D01*
X59466192Y-38198527D01*
X59608838Y-37854999D01*
X59609162Y-37483033D01*
X59563000Y-37371312D01*
X59563000Y-27063636D01*
X60159836Y-26466800D01*
X62420564Y-26466800D01*
X62496996Y-26543232D01*
X61953339Y-26542758D01*
X61439697Y-26754990D01*
X61046371Y-27147630D01*
X60833243Y-27660900D01*
X60832758Y-28216661D01*
X61044990Y-28730303D01*
X61437630Y-29123629D01*
X61645512Y-29209949D01*
X61439697Y-29294990D01*
X61046371Y-29687630D01*
X60833243Y-30200900D01*
X60832758Y-30756661D01*
X61044990Y-31270303D01*
X61437630Y-31663629D01*
X61645512Y-31749949D01*
X61439697Y-31834990D01*
X61046371Y-32227630D01*
X60833243Y-32740900D01*
X60832758Y-33296661D01*
X61044990Y-33810303D01*
X61437630Y-34203629D01*
X61645512Y-34289949D01*
X61439697Y-34374990D01*
X61046371Y-34767630D01*
X60833243Y-35280900D01*
X60832758Y-35836661D01*
X61044990Y-36350303D01*
X61437630Y-36743629D01*
X61645512Y-36829949D01*
X61439697Y-36914990D01*
X61046371Y-37307630D01*
X60833243Y-37820900D01*
X60832758Y-38376661D01*
X61044990Y-38890303D01*
X61437630Y-39283629D01*
X61645512Y-39369949D01*
X61439697Y-39454990D01*
X61046371Y-39847630D01*
X60833243Y-40360900D01*
X60832758Y-40916661D01*
X61044990Y-41430303D01*
X61437630Y-41823629D01*
X61645512Y-41909949D01*
X61439697Y-41994990D01*
X61046371Y-42387630D01*
X60833243Y-42900900D01*
X60832758Y-43456661D01*
X61044990Y-43970303D01*
X61437630Y-44363629D01*
X61645512Y-44449949D01*
X61439697Y-44534990D01*
X61046371Y-44927630D01*
X60833243Y-45440900D01*
X60832758Y-45996661D01*
X61044990Y-46510303D01*
X61437630Y-46903629D01*
X61645512Y-46989949D01*
X61439697Y-47074990D01*
X61046371Y-47467630D01*
X60833243Y-47980900D01*
X60832758Y-48536661D01*
X61044990Y-49050303D01*
X61437630Y-49443629D01*
X61645512Y-49529949D01*
X61439697Y-49614990D01*
X61046371Y-50007630D01*
X60833243Y-50520900D01*
X60832758Y-51076661D01*
X61044990Y-51590303D01*
X61437630Y-51983629D01*
X61645512Y-52069949D01*
X61439697Y-52154990D01*
X61046371Y-52547630D01*
X60833243Y-53060900D01*
X60832758Y-53616661D01*
X61044990Y-54130303D01*
X61437630Y-54523629D01*
X61629727Y-54603395D01*
X61498857Y-54657603D01*
X61429392Y-54899787D01*
X62230000Y-55700395D01*
X63030608Y-54899787D01*
X62961143Y-54657603D01*
X62820682Y-54607491D01*
X63020303Y-54525010D01*
X63413629Y-54132370D01*
X63626757Y-53619100D01*
X63627242Y-53063339D01*
X63415010Y-52549697D01*
X63022370Y-52156371D01*
X62814488Y-52070051D01*
X63020303Y-51985010D01*
X63413629Y-51592370D01*
X63626757Y-51079100D01*
X63627242Y-50523339D01*
X63415010Y-50009697D01*
X63022370Y-49616371D01*
X62814488Y-49530051D01*
X63020303Y-49445010D01*
X63413629Y-49052370D01*
X63626757Y-48539100D01*
X63627242Y-47983339D01*
X63415010Y-47469697D01*
X63022370Y-47076371D01*
X62814488Y-46990051D01*
X63020303Y-46905010D01*
X63413629Y-46512370D01*
X63626757Y-45999100D01*
X63627242Y-45443339D01*
X63415010Y-44929697D01*
X63022370Y-44536371D01*
X62814488Y-44450051D01*
X63020303Y-44365010D01*
X63413629Y-43972370D01*
X63626757Y-43459100D01*
X63627242Y-42903339D01*
X63415010Y-42389697D01*
X63022370Y-41996371D01*
X62814488Y-41910051D01*
X63020303Y-41825010D01*
X63413629Y-41432370D01*
X63626757Y-40919100D01*
X63627242Y-40363339D01*
X63415010Y-39849697D01*
X63022370Y-39456371D01*
X62814488Y-39370051D01*
X63020303Y-39285010D01*
X63413629Y-38892370D01*
X63626757Y-38379100D01*
X63627242Y-37823339D01*
X63415010Y-37309697D01*
X63022370Y-36916371D01*
X62814488Y-36830051D01*
X63020303Y-36745010D01*
X63413629Y-36352370D01*
X63626757Y-35839100D01*
X63627242Y-35283339D01*
X63415010Y-34769697D01*
X63022370Y-34376371D01*
X62814488Y-34290051D01*
X63020303Y-34205010D01*
X63413629Y-33812370D01*
X63626757Y-33299100D01*
X63627242Y-32743339D01*
X63415010Y-32229697D01*
X63022370Y-31836371D01*
X62814488Y-31750051D01*
X63020303Y-31665010D01*
X63413629Y-31272370D01*
X63626757Y-30759100D01*
X63627242Y-30203339D01*
X63415010Y-29689697D01*
X63022370Y-29296371D01*
X62814488Y-29210051D01*
X63020303Y-29125010D01*
X63413629Y-28732370D01*
X63537692Y-28433594D01*
X63593071Y-28712006D01*
X63675465Y-28835317D01*
X63785782Y-29000418D01*
X66751200Y-31965836D01*
X66751200Y-63563564D01*
X65773364Y-64541400D01*
X63569634Y-64541400D01*
X63588431Y-64513890D01*
X63639440Y-64262000D01*
X63639440Y-62738000D01*
X63595162Y-62502683D01*
X63456090Y-62286559D01*
X63243890Y-62141569D01*
X63060876Y-62104508D01*
X63413629Y-61752370D01*
X63626757Y-61239100D01*
X63627242Y-60683339D01*
X63415010Y-60169697D01*
X63022370Y-59776371D01*
X62814488Y-59690051D01*
X63020303Y-59605010D01*
X63413629Y-59212370D01*
X63626757Y-58699100D01*
X63627242Y-58143339D01*
X63415010Y-57629697D01*
X63022370Y-57236371D01*
X62830273Y-57156605D01*
X62961143Y-57102397D01*
X63030608Y-56860213D01*
X62230000Y-56059605D01*
X61429392Y-56860213D01*
X61498857Y-57102397D01*
X61639318Y-57152509D01*
X61439697Y-57234990D01*
X61046371Y-57627630D01*
X60833243Y-58140900D01*
X60832758Y-58696661D01*
X61044990Y-59210303D01*
X61437630Y-59603629D01*
X61645512Y-59689949D01*
X61439697Y-59774990D01*
X61046371Y-60167630D01*
X60833243Y-60680900D01*
X60832758Y-61236661D01*
X61044990Y-61750303D01*
X61397833Y-62103763D01*
X61232683Y-62134838D01*
X61016559Y-62273910D01*
X60871569Y-62486110D01*
X60820560Y-62738000D01*
X60820560Y-64262000D01*
X60864838Y-64497317D01*
X60893205Y-64541400D01*
X53162200Y-64541400D01*
X52821995Y-64609070D01*
X52533582Y-64801782D01*
X50933382Y-66401982D01*
X50740671Y-66690394D01*
X50673000Y-67030600D01*
X50673000Y-68536811D01*
X50627162Y-68647201D01*
X50626838Y-69019167D01*
X50768883Y-69362943D01*
X51031673Y-69626192D01*
X51375201Y-69768838D01*
X51747167Y-69769162D01*
X52090943Y-69627117D01*
X52354192Y-69364327D01*
X52496838Y-69020799D01*
X52497162Y-68648833D01*
X52451000Y-68537112D01*
X52451000Y-67398836D01*
X53530436Y-66319400D01*
X66141600Y-66319400D01*
X66481806Y-66251729D01*
X66770218Y-66059018D01*
X68268818Y-64560418D01*
X68461529Y-64272006D01*
X68529200Y-63931800D01*
X68529200Y-31597600D01*
X68461529Y-31257394D01*
X68268818Y-30968982D01*
X65954390Y-28654554D01*
X66010143Y-28631517D01*
X66273392Y-28368727D01*
X66416038Y-28025199D01*
X66416362Y-27653233D01*
X66370200Y-27541512D01*
X66370200Y-25831800D01*
X66302529Y-25491594D01*
X66109818Y-25203182D01*
X64357218Y-23450582D01*
X64068806Y-23257871D01*
X63728600Y-23190200D01*
X41325800Y-23190200D01*
X40985594Y-23257871D01*
X40697182Y-23450582D01*
X32829564Y-31318200D01*
X30497789Y-31318200D01*
X30387399Y-31272362D01*
X30015433Y-31272038D01*
X29671657Y-31414083D01*
X29408408Y-31676873D01*
X29265762Y-32020401D01*
X29265438Y-32392367D01*
X29183440Y-32392367D01*
X29183440Y-31408000D01*
X29139162Y-31172683D01*
X29000090Y-30956559D01*
X28787890Y-30811569D01*
X28679893Y-30789699D01*
X28957645Y-30484924D01*
X29127476Y-30074890D01*
X29006155Y-29845000D01*
X27813000Y-29845000D01*
X27813000Y-29865000D01*
X27559000Y-29865000D01*
X27559000Y-29845000D01*
X26365845Y-29845000D01*
X26244524Y-30074890D01*
X26414355Y-30484924D01*
X26690501Y-30787937D01*
X26600683Y-30804838D01*
X26384559Y-30943910D01*
X26239569Y-31156110D01*
X26188560Y-31408000D01*
X13360400Y-31408000D01*
X13360400Y-29361110D01*
X26244524Y-29361110D01*
X26365845Y-29591000D01*
X27559000Y-29591000D01*
X27559000Y-28397181D01*
X27813000Y-28397181D01*
X27813000Y-29591000D01*
X29006155Y-29591000D01*
X29127476Y-29361110D01*
X28957645Y-28951076D01*
X28567358Y-28522817D01*
X28042892Y-28276514D01*
X27813000Y-28397181D01*
X27559000Y-28397181D01*
X27329108Y-28276514D01*
X26804642Y-28522817D01*
X26414355Y-28951076D01*
X26244524Y-29361110D01*
X13360400Y-29361110D01*
X13360400Y-26600000D01*
X16352560Y-26600000D01*
X16352560Y-28600000D01*
X16396838Y-28835317D01*
X16535910Y-29051441D01*
X16748110Y-29196431D01*
X17000000Y-29247440D01*
X20600000Y-29247440D01*
X20835317Y-29203162D01*
X21051441Y-29064090D01*
X21196431Y-28851890D01*
X21247440Y-28600000D01*
X21247440Y-26600000D01*
X21203162Y-26364683D01*
X21064090Y-26148559D01*
X20851890Y-26003569D01*
X20600000Y-25952560D01*
X17000000Y-25952560D01*
X16764683Y-25996838D01*
X16548559Y-26135910D01*
X16403569Y-26348110D01*
X16352560Y-26600000D01*
X13360400Y-26600000D01*
X13360400Y-25820000D01*
X31014560Y-25820000D01*
X31014560Y-27520000D01*
X31058838Y-27755317D01*
X31197910Y-27971441D01*
X31410110Y-28116431D01*
X31662000Y-28167440D01*
X33362000Y-28167440D01*
X33597317Y-28123162D01*
X33813441Y-27984090D01*
X33958431Y-27771890D01*
X33980301Y-27663893D01*
X34285076Y-27941645D01*
X34695110Y-28111476D01*
X34925000Y-27990155D01*
X34925000Y-26797000D01*
X35179000Y-26797000D01*
X35179000Y-27990155D01*
X35408890Y-28111476D01*
X35818924Y-27941645D01*
X36247183Y-27551358D01*
X36493486Y-27026892D01*
X36372819Y-26797000D01*
X35179000Y-26797000D01*
X34925000Y-26797000D01*
X34905000Y-26797000D01*
X34905000Y-26543000D01*
X34925000Y-26543000D01*
X34925000Y-25349845D01*
X35179000Y-25349845D01*
X35179000Y-26543000D01*
X36372819Y-26543000D01*
X36493486Y-26313108D01*
X36247183Y-25788642D01*
X35818924Y-25398355D01*
X35408890Y-25228524D01*
X35179000Y-25349845D01*
X34925000Y-25349845D01*
X34695110Y-25228524D01*
X34285076Y-25398355D01*
X33982063Y-25674501D01*
X33965162Y-25584683D01*
X33826090Y-25368559D01*
X33613890Y-25223569D01*
X33362000Y-25172560D01*
X31662000Y-25172560D01*
X31426683Y-25216838D01*
X31210559Y-25355910D01*
X31065569Y-25568110D01*
X31014560Y-25820000D01*
X13360400Y-25820000D01*
X13360400Y-18912607D01*
X13883522Y-20178658D01*
X15214336Y-21511797D01*
X16954018Y-22234176D01*
X18837718Y-22235820D01*
X20578658Y-21516478D01*
X21911797Y-20185664D01*
X22634176Y-18445982D01*
X22634694Y-17852296D01*
X39065000Y-17852296D01*
X39065000Y-19547704D01*
X39189457Y-20173391D01*
X39543880Y-20703824D01*
X40074313Y-21058247D01*
X40700000Y-21182704D01*
X41325687Y-21058247D01*
X41856120Y-20703824D01*
X42210543Y-20173391D01*
X42335000Y-19547704D01*
X42335000Y-17852296D01*
X42210543Y-17226609D01*
X41992311Y-16900000D01*
X46552560Y-16900000D01*
X46552560Y-20500000D01*
X46596838Y-20735317D01*
X46735910Y-20951441D01*
X46948110Y-21096431D01*
X47200000Y-21147440D01*
X49200000Y-21147440D01*
X49435317Y-21103162D01*
X49651441Y-20964090D01*
X49796431Y-20751890D01*
X49847440Y-20500000D01*
X49847440Y-19580661D01*
X67436758Y-19580661D01*
X67648990Y-20094303D01*
X68041630Y-20487629D01*
X68554900Y-20700757D01*
X69110661Y-20701242D01*
X69624303Y-20489010D01*
X69829457Y-20284213D01*
X73113392Y-20284213D01*
X73182857Y-20526397D01*
X73706302Y-20713144D01*
X74261368Y-20685362D01*
X74645143Y-20526397D01*
X74714608Y-20284213D01*
X77939392Y-20284213D01*
X78008857Y-20526397D01*
X78532302Y-20713144D01*
X79087368Y-20685362D01*
X79471143Y-20526397D01*
X79540608Y-20284213D01*
X78740000Y-19483605D01*
X77939392Y-20284213D01*
X74714608Y-20284213D01*
X73914000Y-19483605D01*
X73113392Y-20284213D01*
X69829457Y-20284213D01*
X70017629Y-20096370D01*
X70230757Y-19583100D01*
X70231181Y-19096302D01*
X72504856Y-19096302D01*
X72532638Y-19651368D01*
X72691603Y-20035143D01*
X72933787Y-20104608D01*
X73734395Y-19304000D01*
X74093605Y-19304000D01*
X74894213Y-20104608D01*
X75136397Y-20035143D01*
X75323144Y-19511698D01*
X75302353Y-19096302D01*
X77330856Y-19096302D01*
X77358638Y-19651368D01*
X77517603Y-20035143D01*
X77759787Y-20104608D01*
X78560395Y-19304000D01*
X78919605Y-19304000D01*
X79720213Y-20104608D01*
X79962397Y-20035143D01*
X80136788Y-19546332D01*
X80136758Y-19580661D01*
X80348990Y-20094303D01*
X80741630Y-20487629D01*
X81254900Y-20700757D01*
X81810661Y-20701242D01*
X82324303Y-20489010D01*
X82717629Y-20096370D01*
X82930757Y-19583100D01*
X82931242Y-19027339D01*
X82719010Y-18513697D01*
X82326370Y-18120371D01*
X81813100Y-17907243D01*
X81257339Y-17906758D01*
X80743697Y-18118990D01*
X80350371Y-18511630D01*
X80137243Y-19024900D01*
X80137029Y-19269656D01*
X80121362Y-18956632D01*
X79962397Y-18572857D01*
X79720213Y-18503392D01*
X78919605Y-19304000D01*
X78560395Y-19304000D01*
X77759787Y-18503392D01*
X77517603Y-18572857D01*
X77330856Y-19096302D01*
X75302353Y-19096302D01*
X75295362Y-18956632D01*
X75136397Y-18572857D01*
X74894213Y-18503392D01*
X74093605Y-19304000D01*
X73734395Y-19304000D01*
X72933787Y-18503392D01*
X72691603Y-18572857D01*
X72504856Y-19096302D01*
X70231181Y-19096302D01*
X70231242Y-19027339D01*
X70019010Y-18513697D01*
X69829432Y-18323787D01*
X73113392Y-18323787D01*
X73914000Y-19124395D01*
X74714608Y-18323787D01*
X77939392Y-18323787D01*
X78740000Y-19124395D01*
X79540608Y-18323787D01*
X79471143Y-18081603D01*
X78947698Y-17894856D01*
X78392632Y-17922638D01*
X78008857Y-18081603D01*
X77939392Y-18323787D01*
X74714608Y-18323787D01*
X74645143Y-18081603D01*
X74121698Y-17894856D01*
X73566632Y-17922638D01*
X73182857Y-18081603D01*
X73113392Y-18323787D01*
X69829432Y-18323787D01*
X69626370Y-18120371D01*
X69113100Y-17907243D01*
X68557339Y-17906758D01*
X68043697Y-18118990D01*
X67650371Y-18511630D01*
X67437243Y-19024900D01*
X67436758Y-19580661D01*
X49847440Y-19580661D01*
X49847440Y-16900000D01*
X49803162Y-16664683D01*
X49664090Y-16448559D01*
X49451890Y-16303569D01*
X49200000Y-16252560D01*
X47200000Y-16252560D01*
X46964683Y-16296838D01*
X46748559Y-16435910D01*
X46603569Y-16648110D01*
X46552560Y-16900000D01*
X41992311Y-16900000D01*
X41856120Y-16696176D01*
X41325687Y-16341753D01*
X40700000Y-16217296D01*
X40074313Y-16341753D01*
X39543880Y-16696176D01*
X39189457Y-17226609D01*
X39065000Y-17852296D01*
X22634694Y-17852296D01*
X22635820Y-16562282D01*
X21916478Y-14821342D01*
X20585664Y-13488203D01*
X18932140Y-12801600D01*
X116662200Y-12801600D01*
X116662200Y-17158640D01*
G36*
X164719000Y-30255980D02*
X164719000Y-59563000D01*
X139700000Y-59563000D01*
X139650590Y-59573006D01*
X139608965Y-59601447D01*
X139581685Y-59643841D01*
X139573000Y-59690000D01*
X139573000Y-60198000D01*
X139583006Y-60247410D01*
X139611447Y-60289035D01*
X139653841Y-60316315D01*
X139700000Y-60325000D01*
X171290000Y-60325000D01*
X171290000Y-66731690D01*
X171069640Y-110363000D01*
X166740952Y-110363000D01*
X168029912Y-109848565D01*
X168133961Y-109779040D01*
X168610467Y-109190072D01*
X165400000Y-105979605D01*
X162189533Y-109190072D01*
X162666039Y-109779040D01*
X164025726Y-110363000D01*
X143129000Y-110363000D01*
X143129000Y-106680403D01*
X160653191Y-106680403D01*
X161351435Y-108429912D01*
X161420960Y-108533961D01*
X162009928Y-109010467D01*
X165220395Y-105800000D01*
X165579605Y-105800000D01*
X168790072Y-109010467D01*
X169379040Y-108533961D01*
X170122396Y-106803138D01*
X170146809Y-104919597D01*
X169448565Y-103170088D01*
X169379040Y-103066039D01*
X168790072Y-102589533D01*
X165579605Y-105800000D01*
X165220395Y-105800000D01*
X162009928Y-102589533D01*
X161420960Y-103066039D01*
X160677604Y-104796862D01*
X160653191Y-106680403D01*
X143129000Y-106680403D01*
X143129000Y-102409928D01*
X162189533Y-102409928D01*
X165400000Y-105620395D01*
X168610467Y-102409928D01*
X168133961Y-101820960D01*
X166403138Y-101077604D01*
X164519597Y-101053191D01*
X162770088Y-101751435D01*
X162666039Y-101820960D01*
X162189533Y-102409928D01*
X143129000Y-102409928D01*
X143129000Y-86283800D01*
X144983200Y-86283800D01*
X145323406Y-86216129D01*
X145611818Y-86023418D01*
X151850545Y-79784691D01*
X152950000Y-79784691D01*
X152950000Y-81775250D01*
X153108750Y-81934000D01*
X153242290Y-81934000D01*
X153236643Y-81951925D01*
X153257359Y-82188000D01*
X153108750Y-82188000D01*
X152950000Y-82346750D01*
X152950000Y-84337309D01*
X153046673Y-84570698D01*
X153225301Y-84749327D01*
X153458690Y-84846000D01*
X155449250Y-84846000D01*
X155608000Y-84687250D01*
X155608000Y-84487112D01*
X155717827Y-84441620D01*
X155735000Y-84256036D01*
X155752173Y-84441620D01*
X155862000Y-84476217D01*
X155862000Y-84687250D01*
X156020750Y-84846000D01*
X158011310Y-84846000D01*
X158244699Y-84749327D01*
X158423327Y-84570698D01*
X158520000Y-84337309D01*
X158520000Y-82346750D01*
X158361250Y-82188000D01*
X158227710Y-82188000D01*
X158233357Y-82170075D01*
X158212641Y-81934000D01*
X158361250Y-81934000D01*
X158520000Y-81775250D01*
X158520000Y-79784691D01*
X158423327Y-79551302D01*
X158244699Y-79372673D01*
X158011310Y-79276000D01*
X156020750Y-79276000D01*
X155862000Y-79434750D01*
X155862000Y-79634888D01*
X155752173Y-79680380D01*
X155735000Y-79865964D01*
X155717827Y-79680380D01*
X155608000Y-79645783D01*
X155608000Y-79434750D01*
X155449250Y-79276000D01*
X153458690Y-79276000D01*
X153225301Y-79372673D01*
X153046673Y-79551302D01*
X152950000Y-79784691D01*
X151850545Y-79784691D01*
X164121474Y-67513762D01*
X164231943Y-67468117D01*
X164495192Y-67205327D01*
X164637838Y-66861799D01*
X164638162Y-66489833D01*
X164496117Y-66146057D01*
X164233327Y-65882808D01*
X163889799Y-65740162D01*
X163517833Y-65739838D01*
X163174057Y-65881883D01*
X162910808Y-66144673D01*
X162864451Y-66256313D01*
X144614964Y-84505800D01*
X143129000Y-84505800D01*
X143129000Y-68580000D01*
X143118994Y-68530590D01*
X143090553Y-68488965D01*
X143048159Y-68461685D01*
X143002000Y-68453000D01*
X141643036Y-68453000D01*
X144183036Y-65913000D01*
X157944811Y-65913000D01*
X158055201Y-65958838D01*
X158427167Y-65959162D01*
X158770943Y-65817117D01*
X158927800Y-65660533D01*
X158927800Y-67271964D01*
X156299526Y-69900238D01*
X156189057Y-69945883D01*
X155925808Y-70208673D01*
X155783162Y-70552201D01*
X155782838Y-70924167D01*
X155924883Y-71267943D01*
X156187673Y-71531192D01*
X156531201Y-71673838D01*
X156903167Y-71674162D01*
X157246943Y-71532117D01*
X157510192Y-71269327D01*
X157556549Y-71157687D01*
X160445418Y-68268818D01*
X160638129Y-67980406D01*
X160705800Y-67640200D01*
X160705800Y-64414400D01*
X160638129Y-64074194D01*
X160445418Y-63785782D01*
X159480218Y-62820582D01*
X159424923Y-62783635D01*
X159191806Y-62627871D01*
X158851600Y-62560200D01*
X143560800Y-62560200D01*
X143220594Y-62627871D01*
X142987477Y-62783635D01*
X142932182Y-62820582D01*
X122415364Y-83337400D01*
X109263189Y-83337400D01*
X109152799Y-83291562D01*
X108780833Y-83291238D01*
X108437057Y-83433283D01*
X108173808Y-83696073D01*
X108031162Y-84039601D01*
X108030838Y-84411567D01*
X108071810Y-84510728D01*
X107739433Y-84510438D01*
X107395657Y-84652483D01*
X107132408Y-84915273D01*
X106989762Y-85258801D01*
X106989438Y-85630767D01*
X107131483Y-85974543D01*
X107394273Y-86237792D01*
X107737801Y-86380438D01*
X108109767Y-86380762D01*
X108221488Y-86334600D01*
X123393200Y-86334600D01*
X123733406Y-86266929D01*
X124021818Y-86074218D01*
X141351000Y-68745036D01*
X141351000Y-84505800D01*
X133977389Y-84505800D01*
X133866999Y-84459962D01*
X133495033Y-84459638D01*
X133151257Y-84601683D01*
X132888008Y-84864473D01*
X132745362Y-85208001D01*
X132745038Y-85579967D01*
X132887083Y-85923743D01*
X133149873Y-86186992D01*
X133493401Y-86329638D01*
X133865367Y-86329962D01*
X133977088Y-86283800D01*
X141351000Y-86283800D01*
X141351000Y-99695000D01*
X123304236Y-99695000D01*
X128866836Y-94132400D01*
X133611611Y-94132400D01*
X133722001Y-94178238D01*
X134093967Y-94178562D01*
X134437743Y-94036517D01*
X134700992Y-93773727D01*
X134843638Y-93430199D01*
X134843962Y-93058233D01*
X134701917Y-92714457D01*
X134439127Y-92451208D01*
X134095599Y-92308562D01*
X133723633Y-92308238D01*
X133611912Y-92354400D01*
X128498600Y-92354400D01*
X128158394Y-92422071D01*
X127869982Y-92614782D01*
X120789764Y-99695000D01*
X104775000Y-99695000D01*
X104775000Y-95266000D01*
X112741560Y-95266000D01*
X112741560Y-97266000D01*
X112785838Y-97501317D01*
X112924910Y-97717441D01*
X113137110Y-97862431D01*
X113389000Y-97913440D01*
X116989000Y-97913440D01*
X117224317Y-97869162D01*
X117440441Y-97730090D01*
X117585431Y-97517890D01*
X117636440Y-97266000D01*
X117636440Y-95266000D01*
X117592162Y-95030683D01*
X117453090Y-94814559D01*
X117240890Y-94669569D01*
X116989000Y-94618560D01*
X113389000Y-94618560D01*
X113153683Y-94662838D01*
X112937559Y-94801910D01*
X112792569Y-95014110D01*
X112741560Y-95266000D01*
X104775000Y-95266000D01*
X104775000Y-93980000D01*
X107627411Y-93980000D01*
X107737801Y-94025838D01*
X108109767Y-94026162D01*
X108405611Y-93903922D01*
X108410273Y-93908592D01*
X108753801Y-94051238D01*
X109125767Y-94051562D01*
X109469543Y-93909517D01*
X109732792Y-93646727D01*
X109875438Y-93303199D01*
X109875762Y-92931233D01*
X109813150Y-92779700D01*
X109761929Y-92522194D01*
X109569218Y-92233782D01*
X106101436Y-88766000D01*
X112706296Y-88766000D01*
X112830753Y-89391687D01*
X113185176Y-89922120D01*
X113715609Y-90276543D01*
X114341296Y-90401000D01*
X116036704Y-90401000D01*
X116662391Y-90276543D01*
X117192824Y-89922120D01*
X117547247Y-89391687D01*
X117671704Y-88766000D01*
X117547247Y-88140313D01*
X117192824Y-87609880D01*
X116662391Y-87255457D01*
X116036704Y-87131000D01*
X114341296Y-87131000D01*
X113715609Y-87255457D01*
X113185176Y-87609880D01*
X112830753Y-88140313D01*
X112706296Y-88766000D01*
X106101436Y-88766000D01*
X105454418Y-88118982D01*
X105166006Y-87926271D01*
X104825800Y-87858600D01*
X104775000Y-87858600D01*
X104775000Y-74131305D01*
X114534674Y-74131305D01*
X114821043Y-74824372D01*
X115350839Y-75355093D01*
X116043405Y-75642672D01*
X116793305Y-75643326D01*
X117486372Y-75356957D01*
X118017093Y-74827161D01*
X118304672Y-74134595D01*
X118305326Y-73384695D01*
X118018957Y-72691628D01*
X117489161Y-72160907D01*
X116796595Y-71873328D01*
X116046695Y-71872674D01*
X115353628Y-72159043D01*
X114822907Y-72688839D01*
X114535328Y-73381405D01*
X114534674Y-74131305D01*
X104775000Y-74131305D01*
X104775000Y-70358000D01*
X104764994Y-70308590D01*
X104736553Y-70266965D01*
X104694159Y-70239685D01*
X104648000Y-70231000D01*
X100330000Y-70231000D01*
X100280590Y-70241006D01*
X100238965Y-70269447D01*
X100211685Y-70311841D01*
X100203000Y-70358000D01*
X100203000Y-71005764D01*
X99434618Y-70237382D01*
X99244549Y-70110382D01*
X99146206Y-70044671D01*
X98806000Y-69977000D01*
X97198189Y-69977000D01*
X97087799Y-69931162D01*
X96715833Y-69930838D01*
X96372057Y-70072883D01*
X96108808Y-70335673D01*
X95966162Y-70679201D01*
X95965838Y-71051167D01*
X96107883Y-71394943D01*
X96370673Y-71658192D01*
X96714201Y-71800838D01*
X97086167Y-71801162D01*
X97197888Y-71755000D01*
X98437764Y-71755000D01*
X99447382Y-72764618D01*
X99735794Y-72957329D01*
X100076000Y-73025000D01*
X100203000Y-73025000D01*
X100203000Y-87858600D01*
X87723989Y-87858600D01*
X87613599Y-87812762D01*
X87241633Y-87812438D01*
X86897857Y-87954483D01*
X86634608Y-88217273D01*
X86491962Y-88560801D01*
X86491638Y-88932767D01*
X86633683Y-89276543D01*
X86896473Y-89539792D01*
X87240001Y-89682438D01*
X87611967Y-89682762D01*
X87723688Y-89636600D01*
X100203000Y-89636600D01*
X100203000Y-92202000D01*
X86487000Y-92202000D01*
X86146794Y-92269671D01*
X85858382Y-92462382D01*
X84385182Y-93935582D01*
X84192471Y-94223994D01*
X84124800Y-94564200D01*
X84124800Y-95364364D01*
X83858164Y-95631000D01*
X83609189Y-95631000D01*
X83498799Y-95585162D01*
X83126833Y-95584838D01*
X82783057Y-95726883D01*
X82519808Y-95989673D01*
X82377162Y-96333201D01*
X82376838Y-96705167D01*
X82518883Y-97048943D01*
X82781673Y-97312192D01*
X83014811Y-97409000D01*
X81199111Y-97409000D01*
X81199162Y-97350833D01*
X81057117Y-97007057D01*
X80794327Y-96743808D01*
X80450799Y-96601162D01*
X80078833Y-96600838D01*
X79735057Y-96742883D01*
X79471808Y-97005673D01*
X79329162Y-97349201D01*
X79329110Y-97409000D01*
X77343000Y-97409000D01*
X77343000Y-78387691D01*
X85005000Y-78387691D01*
X85005000Y-80378250D01*
X85163750Y-80537000D01*
X85297290Y-80537000D01*
X85291643Y-80554925D01*
X85312359Y-80791000D01*
X85163750Y-80791000D01*
X85005000Y-80949750D01*
X85005000Y-82940309D01*
X85101673Y-83173698D01*
X85280301Y-83352327D01*
X85513690Y-83449000D01*
X87504250Y-83449000D01*
X87663000Y-83290250D01*
X87663000Y-83090112D01*
X87772827Y-83044620D01*
X87790000Y-82859036D01*
X87807173Y-83044620D01*
X87917000Y-83079217D01*
X87917000Y-83290250D01*
X88075750Y-83449000D01*
X90066310Y-83449000D01*
X90299699Y-83352327D01*
X90478327Y-83173698D01*
X90575000Y-82940309D01*
X90575000Y-80949750D01*
X90416250Y-80791000D01*
X90282710Y-80791000D01*
X90288357Y-80773075D01*
X90267641Y-80537000D01*
X90416250Y-80537000D01*
X90575000Y-80378250D01*
X90575000Y-78387691D01*
X90478327Y-78154302D01*
X90299699Y-77975673D01*
X90066310Y-77879000D01*
X88075750Y-77879000D01*
X87917000Y-78037750D01*
X87917000Y-78237888D01*
X87807173Y-78283380D01*
X87790000Y-78468964D01*
X87772827Y-78283380D01*
X87663000Y-78248783D01*
X87663000Y-78037750D01*
X87504250Y-77879000D01*
X85513690Y-77879000D01*
X85280301Y-77975673D01*
X85101673Y-78154302D01*
X85005000Y-78387691D01*
X77343000Y-78387691D01*
X77343000Y-66421000D01*
X104648000Y-66421000D01*
X104697410Y-66410994D01*
X104739035Y-66382553D01*
X104766315Y-66340159D01*
X104775000Y-66294000D01*
X104775000Y-65278000D01*
X104764994Y-65228590D01*
X104736553Y-65186965D01*
X104694159Y-65159685D01*
X104648000Y-65151000D01*
X103505000Y-65151000D01*
X103505000Y-64516000D01*
X103494994Y-64466590D01*
X103466553Y-64424965D01*
X103424159Y-64397685D01*
X103378000Y-64389000D01*
X77598090Y-64389000D01*
X77598155Y-64381305D01*
X108784674Y-64381305D01*
X109071043Y-65074372D01*
X109600839Y-65605093D01*
X110293405Y-65892672D01*
X111043305Y-65893326D01*
X111736372Y-65606957D01*
X112002472Y-65341320D01*
X132016285Y-65341320D01*
X132145533Y-65634123D01*
X132845806Y-65902388D01*
X133595435Y-65882250D01*
X134194467Y-65634123D01*
X134323715Y-65341320D01*
X133170000Y-64187605D01*
X132016285Y-65341320D01*
X112002472Y-65341320D01*
X112267093Y-65077161D01*
X112554672Y-64384595D01*
X112555283Y-63683806D01*
X131275612Y-63683806D01*
X131295750Y-64433435D01*
X131543877Y-65032467D01*
X131836680Y-65161715D01*
X132990395Y-64008000D01*
X133349605Y-64008000D01*
X134503320Y-65161715D01*
X134796123Y-65032467D01*
X135064388Y-64332194D01*
X135044250Y-63582565D01*
X134796123Y-62983533D01*
X134503320Y-62854285D01*
X133349605Y-64008000D01*
X132990395Y-64008000D01*
X131836680Y-62854285D01*
X131543877Y-62983533D01*
X131275612Y-63683806D01*
X112555283Y-63683806D01*
X112555326Y-63634695D01*
X112268957Y-62941628D01*
X112002475Y-62674680D01*
X132016285Y-62674680D01*
X133170000Y-63828395D01*
X134323715Y-62674680D01*
X134194467Y-62381877D01*
X133494194Y-62113612D01*
X132744565Y-62133750D01*
X132145533Y-62381877D01*
X132016285Y-62674680D01*
X112002475Y-62674680D01*
X111739161Y-62410907D01*
X111046595Y-62123328D01*
X110296695Y-62122674D01*
X109603628Y-62409043D01*
X109072907Y-62938839D01*
X108785328Y-63631405D01*
X108784674Y-64381305D01*
X77598155Y-64381305D01*
X77784327Y-42599191D01*
X86526500Y-42599191D01*
X86526500Y-44589750D01*
X86685250Y-44748500D01*
X86818790Y-44748500D01*
X86813143Y-44766425D01*
X86833859Y-45002500D01*
X86685250Y-45002500D01*
X86526500Y-45161250D01*
X86526500Y-47151809D01*
X86623173Y-47385198D01*
X86801801Y-47563827D01*
X87035190Y-47660500D01*
X89025750Y-47660500D01*
X89184500Y-47501750D01*
X89184500Y-47301612D01*
X89294327Y-47256120D01*
X89311500Y-47070536D01*
X89328673Y-47256120D01*
X89438500Y-47290717D01*
X89438500Y-47501750D01*
X89597250Y-47660500D01*
X91587810Y-47660500D01*
X91821199Y-47563827D01*
X91999827Y-47385198D01*
X92096500Y-47151809D01*
X92096500Y-45161250D01*
X91937750Y-45002500D01*
X91804210Y-45002500D01*
X91809857Y-44984575D01*
X91789141Y-44748500D01*
X91937750Y-44748500D01*
X92096500Y-44589750D01*
X92096500Y-42599191D01*
X91999827Y-42365802D01*
X91821199Y-42187173D01*
X91587810Y-42090500D01*
X89597250Y-42090500D01*
X89438500Y-42249250D01*
X89438500Y-42449388D01*
X89328673Y-42494880D01*
X89311500Y-42680464D01*
X89294327Y-42494880D01*
X89184500Y-42460283D01*
X89184500Y-42249250D01*
X89025750Y-42090500D01*
X87035190Y-42090500D01*
X86801801Y-42187173D01*
X86623173Y-42365802D01*
X86526500Y-42599191D01*
X77784327Y-42599191D01*
X77849919Y-34925000D01*
X101485764Y-34925000D01*
X96145382Y-40265382D01*
X95952671Y-40553794D01*
X95885000Y-40894000D01*
X95885000Y-55511764D01*
X91833764Y-59563000D01*
X85217000Y-59563000D01*
X84876794Y-59630671D01*
X84588382Y-59823382D01*
X83401526Y-61010238D01*
X83291057Y-61055883D01*
X83027808Y-61318673D01*
X82885162Y-61662201D01*
X82884838Y-62034167D01*
X83026883Y-62377943D01*
X83158111Y-62509400D01*
X82279552Y-62509400D01*
X81627000Y-62107830D01*
X81627000Y-62101069D01*
X81706838Y-61908799D01*
X81707162Y-61536833D01*
X81565117Y-61193057D01*
X81302327Y-60929808D01*
X80958799Y-60787162D01*
X80586833Y-60786838D01*
X80243057Y-60928883D01*
X79979808Y-61191673D01*
X79837162Y-61535201D01*
X79836838Y-61907167D01*
X79917000Y-62101174D01*
X79917000Y-62585600D01*
X79936512Y-62683693D01*
X79940251Y-62783635D01*
X79968749Y-62845758D01*
X79982083Y-62912794D01*
X80037648Y-62995952D01*
X80079349Y-63086858D01*
X80129453Y-63133348D01*
X80167424Y-63190176D01*
X80250581Y-63245740D01*
X80323897Y-63313768D01*
X81451091Y-64007426D01*
X81464182Y-64027018D01*
X81752594Y-64219729D01*
X82092800Y-64287400D01*
X92811600Y-64287400D01*
X93151806Y-64219729D01*
X93440218Y-64027018D01*
X99434618Y-58032618D01*
X99532184Y-57886600D01*
X99627329Y-57744206D01*
X99695000Y-57404000D01*
X99695000Y-41781981D01*
X99744615Y-41707726D01*
X101727000Y-40089081D01*
X101727000Y-49022000D01*
X101643189Y-49022000D01*
X101532799Y-48976162D01*
X101160833Y-48975838D01*
X100891408Y-49087162D01*
X100878794Y-49089671D01*
X100868194Y-49096754D01*
X100817057Y-49117883D01*
X100777553Y-49157318D01*
X100590382Y-49282382D01*
X100397671Y-49570794D01*
X100330000Y-49911000D01*
X100397671Y-50251206D01*
X100590382Y-50539618D01*
X100776583Y-50664034D01*
X100815673Y-50703192D01*
X100867223Y-50724598D01*
X100878794Y-50732329D01*
X100892323Y-50735020D01*
X101159201Y-50845838D01*
X101531167Y-50846162D01*
X101642888Y-50800000D01*
X101727000Y-50800000D01*
X101727000Y-56388000D01*
X101737006Y-56437410D01*
X101765447Y-56479035D01*
X101807841Y-56506315D01*
X101854000Y-56515000D01*
X103378000Y-56515000D01*
X103427410Y-56504994D01*
X103469035Y-56476553D01*
X103496315Y-56434159D01*
X103505000Y-56388000D01*
X103505000Y-54631305D01*
X114534674Y-54631305D01*
X114821043Y-55324372D01*
X115350839Y-55855093D01*
X116043405Y-56142672D01*
X116793305Y-56143326D01*
X117486372Y-55856957D01*
X118017093Y-55327161D01*
X118304672Y-54634595D01*
X118305326Y-53884695D01*
X118018957Y-53191628D01*
X117489161Y-52660907D01*
X116796595Y-52373328D01*
X116046695Y-52372674D01*
X115353628Y-52659043D01*
X114822907Y-53188839D01*
X114535328Y-53881405D01*
X114534674Y-54631305D01*
X103505000Y-54631305D01*
X103505000Y-50800000D01*
X105493811Y-50800000D01*
X105604201Y-50845838D01*
X105976167Y-50846162D01*
X106319943Y-50704117D01*
X106583192Y-50441327D01*
X106725838Y-50097799D01*
X106726162Y-49725833D01*
X106584117Y-49382057D01*
X106321327Y-49118808D01*
X105977799Y-48976162D01*
X105605833Y-48975838D01*
X105494112Y-49022000D01*
X103505000Y-49022000D01*
X103505000Y-38637320D01*
X107035522Y-35754600D01*
X134010400Y-35754600D01*
X134337595Y-35689517D01*
X134614976Y-35504176D01*
X135910376Y-34208776D01*
X136095717Y-33931395D01*
X136124216Y-33788120D01*
X136160800Y-33604200D01*
X136160800Y-31392469D01*
X136240638Y-31200199D01*
X136240962Y-30828233D01*
X136098917Y-30484457D01*
X135836127Y-30221208D01*
X135492599Y-30078562D01*
X135120633Y-30078238D01*
X134776857Y-30220283D01*
X134513608Y-30483073D01*
X134370962Y-30826601D01*
X134370638Y-31198567D01*
X134450800Y-31392574D01*
X134450800Y-33250048D01*
X133656248Y-34044600D01*
X115411973Y-34044600D01*
X115795824Y-33788120D01*
X116150247Y-33257687D01*
X116274704Y-32632000D01*
X116150247Y-32006313D01*
X115795824Y-31475880D01*
X115265391Y-31121457D01*
X114639704Y-30997000D01*
X112944296Y-30997000D01*
X112318609Y-31121457D01*
X111788176Y-31475880D01*
X111433753Y-32006313D01*
X111309296Y-32632000D01*
X111433753Y-33257687D01*
X111788176Y-33788120D01*
X112172027Y-34044600D01*
X109139104Y-34044600D01*
X109139162Y-33977833D01*
X108997117Y-33634057D01*
X108734327Y-33370808D01*
X108390799Y-33228162D01*
X108018833Y-33227838D01*
X107907112Y-33274000D01*
X104648000Y-33274000D01*
X104307794Y-33341671D01*
X104019382Y-33534382D01*
X103759000Y-33794764D01*
X103759000Y-30594236D01*
X104355836Y-29997400D01*
X106992411Y-29997400D01*
X107102801Y-30043238D01*
X107474767Y-30043562D01*
X107818543Y-29901517D01*
X108081792Y-29638727D01*
X108224438Y-29295199D01*
X108224762Y-28923233D01*
X108082717Y-28579457D01*
X107819927Y-28316208D01*
X107476399Y-28173562D01*
X107104433Y-28173238D01*
X106992712Y-28219400D01*
X103987600Y-28219400D01*
X103647394Y-28287071D01*
X103505000Y-28382216D01*
X103505000Y-24765000D01*
X139319000Y-24765000D01*
X139319000Y-36245800D01*
X108704389Y-36245800D01*
X108593999Y-36199962D01*
X108222033Y-36199638D01*
X107890161Y-36336764D01*
X107819927Y-36266408D01*
X107476399Y-36123762D01*
X107104433Y-36123438D01*
X106760657Y-36265483D01*
X106497408Y-36528273D01*
X106354762Y-36871801D01*
X106354438Y-37243767D01*
X106400600Y-37355488D01*
X106400600Y-38735000D01*
X106468271Y-39075206D01*
X106660982Y-39363618D01*
X106949394Y-39556329D01*
X107289600Y-39624000D01*
X109728000Y-39624000D01*
X110068206Y-39556329D01*
X110356618Y-39363618D01*
X110858236Y-38862000D01*
X111407943Y-38862000D01*
X111395569Y-38880110D01*
X111344560Y-39132000D01*
X111344560Y-41132000D01*
X111388838Y-41367317D01*
X111527910Y-41583441D01*
X111740110Y-41728431D01*
X111992000Y-41779440D01*
X115592000Y-41779440D01*
X115827317Y-41735162D01*
X116043441Y-41596090D01*
X116188431Y-41383890D01*
X116239440Y-41132000D01*
X116239440Y-39132000D01*
X116195162Y-38896683D01*
X116172844Y-38862000D01*
X129425764Y-38862000D01*
X130562382Y-39998618D01*
X130850794Y-40191329D01*
X131191000Y-40259000D01*
X139319000Y-40259000D01*
X139319000Y-44704000D01*
X133901189Y-44704000D01*
X133790799Y-44658162D01*
X133418833Y-44657838D01*
X133075057Y-44799883D01*
X132811808Y-45062673D01*
X132669162Y-45406201D01*
X132668838Y-45778167D01*
X132810883Y-46121943D01*
X133073673Y-46385192D01*
X133417201Y-46527838D01*
X133789167Y-46528162D01*
X133900888Y-46482000D01*
X139319000Y-46482000D01*
X139319000Y-57150000D01*
X139329006Y-57199410D01*
X139357447Y-57241035D01*
X139399841Y-57268315D01*
X139446000Y-57277000D01*
X140970000Y-57277000D01*
X141019410Y-57266994D01*
X141061035Y-57238553D01*
X141088315Y-57196159D01*
X141096996Y-57150977D01*
X141179065Y-46482000D01*
X146177000Y-46482000D01*
X146517206Y-46414329D01*
X146805618Y-46221618D01*
X147567618Y-45459618D01*
X147622726Y-45377143D01*
X147760329Y-45171206D01*
X147828000Y-44831000D01*
X147828000Y-44694691D01*
X150090000Y-44694691D01*
X150090000Y-46685250D01*
X150248750Y-46844000D01*
X150382290Y-46844000D01*
X150376643Y-46861925D01*
X150397359Y-47098000D01*
X150248750Y-47098000D01*
X150090000Y-47256750D01*
X150090000Y-49247309D01*
X150186673Y-49480698D01*
X150365301Y-49659327D01*
X150598690Y-49756000D01*
X152589250Y-49756000D01*
X152748000Y-49597250D01*
X152748000Y-49397112D01*
X152857827Y-49351620D01*
X152875000Y-49166036D01*
X152892173Y-49351620D01*
X153002000Y-49386217D01*
X153002000Y-49597250D01*
X153160750Y-49756000D01*
X155151310Y-49756000D01*
X155384699Y-49659327D01*
X155563327Y-49480698D01*
X155660000Y-49247309D01*
X155660000Y-47256750D01*
X155501250Y-47098000D01*
X155367710Y-47098000D01*
X155373357Y-47080075D01*
X155352641Y-46844000D01*
X155501250Y-46844000D01*
X155660000Y-46685250D01*
X155660000Y-44694691D01*
X155563327Y-44461302D01*
X155384699Y-44282673D01*
X155151310Y-44186000D01*
X153160750Y-44186000D01*
X153002000Y-44344750D01*
X153002000Y-44544888D01*
X152892173Y-44590380D01*
X152875000Y-44775964D01*
X152857827Y-44590380D01*
X152748000Y-44555783D01*
X152748000Y-44344750D01*
X152589250Y-44186000D01*
X150598690Y-44186000D01*
X150365301Y-44282673D01*
X150186673Y-44461302D01*
X150090000Y-44694691D01*
X147828000Y-44694691D01*
X147828000Y-41445189D01*
X147873838Y-41334799D01*
X147874162Y-40962833D01*
X147732117Y-40619057D01*
X147469327Y-40355808D01*
X147125799Y-40213162D01*
X146753833Y-40212838D01*
X146410057Y-40354883D01*
X146146808Y-40617673D01*
X146004162Y-40961201D01*
X146003838Y-41333167D01*
X146050000Y-41444888D01*
X146050000Y-44462764D01*
X145808764Y-44704000D01*
X141192742Y-44704000D01*
X141226934Y-40259000D01*
X145034000Y-40259000D01*
X145374206Y-40191329D01*
X145662618Y-39998618D01*
X155435236Y-30226000D01*
X156420811Y-30226000D01*
X156531201Y-30271838D01*
X156903167Y-30272162D01*
X157246943Y-30130117D01*
X157510192Y-29867327D01*
X157652838Y-29523799D01*
X157653162Y-29151833D01*
X157511117Y-28808057D01*
X157248327Y-28544808D01*
X156904799Y-28402162D01*
X156532833Y-28401838D01*
X156421112Y-28448000D01*
X155067000Y-28448000D01*
X154726795Y-28515670D01*
X154438382Y-28708382D01*
X145041465Y-38105299D01*
X154600545Y-27855200D01*
X158962034Y-27855200D01*
X159419000Y-28754391D01*
X159419000Y-28957931D01*
X159339162Y-29150201D01*
X159338838Y-29522167D01*
X159480883Y-29865943D01*
X159743673Y-30129192D01*
X160087201Y-30271838D01*
X160459167Y-30272162D01*
X160802943Y-30130117D01*
X161066192Y-29867327D01*
X161208838Y-29523799D01*
X161209162Y-29151833D01*
X161129000Y-28957826D01*
X161129000Y-28549600D01*
X161122458Y-28516713D01*
X161126435Y-28483417D01*
X161090117Y-28354120D01*
X161063917Y-28222406D01*
X161045288Y-28194526D01*
X161036220Y-28162243D01*
X160248820Y-26612842D01*
X160165785Y-26507284D01*
X160091176Y-26395624D01*
X160063295Y-26376995D01*
X160042564Y-26350640D01*
X159925461Y-26284896D01*
X159813794Y-26210283D01*
X159780906Y-26203741D01*
X159751667Y-26187326D01*
X159618321Y-26171401D01*
X159486600Y-26145200D01*
X155722615Y-26145200D01*
X155722762Y-25976833D01*
X155580717Y-25633057D01*
X155317927Y-25369808D01*
X154974399Y-25227162D01*
X154602433Y-25226838D01*
X154490712Y-25273000D01*
X153416000Y-25273000D01*
X153075795Y-25340670D01*
X152787382Y-25533382D01*
X142074964Y-36245800D01*
X141257805Y-36245800D01*
X141350027Y-24257000D01*
X161719510Y-24257000D01*
X164719000Y-30255980D01*
X164719000Y-30255980D01*
G37*
X164719000Y-30255980D02*
X164719000Y-59563000D01*
X139700000Y-59563000D01*
X139650590Y-59573006D01*
X139608965Y-59601447D01*
X139581685Y-59643841D01*
X139573000Y-59690000D01*
X139573000Y-60198000D01*
X139583006Y-60247410D01*
X139611447Y-60289035D01*
X139653841Y-60316315D01*
X139700000Y-60325000D01*
X171290000Y-60325000D01*
X171290000Y-66731690D01*
X171069640Y-110363000D01*
X166740952Y-110363000D01*
X168029912Y-109848565D01*
X168133961Y-109779040D01*
X168610467Y-109190072D01*
X165400000Y-105979605D01*
X162189533Y-109190072D01*
X162666039Y-109779040D01*
X164025726Y-110363000D01*
X143129000Y-110363000D01*
X143129000Y-106680403D01*
X160653191Y-106680403D01*
X161351435Y-108429912D01*
X161420960Y-108533961D01*
X162009928Y-109010467D01*
X165220395Y-105800000D01*
X165579605Y-105800000D01*
X168790072Y-109010467D01*
X169379040Y-108533961D01*
X170122396Y-106803138D01*
X170146809Y-104919597D01*
X169448565Y-103170088D01*
X169379040Y-103066039D01*
X168790072Y-102589533D01*
X165579605Y-105800000D01*
X165220395Y-105800000D01*
X162009928Y-102589533D01*
X161420960Y-103066039D01*
X160677604Y-104796862D01*
X160653191Y-106680403D01*
X143129000Y-106680403D01*
X143129000Y-102409928D01*
X162189533Y-102409928D01*
X165400000Y-105620395D01*
X168610467Y-102409928D01*
X168133961Y-101820960D01*
X166403138Y-101077604D01*
X164519597Y-101053191D01*
X162770088Y-101751435D01*
X162666039Y-101820960D01*
X162189533Y-102409928D01*
X143129000Y-102409928D01*
X143129000Y-86283800D01*
X144983200Y-86283800D01*
X145323406Y-86216129D01*
X145611818Y-86023418D01*
X151850545Y-79784691D01*
X152950000Y-79784691D01*
X152950000Y-81775250D01*
X153108750Y-81934000D01*
X153242290Y-81934000D01*
X153236643Y-81951925D01*
X153257359Y-82188000D01*
X153108750Y-82188000D01*
X152950000Y-82346750D01*
X152950000Y-84337309D01*
X153046673Y-84570698D01*
X153225301Y-84749327D01*
X153458690Y-84846000D01*
X155449250Y-84846000D01*
X155608000Y-84687250D01*
X155608000Y-84487112D01*
X155717827Y-84441620D01*
X155735000Y-84256036D01*
X155752173Y-84441620D01*
X155862000Y-84476217D01*
X155862000Y-84687250D01*
X156020750Y-84846000D01*
X158011310Y-84846000D01*
X158244699Y-84749327D01*
X158423327Y-84570698D01*
X158520000Y-84337309D01*
X158520000Y-82346750D01*
X158361250Y-82188000D01*
X158227710Y-82188000D01*
X158233357Y-82170075D01*
X158212641Y-81934000D01*
X158361250Y-81934000D01*
X158520000Y-81775250D01*
X158520000Y-79784691D01*
X158423327Y-79551302D01*
X158244699Y-79372673D01*
X158011310Y-79276000D01*
X156020750Y-79276000D01*
X155862000Y-79434750D01*
X155862000Y-79634888D01*
X155752173Y-79680380D01*
X155735000Y-79865964D01*
X155717827Y-79680380D01*
X155608000Y-79645783D01*
X155608000Y-79434750D01*
X155449250Y-79276000D01*
X153458690Y-79276000D01*
X153225301Y-79372673D01*
X153046673Y-79551302D01*
X152950000Y-79784691D01*
X151850545Y-79784691D01*
X164121474Y-67513762D01*
X164231943Y-67468117D01*
X164495192Y-67205327D01*
X164637838Y-66861799D01*
X164638162Y-66489833D01*
X164496117Y-66146057D01*
X164233327Y-65882808D01*
X163889799Y-65740162D01*
X163517833Y-65739838D01*
X163174057Y-65881883D01*
X162910808Y-66144673D01*
X162864451Y-66256313D01*
X144614964Y-84505800D01*
X143129000Y-84505800D01*
X143129000Y-68580000D01*
X143118994Y-68530590D01*
X143090553Y-68488965D01*
X143048159Y-68461685D01*
X143002000Y-68453000D01*
X141643036Y-68453000D01*
X144183036Y-65913000D01*
X157944811Y-65913000D01*
X158055201Y-65958838D01*
X158427167Y-65959162D01*
X158770943Y-65817117D01*
X158927800Y-65660533D01*
X158927800Y-67271964D01*
X156299526Y-69900238D01*
X156189057Y-69945883D01*
X155925808Y-70208673D01*
X155783162Y-70552201D01*
X155782838Y-70924167D01*
X155924883Y-71267943D01*
X156187673Y-71531192D01*
X156531201Y-71673838D01*
X156903167Y-71674162D01*
X157246943Y-71532117D01*
X157510192Y-71269327D01*
X157556549Y-71157687D01*
X160445418Y-68268818D01*
X160638129Y-67980406D01*
X160705800Y-67640200D01*
X160705800Y-64414400D01*
X160638129Y-64074194D01*
X160445418Y-63785782D01*
X159480218Y-62820582D01*
X159424923Y-62783635D01*
X159191806Y-62627871D01*
X158851600Y-62560200D01*
X143560800Y-62560200D01*
X143220594Y-62627871D01*
X142987477Y-62783635D01*
X142932182Y-62820582D01*
X122415364Y-83337400D01*
X109263189Y-83337400D01*
X109152799Y-83291562D01*
X108780833Y-83291238D01*
X108437057Y-83433283D01*
X108173808Y-83696073D01*
X108031162Y-84039601D01*
X108030838Y-84411567D01*
X108071810Y-84510728D01*
X107739433Y-84510438D01*
X107395657Y-84652483D01*
X107132408Y-84915273D01*
X106989762Y-85258801D01*
X106989438Y-85630767D01*
X107131483Y-85974543D01*
X107394273Y-86237792D01*
X107737801Y-86380438D01*
X108109767Y-86380762D01*
X108221488Y-86334600D01*
X123393200Y-86334600D01*
X123733406Y-86266929D01*
X124021818Y-86074218D01*
X141351000Y-68745036D01*
X141351000Y-84505800D01*
X133977389Y-84505800D01*
X133866999Y-84459962D01*
X133495033Y-84459638D01*
X133151257Y-84601683D01*
X132888008Y-84864473D01*
X132745362Y-85208001D01*
X132745038Y-85579967D01*
X132887083Y-85923743D01*
X133149873Y-86186992D01*
X133493401Y-86329638D01*
X133865367Y-86329962D01*
X133977088Y-86283800D01*
X141351000Y-86283800D01*
X141351000Y-99695000D01*
X123304236Y-99695000D01*
X128866836Y-94132400D01*
X133611611Y-94132400D01*
X133722001Y-94178238D01*
X134093967Y-94178562D01*
X134437743Y-94036517D01*
X134700992Y-93773727D01*
X134843638Y-93430199D01*
X134843962Y-93058233D01*
X134701917Y-92714457D01*
X134439127Y-92451208D01*
X134095599Y-92308562D01*
X133723633Y-92308238D01*
X133611912Y-92354400D01*
X128498600Y-92354400D01*
X128158394Y-92422071D01*
X127869982Y-92614782D01*
X120789764Y-99695000D01*
X104775000Y-99695000D01*
X104775000Y-95266000D01*
X112741560Y-95266000D01*
X112741560Y-97266000D01*
X112785838Y-97501317D01*
X112924910Y-97717441D01*
X113137110Y-97862431D01*
X113389000Y-97913440D01*
X116989000Y-97913440D01*
X117224317Y-97869162D01*
X117440441Y-97730090D01*
X117585431Y-97517890D01*
X117636440Y-97266000D01*
X117636440Y-95266000D01*
X117592162Y-95030683D01*
X117453090Y-94814559D01*
X117240890Y-94669569D01*
X116989000Y-94618560D01*
X113389000Y-94618560D01*
X113153683Y-94662838D01*
X112937559Y-94801910D01*
X112792569Y-95014110D01*
X112741560Y-95266000D01*
X104775000Y-95266000D01*
X104775000Y-93980000D01*
X107627411Y-93980000D01*
X107737801Y-94025838D01*
X108109767Y-94026162D01*
X108405611Y-93903922D01*
X108410273Y-93908592D01*
X108753801Y-94051238D01*
X109125767Y-94051562D01*
X109469543Y-93909517D01*
X109732792Y-93646727D01*
X109875438Y-93303199D01*
X109875762Y-92931233D01*
X109813150Y-92779700D01*
X109761929Y-92522194D01*
X109569218Y-92233782D01*
X106101436Y-88766000D01*
X112706296Y-88766000D01*
X112830753Y-89391687D01*
X113185176Y-89922120D01*
X113715609Y-90276543D01*
X114341296Y-90401000D01*
X116036704Y-90401000D01*
X116662391Y-90276543D01*
X117192824Y-89922120D01*
X117547247Y-89391687D01*
X117671704Y-88766000D01*
X117547247Y-88140313D01*
X117192824Y-87609880D01*
X116662391Y-87255457D01*
X116036704Y-87131000D01*
X114341296Y-87131000D01*
X113715609Y-87255457D01*
X113185176Y-87609880D01*
X112830753Y-88140313D01*
X112706296Y-88766000D01*
X106101436Y-88766000D01*
X105454418Y-88118982D01*
X105166006Y-87926271D01*
X104825800Y-87858600D01*
X104775000Y-87858600D01*
X104775000Y-74131305D01*
X114534674Y-74131305D01*
X114821043Y-74824372D01*
X115350839Y-75355093D01*
X116043405Y-75642672D01*
X116793305Y-75643326D01*
X117486372Y-75356957D01*
X118017093Y-74827161D01*
X118304672Y-74134595D01*
X118305326Y-73384695D01*
X118018957Y-72691628D01*
X117489161Y-72160907D01*
X116796595Y-71873328D01*
X116046695Y-71872674D01*
X115353628Y-72159043D01*
X114822907Y-72688839D01*
X114535328Y-73381405D01*
X114534674Y-74131305D01*
X104775000Y-74131305D01*
X104775000Y-70358000D01*
X104764994Y-70308590D01*
X104736553Y-70266965D01*
X104694159Y-70239685D01*
X104648000Y-70231000D01*
X100330000Y-70231000D01*
X100280590Y-70241006D01*
X100238965Y-70269447D01*
X100211685Y-70311841D01*
X100203000Y-70358000D01*
X100203000Y-71005764D01*
X99434618Y-70237382D01*
X99244549Y-70110382D01*
X99146206Y-70044671D01*
X98806000Y-69977000D01*
X97198189Y-69977000D01*
X97087799Y-69931162D01*
X96715833Y-69930838D01*
X96372057Y-70072883D01*
X96108808Y-70335673D01*
X95966162Y-70679201D01*
X95965838Y-71051167D01*
X96107883Y-71394943D01*
X96370673Y-71658192D01*
X96714201Y-71800838D01*
X97086167Y-71801162D01*
X97197888Y-71755000D01*
X98437764Y-71755000D01*
X99447382Y-72764618D01*
X99735794Y-72957329D01*
X100076000Y-73025000D01*
X100203000Y-73025000D01*
X100203000Y-87858600D01*
X87723989Y-87858600D01*
X87613599Y-87812762D01*
X87241633Y-87812438D01*
X86897857Y-87954483D01*
X86634608Y-88217273D01*
X86491962Y-88560801D01*
X86491638Y-88932767D01*
X86633683Y-89276543D01*
X86896473Y-89539792D01*
X87240001Y-89682438D01*
X87611967Y-89682762D01*
X87723688Y-89636600D01*
X100203000Y-89636600D01*
X100203000Y-92202000D01*
X86487000Y-92202000D01*
X86146794Y-92269671D01*
X85858382Y-92462382D01*
X84385182Y-93935582D01*
X84192471Y-94223994D01*
X84124800Y-94564200D01*
X84124800Y-95364364D01*
X83858164Y-95631000D01*
X83609189Y-95631000D01*
X83498799Y-95585162D01*
X83126833Y-95584838D01*
X82783057Y-95726883D01*
X82519808Y-95989673D01*
X82377162Y-96333201D01*
X82376838Y-96705167D01*
X82518883Y-97048943D01*
X82781673Y-97312192D01*
X83014811Y-97409000D01*
X81199111Y-97409000D01*
X81199162Y-97350833D01*
X81057117Y-97007057D01*
X80794327Y-96743808D01*
X80450799Y-96601162D01*
X80078833Y-96600838D01*
X79735057Y-96742883D01*
X79471808Y-97005673D01*
X79329162Y-97349201D01*
X79329110Y-97409000D01*
X77343000Y-97409000D01*
X77343000Y-78387691D01*
X85005000Y-78387691D01*
X85005000Y-80378250D01*
X85163750Y-80537000D01*
X85297290Y-80537000D01*
X85291643Y-80554925D01*
X85312359Y-80791000D01*
X85163750Y-80791000D01*
X85005000Y-80949750D01*
X85005000Y-82940309D01*
X85101673Y-83173698D01*
X85280301Y-83352327D01*
X85513690Y-83449000D01*
X87504250Y-83449000D01*
X87663000Y-83290250D01*
X87663000Y-83090112D01*
X87772827Y-83044620D01*
X87790000Y-82859036D01*
X87807173Y-83044620D01*
X87917000Y-83079217D01*
X87917000Y-83290250D01*
X88075750Y-83449000D01*
X90066310Y-83449000D01*
X90299699Y-83352327D01*
X90478327Y-83173698D01*
X90575000Y-82940309D01*
X90575000Y-80949750D01*
X90416250Y-80791000D01*
X90282710Y-80791000D01*
X90288357Y-80773075D01*
X90267641Y-80537000D01*
X90416250Y-80537000D01*
X90575000Y-80378250D01*
X90575000Y-78387691D01*
X90478327Y-78154302D01*
X90299699Y-77975673D01*
X90066310Y-77879000D01*
X88075750Y-77879000D01*
X87917000Y-78037750D01*
X87917000Y-78237888D01*
X87807173Y-78283380D01*
X87790000Y-78468964D01*
X87772827Y-78283380D01*
X87663000Y-78248783D01*
X87663000Y-78037750D01*
X87504250Y-77879000D01*
X85513690Y-77879000D01*
X85280301Y-77975673D01*
X85101673Y-78154302D01*
X85005000Y-78387691D01*
X77343000Y-78387691D01*
X77343000Y-66421000D01*
X104648000Y-66421000D01*
X104697410Y-66410994D01*
X104739035Y-66382553D01*
X104766315Y-66340159D01*
X104775000Y-66294000D01*
X104775000Y-65278000D01*
X104764994Y-65228590D01*
X104736553Y-65186965D01*
X104694159Y-65159685D01*
X104648000Y-65151000D01*
X103505000Y-65151000D01*
X103505000Y-64516000D01*
X103494994Y-64466590D01*
X103466553Y-64424965D01*
X103424159Y-64397685D01*
X103378000Y-64389000D01*
X77598090Y-64389000D01*
X77598155Y-64381305D01*
X108784674Y-64381305D01*
X109071043Y-65074372D01*
X109600839Y-65605093D01*
X110293405Y-65892672D01*
X111043305Y-65893326D01*
X111736372Y-65606957D01*
X112002472Y-65341320D01*
X132016285Y-65341320D01*
X132145533Y-65634123D01*
X132845806Y-65902388D01*
X133595435Y-65882250D01*
X134194467Y-65634123D01*
X134323715Y-65341320D01*
X133170000Y-64187605D01*
X132016285Y-65341320D01*
X112002472Y-65341320D01*
X112267093Y-65077161D01*
X112554672Y-64384595D01*
X112555283Y-63683806D01*
X131275612Y-63683806D01*
X131295750Y-64433435D01*
X131543877Y-65032467D01*
X131836680Y-65161715D01*
X132990395Y-64008000D01*
X133349605Y-64008000D01*
X134503320Y-65161715D01*
X134796123Y-65032467D01*
X135064388Y-64332194D01*
X135044250Y-63582565D01*
X134796123Y-62983533D01*
X134503320Y-62854285D01*
X133349605Y-64008000D01*
X132990395Y-64008000D01*
X131836680Y-62854285D01*
X131543877Y-62983533D01*
X131275612Y-63683806D01*
X112555283Y-63683806D01*
X112555326Y-63634695D01*
X112268957Y-62941628D01*
X112002475Y-62674680D01*
X132016285Y-62674680D01*
X133170000Y-63828395D01*
X134323715Y-62674680D01*
X134194467Y-62381877D01*
X133494194Y-62113612D01*
X132744565Y-62133750D01*
X132145533Y-62381877D01*
X132016285Y-62674680D01*
X112002475Y-62674680D01*
X111739161Y-62410907D01*
X111046595Y-62123328D01*
X110296695Y-62122674D01*
X109603628Y-62409043D01*
X109072907Y-62938839D01*
X108785328Y-63631405D01*
X108784674Y-64381305D01*
X77598155Y-64381305D01*
X77784327Y-42599191D01*
X86526500Y-42599191D01*
X86526500Y-44589750D01*
X86685250Y-44748500D01*
X86818790Y-44748500D01*
X86813143Y-44766425D01*
X86833859Y-45002500D01*
X86685250Y-45002500D01*
X86526500Y-45161250D01*
X86526500Y-47151809D01*
X86623173Y-47385198D01*
X86801801Y-47563827D01*
X87035190Y-47660500D01*
X89025750Y-47660500D01*
X89184500Y-47501750D01*
X89184500Y-47301612D01*
X89294327Y-47256120D01*
X89311500Y-47070536D01*
X89328673Y-47256120D01*
X89438500Y-47290717D01*
X89438500Y-47501750D01*
X89597250Y-47660500D01*
X91587810Y-47660500D01*
X91821199Y-47563827D01*
X91999827Y-47385198D01*
X92096500Y-47151809D01*
X92096500Y-45161250D01*
X91937750Y-45002500D01*
X91804210Y-45002500D01*
X91809857Y-44984575D01*
X91789141Y-44748500D01*
X91937750Y-44748500D01*
X92096500Y-44589750D01*
X92096500Y-42599191D01*
X91999827Y-42365802D01*
X91821199Y-42187173D01*
X91587810Y-42090500D01*
X89597250Y-42090500D01*
X89438500Y-42249250D01*
X89438500Y-42449388D01*
X89328673Y-42494880D01*
X89311500Y-42680464D01*
X89294327Y-42494880D01*
X89184500Y-42460283D01*
X89184500Y-42249250D01*
X89025750Y-42090500D01*
X87035190Y-42090500D01*
X86801801Y-42187173D01*
X86623173Y-42365802D01*
X86526500Y-42599191D01*
X77784327Y-42599191D01*
X77849919Y-34925000D01*
X101485764Y-34925000D01*
X96145382Y-40265382D01*
X95952671Y-40553794D01*
X95885000Y-40894000D01*
X95885000Y-55511764D01*
X91833764Y-59563000D01*
X85217000Y-59563000D01*
X84876794Y-59630671D01*
X84588382Y-59823382D01*
X83401526Y-61010238D01*
X83291057Y-61055883D01*
X83027808Y-61318673D01*
X82885162Y-61662201D01*
X82884838Y-62034167D01*
X83026883Y-62377943D01*
X83158111Y-62509400D01*
X82279552Y-62509400D01*
X81627000Y-62107830D01*
X81627000Y-62101069D01*
X81706838Y-61908799D01*
X81707162Y-61536833D01*
X81565117Y-61193057D01*
X81302327Y-60929808D01*
X80958799Y-60787162D01*
X80586833Y-60786838D01*
X80243057Y-60928883D01*
X79979808Y-61191673D01*
X79837162Y-61535201D01*
X79836838Y-61907167D01*
X79917000Y-62101174D01*
X79917000Y-62585600D01*
X79936512Y-62683693D01*
X79940251Y-62783635D01*
X79968749Y-62845758D01*
X79982083Y-62912794D01*
X80037648Y-62995952D01*
X80079349Y-63086858D01*
X80129453Y-63133348D01*
X80167424Y-63190176D01*
X80250581Y-63245740D01*
X80323897Y-63313768D01*
X81451091Y-64007426D01*
X81464182Y-64027018D01*
X81752594Y-64219729D01*
X82092800Y-64287400D01*
X92811600Y-64287400D01*
X93151806Y-64219729D01*
X93440218Y-64027018D01*
X99434618Y-58032618D01*
X99532184Y-57886600D01*
X99627329Y-57744206D01*
X99695000Y-57404000D01*
X99695000Y-41781981D01*
X99744615Y-41707726D01*
X101727000Y-40089081D01*
X101727000Y-49022000D01*
X101643189Y-49022000D01*
X101532799Y-48976162D01*
X101160833Y-48975838D01*
X100891408Y-49087162D01*
X100878794Y-49089671D01*
X100868194Y-49096754D01*
X100817057Y-49117883D01*
X100777553Y-49157318D01*
X100590382Y-49282382D01*
X100397671Y-49570794D01*
X100330000Y-49911000D01*
X100397671Y-50251206D01*
X100590382Y-50539618D01*
X100776583Y-50664034D01*
X100815673Y-50703192D01*
X100867223Y-50724598D01*
X100878794Y-50732329D01*
X100892323Y-50735020D01*
X101159201Y-50845838D01*
X101531167Y-50846162D01*
X101642888Y-50800000D01*
X101727000Y-50800000D01*
X101727000Y-56388000D01*
X101737006Y-56437410D01*
X101765447Y-56479035D01*
X101807841Y-56506315D01*
X101854000Y-56515000D01*
X103378000Y-56515000D01*
X103427410Y-56504994D01*
X103469035Y-56476553D01*
X103496315Y-56434159D01*
X103505000Y-56388000D01*
X103505000Y-54631305D01*
X114534674Y-54631305D01*
X114821043Y-55324372D01*
X115350839Y-55855093D01*
X116043405Y-56142672D01*
X116793305Y-56143326D01*
X117486372Y-55856957D01*
X118017093Y-55327161D01*
X118304672Y-54634595D01*
X118305326Y-53884695D01*
X118018957Y-53191628D01*
X117489161Y-52660907D01*
X116796595Y-52373328D01*
X116046695Y-52372674D01*
X115353628Y-52659043D01*
X114822907Y-53188839D01*
X114535328Y-53881405D01*
X114534674Y-54631305D01*
X103505000Y-54631305D01*
X103505000Y-50800000D01*
X105493811Y-50800000D01*
X105604201Y-50845838D01*
X105976167Y-50846162D01*
X106319943Y-50704117D01*
X106583192Y-50441327D01*
X106725838Y-50097799D01*
X106726162Y-49725833D01*
X106584117Y-49382057D01*
X106321327Y-49118808D01*
X105977799Y-48976162D01*
X105605833Y-48975838D01*
X105494112Y-49022000D01*
X103505000Y-49022000D01*
X103505000Y-38637320D01*
X107035522Y-35754600D01*
X134010400Y-35754600D01*
X134337595Y-35689517D01*
X134614976Y-35504176D01*
X135910376Y-34208776D01*
X136095717Y-33931395D01*
X136124216Y-33788120D01*
X136160800Y-33604200D01*
X136160800Y-31392469D01*
X136240638Y-31200199D01*
X136240962Y-30828233D01*
X136098917Y-30484457D01*
X135836127Y-30221208D01*
X135492599Y-30078562D01*
X135120633Y-30078238D01*
X134776857Y-30220283D01*
X134513608Y-30483073D01*
X134370962Y-30826601D01*
X134370638Y-31198567D01*
X134450800Y-31392574D01*
X134450800Y-33250048D01*
X133656248Y-34044600D01*
X115411973Y-34044600D01*
X115795824Y-33788120D01*
X116150247Y-33257687D01*
X116274704Y-32632000D01*
X116150247Y-32006313D01*
X115795824Y-31475880D01*
X115265391Y-31121457D01*
X114639704Y-30997000D01*
X112944296Y-30997000D01*
X112318609Y-31121457D01*
X111788176Y-31475880D01*
X111433753Y-32006313D01*
X111309296Y-32632000D01*
X111433753Y-33257687D01*
X111788176Y-33788120D01*
X112172027Y-34044600D01*
X109139104Y-34044600D01*
X109139162Y-33977833D01*
X108997117Y-33634057D01*
X108734327Y-33370808D01*
X108390799Y-33228162D01*
X108018833Y-33227838D01*
X107907112Y-33274000D01*
X104648000Y-33274000D01*
X104307794Y-33341671D01*
X104019382Y-33534382D01*
X103759000Y-33794764D01*
X103759000Y-30594236D01*
X104355836Y-29997400D01*
X106992411Y-29997400D01*
X107102801Y-30043238D01*
X107474767Y-30043562D01*
X107818543Y-29901517D01*
X108081792Y-29638727D01*
X108224438Y-29295199D01*
X108224762Y-28923233D01*
X108082717Y-28579457D01*
X107819927Y-28316208D01*
X107476399Y-28173562D01*
X107104433Y-28173238D01*
X106992712Y-28219400D01*
X103987600Y-28219400D01*
X103647394Y-28287071D01*
X103505000Y-28382216D01*
X103505000Y-24765000D01*
X139319000Y-24765000D01*
X139319000Y-36245800D01*
X108704389Y-36245800D01*
X108593999Y-36199962D01*
X108222033Y-36199638D01*
X107890161Y-36336764D01*
X107819927Y-36266408D01*
X107476399Y-36123762D01*
X107104433Y-36123438D01*
X106760657Y-36265483D01*
X106497408Y-36528273D01*
X106354762Y-36871801D01*
X106354438Y-37243767D01*
X106400600Y-37355488D01*
X106400600Y-38735000D01*
X106468271Y-39075206D01*
X106660982Y-39363618D01*
X106949394Y-39556329D01*
X107289600Y-39624000D01*
X109728000Y-39624000D01*
X110068206Y-39556329D01*
X110356618Y-39363618D01*
X110858236Y-38862000D01*
X111407943Y-38862000D01*
X111395569Y-38880110D01*
X111344560Y-39132000D01*
X111344560Y-41132000D01*
X111388838Y-41367317D01*
X111527910Y-41583441D01*
X111740110Y-41728431D01*
X111992000Y-41779440D01*
X115592000Y-41779440D01*
X115827317Y-41735162D01*
X116043441Y-41596090D01*
X116188431Y-41383890D01*
X116239440Y-41132000D01*
X116239440Y-39132000D01*
X116195162Y-38896683D01*
X116172844Y-38862000D01*
X129425764Y-38862000D01*
X130562382Y-39998618D01*
X130850794Y-40191329D01*
X131191000Y-40259000D01*
X139319000Y-40259000D01*
X139319000Y-44704000D01*
X133901189Y-44704000D01*
X133790799Y-44658162D01*
X133418833Y-44657838D01*
X133075057Y-44799883D01*
X132811808Y-45062673D01*
X132669162Y-45406201D01*
X132668838Y-45778167D01*
X132810883Y-46121943D01*
X133073673Y-46385192D01*
X133417201Y-46527838D01*
X133789167Y-46528162D01*
X133900888Y-46482000D01*
X139319000Y-46482000D01*
X139319000Y-57150000D01*
X139329006Y-57199410D01*
X139357447Y-57241035D01*
X139399841Y-57268315D01*
X139446000Y-57277000D01*
X140970000Y-57277000D01*
X141019410Y-57266994D01*
X141061035Y-57238553D01*
X141088315Y-57196159D01*
X141096996Y-57150977D01*
X141179065Y-46482000D01*
X146177000Y-46482000D01*
X146517206Y-46414329D01*
X146805618Y-46221618D01*
X147567618Y-45459618D01*
X147622726Y-45377143D01*
X147760329Y-45171206D01*
X147828000Y-44831000D01*
X147828000Y-44694691D01*
X150090000Y-44694691D01*
X150090000Y-46685250D01*
X150248750Y-46844000D01*
X150382290Y-46844000D01*
X150376643Y-46861925D01*
X150397359Y-47098000D01*
X150248750Y-47098000D01*
X150090000Y-47256750D01*
X150090000Y-49247309D01*
X150186673Y-49480698D01*
X150365301Y-49659327D01*
X150598690Y-49756000D01*
X152589250Y-49756000D01*
X152748000Y-49597250D01*
X152748000Y-49397112D01*
X152857827Y-49351620D01*
X152875000Y-49166036D01*
X152892173Y-49351620D01*
X153002000Y-49386217D01*
X153002000Y-49597250D01*
X153160750Y-49756000D01*
X155151310Y-49756000D01*
X155384699Y-49659327D01*
X155563327Y-49480698D01*
X155660000Y-49247309D01*
X155660000Y-47256750D01*
X155501250Y-47098000D01*
X155367710Y-47098000D01*
X155373357Y-47080075D01*
X155352641Y-46844000D01*
X155501250Y-46844000D01*
X155660000Y-46685250D01*
X155660000Y-44694691D01*
X155563327Y-44461302D01*
X155384699Y-44282673D01*
X155151310Y-44186000D01*
X153160750Y-44186000D01*
X153002000Y-44344750D01*
X153002000Y-44544888D01*
X152892173Y-44590380D01*
X152875000Y-44775964D01*
X152857827Y-44590380D01*
X152748000Y-44555783D01*
X152748000Y-44344750D01*
X152589250Y-44186000D01*
X150598690Y-44186000D01*
X150365301Y-44282673D01*
X150186673Y-44461302D01*
X150090000Y-44694691D01*
X147828000Y-44694691D01*
X147828000Y-41445189D01*
X147873838Y-41334799D01*
X147874162Y-40962833D01*
X147732117Y-40619057D01*
X147469327Y-40355808D01*
X147125799Y-40213162D01*
X146753833Y-40212838D01*
X146410057Y-40354883D01*
X146146808Y-40617673D01*
X146004162Y-40961201D01*
X146003838Y-41333167D01*
X146050000Y-41444888D01*
X146050000Y-44462764D01*
X145808764Y-44704000D01*
X141192742Y-44704000D01*
X141226934Y-40259000D01*
X145034000Y-40259000D01*
X145374206Y-40191329D01*
X145662618Y-39998618D01*
X155435236Y-30226000D01*
X156420811Y-30226000D01*
X156531201Y-30271838D01*
X156903167Y-30272162D01*
X157246943Y-30130117D01*
X157510192Y-29867327D01*
X157652838Y-29523799D01*
X157653162Y-29151833D01*
X157511117Y-28808057D01*
X157248327Y-28544808D01*
X156904799Y-28402162D01*
X156532833Y-28401838D01*
X156421112Y-28448000D01*
X155067000Y-28448000D01*
X154726795Y-28515670D01*
X154438382Y-28708382D01*
X145041465Y-38105299D01*
X154600545Y-27855200D01*
X158962034Y-27855200D01*
X159419000Y-28754391D01*
X159419000Y-28957931D01*
X159339162Y-29150201D01*
X159338838Y-29522167D01*
X159480883Y-29865943D01*
X159743673Y-30129192D01*
X160087201Y-30271838D01*
X160459167Y-30272162D01*
X160802943Y-30130117D01*
X161066192Y-29867327D01*
X161208838Y-29523799D01*
X161209162Y-29151833D01*
X161129000Y-28957826D01*
X161129000Y-28549600D01*
X161122458Y-28516713D01*
X161126435Y-28483417D01*
X161090117Y-28354120D01*
X161063917Y-28222406D01*
X161045288Y-28194526D01*
X161036220Y-28162243D01*
X160248820Y-26612842D01*
X160165785Y-26507284D01*
X160091176Y-26395624D01*
X160063295Y-26376995D01*
X160042564Y-26350640D01*
X159925461Y-26284896D01*
X159813794Y-26210283D01*
X159780906Y-26203741D01*
X159751667Y-26187326D01*
X159618321Y-26171401D01*
X159486600Y-26145200D01*
X155722615Y-26145200D01*
X155722762Y-25976833D01*
X155580717Y-25633057D01*
X155317927Y-25369808D01*
X154974399Y-25227162D01*
X154602433Y-25226838D01*
X154490712Y-25273000D01*
X153416000Y-25273000D01*
X153075795Y-25340670D01*
X152787382Y-25533382D01*
X142074964Y-36245800D01*
X141257805Y-36245800D01*
X141350027Y-24257000D01*
X161719510Y-24257000D01*
X164719000Y-30255980D01*
G36*
X154236643Y-81951925D02*
X154257359Y-82188000D01*
X154154110Y-82188000D01*
X154041253Y-82075143D01*
X154055395Y-82061000D01*
X154041253Y-82046858D01*
X154154110Y-81934000D01*
X154242290Y-81934000D01*
X154236643Y-81951925D01*
X154236643Y-81951925D01*
G37*
X154236643Y-81951925D02*
X154257359Y-82188000D01*
X154154110Y-82188000D01*
X154041253Y-82075143D01*
X154055395Y-82061000D01*
X154041253Y-82046858D01*
X154154110Y-81934000D01*
X154242290Y-81934000D01*
X154236643Y-81951925D01*
G36*
X157428748Y-82046858D02*
X157414605Y-82061000D01*
X157428748Y-82075143D01*
X157315890Y-82188000D01*
X157227710Y-82188000D01*
X157233357Y-82170075D01*
X157212641Y-81934000D01*
X157315890Y-81934000D01*
X157428748Y-82046858D01*
X157428748Y-82046858D01*
G37*
X157428748Y-82046858D02*
X157414605Y-82061000D01*
X157428748Y-82075143D01*
X157315890Y-82188000D01*
X157227710Y-82188000D01*
X157233357Y-82170075D01*
X157212641Y-81934000D01*
X157315890Y-81934000D01*
X157428748Y-82046858D01*
G36*
X156236643Y-81951925D02*
X156257359Y-82188000D01*
X156227710Y-82188000D01*
X156233357Y-82170075D01*
X156212641Y-81934000D01*
X156242290Y-81934000D01*
X156236643Y-81951925D01*
X156236643Y-81951925D01*
G37*
X156236643Y-81951925D02*
X156257359Y-82188000D01*
X156227710Y-82188000D01*
X156233357Y-82170075D01*
X156212641Y-81934000D01*
X156242290Y-81934000D01*
X156236643Y-81951925D01*
G36*
X155236643Y-81951925D02*
X155257359Y-82188000D01*
X155227710Y-82188000D01*
X155233357Y-82170075D01*
X155212641Y-81934000D01*
X155242290Y-81934000D01*
X155236643Y-81951925D01*
X155236643Y-81951925D01*
G37*
X155236643Y-81951925D02*
X155257359Y-82188000D01*
X155227710Y-82188000D01*
X155233357Y-82170075D01*
X155212641Y-81934000D01*
X155242290Y-81934000D01*
X155236643Y-81951925D01*
G36*
X88291643Y-80554925D02*
X88312359Y-80791000D01*
X88282710Y-80791000D01*
X88288357Y-80773075D01*
X88267641Y-80537000D01*
X88297290Y-80537000D01*
X88291643Y-80554925D01*
X88291643Y-80554925D01*
G37*
X88291643Y-80554925D02*
X88312359Y-80791000D01*
X88282710Y-80791000D01*
X88288357Y-80773075D01*
X88267641Y-80537000D01*
X88297290Y-80537000D01*
X88291643Y-80554925D01*
G36*
X89483748Y-80649858D02*
X89469605Y-80664000D01*
X89483748Y-80678143D01*
X89370890Y-80791000D01*
X89282710Y-80791000D01*
X89288357Y-80773075D01*
X89267641Y-80537000D01*
X89370890Y-80537000D01*
X89483748Y-80649858D01*
X89483748Y-80649858D01*
G37*
X89483748Y-80649858D02*
X89469605Y-80664000D01*
X89483748Y-80678143D01*
X89370890Y-80791000D01*
X89282710Y-80791000D01*
X89288357Y-80773075D01*
X89267641Y-80537000D01*
X89370890Y-80537000D01*
X89483748Y-80649858D01*
G36*
X87291643Y-80554925D02*
X87312359Y-80791000D01*
X87282710Y-80791000D01*
X87288357Y-80773075D01*
X87267641Y-80537000D01*
X87297290Y-80537000D01*
X87291643Y-80554925D01*
X87291643Y-80554925D01*
G37*
X87291643Y-80554925D02*
X87312359Y-80791000D01*
X87282710Y-80791000D01*
X87288357Y-80773075D01*
X87267641Y-80537000D01*
X87297290Y-80537000D01*
X87291643Y-80554925D01*
G36*
X86291643Y-80554925D02*
X86312359Y-80791000D01*
X86209110Y-80791000D01*
X86096253Y-80678143D01*
X86110395Y-80664000D01*
X86096253Y-80649858D01*
X86209110Y-80537000D01*
X86297290Y-80537000D01*
X86291643Y-80554925D01*
X86291643Y-80554925D01*
G37*
X86291643Y-80554925D02*
X86312359Y-80791000D01*
X86209110Y-80791000D01*
X86096253Y-80678143D01*
X86110395Y-80664000D01*
X86096253Y-80649858D01*
X86209110Y-80537000D01*
X86297290Y-80537000D01*
X86291643Y-80554925D01*
G36*
X151376643Y-46861925D02*
X151397359Y-47098000D01*
X151294110Y-47098000D01*
X151181253Y-46985143D01*
X151195395Y-46971000D01*
X151181253Y-46956858D01*
X151294110Y-46844000D01*
X151382290Y-46844000D01*
X151376643Y-46861925D01*
X151376643Y-46861925D01*
G37*
X151376643Y-46861925D02*
X151397359Y-47098000D01*
X151294110Y-47098000D01*
X151181253Y-46985143D01*
X151195395Y-46971000D01*
X151181253Y-46956858D01*
X151294110Y-46844000D01*
X151382290Y-46844000D01*
X151376643Y-46861925D01*
G36*
X153376643Y-46861925D02*
X153397359Y-47098000D01*
X153367710Y-47098000D01*
X153373357Y-47080075D01*
X153352641Y-46844000D01*
X153382290Y-46844000D01*
X153376643Y-46861925D01*
X153376643Y-46861925D01*
G37*
X153376643Y-46861925D02*
X153397359Y-47098000D01*
X153367710Y-47098000D01*
X153373357Y-47080075D01*
X153352641Y-46844000D01*
X153382290Y-46844000D01*
X153376643Y-46861925D01*
G36*
X152376643Y-46861925D02*
X152397359Y-47098000D01*
X152367710Y-47098000D01*
X152373357Y-47080075D01*
X152352641Y-46844000D01*
X152382290Y-46844000D01*
X152376643Y-46861925D01*
X152376643Y-46861925D01*
G37*
X152376643Y-46861925D02*
X152397359Y-47098000D01*
X152367710Y-47098000D01*
X152373357Y-47080075D01*
X152352641Y-46844000D01*
X152382290Y-46844000D01*
X152376643Y-46861925D01*
G36*
X154568748Y-46956858D02*
X154554605Y-46971000D01*
X154568748Y-46985143D01*
X154455890Y-47098000D01*
X154367710Y-47098000D01*
X154373357Y-47080075D01*
X154352641Y-46844000D01*
X154455890Y-46844000D01*
X154568748Y-46956858D01*
X154568748Y-46956858D01*
G37*
X154568748Y-46956858D02*
X154554605Y-46971000D01*
X154568748Y-46985143D01*
X154455890Y-47098000D01*
X154367710Y-47098000D01*
X154373357Y-47080075D01*
X154352641Y-46844000D01*
X154455890Y-46844000D01*
X154568748Y-46956858D01*
G36*
X91005248Y-44861358D02*
X90991105Y-44875500D01*
X91005248Y-44889643D01*
X90892390Y-45002500D01*
X90804210Y-45002500D01*
X90809857Y-44984575D01*
X90789141Y-44748500D01*
X90892390Y-44748500D01*
X91005248Y-44861358D01*
X91005248Y-44861358D01*
G37*
X91005248Y-44861358D02*
X90991105Y-44875500D01*
X91005248Y-44889643D01*
X90892390Y-45002500D01*
X90804210Y-45002500D01*
X90809857Y-44984575D01*
X90789141Y-44748500D01*
X90892390Y-44748500D01*
X91005248Y-44861358D01*
G36*
X88813143Y-44766425D02*
X88833859Y-45002500D01*
X88804210Y-45002500D01*
X88809857Y-44984575D01*
X88789141Y-44748500D01*
X88818790Y-44748500D01*
X88813143Y-44766425D01*
X88813143Y-44766425D01*
G37*
X88813143Y-44766425D02*
X88833859Y-45002500D01*
X88804210Y-45002500D01*
X88809857Y-44984575D01*
X88789141Y-44748500D01*
X88818790Y-44748500D01*
X88813143Y-44766425D01*
G36*
X89813143Y-44766425D02*
X89833859Y-45002500D01*
X89804210Y-45002500D01*
X89809857Y-44984575D01*
X89789141Y-44748500D01*
X89818790Y-44748500D01*
X89813143Y-44766425D01*
X89813143Y-44766425D01*
G37*
X89813143Y-44766425D02*
X89833859Y-45002500D01*
X89804210Y-45002500D01*
X89809857Y-44984575D01*
X89789141Y-44748500D01*
X89818790Y-44748500D01*
X89813143Y-44766425D01*
G36*
X87813143Y-44766425D02*
X87833859Y-45002500D01*
X87730610Y-45002500D01*
X87617753Y-44889643D01*
X87631895Y-44875500D01*
X87617753Y-44861358D01*
X87730610Y-44748500D01*
X87818790Y-44748500D01*
X87813143Y-44766425D01*
X87813143Y-44766425D01*
G37*
X87813143Y-44766425D02*
X87833859Y-45002500D01*
X87730610Y-45002500D01*
X87617753Y-44889643D01*
X87631895Y-44875500D01*
X87617753Y-44861358D01*
X87730610Y-44748500D01*
X87818790Y-44748500D01*
X87813143Y-44766425D01*
G36*
X100203000Y-102997000D02*
X94495002Y-102997000D01*
X94495002Y-102854778D01*
X94748434Y-102974124D01*
X94876355Y-102943144D01*
X95434317Y-102629922D01*
X95829942Y-102127020D01*
X96003000Y-101511000D01*
X96003000Y-100711000D01*
X94495000Y-100711000D01*
X94495000Y-100731000D01*
X94241000Y-100731000D01*
X94241000Y-100711000D01*
X92733000Y-100711000D01*
X92733000Y-101511000D01*
X92906058Y-102127020D01*
X93301683Y-102629922D01*
X93859645Y-102943144D01*
X93987566Y-102974124D01*
X94240998Y-102854778D01*
X94240998Y-102997000D01*
X90805000Y-102997000D01*
X90805000Y-99657000D01*
X92733000Y-99657000D01*
X92733000Y-100457000D01*
X94241000Y-100457000D01*
X94241000Y-98313223D01*
X94495000Y-98313223D01*
X94495000Y-100457000D01*
X96003000Y-100457000D01*
X96003000Y-99657000D01*
X95829942Y-99040980D01*
X95434317Y-98538078D01*
X94876355Y-98224856D01*
X94748434Y-98193876D01*
X94495000Y-98313223D01*
X94241000Y-98313223D01*
X93987566Y-98193876D01*
X93859645Y-98224856D01*
X93301683Y-98538078D01*
X92906058Y-99040980D01*
X92733000Y-99657000D01*
X90805000Y-99657000D01*
X90805000Y-97536000D01*
X90794994Y-97486590D01*
X90766553Y-97444965D01*
X90724159Y-97417685D01*
X90678000Y-97409000D01*
X84226400Y-97409000D01*
X84566606Y-97341329D01*
X84855018Y-97148618D01*
X85642418Y-96361218D01*
X85763641Y-96179795D01*
X85835129Y-96072806D01*
X85902800Y-95732600D01*
X85902800Y-94932436D01*
X86855236Y-93980000D01*
X100203000Y-93980000D01*
X100203000Y-102997000D01*
X100203000Y-102997000D01*
G37*
X100203000Y-102997000D02*
X94495002Y-102997000D01*
X94495002Y-102854778D01*
X94748434Y-102974124D01*
X94876355Y-102943144D01*
X95434317Y-102629922D01*
X95829942Y-102127020D01*
X96003000Y-101511000D01*
X96003000Y-100711000D01*
X94495000Y-100711000D01*
X94495000Y-100731000D01*
X94241000Y-100731000D01*
X94241000Y-100711000D01*
X92733000Y-100711000D01*
X92733000Y-101511000D01*
X92906058Y-102127020D01*
X93301683Y-102629922D01*
X93859645Y-102943144D01*
X93987566Y-102974124D01*
X94240998Y-102854778D01*
X94240998Y-102997000D01*
X90805000Y-102997000D01*
X90805000Y-99657000D01*
X92733000Y-99657000D01*
X92733000Y-100457000D01*
X94241000Y-100457000D01*
X94241000Y-98313223D01*
X94495000Y-98313223D01*
X94495000Y-100457000D01*
X96003000Y-100457000D01*
X96003000Y-99657000D01*
X95829942Y-99040980D01*
X95434317Y-98538078D01*
X94876355Y-98224856D01*
X94748434Y-98193876D01*
X94495000Y-98313223D01*
X94241000Y-98313223D01*
X93987566Y-98193876D01*
X93859645Y-98224856D01*
X93301683Y-98538078D01*
X92906058Y-99040980D01*
X92733000Y-99657000D01*
X90805000Y-99657000D01*
X90805000Y-97536000D01*
X90794994Y-97486590D01*
X90766553Y-97444965D01*
X90724159Y-97417685D01*
X90678000Y-97409000D01*
X84226400Y-97409000D01*
X84566606Y-97341329D01*
X84855018Y-97148618D01*
X85642418Y-96361218D01*
X85763641Y-96179795D01*
X85835129Y-96072806D01*
X85902800Y-95732600D01*
X85902800Y-94932436D01*
X86855236Y-93980000D01*
X100203000Y-93980000D01*
X100203000Y-102997000D01*
M02*
