G04 #@! TF.FileFunction,Legend,Top*
%FSLAX46Y46*%
G04 Gerber Fmt 4.6, Leading zero omitted, Abs format (unit mm)*
G04 Created by KiCad (PCBNEW 4.0.6) date 11/14/17 15:59:31*
%MOMM*%
%LPD*%
G01*
G04 APERTURE LIST*
%ADD10C,0.100000*%
%ADD11C,0.200000*%
%ADD12C,0.300000*%
%ADD13C,0.125000*%
%ADD14C,0.150000*%
%ADD15C,0.120000*%
G04 APERTURE END LIST*
D10*
D11*
X69951600Y-26009600D02*
X69951600Y-26060400D01*
X70281800Y-26009600D02*
X69951600Y-26009600D01*
X70281800Y-26365200D02*
X70281800Y-26009600D01*
X70281800Y-25552400D02*
X70281800Y-26365200D01*
D12*
X71494687Y-22698971D02*
X70780401Y-22698971D01*
X70708972Y-23413257D01*
X70780401Y-23341829D01*
X70923258Y-23270400D01*
X71280401Y-23270400D01*
X71423258Y-23341829D01*
X71494687Y-23413257D01*
X71566115Y-23556114D01*
X71566115Y-23913257D01*
X71494687Y-24056114D01*
X71423258Y-24127543D01*
X71280401Y-24198971D01*
X70923258Y-24198971D01*
X70780401Y-24127543D01*
X70708972Y-24056114D01*
X71994686Y-22698971D02*
X72494686Y-24198971D01*
X72994686Y-22698971D01*
X48086201Y-14429514D02*
X48014772Y-14500943D01*
X47800486Y-14572371D01*
X47657629Y-14572371D01*
X47443344Y-14500943D01*
X47300486Y-14358086D01*
X47229058Y-14215229D01*
X47157629Y-13929514D01*
X47157629Y-13715229D01*
X47229058Y-13429514D01*
X47300486Y-13286657D01*
X47443344Y-13143800D01*
X47657629Y-13072371D01*
X47800486Y-13072371D01*
X48014772Y-13143800D01*
X48086201Y-13215229D01*
X48586201Y-13072371D02*
X49514772Y-13072371D01*
X49014772Y-13643800D01*
X49229058Y-13643800D01*
X49371915Y-13715229D01*
X49443344Y-13786657D01*
X49514772Y-13929514D01*
X49514772Y-14286657D01*
X49443344Y-14429514D01*
X49371915Y-14500943D01*
X49229058Y-14572371D01*
X48800486Y-14572371D01*
X48657629Y-14500943D01*
X48586201Y-14429514D01*
X40821801Y-14373714D02*
X40750372Y-14445143D01*
X40536086Y-14516571D01*
X40393229Y-14516571D01*
X40178944Y-14445143D01*
X40036086Y-14302286D01*
X39964658Y-14159429D01*
X39893229Y-13873714D01*
X39893229Y-13659429D01*
X39964658Y-13373714D01*
X40036086Y-13230857D01*
X40178944Y-13088000D01*
X40393229Y-13016571D01*
X40536086Y-13016571D01*
X40750372Y-13088000D01*
X40821801Y-13159429D01*
X41393229Y-13159429D02*
X41464658Y-13088000D01*
X41607515Y-13016571D01*
X41964658Y-13016571D01*
X42107515Y-13088000D01*
X42178944Y-13159429D01*
X42250372Y-13302286D01*
X42250372Y-13445143D01*
X42178944Y-13659429D01*
X41321801Y-14516571D01*
X42250372Y-14516571D01*
X18800001Y-40667714D02*
X18728572Y-40739143D01*
X18514286Y-40810571D01*
X18371429Y-40810571D01*
X18157144Y-40739143D01*
X18014286Y-40596286D01*
X17942858Y-40453429D01*
X17871429Y-40167714D01*
X17871429Y-39953429D01*
X17942858Y-39667714D01*
X18014286Y-39524857D01*
X18157144Y-39382000D01*
X18371429Y-39310571D01*
X18514286Y-39310571D01*
X18728572Y-39382000D01*
X18800001Y-39453429D01*
X20228572Y-40810571D02*
X19371429Y-40810571D01*
X19800001Y-40810571D02*
X19800001Y-39310571D01*
X19657144Y-39524857D01*
X19514286Y-39667714D01*
X19371429Y-39739143D01*
X18800001Y-23141714D02*
X18728572Y-23213143D01*
X18514286Y-23284571D01*
X18371429Y-23284571D01*
X18157144Y-23213143D01*
X18014286Y-23070286D01*
X17942858Y-22927429D01*
X17871429Y-22641714D01*
X17871429Y-22427429D01*
X17942858Y-22141714D01*
X18014286Y-21998857D01*
X18157144Y-21856000D01*
X18371429Y-21784571D01*
X18514286Y-21784571D01*
X18728572Y-21856000D01*
X18800001Y-21927429D01*
X19728572Y-21784571D02*
X19871429Y-21784571D01*
X20014286Y-21856000D01*
X20085715Y-21927429D01*
X20157144Y-22070286D01*
X20228572Y-22356000D01*
X20228572Y-22713143D01*
X20157144Y-22998857D01*
X20085715Y-23141714D01*
X20014286Y-23213143D01*
X19871429Y-23284571D01*
X19728572Y-23284571D01*
X19585715Y-23213143D01*
X19514286Y-23141714D01*
X19442858Y-22998857D01*
X19371429Y-22713143D01*
X19371429Y-22356000D01*
X19442858Y-22070286D01*
X19514286Y-21927429D01*
X19585715Y-21856000D01*
X19728572Y-21784571D01*
D11*
X80416400Y-85217000D02*
X80340200Y-85217000D01*
X80416400Y-84861400D02*
X80416400Y-85217000D01*
X79908400Y-84861400D02*
X80797400Y-84861400D01*
X82067400Y-46482000D02*
X82118200Y-46482000D01*
X82067400Y-46050200D02*
X82067400Y-46482000D01*
X82524600Y-46050200D02*
X82067400Y-46050200D01*
X81635600Y-46050200D02*
X82524600Y-46050200D01*
X162788600Y-38074600D02*
X162788600Y-38557200D01*
X163296600Y-38633400D02*
X163296600Y-38709600D01*
X162331400Y-38633400D02*
X163296600Y-38633400D01*
X164465000Y-75057000D02*
X164439600Y-75057000D01*
X164465000Y-74599800D02*
X164465000Y-75057000D01*
X164033200Y-75031600D02*
X164033200Y-75082400D01*
X164465000Y-75031600D02*
X164033200Y-75031600D01*
X164998400Y-75031600D02*
X164465000Y-75031600D01*
X164388800Y-75031600D02*
X164998400Y-75031600D01*
X63881000Y-75793600D02*
X64109600Y-75793600D01*
X64109600Y-76149200D02*
X64058800Y-76149200D01*
X64109600Y-75488800D02*
X64109600Y-76149200D01*
X88823800Y-15544800D02*
X88493600Y-15544800D01*
X88823800Y-15900400D02*
X88849200Y-15900400D01*
X88823800Y-15113000D02*
X88823800Y-15900400D01*
D12*
X33107429Y-23514857D02*
X33607429Y-23514857D01*
X33821715Y-24300571D02*
X33107429Y-24300571D01*
X33107429Y-22800571D01*
X33821715Y-22800571D01*
X35178858Y-24300571D02*
X34464572Y-24300571D01*
X34464572Y-22800571D01*
X26614572Y-27021600D02*
X27328858Y-27021600D01*
X26471715Y-27450171D02*
X26971715Y-25950171D01*
X27471715Y-27450171D01*
X27828858Y-25950171D02*
X28828858Y-25950171D01*
X27828858Y-27450171D01*
X28828858Y-27450171D01*
D13*
X85619982Y-108811933D02*
X85619982Y-107411933D01*
X86091410Y-108811933D02*
X86091410Y-108078600D01*
X86039029Y-107945267D01*
X85934267Y-107878600D01*
X85777125Y-107878600D01*
X85672363Y-107945267D01*
X85619982Y-108011933D01*
X86458077Y-107878600D02*
X86877125Y-107878600D01*
X86615220Y-107411933D02*
X86615220Y-108611933D01*
X86667601Y-108745267D01*
X86772363Y-108811933D01*
X86877125Y-108811933D01*
X87086648Y-107878600D02*
X87505696Y-107878600D01*
X87243791Y-107411933D02*
X87243791Y-108611933D01*
X87296172Y-108745267D01*
X87400934Y-108811933D01*
X87505696Y-108811933D01*
X87872362Y-107878600D02*
X87872362Y-109278600D01*
X87872362Y-107945267D02*
X87977124Y-107878600D01*
X88186647Y-107878600D01*
X88291409Y-107945267D01*
X88343790Y-108011933D01*
X88396171Y-108145267D01*
X88396171Y-108545267D01*
X88343790Y-108678600D01*
X88291409Y-108745267D01*
X88186647Y-108811933D01*
X87977124Y-108811933D01*
X87872362Y-108745267D01*
X88815219Y-108745267D02*
X88919981Y-108811933D01*
X89129505Y-108811933D01*
X89234266Y-108745267D01*
X89286647Y-108611933D01*
X89286647Y-108545267D01*
X89234266Y-108411933D01*
X89129505Y-108345267D01*
X88972362Y-108345267D01*
X88867600Y-108278600D01*
X88815219Y-108145267D01*
X88815219Y-108078600D01*
X88867600Y-107945267D01*
X88972362Y-107878600D01*
X89129505Y-107878600D01*
X89234266Y-107945267D01*
X89758076Y-108678600D02*
X89810457Y-108745267D01*
X89758076Y-108811933D01*
X89705695Y-108745267D01*
X89758076Y-108678600D01*
X89758076Y-108811933D01*
X89758076Y-107945267D02*
X89810457Y-108011933D01*
X89758076Y-108078600D01*
X89705695Y-108011933D01*
X89758076Y-107945267D01*
X89758076Y-108078600D01*
X91067600Y-107345267D02*
X90124743Y-109145267D01*
X92219981Y-107345267D02*
X91277124Y-109145267D01*
X93058076Y-107878600D02*
X93058076Y-109011933D01*
X93005695Y-109145267D01*
X92953314Y-109211933D01*
X92848553Y-109278600D01*
X92691410Y-109278600D01*
X92586648Y-109211933D01*
X93058076Y-108745267D02*
X92953314Y-108811933D01*
X92743791Y-108811933D01*
X92639029Y-108745267D01*
X92586648Y-108678600D01*
X92534267Y-108545267D01*
X92534267Y-108145267D01*
X92586648Y-108011933D01*
X92639029Y-107945267D01*
X92743791Y-107878600D01*
X92953314Y-107878600D01*
X93058076Y-107945267D01*
X93581886Y-108811933D02*
X93581886Y-107878600D01*
X93581886Y-107411933D02*
X93529505Y-107478600D01*
X93581886Y-107545267D01*
X93634267Y-107478600D01*
X93581886Y-107411933D01*
X93581886Y-107545267D01*
X93948553Y-107878600D02*
X94367601Y-107878600D01*
X94105696Y-107411933D02*
X94105696Y-108611933D01*
X94158077Y-108745267D01*
X94262839Y-108811933D01*
X94367601Y-108811933D01*
X94734267Y-108811933D02*
X94734267Y-107411933D01*
X95205695Y-108811933D02*
X95205695Y-108078600D01*
X95153314Y-107945267D01*
X95048552Y-107878600D01*
X94891410Y-107878600D01*
X94786648Y-107945267D01*
X94734267Y-108011933D01*
X96200933Y-107878600D02*
X96200933Y-108811933D01*
X95729505Y-107878600D02*
X95729505Y-108611933D01*
X95781886Y-108745267D01*
X95886648Y-108811933D01*
X96043790Y-108811933D01*
X96148552Y-108745267D01*
X96200933Y-108678600D01*
X96724743Y-108811933D02*
X96724743Y-107411933D01*
X96724743Y-107945267D02*
X96829505Y-107878600D01*
X97039028Y-107878600D01*
X97143790Y-107945267D01*
X97196171Y-108011933D01*
X97248552Y-108145267D01*
X97248552Y-108545267D01*
X97196171Y-108678600D01*
X97143790Y-108745267D01*
X97039028Y-108811933D01*
X96829505Y-108811933D01*
X96724743Y-108745267D01*
X97719981Y-108678600D02*
X97772362Y-108745267D01*
X97719981Y-108811933D01*
X97667600Y-108745267D01*
X97719981Y-108678600D01*
X97719981Y-108811933D01*
X98715219Y-108745267D02*
X98610457Y-108811933D01*
X98400934Y-108811933D01*
X98296172Y-108745267D01*
X98243791Y-108678600D01*
X98191410Y-108545267D01*
X98191410Y-108145267D01*
X98243791Y-108011933D01*
X98296172Y-107945267D01*
X98400934Y-107878600D01*
X98610457Y-107878600D01*
X98715219Y-107945267D01*
X99343791Y-108811933D02*
X99239029Y-108745267D01*
X99186648Y-108678600D01*
X99134267Y-108545267D01*
X99134267Y-108145267D01*
X99186648Y-108011933D01*
X99239029Y-107945267D01*
X99343791Y-107878600D01*
X99500933Y-107878600D01*
X99605695Y-107945267D01*
X99658076Y-108011933D01*
X99710457Y-108145267D01*
X99710457Y-108545267D01*
X99658076Y-108678600D01*
X99605695Y-108745267D01*
X99500933Y-108811933D01*
X99343791Y-108811933D01*
X100181886Y-108811933D02*
X100181886Y-107878600D01*
X100181886Y-108011933D02*
X100234267Y-107945267D01*
X100339029Y-107878600D01*
X100496171Y-107878600D01*
X100600933Y-107945267D01*
X100653314Y-108078600D01*
X100653314Y-108811933D01*
X100653314Y-108078600D02*
X100705695Y-107945267D01*
X100810457Y-107878600D01*
X100967600Y-107878600D01*
X101072362Y-107945267D01*
X101124743Y-108078600D01*
X101124743Y-108811933D01*
X102434267Y-107345267D02*
X101491410Y-109145267D01*
X103167600Y-108078600D02*
X102800934Y-108078600D01*
X102800934Y-108811933D02*
X102800934Y-107411933D01*
X103324743Y-107411933D01*
X104215219Y-108811933D02*
X104215219Y-108078600D01*
X104162838Y-107945267D01*
X104058076Y-107878600D01*
X103848553Y-107878600D01*
X103743791Y-107945267D01*
X104215219Y-108745267D02*
X104110457Y-108811933D01*
X103848553Y-108811933D01*
X103743791Y-108745267D01*
X103691410Y-108611933D01*
X103691410Y-108478600D01*
X103743791Y-108345267D01*
X103848553Y-108278600D01*
X104110457Y-108278600D01*
X104215219Y-108211933D01*
X104739029Y-108811933D02*
X104739029Y-107878600D01*
X104739029Y-108145267D02*
X104791410Y-108011933D01*
X104843791Y-107945267D01*
X104948553Y-107878600D01*
X105053314Y-107878600D01*
X105419981Y-108811933D02*
X105419981Y-107878600D01*
X105419981Y-108011933D02*
X105472362Y-107945267D01*
X105577124Y-107878600D01*
X105734266Y-107878600D01*
X105839028Y-107945267D01*
X105891409Y-108078600D01*
X105891409Y-108811933D01*
X105891409Y-108078600D02*
X105943790Y-107945267D01*
X106048552Y-107878600D01*
X106205695Y-107878600D01*
X106310457Y-107945267D01*
X106362838Y-108078600D01*
X106362838Y-108811933D01*
X106886648Y-107878600D02*
X106886648Y-109278600D01*
X106886648Y-107945267D02*
X106991410Y-107878600D01*
X107200933Y-107878600D01*
X107305695Y-107945267D01*
X107358076Y-108011933D01*
X107410457Y-108145267D01*
X107410457Y-108545267D01*
X107358076Y-108678600D01*
X107305695Y-108745267D01*
X107200933Y-108811933D01*
X106991410Y-108811933D01*
X106886648Y-108745267D01*
X108353314Y-108811933D02*
X108353314Y-108078600D01*
X108300933Y-107945267D01*
X108196171Y-107878600D01*
X107986648Y-107878600D01*
X107881886Y-107945267D01*
X108353314Y-108745267D02*
X108248552Y-108811933D01*
X107986648Y-108811933D01*
X107881886Y-108745267D01*
X107829505Y-108611933D01*
X107829505Y-108478600D01*
X107881886Y-108345267D01*
X107986648Y-108278600D01*
X108248552Y-108278600D01*
X108353314Y-108211933D01*
X108877124Y-108811933D02*
X108877124Y-107878600D01*
X108877124Y-108145267D02*
X108929505Y-108011933D01*
X108981886Y-107945267D01*
X109086648Y-107878600D01*
X109191409Y-107878600D01*
X109558076Y-108811933D02*
X109558076Y-107411933D01*
X109662838Y-108278600D02*
X109977123Y-108811933D01*
X109977123Y-107878600D02*
X109558076Y-108411933D01*
X110396171Y-108745267D02*
X110553314Y-108811933D01*
X110815218Y-108811933D01*
X110919980Y-108745267D01*
X110972361Y-108678600D01*
X111024742Y-108545267D01*
X111024742Y-108411933D01*
X110972361Y-108278600D01*
X110919980Y-108211933D01*
X110815218Y-108145267D01*
X110605695Y-108078600D01*
X110500933Y-108011933D01*
X110448552Y-107945267D01*
X110396171Y-107811933D01*
X110396171Y-107678600D01*
X110448552Y-107545267D01*
X110500933Y-107478600D01*
X110605695Y-107411933D01*
X110867599Y-107411933D01*
X111024742Y-107478600D01*
X111653314Y-108811933D02*
X111548552Y-108745267D01*
X111496171Y-108678600D01*
X111443790Y-108545267D01*
X111443790Y-108145267D01*
X111496171Y-108011933D01*
X111548552Y-107945267D01*
X111653314Y-107878600D01*
X111810456Y-107878600D01*
X111915218Y-107945267D01*
X111967599Y-108011933D01*
X112019980Y-108145267D01*
X112019980Y-108545267D01*
X111967599Y-108678600D01*
X111915218Y-108745267D01*
X111810456Y-108811933D01*
X111653314Y-108811933D01*
X112648552Y-108811933D02*
X112543790Y-108745267D01*
X112491409Y-108611933D01*
X112491409Y-107411933D01*
X113539027Y-108811933D02*
X113539027Y-108078600D01*
X113486646Y-107945267D01*
X113381884Y-107878600D01*
X113172361Y-107878600D01*
X113067599Y-107945267D01*
X113539027Y-108745267D02*
X113434265Y-108811933D01*
X113172361Y-108811933D01*
X113067599Y-108745267D01*
X113015218Y-108611933D01*
X113015218Y-108478600D01*
X113067599Y-108345267D01*
X113172361Y-108278600D01*
X113434265Y-108278600D01*
X113539027Y-108211933D01*
X114062837Y-108811933D02*
X114062837Y-107878600D01*
X114062837Y-108145267D02*
X114115218Y-108011933D01*
X114167599Y-107945267D01*
X114272361Y-107878600D01*
X114377122Y-107878600D01*
X114586646Y-107411933D02*
X115215217Y-107411933D01*
X114900932Y-108811933D02*
X114900932Y-107411933D01*
X115581884Y-108811933D02*
X115581884Y-107878600D01*
X115581884Y-108145267D02*
X115634265Y-108011933D01*
X115686646Y-107945267D01*
X115791408Y-107878600D01*
X115896169Y-107878600D01*
X116734264Y-108811933D02*
X116734264Y-108078600D01*
X116681883Y-107945267D01*
X116577121Y-107878600D01*
X116367598Y-107878600D01*
X116262836Y-107945267D01*
X116734264Y-108745267D02*
X116629502Y-108811933D01*
X116367598Y-108811933D01*
X116262836Y-108745267D01*
X116210455Y-108611933D01*
X116210455Y-108478600D01*
X116262836Y-108345267D01*
X116367598Y-108278600D01*
X116629502Y-108278600D01*
X116734264Y-108211933D01*
X117729502Y-108745267D02*
X117624740Y-108811933D01*
X117415217Y-108811933D01*
X117310455Y-108745267D01*
X117258074Y-108678600D01*
X117205693Y-108545267D01*
X117205693Y-108145267D01*
X117258074Y-108011933D01*
X117310455Y-107945267D01*
X117415217Y-107878600D01*
X117624740Y-107878600D01*
X117729502Y-107945267D01*
X118200931Y-108811933D02*
X118200931Y-107411933D01*
X118305693Y-108278600D02*
X118619978Y-108811933D01*
X118619978Y-107878600D02*
X118200931Y-108411933D01*
X119510454Y-108745267D02*
X119405692Y-108811933D01*
X119196169Y-108811933D01*
X119091407Y-108745267D01*
X119039026Y-108611933D01*
X119039026Y-108078600D01*
X119091407Y-107945267D01*
X119196169Y-107878600D01*
X119405692Y-107878600D01*
X119510454Y-107945267D01*
X119562835Y-108078600D01*
X119562835Y-108211933D01*
X119039026Y-108345267D01*
X120034264Y-108811933D02*
X120034264Y-107878600D01*
X120034264Y-108145267D02*
X120086645Y-108011933D01*
X120139026Y-107945267D01*
X120243788Y-107878600D01*
X120348549Y-107878600D01*
X121500930Y-107345267D02*
X120558073Y-109145267D01*
X122391406Y-108811933D02*
X121867597Y-108811933D01*
X121867597Y-107411933D01*
X123229501Y-108811933D02*
X123229501Y-108078600D01*
X123177120Y-107945267D01*
X123072358Y-107878600D01*
X122862835Y-107878600D01*
X122758073Y-107945267D01*
X123229501Y-108745267D02*
X123124739Y-108811933D01*
X122862835Y-108811933D01*
X122758073Y-108745267D01*
X122705692Y-108611933D01*
X122705692Y-108478600D01*
X122758073Y-108345267D01*
X122862835Y-108278600D01*
X123124739Y-108278600D01*
X123229501Y-108211933D01*
X123753311Y-108811933D02*
X123753311Y-107411933D01*
X123858073Y-108278600D02*
X124172358Y-108811933D01*
X124172358Y-107878600D02*
X123753311Y-108411933D01*
X125062834Y-108745267D02*
X124958072Y-108811933D01*
X124748549Y-108811933D01*
X124643787Y-108745267D01*
X124591406Y-108611933D01*
X124591406Y-108078600D01*
X124643787Y-107945267D01*
X124748549Y-107878600D01*
X124958072Y-107878600D01*
X125062834Y-107945267D01*
X125115215Y-108078600D01*
X125115215Y-108211933D01*
X124591406Y-108345267D01*
X125324739Y-108945267D02*
X126162834Y-108945267D01*
X126424739Y-108811933D02*
X126424739Y-107411933D01*
X126791405Y-108411933D01*
X127158072Y-107411933D01*
X127158072Y-108811933D01*
X128100929Y-108745267D02*
X127996167Y-108811933D01*
X127786644Y-108811933D01*
X127681882Y-108745267D01*
X127629501Y-108611933D01*
X127629501Y-108078600D01*
X127681882Y-107945267D01*
X127786644Y-107878600D01*
X127996167Y-107878600D01*
X128100929Y-107945267D01*
X128153310Y-108078600D01*
X128153310Y-108211933D01*
X127629501Y-108345267D01*
X128467596Y-107878600D02*
X128886644Y-107878600D01*
X128624739Y-107411933D02*
X128624739Y-108611933D01*
X128677120Y-108745267D01*
X128781882Y-108811933D01*
X128886644Y-108811933D01*
X129253310Y-108811933D02*
X129253310Y-107878600D01*
X129253310Y-108145267D02*
X129305691Y-108011933D01*
X129358072Y-107945267D01*
X129462834Y-107878600D01*
X129567595Y-107878600D01*
X130091405Y-108811933D02*
X129986643Y-108745267D01*
X129934262Y-108678600D01*
X129881881Y-108545267D01*
X129881881Y-108145267D01*
X129934262Y-108011933D01*
X129986643Y-107945267D01*
X130091405Y-107878600D01*
X130248547Y-107878600D01*
X130353309Y-107945267D01*
X130405690Y-108011933D01*
X130458071Y-108145267D01*
X130458071Y-108545267D01*
X130405690Y-108678600D01*
X130353309Y-108745267D01*
X130248547Y-108811933D01*
X130091405Y-108811933D01*
X130929500Y-107878600D02*
X130929500Y-109278600D01*
X130929500Y-107945267D02*
X131034262Y-107878600D01*
X131243785Y-107878600D01*
X131348547Y-107945267D01*
X131400928Y-108011933D01*
X131453309Y-108145267D01*
X131453309Y-108545267D01*
X131400928Y-108678600D01*
X131348547Y-108745267D01*
X131243785Y-108811933D01*
X131034262Y-108811933D01*
X130929500Y-108745267D01*
X132396166Y-108811933D02*
X132396166Y-108078600D01*
X132343785Y-107945267D01*
X132239023Y-107878600D01*
X132029500Y-107878600D01*
X131924738Y-107945267D01*
X132396166Y-108745267D02*
X132291404Y-108811933D01*
X132029500Y-108811933D01*
X131924738Y-108745267D01*
X131872357Y-108611933D01*
X131872357Y-108478600D01*
X131924738Y-108345267D01*
X132029500Y-108278600D01*
X132291404Y-108278600D01*
X132396166Y-108211933D01*
X132919976Y-108811933D02*
X132919976Y-107878600D01*
X132919976Y-108145267D02*
X132972357Y-108011933D01*
X133024738Y-107945267D01*
X133129500Y-107878600D01*
X133234261Y-107878600D01*
X133600928Y-108811933D02*
X133600928Y-107411933D01*
X133705690Y-108278600D02*
X134019975Y-108811933D01*
X134019975Y-107878600D02*
X133600928Y-108411933D01*
X134439023Y-108745267D02*
X134543785Y-108811933D01*
X134753309Y-108811933D01*
X134858070Y-108745267D01*
X134910451Y-108611933D01*
X134910451Y-108545267D01*
X134858070Y-108411933D01*
X134753309Y-108345267D01*
X134596166Y-108345267D01*
X134491404Y-108278600D01*
X134439023Y-108145267D01*
X134439023Y-108078600D01*
X134491404Y-107945267D01*
X134596166Y-107878600D01*
X134753309Y-107878600D01*
X134858070Y-107945267D01*
X135119975Y-108945267D02*
X135958070Y-108945267D01*
X136586641Y-108078600D02*
X136219975Y-108078600D01*
X136219975Y-108811933D02*
X136219975Y-107411933D01*
X136743784Y-107411933D01*
X137634260Y-108811933D02*
X137634260Y-108078600D01*
X137581879Y-107945267D01*
X137477117Y-107878600D01*
X137267594Y-107878600D01*
X137162832Y-107945267D01*
X137634260Y-108745267D02*
X137529498Y-108811933D01*
X137267594Y-108811933D01*
X137162832Y-108745267D01*
X137110451Y-108611933D01*
X137110451Y-108478600D01*
X137162832Y-108345267D01*
X137267594Y-108278600D01*
X137529498Y-108278600D01*
X137634260Y-108211933D01*
X138158070Y-108811933D02*
X138158070Y-107878600D01*
X138158070Y-108145267D02*
X138210451Y-108011933D01*
X138262832Y-107945267D01*
X138367594Y-107878600D01*
X138472355Y-107878600D01*
X138839022Y-108811933D02*
X138839022Y-107878600D01*
X138839022Y-108011933D02*
X138891403Y-107945267D01*
X138996165Y-107878600D01*
X139153307Y-107878600D01*
X139258069Y-107945267D01*
X139310450Y-108078600D01*
X139310450Y-108811933D01*
X139310450Y-108078600D02*
X139362831Y-107945267D01*
X139467593Y-107878600D01*
X139624736Y-107878600D01*
X139729498Y-107945267D01*
X139781879Y-108078600D01*
X139781879Y-108811933D01*
X140305689Y-107878600D02*
X140305689Y-109278600D01*
X140305689Y-107945267D02*
X140410451Y-107878600D01*
X140619974Y-107878600D01*
X140724736Y-107945267D01*
X140777117Y-108011933D01*
X140829498Y-108145267D01*
X140829498Y-108545267D01*
X140777117Y-108678600D01*
X140724736Y-108745267D01*
X140619974Y-108811933D01*
X140410451Y-108811933D01*
X140305689Y-108745267D01*
X141772355Y-108811933D02*
X141772355Y-108078600D01*
X141719974Y-107945267D01*
X141615212Y-107878600D01*
X141405689Y-107878600D01*
X141300927Y-107945267D01*
X141772355Y-108745267D02*
X141667593Y-108811933D01*
X141405689Y-108811933D01*
X141300927Y-108745267D01*
X141248546Y-108611933D01*
X141248546Y-108478600D01*
X141300927Y-108345267D01*
X141405689Y-108278600D01*
X141667593Y-108278600D01*
X141772355Y-108211933D01*
X142296165Y-108811933D02*
X142296165Y-107878600D01*
X142296165Y-108145267D02*
X142348546Y-108011933D01*
X142400927Y-107945267D01*
X142505689Y-107878600D01*
X142610450Y-107878600D01*
X142977117Y-108811933D02*
X142977117Y-107411933D01*
X143081879Y-108278600D02*
X143396164Y-108811933D01*
X143396164Y-107878600D02*
X142977117Y-108411933D01*
X143605688Y-108945267D02*
X144443783Y-108945267D01*
X144653307Y-108745267D02*
X144810450Y-108811933D01*
X145072354Y-108811933D01*
X145177116Y-108745267D01*
X145229497Y-108678600D01*
X145281878Y-108545267D01*
X145281878Y-108411933D01*
X145229497Y-108278600D01*
X145177116Y-108211933D01*
X145072354Y-108145267D01*
X144862831Y-108078600D01*
X144758069Y-108011933D01*
X144705688Y-107945267D01*
X144653307Y-107811933D01*
X144653307Y-107678600D01*
X144705688Y-107545267D01*
X144758069Y-107478600D01*
X144862831Y-107411933D01*
X145124735Y-107411933D01*
X145281878Y-107478600D01*
X145910450Y-108811933D02*
X145805688Y-108745267D01*
X145753307Y-108678600D01*
X145700926Y-108545267D01*
X145700926Y-108145267D01*
X145753307Y-108011933D01*
X145805688Y-107945267D01*
X145910450Y-107878600D01*
X146067592Y-107878600D01*
X146172354Y-107945267D01*
X146224735Y-108011933D01*
X146277116Y-108145267D01*
X146277116Y-108545267D01*
X146224735Y-108678600D01*
X146172354Y-108745267D01*
X146067592Y-108811933D01*
X145910450Y-108811933D01*
X146905688Y-108811933D02*
X146800926Y-108745267D01*
X146748545Y-108611933D01*
X146748545Y-107411933D01*
X147796163Y-108811933D02*
X147796163Y-108078600D01*
X147743782Y-107945267D01*
X147639020Y-107878600D01*
X147429497Y-107878600D01*
X147324735Y-107945267D01*
X147796163Y-108745267D02*
X147691401Y-108811933D01*
X147429497Y-108811933D01*
X147324735Y-108745267D01*
X147272354Y-108611933D01*
X147272354Y-108478600D01*
X147324735Y-108345267D01*
X147429497Y-108278600D01*
X147691401Y-108278600D01*
X147796163Y-108211933D01*
X148319973Y-108811933D02*
X148319973Y-107878600D01*
X148319973Y-108145267D02*
X148372354Y-108011933D01*
X148424735Y-107945267D01*
X148529497Y-107878600D01*
X148634258Y-107878600D01*
X148739020Y-108945267D02*
X149577115Y-108945267D01*
X149681877Y-107411933D02*
X150310448Y-107411933D01*
X149996163Y-108811933D02*
X149996163Y-107411933D01*
X150677115Y-108811933D02*
X150677115Y-107878600D01*
X150677115Y-108145267D02*
X150729496Y-108011933D01*
X150781877Y-107945267D01*
X150886639Y-107878600D01*
X150991400Y-107878600D01*
X151829495Y-108811933D02*
X151829495Y-108078600D01*
X151777114Y-107945267D01*
X151672352Y-107878600D01*
X151462829Y-107878600D01*
X151358067Y-107945267D01*
X151829495Y-108745267D02*
X151724733Y-108811933D01*
X151462829Y-108811933D01*
X151358067Y-108745267D01*
X151305686Y-108611933D01*
X151305686Y-108478600D01*
X151358067Y-108345267D01*
X151462829Y-108278600D01*
X151724733Y-108278600D01*
X151829495Y-108211933D01*
X152824733Y-108745267D02*
X152719971Y-108811933D01*
X152510448Y-108811933D01*
X152405686Y-108745267D01*
X152353305Y-108678600D01*
X152300924Y-108545267D01*
X152300924Y-108145267D01*
X152353305Y-108011933D01*
X152405686Y-107945267D01*
X152510448Y-107878600D01*
X152719971Y-107878600D01*
X152824733Y-107945267D01*
X153296162Y-108811933D02*
X153296162Y-107411933D01*
X153400924Y-108278600D02*
X153715209Y-108811933D01*
X153715209Y-107878600D02*
X153296162Y-108411933D01*
X154605685Y-108745267D02*
X154500923Y-108811933D01*
X154291400Y-108811933D01*
X154186638Y-108745267D01*
X154134257Y-108611933D01*
X154134257Y-108078600D01*
X154186638Y-107945267D01*
X154291400Y-107878600D01*
X154500923Y-107878600D01*
X154605685Y-107945267D01*
X154658066Y-108078600D01*
X154658066Y-108211933D01*
X154134257Y-108345267D01*
X155129495Y-108811933D02*
X155129495Y-107878600D01*
X155129495Y-108145267D02*
X155181876Y-108011933D01*
X155234257Y-107945267D01*
X155339019Y-107878600D01*
X155443780Y-107878600D01*
X156596161Y-107345267D02*
X155653304Y-109145267D01*
X156858066Y-107878600D02*
X157067590Y-108811933D01*
X157277113Y-108145267D01*
X157486637Y-108811933D01*
X157696161Y-107878600D01*
X158115209Y-108811933D02*
X158115209Y-107878600D01*
X158115209Y-107411933D02*
X158062828Y-107478600D01*
X158115209Y-107545267D01*
X158167590Y-107478600D01*
X158115209Y-107411933D01*
X158115209Y-107545267D01*
X158639019Y-108811933D02*
X158639019Y-107411933D01*
X158743781Y-108278600D02*
X159058066Y-108811933D01*
X159058066Y-107878600D02*
X158639019Y-108411933D01*
X159529495Y-108811933D02*
X159529495Y-107878600D01*
X159529495Y-107411933D02*
X159477114Y-107478600D01*
X159529495Y-107545267D01*
X159581876Y-107478600D01*
X159529495Y-107411933D01*
X159529495Y-107545267D01*
X113067593Y-110903600D02*
X113015212Y-110970267D01*
X112858069Y-111036933D01*
X112753307Y-111036933D01*
X112596165Y-110970267D01*
X112491403Y-110836933D01*
X112439022Y-110703600D01*
X112386641Y-110436933D01*
X112386641Y-110236933D01*
X112439022Y-109970267D01*
X112491403Y-109836933D01*
X112596165Y-109703600D01*
X112753307Y-109636933D01*
X112858069Y-109636933D01*
X113015212Y-109703600D01*
X113067593Y-109770267D01*
X113696165Y-111036933D02*
X113591403Y-110970267D01*
X113539022Y-110903600D01*
X113486641Y-110770267D01*
X113486641Y-110370267D01*
X113539022Y-110236933D01*
X113591403Y-110170267D01*
X113696165Y-110103600D01*
X113853307Y-110103600D01*
X113958069Y-110170267D01*
X114010450Y-110236933D01*
X114062831Y-110370267D01*
X114062831Y-110770267D01*
X114010450Y-110903600D01*
X113958069Y-110970267D01*
X113853307Y-111036933D01*
X113696165Y-111036933D01*
X114534260Y-110103600D02*
X114534260Y-111503600D01*
X114534260Y-110170267D02*
X114639022Y-110103600D01*
X114848545Y-110103600D01*
X114953307Y-110170267D01*
X115005688Y-110236933D01*
X115058069Y-110370267D01*
X115058069Y-110770267D01*
X115005688Y-110903600D01*
X114953307Y-110970267D01*
X114848545Y-111036933D01*
X114639022Y-111036933D01*
X114534260Y-110970267D01*
X115424736Y-110103600D02*
X115686641Y-111036933D01*
X115948545Y-110103600D02*
X115686641Y-111036933D01*
X115581879Y-111370267D01*
X115529498Y-111436933D01*
X115424736Y-111503600D01*
X116367593Y-111036933D02*
X116367593Y-110103600D01*
X116367593Y-110370267D02*
X116419974Y-110236933D01*
X116472355Y-110170267D01*
X116577117Y-110103600D01*
X116681878Y-110103600D01*
X117048545Y-111036933D02*
X117048545Y-110103600D01*
X117048545Y-109636933D02*
X116996164Y-109703600D01*
X117048545Y-109770267D01*
X117100926Y-109703600D01*
X117048545Y-109636933D01*
X117048545Y-109770267D01*
X118043783Y-110103600D02*
X118043783Y-111236933D01*
X117991402Y-111370267D01*
X117939021Y-111436933D01*
X117834260Y-111503600D01*
X117677117Y-111503600D01*
X117572355Y-111436933D01*
X118043783Y-110970267D02*
X117939021Y-111036933D01*
X117729498Y-111036933D01*
X117624736Y-110970267D01*
X117572355Y-110903600D01*
X117519974Y-110770267D01*
X117519974Y-110370267D01*
X117572355Y-110236933D01*
X117624736Y-110170267D01*
X117729498Y-110103600D01*
X117939021Y-110103600D01*
X118043783Y-110170267D01*
X118567593Y-111036933D02*
X118567593Y-109636933D01*
X119039021Y-111036933D02*
X119039021Y-110303600D01*
X118986640Y-110170267D01*
X118881878Y-110103600D01*
X118724736Y-110103600D01*
X118619974Y-110170267D01*
X118567593Y-110236933D01*
X119405688Y-110103600D02*
X119824736Y-110103600D01*
X119562831Y-109636933D02*
X119562831Y-110836933D01*
X119615212Y-110970267D01*
X119719974Y-111036933D01*
X119824736Y-111036933D01*
X121919973Y-109970267D02*
X121815211Y-109903600D01*
X121605687Y-109903600D01*
X121500925Y-109970267D01*
X121396163Y-110103600D01*
X121343782Y-110236933D01*
X121343782Y-110503600D01*
X121396163Y-110636933D01*
X121500925Y-110770267D01*
X121605687Y-110836933D01*
X121815211Y-110836933D01*
X121919973Y-110770267D01*
X121710449Y-109436933D02*
X121448544Y-109503600D01*
X121186640Y-109703600D01*
X121029497Y-110036933D01*
X120977116Y-110370267D01*
X121029497Y-110703600D01*
X121186640Y-111036933D01*
X121448544Y-111236933D01*
X121710449Y-111303600D01*
X121972354Y-111236933D01*
X122234259Y-111036933D01*
X122391402Y-110703600D01*
X122443782Y-110370267D01*
X122391402Y-110036933D01*
X122234259Y-109703600D01*
X121972354Y-109503600D01*
X121710449Y-109436933D01*
X123700925Y-109770267D02*
X123753306Y-109703600D01*
X123858068Y-109636933D01*
X124119972Y-109636933D01*
X124224734Y-109703600D01*
X124277115Y-109770267D01*
X124329496Y-109903600D01*
X124329496Y-110036933D01*
X124277115Y-110236933D01*
X123648544Y-111036933D01*
X124329496Y-111036933D01*
X125010449Y-109636933D02*
X125115210Y-109636933D01*
X125219972Y-109703600D01*
X125272353Y-109770267D01*
X125324734Y-109903600D01*
X125377115Y-110170267D01*
X125377115Y-110503600D01*
X125324734Y-110770267D01*
X125272353Y-110903600D01*
X125219972Y-110970267D01*
X125115210Y-111036933D01*
X125010449Y-111036933D01*
X124905687Y-110970267D01*
X124853306Y-110903600D01*
X124800925Y-110770267D01*
X124748544Y-110503600D01*
X124748544Y-110170267D01*
X124800925Y-109903600D01*
X124853306Y-109770267D01*
X124905687Y-109703600D01*
X125010449Y-109636933D01*
X126424734Y-111036933D02*
X125796163Y-111036933D01*
X126110449Y-111036933D02*
X126110449Y-109636933D01*
X126005687Y-109836933D01*
X125900925Y-109970267D01*
X125796163Y-110036933D01*
X126791401Y-109636933D02*
X127524734Y-109636933D01*
X127053306Y-111036933D01*
X128677115Y-109636933D02*
X128939020Y-111036933D01*
X129148543Y-110036933D01*
X129358067Y-111036933D01*
X129619972Y-109636933D01*
X130039020Y-110903600D02*
X130091401Y-110970267D01*
X130039020Y-111036933D01*
X129986639Y-110970267D01*
X130039020Y-110903600D01*
X130039020Y-111036933D01*
X131400925Y-111036933D02*
X131400925Y-109636933D01*
X132029496Y-111036933D01*
X132029496Y-109636933D01*
X132710449Y-111036933D02*
X132605687Y-110970267D01*
X132553306Y-110903600D01*
X132500925Y-110770267D01*
X132500925Y-110370267D01*
X132553306Y-110236933D01*
X132605687Y-110170267D01*
X132710449Y-110103600D01*
X132867591Y-110103600D01*
X132972353Y-110170267D01*
X133024734Y-110236933D01*
X133077115Y-110370267D01*
X133077115Y-110770267D01*
X133024734Y-110903600D01*
X132972353Y-110970267D01*
X132867591Y-111036933D01*
X132710449Y-111036933D01*
X134019972Y-110103600D02*
X134019972Y-111036933D01*
X133548544Y-110103600D02*
X133548544Y-110836933D01*
X133600925Y-110970267D01*
X133705687Y-111036933D01*
X133862829Y-111036933D01*
X133967591Y-110970267D01*
X134019972Y-110903600D01*
X134543782Y-111036933D02*
X134543782Y-110103600D01*
X134543782Y-110370267D02*
X134596163Y-110236933D01*
X134648544Y-110170267D01*
X134753306Y-110103600D01*
X134858067Y-110103600D01*
X135172353Y-110970267D02*
X135277115Y-111036933D01*
X135486639Y-111036933D01*
X135591400Y-110970267D01*
X135643781Y-110836933D01*
X135643781Y-110770267D01*
X135591400Y-110636933D01*
X135486639Y-110570267D01*
X135329496Y-110570267D01*
X135224734Y-110503600D01*
X135172353Y-110370267D01*
X135172353Y-110303600D01*
X135224734Y-110170267D01*
X135329496Y-110103600D01*
X135486639Y-110103600D01*
X135591400Y-110170267D01*
X136534257Y-110970267D02*
X136429495Y-111036933D01*
X136219972Y-111036933D01*
X136115210Y-110970267D01*
X136062829Y-110836933D01*
X136062829Y-110303600D01*
X136115210Y-110170267D01*
X136219972Y-110103600D01*
X136429495Y-110103600D01*
X136534257Y-110170267D01*
X136586638Y-110303600D01*
X136586638Y-110436933D01*
X136062829Y-110570267D01*
X137110448Y-110970267D02*
X137110448Y-111036933D01*
X137058067Y-111170267D01*
X137005686Y-111236933D01*
X138419972Y-111036933D02*
X138419972Y-109636933D01*
X138681877Y-109636933D01*
X138839019Y-109703600D01*
X138943781Y-109836933D01*
X138996162Y-109970267D01*
X139048543Y-110236933D01*
X139048543Y-110436933D01*
X138996162Y-110703600D01*
X138943781Y-110836933D01*
X138839019Y-110970267D01*
X138681877Y-111036933D01*
X138419972Y-111036933D01*
X139519972Y-110903600D02*
X139572353Y-110970267D01*
X139519972Y-111036933D01*
X139467591Y-110970267D01*
X139519972Y-110903600D01*
X139519972Y-111036933D01*
X141458067Y-109703600D02*
X141353305Y-109636933D01*
X141196162Y-109636933D01*
X141039020Y-109703600D01*
X140934258Y-109836933D01*
X140881877Y-109970267D01*
X140829496Y-110236933D01*
X140829496Y-110436933D01*
X140881877Y-110703600D01*
X140934258Y-110836933D01*
X141039020Y-110970267D01*
X141196162Y-111036933D01*
X141300924Y-111036933D01*
X141458067Y-110970267D01*
X141510448Y-110903600D01*
X141510448Y-110436933D01*
X141300924Y-110436933D01*
X141981877Y-110903600D02*
X142034258Y-110970267D01*
X141981877Y-111036933D01*
X141929496Y-110970267D01*
X141981877Y-110903600D01*
X141981877Y-111036933D01*
X143343782Y-111036933D02*
X143343782Y-109636933D01*
X143762829Y-109636933D01*
X143867591Y-109703600D01*
X143919972Y-109770267D01*
X143972353Y-109903600D01*
X143972353Y-110103600D01*
X143919972Y-110236933D01*
X143867591Y-110303600D01*
X143762829Y-110370267D01*
X143343782Y-110370267D01*
X144915210Y-111036933D02*
X144915210Y-110303600D01*
X144862829Y-110170267D01*
X144758067Y-110103600D01*
X144548544Y-110103600D01*
X144443782Y-110170267D01*
X144915210Y-110970267D02*
X144810448Y-111036933D01*
X144548544Y-111036933D01*
X144443782Y-110970267D01*
X144391401Y-110836933D01*
X144391401Y-110703600D01*
X144443782Y-110570267D01*
X144548544Y-110503600D01*
X144810448Y-110503600D01*
X144915210Y-110436933D01*
X145439020Y-111036933D02*
X145439020Y-110103600D01*
X145439020Y-110370267D02*
X145491401Y-110236933D01*
X145543782Y-110170267D01*
X145648544Y-110103600D01*
X145753305Y-110103600D01*
X146119972Y-111036933D02*
X146119972Y-110103600D01*
X146119972Y-109636933D02*
X146067591Y-109703600D01*
X146119972Y-109770267D01*
X146172353Y-109703600D01*
X146119972Y-109636933D01*
X146119972Y-109770267D01*
X146643782Y-111036933D02*
X146643782Y-109636933D01*
X146748544Y-110503600D02*
X147062829Y-111036933D01*
X147062829Y-110103600D02*
X146643782Y-110636933D01*
X147534258Y-111036933D02*
X147534258Y-109636933D01*
X148005686Y-111036933D02*
X148005686Y-110303600D01*
X147953305Y-110170267D01*
X147848543Y-110103600D01*
X147691401Y-110103600D01*
X147586639Y-110170267D01*
X147534258Y-110236933D01*
X148581877Y-110970267D02*
X148581877Y-111036933D01*
X148529496Y-111170267D01*
X148477115Y-111236933D01*
X149891401Y-111036933D02*
X149891401Y-109636933D01*
X150310448Y-109636933D01*
X150415210Y-109703600D01*
X150467591Y-109770267D01*
X150519972Y-109903600D01*
X150519972Y-110103600D01*
X150467591Y-110236933D01*
X150415210Y-110303600D01*
X150310448Y-110370267D01*
X149891401Y-110370267D01*
X150991401Y-110903600D02*
X151043782Y-110970267D01*
X150991401Y-111036933D01*
X150939020Y-110970267D01*
X150991401Y-110903600D01*
X150991401Y-111036933D01*
X152196163Y-109636933D02*
X152562830Y-111036933D01*
X152929496Y-109636933D01*
X153767591Y-111036933D02*
X153767591Y-110303600D01*
X153715210Y-110170267D01*
X153610448Y-110103600D01*
X153400925Y-110103600D01*
X153296163Y-110170267D01*
X153767591Y-110970267D02*
X153662829Y-111036933D01*
X153400925Y-111036933D01*
X153296163Y-110970267D01*
X153243782Y-110836933D01*
X153243782Y-110703600D01*
X153296163Y-110570267D01*
X153400925Y-110503600D01*
X153662829Y-110503600D01*
X153767591Y-110436933D01*
X154291401Y-110103600D02*
X154291401Y-111036933D01*
X154291401Y-110236933D02*
X154343782Y-110170267D01*
X154448544Y-110103600D01*
X154605686Y-110103600D01*
X154710448Y-110170267D01*
X154762829Y-110303600D01*
X154762829Y-111036933D01*
X156753305Y-111036933D02*
X156386639Y-110370267D01*
X156124734Y-111036933D02*
X156124734Y-109636933D01*
X156543781Y-109636933D01*
X156648543Y-109703600D01*
X156700924Y-109770267D01*
X156753305Y-109903600D01*
X156753305Y-110103600D01*
X156700924Y-110236933D01*
X156648543Y-110303600D01*
X156543781Y-110370267D01*
X156124734Y-110370267D01*
X157381877Y-111036933D02*
X157277115Y-110970267D01*
X157224734Y-110903600D01*
X157172353Y-110770267D01*
X157172353Y-110370267D01*
X157224734Y-110236933D01*
X157277115Y-110170267D01*
X157381877Y-110103600D01*
X157539019Y-110103600D01*
X157643781Y-110170267D01*
X157696162Y-110236933D01*
X157748543Y-110370267D01*
X157748543Y-110770267D01*
X157696162Y-110903600D01*
X157643781Y-110970267D01*
X157539019Y-111036933D01*
X157381877Y-111036933D01*
X158377115Y-111036933D02*
X158272353Y-110970267D01*
X158219972Y-110903600D01*
X158167591Y-110770267D01*
X158167591Y-110370267D01*
X158219972Y-110236933D01*
X158272353Y-110170267D01*
X158377115Y-110103600D01*
X158534257Y-110103600D01*
X158639019Y-110170267D01*
X158691400Y-110236933D01*
X158743781Y-110370267D01*
X158743781Y-110770267D01*
X158691400Y-110903600D01*
X158639019Y-110970267D01*
X158534257Y-111036933D01*
X158377115Y-111036933D01*
X159110448Y-110103600D02*
X159372353Y-111036933D01*
X159634257Y-110103600D02*
X159372353Y-111036933D01*
X159267591Y-111370267D01*
X159215210Y-111436933D01*
X159110448Y-111503600D01*
D12*
X139415686Y-101300200D02*
X139344257Y-101366867D01*
X139129971Y-101433533D01*
X138987114Y-101433533D01*
X138772829Y-101366867D01*
X138629971Y-101233533D01*
X138558543Y-101100200D01*
X138487114Y-100833533D01*
X138487114Y-100633533D01*
X138558543Y-100366867D01*
X138629971Y-100233533D01*
X138772829Y-100100200D01*
X138987114Y-100033533D01*
X139129971Y-100033533D01*
X139344257Y-100100200D01*
X139415686Y-100166867D01*
X139915686Y-100033533D02*
X140272829Y-101433533D01*
X140558543Y-100433533D01*
X140844257Y-101433533D01*
X141201400Y-100033533D01*
X142629972Y-101433533D02*
X142129972Y-100766867D01*
X141772829Y-101433533D02*
X141772829Y-100033533D01*
X142344257Y-100033533D01*
X142487115Y-100100200D01*
X142558543Y-100166867D01*
X142629972Y-100300200D01*
X142629972Y-100500200D01*
X142558543Y-100633533D01*
X142487115Y-100700200D01*
X142344257Y-100766867D01*
X141772829Y-100766867D01*
X143272829Y-100033533D02*
X143272829Y-101166867D01*
X143344257Y-101300200D01*
X143415686Y-101366867D01*
X143558543Y-101433533D01*
X143844257Y-101433533D01*
X143987115Y-101366867D01*
X144058543Y-101300200D01*
X144129972Y-101166867D01*
X144129972Y-100033533D01*
X146844258Y-101300200D02*
X146772829Y-101366867D01*
X146558543Y-101433533D01*
X146415686Y-101433533D01*
X146201401Y-101366867D01*
X146058543Y-101233533D01*
X145987115Y-101100200D01*
X145915686Y-100833533D01*
X145915686Y-100633533D01*
X145987115Y-100366867D01*
X146058543Y-100233533D01*
X146201401Y-100100200D01*
X146415686Y-100033533D01*
X146558543Y-100033533D01*
X146772829Y-100100200D01*
X146844258Y-100166867D01*
X147415686Y-101366867D02*
X147629972Y-101433533D01*
X147987115Y-101433533D01*
X148129972Y-101366867D01*
X148201401Y-101300200D01*
X148272829Y-101166867D01*
X148272829Y-101033533D01*
X148201401Y-100900200D01*
X148129972Y-100833533D01*
X147987115Y-100766867D01*
X147701401Y-100700200D01*
X147558543Y-100633533D01*
X147487115Y-100566867D01*
X147415686Y-100433533D01*
X147415686Y-100300200D01*
X147487115Y-100166867D01*
X147558543Y-100100200D01*
X147701401Y-100033533D01*
X148058543Y-100033533D01*
X148272829Y-100100200D01*
X148915686Y-100700200D02*
X149415686Y-100700200D01*
X149629972Y-101433533D02*
X148915686Y-101433533D01*
X148915686Y-100033533D01*
X149629972Y-100033533D01*
X151415686Y-100700200D02*
X151915686Y-100700200D01*
X152129972Y-101433533D02*
X151415686Y-101433533D01*
X151415686Y-100033533D01*
X152129972Y-100033533D01*
X152772829Y-100700200D02*
X153272829Y-100700200D01*
X153487115Y-101433533D02*
X152772829Y-101433533D01*
X152772829Y-100033533D01*
X153487115Y-100033533D01*
X154987115Y-101300200D02*
X154915686Y-101366867D01*
X154701400Y-101433533D01*
X154558543Y-101433533D01*
X154344258Y-101366867D01*
X154201400Y-101233533D01*
X154129972Y-101100200D01*
X154058543Y-100833533D01*
X154058543Y-100633533D01*
X154129972Y-100366867D01*
X154201400Y-100233533D01*
X154344258Y-100100200D01*
X154558543Y-100033533D01*
X154701400Y-100033533D01*
X154915686Y-100100200D01*
X154987115Y-100166867D01*
X155558543Y-101366867D02*
X155772829Y-101433533D01*
X156129972Y-101433533D01*
X156272829Y-101366867D01*
X156344258Y-101300200D01*
X156415686Y-101166867D01*
X156415686Y-101033533D01*
X156344258Y-100900200D01*
X156272829Y-100833533D01*
X156129972Y-100766867D01*
X155844258Y-100700200D01*
X155701400Y-100633533D01*
X155629972Y-100566867D01*
X155558543Y-100433533D01*
X155558543Y-100300200D01*
X155629972Y-100166867D01*
X155701400Y-100100200D01*
X155844258Y-100033533D01*
X156201400Y-100033533D01*
X156415686Y-100100200D01*
X158129971Y-100166867D02*
X158201400Y-100100200D01*
X158344257Y-100033533D01*
X158701400Y-100033533D01*
X158844257Y-100100200D01*
X158915686Y-100166867D01*
X158987114Y-100300200D01*
X158987114Y-100433533D01*
X158915686Y-100633533D01*
X158058543Y-101433533D01*
X158987114Y-101433533D01*
X159915685Y-100033533D02*
X160058542Y-100033533D01*
X160201399Y-100100200D01*
X160272828Y-100166867D01*
X160344257Y-100300200D01*
X160415685Y-100566867D01*
X160415685Y-100900200D01*
X160344257Y-101166867D01*
X160272828Y-101300200D01*
X160201399Y-101366867D01*
X160058542Y-101433533D01*
X159915685Y-101433533D01*
X159772828Y-101366867D01*
X159701399Y-101300200D01*
X159629971Y-101166867D01*
X159558542Y-100900200D01*
X159558542Y-100566867D01*
X159629971Y-100300200D01*
X159701399Y-100166867D01*
X159772828Y-100100200D01*
X159915685Y-100033533D01*
X161844256Y-101433533D02*
X160987113Y-101433533D01*
X161415685Y-101433533D02*
X161415685Y-100033533D01*
X161272828Y-100233533D01*
X161129970Y-100366867D01*
X160987113Y-100433533D01*
X162344256Y-100033533D02*
X163344256Y-100033533D01*
X162701399Y-101433533D01*
X138487114Y-103433533D02*
X139201400Y-103433533D01*
X138344257Y-103833533D02*
X138844257Y-102433533D01*
X139344257Y-103833533D01*
X140487114Y-103833533D02*
X140487114Y-102433533D01*
X140487114Y-103766867D02*
X140344257Y-103833533D01*
X140058543Y-103833533D01*
X139915685Y-103766867D01*
X139844257Y-103700200D01*
X139772828Y-103566867D01*
X139772828Y-103166867D01*
X139844257Y-103033533D01*
X139915685Y-102966867D01*
X140058543Y-102900200D01*
X140344257Y-102900200D01*
X140487114Y-102966867D01*
X141058543Y-102900200D02*
X141415686Y-103833533D01*
X141772828Y-102900200D01*
X142344257Y-103833533D02*
X142344257Y-102900200D01*
X142344257Y-102433533D02*
X142272828Y-102500200D01*
X142344257Y-102566867D01*
X142415685Y-102500200D01*
X142344257Y-102433533D01*
X142344257Y-102566867D01*
X142987114Y-103766867D02*
X143129971Y-103833533D01*
X143415686Y-103833533D01*
X143558543Y-103766867D01*
X143629971Y-103633533D01*
X143629971Y-103566867D01*
X143558543Y-103433533D01*
X143415686Y-103366867D01*
X143201400Y-103366867D01*
X143058543Y-103300200D01*
X142987114Y-103166867D01*
X142987114Y-103100200D01*
X143058543Y-102966867D01*
X143201400Y-102900200D01*
X143415686Y-102900200D01*
X143558543Y-102966867D01*
X144487115Y-103833533D02*
X144344257Y-103766867D01*
X144272829Y-103700200D01*
X144201400Y-103566867D01*
X144201400Y-103166867D01*
X144272829Y-103033533D01*
X144344257Y-102966867D01*
X144487115Y-102900200D01*
X144701400Y-102900200D01*
X144844257Y-102966867D01*
X144915686Y-103033533D01*
X144987115Y-103166867D01*
X144987115Y-103566867D01*
X144915686Y-103700200D01*
X144844257Y-103766867D01*
X144701400Y-103833533D01*
X144487115Y-103833533D01*
X145629972Y-103833533D02*
X145629972Y-102900200D01*
X145629972Y-103166867D02*
X145701400Y-103033533D01*
X145772829Y-102966867D01*
X145915686Y-102900200D01*
X146058543Y-102900200D01*
X146558543Y-103700200D02*
X146629971Y-103766867D01*
X146558543Y-103833533D01*
X146487114Y-103766867D01*
X146558543Y-103700200D01*
X146558543Y-103833533D01*
X146558543Y-102966867D02*
X146629971Y-103033533D01*
X146558543Y-103100200D01*
X146487114Y-103033533D01*
X146558543Y-102966867D01*
X146558543Y-103100200D01*
X148415686Y-103833533D02*
X148415686Y-102433533D01*
X148772829Y-102433533D01*
X148987114Y-102500200D01*
X149129972Y-102633533D01*
X149201400Y-102766867D01*
X149272829Y-103033533D01*
X149272829Y-103233533D01*
X149201400Y-103500200D01*
X149129972Y-103633533D01*
X148987114Y-103766867D01*
X148772829Y-103833533D01*
X148415686Y-103833533D01*
X149915686Y-103833533D02*
X149915686Y-102900200D01*
X149915686Y-103166867D02*
X149987114Y-103033533D01*
X150058543Y-102966867D01*
X150201400Y-102900200D01*
X150344257Y-102900200D01*
X150844257Y-103700200D02*
X150915685Y-103766867D01*
X150844257Y-103833533D01*
X150772828Y-103766867D01*
X150844257Y-103700200D01*
X150844257Y-103833533D01*
X153487114Y-102500200D02*
X153344257Y-102433533D01*
X153129971Y-102433533D01*
X152915686Y-102500200D01*
X152772828Y-102633533D01*
X152701400Y-102766867D01*
X152629971Y-103033533D01*
X152629971Y-103233533D01*
X152701400Y-103500200D01*
X152772828Y-103633533D01*
X152915686Y-103766867D01*
X153129971Y-103833533D01*
X153272828Y-103833533D01*
X153487114Y-103766867D01*
X153558543Y-103700200D01*
X153558543Y-103233533D01*
X153272828Y-103233533D01*
X154201400Y-103700200D02*
X154272828Y-103766867D01*
X154201400Y-103833533D01*
X154129971Y-103766867D01*
X154201400Y-103700200D01*
X154201400Y-103833533D01*
X156772829Y-103833533D02*
X156058543Y-103833533D01*
X156058543Y-102433533D01*
X157844257Y-103766867D02*
X157701400Y-103833533D01*
X157415686Y-103833533D01*
X157272829Y-103766867D01*
X157201400Y-103633533D01*
X157201400Y-103100200D01*
X157272829Y-102966867D01*
X157415686Y-102900200D01*
X157701400Y-102900200D01*
X157844257Y-102966867D01*
X157915686Y-103100200D01*
X157915686Y-103233533D01*
X157201400Y-103366867D01*
X159129971Y-103766867D02*
X158987114Y-103833533D01*
X158701400Y-103833533D01*
X158558543Y-103766867D01*
X158487114Y-103633533D01*
X158487114Y-103100200D01*
X158558543Y-102966867D01*
X158701400Y-102900200D01*
X158987114Y-102900200D01*
X159129971Y-102966867D01*
X159201400Y-103100200D01*
X159201400Y-103233533D01*
X158487114Y-103366867D01*
X138558543Y-106233533D02*
X138558543Y-104833533D01*
X138915686Y-104833533D01*
X139129971Y-104900200D01*
X139272829Y-105033533D01*
X139344257Y-105166867D01*
X139415686Y-105433533D01*
X139415686Y-105633533D01*
X139344257Y-105900200D01*
X139272829Y-106033533D01*
X139129971Y-106166867D01*
X138915686Y-106233533D01*
X138558543Y-106233533D01*
X140272829Y-106233533D02*
X140129971Y-106166867D01*
X140058543Y-106100200D01*
X139987114Y-105966867D01*
X139987114Y-105566867D01*
X140058543Y-105433533D01*
X140129971Y-105366867D01*
X140272829Y-105300200D01*
X140487114Y-105300200D01*
X140629971Y-105366867D01*
X140701400Y-105433533D01*
X140772829Y-105566867D01*
X140772829Y-105966867D01*
X140701400Y-106100200D01*
X140629971Y-106166867D01*
X140487114Y-106233533D01*
X140272829Y-106233533D01*
X142058543Y-106166867D02*
X141915686Y-106233533D01*
X141629972Y-106233533D01*
X141487114Y-106166867D01*
X141415686Y-106100200D01*
X141344257Y-105966867D01*
X141344257Y-105566867D01*
X141415686Y-105433533D01*
X141487114Y-105366867D01*
X141629972Y-105300200D01*
X141915686Y-105300200D01*
X142058543Y-105366867D01*
X143344257Y-105300200D02*
X143344257Y-106233533D01*
X142701400Y-105300200D02*
X142701400Y-106033533D01*
X142772828Y-106166867D01*
X142915686Y-106233533D01*
X143129971Y-106233533D01*
X143272828Y-106166867D01*
X143344257Y-106100200D01*
X144058543Y-106233533D02*
X144058543Y-105300200D01*
X144058543Y-105433533D02*
X144129971Y-105366867D01*
X144272829Y-105300200D01*
X144487114Y-105300200D01*
X144629971Y-105366867D01*
X144701400Y-105500200D01*
X144701400Y-106233533D01*
X144701400Y-105500200D02*
X144772829Y-105366867D01*
X144915686Y-105300200D01*
X145129971Y-105300200D01*
X145272829Y-105366867D01*
X145344257Y-105500200D01*
X145344257Y-106233533D01*
X146629971Y-106166867D02*
X146487114Y-106233533D01*
X146201400Y-106233533D01*
X146058543Y-106166867D01*
X145987114Y-106033533D01*
X145987114Y-105500200D01*
X146058543Y-105366867D01*
X146201400Y-105300200D01*
X146487114Y-105300200D01*
X146629971Y-105366867D01*
X146701400Y-105500200D01*
X146701400Y-105633533D01*
X145987114Y-105766867D01*
X147344257Y-105300200D02*
X147344257Y-106233533D01*
X147344257Y-105433533D02*
X147415685Y-105366867D01*
X147558543Y-105300200D01*
X147772828Y-105300200D01*
X147915685Y-105366867D01*
X147987114Y-105500200D01*
X147987114Y-106233533D01*
X148487114Y-105300200D02*
X149058543Y-105300200D01*
X148701400Y-104833533D02*
X148701400Y-106033533D01*
X148772828Y-106166867D01*
X148915686Y-106233533D01*
X149058543Y-106233533D01*
X150201400Y-106233533D02*
X150201400Y-105500200D01*
X150129971Y-105366867D01*
X149987114Y-105300200D01*
X149701400Y-105300200D01*
X149558543Y-105366867D01*
X150201400Y-106166867D02*
X150058543Y-106233533D01*
X149701400Y-106233533D01*
X149558543Y-106166867D01*
X149487114Y-106033533D01*
X149487114Y-105900200D01*
X149558543Y-105766867D01*
X149701400Y-105700200D01*
X150058543Y-105700200D01*
X150201400Y-105633533D01*
X150701400Y-105300200D02*
X151272829Y-105300200D01*
X150915686Y-104833533D02*
X150915686Y-106033533D01*
X150987114Y-106166867D01*
X151129972Y-106233533D01*
X151272829Y-106233533D01*
X151772829Y-106233533D02*
X151772829Y-105300200D01*
X151772829Y-104833533D02*
X151701400Y-104900200D01*
X151772829Y-104966867D01*
X151844257Y-104900200D01*
X151772829Y-104833533D01*
X151772829Y-104966867D01*
X152701401Y-106233533D02*
X152558543Y-106166867D01*
X152487115Y-106100200D01*
X152415686Y-105966867D01*
X152415686Y-105566867D01*
X152487115Y-105433533D01*
X152558543Y-105366867D01*
X152701401Y-105300200D01*
X152915686Y-105300200D01*
X153058543Y-105366867D01*
X153129972Y-105433533D01*
X153201401Y-105566867D01*
X153201401Y-105966867D01*
X153129972Y-106100200D01*
X153058543Y-106166867D01*
X152915686Y-106233533D01*
X152701401Y-106233533D01*
X153844258Y-105300200D02*
X153844258Y-106233533D01*
X153844258Y-105433533D02*
X153915686Y-105366867D01*
X154058544Y-105300200D01*
X154272829Y-105300200D01*
X154415686Y-105366867D01*
X154487115Y-105500200D01*
X154487115Y-106233533D01*
X156987115Y-106233533D02*
X156987115Y-105500200D01*
X156915686Y-105366867D01*
X156772829Y-105300200D01*
X156487115Y-105300200D01*
X156344258Y-105366867D01*
X156987115Y-106166867D02*
X156844258Y-106233533D01*
X156487115Y-106233533D01*
X156344258Y-106166867D01*
X156272829Y-106033533D01*
X156272829Y-105900200D01*
X156344258Y-105766867D01*
X156487115Y-105700200D01*
X156844258Y-105700200D01*
X156987115Y-105633533D01*
X157487115Y-105300200D02*
X158058544Y-105300200D01*
X157701401Y-104833533D02*
X157701401Y-106033533D01*
X157772829Y-106166867D01*
X157915687Y-106233533D01*
X158058544Y-106233533D01*
X158558544Y-106100200D02*
X158629972Y-106166867D01*
X158558544Y-106233533D01*
X158487115Y-106166867D01*
X158558544Y-106100200D01*
X158558544Y-106233533D01*
X158558544Y-105366867D02*
X158629972Y-105433533D01*
X158558544Y-105500200D01*
X158487115Y-105433533D01*
X158558544Y-105366867D01*
X158558544Y-105500200D01*
X84648943Y-37942057D02*
X85148943Y-37942057D01*
X85363229Y-38727771D02*
X84648943Y-38727771D01*
X84648943Y-37227771D01*
X85363229Y-37227771D01*
X86720372Y-38727771D02*
X86006086Y-38727771D01*
X86006086Y-37227771D01*
X86863229Y-38870629D02*
X88006086Y-38870629D01*
X88863229Y-37942057D02*
X88363229Y-37942057D01*
X88363229Y-38727771D02*
X88363229Y-37227771D01*
X89077515Y-37227771D01*
X146390800Y-27655057D02*
X146890800Y-27655057D01*
X147105086Y-28440771D02*
X146390800Y-28440771D01*
X146390800Y-26940771D01*
X147105086Y-26940771D01*
X148462229Y-28440771D02*
X147747943Y-28440771D01*
X147747943Y-26940771D01*
X148605086Y-28583629D02*
X149747943Y-28583629D01*
X150605086Y-27655057D02*
X150819372Y-27726486D01*
X150890800Y-27797914D01*
X150962229Y-27940771D01*
X150962229Y-28155057D01*
X150890800Y-28297914D01*
X150819372Y-28369343D01*
X150676514Y-28440771D01*
X150105086Y-28440771D01*
X150105086Y-26940771D01*
X150605086Y-26940771D01*
X150747943Y-27012200D01*
X150819372Y-27083629D01*
X150890800Y-27226486D01*
X150890800Y-27369343D01*
X150819372Y-27512200D01*
X150747943Y-27583629D01*
X150605086Y-27655057D01*
X150105086Y-27655057D01*
X148660943Y-74849800D02*
X149375229Y-74849800D01*
X148518086Y-75278371D02*
X149018086Y-73778371D01*
X149518086Y-75278371D01*
X149875229Y-73778371D02*
X150875229Y-73778371D01*
X149875229Y-75278371D01*
X150875229Y-75278371D01*
X151089514Y-75421229D02*
X152232371Y-75421229D01*
X153089514Y-74492657D02*
X153303800Y-74564086D01*
X153375228Y-74635514D01*
X153446657Y-74778371D01*
X153446657Y-74992657D01*
X153375228Y-75135514D01*
X153303800Y-75206943D01*
X153160942Y-75278371D01*
X152589514Y-75278371D01*
X152589514Y-73778371D01*
X153089514Y-73778371D01*
X153232371Y-73849800D01*
X153303800Y-73921229D01*
X153375228Y-74064086D01*
X153375228Y-74206943D01*
X153303800Y-74349800D01*
X153232371Y-74421229D01*
X153089514Y-74492657D01*
X152589514Y-74492657D01*
X81153286Y-72106600D02*
X81867572Y-72106600D01*
X81010429Y-72535171D02*
X81510429Y-71035171D01*
X82010429Y-72535171D01*
X82367572Y-71035171D02*
X83367572Y-71035171D01*
X82367572Y-72535171D01*
X83367572Y-72535171D01*
X83581857Y-72678029D02*
X84724714Y-72678029D01*
X85581857Y-71749457D02*
X85081857Y-71749457D01*
X85081857Y-72535171D02*
X85081857Y-71035171D01*
X85796143Y-71035171D01*
X86257144Y-17887143D02*
X87400001Y-17887143D01*
X86828572Y-18458571D02*
X86828572Y-17315714D01*
X88757144Y-17458571D02*
X88757144Y-18458571D01*
X88400001Y-16887143D02*
X88042858Y-17958571D01*
X88971430Y-17958571D01*
X89757144Y-17601429D02*
X89614286Y-17530000D01*
X89542858Y-17458571D01*
X89471429Y-17315714D01*
X89471429Y-17244286D01*
X89542858Y-17101429D01*
X89614286Y-17030000D01*
X89757144Y-16958571D01*
X90042858Y-16958571D01*
X90185715Y-17030000D01*
X90257144Y-17101429D01*
X90328572Y-17244286D01*
X90328572Y-17315714D01*
X90257144Y-17458571D01*
X90185715Y-17530000D01*
X90042858Y-17601429D01*
X89757144Y-17601429D01*
X89614286Y-17672857D01*
X89542858Y-17744286D01*
X89471429Y-17887143D01*
X89471429Y-18172857D01*
X89542858Y-18315714D01*
X89614286Y-18387143D01*
X89757144Y-18458571D01*
X90042858Y-18458571D01*
X90185715Y-18387143D01*
X90257144Y-18315714D01*
X90328572Y-18172857D01*
X90328572Y-17887143D01*
X90257144Y-17744286D01*
X90185715Y-17672857D01*
X90042858Y-17601429D01*
X90757143Y-16958571D02*
X91257143Y-18458571D01*
X91757143Y-16958571D01*
X65405429Y-87419571D02*
X65405429Y-85919571D01*
X66048286Y-87348143D02*
X66262572Y-87419571D01*
X66619715Y-87419571D01*
X66762572Y-87348143D01*
X66834001Y-87276714D01*
X66905429Y-87133857D01*
X66905429Y-86991000D01*
X66834001Y-86848143D01*
X66762572Y-86776714D01*
X66619715Y-86705286D01*
X66334001Y-86633857D01*
X66191143Y-86562429D01*
X66119715Y-86491000D01*
X66048286Y-86348143D01*
X66048286Y-86205286D01*
X66119715Y-86062429D01*
X66191143Y-85991000D01*
X66334001Y-85919571D01*
X66691143Y-85919571D01*
X66905429Y-85991000D01*
X67834000Y-85919571D02*
X68119714Y-85919571D01*
X68262572Y-85991000D01*
X68405429Y-86133857D01*
X68476857Y-86419571D01*
X68476857Y-86919571D01*
X68405429Y-87205286D01*
X68262572Y-87348143D01*
X68119714Y-87419571D01*
X67834000Y-87419571D01*
X67691143Y-87348143D01*
X67548286Y-87205286D01*
X67476857Y-86919571D01*
X67476857Y-86419571D01*
X67548286Y-86133857D01*
X67691143Y-85991000D01*
X67834000Y-85919571D01*
X70976858Y-85919571D02*
X70262572Y-85919571D01*
X70191143Y-86633857D01*
X70262572Y-86562429D01*
X70405429Y-86491000D01*
X70762572Y-86491000D01*
X70905429Y-86562429D01*
X70976858Y-86633857D01*
X71048286Y-86776714D01*
X71048286Y-87133857D01*
X70976858Y-87276714D01*
X70905429Y-87348143D01*
X70762572Y-87419571D01*
X70405429Y-87419571D01*
X70262572Y-87348143D01*
X70191143Y-87276714D01*
X71476857Y-85919571D02*
X71976857Y-87419571D01*
X72476857Y-85919571D01*
X44990857Y-24324571D02*
X44990857Y-25538857D01*
X45062285Y-25681714D01*
X45133714Y-25753143D01*
X45276571Y-25824571D01*
X45562285Y-25824571D01*
X45705143Y-25753143D01*
X45776571Y-25681714D01*
X45848000Y-25538857D01*
X45848000Y-24324571D01*
X46490857Y-25753143D02*
X46705143Y-25824571D01*
X47062286Y-25824571D01*
X47205143Y-25753143D01*
X47276572Y-25681714D01*
X47348000Y-25538857D01*
X47348000Y-25396000D01*
X47276572Y-25253143D01*
X47205143Y-25181714D01*
X47062286Y-25110286D01*
X46776572Y-25038857D01*
X46633714Y-24967429D01*
X46562286Y-24896000D01*
X46490857Y-24753143D01*
X46490857Y-24610286D01*
X46562286Y-24467429D01*
X46633714Y-24396000D01*
X46776572Y-24324571D01*
X47133714Y-24324571D01*
X47348000Y-24396000D01*
X48490857Y-25038857D02*
X48705143Y-25110286D01*
X48776571Y-25181714D01*
X48848000Y-25324571D01*
X48848000Y-25538857D01*
X48776571Y-25681714D01*
X48705143Y-25753143D01*
X48562285Y-25824571D01*
X47990857Y-25824571D01*
X47990857Y-24324571D01*
X48490857Y-24324571D01*
X48633714Y-24396000D01*
X48705143Y-24467429D01*
X48776571Y-24610286D01*
X48776571Y-24753143D01*
X48705143Y-24896000D01*
X48633714Y-24967429D01*
X48490857Y-25038857D01*
X47990857Y-25038857D01*
X51419428Y-24396000D02*
X51276571Y-24324571D01*
X51062285Y-24324571D01*
X50848000Y-24396000D01*
X50705142Y-24538857D01*
X50633714Y-24681714D01*
X50562285Y-24967429D01*
X50562285Y-25181714D01*
X50633714Y-25467429D01*
X50705142Y-25610286D01*
X50848000Y-25753143D01*
X51062285Y-25824571D01*
X51205142Y-25824571D01*
X51419428Y-25753143D01*
X51490857Y-25681714D01*
X51490857Y-25181714D01*
X51205142Y-25181714D01*
X52419428Y-24324571D02*
X52705142Y-24324571D01*
X52848000Y-24396000D01*
X52990857Y-24538857D01*
X53062285Y-24824571D01*
X53062285Y-25324571D01*
X52990857Y-25610286D01*
X52848000Y-25753143D01*
X52705142Y-25824571D01*
X52419428Y-25824571D01*
X52276571Y-25753143D01*
X52133714Y-25610286D01*
X52062285Y-25324571D01*
X52062285Y-24824571D01*
X52133714Y-24538857D01*
X52276571Y-24396000D01*
X52419428Y-24324571D01*
X53705143Y-25038857D02*
X54205143Y-25038857D01*
X54419429Y-25824571D02*
X53705143Y-25824571D01*
X53705143Y-24324571D01*
X54419429Y-24324571D01*
X54990857Y-25753143D02*
X55205143Y-25824571D01*
X55562286Y-25824571D01*
X55705143Y-25753143D01*
X55776572Y-25681714D01*
X55848000Y-25538857D01*
X55848000Y-25396000D01*
X55776572Y-25253143D01*
X55705143Y-25181714D01*
X55562286Y-25110286D01*
X55276572Y-25038857D01*
X55133714Y-24967429D01*
X55062286Y-24896000D01*
X54990857Y-24753143D01*
X54990857Y-24610286D01*
X55062286Y-24467429D01*
X55133714Y-24396000D01*
X55276572Y-24324571D01*
X55633714Y-24324571D01*
X55848000Y-24396000D01*
X57633714Y-25824571D02*
X57633714Y-24324571D01*
X57633714Y-25038857D02*
X58490857Y-25038857D01*
X58490857Y-25824571D02*
X58490857Y-24324571D01*
X59205143Y-25038857D02*
X59705143Y-25038857D01*
X59919429Y-25824571D02*
X59205143Y-25824571D01*
X59205143Y-24324571D01*
X59919429Y-24324571D01*
X61419429Y-25824571D02*
X60919429Y-25110286D01*
X60562286Y-25824571D02*
X60562286Y-24324571D01*
X61133714Y-24324571D01*
X61276572Y-24396000D01*
X61348000Y-24467429D01*
X61419429Y-24610286D01*
X61419429Y-24824571D01*
X61348000Y-24967429D01*
X61276572Y-25038857D01*
X61133714Y-25110286D01*
X60562286Y-25110286D01*
X62062286Y-25038857D02*
X62562286Y-25038857D01*
X62776572Y-25824571D02*
X62062286Y-25824571D01*
X62062286Y-24324571D01*
X62776572Y-24324571D01*
X24629515Y-65780457D02*
X24843801Y-65851886D01*
X24915229Y-65923314D01*
X24986658Y-66066171D01*
X24986658Y-66280457D01*
X24915229Y-66423314D01*
X24843801Y-66494743D01*
X24700943Y-66566171D01*
X24129515Y-66566171D01*
X24129515Y-65066171D01*
X24629515Y-65066171D01*
X24772372Y-65137600D01*
X24843801Y-65209029D01*
X24915229Y-65351886D01*
X24915229Y-65494743D01*
X24843801Y-65637600D01*
X24772372Y-65709029D01*
X24629515Y-65780457D01*
X24129515Y-65780457D01*
X25558086Y-66137600D02*
X26272372Y-66137600D01*
X25415229Y-66566171D02*
X25915229Y-65066171D01*
X26415229Y-66566171D01*
X27772372Y-66566171D02*
X27272372Y-65851886D01*
X26915229Y-66566171D02*
X26915229Y-65066171D01*
X27486657Y-65066171D01*
X27629515Y-65137600D01*
X27700943Y-65209029D01*
X27772372Y-65351886D01*
X27772372Y-65566171D01*
X27700943Y-65709029D01*
X27629515Y-65780457D01*
X27486657Y-65851886D01*
X26915229Y-65851886D01*
X28415229Y-65780457D02*
X28915229Y-65780457D01*
X29129515Y-66566171D02*
X28415229Y-66566171D01*
X28415229Y-65066171D01*
X29129515Y-65066171D01*
X24632600Y-61411657D02*
X24846886Y-61483086D01*
X24918314Y-61554514D01*
X24989743Y-61697371D01*
X24989743Y-61911657D01*
X24918314Y-62054514D01*
X24846886Y-62125943D01*
X24704028Y-62197371D01*
X24132600Y-62197371D01*
X24132600Y-60697371D01*
X24632600Y-60697371D01*
X24775457Y-60768800D01*
X24846886Y-60840229D01*
X24918314Y-60983086D01*
X24918314Y-61125943D01*
X24846886Y-61268800D01*
X24775457Y-61340229D01*
X24632600Y-61411657D01*
X24132600Y-61411657D01*
X26346886Y-62197371D02*
X25632600Y-62197371D01*
X25632600Y-60697371D01*
X26846886Y-62197371D02*
X26846886Y-60697371D01*
X27704029Y-62197371D02*
X27061172Y-61340229D01*
X27704029Y-60697371D02*
X26846886Y-61554514D01*
X24197571Y-58184800D02*
X25697571Y-57827657D01*
X24626143Y-57541943D01*
X25697571Y-57256229D01*
X24197571Y-56899086D01*
X25697571Y-56327657D02*
X24197571Y-56327657D01*
X24911857Y-56327657D02*
X24911857Y-55470514D01*
X25697571Y-55470514D02*
X24197571Y-55470514D01*
X24197571Y-54970514D02*
X24197571Y-54113371D01*
X25697571Y-54541942D02*
X24197571Y-54541942D01*
X24485743Y-50456400D02*
X24342886Y-50384971D01*
X24128600Y-50384971D01*
X23914315Y-50456400D01*
X23771457Y-50599257D01*
X23700029Y-50742114D01*
X23628600Y-51027829D01*
X23628600Y-51242114D01*
X23700029Y-51527829D01*
X23771457Y-51670686D01*
X23914315Y-51813543D01*
X24128600Y-51884971D01*
X24271457Y-51884971D01*
X24485743Y-51813543D01*
X24557172Y-51742114D01*
X24557172Y-51242114D01*
X24271457Y-51242114D01*
X26057172Y-51884971D02*
X25557172Y-51170686D01*
X25200029Y-51884971D02*
X25200029Y-50384971D01*
X25771457Y-50384971D01*
X25914315Y-50456400D01*
X25985743Y-50527829D01*
X26057172Y-50670686D01*
X26057172Y-50884971D01*
X25985743Y-51027829D01*
X25914315Y-51099257D01*
X25771457Y-51170686D01*
X25200029Y-51170686D01*
X26700029Y-51884971D02*
X26700029Y-50384971D01*
X27557172Y-51884971D01*
X27557172Y-50384971D01*
X24943715Y-46119171D02*
X24443715Y-45404886D01*
X24086572Y-46119171D02*
X24086572Y-44619171D01*
X24658000Y-44619171D01*
X24800858Y-44690600D01*
X24872286Y-44762029D01*
X24943715Y-44904886D01*
X24943715Y-45119171D01*
X24872286Y-45262029D01*
X24800858Y-45333457D01*
X24658000Y-45404886D01*
X24086572Y-45404886D01*
X25586572Y-45333457D02*
X26086572Y-45333457D01*
X26300858Y-46119171D02*
X25586572Y-46119171D01*
X25586572Y-44619171D01*
X26300858Y-44619171D01*
X26943715Y-46119171D02*
X26943715Y-44619171D01*
X27300858Y-44619171D01*
X27515143Y-44690600D01*
X27658001Y-44833457D01*
X27729429Y-44976314D01*
X27800858Y-45262029D01*
X27800858Y-45476314D01*
X27729429Y-45762029D01*
X27658001Y-45904886D01*
X27515143Y-46047743D01*
X27300858Y-46119171D01*
X26943715Y-46119171D01*
X15161143Y-71549343D02*
X15375429Y-71620771D01*
X15732572Y-71620771D01*
X15875429Y-71549343D01*
X15946858Y-71477914D01*
X16018286Y-71335057D01*
X16018286Y-71192200D01*
X15946858Y-71049343D01*
X15875429Y-70977914D01*
X15732572Y-70906486D01*
X15446858Y-70835057D01*
X15304000Y-70763629D01*
X15232572Y-70692200D01*
X15161143Y-70549343D01*
X15161143Y-70406486D01*
X15232572Y-70263629D01*
X15304000Y-70192200D01*
X15446858Y-70120771D01*
X15804000Y-70120771D01*
X16018286Y-70192200D01*
X16661143Y-70835057D02*
X17161143Y-70835057D01*
X17375429Y-71620771D02*
X16661143Y-71620771D01*
X16661143Y-70120771D01*
X17375429Y-70120771D01*
X18018286Y-71620771D02*
X18018286Y-70120771D01*
X18875429Y-71620771D01*
X18875429Y-70120771D01*
X19518286Y-71549343D02*
X19732572Y-71620771D01*
X20089715Y-71620771D01*
X20232572Y-71549343D01*
X20304001Y-71477914D01*
X20375429Y-71335057D01*
X20375429Y-71192200D01*
X20304001Y-71049343D01*
X20232572Y-70977914D01*
X20089715Y-70906486D01*
X19804001Y-70835057D01*
X19661143Y-70763629D01*
X19589715Y-70692200D01*
X19518286Y-70549343D01*
X19518286Y-70406486D01*
X19589715Y-70263629D01*
X19661143Y-70192200D01*
X19804001Y-70120771D01*
X20161143Y-70120771D01*
X20375429Y-70192200D01*
X21304000Y-70120771D02*
X21589714Y-70120771D01*
X21732572Y-70192200D01*
X21875429Y-70335057D01*
X21946857Y-70620771D01*
X21946857Y-71120771D01*
X21875429Y-71406486D01*
X21732572Y-71549343D01*
X21589714Y-71620771D01*
X21304000Y-71620771D01*
X21161143Y-71549343D01*
X21018286Y-71406486D01*
X20946857Y-71120771D01*
X20946857Y-70620771D01*
X21018286Y-70335057D01*
X21161143Y-70192200D01*
X21304000Y-70120771D01*
X23446858Y-71620771D02*
X22946858Y-70906486D01*
X22589715Y-71620771D02*
X22589715Y-70120771D01*
X23161143Y-70120771D01*
X23304001Y-70192200D01*
X23375429Y-70263629D01*
X23446858Y-70406486D01*
X23446858Y-70620771D01*
X23375429Y-70763629D01*
X23304001Y-70835057D01*
X23161143Y-70906486D01*
X22589715Y-70906486D01*
X52247943Y-108851000D02*
X52105086Y-108779571D01*
X51890800Y-108779571D01*
X51676515Y-108851000D01*
X51533657Y-108993857D01*
X51462229Y-109136714D01*
X51390800Y-109422429D01*
X51390800Y-109636714D01*
X51462229Y-109922429D01*
X51533657Y-110065286D01*
X51676515Y-110208143D01*
X51890800Y-110279571D01*
X52033657Y-110279571D01*
X52247943Y-110208143D01*
X52319372Y-110136714D01*
X52319372Y-109636714D01*
X52033657Y-109636714D01*
X52962229Y-110279571D02*
X52962229Y-108779571D01*
X53819372Y-110279571D01*
X53819372Y-108779571D01*
X54533658Y-110279571D02*
X54533658Y-108779571D01*
X54890801Y-108779571D01*
X55105086Y-108851000D01*
X55247944Y-108993857D01*
X55319372Y-109136714D01*
X55390801Y-109422429D01*
X55390801Y-109636714D01*
X55319372Y-109922429D01*
X55247944Y-110065286D01*
X55105086Y-110208143D01*
X54890801Y-110279571D01*
X54533658Y-110279571D01*
X47231372Y-109200143D02*
X48374229Y-109200143D01*
X41643372Y-109454143D02*
X42786229Y-109454143D01*
X42214800Y-110025571D02*
X42214800Y-108882714D01*
X29230144Y-110914571D02*
X28730144Y-110200286D01*
X28373001Y-110914571D02*
X28373001Y-109414571D01*
X28944429Y-109414571D01*
X29087287Y-109486000D01*
X29158715Y-109557429D01*
X29230144Y-109700286D01*
X29230144Y-109914571D01*
X29158715Y-110057429D01*
X29087287Y-110128857D01*
X28944429Y-110200286D01*
X28373001Y-110200286D01*
X29801572Y-110843143D02*
X30015858Y-110914571D01*
X30373001Y-110914571D01*
X30515858Y-110843143D01*
X30587287Y-110771714D01*
X30658715Y-110628857D01*
X30658715Y-110486000D01*
X30587287Y-110343143D01*
X30515858Y-110271714D01*
X30373001Y-110200286D01*
X30087287Y-110128857D01*
X29944429Y-110057429D01*
X29873001Y-109986000D01*
X29801572Y-109843143D01*
X29801572Y-109700286D01*
X29873001Y-109557429D01*
X29944429Y-109486000D01*
X30087287Y-109414571D01*
X30444429Y-109414571D01*
X30658715Y-109486000D01*
X31944429Y-109914571D02*
X31944429Y-110914571D01*
X31587286Y-109343143D02*
X31230143Y-110414571D01*
X32158715Y-110414571D01*
X32944429Y-110057429D02*
X32801571Y-109986000D01*
X32730143Y-109914571D01*
X32658714Y-109771714D01*
X32658714Y-109700286D01*
X32730143Y-109557429D01*
X32801571Y-109486000D01*
X32944429Y-109414571D01*
X33230143Y-109414571D01*
X33373000Y-109486000D01*
X33444429Y-109557429D01*
X33515857Y-109700286D01*
X33515857Y-109771714D01*
X33444429Y-109914571D01*
X33373000Y-109986000D01*
X33230143Y-110057429D01*
X32944429Y-110057429D01*
X32801571Y-110128857D01*
X32730143Y-110200286D01*
X32658714Y-110343143D01*
X32658714Y-110628857D01*
X32730143Y-110771714D01*
X32801571Y-110843143D01*
X32944429Y-110914571D01*
X33230143Y-110914571D01*
X33373000Y-110843143D01*
X33444429Y-110771714D01*
X33515857Y-110628857D01*
X33515857Y-110343143D01*
X33444429Y-110200286D01*
X33373000Y-110128857D01*
X33230143Y-110057429D01*
X34873000Y-109414571D02*
X34158714Y-109414571D01*
X34087285Y-110128857D01*
X34158714Y-110057429D01*
X34301571Y-109986000D01*
X34658714Y-109986000D01*
X34801571Y-110057429D01*
X34873000Y-110128857D01*
X34944428Y-110271714D01*
X34944428Y-110628857D01*
X34873000Y-110771714D01*
X34801571Y-110843143D01*
X34658714Y-110914571D01*
X34301571Y-110914571D01*
X34158714Y-110843143D01*
X34087285Y-110771714D01*
X100266572Y-100432143D02*
X101409429Y-100432143D01*
X99588000Y-102767857D02*
X99802286Y-102839286D01*
X99873714Y-102910714D01*
X99945143Y-103053571D01*
X99945143Y-103267857D01*
X99873714Y-103410714D01*
X99802286Y-103482143D01*
X99659428Y-103553571D01*
X99088000Y-103553571D01*
X99088000Y-102053571D01*
X99588000Y-102053571D01*
X99730857Y-102125000D01*
X99802286Y-102196429D01*
X99873714Y-102339286D01*
X99873714Y-102482143D01*
X99802286Y-102625000D01*
X99730857Y-102696429D01*
X99588000Y-102767857D01*
X99088000Y-102767857D01*
X101302286Y-103553571D02*
X100588000Y-103553571D01*
X100588000Y-102053571D01*
X101802286Y-103553571D02*
X101802286Y-102053571D01*
X102659429Y-103553571D02*
X102016572Y-102696429D01*
X102659429Y-102053571D02*
X101802286Y-102910714D01*
X79692572Y-100305143D02*
X80835429Y-100305143D01*
X80264000Y-100876571D02*
X80264000Y-99733714D01*
X79299715Y-103426571D02*
X78799715Y-102712286D01*
X78442572Y-103426571D02*
X78442572Y-101926571D01*
X79014000Y-101926571D01*
X79156858Y-101998000D01*
X79228286Y-102069429D01*
X79299715Y-102212286D01*
X79299715Y-102426571D01*
X79228286Y-102569429D01*
X79156858Y-102640857D01*
X79014000Y-102712286D01*
X78442572Y-102712286D01*
X79942572Y-102640857D02*
X80442572Y-102640857D01*
X80656858Y-103426571D02*
X79942572Y-103426571D01*
X79942572Y-101926571D01*
X80656858Y-101926571D01*
X81299715Y-103426571D02*
X81299715Y-101926571D01*
X81656858Y-101926571D01*
X81871143Y-101998000D01*
X82014001Y-102140857D01*
X82085429Y-102283714D01*
X82156858Y-102569429D01*
X82156858Y-102783714D01*
X82085429Y-103069429D01*
X82014001Y-103212286D01*
X81871143Y-103355143D01*
X81656858Y-103426571D01*
X81299715Y-103426571D01*
X77062344Y-107086943D02*
X78205201Y-107086943D01*
X77633772Y-107658371D02*
X77633772Y-106515514D01*
X79562344Y-106658371D02*
X79562344Y-107658371D01*
X79205201Y-106086943D02*
X78848058Y-107158371D01*
X79776630Y-107158371D01*
X80562344Y-106801229D02*
X80419486Y-106729800D01*
X80348058Y-106658371D01*
X80276629Y-106515514D01*
X80276629Y-106444086D01*
X80348058Y-106301229D01*
X80419486Y-106229800D01*
X80562344Y-106158371D01*
X80848058Y-106158371D01*
X80990915Y-106229800D01*
X81062344Y-106301229D01*
X81133772Y-106444086D01*
X81133772Y-106515514D01*
X81062344Y-106658371D01*
X80990915Y-106729800D01*
X80848058Y-106801229D01*
X80562344Y-106801229D01*
X80419486Y-106872657D01*
X80348058Y-106944086D01*
X80276629Y-107086943D01*
X80276629Y-107372657D01*
X80348058Y-107515514D01*
X80419486Y-107586943D01*
X80562344Y-107658371D01*
X80848058Y-107658371D01*
X80990915Y-107586943D01*
X81062344Y-107515514D01*
X81133772Y-107372657D01*
X81133772Y-107086943D01*
X81062344Y-106944086D01*
X80990915Y-106872657D01*
X80848058Y-106801229D01*
X81562343Y-106158371D02*
X82062343Y-107658371D01*
X82562343Y-106158371D01*
X78919486Y-110208371D02*
X78919486Y-108708371D01*
X79633772Y-110208371D02*
X79633772Y-108708371D01*
X80490915Y-110208371D01*
X80490915Y-108708371D01*
X112463143Y-24398857D02*
X112963143Y-24398857D01*
X113177429Y-25184571D02*
X112463143Y-25184571D01*
X112463143Y-23684571D01*
X113177429Y-23684571D01*
X114534572Y-25184571D02*
X113820286Y-25184571D01*
X113820286Y-23684571D01*
X115034572Y-24398857D02*
X115534572Y-24398857D01*
X115748858Y-25184571D02*
X115034572Y-25184571D01*
X115034572Y-23684571D01*
X115748858Y-23684571D01*
X116177429Y-23684571D02*
X116677429Y-25184571D01*
X117177429Y-23684571D01*
X117606000Y-24756000D02*
X118320286Y-24756000D01*
X117463143Y-25184571D02*
X117963143Y-23684571D01*
X118463143Y-25184571D01*
X118748857Y-23684571D02*
X119606000Y-23684571D01*
X119177429Y-25184571D02*
X119177429Y-23684571D01*
X120106000Y-25184571D02*
X120106000Y-23684571D01*
X121106000Y-23684571D02*
X121391714Y-23684571D01*
X121534572Y-23756000D01*
X121677429Y-23898857D01*
X121748857Y-24184571D01*
X121748857Y-24684571D01*
X121677429Y-24970286D01*
X121534572Y-25113143D01*
X121391714Y-25184571D01*
X121106000Y-25184571D01*
X120963143Y-25113143D01*
X120820286Y-24970286D01*
X120748857Y-24684571D01*
X120748857Y-24184571D01*
X120820286Y-23898857D01*
X120963143Y-23756000D01*
X121106000Y-23684571D01*
X122391715Y-25184571D02*
X122391715Y-23684571D01*
X123248858Y-25184571D01*
X123248858Y-23684571D01*
X114463143Y-27734571D02*
X114463143Y-26234571D01*
X114963143Y-27306000D01*
X115463143Y-26234571D01*
X115463143Y-27734571D01*
X116463143Y-26234571D02*
X116748857Y-26234571D01*
X116891715Y-26306000D01*
X117034572Y-26448857D01*
X117106000Y-26734571D01*
X117106000Y-27234571D01*
X117034572Y-27520286D01*
X116891715Y-27663143D01*
X116748857Y-27734571D01*
X116463143Y-27734571D01*
X116320286Y-27663143D01*
X116177429Y-27520286D01*
X116106000Y-27234571D01*
X116106000Y-26734571D01*
X116177429Y-26448857D01*
X116320286Y-26306000D01*
X116463143Y-26234571D01*
X117534572Y-26234571D02*
X118391715Y-26234571D01*
X117963144Y-27734571D02*
X117963144Y-26234571D01*
X119177429Y-26234571D02*
X119463143Y-26234571D01*
X119606001Y-26306000D01*
X119748858Y-26448857D01*
X119820286Y-26734571D01*
X119820286Y-27234571D01*
X119748858Y-27520286D01*
X119606001Y-27663143D01*
X119463143Y-27734571D01*
X119177429Y-27734571D01*
X119034572Y-27663143D01*
X118891715Y-27520286D01*
X118820286Y-27234571D01*
X118820286Y-26734571D01*
X118891715Y-26448857D01*
X119034572Y-26306000D01*
X119177429Y-26234571D01*
X121320287Y-27734571D02*
X120820287Y-27020286D01*
X120463144Y-27734571D02*
X120463144Y-26234571D01*
X121034572Y-26234571D01*
X121177430Y-26306000D01*
X121248858Y-26377429D01*
X121320287Y-26520286D01*
X121320287Y-26734571D01*
X121248858Y-26877429D01*
X121177430Y-26948857D01*
X121034572Y-27020286D01*
X120463144Y-27020286D01*
X120212657Y-41763000D02*
X120284086Y-41548714D01*
X120355514Y-41477286D01*
X120498371Y-41405857D01*
X120712657Y-41405857D01*
X120855514Y-41477286D01*
X120926943Y-41548714D01*
X120998371Y-41691572D01*
X120998371Y-42263000D01*
X119498371Y-42263000D01*
X119498371Y-41763000D01*
X119569800Y-41620143D01*
X119641229Y-41548714D01*
X119784086Y-41477286D01*
X119926943Y-41477286D01*
X120069800Y-41548714D01*
X120141229Y-41620143D01*
X120212657Y-41763000D01*
X120212657Y-42263000D01*
X120998371Y-40048714D02*
X120998371Y-40763000D01*
X119498371Y-40763000D01*
X120998371Y-39548714D02*
X119498371Y-39548714D01*
X120998371Y-38691571D02*
X120141229Y-39334428D01*
X119498371Y-38691571D02*
X120355514Y-39548714D01*
X120718971Y-33552485D02*
X120004686Y-34052485D01*
X120718971Y-34409628D02*
X119218971Y-34409628D01*
X119218971Y-33838200D01*
X119290400Y-33695342D01*
X119361829Y-33623914D01*
X119504686Y-33552485D01*
X119718971Y-33552485D01*
X119861829Y-33623914D01*
X119933257Y-33695342D01*
X120004686Y-33838200D01*
X120004686Y-34409628D01*
X119933257Y-32909628D02*
X119933257Y-32409628D01*
X120718971Y-32195342D02*
X120718971Y-32909628D01*
X119218971Y-32909628D01*
X119218971Y-32195342D01*
X120718971Y-31552485D02*
X119218971Y-31552485D01*
X119218971Y-31195342D01*
X119290400Y-30981057D01*
X119433257Y-30838199D01*
X119576114Y-30766771D01*
X119861829Y-30695342D01*
X120076114Y-30695342D01*
X120361829Y-30766771D01*
X120504686Y-30838199D01*
X120647543Y-30981057D01*
X120718971Y-31195342D01*
X120718971Y-31552485D01*
X114443428Y-102353000D02*
X115157714Y-102353000D01*
X114300571Y-102781571D02*
X114800571Y-101281571D01*
X115300571Y-102781571D01*
X115657714Y-101281571D02*
X116657714Y-101281571D01*
X115657714Y-102781571D01*
X116657714Y-102781571D01*
X117229142Y-102781571D02*
X117229142Y-101281571D01*
X117943428Y-102781571D02*
X117943428Y-101281571D01*
X118443428Y-102353000D01*
X118943428Y-101281571D01*
X118943428Y-102781571D01*
X119657714Y-101281571D02*
X119657714Y-102495857D01*
X119729142Y-102638714D01*
X119800571Y-102710143D01*
X119943428Y-102781571D01*
X120229142Y-102781571D01*
X120372000Y-102710143D01*
X120443428Y-102638714D01*
X120514857Y-102495857D01*
X120514857Y-101281571D01*
X121014857Y-101281571D02*
X121872000Y-101281571D01*
X121443429Y-102781571D02*
X121443429Y-101281571D01*
X122372000Y-102781571D02*
X122372000Y-101281571D01*
X122372000Y-101995857D02*
X123229143Y-101995857D01*
X123229143Y-102781571D02*
X123229143Y-101281571D01*
X115479143Y-105331571D02*
X115479143Y-103831571D01*
X115979143Y-104903000D01*
X116479143Y-103831571D01*
X116479143Y-105331571D01*
X117479143Y-103831571D02*
X117764857Y-103831571D01*
X117907715Y-103903000D01*
X118050572Y-104045857D01*
X118122000Y-104331571D01*
X118122000Y-104831571D01*
X118050572Y-105117286D01*
X117907715Y-105260143D01*
X117764857Y-105331571D01*
X117479143Y-105331571D01*
X117336286Y-105260143D01*
X117193429Y-105117286D01*
X117122000Y-104831571D01*
X117122000Y-104331571D01*
X117193429Y-104045857D01*
X117336286Y-103903000D01*
X117479143Y-103831571D01*
X118550572Y-103831571D02*
X119407715Y-103831571D01*
X118979144Y-105331571D02*
X118979144Y-103831571D01*
X120193429Y-103831571D02*
X120479143Y-103831571D01*
X120622001Y-103903000D01*
X120764858Y-104045857D01*
X120836286Y-104331571D01*
X120836286Y-104831571D01*
X120764858Y-105117286D01*
X120622001Y-105260143D01*
X120479143Y-105331571D01*
X120193429Y-105331571D01*
X120050572Y-105260143D01*
X119907715Y-105117286D01*
X119836286Y-104831571D01*
X119836286Y-104331571D01*
X119907715Y-104045857D01*
X120050572Y-103903000D01*
X120193429Y-103831571D01*
X122336287Y-105331571D02*
X121836287Y-104617286D01*
X121479144Y-105331571D02*
X121479144Y-103831571D01*
X122050572Y-103831571D01*
X122193430Y-103903000D01*
X122264858Y-103974429D01*
X122336287Y-104117286D01*
X122336287Y-104331571D01*
X122264858Y-104474429D01*
X122193430Y-104545857D01*
X122050572Y-104617286D01*
X121479144Y-104617286D01*
X122036686Y-88865686D02*
X122750971Y-88865686D01*
X121250971Y-89365686D02*
X122036686Y-88865686D01*
X121250971Y-88365686D01*
X122750971Y-87151400D02*
X122750971Y-87865686D01*
X121250971Y-87865686D01*
X121250971Y-86794257D02*
X122750971Y-86437114D01*
X121679543Y-86151400D01*
X122750971Y-85865686D01*
X121250971Y-85508543D01*
X121474800Y-96773857D02*
X121403371Y-96916714D01*
X121403371Y-97131000D01*
X121474800Y-97345285D01*
X121617657Y-97488143D01*
X121760514Y-97559571D01*
X122046229Y-97631000D01*
X122260514Y-97631000D01*
X122546229Y-97559571D01*
X122689086Y-97488143D01*
X122831943Y-97345285D01*
X122903371Y-97131000D01*
X122903371Y-96988143D01*
X122831943Y-96773857D01*
X122760514Y-96702428D01*
X122260514Y-96702428D01*
X122260514Y-96988143D01*
X122903371Y-95202428D02*
X122189086Y-95702428D01*
X122903371Y-96059571D02*
X121403371Y-96059571D01*
X121403371Y-95488143D01*
X121474800Y-95345285D01*
X121546229Y-95273857D01*
X121689086Y-95202428D01*
X121903371Y-95202428D01*
X122046229Y-95273857D01*
X122117657Y-95345285D01*
X122189086Y-95488143D01*
X122189086Y-96059571D01*
X122903371Y-94559571D02*
X121403371Y-94559571D01*
X122903371Y-93702428D01*
X121403371Y-93702428D01*
D14*
X139420000Y-64008000D02*
G75*
G03X139420000Y-64008000I-17500000J0D01*
G01*
D15*
X155648000Y-35036000D02*
X155648000Y-33036000D01*
X157788000Y-33036000D02*
X157788000Y-35036000D01*
D14*
X63730000Y-26500000D02*
X63730000Y-64250000D01*
X63730000Y-64250000D02*
X62730000Y-65250000D01*
X62730000Y-65250000D02*
X45730000Y-65250000D01*
X45730000Y-65250000D02*
X45730000Y-26500000D01*
X45730000Y-26500000D02*
X63730000Y-26500000D01*
D15*
X32274000Y-61726000D02*
X34274000Y-61726000D01*
X34274000Y-59686000D02*
X32274000Y-59686000D01*
X41144000Y-29988000D02*
X41144000Y-31988000D01*
X43184000Y-31988000D02*
X43184000Y-29988000D01*
X148078000Y-32782000D02*
X148078000Y-34782000D01*
X150118000Y-34782000D02*
X150118000Y-32782000D01*
X143514000Y-44942000D02*
X143514000Y-42942000D01*
X141474000Y-42942000D02*
X141474000Y-44942000D01*
X146308000Y-44942000D02*
X146308000Y-42942000D01*
X144268000Y-42942000D02*
X144268000Y-44942000D01*
X56993600Y-17592800D02*
X56993600Y-19592800D01*
X59033600Y-19592800D02*
X59033600Y-17592800D01*
X151888000Y-32782000D02*
X151888000Y-34782000D01*
X153928000Y-34782000D02*
X153928000Y-32782000D01*
X54098000Y-17745200D02*
X54098000Y-19745200D01*
X56138000Y-19745200D02*
X56138000Y-17745200D01*
X91444000Y-58023000D02*
X91444000Y-56023000D01*
X89404000Y-56023000D02*
X89404000Y-58023000D01*
X100588000Y-53070000D02*
X100588000Y-51070000D01*
X98548000Y-51070000D02*
X98548000Y-53070000D01*
X97794000Y-58023000D02*
X97794000Y-56023000D01*
X95754000Y-56023000D02*
X95754000Y-58023000D01*
X87888000Y-58023000D02*
X87888000Y-56023000D01*
X85848000Y-56023000D02*
X85848000Y-58023000D01*
X93087000Y-56023000D02*
X93087000Y-58023000D01*
X95127000Y-58023000D02*
X95127000Y-56023000D01*
X150397000Y-67726000D02*
X150397000Y-69726000D01*
X152437000Y-69726000D02*
X152437000Y-67726000D01*
X145579000Y-83315000D02*
X145579000Y-81315000D01*
X143539000Y-81315000D02*
X143539000Y-83315000D01*
X148881000Y-83315000D02*
X148881000Y-81315000D01*
X146841000Y-81315000D02*
X146841000Y-83315000D01*
X154174000Y-67707000D02*
X154174000Y-69707000D01*
X156214000Y-69707000D02*
X156214000Y-67707000D01*
X148627000Y-69726000D02*
X148627000Y-67726000D01*
X146587000Y-67726000D02*
X146587000Y-69726000D01*
X64131000Y-81143600D02*
X64131000Y-83143600D01*
X66171000Y-83143600D02*
X66171000Y-81143600D01*
X71154800Y-83231800D02*
X69154800Y-83231800D01*
X69154800Y-85271800D02*
X71154800Y-85271800D01*
X56372000Y-97532000D02*
X54372000Y-97532000D01*
X54372000Y-99572000D02*
X56372000Y-99572000D01*
X90936000Y-93456000D02*
X90936000Y-91456000D01*
X88896000Y-91456000D02*
X88896000Y-93456000D01*
X89170000Y-68965000D02*
X91170000Y-68965000D01*
X91170000Y-66925000D02*
X89170000Y-66925000D01*
X38878000Y-95254000D02*
X40878000Y-95254000D01*
X40878000Y-93214000D02*
X38878000Y-93214000D01*
X97921000Y-76057000D02*
X97921000Y-74057000D01*
X95881000Y-74057000D02*
X95881000Y-76057000D01*
X56372000Y-93722000D02*
X54372000Y-93722000D01*
X54372000Y-95762000D02*
X56372000Y-95762000D01*
X87380000Y-93456000D02*
X87380000Y-91456000D01*
X85340000Y-91456000D02*
X85340000Y-93456000D01*
X38878000Y-99572000D02*
X40878000Y-99572000D01*
X40878000Y-97532000D02*
X38878000Y-97532000D01*
X28464000Y-105922000D02*
X30464000Y-105922000D01*
X30464000Y-103882000D02*
X28464000Y-103882000D01*
X92452000Y-91176600D02*
X92452000Y-93176600D01*
X94492000Y-93176600D02*
X94492000Y-91176600D01*
X161864000Y-41200000D02*
X163764000Y-41200000D01*
X163764000Y-41200000D02*
X163764000Y-36500000D01*
X161864000Y-41200000D02*
X161864000Y-36500000D01*
X91492000Y-16444000D02*
X91492000Y-14544000D01*
X91492000Y-14544000D02*
X86792000Y-14544000D01*
X91492000Y-16444000D02*
X86792000Y-16444000D01*
X83022500Y-43426500D02*
X81122500Y-43426500D01*
X81122500Y-43426500D02*
X81122500Y-48126500D01*
X83022500Y-43426500D02*
X83022500Y-48126500D01*
X81214000Y-82244000D02*
X79314000Y-82244000D01*
X79314000Y-82244000D02*
X79314000Y-86944000D01*
X81214000Y-82244000D02*
X81214000Y-86944000D01*
X66727000Y-76743600D02*
X66727000Y-74843600D01*
X66727000Y-74843600D02*
X62027000Y-74843600D01*
X66727000Y-76743600D02*
X62027000Y-76743600D01*
X67471800Y-24158600D02*
X65471800Y-24158600D01*
X65471800Y-22018600D02*
X67471800Y-22018600D01*
X64055600Y-92668600D02*
X64055600Y-90668600D01*
X66195600Y-90668600D02*
X66195600Y-92668600D01*
X161744000Y-46466000D02*
X161744000Y-44466000D01*
X163884000Y-44466000D02*
X163884000Y-46466000D01*
X159204000Y-35036000D02*
X159204000Y-33036000D01*
X161344000Y-33036000D02*
X161344000Y-35036000D01*
X148447000Y-56950000D02*
X146447000Y-56950000D01*
X146447000Y-54810000D02*
X148447000Y-54810000D01*
X76050800Y-24450800D02*
X76050800Y-26450800D01*
X73910800Y-26450800D02*
X73910800Y-24450800D01*
X83137400Y-38547800D02*
X83137400Y-40547800D01*
X80997400Y-40547800D02*
X80997400Y-38547800D01*
X96504000Y-16564000D02*
X94504000Y-16564000D01*
X94504000Y-14424000D02*
X96504000Y-14424000D01*
X103616000Y-16564000D02*
X101616000Y-16564000D01*
X101616000Y-14424000D02*
X103616000Y-14424000D01*
X110474000Y-16564000D02*
X108474000Y-16564000D01*
X108474000Y-14424000D02*
X110474000Y-14424000D01*
X81842000Y-56150000D02*
X81842000Y-58150000D01*
X79702000Y-58150000D02*
X79702000Y-56150000D01*
X84890000Y-56023000D02*
X84890000Y-58023000D01*
X82750000Y-58023000D02*
X82750000Y-56023000D01*
X93488000Y-35760000D02*
X95488000Y-35760000D01*
X95488000Y-37900000D02*
X93488000Y-37900000D01*
X34274000Y-64570000D02*
X32274000Y-64570000D01*
X32274000Y-62430000D02*
X34274000Y-62430000D01*
X35290000Y-32058000D02*
X33290000Y-32058000D01*
X33290000Y-29918000D02*
X35290000Y-29918000D01*
X35290000Y-36122000D02*
X33290000Y-36122000D01*
X33290000Y-33982000D02*
X35290000Y-33982000D01*
X163395000Y-82661000D02*
X163395000Y-80661000D01*
X165535000Y-80661000D02*
X165535000Y-82661000D01*
X160474000Y-69707000D02*
X160474000Y-67707000D01*
X162614000Y-67707000D02*
X162614000Y-69707000D01*
X57134000Y-62030000D02*
X55134000Y-62030000D01*
X55134000Y-59890000D02*
X57134000Y-59890000D01*
X55997600Y-42008400D02*
X57997600Y-42008400D01*
X57997600Y-44148400D02*
X55997600Y-44148400D01*
X55134000Y-62430000D02*
X57134000Y-62430000D01*
X57134000Y-64570000D02*
X55134000Y-64570000D01*
X58988200Y-41532200D02*
X56988200Y-41532200D01*
X56988200Y-39392200D02*
X58988200Y-39392200D01*
X157205000Y-69726000D02*
X157205000Y-67726000D01*
X159345000Y-67726000D02*
X159345000Y-69726000D01*
X151114000Y-91240000D02*
X149114000Y-91240000D01*
X149114000Y-89100000D02*
X151114000Y-89100000D01*
X54372000Y-76908000D02*
X56372000Y-76908000D01*
X56372000Y-79048000D02*
X54372000Y-79048000D01*
X47190000Y-81518000D02*
X47190000Y-79518000D01*
X49330000Y-79518000D02*
X49330000Y-81518000D01*
X54372000Y-83258000D02*
X56372000Y-83258000D01*
X56372000Y-85398000D02*
X54372000Y-85398000D01*
X54372000Y-80210000D02*
X56372000Y-80210000D01*
X56372000Y-82350000D02*
X54372000Y-82350000D01*
X81334000Y-77232000D02*
X81334000Y-79232000D01*
X79194000Y-79232000D02*
X79194000Y-77232000D01*
X67586200Y-79232000D02*
X67586200Y-77232000D01*
X69726200Y-77232000D02*
X69726200Y-79232000D01*
X48752000Y-99622000D02*
X46752000Y-99622000D01*
X46752000Y-97482000D02*
X48752000Y-97482000D01*
X60906000Y-92694000D02*
X60906000Y-90694000D01*
X63046000Y-90694000D02*
X63046000Y-92694000D01*
X56372000Y-92002000D02*
X54372000Y-92002000D01*
X54372000Y-89862000D02*
X56372000Y-89862000D01*
X81334000Y-91456000D02*
X81334000Y-93456000D01*
X79194000Y-93456000D02*
X79194000Y-91456000D01*
X84382000Y-91456000D02*
X84382000Y-93456000D01*
X82242000Y-93456000D02*
X82242000Y-91456000D01*
X89170000Y-69669000D02*
X91170000Y-69669000D01*
X91170000Y-71809000D02*
X89170000Y-71809000D01*
D14*
X84074000Y-20828000D02*
X63754000Y-20828000D01*
X63754000Y-20828000D02*
X63754000Y-14478000D01*
X63754000Y-14478000D02*
X84074000Y-14478000D01*
X84074000Y-14478000D02*
X84074000Y-20828000D01*
X68834000Y-109220000D02*
X68834000Y-88900000D01*
X68834000Y-88900000D02*
X75184000Y-88900000D01*
X75184000Y-88900000D02*
X75184000Y-109220000D01*
X75184000Y-109220000D02*
X68834000Y-109220000D01*
D15*
X45526000Y-85582000D02*
G75*
G02X45526000Y-83582000I0J1000000D01*
G01*
X45526000Y-83582000D02*
X45526000Y-81932000D01*
X45526000Y-81932000D02*
X35246000Y-81932000D01*
X35246000Y-81932000D02*
X35246000Y-87232000D01*
X35246000Y-87232000D02*
X45526000Y-87232000D01*
X45526000Y-87232000D02*
X45526000Y-85582000D01*
D14*
X132140000Y-42164000D02*
X129540000Y-42164000D01*
X129540000Y-42164000D02*
X129540000Y-38764000D01*
X129540000Y-38764000D02*
X132140000Y-38764000D01*
X132140000Y-38764000D02*
X132140000Y-42164000D01*
X106740000Y-41148000D02*
X104140000Y-41148000D01*
X104140000Y-41148000D02*
X104140000Y-37748000D01*
X104140000Y-37748000D02*
X106740000Y-37748000D01*
X106740000Y-37748000D02*
X106740000Y-41148000D01*
X132648000Y-34544000D02*
X130048000Y-34544000D01*
X130048000Y-34544000D02*
X130048000Y-31144000D01*
X130048000Y-31144000D02*
X132648000Y-31144000D01*
X132648000Y-31144000D02*
X132648000Y-34544000D01*
X106740000Y-33020000D02*
X104140000Y-33020000D01*
X104140000Y-33020000D02*
X104140000Y-29620000D01*
X104140000Y-29620000D02*
X106740000Y-29620000D01*
X106740000Y-29620000D02*
X106740000Y-33020000D01*
X133156000Y-89281000D02*
X130556000Y-89281000D01*
X130556000Y-89281000D02*
X130556000Y-85881000D01*
X130556000Y-85881000D02*
X133156000Y-85881000D01*
X133156000Y-85881000D02*
X133156000Y-89281000D01*
X107375000Y-89662000D02*
X104775000Y-89662000D01*
X104775000Y-89662000D02*
X104775000Y-86262000D01*
X104775000Y-86262000D02*
X107375000Y-86262000D01*
X107375000Y-86262000D02*
X107375000Y-89662000D01*
X133410000Y-97282000D02*
X130810000Y-97282000D01*
X130810000Y-97282000D02*
X130810000Y-93882000D01*
X130810000Y-93882000D02*
X133410000Y-93882000D01*
X133410000Y-93882000D02*
X133410000Y-97282000D01*
X107375000Y-96901000D02*
X104775000Y-96901000D01*
X104775000Y-96901000D02*
X104775000Y-93501000D01*
X104775000Y-93501000D02*
X107375000Y-93501000D01*
X107375000Y-93501000D02*
X107375000Y-96901000D01*
X52848000Y-69886000D02*
X55098000Y-69886000D01*
X55098000Y-69886000D02*
X55098000Y-74386000D01*
X55098000Y-74386000D02*
X52848000Y-74386000D01*
X52848000Y-74386000D02*
X52348000Y-73886000D01*
X52348000Y-73886000D02*
X52348000Y-69886000D01*
X52348000Y-69886000D02*
X52848000Y-69886000D01*
X47514000Y-69886000D02*
X49764000Y-69886000D01*
X49764000Y-69886000D02*
X49764000Y-74386000D01*
X49764000Y-74386000D02*
X47514000Y-74386000D01*
X47514000Y-74386000D02*
X47014000Y-73886000D01*
X47014000Y-73886000D02*
X47014000Y-69886000D01*
X47014000Y-69886000D02*
X47514000Y-69886000D01*
X41894000Y-74640000D02*
X39644000Y-74640000D01*
X39644000Y-74640000D02*
X39644000Y-70140000D01*
X39644000Y-70140000D02*
X41894000Y-70140000D01*
X41894000Y-70140000D02*
X42394000Y-70640000D01*
X42394000Y-70640000D02*
X42394000Y-74640000D01*
X42394000Y-74640000D02*
X41894000Y-74640000D01*
X37576000Y-74640000D02*
X35326000Y-74640000D01*
X35326000Y-74640000D02*
X35326000Y-70140000D01*
X35326000Y-70140000D02*
X37576000Y-70140000D01*
X37576000Y-70140000D02*
X38076000Y-70640000D01*
X38076000Y-70640000D02*
X38076000Y-74640000D01*
X38076000Y-74640000D02*
X37576000Y-74640000D01*
D15*
X146562000Y-34782000D02*
X146562000Y-32782000D01*
X144522000Y-32782000D02*
X144522000Y-34782000D01*
X72950000Y-26908800D02*
X72950000Y-25008800D01*
X72950000Y-25008800D02*
X68250000Y-25008800D01*
X72950000Y-26908800D02*
X68250000Y-26908800D01*
D14*
X26240000Y-37854000D02*
X29440000Y-37854000D01*
X29440000Y-37854000D02*
X29440000Y-38854000D01*
X29440000Y-38854000D02*
X26640000Y-38854000D01*
X26640000Y-38854000D02*
X26240000Y-38454000D01*
X26240000Y-38454000D02*
X26240000Y-37854000D01*
X26678000Y-22020000D02*
X26678000Y-18820000D01*
X26678000Y-18820000D02*
X27678000Y-18820000D01*
X27678000Y-18820000D02*
X27678000Y-21620000D01*
X27678000Y-21620000D02*
X27278000Y-22020000D01*
X27278000Y-22020000D02*
X26678000Y-22020000D01*
D15*
X163515000Y-77649000D02*
X165415000Y-77649000D01*
X165415000Y-77649000D02*
X165415000Y-72949000D01*
X163515000Y-77649000D02*
X163515000Y-72949000D01*
X45918000Y-94232000D02*
X46848000Y-94232000D01*
X49078000Y-94232000D02*
X48148000Y-94232000D01*
X49078000Y-94232000D02*
X49078000Y-92072000D01*
X45918000Y-94232000D02*
X45918000Y-92772000D01*
X29016000Y-28388000D02*
X26356000Y-28388000D01*
X29016000Y-30988000D02*
X29016000Y-28388000D01*
X26356000Y-30988000D02*
X26356000Y-28388000D01*
X29016000Y-30988000D02*
X26356000Y-30988000D01*
X29016000Y-32258000D02*
X29016000Y-33588000D01*
X29016000Y-33588000D02*
X27686000Y-33588000D01*
X36382000Y-28000000D02*
X36382000Y-25340000D01*
X33782000Y-28000000D02*
X36382000Y-28000000D01*
X33782000Y-25340000D02*
X36382000Y-25340000D01*
X33782000Y-28000000D02*
X33782000Y-25340000D01*
X32512000Y-28000000D02*
X31182000Y-28000000D01*
X31182000Y-28000000D02*
X31182000Y-26670000D01*
D14*
X148850000Y-44646000D02*
X148875000Y-44646000D01*
X156900000Y-44646000D02*
X156875000Y-44646000D01*
X156900000Y-49296000D02*
X156875000Y-49296000D01*
X148800000Y-50371000D02*
X148800000Y-44646000D01*
X156900000Y-49296000D02*
X156900000Y-44646000D01*
X93336500Y-47200500D02*
X93311500Y-47200500D01*
X85286500Y-47200500D02*
X85311500Y-47200500D01*
X85286500Y-42550500D02*
X85311500Y-42550500D01*
X93386500Y-41475500D02*
X93386500Y-47200500D01*
X85286500Y-42550500D02*
X85286500Y-47200500D01*
X151710000Y-79736000D02*
X151735000Y-79736000D01*
X159760000Y-79736000D02*
X159735000Y-79736000D01*
X159760000Y-84386000D02*
X159735000Y-84386000D01*
X151660000Y-85461000D02*
X151660000Y-79736000D01*
X159760000Y-84386000D02*
X159760000Y-79736000D01*
X91815000Y-82989000D02*
X91790000Y-82989000D01*
X83765000Y-82989000D02*
X83790000Y-82989000D01*
X83765000Y-78339000D02*
X83790000Y-78339000D01*
X91865000Y-77264000D02*
X91865000Y-82989000D01*
X83765000Y-78339000D02*
X83765000Y-82989000D01*
D15*
X16650155Y-46449647D02*
G75*
G03X16650000Y-44950000I-1700155J749647D01*
G01*
X16650155Y-51529647D02*
G75*
G03X16650000Y-50030000I-1700155J749647D01*
G01*
X16650155Y-56609647D02*
G75*
G03X16650000Y-55110000I-1700155J749647D01*
G01*
X16650155Y-61689647D02*
G75*
G03X16650000Y-60190000I-1700155J749647D01*
G01*
X16650155Y-66769647D02*
G75*
G03X16650000Y-65270000I-1700155J749647D01*
G01*
X23230000Y-43080000D02*
X15820000Y-43080000D01*
X15820000Y-43080000D02*
X15820000Y-68640000D01*
X15820000Y-68640000D02*
X23230000Y-68640000D01*
X23230000Y-68640000D02*
X23230000Y-43080000D01*
X16650000Y-44950000D02*
X16650000Y-44200000D01*
X16650000Y-44200000D02*
X20950000Y-44200000D01*
X20950000Y-44200000D02*
X20950000Y-44950000D01*
X20950000Y-44950000D02*
X21300000Y-44950000D01*
X21300000Y-44950000D02*
X21300000Y-44450000D01*
X21300000Y-44450000D02*
X22300000Y-44200000D01*
X22300000Y-44200000D02*
X22300000Y-47200000D01*
X22300000Y-47200000D02*
X21300000Y-46950000D01*
X21300000Y-46950000D02*
X21300000Y-46450000D01*
X21300000Y-46450000D02*
X20950000Y-46450000D01*
X20950000Y-46450000D02*
X20950000Y-47200000D01*
X20950000Y-47200000D02*
X16650000Y-47200000D01*
X16650000Y-47200000D02*
X16650000Y-46450000D01*
X16650000Y-50030000D02*
X16650000Y-49280000D01*
X16650000Y-49280000D02*
X20950000Y-49280000D01*
X20950000Y-49280000D02*
X20950000Y-50030000D01*
X20950000Y-50030000D02*
X21300000Y-50030000D01*
X21300000Y-50030000D02*
X21300000Y-49530000D01*
X21300000Y-49530000D02*
X22300000Y-49280000D01*
X22300000Y-49280000D02*
X22300000Y-52280000D01*
X22300000Y-52280000D02*
X21300000Y-52030000D01*
X21300000Y-52030000D02*
X21300000Y-51530000D01*
X21300000Y-51530000D02*
X20950000Y-51530000D01*
X20950000Y-51530000D02*
X20950000Y-52280000D01*
X20950000Y-52280000D02*
X16650000Y-52280000D01*
X16650000Y-52280000D02*
X16650000Y-51530000D01*
X16650000Y-55110000D02*
X16650000Y-54360000D01*
X16650000Y-54360000D02*
X20950000Y-54360000D01*
X20950000Y-54360000D02*
X20950000Y-55110000D01*
X20950000Y-55110000D02*
X21300000Y-55110000D01*
X21300000Y-55110000D02*
X21300000Y-54610000D01*
X21300000Y-54610000D02*
X22300000Y-54360000D01*
X22300000Y-54360000D02*
X22300000Y-57360000D01*
X22300000Y-57360000D02*
X21300000Y-57110000D01*
X21300000Y-57110000D02*
X21300000Y-56610000D01*
X21300000Y-56610000D02*
X20950000Y-56610000D01*
X20950000Y-56610000D02*
X20950000Y-57360000D01*
X20950000Y-57360000D02*
X16650000Y-57360000D01*
X16650000Y-57360000D02*
X16650000Y-56610000D01*
X16650000Y-60190000D02*
X16650000Y-59440000D01*
X16650000Y-59440000D02*
X20950000Y-59440000D01*
X20950000Y-59440000D02*
X20950000Y-60190000D01*
X20950000Y-60190000D02*
X21300000Y-60190000D01*
X21300000Y-60190000D02*
X21300000Y-59690000D01*
X21300000Y-59690000D02*
X22300000Y-59440000D01*
X22300000Y-59440000D02*
X22300000Y-62440000D01*
X22300000Y-62440000D02*
X21300000Y-62190000D01*
X21300000Y-62190000D02*
X21300000Y-61690000D01*
X21300000Y-61690000D02*
X20950000Y-61690000D01*
X20950000Y-61690000D02*
X20950000Y-62440000D01*
X20950000Y-62440000D02*
X16650000Y-62440000D01*
X16650000Y-62440000D02*
X16650000Y-61690000D01*
X16650000Y-65270000D02*
X16650000Y-64520000D01*
X16650000Y-64520000D02*
X20950000Y-64520000D01*
X20950000Y-64520000D02*
X20950000Y-65270000D01*
X20950000Y-65270000D02*
X21300000Y-65270000D01*
X21300000Y-65270000D02*
X21300000Y-64770000D01*
X21300000Y-64770000D02*
X22300000Y-64520000D01*
X22300000Y-64520000D02*
X22300000Y-67520000D01*
X22300000Y-67520000D02*
X21300000Y-67270000D01*
X21300000Y-67270000D02*
X21300000Y-66770000D01*
X21300000Y-66770000D02*
X20950000Y-66770000D01*
X20950000Y-66770000D02*
X20950000Y-67520000D01*
X20950000Y-67520000D02*
X16650000Y-67520000D01*
X16650000Y-67520000D02*
X16650000Y-66770000D01*
X22400000Y-42660000D02*
X23650000Y-42660000D01*
X23650000Y-42660000D02*
X23650000Y-44660000D01*
X43294647Y-106899445D02*
G75*
G03X41795000Y-106899600I-749647J-1700155D01*
G01*
X48374647Y-106899445D02*
G75*
G03X46875000Y-106899600I-749647J-1700155D01*
G01*
X53454647Y-106899445D02*
G75*
G03X51955000Y-106899600I-749647J-1700155D01*
G01*
X39925000Y-100319600D02*
X39925000Y-107729600D01*
X39925000Y-107729600D02*
X55325000Y-107729600D01*
X55325000Y-107729600D02*
X55325000Y-100319600D01*
X55325000Y-100319600D02*
X39925000Y-100319600D01*
X41795000Y-106899600D02*
X41045000Y-106899600D01*
X41045000Y-106899600D02*
X41045000Y-102599600D01*
X41045000Y-102599600D02*
X41795000Y-102599600D01*
X41795000Y-102599600D02*
X41795000Y-102249600D01*
X41795000Y-102249600D02*
X41295000Y-102249600D01*
X41295000Y-102249600D02*
X41045000Y-101249600D01*
X41045000Y-101249600D02*
X44045000Y-101249600D01*
X44045000Y-101249600D02*
X43795000Y-102249600D01*
X43795000Y-102249600D02*
X43295000Y-102249600D01*
X43295000Y-102249600D02*
X43295000Y-102599600D01*
X43295000Y-102599600D02*
X44045000Y-102599600D01*
X44045000Y-102599600D02*
X44045000Y-106899600D01*
X44045000Y-106899600D02*
X43295000Y-106899600D01*
X46875000Y-106899600D02*
X46125000Y-106899600D01*
X46125000Y-106899600D02*
X46125000Y-102599600D01*
X46125000Y-102599600D02*
X46875000Y-102599600D01*
X46875000Y-102599600D02*
X46875000Y-102249600D01*
X46875000Y-102249600D02*
X46375000Y-102249600D01*
X46375000Y-102249600D02*
X46125000Y-101249600D01*
X46125000Y-101249600D02*
X49125000Y-101249600D01*
X49125000Y-101249600D02*
X48875000Y-102249600D01*
X48875000Y-102249600D02*
X48375000Y-102249600D01*
X48375000Y-102249600D02*
X48375000Y-102599600D01*
X48375000Y-102599600D02*
X49125000Y-102599600D01*
X49125000Y-102599600D02*
X49125000Y-106899600D01*
X49125000Y-106899600D02*
X48375000Y-106899600D01*
X51955000Y-106899600D02*
X51205000Y-106899600D01*
X51205000Y-106899600D02*
X51205000Y-102599600D01*
X51205000Y-102599600D02*
X51955000Y-102599600D01*
X51955000Y-102599600D02*
X51955000Y-102249600D01*
X51955000Y-102249600D02*
X51455000Y-102249600D01*
X51455000Y-102249600D02*
X51205000Y-101249600D01*
X51205000Y-101249600D02*
X54205000Y-101249600D01*
X54205000Y-101249600D02*
X53955000Y-102249600D01*
X53955000Y-102249600D02*
X53455000Y-102249600D01*
X53455000Y-102249600D02*
X53455000Y-102599600D01*
X53455000Y-102599600D02*
X54205000Y-102599600D01*
X54205000Y-102599600D02*
X54205000Y-106899600D01*
X54205000Y-106899600D02*
X53455000Y-106899600D01*
X39505000Y-101149600D02*
X39505000Y-99899600D01*
X39505000Y-99899600D02*
X41505000Y-99899600D01*
X88829441Y-105136621D02*
G75*
G02X84842600Y-105120800I-1986841J1665821D01*
G01*
X96329441Y-105136621D02*
G75*
G02X92342600Y-105120800I-1986841J1665821D01*
G01*
X83012600Y-98040800D02*
X83012600Y-106800800D01*
X83012600Y-106800800D02*
X98172600Y-106800800D01*
X98172600Y-106800800D02*
X98172600Y-98040800D01*
X98172600Y-98040800D02*
X83012600Y-98040800D01*
X83012600Y-98820800D02*
X85762600Y-98820800D01*
X98172600Y-98820800D02*
X95422600Y-98820800D01*
X87842600Y-98820800D02*
X93342600Y-98820800D01*
X85842600Y-99820800D02*
X85842600Y-98040800D01*
X85842600Y-98040800D02*
X87842600Y-98040800D01*
X87842600Y-98040800D02*
X87842600Y-99820800D01*
X87842600Y-99820800D02*
X85842600Y-99820800D01*
X93342600Y-99820800D02*
X93342600Y-98040800D01*
X93342600Y-98040800D02*
X95342600Y-98040800D01*
X95342600Y-98040800D02*
X95342600Y-99820800D01*
X95342600Y-99820800D02*
X93342600Y-99820800D01*
X88842600Y-105120800D02*
X92342600Y-105120800D01*
X84842600Y-105120800D02*
X83892600Y-105120800D01*
X83892600Y-105120800D02*
X83892600Y-99820800D01*
X83892600Y-99820800D02*
X97292600Y-99820800D01*
X97292600Y-99820800D02*
X97292600Y-105120800D01*
X97292600Y-105120800D02*
X96342600Y-105120800D01*
X87142600Y-97240800D02*
X86842600Y-97840800D01*
X86842600Y-97840800D02*
X86542600Y-97240800D01*
X86542600Y-97240800D02*
X87142600Y-97240800D01*
X116007821Y-38145159D02*
G75*
G02X115992000Y-42132000I-1665821J-1986841D01*
G01*
X116007821Y-30645159D02*
G75*
G02X115992000Y-34632000I-1665821J-1986841D01*
G01*
X108912000Y-43962000D02*
X117672000Y-43962000D01*
X117672000Y-43962000D02*
X117672000Y-28802000D01*
X117672000Y-28802000D02*
X108912000Y-28802000D01*
X108912000Y-28802000D02*
X108912000Y-43962000D01*
X109692000Y-43962000D02*
X109692000Y-41212000D01*
X109692000Y-28802000D02*
X109692000Y-31552000D01*
X109692000Y-39132000D02*
X109692000Y-33632000D01*
X110692000Y-41132000D02*
X108912000Y-41132000D01*
X108912000Y-41132000D02*
X108912000Y-39132000D01*
X108912000Y-39132000D02*
X110692000Y-39132000D01*
X110692000Y-39132000D02*
X110692000Y-41132000D01*
X110692000Y-33632000D02*
X108912000Y-33632000D01*
X108912000Y-33632000D02*
X108912000Y-31632000D01*
X108912000Y-31632000D02*
X110692000Y-31632000D01*
X110692000Y-31632000D02*
X110692000Y-33632000D01*
X115992000Y-38132000D02*
X115992000Y-34632000D01*
X115992000Y-42132000D02*
X115992000Y-43082000D01*
X115992000Y-43082000D02*
X110692000Y-43082000D01*
X110692000Y-43082000D02*
X110692000Y-29682000D01*
X110692000Y-29682000D02*
X115992000Y-29682000D01*
X115992000Y-29682000D02*
X115992000Y-30632000D01*
X108112000Y-39832000D02*
X108712000Y-40132000D01*
X108712000Y-40132000D02*
X108112000Y-40432000D01*
X108112000Y-40432000D02*
X108112000Y-39832000D01*
X16584179Y-29586841D02*
G75*
G02X16600000Y-25600000I1665821J1986841D01*
G01*
X16584179Y-37086841D02*
G75*
G02X16600000Y-33100000I1665821J1986841D01*
G01*
X23680000Y-23770000D02*
X14920000Y-23770000D01*
X14920000Y-23770000D02*
X14920000Y-38930000D01*
X14920000Y-38930000D02*
X23680000Y-38930000D01*
X23680000Y-38930000D02*
X23680000Y-23770000D01*
X22900000Y-23770000D02*
X22900000Y-26520000D01*
X22900000Y-38930000D02*
X22900000Y-36180000D01*
X22900000Y-28600000D02*
X22900000Y-34100000D01*
X21900000Y-26600000D02*
X23680000Y-26600000D01*
X23680000Y-26600000D02*
X23680000Y-28600000D01*
X23680000Y-28600000D02*
X21900000Y-28600000D01*
X21900000Y-28600000D02*
X21900000Y-26600000D01*
X21900000Y-34100000D02*
X23680000Y-34100000D01*
X23680000Y-34100000D02*
X23680000Y-36100000D01*
X23680000Y-36100000D02*
X21900000Y-36100000D01*
X21900000Y-36100000D02*
X21900000Y-34100000D01*
X16600000Y-29600000D02*
X16600000Y-33100000D01*
X16600000Y-25600000D02*
X16600000Y-24650000D01*
X16600000Y-24650000D02*
X21900000Y-24650000D01*
X21900000Y-24650000D02*
X21900000Y-38050000D01*
X21900000Y-38050000D02*
X16600000Y-38050000D01*
X16600000Y-38050000D02*
X16600000Y-37100000D01*
X24480000Y-27900000D02*
X23880000Y-27600000D01*
X23880000Y-27600000D02*
X24480000Y-27300000D01*
X24480000Y-27300000D02*
X24480000Y-27900000D01*
X46213159Y-16484179D02*
G75*
G02X50200000Y-16500000I1986841J-1665821D01*
G01*
X38713159Y-16484179D02*
G75*
G02X42700000Y-16500000I1986841J-1665821D01*
G01*
X52030000Y-23580000D02*
X52030000Y-14820000D01*
X52030000Y-14820000D02*
X36870000Y-14820000D01*
X36870000Y-14820000D02*
X36870000Y-23580000D01*
X36870000Y-23580000D02*
X52030000Y-23580000D01*
X52030000Y-22800000D02*
X49280000Y-22800000D01*
X36870000Y-22800000D02*
X39620000Y-22800000D01*
X47200000Y-22800000D02*
X41700000Y-22800000D01*
X49200000Y-21800000D02*
X49200000Y-23580000D01*
X49200000Y-23580000D02*
X47200000Y-23580000D01*
X47200000Y-23580000D02*
X47200000Y-21800000D01*
X47200000Y-21800000D02*
X49200000Y-21800000D01*
X41700000Y-21800000D02*
X41700000Y-23580000D01*
X41700000Y-23580000D02*
X39700000Y-23580000D01*
X39700000Y-23580000D02*
X39700000Y-21800000D01*
X39700000Y-21800000D02*
X41700000Y-21800000D01*
X46200000Y-16500000D02*
X42700000Y-16500000D01*
X50200000Y-16500000D02*
X51150000Y-16500000D01*
X51150000Y-16500000D02*
X51150000Y-21800000D01*
X51150000Y-21800000D02*
X37750000Y-21800000D01*
X37750000Y-21800000D02*
X37750000Y-16500000D01*
X37750000Y-16500000D02*
X38700000Y-16500000D01*
X47900000Y-24380000D02*
X48200000Y-23780000D01*
X48200000Y-23780000D02*
X48500000Y-24380000D01*
X48500000Y-24380000D02*
X47900000Y-24380000D01*
X117404821Y-94279159D02*
G75*
G02X117389000Y-98266000I-1665821J-1986841D01*
G01*
X117404821Y-86779159D02*
G75*
G02X117389000Y-90766000I-1665821J-1986841D01*
G01*
X110309000Y-100096000D02*
X119069000Y-100096000D01*
X119069000Y-100096000D02*
X119069000Y-84936000D01*
X119069000Y-84936000D02*
X110309000Y-84936000D01*
X110309000Y-84936000D02*
X110309000Y-100096000D01*
X111089000Y-100096000D02*
X111089000Y-97346000D01*
X111089000Y-84936000D02*
X111089000Y-87686000D01*
X111089000Y-95266000D02*
X111089000Y-89766000D01*
X112089000Y-97266000D02*
X110309000Y-97266000D01*
X110309000Y-97266000D02*
X110309000Y-95266000D01*
X110309000Y-95266000D02*
X112089000Y-95266000D01*
X112089000Y-95266000D02*
X112089000Y-97266000D01*
X112089000Y-89766000D02*
X110309000Y-89766000D01*
X110309000Y-89766000D02*
X110309000Y-87766000D01*
X110309000Y-87766000D02*
X112089000Y-87766000D01*
X112089000Y-87766000D02*
X112089000Y-89766000D01*
X117389000Y-94266000D02*
X117389000Y-90766000D01*
X117389000Y-98266000D02*
X117389000Y-99216000D01*
X117389000Y-99216000D02*
X112089000Y-99216000D01*
X112089000Y-99216000D02*
X112089000Y-85816000D01*
X112089000Y-85816000D02*
X117389000Y-85816000D01*
X117389000Y-85816000D02*
X117389000Y-86766000D01*
X109509000Y-95966000D02*
X110109000Y-96266000D01*
X110109000Y-96266000D02*
X109509000Y-96566000D01*
X109509000Y-96566000D02*
X109509000Y-95966000D01*
X41538400Y-60676600D02*
X39538400Y-60676600D01*
X39538400Y-62716600D02*
X41538400Y-62716600D01*
X34509200Y-45945400D02*
X36509200Y-45945400D01*
X36509200Y-48085400D02*
X34509200Y-48085400D01*
X36585400Y-50650800D02*
X34585400Y-50650800D01*
X34585400Y-48510800D02*
X36585400Y-48510800D01*
X34509200Y-43176800D02*
X36509200Y-43176800D01*
X36509200Y-45316800D02*
X34509200Y-45316800D01*
X36560000Y-42649800D02*
X34560000Y-42649800D01*
X34560000Y-40509800D02*
X36560000Y-40509800D01*
X58315200Y-29397200D02*
X58315200Y-27397200D01*
X60455200Y-27397200D02*
X60455200Y-29397200D01*
D14*
X72175000Y-40738200D02*
X72175000Y-40513200D01*
X67525000Y-40738200D02*
X67525000Y-40413200D01*
X67525000Y-30788200D02*
X67525000Y-31113200D01*
X72175000Y-30788200D02*
X72175000Y-31113200D01*
X72175000Y-40738200D02*
X67525000Y-40738200D01*
X72175000Y-30788200D02*
X67525000Y-30788200D01*
X72175000Y-40513200D02*
X73250000Y-40513200D01*
X103527143Y-64650857D02*
X103574762Y-64698476D01*
X103622381Y-64841333D01*
X103622381Y-64936571D01*
X103574762Y-65079429D01*
X103479524Y-65174667D01*
X103384286Y-65222286D01*
X103193810Y-65269905D01*
X103050952Y-65269905D01*
X102860476Y-65222286D01*
X102765238Y-65174667D01*
X102670000Y-65079429D01*
X102622381Y-64936571D01*
X102622381Y-64841333D01*
X102670000Y-64698476D01*
X102717619Y-64650857D01*
X103622381Y-63698476D02*
X103622381Y-64269905D01*
X103622381Y-63984191D02*
X102622381Y-63984191D01*
X102765238Y-64079429D01*
X102860476Y-64174667D01*
X102908095Y-64269905D01*
X102622381Y-63079429D02*
X102622381Y-62984190D01*
X102670000Y-62888952D01*
X102717619Y-62841333D01*
X102812857Y-62793714D01*
X103003333Y-62746095D01*
X103241429Y-62746095D01*
X103431905Y-62793714D01*
X103527143Y-62841333D01*
X103574762Y-62888952D01*
X103622381Y-62984190D01*
X103622381Y-63079429D01*
X103574762Y-63174667D01*
X103527143Y-63222286D01*
X103431905Y-63269905D01*
X103241429Y-63317524D01*
X103003333Y-63317524D01*
X102812857Y-63269905D01*
X102717619Y-63222286D01*
X102670000Y-63174667D01*
X102622381Y-63079429D01*
X159020381Y-34202666D02*
X158544190Y-34536000D01*
X159020381Y-34774095D02*
X158020381Y-34774095D01*
X158020381Y-34393142D01*
X158068000Y-34297904D01*
X158115619Y-34250285D01*
X158210857Y-34202666D01*
X158353714Y-34202666D01*
X158448952Y-34250285D01*
X158496571Y-34297904D01*
X158544190Y-34393142D01*
X158544190Y-34774095D01*
X158020381Y-33869333D02*
X158020381Y-33250285D01*
X158401333Y-33583619D01*
X158401333Y-33440761D01*
X158448952Y-33345523D01*
X158496571Y-33297904D01*
X158591810Y-33250285D01*
X158829905Y-33250285D01*
X158925143Y-33297904D01*
X158972762Y-33345523D01*
X159020381Y-33440761D01*
X159020381Y-33726476D01*
X158972762Y-33821714D01*
X158925143Y-33869333D01*
X60934695Y-66330581D02*
X60934695Y-67140105D01*
X60982314Y-67235343D01*
X61029933Y-67282962D01*
X61125171Y-67330581D01*
X61315648Y-67330581D01*
X61410886Y-67282962D01*
X61458505Y-67235343D01*
X61506124Y-67140105D01*
X61506124Y-66330581D01*
X61887076Y-66330581D02*
X62506124Y-66330581D01*
X62172790Y-66711533D01*
X62315648Y-66711533D01*
X62410886Y-66759152D01*
X62458505Y-66806771D01*
X62506124Y-66902010D01*
X62506124Y-67140105D01*
X62458505Y-67235343D01*
X62410886Y-67282962D01*
X62315648Y-67330581D01*
X62029933Y-67330581D01*
X61934695Y-67282962D01*
X61887076Y-67235343D01*
X35088534Y-59310543D02*
X35040915Y-59358162D01*
X34898058Y-59405781D01*
X34802820Y-59405781D01*
X34659962Y-59358162D01*
X34564724Y-59262924D01*
X34517105Y-59167686D01*
X34469486Y-58977210D01*
X34469486Y-58834352D01*
X34517105Y-58643876D01*
X34564724Y-58548638D01*
X34659962Y-58453400D01*
X34802820Y-58405781D01*
X34898058Y-58405781D01*
X35040915Y-58453400D01*
X35088534Y-58501019D01*
X36040915Y-59405781D02*
X35469486Y-59405781D01*
X35755200Y-59405781D02*
X35755200Y-58405781D01*
X35659962Y-58548638D01*
X35564724Y-58643876D01*
X35469486Y-58691495D01*
X40771143Y-31154666D02*
X40818762Y-31202285D01*
X40866381Y-31345142D01*
X40866381Y-31440380D01*
X40818762Y-31583238D01*
X40723524Y-31678476D01*
X40628286Y-31726095D01*
X40437810Y-31773714D01*
X40294952Y-31773714D01*
X40104476Y-31726095D01*
X40009238Y-31678476D01*
X39914000Y-31583238D01*
X39866381Y-31440380D01*
X39866381Y-31345142D01*
X39914000Y-31202285D01*
X39961619Y-31154666D01*
X39961619Y-30773714D02*
X39914000Y-30726095D01*
X39866381Y-30630857D01*
X39866381Y-30392761D01*
X39914000Y-30297523D01*
X39961619Y-30249904D01*
X40056857Y-30202285D01*
X40152095Y-30202285D01*
X40294952Y-30249904D01*
X40866381Y-30821333D01*
X40866381Y-30202285D01*
X147705143Y-33948666D02*
X147752762Y-33996285D01*
X147800381Y-34139142D01*
X147800381Y-34234380D01*
X147752762Y-34377238D01*
X147657524Y-34472476D01*
X147562286Y-34520095D01*
X147371810Y-34567714D01*
X147228952Y-34567714D01*
X147038476Y-34520095D01*
X146943238Y-34472476D01*
X146848000Y-34377238D01*
X146800381Y-34234380D01*
X146800381Y-34139142D01*
X146848000Y-33996285D01*
X146895619Y-33948666D01*
X146800381Y-33615333D02*
X146800381Y-32996285D01*
X147181333Y-33329619D01*
X147181333Y-33186761D01*
X147228952Y-33091523D01*
X147276571Y-33043904D01*
X147371810Y-32996285D01*
X147609905Y-32996285D01*
X147705143Y-33043904D01*
X147752762Y-33091523D01*
X147800381Y-33186761D01*
X147800381Y-33472476D01*
X147752762Y-33567714D01*
X147705143Y-33615333D01*
X140615943Y-44261066D02*
X140663562Y-44308685D01*
X140711181Y-44451542D01*
X140711181Y-44546780D01*
X140663562Y-44689638D01*
X140568324Y-44784876D01*
X140473086Y-44832495D01*
X140282610Y-44880114D01*
X140139752Y-44880114D01*
X139949276Y-44832495D01*
X139854038Y-44784876D01*
X139758800Y-44689638D01*
X139711181Y-44546780D01*
X139711181Y-44451542D01*
X139758800Y-44308685D01*
X139806419Y-44261066D01*
X140044514Y-43403923D02*
X140711181Y-43403923D01*
X139663562Y-43642019D02*
X140377848Y-43880114D01*
X140377848Y-43261066D01*
X147395143Y-44108666D02*
X147442762Y-44156285D01*
X147490381Y-44299142D01*
X147490381Y-44394380D01*
X147442762Y-44537238D01*
X147347524Y-44632476D01*
X147252286Y-44680095D01*
X147061810Y-44727714D01*
X146918952Y-44727714D01*
X146728476Y-44680095D01*
X146633238Y-44632476D01*
X146538000Y-44537238D01*
X146490381Y-44394380D01*
X146490381Y-44299142D01*
X146538000Y-44156285D01*
X146585619Y-44108666D01*
X146490381Y-43203904D02*
X146490381Y-43680095D01*
X146966571Y-43727714D01*
X146918952Y-43680095D01*
X146871333Y-43584857D01*
X146871333Y-43346761D01*
X146918952Y-43251523D01*
X146966571Y-43203904D01*
X147061810Y-43156285D01*
X147299905Y-43156285D01*
X147395143Y-43203904D01*
X147442762Y-43251523D01*
X147490381Y-43346761D01*
X147490381Y-43584857D01*
X147442762Y-43680095D01*
X147395143Y-43727714D01*
X60783743Y-18632466D02*
X60831362Y-18680085D01*
X60878981Y-18822942D01*
X60878981Y-18918180D01*
X60831362Y-19061038D01*
X60736124Y-19156276D01*
X60640886Y-19203895D01*
X60450410Y-19251514D01*
X60307552Y-19251514D01*
X60117076Y-19203895D01*
X60021838Y-19156276D01*
X59926600Y-19061038D01*
X59878981Y-18918180D01*
X59878981Y-18822942D01*
X59926600Y-18680085D01*
X59974219Y-18632466D01*
X59878981Y-17775323D02*
X59878981Y-17965800D01*
X59926600Y-18061038D01*
X59974219Y-18108657D01*
X60117076Y-18203895D01*
X60307552Y-18251514D01*
X60688505Y-18251514D01*
X60783743Y-18203895D01*
X60831362Y-18156276D01*
X60878981Y-18061038D01*
X60878981Y-17870561D01*
X60831362Y-17775323D01*
X60783743Y-17727704D01*
X60688505Y-17680085D01*
X60450410Y-17680085D01*
X60355171Y-17727704D01*
X60307552Y-17775323D01*
X60259933Y-17870561D01*
X60259933Y-18061038D01*
X60307552Y-18156276D01*
X60355171Y-18203895D01*
X60450410Y-18251514D01*
X151515143Y-33948666D02*
X151562762Y-33996285D01*
X151610381Y-34139142D01*
X151610381Y-34234380D01*
X151562762Y-34377238D01*
X151467524Y-34472476D01*
X151372286Y-34520095D01*
X151181810Y-34567714D01*
X151038952Y-34567714D01*
X150848476Y-34520095D01*
X150753238Y-34472476D01*
X150658000Y-34377238D01*
X150610381Y-34234380D01*
X150610381Y-34139142D01*
X150658000Y-33996285D01*
X150705619Y-33948666D01*
X150610381Y-33615333D02*
X150610381Y-32948666D01*
X151610381Y-33377238D01*
X53163743Y-18886466D02*
X53211362Y-18934085D01*
X53258981Y-19076942D01*
X53258981Y-19172180D01*
X53211362Y-19315038D01*
X53116124Y-19410276D01*
X53020886Y-19457895D01*
X52830410Y-19505514D01*
X52687552Y-19505514D01*
X52497076Y-19457895D01*
X52401838Y-19410276D01*
X52306600Y-19315038D01*
X52258981Y-19172180D01*
X52258981Y-19076942D01*
X52306600Y-18934085D01*
X52354219Y-18886466D01*
X52687552Y-18315038D02*
X52639933Y-18410276D01*
X52592314Y-18457895D01*
X52497076Y-18505514D01*
X52449457Y-18505514D01*
X52354219Y-18457895D01*
X52306600Y-18410276D01*
X52258981Y-18315038D01*
X52258981Y-18124561D01*
X52306600Y-18029323D01*
X52354219Y-17981704D01*
X52449457Y-17934085D01*
X52497076Y-17934085D01*
X52592314Y-17981704D01*
X52639933Y-18029323D01*
X52687552Y-18124561D01*
X52687552Y-18315038D01*
X52735171Y-18410276D01*
X52782790Y-18457895D01*
X52878029Y-18505514D01*
X53068505Y-18505514D01*
X53163743Y-18457895D01*
X53211362Y-18410276D01*
X53258981Y-18315038D01*
X53258981Y-18124561D01*
X53211362Y-18029323D01*
X53163743Y-17981704D01*
X53068505Y-17934085D01*
X52878029Y-17934085D01*
X52782790Y-17981704D01*
X52735171Y-18029323D01*
X52687552Y-18124561D01*
X89755743Y-61520343D02*
X89708124Y-61567962D01*
X89565267Y-61615581D01*
X89470029Y-61615581D01*
X89327171Y-61567962D01*
X89231933Y-61472724D01*
X89184314Y-61377486D01*
X89136695Y-61187010D01*
X89136695Y-61044152D01*
X89184314Y-60853676D01*
X89231933Y-60758438D01*
X89327171Y-60663200D01*
X89470029Y-60615581D01*
X89565267Y-60615581D01*
X89708124Y-60663200D01*
X89755743Y-60710819D01*
X90708124Y-61615581D02*
X90136695Y-61615581D01*
X90422409Y-61615581D02*
X90422409Y-60615581D01*
X90327171Y-60758438D01*
X90231933Y-60853676D01*
X90136695Y-60901295D01*
X91660505Y-61615581D02*
X91089076Y-61615581D01*
X91374790Y-61615581D02*
X91374790Y-60615581D01*
X91279552Y-60758438D01*
X91184314Y-60853676D01*
X91089076Y-60901295D01*
X101675143Y-52712857D02*
X101722762Y-52760476D01*
X101770381Y-52903333D01*
X101770381Y-52998571D01*
X101722762Y-53141429D01*
X101627524Y-53236667D01*
X101532286Y-53284286D01*
X101341810Y-53331905D01*
X101198952Y-53331905D01*
X101008476Y-53284286D01*
X100913238Y-53236667D01*
X100818000Y-53141429D01*
X100770381Y-52998571D01*
X100770381Y-52903333D01*
X100818000Y-52760476D01*
X100865619Y-52712857D01*
X101770381Y-51760476D02*
X101770381Y-52331905D01*
X101770381Y-52046191D02*
X100770381Y-52046191D01*
X100913238Y-52141429D01*
X101008476Y-52236667D01*
X101056095Y-52331905D01*
X100865619Y-51379524D02*
X100818000Y-51331905D01*
X100770381Y-51236667D01*
X100770381Y-50998571D01*
X100818000Y-50903333D01*
X100865619Y-50855714D01*
X100960857Y-50808095D01*
X101056095Y-50808095D01*
X101198952Y-50855714D01*
X101770381Y-51427143D01*
X101770381Y-50808095D01*
X98881143Y-57665857D02*
X98928762Y-57713476D01*
X98976381Y-57856333D01*
X98976381Y-57951571D01*
X98928762Y-58094429D01*
X98833524Y-58189667D01*
X98738286Y-58237286D01*
X98547810Y-58284905D01*
X98404952Y-58284905D01*
X98214476Y-58237286D01*
X98119238Y-58189667D01*
X98024000Y-58094429D01*
X97976381Y-57951571D01*
X97976381Y-57856333D01*
X98024000Y-57713476D01*
X98071619Y-57665857D01*
X98976381Y-56713476D02*
X98976381Y-57284905D01*
X98976381Y-56999191D02*
X97976381Y-56999191D01*
X98119238Y-57094429D01*
X98214476Y-57189667D01*
X98262095Y-57284905D01*
X97976381Y-56380143D02*
X97976381Y-55761095D01*
X98357333Y-56094429D01*
X98357333Y-55951571D01*
X98404952Y-55856333D01*
X98452571Y-55808714D01*
X98547810Y-55761095D01*
X98785905Y-55761095D01*
X98881143Y-55808714D01*
X98928762Y-55856333D01*
X98976381Y-55951571D01*
X98976381Y-56237286D01*
X98928762Y-56332524D01*
X98881143Y-56380143D01*
X88975143Y-57665857D02*
X89022762Y-57713476D01*
X89070381Y-57856333D01*
X89070381Y-57951571D01*
X89022762Y-58094429D01*
X88927524Y-58189667D01*
X88832286Y-58237286D01*
X88641810Y-58284905D01*
X88498952Y-58284905D01*
X88308476Y-58237286D01*
X88213238Y-58189667D01*
X88118000Y-58094429D01*
X88070381Y-57951571D01*
X88070381Y-57856333D01*
X88118000Y-57713476D01*
X88165619Y-57665857D01*
X89070381Y-56713476D02*
X89070381Y-57284905D01*
X89070381Y-56999191D02*
X88070381Y-56999191D01*
X88213238Y-57094429D01*
X88308476Y-57189667D01*
X88356095Y-57284905D01*
X88403714Y-55856333D02*
X89070381Y-55856333D01*
X88022762Y-56094429D02*
X88737048Y-56332524D01*
X88737048Y-55713476D01*
X92714143Y-57665857D02*
X92761762Y-57713476D01*
X92809381Y-57856333D01*
X92809381Y-57951571D01*
X92761762Y-58094429D01*
X92666524Y-58189667D01*
X92571286Y-58237286D01*
X92380810Y-58284905D01*
X92237952Y-58284905D01*
X92047476Y-58237286D01*
X91952238Y-58189667D01*
X91857000Y-58094429D01*
X91809381Y-57951571D01*
X91809381Y-57856333D01*
X91857000Y-57713476D01*
X91904619Y-57665857D01*
X92809381Y-56713476D02*
X92809381Y-57284905D01*
X92809381Y-56999191D02*
X91809381Y-56999191D01*
X91952238Y-57094429D01*
X92047476Y-57189667D01*
X92095095Y-57284905D01*
X91809381Y-55808714D02*
X91809381Y-56284905D01*
X92285571Y-56332524D01*
X92237952Y-56284905D01*
X92190333Y-56189667D01*
X92190333Y-55951571D01*
X92237952Y-55856333D01*
X92285571Y-55808714D01*
X92380810Y-55761095D01*
X92618905Y-55761095D01*
X92714143Y-55808714D01*
X92761762Y-55856333D01*
X92809381Y-55951571D01*
X92809381Y-56189667D01*
X92761762Y-56284905D01*
X92714143Y-56332524D01*
X150024143Y-69368857D02*
X150071762Y-69416476D01*
X150119381Y-69559333D01*
X150119381Y-69654571D01*
X150071762Y-69797429D01*
X149976524Y-69892667D01*
X149881286Y-69940286D01*
X149690810Y-69987905D01*
X149547952Y-69987905D01*
X149357476Y-69940286D01*
X149262238Y-69892667D01*
X149167000Y-69797429D01*
X149119381Y-69654571D01*
X149119381Y-69559333D01*
X149167000Y-69416476D01*
X149214619Y-69368857D01*
X150119381Y-68416476D02*
X150119381Y-68987905D01*
X150119381Y-68702191D02*
X149119381Y-68702191D01*
X149262238Y-68797429D01*
X149357476Y-68892667D01*
X149405095Y-68987905D01*
X149119381Y-67559333D02*
X149119381Y-67749810D01*
X149167000Y-67845048D01*
X149214619Y-67892667D01*
X149357476Y-67987905D01*
X149547952Y-68035524D01*
X149928905Y-68035524D01*
X150024143Y-67987905D01*
X150071762Y-67940286D01*
X150119381Y-67845048D01*
X150119381Y-67654571D01*
X150071762Y-67559333D01*
X150024143Y-67511714D01*
X149928905Y-67464095D01*
X149690810Y-67464095D01*
X149595571Y-67511714D01*
X149547952Y-67559333D01*
X149500333Y-67654571D01*
X149500333Y-67845048D01*
X149547952Y-67940286D01*
X149595571Y-67987905D01*
X149690810Y-68035524D01*
X146666143Y-82957857D02*
X146713762Y-83005476D01*
X146761381Y-83148333D01*
X146761381Y-83243571D01*
X146713762Y-83386429D01*
X146618524Y-83481667D01*
X146523286Y-83529286D01*
X146332810Y-83576905D01*
X146189952Y-83576905D01*
X145999476Y-83529286D01*
X145904238Y-83481667D01*
X145809000Y-83386429D01*
X145761381Y-83243571D01*
X145761381Y-83148333D01*
X145809000Y-83005476D01*
X145856619Y-82957857D01*
X146761381Y-82005476D02*
X146761381Y-82576905D01*
X146761381Y-82291191D02*
X145761381Y-82291191D01*
X145904238Y-82386429D01*
X145999476Y-82481667D01*
X146047095Y-82576905D01*
X145761381Y-81672143D02*
X145761381Y-81005476D01*
X146761381Y-81434048D01*
X149968143Y-82957857D02*
X150015762Y-83005476D01*
X150063381Y-83148333D01*
X150063381Y-83243571D01*
X150015762Y-83386429D01*
X149920524Y-83481667D01*
X149825286Y-83529286D01*
X149634810Y-83576905D01*
X149491952Y-83576905D01*
X149301476Y-83529286D01*
X149206238Y-83481667D01*
X149111000Y-83386429D01*
X149063381Y-83243571D01*
X149063381Y-83148333D01*
X149111000Y-83005476D01*
X149158619Y-82957857D01*
X150063381Y-82005476D02*
X150063381Y-82576905D01*
X150063381Y-82291191D02*
X149063381Y-82291191D01*
X149206238Y-82386429D01*
X149301476Y-82481667D01*
X149349095Y-82576905D01*
X149491952Y-81434048D02*
X149444333Y-81529286D01*
X149396714Y-81576905D01*
X149301476Y-81624524D01*
X149253857Y-81624524D01*
X149158619Y-81576905D01*
X149111000Y-81529286D01*
X149063381Y-81434048D01*
X149063381Y-81243571D01*
X149111000Y-81148333D01*
X149158619Y-81100714D01*
X149253857Y-81053095D01*
X149301476Y-81053095D01*
X149396714Y-81100714D01*
X149444333Y-81148333D01*
X149491952Y-81243571D01*
X149491952Y-81434048D01*
X149539571Y-81529286D01*
X149587190Y-81576905D01*
X149682429Y-81624524D01*
X149872905Y-81624524D01*
X149968143Y-81576905D01*
X150015762Y-81529286D01*
X150063381Y-81434048D01*
X150063381Y-81243571D01*
X150015762Y-81148333D01*
X149968143Y-81100714D01*
X149872905Y-81053095D01*
X149682429Y-81053095D01*
X149587190Y-81100714D01*
X149539571Y-81148333D01*
X149491952Y-81243571D01*
X153801143Y-69349857D02*
X153848762Y-69397476D01*
X153896381Y-69540333D01*
X153896381Y-69635571D01*
X153848762Y-69778429D01*
X153753524Y-69873667D01*
X153658286Y-69921286D01*
X153467810Y-69968905D01*
X153324952Y-69968905D01*
X153134476Y-69921286D01*
X153039238Y-69873667D01*
X152944000Y-69778429D01*
X152896381Y-69635571D01*
X152896381Y-69540333D01*
X152944000Y-69397476D01*
X152991619Y-69349857D01*
X153896381Y-68397476D02*
X153896381Y-68968905D01*
X153896381Y-68683191D02*
X152896381Y-68683191D01*
X153039238Y-68778429D01*
X153134476Y-68873667D01*
X153182095Y-68968905D01*
X153896381Y-67921286D02*
X153896381Y-67730810D01*
X153848762Y-67635571D01*
X153801143Y-67587952D01*
X153658286Y-67492714D01*
X153467810Y-67445095D01*
X153086857Y-67445095D01*
X152991619Y-67492714D01*
X152944000Y-67540333D01*
X152896381Y-67635571D01*
X152896381Y-67826048D01*
X152944000Y-67921286D01*
X152991619Y-67968905D01*
X153086857Y-68016524D01*
X153324952Y-68016524D01*
X153420190Y-67968905D01*
X153467810Y-67921286D01*
X153515429Y-67826048D01*
X153515429Y-67635571D01*
X153467810Y-67540333D01*
X153420190Y-67492714D01*
X153324952Y-67445095D01*
X145746743Y-69273657D02*
X145794362Y-69321276D01*
X145841981Y-69464133D01*
X145841981Y-69559371D01*
X145794362Y-69702229D01*
X145699124Y-69797467D01*
X145603886Y-69845086D01*
X145413410Y-69892705D01*
X145270552Y-69892705D01*
X145080076Y-69845086D01*
X144984838Y-69797467D01*
X144889600Y-69702229D01*
X144841981Y-69559371D01*
X144841981Y-69464133D01*
X144889600Y-69321276D01*
X144937219Y-69273657D01*
X144937219Y-68892705D02*
X144889600Y-68845086D01*
X144841981Y-68749848D01*
X144841981Y-68511752D01*
X144889600Y-68416514D01*
X144937219Y-68368895D01*
X145032457Y-68321276D01*
X145127695Y-68321276D01*
X145270552Y-68368895D01*
X145841981Y-68940324D01*
X145841981Y-68321276D01*
X144841981Y-67702229D02*
X144841981Y-67606990D01*
X144889600Y-67511752D01*
X144937219Y-67464133D01*
X145032457Y-67416514D01*
X145222933Y-67368895D01*
X145461029Y-67368895D01*
X145651505Y-67416514D01*
X145746743Y-67464133D01*
X145794362Y-67511752D01*
X145841981Y-67606990D01*
X145841981Y-67702229D01*
X145794362Y-67797467D01*
X145746743Y-67845086D01*
X145651505Y-67892705D01*
X145461029Y-67940324D01*
X145222933Y-67940324D01*
X145032457Y-67892705D01*
X144937219Y-67845086D01*
X144889600Y-67797467D01*
X144841981Y-67702229D01*
X63907943Y-82837257D02*
X63955562Y-82884876D01*
X64003181Y-83027733D01*
X64003181Y-83122971D01*
X63955562Y-83265829D01*
X63860324Y-83361067D01*
X63765086Y-83408686D01*
X63574610Y-83456305D01*
X63431752Y-83456305D01*
X63241276Y-83408686D01*
X63146038Y-83361067D01*
X63050800Y-83265829D01*
X63003181Y-83122971D01*
X63003181Y-83027733D01*
X63050800Y-82884876D01*
X63098419Y-82837257D01*
X63098419Y-82456305D02*
X63050800Y-82408686D01*
X63003181Y-82313448D01*
X63003181Y-82075352D01*
X63050800Y-81980114D01*
X63098419Y-81932495D01*
X63193657Y-81884876D01*
X63288895Y-81884876D01*
X63431752Y-81932495D01*
X64003181Y-82503924D01*
X64003181Y-81884876D01*
X64003181Y-80932495D02*
X64003181Y-81503924D01*
X64003181Y-81218210D02*
X63003181Y-81218210D01*
X63146038Y-81313448D01*
X63241276Y-81408686D01*
X63288895Y-81503924D01*
X69308743Y-82500743D02*
X69261124Y-82548362D01*
X69118267Y-82595981D01*
X69023029Y-82595981D01*
X68880171Y-82548362D01*
X68784933Y-82453124D01*
X68737314Y-82357886D01*
X68689695Y-82167410D01*
X68689695Y-82024552D01*
X68737314Y-81834076D01*
X68784933Y-81738838D01*
X68880171Y-81643600D01*
X69023029Y-81595981D01*
X69118267Y-81595981D01*
X69261124Y-81643600D01*
X69308743Y-81691219D01*
X69689695Y-81691219D02*
X69737314Y-81643600D01*
X69832552Y-81595981D01*
X70070648Y-81595981D01*
X70165886Y-81643600D01*
X70213505Y-81691219D01*
X70261124Y-81786457D01*
X70261124Y-81881695D01*
X70213505Y-82024552D01*
X69642076Y-82595981D01*
X70261124Y-82595981D01*
X70642076Y-81691219D02*
X70689695Y-81643600D01*
X70784933Y-81595981D01*
X71023029Y-81595981D01*
X71118267Y-81643600D01*
X71165886Y-81691219D01*
X71213505Y-81786457D01*
X71213505Y-81881695D01*
X71165886Y-82024552D01*
X70594457Y-82595981D01*
X71213505Y-82595981D01*
X54729143Y-97159143D02*
X54681524Y-97206762D01*
X54538667Y-97254381D01*
X54443429Y-97254381D01*
X54300571Y-97206762D01*
X54205333Y-97111524D01*
X54157714Y-97016286D01*
X54110095Y-96825810D01*
X54110095Y-96682952D01*
X54157714Y-96492476D01*
X54205333Y-96397238D01*
X54300571Y-96302000D01*
X54443429Y-96254381D01*
X54538667Y-96254381D01*
X54681524Y-96302000D01*
X54729143Y-96349619D01*
X55110095Y-96349619D02*
X55157714Y-96302000D01*
X55252952Y-96254381D01*
X55491048Y-96254381D01*
X55586286Y-96302000D01*
X55633905Y-96349619D01*
X55681524Y-96444857D01*
X55681524Y-96540095D01*
X55633905Y-96682952D01*
X55062476Y-97254381D01*
X55681524Y-97254381D01*
X56014857Y-96254381D02*
X56633905Y-96254381D01*
X56300571Y-96635333D01*
X56443429Y-96635333D01*
X56538667Y-96682952D01*
X56586286Y-96730571D01*
X56633905Y-96825810D01*
X56633905Y-97063905D01*
X56586286Y-97159143D01*
X56538667Y-97206762D01*
X56443429Y-97254381D01*
X56157714Y-97254381D01*
X56062476Y-97206762D01*
X56014857Y-97159143D01*
X92023143Y-93098857D02*
X92070762Y-93146476D01*
X92118381Y-93289333D01*
X92118381Y-93384571D01*
X92070762Y-93527429D01*
X91975524Y-93622667D01*
X91880286Y-93670286D01*
X91689810Y-93717905D01*
X91546952Y-93717905D01*
X91356476Y-93670286D01*
X91261238Y-93622667D01*
X91166000Y-93527429D01*
X91118381Y-93384571D01*
X91118381Y-93289333D01*
X91166000Y-93146476D01*
X91213619Y-93098857D01*
X91213619Y-92717905D02*
X91166000Y-92670286D01*
X91118381Y-92575048D01*
X91118381Y-92336952D01*
X91166000Y-92241714D01*
X91213619Y-92194095D01*
X91308857Y-92146476D01*
X91404095Y-92146476D01*
X91546952Y-92194095D01*
X92118381Y-92765524D01*
X92118381Y-92146476D01*
X91451714Y-91289333D02*
X92118381Y-91289333D01*
X91070762Y-91527429D02*
X91785048Y-91765524D01*
X91785048Y-91146476D01*
X89501743Y-66447943D02*
X89454124Y-66495562D01*
X89311267Y-66543181D01*
X89216029Y-66543181D01*
X89073171Y-66495562D01*
X88977933Y-66400324D01*
X88930314Y-66305086D01*
X88882695Y-66114610D01*
X88882695Y-65971752D01*
X88930314Y-65781276D01*
X88977933Y-65686038D01*
X89073171Y-65590800D01*
X89216029Y-65543181D01*
X89311267Y-65543181D01*
X89454124Y-65590800D01*
X89501743Y-65638419D01*
X89882695Y-65638419D02*
X89930314Y-65590800D01*
X90025552Y-65543181D01*
X90263648Y-65543181D01*
X90358886Y-65590800D01*
X90406505Y-65638419D01*
X90454124Y-65733657D01*
X90454124Y-65828895D01*
X90406505Y-65971752D01*
X89835076Y-66543181D01*
X90454124Y-66543181D01*
X91358886Y-65543181D02*
X90882695Y-65543181D01*
X90835076Y-66019371D01*
X90882695Y-65971752D01*
X90977933Y-65924133D01*
X91216029Y-65924133D01*
X91311267Y-65971752D01*
X91358886Y-66019371D01*
X91406505Y-66114610D01*
X91406505Y-66352705D01*
X91358886Y-66447943D01*
X91311267Y-66495562D01*
X91216029Y-66543181D01*
X90977933Y-66543181D01*
X90882695Y-66495562D01*
X90835076Y-66447943D01*
X39235143Y-96341143D02*
X39187524Y-96388762D01*
X39044667Y-96436381D01*
X38949429Y-96436381D01*
X38806571Y-96388762D01*
X38711333Y-96293524D01*
X38663714Y-96198286D01*
X38616095Y-96007810D01*
X38616095Y-95864952D01*
X38663714Y-95674476D01*
X38711333Y-95579238D01*
X38806571Y-95484000D01*
X38949429Y-95436381D01*
X39044667Y-95436381D01*
X39187524Y-95484000D01*
X39235143Y-95531619D01*
X39616095Y-95531619D02*
X39663714Y-95484000D01*
X39758952Y-95436381D01*
X39997048Y-95436381D01*
X40092286Y-95484000D01*
X40139905Y-95531619D01*
X40187524Y-95626857D01*
X40187524Y-95722095D01*
X40139905Y-95864952D01*
X39568476Y-96436381D01*
X40187524Y-96436381D01*
X41044667Y-95436381D02*
X40854190Y-95436381D01*
X40758952Y-95484000D01*
X40711333Y-95531619D01*
X40616095Y-95674476D01*
X40568476Y-95864952D01*
X40568476Y-96245905D01*
X40616095Y-96341143D01*
X40663714Y-96388762D01*
X40758952Y-96436381D01*
X40949429Y-96436381D01*
X41044667Y-96388762D01*
X41092286Y-96341143D01*
X41139905Y-96245905D01*
X41139905Y-96007810D01*
X41092286Y-95912571D01*
X41044667Y-95864952D01*
X40949429Y-95817333D01*
X40758952Y-95817333D01*
X40663714Y-95864952D01*
X40616095Y-95912571D01*
X40568476Y-96007810D01*
X99008143Y-75699857D02*
X99055762Y-75747476D01*
X99103381Y-75890333D01*
X99103381Y-75985571D01*
X99055762Y-76128429D01*
X98960524Y-76223667D01*
X98865286Y-76271286D01*
X98674810Y-76318905D01*
X98531952Y-76318905D01*
X98341476Y-76271286D01*
X98246238Y-76223667D01*
X98151000Y-76128429D01*
X98103381Y-75985571D01*
X98103381Y-75890333D01*
X98151000Y-75747476D01*
X98198619Y-75699857D01*
X98198619Y-75318905D02*
X98151000Y-75271286D01*
X98103381Y-75176048D01*
X98103381Y-74937952D01*
X98151000Y-74842714D01*
X98198619Y-74795095D01*
X98293857Y-74747476D01*
X98389095Y-74747476D01*
X98531952Y-74795095D01*
X99103381Y-75366524D01*
X99103381Y-74747476D01*
X98103381Y-74414143D02*
X98103381Y-73747476D01*
X99103381Y-74176048D01*
X54729143Y-93349143D02*
X54681524Y-93396762D01*
X54538667Y-93444381D01*
X54443429Y-93444381D01*
X54300571Y-93396762D01*
X54205333Y-93301524D01*
X54157714Y-93206286D01*
X54110095Y-93015810D01*
X54110095Y-92872952D01*
X54157714Y-92682476D01*
X54205333Y-92587238D01*
X54300571Y-92492000D01*
X54443429Y-92444381D01*
X54538667Y-92444381D01*
X54681524Y-92492000D01*
X54729143Y-92539619D01*
X55110095Y-92539619D02*
X55157714Y-92492000D01*
X55252952Y-92444381D01*
X55491048Y-92444381D01*
X55586286Y-92492000D01*
X55633905Y-92539619D01*
X55681524Y-92634857D01*
X55681524Y-92730095D01*
X55633905Y-92872952D01*
X55062476Y-93444381D01*
X55681524Y-93444381D01*
X56252952Y-92872952D02*
X56157714Y-92825333D01*
X56110095Y-92777714D01*
X56062476Y-92682476D01*
X56062476Y-92634857D01*
X56110095Y-92539619D01*
X56157714Y-92492000D01*
X56252952Y-92444381D01*
X56443429Y-92444381D01*
X56538667Y-92492000D01*
X56586286Y-92539619D01*
X56633905Y-92634857D01*
X56633905Y-92682476D01*
X56586286Y-92777714D01*
X56538667Y-92825333D01*
X56443429Y-92872952D01*
X56252952Y-92872952D01*
X56157714Y-92920571D01*
X56110095Y-92968190D01*
X56062476Y-93063429D01*
X56062476Y-93253905D01*
X56110095Y-93349143D01*
X56157714Y-93396762D01*
X56252952Y-93444381D01*
X56443429Y-93444381D01*
X56538667Y-93396762D01*
X56586286Y-93349143D01*
X56633905Y-93253905D01*
X56633905Y-93063429D01*
X56586286Y-92968190D01*
X56538667Y-92920571D01*
X56443429Y-92872952D01*
X88467143Y-93098857D02*
X88514762Y-93146476D01*
X88562381Y-93289333D01*
X88562381Y-93384571D01*
X88514762Y-93527429D01*
X88419524Y-93622667D01*
X88324286Y-93670286D01*
X88133810Y-93717905D01*
X87990952Y-93717905D01*
X87800476Y-93670286D01*
X87705238Y-93622667D01*
X87610000Y-93527429D01*
X87562381Y-93384571D01*
X87562381Y-93289333D01*
X87610000Y-93146476D01*
X87657619Y-93098857D01*
X87657619Y-92717905D02*
X87610000Y-92670286D01*
X87562381Y-92575048D01*
X87562381Y-92336952D01*
X87610000Y-92241714D01*
X87657619Y-92194095D01*
X87752857Y-92146476D01*
X87848095Y-92146476D01*
X87990952Y-92194095D01*
X88562381Y-92765524D01*
X88562381Y-92146476D01*
X88562381Y-91670286D02*
X88562381Y-91479810D01*
X88514762Y-91384571D01*
X88467143Y-91336952D01*
X88324286Y-91241714D01*
X88133810Y-91194095D01*
X87752857Y-91194095D01*
X87657619Y-91241714D01*
X87610000Y-91289333D01*
X87562381Y-91384571D01*
X87562381Y-91575048D01*
X87610000Y-91670286D01*
X87657619Y-91717905D01*
X87752857Y-91765524D01*
X87990952Y-91765524D01*
X88086190Y-91717905D01*
X88133810Y-91670286D01*
X88181429Y-91575048D01*
X88181429Y-91384571D01*
X88133810Y-91289333D01*
X88086190Y-91241714D01*
X87990952Y-91194095D01*
X34078943Y-99010743D02*
X34031324Y-99058362D01*
X33888467Y-99105981D01*
X33793229Y-99105981D01*
X33650371Y-99058362D01*
X33555133Y-98963124D01*
X33507514Y-98867886D01*
X33459895Y-98677410D01*
X33459895Y-98534552D01*
X33507514Y-98344076D01*
X33555133Y-98248838D01*
X33650371Y-98153600D01*
X33793229Y-98105981D01*
X33888467Y-98105981D01*
X34031324Y-98153600D01*
X34078943Y-98201219D01*
X34412276Y-98105981D02*
X35031324Y-98105981D01*
X34697990Y-98486933D01*
X34840848Y-98486933D01*
X34936086Y-98534552D01*
X34983705Y-98582171D01*
X35031324Y-98677410D01*
X35031324Y-98915505D01*
X34983705Y-99010743D01*
X34936086Y-99058362D01*
X34840848Y-99105981D01*
X34555133Y-99105981D01*
X34459895Y-99058362D01*
X34412276Y-99010743D01*
X35650371Y-98105981D02*
X35745610Y-98105981D01*
X35840848Y-98153600D01*
X35888467Y-98201219D01*
X35936086Y-98296457D01*
X35983705Y-98486933D01*
X35983705Y-98725029D01*
X35936086Y-98915505D01*
X35888467Y-99010743D01*
X35840848Y-99058362D01*
X35745610Y-99105981D01*
X35650371Y-99105981D01*
X35555133Y-99058362D01*
X35507514Y-99010743D01*
X35459895Y-98915505D01*
X35412276Y-98725029D01*
X35412276Y-98486933D01*
X35459895Y-98296457D01*
X35507514Y-98201219D01*
X35555133Y-98153600D01*
X35650371Y-98105981D01*
X28821143Y-107009143D02*
X28773524Y-107056762D01*
X28630667Y-107104381D01*
X28535429Y-107104381D01*
X28392571Y-107056762D01*
X28297333Y-106961524D01*
X28249714Y-106866286D01*
X28202095Y-106675810D01*
X28202095Y-106532952D01*
X28249714Y-106342476D01*
X28297333Y-106247238D01*
X28392571Y-106152000D01*
X28535429Y-106104381D01*
X28630667Y-106104381D01*
X28773524Y-106152000D01*
X28821143Y-106199619D01*
X29154476Y-106104381D02*
X29773524Y-106104381D01*
X29440190Y-106485333D01*
X29583048Y-106485333D01*
X29678286Y-106532952D01*
X29725905Y-106580571D01*
X29773524Y-106675810D01*
X29773524Y-106913905D01*
X29725905Y-107009143D01*
X29678286Y-107056762D01*
X29583048Y-107104381D01*
X29297333Y-107104381D01*
X29202095Y-107056762D01*
X29154476Y-107009143D01*
X30725905Y-107104381D02*
X30154476Y-107104381D01*
X30440190Y-107104381D02*
X30440190Y-106104381D01*
X30344952Y-106247238D01*
X30249714Y-106342476D01*
X30154476Y-106390095D01*
X96216743Y-93175057D02*
X96264362Y-93222676D01*
X96311981Y-93365533D01*
X96311981Y-93460771D01*
X96264362Y-93603629D01*
X96169124Y-93698867D01*
X96073886Y-93746486D01*
X95883410Y-93794105D01*
X95740552Y-93794105D01*
X95550076Y-93746486D01*
X95454838Y-93698867D01*
X95359600Y-93603629D01*
X95311981Y-93460771D01*
X95311981Y-93365533D01*
X95359600Y-93222676D01*
X95407219Y-93175057D01*
X95311981Y-92841724D02*
X95311981Y-92222676D01*
X95692933Y-92556010D01*
X95692933Y-92413152D01*
X95740552Y-92317914D01*
X95788171Y-92270295D01*
X95883410Y-92222676D01*
X96121505Y-92222676D01*
X96216743Y-92270295D01*
X96264362Y-92317914D01*
X96311981Y-92413152D01*
X96311981Y-92698867D01*
X96264362Y-92794105D01*
X96216743Y-92841724D01*
X95407219Y-91841724D02*
X95359600Y-91794105D01*
X95311981Y-91698867D01*
X95311981Y-91460771D01*
X95359600Y-91365533D01*
X95407219Y-91317914D01*
X95502457Y-91270295D01*
X95597695Y-91270295D01*
X95740552Y-91317914D01*
X96311981Y-91889343D01*
X96311981Y-91270295D01*
X161416381Y-38838095D02*
X160416381Y-38838095D01*
X160416381Y-38600000D01*
X160464000Y-38457142D01*
X160559238Y-38361904D01*
X160654476Y-38314285D01*
X160844952Y-38266666D01*
X160987810Y-38266666D01*
X161178286Y-38314285D01*
X161273524Y-38361904D01*
X161368762Y-38457142D01*
X161416381Y-38600000D01*
X161416381Y-38838095D01*
X161416381Y-37314285D02*
X161416381Y-37885714D01*
X161416381Y-37600000D02*
X160416381Y-37600000D01*
X160559238Y-37695238D01*
X160654476Y-37790476D01*
X160702095Y-37885714D01*
X87653905Y-14041381D02*
X87653905Y-13041381D01*
X87892000Y-13041381D01*
X88034858Y-13089000D01*
X88130096Y-13184238D01*
X88177715Y-13279476D01*
X88225334Y-13469952D01*
X88225334Y-13612810D01*
X88177715Y-13803286D01*
X88130096Y-13898524D01*
X88034858Y-13993762D01*
X87892000Y-14041381D01*
X87653905Y-14041381D01*
X88558667Y-13041381D02*
X89177715Y-13041381D01*
X88844381Y-13422333D01*
X88987239Y-13422333D01*
X89082477Y-13469952D01*
X89130096Y-13517571D01*
X89177715Y-13612810D01*
X89177715Y-13850905D01*
X89130096Y-13946143D01*
X89082477Y-13993762D01*
X88987239Y-14041381D01*
X88701524Y-14041381D01*
X88606286Y-13993762D01*
X88558667Y-13946143D01*
X80462381Y-44045095D02*
X79462381Y-44045095D01*
X79462381Y-43807000D01*
X79510000Y-43664142D01*
X79605238Y-43568904D01*
X79700476Y-43521285D01*
X79890952Y-43473666D01*
X80033810Y-43473666D01*
X80224286Y-43521285D01*
X80319524Y-43568904D01*
X80414762Y-43664142D01*
X80462381Y-43807000D01*
X80462381Y-44045095D01*
X79795714Y-42616523D02*
X80462381Y-42616523D01*
X79414762Y-42854619D02*
X80129048Y-43092714D01*
X80129048Y-42473666D01*
X82566381Y-86558286D02*
X81566381Y-86558286D01*
X81566381Y-86320191D01*
X81614000Y-86177333D01*
X81709238Y-86082095D01*
X81804476Y-86034476D01*
X81994952Y-85986857D01*
X82137810Y-85986857D01*
X82328286Y-86034476D01*
X82423524Y-86082095D01*
X82518762Y-86177333D01*
X82566381Y-86320191D01*
X82566381Y-86558286D01*
X82566381Y-85034476D02*
X82566381Y-85605905D01*
X82566381Y-85320191D02*
X81566381Y-85320191D01*
X81709238Y-85415429D01*
X81804476Y-85510667D01*
X81852095Y-85605905D01*
X81566381Y-84415429D02*
X81566381Y-84320190D01*
X81614000Y-84224952D01*
X81661619Y-84177333D01*
X81756857Y-84129714D01*
X81947333Y-84082095D01*
X82185429Y-84082095D01*
X82375905Y-84129714D01*
X82471143Y-84177333D01*
X82518762Y-84224952D01*
X82566381Y-84320190D01*
X82566381Y-84415429D01*
X82518762Y-84510667D01*
X82471143Y-84558286D01*
X82375905Y-84605905D01*
X82185429Y-84653524D01*
X81947333Y-84653524D01*
X81756857Y-84605905D01*
X81661619Y-84558286D01*
X81614000Y-84510667D01*
X81566381Y-84415429D01*
X62412714Y-78023981D02*
X62412714Y-77023981D01*
X62650809Y-77023981D01*
X62793667Y-77071600D01*
X62888905Y-77166838D01*
X62936524Y-77262076D01*
X62984143Y-77452552D01*
X62984143Y-77595410D01*
X62936524Y-77785886D01*
X62888905Y-77881124D01*
X62793667Y-77976362D01*
X62650809Y-78023981D01*
X62412714Y-78023981D01*
X63936524Y-78023981D02*
X63365095Y-78023981D01*
X63650809Y-78023981D02*
X63650809Y-77023981D01*
X63555571Y-77166838D01*
X63460333Y-77262076D01*
X63365095Y-77309695D01*
X64888905Y-78023981D02*
X64317476Y-78023981D01*
X64603190Y-78023981D02*
X64603190Y-77023981D01*
X64507952Y-77166838D01*
X64412714Y-77262076D01*
X64317476Y-77309695D01*
X65644734Y-25547581D02*
X65168543Y-25547581D01*
X65168543Y-24547581D01*
X66501877Y-25547581D02*
X65930448Y-25547581D01*
X66216162Y-25547581D02*
X66216162Y-24547581D01*
X66120924Y-24690438D01*
X66025686Y-24785676D01*
X65930448Y-24833295D01*
X65933581Y-96458066D02*
X65933581Y-96934257D01*
X64933581Y-96934257D01*
X65028819Y-96172352D02*
X64981200Y-96124733D01*
X64933581Y-96029495D01*
X64933581Y-95791399D01*
X64981200Y-95696161D01*
X65028819Y-95648542D01*
X65124057Y-95600923D01*
X65219295Y-95600923D01*
X65362152Y-95648542D01*
X65933581Y-96219971D01*
X65933581Y-95600923D01*
X165116381Y-45632666D02*
X164640190Y-45966000D01*
X165116381Y-46204095D02*
X164116381Y-46204095D01*
X164116381Y-45823142D01*
X164164000Y-45727904D01*
X164211619Y-45680285D01*
X164306857Y-45632666D01*
X164449714Y-45632666D01*
X164544952Y-45680285D01*
X164592571Y-45727904D01*
X164640190Y-45823142D01*
X164640190Y-46204095D01*
X165116381Y-44680285D02*
X165116381Y-45251714D01*
X165116381Y-44966000D02*
X164116381Y-44966000D01*
X164259238Y-45061238D01*
X164354476Y-45156476D01*
X164402095Y-45251714D01*
X162910781Y-33745466D02*
X162434590Y-34078800D01*
X162910781Y-34316895D02*
X161910781Y-34316895D01*
X161910781Y-33935942D01*
X161958400Y-33840704D01*
X162006019Y-33793085D01*
X162101257Y-33745466D01*
X162244114Y-33745466D01*
X162339352Y-33793085D01*
X162386971Y-33840704D01*
X162434590Y-33935942D01*
X162434590Y-34316895D01*
X162006019Y-33364514D02*
X161958400Y-33316895D01*
X161910781Y-33221657D01*
X161910781Y-32983561D01*
X161958400Y-32888323D01*
X162006019Y-32840704D01*
X162101257Y-32793085D01*
X162196495Y-32793085D01*
X162339352Y-32840704D01*
X162910781Y-33412133D01*
X162910781Y-32793085D01*
X147280334Y-54482381D02*
X146947000Y-54006190D01*
X146708905Y-54482381D02*
X146708905Y-53482381D01*
X147089858Y-53482381D01*
X147185096Y-53530000D01*
X147232715Y-53577619D01*
X147280334Y-53672857D01*
X147280334Y-53815714D01*
X147232715Y-53910952D01*
X147185096Y-53958571D01*
X147089858Y-54006190D01*
X146708905Y-54006190D01*
X148137477Y-53815714D02*
X148137477Y-54482381D01*
X147899381Y-53434762D02*
X147661286Y-54149048D01*
X148280334Y-54149048D01*
X77465181Y-28538466D02*
X76988990Y-28871800D01*
X77465181Y-29109895D02*
X76465181Y-29109895D01*
X76465181Y-28728942D01*
X76512800Y-28633704D01*
X76560419Y-28586085D01*
X76655657Y-28538466D01*
X76798514Y-28538466D01*
X76893752Y-28586085D01*
X76941371Y-28633704D01*
X76988990Y-28728942D01*
X76988990Y-29109895D01*
X76465181Y-27633704D02*
X76465181Y-28109895D01*
X76941371Y-28157514D01*
X76893752Y-28109895D01*
X76846133Y-28014657D01*
X76846133Y-27776561D01*
X76893752Y-27681323D01*
X76941371Y-27633704D01*
X77036610Y-27586085D01*
X77274705Y-27586085D01*
X77369943Y-27633704D01*
X77417562Y-27681323D01*
X77465181Y-27776561D01*
X77465181Y-28014657D01*
X77417562Y-28109895D01*
X77369943Y-28157514D01*
X80669781Y-39714466D02*
X80193590Y-40047800D01*
X80669781Y-40285895D02*
X79669781Y-40285895D01*
X79669781Y-39904942D01*
X79717400Y-39809704D01*
X79765019Y-39762085D01*
X79860257Y-39714466D01*
X80003114Y-39714466D01*
X80098352Y-39762085D01*
X80145971Y-39809704D01*
X80193590Y-39904942D01*
X80193590Y-40285895D01*
X79669781Y-38857323D02*
X79669781Y-39047800D01*
X79717400Y-39143038D01*
X79765019Y-39190657D01*
X79907876Y-39285895D01*
X80098352Y-39333514D01*
X80479305Y-39333514D01*
X80574543Y-39285895D01*
X80622162Y-39238276D01*
X80669781Y-39143038D01*
X80669781Y-38952561D01*
X80622162Y-38857323D01*
X80574543Y-38809704D01*
X80479305Y-38762085D01*
X80241210Y-38762085D01*
X80145971Y-38809704D01*
X80098352Y-38857323D01*
X80050733Y-38952561D01*
X80050733Y-39143038D01*
X80098352Y-39238276D01*
X80145971Y-39285895D01*
X80241210Y-39333514D01*
X95337334Y-14096381D02*
X95004000Y-13620190D01*
X94765905Y-14096381D02*
X94765905Y-13096381D01*
X95146858Y-13096381D01*
X95242096Y-13144000D01*
X95289715Y-13191619D01*
X95337334Y-13286857D01*
X95337334Y-13429714D01*
X95289715Y-13524952D01*
X95242096Y-13572571D01*
X95146858Y-13620190D01*
X94765905Y-13620190D01*
X95670667Y-13096381D02*
X96337334Y-13096381D01*
X95908762Y-14096381D01*
X102449334Y-14096381D02*
X102116000Y-13620190D01*
X101877905Y-14096381D02*
X101877905Y-13096381D01*
X102258858Y-13096381D01*
X102354096Y-13144000D01*
X102401715Y-13191619D01*
X102449334Y-13286857D01*
X102449334Y-13429714D01*
X102401715Y-13524952D01*
X102354096Y-13572571D01*
X102258858Y-13620190D01*
X101877905Y-13620190D01*
X103020762Y-13524952D02*
X102925524Y-13477333D01*
X102877905Y-13429714D01*
X102830286Y-13334476D01*
X102830286Y-13286857D01*
X102877905Y-13191619D01*
X102925524Y-13144000D01*
X103020762Y-13096381D01*
X103211239Y-13096381D01*
X103306477Y-13144000D01*
X103354096Y-13191619D01*
X103401715Y-13286857D01*
X103401715Y-13334476D01*
X103354096Y-13429714D01*
X103306477Y-13477333D01*
X103211239Y-13524952D01*
X103020762Y-13524952D01*
X102925524Y-13572571D01*
X102877905Y-13620190D01*
X102830286Y-13715429D01*
X102830286Y-13905905D01*
X102877905Y-14001143D01*
X102925524Y-14048762D01*
X103020762Y-14096381D01*
X103211239Y-14096381D01*
X103306477Y-14048762D01*
X103354096Y-14001143D01*
X103401715Y-13905905D01*
X103401715Y-13715429D01*
X103354096Y-13620190D01*
X103306477Y-13572571D01*
X103211239Y-13524952D01*
X109307334Y-14096381D02*
X108974000Y-13620190D01*
X108735905Y-14096381D02*
X108735905Y-13096381D01*
X109116858Y-13096381D01*
X109212096Y-13144000D01*
X109259715Y-13191619D01*
X109307334Y-13286857D01*
X109307334Y-13429714D01*
X109259715Y-13524952D01*
X109212096Y-13572571D01*
X109116858Y-13620190D01*
X108735905Y-13620190D01*
X109783524Y-14096381D02*
X109974000Y-14096381D01*
X110069239Y-14048762D01*
X110116858Y-14001143D01*
X110212096Y-13858286D01*
X110259715Y-13667810D01*
X110259715Y-13286857D01*
X110212096Y-13191619D01*
X110164477Y-13144000D01*
X110069239Y-13096381D01*
X109878762Y-13096381D01*
X109783524Y-13144000D01*
X109735905Y-13191619D01*
X109688286Y-13286857D01*
X109688286Y-13524952D01*
X109735905Y-13620190D01*
X109783524Y-13667810D01*
X109878762Y-13715429D01*
X110069239Y-13715429D01*
X110164477Y-13667810D01*
X110212096Y-13620190D01*
X110259715Y-13524952D01*
X79374381Y-57792857D02*
X78898190Y-58126191D01*
X79374381Y-58364286D02*
X78374381Y-58364286D01*
X78374381Y-57983333D01*
X78422000Y-57888095D01*
X78469619Y-57840476D01*
X78564857Y-57792857D01*
X78707714Y-57792857D01*
X78802952Y-57840476D01*
X78850571Y-57888095D01*
X78898190Y-57983333D01*
X78898190Y-58364286D01*
X79374381Y-56840476D02*
X79374381Y-57411905D01*
X79374381Y-57126191D02*
X78374381Y-57126191D01*
X78517238Y-57221429D01*
X78612476Y-57316667D01*
X78660095Y-57411905D01*
X78374381Y-56221429D02*
X78374381Y-56126190D01*
X78422000Y-56030952D01*
X78469619Y-55983333D01*
X78564857Y-55935714D01*
X78755333Y-55888095D01*
X78993429Y-55888095D01*
X79183905Y-55935714D01*
X79279143Y-55983333D01*
X79326762Y-56030952D01*
X79374381Y-56126190D01*
X79374381Y-56221429D01*
X79326762Y-56316667D01*
X79279143Y-56364286D01*
X79183905Y-56411905D01*
X78993429Y-56459524D01*
X78755333Y-56459524D01*
X78564857Y-56411905D01*
X78469619Y-56364286D01*
X78422000Y-56316667D01*
X78374381Y-56221429D01*
X84119981Y-52763657D02*
X83643790Y-53096991D01*
X84119981Y-53335086D02*
X83119981Y-53335086D01*
X83119981Y-52954133D01*
X83167600Y-52858895D01*
X83215219Y-52811276D01*
X83310457Y-52763657D01*
X83453314Y-52763657D01*
X83548552Y-52811276D01*
X83596171Y-52858895D01*
X83643790Y-52954133D01*
X83643790Y-53335086D01*
X84119981Y-51811276D02*
X84119981Y-52382705D01*
X84119981Y-52096991D02*
X83119981Y-52096991D01*
X83262838Y-52192229D01*
X83358076Y-52287467D01*
X83405695Y-52382705D01*
X84119981Y-50858895D02*
X84119981Y-51430324D01*
X84119981Y-51144610D02*
X83119981Y-51144610D01*
X83262838Y-51239848D01*
X83358076Y-51335086D01*
X83405695Y-51430324D01*
X93845143Y-39132381D02*
X93511809Y-38656190D01*
X93273714Y-39132381D02*
X93273714Y-38132381D01*
X93654667Y-38132381D01*
X93749905Y-38180000D01*
X93797524Y-38227619D01*
X93845143Y-38322857D01*
X93845143Y-38465714D01*
X93797524Y-38560952D01*
X93749905Y-38608571D01*
X93654667Y-38656190D01*
X93273714Y-38656190D01*
X94797524Y-39132381D02*
X94226095Y-39132381D01*
X94511809Y-39132381D02*
X94511809Y-38132381D01*
X94416571Y-38275238D01*
X94321333Y-38370476D01*
X94226095Y-38418095D01*
X95178476Y-38227619D02*
X95226095Y-38180000D01*
X95321333Y-38132381D01*
X95559429Y-38132381D01*
X95654667Y-38180000D01*
X95702286Y-38227619D01*
X95749905Y-38322857D01*
X95749905Y-38418095D01*
X95702286Y-38560952D01*
X95130857Y-39132381D01*
X95749905Y-39132381D01*
X32961343Y-66339981D02*
X32628009Y-65863790D01*
X32389914Y-66339981D02*
X32389914Y-65339981D01*
X32770867Y-65339981D01*
X32866105Y-65387600D01*
X32913724Y-65435219D01*
X32961343Y-65530457D01*
X32961343Y-65673314D01*
X32913724Y-65768552D01*
X32866105Y-65816171D01*
X32770867Y-65863790D01*
X32389914Y-65863790D01*
X33913724Y-66339981D02*
X33342295Y-66339981D01*
X33628009Y-66339981D02*
X33628009Y-65339981D01*
X33532771Y-65482838D01*
X33437533Y-65578076D01*
X33342295Y-65625695D01*
X34247057Y-65339981D02*
X34866105Y-65339981D01*
X34532771Y-65720933D01*
X34675629Y-65720933D01*
X34770867Y-65768552D01*
X34818486Y-65816171D01*
X34866105Y-65911410D01*
X34866105Y-66149505D01*
X34818486Y-66244743D01*
X34770867Y-66292362D01*
X34675629Y-66339981D01*
X34389914Y-66339981D01*
X34294676Y-66292362D01*
X34247057Y-66244743D01*
X39161981Y-31529257D02*
X38685790Y-31862591D01*
X39161981Y-32100686D02*
X38161981Y-32100686D01*
X38161981Y-31719733D01*
X38209600Y-31624495D01*
X38257219Y-31576876D01*
X38352457Y-31529257D01*
X38495314Y-31529257D01*
X38590552Y-31576876D01*
X38638171Y-31624495D01*
X38685790Y-31719733D01*
X38685790Y-32100686D01*
X39161981Y-30576876D02*
X39161981Y-31148305D01*
X39161981Y-30862591D02*
X38161981Y-30862591D01*
X38304838Y-30957829D01*
X38400076Y-31053067D01*
X38447695Y-31148305D01*
X38495314Y-29719733D02*
X39161981Y-29719733D01*
X38114362Y-29957829D02*
X38828648Y-30195924D01*
X38828648Y-29576876D01*
X36339543Y-38196781D02*
X36006209Y-37720590D01*
X35768114Y-38196781D02*
X35768114Y-37196781D01*
X36149067Y-37196781D01*
X36244305Y-37244400D01*
X36291924Y-37292019D01*
X36339543Y-37387257D01*
X36339543Y-37530114D01*
X36291924Y-37625352D01*
X36244305Y-37672971D01*
X36149067Y-37720590D01*
X35768114Y-37720590D01*
X37291924Y-38196781D02*
X36720495Y-38196781D01*
X37006209Y-38196781D02*
X37006209Y-37196781D01*
X36910971Y-37339638D01*
X36815733Y-37434876D01*
X36720495Y-37482495D01*
X38196686Y-37196781D02*
X37720495Y-37196781D01*
X37672876Y-37672971D01*
X37720495Y-37625352D01*
X37815733Y-37577733D01*
X38053829Y-37577733D01*
X38149067Y-37625352D01*
X38196686Y-37672971D01*
X38244305Y-37768210D01*
X38244305Y-38006305D01*
X38196686Y-38101543D01*
X38149067Y-38149162D01*
X38053829Y-38196781D01*
X37815733Y-38196781D01*
X37720495Y-38149162D01*
X37672876Y-38101543D01*
X166767381Y-82303857D02*
X166291190Y-82637191D01*
X166767381Y-82875286D02*
X165767381Y-82875286D01*
X165767381Y-82494333D01*
X165815000Y-82399095D01*
X165862619Y-82351476D01*
X165957857Y-82303857D01*
X166100714Y-82303857D01*
X166195952Y-82351476D01*
X166243571Y-82399095D01*
X166291190Y-82494333D01*
X166291190Y-82875286D01*
X166767381Y-81351476D02*
X166767381Y-81922905D01*
X166767381Y-81637191D02*
X165767381Y-81637191D01*
X165910238Y-81732429D01*
X166005476Y-81827667D01*
X166053095Y-81922905D01*
X165767381Y-80494333D02*
X165767381Y-80684810D01*
X165815000Y-80780048D01*
X165862619Y-80827667D01*
X166005476Y-80922905D01*
X166195952Y-80970524D01*
X166576905Y-80970524D01*
X166672143Y-80922905D01*
X166719762Y-80875286D01*
X166767381Y-80780048D01*
X166767381Y-80589571D01*
X166719762Y-80494333D01*
X166672143Y-80446714D01*
X166576905Y-80399095D01*
X166338810Y-80399095D01*
X166243571Y-80446714D01*
X166195952Y-80494333D01*
X166148333Y-80589571D01*
X166148333Y-80780048D01*
X166195952Y-80875286D01*
X166243571Y-80922905D01*
X166338810Y-80970524D01*
X163846381Y-69349857D02*
X163370190Y-69683191D01*
X163846381Y-69921286D02*
X162846381Y-69921286D01*
X162846381Y-69540333D01*
X162894000Y-69445095D01*
X162941619Y-69397476D01*
X163036857Y-69349857D01*
X163179714Y-69349857D01*
X163274952Y-69397476D01*
X163322571Y-69445095D01*
X163370190Y-69540333D01*
X163370190Y-69921286D01*
X163846381Y-68397476D02*
X163846381Y-68968905D01*
X163846381Y-68683191D02*
X162846381Y-68683191D01*
X162989238Y-68778429D01*
X163084476Y-68873667D01*
X163132095Y-68968905D01*
X162846381Y-68064143D02*
X162846381Y-67397476D01*
X163846381Y-67826048D01*
X55491143Y-59562381D02*
X55157809Y-59086190D01*
X54919714Y-59562381D02*
X54919714Y-58562381D01*
X55300667Y-58562381D01*
X55395905Y-58610000D01*
X55443524Y-58657619D01*
X55491143Y-58752857D01*
X55491143Y-58895714D01*
X55443524Y-58990952D01*
X55395905Y-59038571D01*
X55300667Y-59086190D01*
X54919714Y-59086190D01*
X56443524Y-59562381D02*
X55872095Y-59562381D01*
X56157809Y-59562381D02*
X56157809Y-58562381D01*
X56062571Y-58705238D01*
X55967333Y-58800476D01*
X55872095Y-58848095D01*
X57014952Y-58990952D02*
X56919714Y-58943333D01*
X56872095Y-58895714D01*
X56824476Y-58800476D01*
X56824476Y-58752857D01*
X56872095Y-58657619D01*
X56919714Y-58610000D01*
X57014952Y-58562381D01*
X57205429Y-58562381D01*
X57300667Y-58610000D01*
X57348286Y-58657619D01*
X57395905Y-58752857D01*
X57395905Y-58800476D01*
X57348286Y-58895714D01*
X57300667Y-58943333D01*
X57205429Y-58990952D01*
X57014952Y-58990952D01*
X56919714Y-59038571D01*
X56872095Y-59086190D01*
X56824476Y-59181429D01*
X56824476Y-59371905D01*
X56872095Y-59467143D01*
X56919714Y-59514762D01*
X57014952Y-59562381D01*
X57205429Y-59562381D01*
X57300667Y-59514762D01*
X57348286Y-59467143D01*
X57395905Y-59371905D01*
X57395905Y-59181429D01*
X57348286Y-59086190D01*
X57300667Y-59038571D01*
X57205429Y-58990952D01*
X56354743Y-45380781D02*
X56021409Y-44904590D01*
X55783314Y-45380781D02*
X55783314Y-44380781D01*
X56164267Y-44380781D01*
X56259505Y-44428400D01*
X56307124Y-44476019D01*
X56354743Y-44571257D01*
X56354743Y-44714114D01*
X56307124Y-44809352D01*
X56259505Y-44856971D01*
X56164267Y-44904590D01*
X55783314Y-44904590D01*
X57307124Y-45380781D02*
X56735695Y-45380781D01*
X57021409Y-45380781D02*
X57021409Y-44380781D01*
X56926171Y-44523638D01*
X56830933Y-44618876D01*
X56735695Y-44666495D01*
X57783314Y-45380781D02*
X57973790Y-45380781D01*
X58069029Y-45333162D01*
X58116648Y-45285543D01*
X58211886Y-45142686D01*
X58259505Y-44952210D01*
X58259505Y-44571257D01*
X58211886Y-44476019D01*
X58164267Y-44428400D01*
X58069029Y-44380781D01*
X57878552Y-44380781D01*
X57783314Y-44428400D01*
X57735695Y-44476019D01*
X57688076Y-44571257D01*
X57688076Y-44809352D01*
X57735695Y-44904590D01*
X57783314Y-44952210D01*
X57878552Y-44999829D01*
X58069029Y-44999829D01*
X58164267Y-44952210D01*
X58211886Y-44904590D01*
X58259505Y-44809352D01*
X55414943Y-66212981D02*
X55081609Y-65736790D01*
X54843514Y-66212981D02*
X54843514Y-65212981D01*
X55224467Y-65212981D01*
X55319705Y-65260600D01*
X55367324Y-65308219D01*
X55414943Y-65403457D01*
X55414943Y-65546314D01*
X55367324Y-65641552D01*
X55319705Y-65689171D01*
X55224467Y-65736790D01*
X54843514Y-65736790D01*
X55795895Y-65308219D02*
X55843514Y-65260600D01*
X55938752Y-65212981D01*
X56176848Y-65212981D01*
X56272086Y-65260600D01*
X56319705Y-65308219D01*
X56367324Y-65403457D01*
X56367324Y-65498695D01*
X56319705Y-65641552D01*
X55748276Y-66212981D01*
X56367324Y-66212981D01*
X56986371Y-65212981D02*
X57081610Y-65212981D01*
X57176848Y-65260600D01*
X57224467Y-65308219D01*
X57272086Y-65403457D01*
X57319705Y-65593933D01*
X57319705Y-65832029D01*
X57272086Y-66022505D01*
X57224467Y-66117743D01*
X57176848Y-66165362D01*
X57081610Y-66212981D01*
X56986371Y-66212981D01*
X56891133Y-66165362D01*
X56843514Y-66117743D01*
X56795895Y-66022505D01*
X56748276Y-65832029D01*
X56748276Y-65593933D01*
X56795895Y-65403457D01*
X56843514Y-65308219D01*
X56891133Y-65260600D01*
X56986371Y-65212981D01*
X54906943Y-38933381D02*
X54573609Y-38457190D01*
X54335514Y-38933381D02*
X54335514Y-37933381D01*
X54716467Y-37933381D01*
X54811705Y-37981000D01*
X54859324Y-38028619D01*
X54906943Y-38123857D01*
X54906943Y-38266714D01*
X54859324Y-38361952D01*
X54811705Y-38409571D01*
X54716467Y-38457190D01*
X54335514Y-38457190D01*
X55287895Y-38028619D02*
X55335514Y-37981000D01*
X55430752Y-37933381D01*
X55668848Y-37933381D01*
X55764086Y-37981000D01*
X55811705Y-38028619D01*
X55859324Y-38123857D01*
X55859324Y-38219095D01*
X55811705Y-38361952D01*
X55240276Y-38933381D01*
X55859324Y-38933381D01*
X56811705Y-38933381D02*
X56240276Y-38933381D01*
X56525990Y-38933381D02*
X56525990Y-37933381D01*
X56430752Y-38076238D01*
X56335514Y-38171476D01*
X56240276Y-38219095D01*
X157675343Y-64765181D02*
X157342009Y-64288990D01*
X157103914Y-64765181D02*
X157103914Y-63765181D01*
X157484867Y-63765181D01*
X157580105Y-63812800D01*
X157627724Y-63860419D01*
X157675343Y-63955657D01*
X157675343Y-64098514D01*
X157627724Y-64193752D01*
X157580105Y-64241371D01*
X157484867Y-64288990D01*
X157103914Y-64288990D01*
X158056295Y-63860419D02*
X158103914Y-63812800D01*
X158199152Y-63765181D01*
X158437248Y-63765181D01*
X158532486Y-63812800D01*
X158580105Y-63860419D01*
X158627724Y-63955657D01*
X158627724Y-64050895D01*
X158580105Y-64193752D01*
X158008676Y-64765181D01*
X158627724Y-64765181D01*
X159008676Y-63860419D02*
X159056295Y-63812800D01*
X159151533Y-63765181D01*
X159389629Y-63765181D01*
X159484867Y-63812800D01*
X159532486Y-63860419D01*
X159580105Y-63955657D01*
X159580105Y-64050895D01*
X159532486Y-64193752D01*
X158961057Y-64765181D01*
X159580105Y-64765181D01*
X149471143Y-88772381D02*
X149137809Y-88296190D01*
X148899714Y-88772381D02*
X148899714Y-87772381D01*
X149280667Y-87772381D01*
X149375905Y-87820000D01*
X149423524Y-87867619D01*
X149471143Y-87962857D01*
X149471143Y-88105714D01*
X149423524Y-88200952D01*
X149375905Y-88248571D01*
X149280667Y-88296190D01*
X148899714Y-88296190D01*
X149852095Y-87867619D02*
X149899714Y-87820000D01*
X149994952Y-87772381D01*
X150233048Y-87772381D01*
X150328286Y-87820000D01*
X150375905Y-87867619D01*
X150423524Y-87962857D01*
X150423524Y-88058095D01*
X150375905Y-88200952D01*
X149804476Y-88772381D01*
X150423524Y-88772381D01*
X151280667Y-88105714D02*
X151280667Y-88772381D01*
X151042571Y-87724762D02*
X150804476Y-88439048D01*
X151423524Y-88439048D01*
X59631343Y-78531981D02*
X59298009Y-78055790D01*
X59059914Y-78531981D02*
X59059914Y-77531981D01*
X59440867Y-77531981D01*
X59536105Y-77579600D01*
X59583724Y-77627219D01*
X59631343Y-77722457D01*
X59631343Y-77865314D01*
X59583724Y-77960552D01*
X59536105Y-78008171D01*
X59440867Y-78055790D01*
X59059914Y-78055790D01*
X60012295Y-77627219D02*
X60059914Y-77579600D01*
X60155152Y-77531981D01*
X60393248Y-77531981D01*
X60488486Y-77579600D01*
X60536105Y-77627219D01*
X60583724Y-77722457D01*
X60583724Y-77817695D01*
X60536105Y-77960552D01*
X59964676Y-78531981D01*
X60583724Y-78531981D01*
X61440867Y-77531981D02*
X61250390Y-77531981D01*
X61155152Y-77579600D01*
X61107533Y-77627219D01*
X61012295Y-77770076D01*
X60964676Y-77960552D01*
X60964676Y-78341505D01*
X61012295Y-78436743D01*
X61059914Y-78484362D01*
X61155152Y-78531981D01*
X61345629Y-78531981D01*
X61440867Y-78484362D01*
X61488486Y-78436743D01*
X61536105Y-78341505D01*
X61536105Y-78103410D01*
X61488486Y-78008171D01*
X61440867Y-77960552D01*
X61345629Y-77912933D01*
X61155152Y-77912933D01*
X61059914Y-77960552D01*
X61012295Y-78008171D01*
X60964676Y-78103410D01*
X46934381Y-81160857D02*
X46458190Y-81494191D01*
X46934381Y-81732286D02*
X45934381Y-81732286D01*
X45934381Y-81351333D01*
X45982000Y-81256095D01*
X46029619Y-81208476D01*
X46124857Y-81160857D01*
X46267714Y-81160857D01*
X46362952Y-81208476D01*
X46410571Y-81256095D01*
X46458190Y-81351333D01*
X46458190Y-81732286D01*
X46029619Y-80779905D02*
X45982000Y-80732286D01*
X45934381Y-80637048D01*
X45934381Y-80398952D01*
X45982000Y-80303714D01*
X46029619Y-80256095D01*
X46124857Y-80208476D01*
X46220095Y-80208476D01*
X46362952Y-80256095D01*
X46934381Y-80827524D01*
X46934381Y-80208476D01*
X45934381Y-79875143D02*
X45934381Y-79208476D01*
X46934381Y-79637048D01*
X59580543Y-84907381D02*
X59247209Y-84431190D01*
X59009114Y-84907381D02*
X59009114Y-83907381D01*
X59390067Y-83907381D01*
X59485305Y-83955000D01*
X59532924Y-84002619D01*
X59580543Y-84097857D01*
X59580543Y-84240714D01*
X59532924Y-84335952D01*
X59485305Y-84383571D01*
X59390067Y-84431190D01*
X59009114Y-84431190D01*
X59961495Y-84002619D02*
X60009114Y-83955000D01*
X60104352Y-83907381D01*
X60342448Y-83907381D01*
X60437686Y-83955000D01*
X60485305Y-84002619D01*
X60532924Y-84097857D01*
X60532924Y-84193095D01*
X60485305Y-84335952D01*
X59913876Y-84907381D01*
X60532924Y-84907381D01*
X61104352Y-84335952D02*
X61009114Y-84288333D01*
X60961495Y-84240714D01*
X60913876Y-84145476D01*
X60913876Y-84097857D01*
X60961495Y-84002619D01*
X61009114Y-83955000D01*
X61104352Y-83907381D01*
X61294829Y-83907381D01*
X61390067Y-83955000D01*
X61437686Y-84002619D01*
X61485305Y-84097857D01*
X61485305Y-84145476D01*
X61437686Y-84240714D01*
X61390067Y-84288333D01*
X61294829Y-84335952D01*
X61104352Y-84335952D01*
X61009114Y-84383571D01*
X60961495Y-84431190D01*
X60913876Y-84526429D01*
X60913876Y-84716905D01*
X60961495Y-84812143D01*
X61009114Y-84859762D01*
X61104352Y-84907381D01*
X61294829Y-84907381D01*
X61390067Y-84859762D01*
X61437686Y-84812143D01*
X61485305Y-84716905D01*
X61485305Y-84526429D01*
X61437686Y-84431190D01*
X61390067Y-84383571D01*
X61294829Y-84335952D01*
X59631343Y-81783181D02*
X59298009Y-81306990D01*
X59059914Y-81783181D02*
X59059914Y-80783181D01*
X59440867Y-80783181D01*
X59536105Y-80830800D01*
X59583724Y-80878419D01*
X59631343Y-80973657D01*
X59631343Y-81116514D01*
X59583724Y-81211752D01*
X59536105Y-81259371D01*
X59440867Y-81306990D01*
X59059914Y-81306990D01*
X60012295Y-80878419D02*
X60059914Y-80830800D01*
X60155152Y-80783181D01*
X60393248Y-80783181D01*
X60488486Y-80830800D01*
X60536105Y-80878419D01*
X60583724Y-80973657D01*
X60583724Y-81068895D01*
X60536105Y-81211752D01*
X59964676Y-81783181D01*
X60583724Y-81783181D01*
X61059914Y-81783181D02*
X61250390Y-81783181D01*
X61345629Y-81735562D01*
X61393248Y-81687943D01*
X61488486Y-81545086D01*
X61536105Y-81354610D01*
X61536105Y-80973657D01*
X61488486Y-80878419D01*
X61440867Y-80830800D01*
X61345629Y-80783181D01*
X61155152Y-80783181D01*
X61059914Y-80830800D01*
X61012295Y-80878419D01*
X60964676Y-80973657D01*
X60964676Y-81211752D01*
X61012295Y-81306990D01*
X61059914Y-81354610D01*
X61155152Y-81402229D01*
X61345629Y-81402229D01*
X61440867Y-81354610D01*
X61488486Y-81306990D01*
X61536105Y-81211752D01*
X78866381Y-78874857D02*
X78390190Y-79208191D01*
X78866381Y-79446286D02*
X77866381Y-79446286D01*
X77866381Y-79065333D01*
X77914000Y-78970095D01*
X77961619Y-78922476D01*
X78056857Y-78874857D01*
X78199714Y-78874857D01*
X78294952Y-78922476D01*
X78342571Y-78970095D01*
X78390190Y-79065333D01*
X78390190Y-79446286D01*
X77866381Y-78541524D02*
X77866381Y-77922476D01*
X78247333Y-78255810D01*
X78247333Y-78112952D01*
X78294952Y-78017714D01*
X78342571Y-77970095D01*
X78437810Y-77922476D01*
X78675905Y-77922476D01*
X78771143Y-77970095D01*
X78818762Y-78017714D01*
X78866381Y-78112952D01*
X78866381Y-78398667D01*
X78818762Y-78493905D01*
X78771143Y-78541524D01*
X77866381Y-77303429D02*
X77866381Y-77208190D01*
X77914000Y-77112952D01*
X77961619Y-77065333D01*
X78056857Y-77017714D01*
X78247333Y-76970095D01*
X78485429Y-76970095D01*
X78675905Y-77017714D01*
X78771143Y-77065333D01*
X78818762Y-77112952D01*
X78866381Y-77208190D01*
X78866381Y-77303429D01*
X78818762Y-77398667D01*
X78771143Y-77446286D01*
X78675905Y-77493905D01*
X78485429Y-77541524D01*
X78247333Y-77541524D01*
X78056857Y-77493905D01*
X77961619Y-77446286D01*
X77914000Y-77398667D01*
X77866381Y-77303429D01*
X71318381Y-78824057D02*
X70842190Y-79157391D01*
X71318381Y-79395486D02*
X70318381Y-79395486D01*
X70318381Y-79014533D01*
X70366000Y-78919295D01*
X70413619Y-78871676D01*
X70508857Y-78824057D01*
X70651714Y-78824057D01*
X70746952Y-78871676D01*
X70794571Y-78919295D01*
X70842190Y-79014533D01*
X70842190Y-79395486D01*
X70318381Y-78490724D02*
X70318381Y-77871676D01*
X70699333Y-78205010D01*
X70699333Y-78062152D01*
X70746952Y-77966914D01*
X70794571Y-77919295D01*
X70889810Y-77871676D01*
X71127905Y-77871676D01*
X71223143Y-77919295D01*
X71270762Y-77966914D01*
X71318381Y-78062152D01*
X71318381Y-78347867D01*
X71270762Y-78443105D01*
X71223143Y-78490724D01*
X71318381Y-76919295D02*
X71318381Y-77490724D01*
X71318381Y-77205010D02*
X70318381Y-77205010D01*
X70461238Y-77300248D01*
X70556476Y-77395486D01*
X70604095Y-77490724D01*
X47109143Y-97154381D02*
X46775809Y-96678190D01*
X46537714Y-97154381D02*
X46537714Y-96154381D01*
X46918667Y-96154381D01*
X47013905Y-96202000D01*
X47061524Y-96249619D01*
X47109143Y-96344857D01*
X47109143Y-96487714D01*
X47061524Y-96582952D01*
X47013905Y-96630571D01*
X46918667Y-96678190D01*
X46537714Y-96678190D01*
X47442476Y-96154381D02*
X48061524Y-96154381D01*
X47728190Y-96535333D01*
X47871048Y-96535333D01*
X47966286Y-96582952D01*
X48013905Y-96630571D01*
X48061524Y-96725810D01*
X48061524Y-96963905D01*
X48013905Y-97059143D01*
X47966286Y-97106762D01*
X47871048Y-97154381D01*
X47585333Y-97154381D01*
X47490095Y-97106762D01*
X47442476Y-97059143D01*
X48442476Y-96249619D02*
X48490095Y-96202000D01*
X48585333Y-96154381D01*
X48823429Y-96154381D01*
X48918667Y-96202000D01*
X48966286Y-96249619D01*
X49013905Y-96344857D01*
X49013905Y-96440095D01*
X48966286Y-96582952D01*
X48394857Y-97154381D01*
X49013905Y-97154381D01*
X60650381Y-92209857D02*
X60174190Y-92543191D01*
X60650381Y-92781286D02*
X59650381Y-92781286D01*
X59650381Y-92400333D01*
X59698000Y-92305095D01*
X59745619Y-92257476D01*
X59840857Y-92209857D01*
X59983714Y-92209857D01*
X60078952Y-92257476D01*
X60126571Y-92305095D01*
X60174190Y-92400333D01*
X60174190Y-92781286D01*
X59650381Y-91876524D02*
X59650381Y-91257476D01*
X60031333Y-91590810D01*
X60031333Y-91447952D01*
X60078952Y-91352714D01*
X60126571Y-91305095D01*
X60221810Y-91257476D01*
X60459905Y-91257476D01*
X60555143Y-91305095D01*
X60602762Y-91352714D01*
X60650381Y-91447952D01*
X60650381Y-91733667D01*
X60602762Y-91828905D01*
X60555143Y-91876524D01*
X59650381Y-90352714D02*
X59650381Y-90828905D01*
X60126571Y-90876524D01*
X60078952Y-90828905D01*
X60031333Y-90733667D01*
X60031333Y-90495571D01*
X60078952Y-90400333D01*
X60126571Y-90352714D01*
X60221810Y-90305095D01*
X60459905Y-90305095D01*
X60555143Y-90352714D01*
X60602762Y-90400333D01*
X60650381Y-90495571D01*
X60650381Y-90733667D01*
X60602762Y-90828905D01*
X60555143Y-90876524D01*
X54729143Y-89534381D02*
X54395809Y-89058190D01*
X54157714Y-89534381D02*
X54157714Y-88534381D01*
X54538667Y-88534381D01*
X54633905Y-88582000D01*
X54681524Y-88629619D01*
X54729143Y-88724857D01*
X54729143Y-88867714D01*
X54681524Y-88962952D01*
X54633905Y-89010571D01*
X54538667Y-89058190D01*
X54157714Y-89058190D01*
X55062476Y-88534381D02*
X55681524Y-88534381D01*
X55348190Y-88915333D01*
X55491048Y-88915333D01*
X55586286Y-88962952D01*
X55633905Y-89010571D01*
X55681524Y-89105810D01*
X55681524Y-89343905D01*
X55633905Y-89439143D01*
X55586286Y-89486762D01*
X55491048Y-89534381D01*
X55205333Y-89534381D01*
X55110095Y-89486762D01*
X55062476Y-89439143D01*
X56538667Y-88534381D02*
X56348190Y-88534381D01*
X56252952Y-88582000D01*
X56205333Y-88629619D01*
X56110095Y-88772476D01*
X56062476Y-88962952D01*
X56062476Y-89343905D01*
X56110095Y-89439143D01*
X56157714Y-89486762D01*
X56252952Y-89534381D01*
X56443429Y-89534381D01*
X56538667Y-89486762D01*
X56586286Y-89439143D01*
X56633905Y-89343905D01*
X56633905Y-89105810D01*
X56586286Y-89010571D01*
X56538667Y-88962952D01*
X56443429Y-88915333D01*
X56252952Y-88915333D01*
X56157714Y-88962952D01*
X56110095Y-89010571D01*
X56062476Y-89105810D01*
X78866381Y-93098857D02*
X78390190Y-93432191D01*
X78866381Y-93670286D02*
X77866381Y-93670286D01*
X77866381Y-93289333D01*
X77914000Y-93194095D01*
X77961619Y-93146476D01*
X78056857Y-93098857D01*
X78199714Y-93098857D01*
X78294952Y-93146476D01*
X78342571Y-93194095D01*
X78390190Y-93289333D01*
X78390190Y-93670286D01*
X77866381Y-92765524D02*
X77866381Y-92146476D01*
X78247333Y-92479810D01*
X78247333Y-92336952D01*
X78294952Y-92241714D01*
X78342571Y-92194095D01*
X78437810Y-92146476D01*
X78675905Y-92146476D01*
X78771143Y-92194095D01*
X78818762Y-92241714D01*
X78866381Y-92336952D01*
X78866381Y-92622667D01*
X78818762Y-92717905D01*
X78771143Y-92765524D01*
X78866381Y-91670286D02*
X78866381Y-91479810D01*
X78818762Y-91384571D01*
X78771143Y-91336952D01*
X78628286Y-91241714D01*
X78437810Y-91194095D01*
X78056857Y-91194095D01*
X77961619Y-91241714D01*
X77914000Y-91289333D01*
X77866381Y-91384571D01*
X77866381Y-91575048D01*
X77914000Y-91670286D01*
X77961619Y-91717905D01*
X78056857Y-91765524D01*
X78294952Y-91765524D01*
X78390190Y-91717905D01*
X78437810Y-91670286D01*
X78485429Y-91575048D01*
X78485429Y-91384571D01*
X78437810Y-91289333D01*
X78390190Y-91241714D01*
X78294952Y-91194095D01*
X82694543Y-97302581D02*
X82361209Y-96826390D01*
X82123114Y-97302581D02*
X82123114Y-96302581D01*
X82504067Y-96302581D01*
X82599305Y-96350200D01*
X82646924Y-96397819D01*
X82694543Y-96493057D01*
X82694543Y-96635914D01*
X82646924Y-96731152D01*
X82599305Y-96778771D01*
X82504067Y-96826390D01*
X82123114Y-96826390D01*
X83551686Y-96635914D02*
X83551686Y-97302581D01*
X83313590Y-96254962D02*
X83075495Y-96969248D01*
X83694543Y-96969248D01*
X84265971Y-96302581D02*
X84361210Y-96302581D01*
X84456448Y-96350200D01*
X84504067Y-96397819D01*
X84551686Y-96493057D01*
X84599305Y-96683533D01*
X84599305Y-96921629D01*
X84551686Y-97112105D01*
X84504067Y-97207343D01*
X84456448Y-97254962D01*
X84361210Y-97302581D01*
X84265971Y-97302581D01*
X84170733Y-97254962D01*
X84123114Y-97207343D01*
X84075495Y-97112105D01*
X84027876Y-96921629D01*
X84027876Y-96683533D01*
X84075495Y-96493057D01*
X84123114Y-96397819D01*
X84170733Y-96350200D01*
X84265971Y-96302581D01*
X89527143Y-73041381D02*
X89193809Y-72565190D01*
X88955714Y-73041381D02*
X88955714Y-72041381D01*
X89336667Y-72041381D01*
X89431905Y-72089000D01*
X89479524Y-72136619D01*
X89527143Y-72231857D01*
X89527143Y-72374714D01*
X89479524Y-72469952D01*
X89431905Y-72517571D01*
X89336667Y-72565190D01*
X88955714Y-72565190D01*
X90384286Y-72374714D02*
X90384286Y-73041381D01*
X90146190Y-71993762D02*
X89908095Y-72708048D01*
X90527143Y-72708048D01*
X91431905Y-73041381D02*
X90860476Y-73041381D01*
X91146190Y-73041381D02*
X91146190Y-72041381D01*
X91050952Y-72184238D01*
X90955714Y-72279476D01*
X90860476Y-72327095D01*
X84542381Y-18795905D02*
X85351905Y-18795905D01*
X85447143Y-18748286D01*
X85494762Y-18700667D01*
X85542381Y-18605429D01*
X85542381Y-18414952D01*
X85494762Y-18319714D01*
X85447143Y-18272095D01*
X85351905Y-18224476D01*
X84542381Y-18224476D01*
X85542381Y-17224476D02*
X85542381Y-17795905D01*
X85542381Y-17510191D02*
X84542381Y-17510191D01*
X84685238Y-17605429D01*
X84780476Y-17700667D01*
X84828095Y-17795905D01*
X70485095Y-109916981D02*
X70485095Y-110726505D01*
X70532714Y-110821743D01*
X70580333Y-110869362D01*
X70675571Y-110916981D01*
X70866048Y-110916981D01*
X70961286Y-110869362D01*
X71008905Y-110821743D01*
X71056524Y-110726505D01*
X71056524Y-109916981D01*
X71961286Y-109916981D02*
X71770809Y-109916981D01*
X71675571Y-109964600D01*
X71627952Y-110012219D01*
X71532714Y-110155076D01*
X71485095Y-110345552D01*
X71485095Y-110726505D01*
X71532714Y-110821743D01*
X71580333Y-110869362D01*
X71675571Y-110916981D01*
X71866048Y-110916981D01*
X71961286Y-110869362D01*
X72008905Y-110821743D01*
X72056524Y-110726505D01*
X72056524Y-110488410D01*
X72008905Y-110393171D01*
X71961286Y-110345552D01*
X71866048Y-110297933D01*
X71675571Y-110297933D01*
X71580333Y-110345552D01*
X71532714Y-110393171D01*
X71485095Y-110488410D01*
X45978381Y-85820095D02*
X46787905Y-85820095D01*
X46883143Y-85772476D01*
X46930762Y-85724857D01*
X46978381Y-85629619D01*
X46978381Y-85439142D01*
X46930762Y-85343904D01*
X46883143Y-85296285D01*
X46787905Y-85248666D01*
X45978381Y-85248666D01*
X46978381Y-84248666D02*
X46978381Y-84820095D01*
X46978381Y-84534381D02*
X45978381Y-84534381D01*
X46121238Y-84629619D01*
X46216476Y-84724857D01*
X46264095Y-84820095D01*
X46978381Y-83296285D02*
X46978381Y-83867714D01*
X46978381Y-83582000D02*
X45978381Y-83582000D01*
X46121238Y-83677238D01*
X46216476Y-83772476D01*
X46264095Y-83867714D01*
X50887381Y-72770905D02*
X51696905Y-72770905D01*
X51792143Y-72723286D01*
X51839762Y-72675667D01*
X51887381Y-72580429D01*
X51887381Y-72389952D01*
X51839762Y-72294714D01*
X51792143Y-72247095D01*
X51696905Y-72199476D01*
X50887381Y-72199476D01*
X50887381Y-71818524D02*
X50887381Y-71151857D01*
X51887381Y-71580429D01*
X45553381Y-72897905D02*
X46362905Y-72897905D01*
X46458143Y-72850286D01*
X46505762Y-72802667D01*
X46553381Y-72707429D01*
X46553381Y-72516952D01*
X46505762Y-72421714D01*
X46458143Y-72374095D01*
X46362905Y-72326476D01*
X45553381Y-72326476D01*
X45981952Y-71707429D02*
X45934333Y-71802667D01*
X45886714Y-71850286D01*
X45791476Y-71897905D01*
X45743857Y-71897905D01*
X45648619Y-71850286D01*
X45601000Y-71802667D01*
X45553381Y-71707429D01*
X45553381Y-71516952D01*
X45601000Y-71421714D01*
X45648619Y-71374095D01*
X45743857Y-71326476D01*
X45791476Y-71326476D01*
X45886714Y-71374095D01*
X45934333Y-71421714D01*
X45981952Y-71516952D01*
X45981952Y-71707429D01*
X46029571Y-71802667D01*
X46077190Y-71850286D01*
X46172429Y-71897905D01*
X46362905Y-71897905D01*
X46458143Y-71850286D01*
X46505762Y-71802667D01*
X46553381Y-71707429D01*
X46553381Y-71516952D01*
X46505762Y-71421714D01*
X46458143Y-71374095D01*
X46362905Y-71326476D01*
X46172429Y-71326476D01*
X46077190Y-71374095D01*
X46029571Y-71421714D01*
X45981952Y-71516952D01*
X38314381Y-73278905D02*
X39123905Y-73278905D01*
X39219143Y-73231286D01*
X39266762Y-73183667D01*
X39314381Y-73088429D01*
X39314381Y-72897952D01*
X39266762Y-72802714D01*
X39219143Y-72755095D01*
X39123905Y-72707476D01*
X38314381Y-72707476D01*
X39314381Y-72183667D02*
X39314381Y-71993191D01*
X39266762Y-71897952D01*
X39219143Y-71850333D01*
X39076286Y-71755095D01*
X38885810Y-71707476D01*
X38504857Y-71707476D01*
X38409619Y-71755095D01*
X38362000Y-71802714D01*
X38314381Y-71897952D01*
X38314381Y-72088429D01*
X38362000Y-72183667D01*
X38409619Y-72231286D01*
X38504857Y-72278905D01*
X38742952Y-72278905D01*
X38838190Y-72231286D01*
X38885810Y-72183667D01*
X38933429Y-72088429D01*
X38933429Y-71897952D01*
X38885810Y-71802714D01*
X38838190Y-71755095D01*
X38742952Y-71707476D01*
X33742381Y-74009095D02*
X34551905Y-74009095D01*
X34647143Y-73961476D01*
X34694762Y-73913857D01*
X34742381Y-73818619D01*
X34742381Y-73628142D01*
X34694762Y-73532904D01*
X34647143Y-73485285D01*
X34551905Y-73437666D01*
X33742381Y-73437666D01*
X34742381Y-72437666D02*
X34742381Y-73009095D01*
X34742381Y-72723381D02*
X33742381Y-72723381D01*
X33885238Y-72818619D01*
X33980476Y-72913857D01*
X34028095Y-73009095D01*
X33742381Y-71818619D02*
X33742381Y-71723380D01*
X33790000Y-71628142D01*
X33837619Y-71580523D01*
X33932857Y-71532904D01*
X34123333Y-71485285D01*
X34361429Y-71485285D01*
X34551905Y-71532904D01*
X34647143Y-71580523D01*
X34694762Y-71628142D01*
X34742381Y-71723380D01*
X34742381Y-71818619D01*
X34694762Y-71913857D01*
X34647143Y-71961476D01*
X34551905Y-72009095D01*
X34361429Y-72056714D01*
X34123333Y-72056714D01*
X33932857Y-72009095D01*
X33837619Y-71961476D01*
X33790000Y-71913857D01*
X33742381Y-71818619D01*
X143536943Y-33999466D02*
X143584562Y-34047085D01*
X143632181Y-34189942D01*
X143632181Y-34285180D01*
X143584562Y-34428038D01*
X143489324Y-34523276D01*
X143394086Y-34570895D01*
X143203610Y-34618514D01*
X143060752Y-34618514D01*
X142870276Y-34570895D01*
X142775038Y-34523276D01*
X142679800Y-34428038D01*
X142632181Y-34285180D01*
X142632181Y-34189942D01*
X142679800Y-34047085D01*
X142727419Y-33999466D01*
X143632181Y-33523276D02*
X143632181Y-33332800D01*
X143584562Y-33237561D01*
X143536943Y-33189942D01*
X143394086Y-33094704D01*
X143203610Y-33047085D01*
X142822657Y-33047085D01*
X142727419Y-33094704D01*
X142679800Y-33142323D01*
X142632181Y-33237561D01*
X142632181Y-33428038D01*
X142679800Y-33523276D01*
X142727419Y-33570895D01*
X142822657Y-33618514D01*
X143060752Y-33618514D01*
X143155990Y-33570895D01*
X143203610Y-33523276D01*
X143251229Y-33428038D01*
X143251229Y-33237561D01*
X143203610Y-33142323D01*
X143155990Y-33094704D01*
X143060752Y-33047085D01*
X69264305Y-28468581D02*
X69264305Y-27468581D01*
X69502400Y-27468581D01*
X69645258Y-27516200D01*
X69740496Y-27611438D01*
X69788115Y-27706676D01*
X69835734Y-27897152D01*
X69835734Y-28040010D01*
X69788115Y-28230486D01*
X69740496Y-28325724D01*
X69645258Y-28420962D01*
X69502400Y-28468581D01*
X69264305Y-28468581D01*
X70216686Y-27563819D02*
X70264305Y-27516200D01*
X70359543Y-27468581D01*
X70597639Y-27468581D01*
X70692877Y-27516200D01*
X70740496Y-27563819D01*
X70788115Y-27659057D01*
X70788115Y-27754295D01*
X70740496Y-27897152D01*
X70169067Y-28468581D01*
X70788115Y-28468581D01*
X31059381Y-39092095D02*
X30059381Y-39092095D01*
X30059381Y-38854000D01*
X30107000Y-38711142D01*
X30202238Y-38615904D01*
X30297476Y-38568285D01*
X30487952Y-38520666D01*
X30630810Y-38520666D01*
X30821286Y-38568285D01*
X30916524Y-38615904D01*
X31011762Y-38711142D01*
X31059381Y-38854000D01*
X31059381Y-39092095D01*
X30059381Y-37615904D02*
X30059381Y-38092095D01*
X30535571Y-38139714D01*
X30487952Y-38092095D01*
X30440333Y-37996857D01*
X30440333Y-37758761D01*
X30487952Y-37663523D01*
X30535571Y-37615904D01*
X30630810Y-37568285D01*
X30868905Y-37568285D01*
X30964143Y-37615904D01*
X31011762Y-37663523D01*
X31059381Y-37758761D01*
X31059381Y-37996857D01*
X31011762Y-38092095D01*
X30964143Y-38139714D01*
X26239905Y-23272381D02*
X26239905Y-22272381D01*
X26478000Y-22272381D01*
X26620858Y-22320000D01*
X26716096Y-22415238D01*
X26763715Y-22510476D01*
X26811334Y-22700952D01*
X26811334Y-22843810D01*
X26763715Y-23034286D01*
X26716096Y-23129524D01*
X26620858Y-23224762D01*
X26478000Y-23272381D01*
X26239905Y-23272381D01*
X27668477Y-22272381D02*
X27478000Y-22272381D01*
X27382762Y-22320000D01*
X27335143Y-22367619D01*
X27239905Y-22510476D01*
X27192286Y-22700952D01*
X27192286Y-23081905D01*
X27239905Y-23177143D01*
X27287524Y-23224762D01*
X27382762Y-23272381D01*
X27573239Y-23272381D01*
X27668477Y-23224762D01*
X27716096Y-23177143D01*
X27763715Y-23081905D01*
X27763715Y-22843810D01*
X27716096Y-22748571D01*
X27668477Y-22700952D01*
X27573239Y-22653333D01*
X27382762Y-22653333D01*
X27287524Y-22700952D01*
X27239905Y-22748571D01*
X27192286Y-22843810D01*
X163067381Y-75287095D02*
X162067381Y-75287095D01*
X162067381Y-75049000D01*
X162115000Y-74906142D01*
X162210238Y-74810904D01*
X162305476Y-74763285D01*
X162495952Y-74715666D01*
X162638810Y-74715666D01*
X162829286Y-74763285D01*
X162924524Y-74810904D01*
X163019762Y-74906142D01*
X163067381Y-75049000D01*
X163067381Y-75287095D01*
X162067381Y-74382333D02*
X162067381Y-73715666D01*
X163067381Y-74144238D01*
X50450381Y-94686286D02*
X49450381Y-94686286D01*
X49450381Y-94448191D01*
X49498000Y-94305333D01*
X49593238Y-94210095D01*
X49688476Y-94162476D01*
X49878952Y-94114857D01*
X50021810Y-94114857D01*
X50212286Y-94162476D01*
X50307524Y-94210095D01*
X50402762Y-94305333D01*
X50450381Y-94448191D01*
X50450381Y-94686286D01*
X50450381Y-93162476D02*
X50450381Y-93733905D01*
X50450381Y-93448191D02*
X49450381Y-93448191D01*
X49593238Y-93543429D01*
X49688476Y-93638667D01*
X49736095Y-93733905D01*
X49545619Y-92781524D02*
X49498000Y-92733905D01*
X49450381Y-92638667D01*
X49450381Y-92400571D01*
X49498000Y-92305333D01*
X49545619Y-92257714D01*
X49640857Y-92210095D01*
X49736095Y-92210095D01*
X49878952Y-92257714D01*
X50450381Y-92829143D01*
X50450381Y-92210095D01*
X165071467Y-99325181D02*
X165071467Y-100039467D01*
X165023847Y-100182324D01*
X164928609Y-100277562D01*
X164785752Y-100325181D01*
X164690514Y-100325181D01*
X165500038Y-99420419D02*
X165547657Y-99372800D01*
X165642895Y-99325181D01*
X165880991Y-99325181D01*
X165976229Y-99372800D01*
X166023848Y-99420419D01*
X166071467Y-99515657D01*
X166071467Y-99610895D01*
X166023848Y-99753752D01*
X165452419Y-100325181D01*
X166071467Y-100325181D01*
X23441067Y-15682981D02*
X23441067Y-16397267D01*
X23393447Y-16540124D01*
X23298209Y-16635362D01*
X23155352Y-16682981D01*
X23060114Y-16682981D01*
X23822019Y-15682981D02*
X24441067Y-15682981D01*
X24107733Y-16063933D01*
X24250591Y-16063933D01*
X24345829Y-16111552D01*
X24393448Y-16159171D01*
X24441067Y-16254410D01*
X24441067Y-16492505D01*
X24393448Y-16587743D01*
X24345829Y-16635362D01*
X24250591Y-16682981D01*
X23964876Y-16682981D01*
X23869638Y-16635362D01*
X23822019Y-16587743D01*
X166562267Y-22435181D02*
X166562267Y-23149467D01*
X166514647Y-23292324D01*
X166419409Y-23387562D01*
X166276552Y-23435181D01*
X166181314Y-23435181D01*
X167514648Y-22435181D02*
X167038457Y-22435181D01*
X166990838Y-22911371D01*
X167038457Y-22863752D01*
X167133695Y-22816133D01*
X167371791Y-22816133D01*
X167467029Y-22863752D01*
X167514648Y-22911371D01*
X167562267Y-23006610D01*
X167562267Y-23244705D01*
X167514648Y-23339943D01*
X167467029Y-23387562D01*
X167371791Y-23435181D01*
X167133695Y-23435181D01*
X167038457Y-23387562D01*
X166990838Y-23339943D01*
X23974467Y-102220781D02*
X23974467Y-102935067D01*
X23926847Y-103077924D01*
X23831609Y-103173162D01*
X23688752Y-103220781D01*
X23593514Y-103220781D01*
X24879229Y-102220781D02*
X24688752Y-102220781D01*
X24593514Y-102268400D01*
X24545895Y-102316019D01*
X24450657Y-102458876D01*
X24403038Y-102649352D01*
X24403038Y-103030305D01*
X24450657Y-103125543D01*
X24498276Y-103173162D01*
X24593514Y-103220781D01*
X24783991Y-103220781D01*
X24879229Y-103173162D01*
X24926848Y-103125543D01*
X24974467Y-103030305D01*
X24974467Y-102792210D01*
X24926848Y-102696971D01*
X24879229Y-102649352D01*
X24783991Y-102601733D01*
X24593514Y-102601733D01*
X24498276Y-102649352D01*
X24450657Y-102696971D01*
X24403038Y-102792210D01*
X29449781Y-30400523D02*
X30164067Y-30400523D01*
X30306924Y-30448143D01*
X30402162Y-30543381D01*
X30449781Y-30686238D01*
X30449781Y-30781476D01*
X30449781Y-29400523D02*
X30449781Y-29971952D01*
X30449781Y-29686238D02*
X29449781Y-29686238D01*
X29592638Y-29781476D01*
X29687876Y-29876714D01*
X29735495Y-29971952D01*
X29449781Y-28781476D02*
X29449781Y-28686237D01*
X29497400Y-28590999D01*
X29545019Y-28543380D01*
X29640257Y-28495761D01*
X29830733Y-28448142D01*
X30068829Y-28448142D01*
X30259305Y-28495761D01*
X30354543Y-28543380D01*
X30402162Y-28590999D01*
X30449781Y-28686237D01*
X30449781Y-28781476D01*
X30402162Y-28876714D01*
X30354543Y-28924333D01*
X30259305Y-28971952D01*
X30068829Y-29019571D01*
X29830733Y-29019571D01*
X29640257Y-28971952D01*
X29545019Y-28924333D01*
X29497400Y-28876714D01*
X29449781Y-28781476D01*
X37349181Y-27936723D02*
X38063467Y-27936723D01*
X38206324Y-27984343D01*
X38301562Y-28079581D01*
X38349181Y-28222438D01*
X38349181Y-28317676D01*
X38349181Y-26936723D02*
X38349181Y-27508152D01*
X38349181Y-27222438D02*
X37349181Y-27222438D01*
X37492038Y-27317676D01*
X37587276Y-27412914D01*
X37634895Y-27508152D01*
X38349181Y-25984342D02*
X38349181Y-26555771D01*
X38349181Y-26270057D02*
X37349181Y-26270057D01*
X37492038Y-26365295D01*
X37587276Y-26460533D01*
X37634895Y-26555771D01*
X147377381Y-47732905D02*
X148186905Y-47732905D01*
X148282143Y-47685286D01*
X148329762Y-47637667D01*
X148377381Y-47542429D01*
X148377381Y-47351952D01*
X148329762Y-47256714D01*
X148282143Y-47209095D01*
X148186905Y-47161476D01*
X147377381Y-47161476D01*
X147472619Y-46732905D02*
X147425000Y-46685286D01*
X147377381Y-46590048D01*
X147377381Y-46351952D01*
X147425000Y-46256714D01*
X147472619Y-46209095D01*
X147567857Y-46161476D01*
X147663095Y-46161476D01*
X147805952Y-46209095D01*
X148377381Y-46780524D01*
X148377381Y-46161476D01*
X93713881Y-45637405D02*
X94523405Y-45637405D01*
X94618643Y-45589786D01*
X94666262Y-45542167D01*
X94713881Y-45446929D01*
X94713881Y-45256452D01*
X94666262Y-45161214D01*
X94618643Y-45113595D01*
X94523405Y-45065976D01*
X93713881Y-45065976D01*
X94047214Y-44161214D02*
X94713881Y-44161214D01*
X93666262Y-44399310D02*
X94380548Y-44637405D01*
X94380548Y-44018357D01*
X160285181Y-82905505D02*
X161094705Y-82905505D01*
X161189943Y-82857886D01*
X161237562Y-82810267D01*
X161285181Y-82715029D01*
X161285181Y-82524552D01*
X161237562Y-82429314D01*
X161189943Y-82381695D01*
X161094705Y-82334076D01*
X160285181Y-82334076D01*
X160285181Y-81381695D02*
X160285181Y-81857886D01*
X160761371Y-81905505D01*
X160713752Y-81857886D01*
X160666133Y-81762648D01*
X160666133Y-81524552D01*
X160713752Y-81429314D01*
X160761371Y-81381695D01*
X160856610Y-81334076D01*
X161094705Y-81334076D01*
X161189943Y-81381695D01*
X161237562Y-81429314D01*
X161285181Y-81524552D01*
X161285181Y-81762648D01*
X161237562Y-81857886D01*
X161189943Y-81905505D01*
X92192381Y-81902095D02*
X93001905Y-81902095D01*
X93097143Y-81854476D01*
X93144762Y-81806857D01*
X93192381Y-81711619D01*
X93192381Y-81521142D01*
X93144762Y-81425904D01*
X93097143Y-81378285D01*
X93001905Y-81330666D01*
X92192381Y-81330666D01*
X93192381Y-80330666D02*
X93192381Y-80902095D01*
X93192381Y-80616381D02*
X92192381Y-80616381D01*
X92335238Y-80711619D01*
X92430476Y-80806857D01*
X92478095Y-80902095D01*
X92287619Y-79949714D02*
X92240000Y-79902095D01*
X92192381Y-79806857D01*
X92192381Y-79568761D01*
X92240000Y-79473523D01*
X92287619Y-79425904D01*
X92382857Y-79378285D01*
X92478095Y-79378285D01*
X92620952Y-79425904D01*
X93192381Y-79997333D01*
X93192381Y-79378285D01*
X22780667Y-41362381D02*
X22780667Y-42076667D01*
X22733047Y-42219524D01*
X22637809Y-42314762D01*
X22494952Y-42362381D01*
X22399714Y-42362381D01*
X23161619Y-41362381D02*
X23828286Y-41362381D01*
X23399714Y-42362381D01*
X55637181Y-105965523D02*
X56351467Y-105965523D01*
X56494324Y-106013143D01*
X56589562Y-106108381D01*
X56637181Y-106251238D01*
X56637181Y-106346476D01*
X56637181Y-104965523D02*
X56637181Y-105536952D01*
X56637181Y-105251238D02*
X55637181Y-105251238D01*
X55780038Y-105346476D01*
X55875276Y-105441714D01*
X55922895Y-105536952D01*
X55637181Y-104632190D02*
X55637181Y-104013142D01*
X56018133Y-104346476D01*
X56018133Y-104203618D01*
X56065752Y-104108380D01*
X56113371Y-104060761D01*
X56208610Y-104013142D01*
X56446705Y-104013142D01*
X56541943Y-104060761D01*
X56589562Y-104108380D01*
X56637181Y-104203618D01*
X56637181Y-104489333D01*
X56589562Y-104584571D01*
X56541943Y-104632190D01*
X91259267Y-96573181D02*
X91259267Y-97287467D01*
X91211647Y-97430324D01*
X91116409Y-97525562D01*
X90973552Y-97573181D01*
X90878314Y-97573181D01*
X92259267Y-97573181D02*
X91687838Y-97573181D01*
X91973552Y-97573181D02*
X91973552Y-96573181D01*
X91878314Y-96716038D01*
X91783076Y-96811276D01*
X91687838Y-96858895D01*
X107444381Y-35715333D02*
X108158667Y-35715333D01*
X108301524Y-35762953D01*
X108396762Y-35858191D01*
X108444381Y-36001048D01*
X108444381Y-36096286D01*
X107777714Y-34810571D02*
X108444381Y-34810571D01*
X107396762Y-35048667D02*
X108111048Y-35286762D01*
X108111048Y-34667714D01*
X24052381Y-32683333D02*
X24766667Y-32683333D01*
X24909524Y-32730953D01*
X25004762Y-32826191D01*
X25052381Y-32969048D01*
X25052381Y-33064286D01*
X24480952Y-32064286D02*
X24433333Y-32159524D01*
X24385714Y-32207143D01*
X24290476Y-32254762D01*
X24242857Y-32254762D01*
X24147619Y-32207143D01*
X24100000Y-32159524D01*
X24052381Y-32064286D01*
X24052381Y-31873809D01*
X24100000Y-31778571D01*
X24147619Y-31730952D01*
X24242857Y-31683333D01*
X24290476Y-31683333D01*
X24385714Y-31730952D01*
X24433333Y-31778571D01*
X24480952Y-31873809D01*
X24480952Y-32064286D01*
X24528571Y-32159524D01*
X24576190Y-32207143D01*
X24671429Y-32254762D01*
X24861905Y-32254762D01*
X24957143Y-32207143D01*
X25004762Y-32159524D01*
X25052381Y-32064286D01*
X25052381Y-31873809D01*
X25004762Y-31778571D01*
X24957143Y-31730952D01*
X24861905Y-31683333D01*
X24671429Y-31683333D01*
X24576190Y-31730952D01*
X24528571Y-31778571D01*
X24480952Y-31873809D01*
X43116667Y-23952381D02*
X43116667Y-24666667D01*
X43069047Y-24809524D01*
X42973809Y-24904762D01*
X42830952Y-24952381D01*
X42735714Y-24952381D01*
X43640476Y-24952381D02*
X43830952Y-24952381D01*
X43926191Y-24904762D01*
X43973810Y-24857143D01*
X44069048Y-24714286D01*
X44116667Y-24523810D01*
X44116667Y-24142857D01*
X44069048Y-24047619D01*
X44021429Y-24000000D01*
X43926191Y-23952381D01*
X43735714Y-23952381D01*
X43640476Y-24000000D01*
X43592857Y-24047619D01*
X43545238Y-24142857D01*
X43545238Y-24380952D01*
X43592857Y-24476190D01*
X43640476Y-24523810D01*
X43735714Y-24571429D01*
X43926191Y-24571429D01*
X44021429Y-24523810D01*
X44069048Y-24476190D01*
X44116667Y-24380952D01*
X108841381Y-92325523D02*
X109555667Y-92325523D01*
X109698524Y-92373143D01*
X109793762Y-92468381D01*
X109841381Y-92611238D01*
X109841381Y-92706476D01*
X109841381Y-91325523D02*
X109841381Y-91896952D01*
X109841381Y-91611238D02*
X108841381Y-91611238D01*
X108984238Y-91706476D01*
X109079476Y-91801714D01*
X109127095Y-91896952D01*
X108936619Y-90944571D02*
X108889000Y-90896952D01*
X108841381Y-90801714D01*
X108841381Y-90563618D01*
X108889000Y-90468380D01*
X108936619Y-90420761D01*
X109031857Y-90373142D01*
X109127095Y-90373142D01*
X109269952Y-90420761D01*
X109841381Y-90992190D01*
X109841381Y-90373142D01*
X39895543Y-60303743D02*
X39847924Y-60351362D01*
X39705067Y-60398981D01*
X39609829Y-60398981D01*
X39466971Y-60351362D01*
X39371733Y-60256124D01*
X39324114Y-60160886D01*
X39276495Y-59970410D01*
X39276495Y-59827552D01*
X39324114Y-59637076D01*
X39371733Y-59541838D01*
X39466971Y-59446600D01*
X39609829Y-59398981D01*
X39705067Y-59398981D01*
X39847924Y-59446600D01*
X39895543Y-59494219D01*
X40228876Y-59398981D02*
X40847924Y-59398981D01*
X40514590Y-59779933D01*
X40657448Y-59779933D01*
X40752686Y-59827552D01*
X40800305Y-59875171D01*
X40847924Y-59970410D01*
X40847924Y-60208505D01*
X40800305Y-60303743D01*
X40752686Y-60351362D01*
X40657448Y-60398981D01*
X40371733Y-60398981D01*
X40276495Y-60351362D01*
X40228876Y-60303743D01*
X41181257Y-59398981D02*
X41800305Y-59398981D01*
X41466971Y-59779933D01*
X41609829Y-59779933D01*
X41705067Y-59827552D01*
X41752686Y-59875171D01*
X41800305Y-59970410D01*
X41800305Y-60208505D01*
X41752686Y-60303743D01*
X41705067Y-60351362D01*
X41609829Y-60398981D01*
X41324114Y-60398981D01*
X41228876Y-60351362D01*
X41181257Y-60303743D01*
X39819343Y-47620181D02*
X39486009Y-47143990D01*
X39247914Y-47620181D02*
X39247914Y-46620181D01*
X39628867Y-46620181D01*
X39724105Y-46667800D01*
X39771724Y-46715419D01*
X39819343Y-46810657D01*
X39819343Y-46953514D01*
X39771724Y-47048752D01*
X39724105Y-47096371D01*
X39628867Y-47143990D01*
X39247914Y-47143990D01*
X40152676Y-46620181D02*
X40771724Y-46620181D01*
X40438390Y-47001133D01*
X40581248Y-47001133D01*
X40676486Y-47048752D01*
X40724105Y-47096371D01*
X40771724Y-47191610D01*
X40771724Y-47429705D01*
X40724105Y-47524943D01*
X40676486Y-47572562D01*
X40581248Y-47620181D01*
X40295533Y-47620181D01*
X40200295Y-47572562D01*
X40152676Y-47524943D01*
X41105057Y-46620181D02*
X41724105Y-46620181D01*
X41390771Y-47001133D01*
X41533629Y-47001133D01*
X41628867Y-47048752D01*
X41676486Y-47096371D01*
X41724105Y-47191610D01*
X41724105Y-47429705D01*
X41676486Y-47524943D01*
X41628867Y-47572562D01*
X41533629Y-47620181D01*
X41247914Y-47620181D01*
X41152676Y-47572562D01*
X41105057Y-47524943D01*
X39895543Y-49982381D02*
X39562209Y-49506190D01*
X39324114Y-49982381D02*
X39324114Y-48982381D01*
X39705067Y-48982381D01*
X39800305Y-49030000D01*
X39847924Y-49077619D01*
X39895543Y-49172857D01*
X39895543Y-49315714D01*
X39847924Y-49410952D01*
X39800305Y-49458571D01*
X39705067Y-49506190D01*
X39324114Y-49506190D01*
X40228876Y-48982381D02*
X40847924Y-48982381D01*
X40514590Y-49363333D01*
X40657448Y-49363333D01*
X40752686Y-49410952D01*
X40800305Y-49458571D01*
X40847924Y-49553810D01*
X40847924Y-49791905D01*
X40800305Y-49887143D01*
X40752686Y-49934762D01*
X40657448Y-49982381D01*
X40371733Y-49982381D01*
X40276495Y-49934762D01*
X40228876Y-49887143D01*
X41705067Y-49315714D02*
X41705067Y-49982381D01*
X41466971Y-48934762D02*
X41228876Y-49649048D01*
X41847924Y-49649048D01*
X39666943Y-44648381D02*
X39333609Y-44172190D01*
X39095514Y-44648381D02*
X39095514Y-43648381D01*
X39476467Y-43648381D01*
X39571705Y-43696000D01*
X39619324Y-43743619D01*
X39666943Y-43838857D01*
X39666943Y-43981714D01*
X39619324Y-44076952D01*
X39571705Y-44124571D01*
X39476467Y-44172190D01*
X39095514Y-44172190D01*
X40000276Y-43648381D02*
X40619324Y-43648381D01*
X40285990Y-44029333D01*
X40428848Y-44029333D01*
X40524086Y-44076952D01*
X40571705Y-44124571D01*
X40619324Y-44219810D01*
X40619324Y-44457905D01*
X40571705Y-44553143D01*
X40524086Y-44600762D01*
X40428848Y-44648381D01*
X40143133Y-44648381D01*
X40047895Y-44600762D01*
X40000276Y-44553143D01*
X40952657Y-43648381D02*
X41619324Y-43648381D01*
X41190752Y-44648381D01*
X34917143Y-40182181D02*
X34583809Y-39705990D01*
X34345714Y-40182181D02*
X34345714Y-39182181D01*
X34726667Y-39182181D01*
X34821905Y-39229800D01*
X34869524Y-39277419D01*
X34917143Y-39372657D01*
X34917143Y-39515514D01*
X34869524Y-39610752D01*
X34821905Y-39658371D01*
X34726667Y-39705990D01*
X34345714Y-39705990D01*
X35250476Y-39182181D02*
X35869524Y-39182181D01*
X35536190Y-39563133D01*
X35679048Y-39563133D01*
X35774286Y-39610752D01*
X35821905Y-39658371D01*
X35869524Y-39753610D01*
X35869524Y-39991705D01*
X35821905Y-40086943D01*
X35774286Y-40134562D01*
X35679048Y-40182181D01*
X35393333Y-40182181D01*
X35298095Y-40134562D01*
X35250476Y-40086943D01*
X36440952Y-39610752D02*
X36345714Y-39563133D01*
X36298095Y-39515514D01*
X36250476Y-39420276D01*
X36250476Y-39372657D01*
X36298095Y-39277419D01*
X36345714Y-39229800D01*
X36440952Y-39182181D01*
X36631429Y-39182181D01*
X36726667Y-39229800D01*
X36774286Y-39277419D01*
X36821905Y-39372657D01*
X36821905Y-39420276D01*
X36774286Y-39515514D01*
X36726667Y-39563133D01*
X36631429Y-39610752D01*
X36440952Y-39610752D01*
X36345714Y-39658371D01*
X36298095Y-39705990D01*
X36250476Y-39801229D01*
X36250476Y-39991705D01*
X36298095Y-40086943D01*
X36345714Y-40134562D01*
X36440952Y-40182181D01*
X36631429Y-40182181D01*
X36726667Y-40134562D01*
X36774286Y-40086943D01*
X36821905Y-39991705D01*
X36821905Y-39801229D01*
X36774286Y-39705990D01*
X36726667Y-39658371D01*
X36631429Y-39610752D01*
X57627781Y-29014657D02*
X57151590Y-29347991D01*
X57627781Y-29586086D02*
X56627781Y-29586086D01*
X56627781Y-29205133D01*
X56675400Y-29109895D01*
X56723019Y-29062276D01*
X56818257Y-29014657D01*
X56961114Y-29014657D01*
X57056352Y-29062276D01*
X57103971Y-29109895D01*
X57151590Y-29205133D01*
X57151590Y-29586086D01*
X56961114Y-28157514D02*
X57627781Y-28157514D01*
X56580162Y-28395610D02*
X57294448Y-28633705D01*
X57294448Y-28014657D01*
X56723019Y-27681324D02*
X56675400Y-27633705D01*
X56627781Y-27538467D01*
X56627781Y-27300371D01*
X56675400Y-27205133D01*
X56723019Y-27157514D01*
X56818257Y-27109895D01*
X56913495Y-27109895D01*
X57056352Y-27157514D01*
X57627781Y-27728943D01*
X57627781Y-27109895D01*
X68611905Y-41115581D02*
X68611905Y-41925105D01*
X68659524Y-42020343D01*
X68707143Y-42067962D01*
X68802381Y-42115581D01*
X68992858Y-42115581D01*
X69088096Y-42067962D01*
X69135715Y-42020343D01*
X69183334Y-41925105D01*
X69183334Y-41115581D01*
X70183334Y-42115581D02*
X69611905Y-42115581D01*
X69897619Y-42115581D02*
X69897619Y-41115581D01*
X69802381Y-41258438D01*
X69707143Y-41353676D01*
X69611905Y-41401295D01*
X70516667Y-41115581D02*
X71135715Y-41115581D01*
X70802381Y-41496533D01*
X70945239Y-41496533D01*
X71040477Y-41544152D01*
X71088096Y-41591771D01*
X71135715Y-41687010D01*
X71135715Y-41925105D01*
X71088096Y-42020343D01*
X71040477Y-42067962D01*
X70945239Y-42115581D01*
X70659524Y-42115581D01*
X70564286Y-42067962D01*
X70516667Y-42020343D01*
M02*
