G04 #@! TF.FileFunction,Copper,L2,Bot,Plane*
%FSLAX46Y46*%
G04 Gerber Fmt 4.6, Leading zero omitted, Abs format (unit mm)*
G04 Created by KiCad (PCBNEW 4.0.6) date 11/14/17 15:59:31*
%MOMM*%
%LPD*%
G01*
G04 APERTURE LIST*
%ADD10C,0.100000*%
%ADD11C,2.500000*%
%ADD12R,1.524000X1.524000*%
%ADD13C,1.524000*%
%ADD14R,1.600000X1.600000*%
%ADD15O,1.600000X1.600000*%
%ADD16C,8.200000*%
%ADD17R,1.700000X1.700000*%
%ADD18O,1.700000X1.700000*%
%ADD19R,3.000000X3.000000*%
%ADD20C,0.500000*%
%ADD21R,3.600000X1.800000*%
%ADD22O,3.600000X1.800000*%
%ADD23R,1.800000X3.600000*%
%ADD24O,1.800000X3.600000*%
%ADD25R,2.000000X3.600000*%
%ADD26O,2.000000X3.600000*%
%ADD27R,3.600000X2.000000*%
%ADD28O,3.600000X2.000000*%
%ADD29C,0.600000*%
%ADD30C,0.508000*%
%ADD31C,0.440000*%
%ADD32C,0.400000*%
%ADD33C,0.254000*%
G04 APERTURE END LIST*
D10*
D11*
X133170000Y-64008000D03*
X110670000Y-64008000D03*
X116420000Y-73758000D03*
X116420000Y-54258000D03*
D12*
X62230000Y-63500000D03*
D13*
X62230000Y-60960000D03*
X62230000Y-58420000D03*
X62230000Y-55880000D03*
X62230000Y-53340000D03*
X62230000Y-50800000D03*
X62230000Y-48260000D03*
X62230000Y-45720000D03*
X62230000Y-43180000D03*
X62230000Y-40640000D03*
X62230000Y-38100000D03*
X62230000Y-35560000D03*
X62230000Y-33020000D03*
X62230000Y-30480000D03*
X62230000Y-27940000D03*
X46990000Y-27940000D03*
X46990000Y-30480000D03*
X46990000Y-33020000D03*
X46990000Y-35560000D03*
X46990000Y-38100000D03*
X46990000Y-40640000D03*
X46990000Y-43180000D03*
X46990000Y-45720000D03*
X46990000Y-48260000D03*
X46990000Y-50800000D03*
X46990000Y-53340000D03*
X46990000Y-55880000D03*
X46990000Y-58420000D03*
X46990000Y-60960000D03*
X46990000Y-63500000D03*
X81534000Y-19304000D03*
X78740000Y-19304000D03*
X73914000Y-19304000D03*
X68834000Y-19304000D03*
X70358000Y-106680000D03*
X70358000Y-103886000D03*
X70358000Y-99060000D03*
X70358000Y-93980000D03*
D14*
X44196000Y-80772000D03*
D15*
X36576000Y-88392000D03*
X41656000Y-80772000D03*
X39116000Y-88392000D03*
X39116000Y-80772000D03*
X41656000Y-88392000D03*
X36576000Y-80772000D03*
X44196000Y-88392000D03*
D16*
X166000000Y-106000000D03*
X18000000Y-18000000D03*
X166000000Y-18000000D03*
X18000000Y-106000000D03*
D17*
X27686000Y-32258000D03*
D18*
X27686000Y-29718000D03*
D17*
X32512000Y-26670000D03*
D18*
X35052000Y-26670000D03*
D19*
X152875000Y-46971000D03*
D20*
X151732000Y-45828000D03*
X154018000Y-45828000D03*
X154018000Y-48114000D03*
X151732000Y-48114000D03*
X151732000Y-46971000D03*
X152494000Y-48114000D03*
X152494000Y-46971000D03*
X152494000Y-45828000D03*
X153256000Y-45828000D03*
X153256000Y-46971000D03*
X153256000Y-48114000D03*
X154018000Y-46971000D03*
D19*
X89311500Y-44875500D03*
D20*
X90454500Y-46018500D03*
X88168500Y-46018500D03*
X88168500Y-43732500D03*
X90454500Y-43732500D03*
X90454500Y-44875500D03*
X89692500Y-43732500D03*
X89692500Y-44875500D03*
X89692500Y-46018500D03*
X88930500Y-46018500D03*
X88930500Y-44875500D03*
X88930500Y-43732500D03*
X88168500Y-44875500D03*
D19*
X155735000Y-82061000D03*
D20*
X154592000Y-80918000D03*
X156878000Y-80918000D03*
X156878000Y-83204000D03*
X154592000Y-83204000D03*
X154592000Y-82061000D03*
X155354000Y-83204000D03*
X155354000Y-82061000D03*
X155354000Y-80918000D03*
X156116000Y-80918000D03*
X156116000Y-82061000D03*
X156116000Y-83204000D03*
X156878000Y-82061000D03*
D19*
X87790000Y-80664000D03*
D20*
X88933000Y-81807000D03*
X86647000Y-81807000D03*
X86647000Y-79521000D03*
X88933000Y-79521000D03*
X88933000Y-80664000D03*
X88171000Y-79521000D03*
X88171000Y-80664000D03*
X88171000Y-81807000D03*
X87409000Y-81807000D03*
X87409000Y-80664000D03*
X87409000Y-79521000D03*
X86647000Y-80664000D03*
D21*
X18800000Y-45700000D03*
D22*
X18800000Y-50780000D03*
X18800000Y-55860000D03*
X18800000Y-60940000D03*
X18800000Y-66020000D03*
D23*
X42545000Y-104749600D03*
D24*
X47625000Y-104749600D03*
X52705000Y-104749600D03*
D25*
X86842600Y-102920800D03*
D26*
X94342600Y-102920800D03*
D27*
X113792000Y-40132000D03*
D28*
X113792000Y-32632000D03*
D27*
X18800000Y-27600000D03*
D28*
X18800000Y-35100000D03*
D25*
X48200000Y-18700000D03*
D26*
X40700000Y-18700000D03*
D27*
X115189000Y-96266000D03*
D28*
X115189000Y-88766000D03*
D29*
X37846000Y-100711000D03*
X59944000Y-96266000D03*
X146939000Y-41148000D03*
X133604000Y-45593000D03*
X96901000Y-70866000D03*
X102616000Y-72136000D03*
X105791000Y-49911000D03*
X101346000Y-49911000D03*
X154787600Y-26162000D03*
X108407200Y-37134800D03*
X85344000Y-61595000D03*
X108204000Y-34163000D03*
X156718000Y-70739000D03*
X108966000Y-84226400D03*
X87426800Y-88747600D03*
X108940600Y-93116400D03*
X30200600Y-32207200D03*
X62331600Y-24993600D03*
X160274000Y-29337000D03*
X132689600Y-38303200D03*
X156718000Y-29337000D03*
X107289600Y-37058600D03*
X135305800Y-31013400D03*
X80772000Y-61722000D03*
X107289600Y-29108400D03*
X83820000Y-61849000D03*
X163703000Y-66675000D03*
X133680200Y-85394800D03*
X41579800Y-67259200D03*
X55041800Y-45999400D03*
X53314600Y-67157600D03*
X58216800Y-37973000D03*
X158242000Y-65024000D03*
X107924600Y-85445600D03*
X50546000Y-84328000D03*
X40132000Y-77978000D03*
X50546000Y-81280000D03*
X38354000Y-77216000D03*
X133908800Y-93243400D03*
X80264000Y-97536000D03*
X83312000Y-96520000D03*
X107924600Y-93091000D03*
X29718000Y-20320000D03*
X64770000Y-25806400D03*
X65709800Y-36753800D03*
X65582800Y-38201600D03*
D30*
X37846000Y-100711000D02*
X57353200Y-100711000D01*
X59944000Y-98120200D02*
X59944000Y-96266000D01*
X57353200Y-100711000D02*
X59944000Y-98120200D01*
X146939000Y-44831000D02*
X146939000Y-41148000D01*
X133604000Y-45593000D02*
X146177000Y-45593000D01*
X146177000Y-45593000D02*
X146939000Y-44831000D01*
X102616000Y-72136000D02*
X100076000Y-72136000D01*
X98806000Y-70866000D02*
X96901000Y-70866000D01*
X100076000Y-72136000D02*
X98806000Y-70866000D01*
X101346000Y-49911000D02*
X105791000Y-49911000D01*
X101346000Y-49911000D02*
X101219000Y-49911000D01*
X108407200Y-37134800D02*
X142443200Y-37134800D01*
X153416000Y-26162000D02*
X154787600Y-26162000D01*
X142443200Y-37134800D02*
X153416000Y-26162000D01*
X108204000Y-34163000D02*
X104648000Y-34163000D01*
X92913200Y-61595000D02*
X85344000Y-61595000D01*
X97510600Y-56997600D02*
X92913200Y-61595000D01*
X97510600Y-41300400D02*
X97510600Y-56997600D01*
X104648000Y-34163000D02*
X97510600Y-41300400D01*
X108204000Y-34163000D02*
X108204000Y-34188400D01*
X108966000Y-84226400D02*
X122783600Y-84226400D01*
X159816800Y-67640200D02*
X156718000Y-70739000D01*
X159816800Y-64414400D02*
X159816800Y-67640200D01*
X158851600Y-63449200D02*
X159816800Y-64414400D01*
X143560800Y-63449200D02*
X158851600Y-63449200D01*
X122783600Y-84226400D02*
X143560800Y-63449200D01*
X108940600Y-93116400D02*
X108940600Y-92862400D01*
X104825800Y-88747600D02*
X87426800Y-88747600D01*
X108940600Y-92862400D02*
X104825800Y-88747600D01*
D31*
X108966000Y-93091000D02*
X108966000Y-93065600D01*
X108940600Y-93116400D02*
X108966000Y-93091000D01*
D30*
X62331600Y-24993600D02*
X62331600Y-24714200D01*
X33197800Y-32207200D02*
X30200600Y-32207200D01*
X41325800Y-24079200D02*
X33197800Y-32207200D01*
X60553600Y-23901400D02*
X41325800Y-24079200D01*
X62331600Y-24714200D02*
X60553600Y-23901400D01*
D31*
X132689600Y-38303200D02*
X143687800Y-38303200D01*
X160274000Y-28549600D02*
X160274000Y-29337000D01*
X159486600Y-27000200D02*
X160274000Y-28549600D01*
X154228800Y-27000200D02*
X159486600Y-27000200D01*
X143687800Y-38303200D02*
X154228800Y-27000200D01*
D30*
X156718000Y-29337000D02*
X155067000Y-29337000D01*
X109728000Y-38735000D02*
X107289600Y-38735000D01*
X110490000Y-37973000D02*
X109728000Y-38735000D01*
X129794000Y-37973000D02*
X110490000Y-37973000D01*
X131191000Y-39370000D02*
X129794000Y-37973000D01*
X145034000Y-39370000D02*
X131191000Y-39370000D01*
X155067000Y-29337000D02*
X145034000Y-39370000D01*
X107289600Y-37058600D02*
X107289600Y-38735000D01*
D31*
X107289600Y-37058600D02*
X107264200Y-37058600D01*
D30*
X98837692Y-41402000D02*
X98837692Y-41385222D01*
D31*
X135305800Y-33604200D02*
X135305800Y-31013400D01*
X134010400Y-34899600D02*
X135305800Y-33604200D01*
X106730800Y-34899600D02*
X134010400Y-34899600D01*
X99060000Y-41162914D02*
X106730800Y-34899600D01*
D30*
X98837692Y-41385222D02*
X99060000Y-41162914D01*
X82092800Y-63398400D02*
X92811600Y-63398400D01*
D31*
X80772000Y-62585600D02*
X82092800Y-63398400D01*
X80772000Y-61722000D02*
X80772000Y-62585600D01*
D30*
X98806000Y-41370308D02*
X98837692Y-41402000D01*
X98806000Y-57404000D02*
X98806000Y-41370308D01*
X92811600Y-63398400D02*
X98806000Y-57404000D01*
X85217000Y-60452000D02*
X83820000Y-61849000D01*
X92202000Y-60452000D02*
X85217000Y-60452000D01*
X96774000Y-55880000D02*
X92202000Y-60452000D01*
X96774000Y-40894000D02*
X96774000Y-55880000D01*
X102870000Y-34798000D02*
X96774000Y-40894000D01*
X102870000Y-30226000D02*
X102870000Y-34798000D01*
X103987600Y-29108400D02*
X102870000Y-30226000D01*
X107289600Y-29108400D02*
X103987600Y-29108400D01*
X133680200Y-85394800D02*
X144983200Y-85394800D01*
X144983200Y-85394800D02*
X163703000Y-66675000D01*
X55041800Y-45999400D02*
X55041800Y-59309000D01*
X47091600Y-67259200D02*
X41579800Y-67259200D01*
X55041800Y-59309000D02*
X47091600Y-67259200D01*
X55041800Y-45999400D02*
X55143400Y-45999400D01*
X53314600Y-67157600D02*
X53314600Y-66700400D01*
X58216800Y-61798200D02*
X58216800Y-37973000D01*
X53314600Y-66700400D02*
X58216800Y-61798200D01*
X158242000Y-65024000D02*
X143814800Y-65024000D01*
X123393200Y-85445600D02*
X107924600Y-85445600D01*
X143814800Y-65024000D02*
X123393200Y-85445600D01*
X50546000Y-84328000D02*
X43180000Y-84328000D01*
X41656000Y-82804000D02*
X41656000Y-80772000D01*
X43180000Y-84328000D02*
X41656000Y-82804000D01*
X50546000Y-81280000D02*
X50546000Y-79756000D01*
X39370000Y-76200000D02*
X38354000Y-77216000D01*
X46990000Y-76200000D02*
X39370000Y-76200000D01*
X50546000Y-79756000D02*
X46990000Y-76200000D01*
X80264000Y-102819200D02*
X80264000Y-105333800D01*
X82346800Y-107416600D02*
X82524600Y-107416600D01*
X80264000Y-105333800D02*
X82346800Y-107416600D01*
X133908800Y-93243400D02*
X128498600Y-93243400D01*
X117652800Y-107416600D02*
X82524600Y-107416600D01*
X128498600Y-93243400D02*
X117652800Y-107416600D01*
X80264000Y-102870000D02*
X80264000Y-102819200D01*
X80264000Y-102819200D02*
X80264000Y-97536000D01*
X107924600Y-93091000D02*
X86487000Y-93091000D01*
X84226400Y-96520000D02*
X83312000Y-96520000D01*
X85013800Y-95732600D02*
X84226400Y-96520000D01*
X85013800Y-94564200D02*
X85013800Y-95732600D01*
X86487000Y-93091000D02*
X85013800Y-94564200D01*
X18546000Y-50812400D02*
X20396500Y-50812400D01*
X44323000Y-50863500D02*
X46990000Y-50800000D01*
X24701500Y-50863500D02*
X44323000Y-50863500D01*
X20396500Y-50812400D02*
X24701500Y-50863500D01*
X18800000Y-55860000D02*
X25648600Y-55860000D01*
X28168600Y-53340000D02*
X46990000Y-53340000D01*
X25648600Y-55860000D02*
X28168600Y-53340000D01*
X19310000Y-60700000D02*
X18800000Y-60700000D01*
X46990000Y-45720000D02*
X47828200Y-45720000D01*
X47828200Y-45720000D02*
X57835800Y-35712400D01*
X57835800Y-35712400D02*
X57835800Y-28117800D01*
X57835800Y-28117800D02*
X60147200Y-25806400D01*
X60147200Y-25806400D02*
X64770000Y-25806400D01*
D32*
X65709800Y-36753800D02*
X65709800Y-33959800D01*
X65709800Y-33959800D02*
X62230000Y-30480000D01*
X65709800Y-36753800D02*
X65735200Y-36753800D01*
D30*
X46990000Y-48260000D02*
X48437800Y-48260000D01*
X64770000Y-39014400D02*
X65582800Y-38201600D01*
X64770000Y-66624200D02*
X64770000Y-39014400D01*
X62582402Y-68811798D02*
X64770000Y-66624200D01*
X40592398Y-68811798D02*
X62582402Y-68811798D01*
X39776400Y-67995800D02*
X40592398Y-68811798D01*
X39776400Y-66852800D02*
X39776400Y-67995800D01*
X41046400Y-65582800D02*
X39776400Y-66852800D01*
X46863000Y-65582800D02*
X41046400Y-65582800D01*
X49352200Y-63093600D02*
X46863000Y-65582800D01*
X49352200Y-49174400D02*
X49352200Y-63093600D01*
X48437800Y-48260000D02*
X49352200Y-49174400D01*
D32*
X65582800Y-38201600D02*
X65557400Y-38201600D01*
D33*
G36*
X74219247Y-73100857D02*
X74319943Y-101623088D01*
X67388484Y-101498421D01*
X67338902Y-101507536D01*
X67296773Y-101535224D01*
X67268735Y-101577121D01*
X67259200Y-101625067D01*
X67234135Y-111190047D01*
X13177657Y-110767849D01*
X13181823Y-106937718D01*
X13264180Y-106937718D01*
X13983522Y-108678658D01*
X15314336Y-110011797D01*
X17054018Y-110734176D01*
X18937718Y-110735820D01*
X20678658Y-110016478D01*
X22011797Y-108685664D01*
X22734176Y-106945982D01*
X22735820Y-105062282D01*
X22016478Y-103321342D01*
X21645385Y-102949600D01*
X40997560Y-102949600D01*
X40997560Y-106549600D01*
X41041838Y-106784917D01*
X41180910Y-107001041D01*
X41393110Y-107146031D01*
X41645000Y-107197040D01*
X43445000Y-107197040D01*
X43680317Y-107152762D01*
X43896441Y-107013690D01*
X44041431Y-106801490D01*
X44092440Y-106549600D01*
X44092440Y-103801896D01*
X46090000Y-103801896D01*
X46090000Y-105697304D01*
X46206845Y-106284723D01*
X46539591Y-106782713D01*
X47037581Y-107115459D01*
X47625000Y-107232304D01*
X48212419Y-107115459D01*
X48710409Y-106782713D01*
X49043155Y-106284723D01*
X49160000Y-105697304D01*
X49160000Y-104876600D01*
X51170000Y-104876600D01*
X51170000Y-105776600D01*
X51335446Y-106354352D01*
X51709394Y-106824812D01*
X52234914Y-107116356D01*
X52340260Y-107140636D01*
X52578000Y-107019978D01*
X52578000Y-104876600D01*
X52832000Y-104876600D01*
X52832000Y-107019978D01*
X53069740Y-107140636D01*
X53175086Y-107116356D01*
X53700606Y-106824812D01*
X54074554Y-106354352D01*
X54240000Y-105776600D01*
X54240000Y-104876600D01*
X52832000Y-104876600D01*
X52578000Y-104876600D01*
X51170000Y-104876600D01*
X49160000Y-104876600D01*
X49160000Y-103801896D01*
X49144228Y-103722600D01*
X51170000Y-103722600D01*
X51170000Y-104622600D01*
X52578000Y-104622600D01*
X52578000Y-102479222D01*
X52832000Y-102479222D01*
X52832000Y-104622600D01*
X54240000Y-104622600D01*
X54240000Y-103722600D01*
X54074554Y-103144848D01*
X53700606Y-102674388D01*
X53175086Y-102382844D01*
X53069740Y-102358564D01*
X52832000Y-102479222D01*
X52578000Y-102479222D01*
X52340260Y-102358564D01*
X52234914Y-102382844D01*
X51709394Y-102674388D01*
X51335446Y-103144848D01*
X51170000Y-103722600D01*
X49144228Y-103722600D01*
X49043155Y-103214477D01*
X48710409Y-102716487D01*
X48212419Y-102383741D01*
X47625000Y-102266896D01*
X47037581Y-102383741D01*
X46539591Y-102716487D01*
X46206845Y-103214477D01*
X46090000Y-103801896D01*
X44092440Y-103801896D01*
X44092440Y-102949600D01*
X44048162Y-102714283D01*
X43909090Y-102498159D01*
X43696890Y-102353169D01*
X43445000Y-102302160D01*
X41645000Y-102302160D01*
X41409683Y-102346438D01*
X41193559Y-102485510D01*
X41048569Y-102697710D01*
X40997560Y-102949600D01*
X21645385Y-102949600D01*
X20685664Y-101988203D01*
X18945982Y-101265824D01*
X17062282Y-101264180D01*
X15321342Y-101983522D01*
X13988203Y-103314336D01*
X13265824Y-105054018D01*
X13264180Y-106937718D01*
X13181823Y-106937718D01*
X13188395Y-100896167D01*
X36910838Y-100896167D01*
X37052883Y-101239943D01*
X37315673Y-101503192D01*
X37659201Y-101645838D01*
X38031167Y-101646162D01*
X38142888Y-101600000D01*
X57353200Y-101600000D01*
X57693406Y-101532329D01*
X57981818Y-101339618D01*
X59281223Y-100040213D01*
X69557392Y-100040213D01*
X69626857Y-100282397D01*
X70150302Y-100469144D01*
X70705368Y-100441362D01*
X71089143Y-100282397D01*
X71158608Y-100040213D01*
X70358000Y-99239605D01*
X69557392Y-100040213D01*
X59281223Y-100040213D01*
X60469134Y-98852302D01*
X68948856Y-98852302D01*
X68976638Y-99407368D01*
X69135603Y-99791143D01*
X69377787Y-99860608D01*
X70178395Y-99060000D01*
X70537605Y-99060000D01*
X71338213Y-99860608D01*
X71580397Y-99791143D01*
X71767144Y-99267698D01*
X71739362Y-98712632D01*
X71580397Y-98328857D01*
X71338213Y-98259392D01*
X70537605Y-99060000D01*
X70178395Y-99060000D01*
X69377787Y-98259392D01*
X69135603Y-98328857D01*
X68948856Y-98852302D01*
X60469134Y-98852302D01*
X60572618Y-98748818D01*
X60765329Y-98460406D01*
X60833000Y-98120200D01*
X60833000Y-98079787D01*
X69557392Y-98079787D01*
X70358000Y-98880395D01*
X71158608Y-98079787D01*
X71089143Y-97837603D01*
X70565698Y-97650856D01*
X70010632Y-97678638D01*
X69626857Y-97837603D01*
X69557392Y-98079787D01*
X60833000Y-98079787D01*
X60833000Y-96563189D01*
X60878838Y-96452799D01*
X60879162Y-96080833D01*
X60737117Y-95737057D01*
X60474327Y-95473808D01*
X60130799Y-95331162D01*
X59758833Y-95330838D01*
X59415057Y-95472883D01*
X59151808Y-95735673D01*
X59009162Y-96079201D01*
X59008838Y-96451167D01*
X59055000Y-96562888D01*
X59055000Y-97751964D01*
X56984964Y-99822000D01*
X38143189Y-99822000D01*
X38032799Y-99776162D01*
X37660833Y-99775838D01*
X37317057Y-99917883D01*
X37053808Y-100180673D01*
X36911162Y-100524201D01*
X36910838Y-100896167D01*
X13188395Y-100896167D01*
X13195618Y-94256661D01*
X68960758Y-94256661D01*
X69172990Y-94770303D01*
X69565630Y-95163629D01*
X70078900Y-95376757D01*
X70634661Y-95377242D01*
X71148303Y-95165010D01*
X71541629Y-94772370D01*
X71754757Y-94259100D01*
X71755242Y-93703339D01*
X71543010Y-93189697D01*
X71150370Y-92796371D01*
X70637100Y-92583243D01*
X70081339Y-92582758D01*
X69567697Y-92794990D01*
X69174371Y-93187630D01*
X68961243Y-93700900D01*
X68960758Y-94256661D01*
X13195618Y-94256661D01*
X13201619Y-88741041D01*
X35184086Y-88741041D01*
X35423611Y-89247134D01*
X35838577Y-89623041D01*
X36226961Y-89783904D01*
X36449000Y-89661915D01*
X36449000Y-88519000D01*
X35305371Y-88519000D01*
X35184086Y-88741041D01*
X13201619Y-88741041D01*
X13201916Y-88468338D01*
X13191964Y-88418917D01*
X13164804Y-88379076D01*
X13193527Y-88112600D01*
X27660600Y-88112600D01*
X27710010Y-88102594D01*
X27751635Y-88074153D01*
X27771707Y-88042959D01*
X35184086Y-88042959D01*
X35305371Y-88265000D01*
X36449000Y-88265000D01*
X36449000Y-87122085D01*
X36703000Y-87122085D01*
X36703000Y-88265000D01*
X36723000Y-88265000D01*
X36723000Y-88519000D01*
X36703000Y-88519000D01*
X36703000Y-89661915D01*
X36925039Y-89783904D01*
X37313423Y-89623041D01*
X37728389Y-89247134D01*
X37831014Y-89030297D01*
X38101302Y-89434811D01*
X38566849Y-89745880D01*
X39116000Y-89855113D01*
X39665151Y-89745880D01*
X40130698Y-89434811D01*
X40386000Y-89052725D01*
X40641302Y-89434811D01*
X41106849Y-89745880D01*
X41656000Y-89855113D01*
X42205151Y-89745880D01*
X42670698Y-89434811D01*
X42926000Y-89052725D01*
X43181302Y-89434811D01*
X43646849Y-89745880D01*
X44196000Y-89855113D01*
X44745151Y-89745880D01*
X45210698Y-89434811D01*
X45521767Y-88969264D01*
X45631000Y-88420113D01*
X45631000Y-88363887D01*
X45521767Y-87814736D01*
X45210698Y-87349189D01*
X44745151Y-87038120D01*
X44196000Y-86928887D01*
X43646849Y-87038120D01*
X43181302Y-87349189D01*
X42926000Y-87731275D01*
X42670698Y-87349189D01*
X42205151Y-87038120D01*
X41656000Y-86928887D01*
X41106849Y-87038120D01*
X40641302Y-87349189D01*
X40386000Y-87731275D01*
X40130698Y-87349189D01*
X39665151Y-87038120D01*
X39116000Y-86928887D01*
X38566849Y-87038120D01*
X38101302Y-87349189D01*
X37831014Y-87753703D01*
X37728389Y-87536866D01*
X37313423Y-87160959D01*
X36925039Y-87000096D01*
X36703000Y-87122085D01*
X36449000Y-87122085D01*
X36226961Y-87000096D01*
X35838577Y-87160959D01*
X35423611Y-87536866D01*
X35184086Y-88042959D01*
X27771707Y-88042959D01*
X27778915Y-88031759D01*
X27787597Y-87984748D01*
X27739001Y-80743887D01*
X35141000Y-80743887D01*
X35141000Y-80800113D01*
X35250233Y-81349264D01*
X35561302Y-81814811D01*
X36026849Y-82125880D01*
X36576000Y-82235113D01*
X37125151Y-82125880D01*
X37590698Y-81814811D01*
X37846000Y-81432725D01*
X38101302Y-81814811D01*
X38566849Y-82125880D01*
X39116000Y-82235113D01*
X39665151Y-82125880D01*
X40130698Y-81814811D01*
X40386000Y-81432725D01*
X40641302Y-81814811D01*
X40767000Y-81898800D01*
X40767000Y-82804000D01*
X40834671Y-83144206D01*
X41000802Y-83392838D01*
X41027382Y-83432618D01*
X42551382Y-84956618D01*
X42839794Y-85149329D01*
X43180000Y-85217000D01*
X50248811Y-85217000D01*
X50359201Y-85262838D01*
X50731167Y-85263162D01*
X51074943Y-85121117D01*
X51338192Y-84858327D01*
X51480838Y-84514799D01*
X51481162Y-84142833D01*
X51339117Y-83799057D01*
X51076327Y-83535808D01*
X50732799Y-83393162D01*
X50360833Y-83392838D01*
X50249112Y-83439000D01*
X43548236Y-83439000D01*
X42545000Y-82435764D01*
X42545000Y-81898800D01*
X42670698Y-81814811D01*
X42767101Y-81670535D01*
X42792838Y-81807317D01*
X42931910Y-82023441D01*
X43144110Y-82168431D01*
X43396000Y-82219440D01*
X44996000Y-82219440D01*
X45231317Y-82175162D01*
X45447441Y-82036090D01*
X45592431Y-81823890D01*
X45643440Y-81572000D01*
X45643440Y-79972000D01*
X45599162Y-79736683D01*
X45460090Y-79520559D01*
X45247890Y-79375569D01*
X44996000Y-79324560D01*
X43396000Y-79324560D01*
X43160683Y-79368838D01*
X42944559Y-79507910D01*
X42799569Y-79720110D01*
X42768185Y-79875089D01*
X42670698Y-79729189D01*
X42205151Y-79418120D01*
X41656000Y-79308887D01*
X41106849Y-79418120D01*
X40641302Y-79729189D01*
X40386000Y-80111275D01*
X40130698Y-79729189D01*
X39665151Y-79418120D01*
X39116000Y-79308887D01*
X38566849Y-79418120D01*
X38101302Y-79729189D01*
X37846000Y-80111275D01*
X37590698Y-79729189D01*
X37125151Y-79418120D01*
X36576000Y-79308887D01*
X36026849Y-79418120D01*
X35561302Y-79729189D01*
X35250233Y-80194736D01*
X35141000Y-80743887D01*
X27739001Y-80743887D01*
X27716567Y-77401167D01*
X37418838Y-77401167D01*
X37560883Y-77744943D01*
X37823673Y-78008192D01*
X38167201Y-78150838D01*
X38539167Y-78151162D01*
X38882943Y-78009117D01*
X39146192Y-77746327D01*
X39192549Y-77634687D01*
X39311578Y-77515658D01*
X39197162Y-77791201D01*
X39196838Y-78163167D01*
X39338883Y-78506943D01*
X39601673Y-78770192D01*
X39945201Y-78912838D01*
X40317167Y-78913162D01*
X40660943Y-78771117D01*
X40924192Y-78508327D01*
X41066838Y-78164799D01*
X41067162Y-77792833D01*
X40925117Y-77449057D01*
X40662327Y-77185808D01*
X40429189Y-77089000D01*
X46621764Y-77089000D01*
X49657000Y-80124236D01*
X49657000Y-80982811D01*
X49611162Y-81093201D01*
X49610838Y-81465167D01*
X49752883Y-81808943D01*
X50015673Y-82072192D01*
X50359201Y-82214838D01*
X50731167Y-82215162D01*
X51074943Y-82073117D01*
X51338192Y-81810327D01*
X51480838Y-81466799D01*
X51481162Y-81094833D01*
X51435000Y-80983112D01*
X51435000Y-79756000D01*
X51367329Y-79415794D01*
X51174618Y-79127382D01*
X47618618Y-75571382D01*
X47330206Y-75378671D01*
X46990000Y-75311000D01*
X39370000Y-75311000D01*
X39029794Y-75378671D01*
X38741382Y-75571382D01*
X37935526Y-76377238D01*
X37825057Y-76422883D01*
X37561808Y-76685673D01*
X37419162Y-77029201D01*
X37418838Y-77401167D01*
X27716567Y-77401167D01*
X27686857Y-72974548D01*
X74219247Y-73100857D01*
X74219247Y-73100857D01*
G37*
X74219247Y-73100857D02*
X74319943Y-101623088D01*
X67388484Y-101498421D01*
X67338902Y-101507536D01*
X67296773Y-101535224D01*
X67268735Y-101577121D01*
X67259200Y-101625067D01*
X67234135Y-111190047D01*
X13177657Y-110767849D01*
X13181823Y-106937718D01*
X13264180Y-106937718D01*
X13983522Y-108678658D01*
X15314336Y-110011797D01*
X17054018Y-110734176D01*
X18937718Y-110735820D01*
X20678658Y-110016478D01*
X22011797Y-108685664D01*
X22734176Y-106945982D01*
X22735820Y-105062282D01*
X22016478Y-103321342D01*
X21645385Y-102949600D01*
X40997560Y-102949600D01*
X40997560Y-106549600D01*
X41041838Y-106784917D01*
X41180910Y-107001041D01*
X41393110Y-107146031D01*
X41645000Y-107197040D01*
X43445000Y-107197040D01*
X43680317Y-107152762D01*
X43896441Y-107013690D01*
X44041431Y-106801490D01*
X44092440Y-106549600D01*
X44092440Y-103801896D01*
X46090000Y-103801896D01*
X46090000Y-105697304D01*
X46206845Y-106284723D01*
X46539591Y-106782713D01*
X47037581Y-107115459D01*
X47625000Y-107232304D01*
X48212419Y-107115459D01*
X48710409Y-106782713D01*
X49043155Y-106284723D01*
X49160000Y-105697304D01*
X49160000Y-104876600D01*
X51170000Y-104876600D01*
X51170000Y-105776600D01*
X51335446Y-106354352D01*
X51709394Y-106824812D01*
X52234914Y-107116356D01*
X52340260Y-107140636D01*
X52578000Y-107019978D01*
X52578000Y-104876600D01*
X52832000Y-104876600D01*
X52832000Y-107019978D01*
X53069740Y-107140636D01*
X53175086Y-107116356D01*
X53700606Y-106824812D01*
X54074554Y-106354352D01*
X54240000Y-105776600D01*
X54240000Y-104876600D01*
X52832000Y-104876600D01*
X52578000Y-104876600D01*
X51170000Y-104876600D01*
X49160000Y-104876600D01*
X49160000Y-103801896D01*
X49144228Y-103722600D01*
X51170000Y-103722600D01*
X51170000Y-104622600D01*
X52578000Y-104622600D01*
X52578000Y-102479222D01*
X52832000Y-102479222D01*
X52832000Y-104622600D01*
X54240000Y-104622600D01*
X54240000Y-103722600D01*
X54074554Y-103144848D01*
X53700606Y-102674388D01*
X53175086Y-102382844D01*
X53069740Y-102358564D01*
X52832000Y-102479222D01*
X52578000Y-102479222D01*
X52340260Y-102358564D01*
X52234914Y-102382844D01*
X51709394Y-102674388D01*
X51335446Y-103144848D01*
X51170000Y-103722600D01*
X49144228Y-103722600D01*
X49043155Y-103214477D01*
X48710409Y-102716487D01*
X48212419Y-102383741D01*
X47625000Y-102266896D01*
X47037581Y-102383741D01*
X46539591Y-102716487D01*
X46206845Y-103214477D01*
X46090000Y-103801896D01*
X44092440Y-103801896D01*
X44092440Y-102949600D01*
X44048162Y-102714283D01*
X43909090Y-102498159D01*
X43696890Y-102353169D01*
X43445000Y-102302160D01*
X41645000Y-102302160D01*
X41409683Y-102346438D01*
X41193559Y-102485510D01*
X41048569Y-102697710D01*
X40997560Y-102949600D01*
X21645385Y-102949600D01*
X20685664Y-101988203D01*
X18945982Y-101265824D01*
X17062282Y-101264180D01*
X15321342Y-101983522D01*
X13988203Y-103314336D01*
X13265824Y-105054018D01*
X13264180Y-106937718D01*
X13181823Y-106937718D01*
X13188395Y-100896167D01*
X36910838Y-100896167D01*
X37052883Y-101239943D01*
X37315673Y-101503192D01*
X37659201Y-101645838D01*
X38031167Y-101646162D01*
X38142888Y-101600000D01*
X57353200Y-101600000D01*
X57693406Y-101532329D01*
X57981818Y-101339618D01*
X59281223Y-100040213D01*
X69557392Y-100040213D01*
X69626857Y-100282397D01*
X70150302Y-100469144D01*
X70705368Y-100441362D01*
X71089143Y-100282397D01*
X71158608Y-100040213D01*
X70358000Y-99239605D01*
X69557392Y-100040213D01*
X59281223Y-100040213D01*
X60469134Y-98852302D01*
X68948856Y-98852302D01*
X68976638Y-99407368D01*
X69135603Y-99791143D01*
X69377787Y-99860608D01*
X70178395Y-99060000D01*
X70537605Y-99060000D01*
X71338213Y-99860608D01*
X71580397Y-99791143D01*
X71767144Y-99267698D01*
X71739362Y-98712632D01*
X71580397Y-98328857D01*
X71338213Y-98259392D01*
X70537605Y-99060000D01*
X70178395Y-99060000D01*
X69377787Y-98259392D01*
X69135603Y-98328857D01*
X68948856Y-98852302D01*
X60469134Y-98852302D01*
X60572618Y-98748818D01*
X60765329Y-98460406D01*
X60833000Y-98120200D01*
X60833000Y-98079787D01*
X69557392Y-98079787D01*
X70358000Y-98880395D01*
X71158608Y-98079787D01*
X71089143Y-97837603D01*
X70565698Y-97650856D01*
X70010632Y-97678638D01*
X69626857Y-97837603D01*
X69557392Y-98079787D01*
X60833000Y-98079787D01*
X60833000Y-96563189D01*
X60878838Y-96452799D01*
X60879162Y-96080833D01*
X60737117Y-95737057D01*
X60474327Y-95473808D01*
X60130799Y-95331162D01*
X59758833Y-95330838D01*
X59415057Y-95472883D01*
X59151808Y-95735673D01*
X59009162Y-96079201D01*
X59008838Y-96451167D01*
X59055000Y-96562888D01*
X59055000Y-97751964D01*
X56984964Y-99822000D01*
X38143189Y-99822000D01*
X38032799Y-99776162D01*
X37660833Y-99775838D01*
X37317057Y-99917883D01*
X37053808Y-100180673D01*
X36911162Y-100524201D01*
X36910838Y-100896167D01*
X13188395Y-100896167D01*
X13195618Y-94256661D01*
X68960758Y-94256661D01*
X69172990Y-94770303D01*
X69565630Y-95163629D01*
X70078900Y-95376757D01*
X70634661Y-95377242D01*
X71148303Y-95165010D01*
X71541629Y-94772370D01*
X71754757Y-94259100D01*
X71755242Y-93703339D01*
X71543010Y-93189697D01*
X71150370Y-92796371D01*
X70637100Y-92583243D01*
X70081339Y-92582758D01*
X69567697Y-92794990D01*
X69174371Y-93187630D01*
X68961243Y-93700900D01*
X68960758Y-94256661D01*
X13195618Y-94256661D01*
X13201619Y-88741041D01*
X35184086Y-88741041D01*
X35423611Y-89247134D01*
X35838577Y-89623041D01*
X36226961Y-89783904D01*
X36449000Y-89661915D01*
X36449000Y-88519000D01*
X35305371Y-88519000D01*
X35184086Y-88741041D01*
X13201619Y-88741041D01*
X13201916Y-88468338D01*
X13191964Y-88418917D01*
X13164804Y-88379076D01*
X13193527Y-88112600D01*
X27660600Y-88112600D01*
X27710010Y-88102594D01*
X27751635Y-88074153D01*
X27771707Y-88042959D01*
X35184086Y-88042959D01*
X35305371Y-88265000D01*
X36449000Y-88265000D01*
X36449000Y-87122085D01*
X36703000Y-87122085D01*
X36703000Y-88265000D01*
X36723000Y-88265000D01*
X36723000Y-88519000D01*
X36703000Y-88519000D01*
X36703000Y-89661915D01*
X36925039Y-89783904D01*
X37313423Y-89623041D01*
X37728389Y-89247134D01*
X37831014Y-89030297D01*
X38101302Y-89434811D01*
X38566849Y-89745880D01*
X39116000Y-89855113D01*
X39665151Y-89745880D01*
X40130698Y-89434811D01*
X40386000Y-89052725D01*
X40641302Y-89434811D01*
X41106849Y-89745880D01*
X41656000Y-89855113D01*
X42205151Y-89745880D01*
X42670698Y-89434811D01*
X42926000Y-89052725D01*
X43181302Y-89434811D01*
X43646849Y-89745880D01*
X44196000Y-89855113D01*
X44745151Y-89745880D01*
X45210698Y-89434811D01*
X45521767Y-88969264D01*
X45631000Y-88420113D01*
X45631000Y-88363887D01*
X45521767Y-87814736D01*
X45210698Y-87349189D01*
X44745151Y-87038120D01*
X44196000Y-86928887D01*
X43646849Y-87038120D01*
X43181302Y-87349189D01*
X42926000Y-87731275D01*
X42670698Y-87349189D01*
X42205151Y-87038120D01*
X41656000Y-86928887D01*
X41106849Y-87038120D01*
X40641302Y-87349189D01*
X40386000Y-87731275D01*
X40130698Y-87349189D01*
X39665151Y-87038120D01*
X39116000Y-86928887D01*
X38566849Y-87038120D01*
X38101302Y-87349189D01*
X37831014Y-87753703D01*
X37728389Y-87536866D01*
X37313423Y-87160959D01*
X36925039Y-87000096D01*
X36703000Y-87122085D01*
X36449000Y-87122085D01*
X36226961Y-87000096D01*
X35838577Y-87160959D01*
X35423611Y-87536866D01*
X35184086Y-88042959D01*
X27771707Y-88042959D01*
X27778915Y-88031759D01*
X27787597Y-87984748D01*
X27739001Y-80743887D01*
X35141000Y-80743887D01*
X35141000Y-80800113D01*
X35250233Y-81349264D01*
X35561302Y-81814811D01*
X36026849Y-82125880D01*
X36576000Y-82235113D01*
X37125151Y-82125880D01*
X37590698Y-81814811D01*
X37846000Y-81432725D01*
X38101302Y-81814811D01*
X38566849Y-82125880D01*
X39116000Y-82235113D01*
X39665151Y-82125880D01*
X40130698Y-81814811D01*
X40386000Y-81432725D01*
X40641302Y-81814811D01*
X40767000Y-81898800D01*
X40767000Y-82804000D01*
X40834671Y-83144206D01*
X41000802Y-83392838D01*
X41027382Y-83432618D01*
X42551382Y-84956618D01*
X42839794Y-85149329D01*
X43180000Y-85217000D01*
X50248811Y-85217000D01*
X50359201Y-85262838D01*
X50731167Y-85263162D01*
X51074943Y-85121117D01*
X51338192Y-84858327D01*
X51480838Y-84514799D01*
X51481162Y-84142833D01*
X51339117Y-83799057D01*
X51076327Y-83535808D01*
X50732799Y-83393162D01*
X50360833Y-83392838D01*
X50249112Y-83439000D01*
X43548236Y-83439000D01*
X42545000Y-82435764D01*
X42545000Y-81898800D01*
X42670698Y-81814811D01*
X42767101Y-81670535D01*
X42792838Y-81807317D01*
X42931910Y-82023441D01*
X43144110Y-82168431D01*
X43396000Y-82219440D01*
X44996000Y-82219440D01*
X45231317Y-82175162D01*
X45447441Y-82036090D01*
X45592431Y-81823890D01*
X45643440Y-81572000D01*
X45643440Y-79972000D01*
X45599162Y-79736683D01*
X45460090Y-79520559D01*
X45247890Y-79375569D01*
X44996000Y-79324560D01*
X43396000Y-79324560D01*
X43160683Y-79368838D01*
X42944559Y-79507910D01*
X42799569Y-79720110D01*
X42768185Y-79875089D01*
X42670698Y-79729189D01*
X42205151Y-79418120D01*
X41656000Y-79308887D01*
X41106849Y-79418120D01*
X40641302Y-79729189D01*
X40386000Y-80111275D01*
X40130698Y-79729189D01*
X39665151Y-79418120D01*
X39116000Y-79308887D01*
X38566849Y-79418120D01*
X38101302Y-79729189D01*
X37846000Y-80111275D01*
X37590698Y-79729189D01*
X37125151Y-79418120D01*
X36576000Y-79308887D01*
X36026849Y-79418120D01*
X35561302Y-79729189D01*
X35250233Y-80194736D01*
X35141000Y-80743887D01*
X27739001Y-80743887D01*
X27716567Y-77401167D01*
X37418838Y-77401167D01*
X37560883Y-77744943D01*
X37823673Y-78008192D01*
X38167201Y-78150838D01*
X38539167Y-78151162D01*
X38882943Y-78009117D01*
X39146192Y-77746327D01*
X39192549Y-77634687D01*
X39311578Y-77515658D01*
X39197162Y-77791201D01*
X39196838Y-78163167D01*
X39338883Y-78506943D01*
X39601673Y-78770192D01*
X39945201Y-78912838D01*
X40317167Y-78913162D01*
X40660943Y-78771117D01*
X40924192Y-78508327D01*
X41066838Y-78164799D01*
X41067162Y-77792833D01*
X40925117Y-77449057D01*
X40662327Y-77185808D01*
X40429189Y-77089000D01*
X46621764Y-77089000D01*
X49657000Y-80124236D01*
X49657000Y-80982811D01*
X49611162Y-81093201D01*
X49610838Y-81465167D01*
X49752883Y-81808943D01*
X50015673Y-82072192D01*
X50359201Y-82214838D01*
X50731167Y-82215162D01*
X51074943Y-82073117D01*
X51338192Y-81810327D01*
X51480838Y-81466799D01*
X51481162Y-81094833D01*
X51435000Y-80983112D01*
X51435000Y-79756000D01*
X51367329Y-79415794D01*
X51174618Y-79127382D01*
X47618618Y-75571382D01*
X47330206Y-75378671D01*
X46990000Y-75311000D01*
X39370000Y-75311000D01*
X39029794Y-75378671D01*
X38741382Y-75571382D01*
X37935526Y-76377238D01*
X37825057Y-76422883D01*
X37561808Y-76685673D01*
X37419162Y-77029201D01*
X37418838Y-77401167D01*
X27716567Y-77401167D01*
X27686857Y-72974548D01*
X74219247Y-73100857D01*
G36*
X120172278Y-13588970D02*
X120315782Y-18285456D01*
X119128442Y-18262623D01*
X119125790Y-18262600D01*
X88011404Y-18314120D01*
X82016652Y-17991765D01*
X81813100Y-17907243D01*
X81257339Y-17906758D01*
X80743697Y-18118990D01*
X80350371Y-18511630D01*
X80137243Y-19024900D01*
X80137029Y-19269656D01*
X80121362Y-18956632D01*
X79962397Y-18572857D01*
X79720213Y-18503392D01*
X78919605Y-19304000D01*
X79720213Y-20104608D01*
X79962397Y-20035143D01*
X80136788Y-19546332D01*
X80136758Y-19580661D01*
X80348990Y-20094303D01*
X80741630Y-20487629D01*
X81205322Y-20680170D01*
X80975036Y-32814390D01*
X80984102Y-32863981D01*
X81011748Y-32906138D01*
X81053617Y-32934217D01*
X81100595Y-32943792D01*
X101448836Y-33171004D01*
X101466375Y-34944389D01*
X96145382Y-40265382D01*
X95952671Y-40553794D01*
X95885000Y-40894000D01*
X95885000Y-55511764D01*
X91833764Y-59563000D01*
X85217000Y-59563000D01*
X84876794Y-59630671D01*
X84588382Y-59823382D01*
X83401526Y-61010238D01*
X83291057Y-61055883D01*
X83027808Y-61318673D01*
X82885162Y-61662201D01*
X82884838Y-62034167D01*
X83026883Y-62377943D01*
X83158111Y-62509400D01*
X82279552Y-62509400D01*
X81627000Y-62107830D01*
X81627000Y-62101069D01*
X81706838Y-61908799D01*
X81707162Y-61536833D01*
X81565117Y-61193057D01*
X81302327Y-60929808D01*
X80958799Y-60787162D01*
X80586833Y-60786838D01*
X80243057Y-60928883D01*
X79979808Y-61191673D01*
X79837162Y-61535201D01*
X79836838Y-61907167D01*
X79917000Y-62101174D01*
X79917000Y-62585600D01*
X79936512Y-62683693D01*
X79940251Y-62783635D01*
X79968749Y-62845758D01*
X79982083Y-62912794D01*
X80037648Y-62995952D01*
X80079349Y-63086858D01*
X80129453Y-63133348D01*
X80167424Y-63190176D01*
X80250581Y-63245740D01*
X80323897Y-63313768D01*
X81451091Y-64007426D01*
X81464182Y-64027018D01*
X81638098Y-64143225D01*
X80039817Y-64135002D01*
X79990356Y-64144753D01*
X79948586Y-64172979D01*
X79921088Y-64215233D01*
X79912164Y-64261745D01*
X79909361Y-65658745D01*
X79919268Y-65708175D01*
X79947625Y-65749857D01*
X79989965Y-65777222D01*
X80035050Y-65785993D01*
X104646689Y-66039993D01*
X104696200Y-66030498D01*
X104738116Y-66002488D01*
X104765832Y-65960378D01*
X104775000Y-65913000D01*
X104775000Y-65313178D01*
X104833102Y-65216341D01*
X104851200Y-65151000D01*
X104851200Y-64389000D01*
X104849642Y-64381305D01*
X108784674Y-64381305D01*
X109071043Y-65074372D01*
X109600839Y-65605093D01*
X110293405Y-65892672D01*
X111043305Y-65893326D01*
X111736372Y-65606957D01*
X112002472Y-65341320D01*
X132016285Y-65341320D01*
X132145533Y-65634123D01*
X132845806Y-65902388D01*
X133595435Y-65882250D01*
X134194467Y-65634123D01*
X134323715Y-65341320D01*
X133170000Y-64187605D01*
X132016285Y-65341320D01*
X112002472Y-65341320D01*
X112267093Y-65077161D01*
X112554672Y-64384595D01*
X112555283Y-63683806D01*
X131275612Y-63683806D01*
X131295750Y-64433435D01*
X131543877Y-65032467D01*
X131836680Y-65161715D01*
X132990395Y-64008000D01*
X133349605Y-64008000D01*
X134503320Y-65161715D01*
X134796123Y-65032467D01*
X135064388Y-64332194D01*
X135044250Y-63582565D01*
X134796123Y-62983533D01*
X134503320Y-62854285D01*
X133349605Y-64008000D01*
X132990395Y-64008000D01*
X131836680Y-62854285D01*
X131543877Y-62983533D01*
X131275612Y-63683806D01*
X112555283Y-63683806D01*
X112555326Y-63634695D01*
X112268957Y-62941628D01*
X112002475Y-62674680D01*
X132016285Y-62674680D01*
X133170000Y-63828395D01*
X134323715Y-62674680D01*
X134194467Y-62381877D01*
X133494194Y-62113612D01*
X132744565Y-62133750D01*
X132145533Y-62381877D01*
X132016285Y-62674680D01*
X112002475Y-62674680D01*
X111739161Y-62410907D01*
X111046595Y-62123328D01*
X110296695Y-62122674D01*
X109603628Y-62409043D01*
X109072907Y-62938839D01*
X108785328Y-63631405D01*
X108784674Y-64381305D01*
X104849642Y-64381305D01*
X104841194Y-64339590D01*
X104812753Y-64297965D01*
X104770359Y-64270685D01*
X104724853Y-64262002D01*
X93177452Y-64202593D01*
X93440218Y-64027018D01*
X99434618Y-58032618D01*
X99532184Y-57886600D01*
X99627329Y-57744206D01*
X99695000Y-57404000D01*
X99695000Y-41781981D01*
X99744615Y-41707726D01*
X101518937Y-40258968D01*
X101605449Y-49006329D01*
X101532799Y-48976162D01*
X101160833Y-48975838D01*
X100891408Y-49087162D01*
X100878794Y-49089671D01*
X100868194Y-49096754D01*
X100817057Y-49117883D01*
X100777553Y-49157318D01*
X100590382Y-49282382D01*
X100397671Y-49570794D01*
X100330000Y-49911000D01*
X100397671Y-50251206D01*
X100590382Y-50539618D01*
X100776583Y-50664034D01*
X100815673Y-50703192D01*
X100867223Y-50724598D01*
X100878794Y-50732329D01*
X100892323Y-50735020D01*
X101159201Y-50845838D01*
X101531167Y-50846162D01*
X101623269Y-50808106D01*
X101676206Y-56160656D01*
X101686700Y-56209965D01*
X101715551Y-56251306D01*
X101782655Y-56284727D01*
X103332055Y-56538727D01*
X103382433Y-56536846D01*
X103428110Y-56515514D01*
X103461889Y-56478091D01*
X103479600Y-56413502D01*
X103481024Y-54631305D01*
X114534674Y-54631305D01*
X114821043Y-55324372D01*
X115350839Y-55855093D01*
X116043405Y-56142672D01*
X116793305Y-56143326D01*
X117486372Y-55856957D01*
X118017093Y-55327161D01*
X118304672Y-54634595D01*
X118305326Y-53884695D01*
X118018957Y-53191628D01*
X117489161Y-52660907D01*
X116796595Y-52373328D01*
X116046695Y-52372674D01*
X115353628Y-52659043D01*
X114822907Y-53188839D01*
X114535328Y-53881405D01*
X114534674Y-54631305D01*
X103481024Y-54631305D01*
X103484087Y-50800000D01*
X105493811Y-50800000D01*
X105604201Y-50845838D01*
X105976167Y-50846162D01*
X106319943Y-50704117D01*
X106583192Y-50441327D01*
X106725838Y-50097799D01*
X106726162Y-49725833D01*
X106584117Y-49382057D01*
X106321327Y-49118808D01*
X105977799Y-48976162D01*
X105605833Y-48975838D01*
X105494112Y-49022000D01*
X103485509Y-49022000D01*
X103493803Y-38646463D01*
X107035522Y-35754600D01*
X134010400Y-35754600D01*
X134337595Y-35689517D01*
X134614976Y-35504176D01*
X135910376Y-34208776D01*
X136095717Y-33931395D01*
X136119392Y-33812370D01*
X136160800Y-33604200D01*
X136160800Y-31392469D01*
X136240638Y-31200199D01*
X136240962Y-30828233D01*
X136098917Y-30484457D01*
X135836127Y-30221208D01*
X135492599Y-30078562D01*
X135120633Y-30078238D01*
X134776857Y-30220283D01*
X134513608Y-30483073D01*
X134370962Y-30826601D01*
X134370638Y-31198567D01*
X134450800Y-31392574D01*
X134450800Y-33250048D01*
X133656248Y-34044600D01*
X115411973Y-34044600D01*
X115795824Y-33788120D01*
X116150247Y-33257687D01*
X116274704Y-32632000D01*
X116150247Y-32006313D01*
X115795824Y-31475880D01*
X115265391Y-31121457D01*
X114639704Y-30997000D01*
X112944296Y-30997000D01*
X112318609Y-31121457D01*
X111788176Y-31475880D01*
X111433753Y-32006313D01*
X111309296Y-32632000D01*
X111433753Y-33257687D01*
X111788176Y-33788120D01*
X112172027Y-34044600D01*
X109139104Y-34044600D01*
X109139162Y-33977833D01*
X108997117Y-33634057D01*
X108734327Y-33370808D01*
X108390799Y-33228162D01*
X108018833Y-33227838D01*
X107907112Y-33274000D01*
X104648000Y-33274000D01*
X104307794Y-33341671D01*
X104019382Y-33534382D01*
X103759000Y-33794764D01*
X103759000Y-30594236D01*
X104355836Y-29997400D01*
X106992411Y-29997400D01*
X107102801Y-30043238D01*
X107474767Y-30043562D01*
X107818543Y-29901517D01*
X108081792Y-29638727D01*
X108224438Y-29295199D01*
X108224762Y-28923233D01*
X108082717Y-28579457D01*
X107819927Y-28316208D01*
X107476399Y-28173562D01*
X107104433Y-28173238D01*
X106992712Y-28219400D01*
X103987600Y-28219400D01*
X103647394Y-28287071D01*
X103502006Y-28384216D01*
X103504899Y-24765000D01*
X139319000Y-24765000D01*
X139319000Y-36245800D01*
X108704389Y-36245800D01*
X108593999Y-36199962D01*
X108222033Y-36199638D01*
X107890161Y-36336764D01*
X107819927Y-36266408D01*
X107476399Y-36123762D01*
X107104433Y-36123438D01*
X106760657Y-36265483D01*
X106497408Y-36528273D01*
X106354762Y-36871801D01*
X106354438Y-37243767D01*
X106400600Y-37355488D01*
X106400600Y-38735000D01*
X106468271Y-39075206D01*
X106660982Y-39363618D01*
X106949394Y-39556329D01*
X107289600Y-39624000D01*
X109728000Y-39624000D01*
X110068206Y-39556329D01*
X110356618Y-39363618D01*
X110858236Y-38862000D01*
X111407943Y-38862000D01*
X111395569Y-38880110D01*
X111344560Y-39132000D01*
X111344560Y-41132000D01*
X111388838Y-41367317D01*
X111527910Y-41583441D01*
X111740110Y-41728431D01*
X111992000Y-41779440D01*
X115592000Y-41779440D01*
X115827317Y-41735162D01*
X116043441Y-41596090D01*
X116188431Y-41383890D01*
X116239440Y-41132000D01*
X116239440Y-39132000D01*
X116195162Y-38896683D01*
X116172844Y-38862000D01*
X129425764Y-38862000D01*
X130562382Y-39998618D01*
X130850794Y-40191329D01*
X131191000Y-40259000D01*
X139319000Y-40259000D01*
X139319000Y-44704000D01*
X133901189Y-44704000D01*
X133790799Y-44658162D01*
X133418833Y-44657838D01*
X133075057Y-44799883D01*
X132811808Y-45062673D01*
X132669162Y-45406201D01*
X132668838Y-45778167D01*
X132810883Y-46121943D01*
X133073673Y-46385192D01*
X133417201Y-46527838D01*
X133789167Y-46528162D01*
X133900888Y-46482000D01*
X139319000Y-46482000D01*
X139319000Y-57150000D01*
X139329006Y-57199410D01*
X139357447Y-57241035D01*
X139399841Y-57268315D01*
X139446000Y-57277000D01*
X140970000Y-57277000D01*
X141019410Y-57266994D01*
X141061035Y-57238553D01*
X141088315Y-57196159D01*
X141096996Y-57150977D01*
X141179065Y-46482000D01*
X146177000Y-46482000D01*
X146517206Y-46414329D01*
X146805618Y-46221618D01*
X147567618Y-45459618D01*
X147644410Y-45344691D01*
X150740000Y-45344691D01*
X150740000Y-46685250D01*
X150858162Y-46803412D01*
X150833872Y-46883930D01*
X150859239Y-47137511D01*
X150740000Y-47256750D01*
X150740000Y-48597309D01*
X150836673Y-48830698D01*
X151015301Y-49009327D01*
X151248690Y-49106000D01*
X152589250Y-49106000D01*
X152713822Y-48981428D01*
X152757257Y-48977083D01*
X152881782Y-48925502D01*
X153022791Y-48968041D01*
X153160750Y-49106000D01*
X154501310Y-49106000D01*
X154734699Y-49009327D01*
X154913327Y-48830698D01*
X155010000Y-48597309D01*
X155010000Y-47256750D01*
X154891838Y-47138588D01*
X154916128Y-47058070D01*
X154890761Y-46804489D01*
X155010000Y-46685250D01*
X155010000Y-45344691D01*
X154913327Y-45111302D01*
X154734699Y-44932673D01*
X154501310Y-44836000D01*
X153160750Y-44836000D01*
X153036178Y-44960572D01*
X152992743Y-44964917D01*
X152868218Y-45016498D01*
X152727209Y-44973959D01*
X152589250Y-44836000D01*
X151248690Y-44836000D01*
X151015301Y-44932673D01*
X150836673Y-45111302D01*
X150740000Y-45344691D01*
X147644410Y-45344691D01*
X147760329Y-45171206D01*
X147828000Y-44831000D01*
X147828000Y-41445189D01*
X147873838Y-41334799D01*
X147874162Y-40962833D01*
X147732117Y-40619057D01*
X147469327Y-40355808D01*
X147125799Y-40213162D01*
X146753833Y-40212838D01*
X146410057Y-40354883D01*
X146146808Y-40617673D01*
X146004162Y-40961201D01*
X146003838Y-41333167D01*
X146050000Y-41444888D01*
X146050000Y-44462764D01*
X145808764Y-44704000D01*
X141192742Y-44704000D01*
X141226934Y-40259000D01*
X145034000Y-40259000D01*
X145374206Y-40191329D01*
X145662618Y-39998618D01*
X155435236Y-30226000D01*
X156420811Y-30226000D01*
X156531201Y-30271838D01*
X156903167Y-30272162D01*
X157246943Y-30130117D01*
X157510192Y-29867327D01*
X157652838Y-29523799D01*
X157653162Y-29151833D01*
X157511117Y-28808057D01*
X157248327Y-28544808D01*
X156904799Y-28402162D01*
X156532833Y-28401838D01*
X156421112Y-28448000D01*
X155067000Y-28448000D01*
X154726795Y-28515670D01*
X154438382Y-28708382D01*
X145041465Y-38105299D01*
X154600545Y-27855200D01*
X158962034Y-27855200D01*
X159419000Y-28754391D01*
X159419000Y-28957931D01*
X159339162Y-29150201D01*
X159338838Y-29522167D01*
X159480883Y-29865943D01*
X159743673Y-30129192D01*
X160087201Y-30271838D01*
X160459167Y-30272162D01*
X160802943Y-30130117D01*
X161066192Y-29867327D01*
X161208838Y-29523799D01*
X161209162Y-29151833D01*
X161129000Y-28957826D01*
X161129000Y-28549600D01*
X161122458Y-28516713D01*
X161126435Y-28483417D01*
X161090117Y-28354120D01*
X161063917Y-28222406D01*
X161045288Y-28194526D01*
X161036220Y-28162243D01*
X160248820Y-26612842D01*
X160165785Y-26507284D01*
X160091176Y-26395624D01*
X160063295Y-26376995D01*
X160042564Y-26350640D01*
X159925461Y-26284896D01*
X159813794Y-26210283D01*
X159780906Y-26203741D01*
X159751667Y-26187326D01*
X159618321Y-26171401D01*
X159486600Y-26145200D01*
X155722615Y-26145200D01*
X155722762Y-25976833D01*
X155580717Y-25633057D01*
X155317927Y-25369808D01*
X154974399Y-25227162D01*
X154602433Y-25226838D01*
X154490712Y-25273000D01*
X153416000Y-25273000D01*
X153075795Y-25340670D01*
X152787382Y-25533382D01*
X142074964Y-36245800D01*
X141257805Y-36245800D01*
X141350027Y-24257000D01*
X161719510Y-24257000D01*
X164719026Y-30256032D01*
X164744290Y-59537600D01*
X139725400Y-59537600D01*
X139675990Y-59547606D01*
X139634365Y-59576047D01*
X139607085Y-59618441D01*
X139598463Y-59660591D01*
X139522263Y-62073591D01*
X139530705Y-62123293D01*
X139557817Y-62165794D01*
X139599330Y-62194399D01*
X139649200Y-62204600D01*
X170306466Y-62204600D01*
X170132797Y-103581139D01*
X170048565Y-103370088D01*
X169979040Y-103266039D01*
X169390072Y-102789533D01*
X166179605Y-106000000D01*
X169390072Y-109210467D01*
X169979040Y-108733961D01*
X170112474Y-108423276D01*
X170104332Y-110363000D01*
X167842069Y-110363000D01*
X168629912Y-110048565D01*
X168733961Y-109979040D01*
X169210467Y-109390072D01*
X166000000Y-106179605D01*
X162789533Y-109390072D01*
X163266039Y-109979040D01*
X164160048Y-110363000D01*
X143129000Y-110363000D01*
X143129000Y-106880403D01*
X161253191Y-106880403D01*
X161951435Y-108629912D01*
X162020960Y-108733961D01*
X162609928Y-109210467D01*
X165820395Y-106000000D01*
X162609928Y-102789533D01*
X162020960Y-103266039D01*
X161277604Y-104996862D01*
X161253191Y-106880403D01*
X143129000Y-106880403D01*
X143129000Y-102609928D01*
X162789533Y-102609928D01*
X166000000Y-105820395D01*
X169210467Y-102609928D01*
X168733961Y-102020960D01*
X167003138Y-101277604D01*
X165119597Y-101253191D01*
X163370088Y-101951435D01*
X163266039Y-102020960D01*
X162789533Y-102609928D01*
X143129000Y-102609928D01*
X143129000Y-86283800D01*
X144983200Y-86283800D01*
X145323406Y-86216129D01*
X145611818Y-86023418D01*
X151200545Y-80434691D01*
X153600000Y-80434691D01*
X153600000Y-81775250D01*
X153718162Y-81893412D01*
X153693872Y-81973930D01*
X153719239Y-82227511D01*
X153600000Y-82346750D01*
X153600000Y-83687309D01*
X153696673Y-83920698D01*
X153875301Y-84099327D01*
X154108690Y-84196000D01*
X155449250Y-84196000D01*
X155573822Y-84071428D01*
X155617257Y-84067083D01*
X155741782Y-84015502D01*
X155882791Y-84058041D01*
X156020750Y-84196000D01*
X157361310Y-84196000D01*
X157594699Y-84099327D01*
X157773327Y-83920698D01*
X157870000Y-83687309D01*
X157870000Y-82346750D01*
X157751838Y-82228588D01*
X157776128Y-82148070D01*
X157750761Y-81894489D01*
X157870000Y-81775250D01*
X157870000Y-80434691D01*
X157773327Y-80201302D01*
X157594699Y-80022673D01*
X157361310Y-79926000D01*
X156020750Y-79926000D01*
X155896178Y-80050572D01*
X155852743Y-80054917D01*
X155728218Y-80106498D01*
X155587209Y-80063959D01*
X155449250Y-79926000D01*
X154108690Y-79926000D01*
X153875301Y-80022673D01*
X153696673Y-80201302D01*
X153600000Y-80434691D01*
X151200545Y-80434691D01*
X164121474Y-67513762D01*
X164231943Y-67468117D01*
X164495192Y-67205327D01*
X164637838Y-66861799D01*
X164638162Y-66489833D01*
X164496117Y-66146057D01*
X164233327Y-65882808D01*
X163889799Y-65740162D01*
X163517833Y-65739838D01*
X163174057Y-65881883D01*
X162910808Y-66144673D01*
X162864451Y-66256313D01*
X144614964Y-84505800D01*
X143129000Y-84505800D01*
X143129000Y-68580000D01*
X143118994Y-68530590D01*
X143090553Y-68488965D01*
X143048159Y-68461685D01*
X143004171Y-68453019D01*
X141665894Y-68430142D01*
X144183036Y-65913000D01*
X157944811Y-65913000D01*
X158055201Y-65958838D01*
X158427167Y-65959162D01*
X158770943Y-65817117D01*
X158927800Y-65660533D01*
X158927800Y-67271964D01*
X156299526Y-69900238D01*
X156189057Y-69945883D01*
X155925808Y-70208673D01*
X155783162Y-70552201D01*
X155782838Y-70924167D01*
X155924883Y-71267943D01*
X156187673Y-71531192D01*
X156531201Y-71673838D01*
X156903167Y-71674162D01*
X157246943Y-71532117D01*
X157510192Y-71269327D01*
X157556549Y-71157687D01*
X160445418Y-68268818D01*
X160495384Y-68194038D01*
X160638129Y-67980406D01*
X160705800Y-67640200D01*
X160705800Y-64414400D01*
X160638129Y-64074194D01*
X160445418Y-63785782D01*
X159480218Y-62820582D01*
X159424923Y-62783635D01*
X159191806Y-62627871D01*
X158851600Y-62560200D01*
X143560800Y-62560200D01*
X143220594Y-62627871D01*
X142987477Y-62783635D01*
X142932182Y-62820582D01*
X122415364Y-83337400D01*
X109263189Y-83337400D01*
X109152799Y-83291562D01*
X108780833Y-83291238D01*
X108437057Y-83433283D01*
X108173808Y-83696073D01*
X108031162Y-84039601D01*
X108030838Y-84411567D01*
X108071810Y-84510728D01*
X107739433Y-84510438D01*
X107395657Y-84652483D01*
X107132408Y-84915273D01*
X106989762Y-85258801D01*
X106989438Y-85630767D01*
X107131483Y-85974543D01*
X107394273Y-86237792D01*
X107737801Y-86380438D01*
X108109767Y-86380762D01*
X108221488Y-86334600D01*
X123393200Y-86334600D01*
X123733406Y-86266929D01*
X124021818Y-86074218D01*
X139903200Y-70192836D01*
X139903200Y-84505800D01*
X133977389Y-84505800D01*
X133866999Y-84459962D01*
X133495033Y-84459638D01*
X133151257Y-84601683D01*
X132888008Y-84864473D01*
X132745362Y-85208001D01*
X132745038Y-85579967D01*
X132887083Y-85923743D01*
X133149873Y-86186992D01*
X133493401Y-86329638D01*
X133865367Y-86329962D01*
X133977088Y-86283800D01*
X139903200Y-86283800D01*
X139903200Y-99644382D01*
X124703086Y-99666205D01*
X128937736Y-94132400D01*
X133611611Y-94132400D01*
X133722001Y-94178238D01*
X134093967Y-94178562D01*
X134437743Y-94036517D01*
X134700992Y-93773727D01*
X134843638Y-93430199D01*
X134843962Y-93058233D01*
X134701917Y-92714457D01*
X134439127Y-92451208D01*
X134095599Y-92308562D01*
X133723633Y-92308238D01*
X133611912Y-92354400D01*
X128498600Y-92354400D01*
X128440509Y-92365955D01*
X128381400Y-92362159D01*
X128271879Y-92399497D01*
X128158394Y-92422071D01*
X128109146Y-92454977D01*
X128053085Y-92474090D01*
X127966192Y-92550497D01*
X127869982Y-92614782D01*
X127837075Y-92664031D01*
X127792596Y-92703142D01*
X122461767Y-99669423D01*
X104775000Y-99694817D01*
X104775000Y-95266000D01*
X112741560Y-95266000D01*
X112741560Y-97266000D01*
X112785838Y-97501317D01*
X112924910Y-97717441D01*
X113137110Y-97862431D01*
X113389000Y-97913440D01*
X116989000Y-97913440D01*
X117224317Y-97869162D01*
X117440441Y-97730090D01*
X117585431Y-97517890D01*
X117636440Y-97266000D01*
X117636440Y-95266000D01*
X117592162Y-95030683D01*
X117453090Y-94814559D01*
X117240890Y-94669569D01*
X116989000Y-94618560D01*
X113389000Y-94618560D01*
X113153683Y-94662838D01*
X112937559Y-94801910D01*
X112792569Y-95014110D01*
X112741560Y-95266000D01*
X104775000Y-95266000D01*
X104775000Y-93980000D01*
X107627411Y-93980000D01*
X107737801Y-94025838D01*
X108109767Y-94026162D01*
X108405611Y-93903922D01*
X108410273Y-93908592D01*
X108753801Y-94051238D01*
X109125767Y-94051562D01*
X109469543Y-93909517D01*
X109732792Y-93646727D01*
X109875438Y-93303199D01*
X109875762Y-92931233D01*
X109813150Y-92779700D01*
X109761929Y-92522194D01*
X109569218Y-92233782D01*
X106101436Y-88766000D01*
X112706296Y-88766000D01*
X112830753Y-89391687D01*
X113185176Y-89922120D01*
X113715609Y-90276543D01*
X114341296Y-90401000D01*
X116036704Y-90401000D01*
X116662391Y-90276543D01*
X117192824Y-89922120D01*
X117547247Y-89391687D01*
X117671704Y-88766000D01*
X117547247Y-88140313D01*
X117192824Y-87609880D01*
X116662391Y-87255457D01*
X116036704Y-87131000D01*
X114341296Y-87131000D01*
X113715609Y-87255457D01*
X113185176Y-87609880D01*
X112830753Y-88140313D01*
X112706296Y-88766000D01*
X106101436Y-88766000D01*
X105454418Y-88118982D01*
X105166006Y-87926271D01*
X104825800Y-87858600D01*
X104775000Y-87858600D01*
X104775000Y-74131305D01*
X114534674Y-74131305D01*
X114821043Y-74824372D01*
X115350839Y-75355093D01*
X116043405Y-75642672D01*
X116793305Y-75643326D01*
X117486372Y-75356957D01*
X118017093Y-74827161D01*
X118304672Y-74134595D01*
X118305326Y-73384695D01*
X118018957Y-72691628D01*
X117489161Y-72160907D01*
X116796595Y-71873328D01*
X116046695Y-71872674D01*
X115353628Y-72159043D01*
X114822907Y-72688839D01*
X114535328Y-73381405D01*
X114534674Y-74131305D01*
X104775000Y-74131305D01*
X104775000Y-70358000D01*
X104764994Y-70308590D01*
X104736553Y-70266965D01*
X104694159Y-70239685D01*
X104648000Y-70231000D01*
X100330000Y-70231000D01*
X100280590Y-70241006D01*
X100238965Y-70269447D01*
X100211685Y-70311841D01*
X100203002Y-70357364D01*
X100199769Y-71002533D01*
X99434618Y-70237382D01*
X99244549Y-70110382D01*
X99146206Y-70044671D01*
X98806000Y-69977000D01*
X97198189Y-69977000D01*
X97087799Y-69931162D01*
X96715833Y-69930838D01*
X96372057Y-70072883D01*
X96108808Y-70335673D01*
X95966162Y-70679201D01*
X95965838Y-71051167D01*
X96107883Y-71394943D01*
X96370673Y-71658192D01*
X96714201Y-71800838D01*
X97086167Y-71801162D01*
X97197888Y-71755000D01*
X98437764Y-71755000D01*
X99447382Y-72764618D01*
X99735794Y-72957329D01*
X100076000Y-73025000D01*
X100189635Y-73025000D01*
X100115308Y-87858600D01*
X87723989Y-87858600D01*
X87613599Y-87812762D01*
X87241633Y-87812438D01*
X86897857Y-87954483D01*
X86634608Y-88217273D01*
X86491962Y-88560801D01*
X86491638Y-88932767D01*
X86633683Y-89276543D01*
X86896473Y-89539792D01*
X87240001Y-89682438D01*
X87611967Y-89682762D01*
X87723688Y-89636600D01*
X100106399Y-89636600D01*
X100093544Y-92202000D01*
X86487000Y-92202000D01*
X86146794Y-92269671D01*
X85858382Y-92462382D01*
X84385182Y-93935582D01*
X84192471Y-94223994D01*
X84124800Y-94564200D01*
X84124800Y-95364364D01*
X83858164Y-95631000D01*
X83609189Y-95631000D01*
X83498799Y-95585162D01*
X83126833Y-95584838D01*
X82783057Y-95726883D01*
X82519808Y-95989673D01*
X82377162Y-96333201D01*
X82376838Y-96705167D01*
X82518883Y-97048943D01*
X82781673Y-97312192D01*
X83125201Y-97454838D01*
X83497167Y-97455162D01*
X83608888Y-97409000D01*
X84226400Y-97409000D01*
X84566606Y-97341329D01*
X84855018Y-97148618D01*
X85642418Y-96361218D01*
X85661138Y-96333201D01*
X85835129Y-96072806D01*
X85902800Y-95732600D01*
X85902800Y-94932436D01*
X86855236Y-93980000D01*
X100084635Y-93980000D01*
X100025835Y-105714800D01*
X90627703Y-105714800D01*
X90638244Y-103047800D01*
X92707600Y-103047800D01*
X92707600Y-103847800D01*
X92880658Y-104463820D01*
X93276283Y-104966722D01*
X93834245Y-105279944D01*
X93962166Y-105310924D01*
X94215600Y-105191577D01*
X94215600Y-103047800D01*
X94469600Y-103047800D01*
X94469600Y-105191577D01*
X94723034Y-105310924D01*
X94850955Y-105279944D01*
X95408917Y-104966722D01*
X95804542Y-104463820D01*
X95977600Y-103847800D01*
X95977600Y-103047800D01*
X94469600Y-103047800D01*
X94215600Y-103047800D01*
X92707600Y-103047800D01*
X90638244Y-103047800D01*
X90642410Y-101993800D01*
X92707600Y-101993800D01*
X92707600Y-102793800D01*
X94215600Y-102793800D01*
X94215600Y-100650023D01*
X94469600Y-100650023D01*
X94469600Y-102793800D01*
X95977600Y-102793800D01*
X95977600Y-101993800D01*
X95804542Y-101377780D01*
X95408917Y-100874878D01*
X94850955Y-100561656D01*
X94723034Y-100530676D01*
X94469600Y-100650023D01*
X94215600Y-100650023D01*
X93962166Y-100530676D01*
X93834245Y-100561656D01*
X93276283Y-100874878D01*
X92880658Y-101377780D01*
X92707600Y-101993800D01*
X90642410Y-101993800D01*
X90652599Y-99416102D01*
X90642789Y-99366653D01*
X90614513Y-99324916D01*
X90572226Y-99297469D01*
X90525600Y-99288600D01*
X81153000Y-99288600D01*
X81153000Y-97833189D01*
X81198838Y-97722799D01*
X81199162Y-97350833D01*
X81057117Y-97007057D01*
X80794327Y-96743808D01*
X80450799Y-96601162D01*
X80078833Y-96600838D01*
X79735057Y-96742883D01*
X79471808Y-97005673D01*
X79329162Y-97349201D01*
X79328838Y-97721167D01*
X79375000Y-97832888D01*
X79375000Y-99288600D01*
X77191528Y-99288600D01*
X77338854Y-79037691D01*
X85655000Y-79037691D01*
X85655000Y-80378250D01*
X85773162Y-80496412D01*
X85748872Y-80576930D01*
X85774239Y-80830511D01*
X85655000Y-80949750D01*
X85655000Y-82290309D01*
X85751673Y-82523698D01*
X85930301Y-82702327D01*
X86163690Y-82799000D01*
X87504250Y-82799000D01*
X87628822Y-82674428D01*
X87672257Y-82670083D01*
X87796782Y-82618502D01*
X87937791Y-82661041D01*
X88075750Y-82799000D01*
X89416310Y-82799000D01*
X89649699Y-82702327D01*
X89828327Y-82523698D01*
X89925000Y-82290309D01*
X89925000Y-80949750D01*
X89806838Y-80831588D01*
X89831128Y-80751070D01*
X89805761Y-80497489D01*
X89925000Y-80378250D01*
X89925000Y-79037691D01*
X89828327Y-78804302D01*
X89649699Y-78625673D01*
X89416310Y-78529000D01*
X88075750Y-78529000D01*
X87951178Y-78653572D01*
X87907743Y-78657917D01*
X87783218Y-78709498D01*
X87642209Y-78666959D01*
X87504250Y-78529000D01*
X86163690Y-78529000D01*
X85930301Y-78625673D01*
X85751673Y-78804302D01*
X85655000Y-79037691D01*
X77338854Y-79037691D01*
X77393797Y-71485603D01*
X77384151Y-71436121D01*
X77356013Y-71394291D01*
X77313819Y-71366703D01*
X77266822Y-71357679D01*
X25298422Y-71348600D01*
X25284870Y-71349323D01*
X24580418Y-71424800D01*
X14988126Y-71424800D01*
X15071833Y-66384740D01*
X16408964Y-66384740D01*
X16433244Y-66490086D01*
X16724788Y-67015606D01*
X17195248Y-67389554D01*
X17773000Y-67555000D01*
X18673000Y-67555000D01*
X18673000Y-66147000D01*
X18927000Y-66147000D01*
X18927000Y-67555000D01*
X19827000Y-67555000D01*
X20404752Y-67389554D01*
X20875212Y-67015606D01*
X21166756Y-66490086D01*
X21191036Y-66384740D01*
X21070378Y-66147000D01*
X18927000Y-66147000D01*
X18673000Y-66147000D01*
X16529622Y-66147000D01*
X16408964Y-66384740D01*
X15071833Y-66384740D01*
X15083948Y-65655260D01*
X16408964Y-65655260D01*
X16529622Y-65893000D01*
X18673000Y-65893000D01*
X18673000Y-64485000D01*
X18927000Y-64485000D01*
X18927000Y-65893000D01*
X21070378Y-65893000D01*
X21191036Y-65655260D01*
X21166756Y-65549914D01*
X20875212Y-65024394D01*
X20404752Y-64650446D01*
X19827000Y-64485000D01*
X18927000Y-64485000D01*
X18673000Y-64485000D01*
X17773000Y-64485000D01*
X17195248Y-64650446D01*
X16724788Y-65024394D01*
X16433244Y-65549914D01*
X16408964Y-65655260D01*
X15083948Y-65655260D01*
X15156203Y-61304740D01*
X16408964Y-61304740D01*
X16433244Y-61410086D01*
X16724788Y-61935606D01*
X17195248Y-62309554D01*
X17773000Y-62475000D01*
X18673000Y-62475000D01*
X18673000Y-61067000D01*
X18927000Y-61067000D01*
X18927000Y-62475000D01*
X19827000Y-62475000D01*
X20404752Y-62309554D01*
X20875212Y-61935606D01*
X21166756Y-61410086D01*
X21191036Y-61304740D01*
X21070378Y-61067000D01*
X18927000Y-61067000D01*
X18673000Y-61067000D01*
X16529622Y-61067000D01*
X16408964Y-61304740D01*
X15156203Y-61304740D01*
X15168318Y-60575260D01*
X16408964Y-60575260D01*
X16529622Y-60813000D01*
X18673000Y-60813000D01*
X18673000Y-59405000D01*
X18927000Y-59405000D01*
X18927000Y-60813000D01*
X21070378Y-60813000D01*
X21101183Y-60752302D01*
X45580856Y-60752302D01*
X45608638Y-61307368D01*
X45767603Y-61691143D01*
X46009787Y-61760608D01*
X46810395Y-60960000D01*
X47169605Y-60960000D01*
X47970213Y-61760608D01*
X48212397Y-61691143D01*
X48399144Y-61167698D01*
X48371362Y-60612632D01*
X48212397Y-60228857D01*
X47970213Y-60159392D01*
X47169605Y-60960000D01*
X46810395Y-60960000D01*
X46009787Y-60159392D01*
X45767603Y-60228857D01*
X45580856Y-60752302D01*
X21101183Y-60752302D01*
X21191036Y-60575260D01*
X21166756Y-60469914D01*
X20875212Y-59944394D01*
X20404752Y-59570446D01*
X19827000Y-59405000D01*
X18927000Y-59405000D01*
X18673000Y-59405000D01*
X17773000Y-59405000D01*
X17195248Y-59570446D01*
X16724788Y-59944394D01*
X16433244Y-60469914D01*
X16408964Y-60575260D01*
X15168318Y-60575260D01*
X15331002Y-50780000D01*
X16317296Y-50780000D01*
X16434141Y-51367419D01*
X16766887Y-51865409D01*
X17264877Y-52198155D01*
X17852296Y-52315000D01*
X19747704Y-52315000D01*
X20335123Y-52198155D01*
X20833113Y-51865409D01*
X20938361Y-51707894D01*
X24690948Y-51752437D01*
X24696229Y-51751452D01*
X24701500Y-51752500D01*
X44323000Y-51752500D01*
X44333557Y-51750400D01*
X44344161Y-51752248D01*
X45928984Y-51714514D01*
X46197630Y-51983629D01*
X46405512Y-52069949D01*
X46199697Y-52154990D01*
X45903170Y-52451000D01*
X28168600Y-52451000D01*
X27828394Y-52518671D01*
X27618313Y-52659043D01*
X27539982Y-52711382D01*
X25280364Y-54971000D01*
X20964349Y-54971000D01*
X20833113Y-54774591D01*
X20335123Y-54441845D01*
X19747704Y-54325000D01*
X17852296Y-54325000D01*
X17264877Y-54441845D01*
X16766887Y-54774591D01*
X16434141Y-55272581D01*
X16317296Y-55860000D01*
X16434141Y-56447419D01*
X16766887Y-56945409D01*
X17264877Y-57278155D01*
X17852296Y-57395000D01*
X19747704Y-57395000D01*
X20335123Y-57278155D01*
X20833113Y-56945409D01*
X20964349Y-56749000D01*
X25648600Y-56749000D01*
X25988806Y-56681329D01*
X26277218Y-56488618D01*
X28536836Y-54229000D01*
X45903515Y-54229000D01*
X46197630Y-54523629D01*
X46405512Y-54609949D01*
X46199697Y-54694990D01*
X45806371Y-55087630D01*
X45593243Y-55600900D01*
X45592758Y-56156661D01*
X45804990Y-56670303D01*
X46197630Y-57063629D01*
X46405512Y-57149949D01*
X46199697Y-57234990D01*
X45806371Y-57627630D01*
X45593243Y-58140900D01*
X45592758Y-58696661D01*
X45804990Y-59210303D01*
X46197630Y-59603629D01*
X46389727Y-59683395D01*
X46258857Y-59737603D01*
X46189392Y-59979787D01*
X46990000Y-60780395D01*
X47790608Y-59979787D01*
X47721143Y-59737603D01*
X47580682Y-59687491D01*
X47780303Y-59605010D01*
X48173629Y-59212370D01*
X48386757Y-58699100D01*
X48387242Y-58143339D01*
X48175010Y-57629697D01*
X47782370Y-57236371D01*
X47574488Y-57150051D01*
X47780303Y-57065010D01*
X48173629Y-56672370D01*
X48386757Y-56159100D01*
X48387242Y-55603339D01*
X48175010Y-55089697D01*
X47782370Y-54696371D01*
X47574488Y-54610051D01*
X47780303Y-54525010D01*
X48173629Y-54132370D01*
X48386757Y-53619100D01*
X48387242Y-53063339D01*
X48175010Y-52549697D01*
X47782370Y-52156371D01*
X47574488Y-52070051D01*
X47780303Y-51985010D01*
X48173629Y-51592370D01*
X48386757Y-51079100D01*
X48387242Y-50523339D01*
X48175010Y-50009697D01*
X47782370Y-49616371D01*
X47574488Y-49530051D01*
X47780303Y-49445010D01*
X48073194Y-49152630D01*
X48463200Y-49542636D01*
X48463200Y-62725364D01*
X48263852Y-62924712D01*
X48175010Y-62709697D01*
X47782370Y-62316371D01*
X47590273Y-62236605D01*
X47721143Y-62182397D01*
X47790608Y-61940213D01*
X46990000Y-61139605D01*
X46189392Y-61940213D01*
X46258857Y-62182397D01*
X46399318Y-62232509D01*
X46199697Y-62314990D01*
X45806371Y-62707630D01*
X45593243Y-63220900D01*
X45592758Y-63776661D01*
X45804990Y-64290303D01*
X46197630Y-64683629D01*
X46222125Y-64693800D01*
X41046400Y-64693800D01*
X40706194Y-64761471D01*
X40502999Y-64897242D01*
X40417782Y-64954182D01*
X39147782Y-66224182D01*
X38955071Y-66512594D01*
X38887400Y-66852800D01*
X38887400Y-67995800D01*
X38955071Y-68336006D01*
X39147782Y-68624418D01*
X39963780Y-69440416D01*
X40252192Y-69633127D01*
X40592398Y-69700798D01*
X62582402Y-69700798D01*
X62922608Y-69633127D01*
X63211020Y-69440416D01*
X65398618Y-67252818D01*
X65591329Y-66964406D01*
X65659000Y-66624200D01*
X65659000Y-43249191D01*
X87176500Y-43249191D01*
X87176500Y-44589750D01*
X87294662Y-44707912D01*
X87270372Y-44788430D01*
X87295739Y-45042011D01*
X87176500Y-45161250D01*
X87176500Y-46501809D01*
X87273173Y-46735198D01*
X87451801Y-46913827D01*
X87685190Y-47010500D01*
X89025750Y-47010500D01*
X89150322Y-46885928D01*
X89193757Y-46881583D01*
X89318282Y-46830002D01*
X89459291Y-46872541D01*
X89597250Y-47010500D01*
X90937810Y-47010500D01*
X91171199Y-46913827D01*
X91349827Y-46735198D01*
X91446500Y-46501809D01*
X91446500Y-45161250D01*
X91328338Y-45043088D01*
X91352628Y-44962570D01*
X91327261Y-44708989D01*
X91446500Y-44589750D01*
X91446500Y-43249191D01*
X91349827Y-43015802D01*
X91171199Y-42837173D01*
X90937810Y-42740500D01*
X89597250Y-42740500D01*
X89472678Y-42865072D01*
X89429243Y-42869417D01*
X89304718Y-42920998D01*
X89163709Y-42878459D01*
X89025750Y-42740500D01*
X87685190Y-42740500D01*
X87451801Y-42837173D01*
X87273173Y-43015802D01*
X87176500Y-43249191D01*
X65659000Y-43249191D01*
X65659000Y-39382636D01*
X66001274Y-39040362D01*
X66111743Y-38994717D01*
X66374992Y-38731927D01*
X66517638Y-38388399D01*
X66517962Y-38016433D01*
X66375917Y-37672657D01*
X66244580Y-37541090D01*
X66501992Y-37284127D01*
X66644638Y-36940599D01*
X66644962Y-36568633D01*
X66544800Y-36326222D01*
X66544800Y-33959800D01*
X66481239Y-33640259D01*
X66300234Y-33369366D01*
X63626812Y-30695944D01*
X63627242Y-30203339D01*
X63415010Y-29689697D01*
X63022370Y-29296371D01*
X62814488Y-29210051D01*
X63020303Y-29125010D01*
X63413629Y-28732370D01*
X63626757Y-28219100D01*
X63627242Y-27663339D01*
X63415010Y-27149697D01*
X63022370Y-26756371D01*
X62875535Y-26695400D01*
X64472811Y-26695400D01*
X64583201Y-26741238D01*
X64955167Y-26741562D01*
X65298943Y-26599517D01*
X65562192Y-26336727D01*
X65704838Y-25993199D01*
X65705162Y-25621233D01*
X65563117Y-25277457D01*
X65300327Y-25014208D01*
X64956799Y-24871562D01*
X64584833Y-24871238D01*
X64473112Y-24917400D01*
X63266667Y-24917400D01*
X63266762Y-24808433D01*
X63213892Y-24680478D01*
X63189834Y-24559531D01*
X63164666Y-24403842D01*
X63156108Y-24389976D01*
X63152929Y-24373994D01*
X63065312Y-24242866D01*
X62982484Y-24108666D01*
X62969271Y-24099130D01*
X62960218Y-24085582D01*
X62829088Y-23997964D01*
X62701210Y-23905677D01*
X60923210Y-23092877D01*
X60903309Y-23088166D01*
X60886197Y-23076960D01*
X60735206Y-23048375D01*
X60585667Y-23012978D01*
X60565475Y-23016242D01*
X60545380Y-23012438D01*
X41317580Y-23190238D01*
X41151742Y-23224822D01*
X40985595Y-23257871D01*
X40982114Y-23260197D01*
X40978014Y-23261052D01*
X40837992Y-23356496D01*
X40697182Y-23450582D01*
X32829564Y-31318200D01*
X30497789Y-31318200D01*
X30387399Y-31272362D01*
X30015433Y-31272038D01*
X29671657Y-31414083D01*
X29408408Y-31676873D01*
X29265762Y-32020401D01*
X29265438Y-32392367D01*
X29407483Y-32736143D01*
X29670273Y-32999392D01*
X30013801Y-33142038D01*
X30385767Y-33142362D01*
X30497488Y-33096200D01*
X33197800Y-33096200D01*
X33538006Y-33028529D01*
X33826418Y-32835818D01*
X41697435Y-24964801D01*
X60363953Y-24792192D01*
X60637846Y-24917400D01*
X60147200Y-24917400D01*
X59806994Y-24985071D01*
X59659221Y-25083810D01*
X59518582Y-25177782D01*
X57207182Y-27489182D01*
X57014471Y-27777594D01*
X56946800Y-28117800D01*
X56946800Y-35344164D01*
X47762743Y-44528221D01*
X47574488Y-44450051D01*
X47780303Y-44365010D01*
X48173629Y-43972370D01*
X48386757Y-43459100D01*
X48387242Y-42903339D01*
X48175010Y-42389697D01*
X47782370Y-41996371D01*
X47574488Y-41910051D01*
X47780303Y-41825010D01*
X48173629Y-41432370D01*
X48386757Y-40919100D01*
X48387242Y-40363339D01*
X48175010Y-39849697D01*
X47782370Y-39456371D01*
X47574488Y-39370051D01*
X47780303Y-39285010D01*
X48173629Y-38892370D01*
X48386757Y-38379100D01*
X48387242Y-37823339D01*
X48175010Y-37309697D01*
X47782370Y-36916371D01*
X47574488Y-36830051D01*
X47780303Y-36745010D01*
X48173629Y-36352370D01*
X48386757Y-35839100D01*
X48387242Y-35283339D01*
X48175010Y-34769697D01*
X47782370Y-34376371D01*
X47574488Y-34290051D01*
X47780303Y-34205010D01*
X48173629Y-33812370D01*
X48386757Y-33299100D01*
X48387242Y-32743339D01*
X48175010Y-32229697D01*
X47782370Y-31836371D01*
X47574488Y-31750051D01*
X47780303Y-31665010D01*
X48173629Y-31272370D01*
X48386757Y-30759100D01*
X48387242Y-30203339D01*
X48175010Y-29689697D01*
X47782370Y-29296371D01*
X47574488Y-29210051D01*
X47780303Y-29125010D01*
X48173629Y-28732370D01*
X48386757Y-28219100D01*
X48387242Y-27663339D01*
X48175010Y-27149697D01*
X47782370Y-26756371D01*
X47269100Y-26543243D01*
X46713339Y-26542758D01*
X46199697Y-26754990D01*
X45806371Y-27147630D01*
X45593243Y-27660900D01*
X45592758Y-28216661D01*
X45804990Y-28730303D01*
X46197630Y-29123629D01*
X46405512Y-29209949D01*
X46199697Y-29294990D01*
X45806371Y-29687630D01*
X45593243Y-30200900D01*
X45592758Y-30756661D01*
X45804990Y-31270303D01*
X46197630Y-31663629D01*
X46405512Y-31749949D01*
X46199697Y-31834990D01*
X45806371Y-32227630D01*
X45593243Y-32740900D01*
X45592758Y-33296661D01*
X45804990Y-33810303D01*
X46197630Y-34203629D01*
X46405512Y-34289949D01*
X46199697Y-34374990D01*
X45806371Y-34767630D01*
X45593243Y-35280900D01*
X45592758Y-35836661D01*
X45804990Y-36350303D01*
X46197630Y-36743629D01*
X46405512Y-36829949D01*
X46199697Y-36914990D01*
X45806371Y-37307630D01*
X45593243Y-37820900D01*
X45592758Y-38376661D01*
X45804990Y-38890303D01*
X46197630Y-39283629D01*
X46405512Y-39369949D01*
X46199697Y-39454990D01*
X45806371Y-39847630D01*
X45593243Y-40360900D01*
X45592758Y-40916661D01*
X45804990Y-41430303D01*
X46197630Y-41823629D01*
X46405512Y-41909949D01*
X46199697Y-41994990D01*
X45806371Y-42387630D01*
X45593243Y-42900900D01*
X45592758Y-43456661D01*
X45804990Y-43970303D01*
X46197630Y-44363629D01*
X46405512Y-44449949D01*
X46199697Y-44534990D01*
X45806371Y-44927630D01*
X45593243Y-45440900D01*
X45592758Y-45996661D01*
X45804990Y-46510303D01*
X46197630Y-46903629D01*
X46405512Y-46989949D01*
X46199697Y-47074990D01*
X45806371Y-47467630D01*
X45593243Y-47980900D01*
X45592758Y-48536661D01*
X45804990Y-49050303D01*
X46197630Y-49443629D01*
X46405512Y-49529949D01*
X46199697Y-49614990D01*
X45876873Y-49937251D01*
X44312423Y-49974500D01*
X24706743Y-49974500D01*
X20990669Y-49930390D01*
X20833113Y-49694591D01*
X20335123Y-49361845D01*
X19747704Y-49245000D01*
X17852296Y-49245000D01*
X17264877Y-49361845D01*
X16766887Y-49694591D01*
X16434141Y-50192581D01*
X16317296Y-50780000D01*
X15331002Y-50780000D01*
X15430320Y-44800000D01*
X16352560Y-44800000D01*
X16352560Y-46600000D01*
X16396838Y-46835317D01*
X16535910Y-47051441D01*
X16748110Y-47196431D01*
X17000000Y-47247440D01*
X20600000Y-47247440D01*
X20835317Y-47203162D01*
X21051441Y-47064090D01*
X21196431Y-46851890D01*
X21247440Y-46600000D01*
X21247440Y-44800000D01*
X21203162Y-44564683D01*
X21064090Y-44348559D01*
X20851890Y-44203569D01*
X20600000Y-44152560D01*
X17000000Y-44152560D01*
X16764683Y-44196838D01*
X16548559Y-44335910D01*
X16403569Y-44548110D01*
X16352560Y-44800000D01*
X15430320Y-44800000D01*
X15591422Y-35100000D01*
X16317296Y-35100000D01*
X16441753Y-35725687D01*
X16796176Y-36256120D01*
X17326609Y-36610543D01*
X17952296Y-36735000D01*
X19647704Y-36735000D01*
X20273391Y-36610543D01*
X20803824Y-36256120D01*
X21158247Y-35725687D01*
X21282704Y-35100000D01*
X21158247Y-34474313D01*
X20803824Y-33943880D01*
X20273391Y-33589457D01*
X19647704Y-33465000D01*
X17952296Y-33465000D01*
X17326609Y-33589457D01*
X16796176Y-33943880D01*
X16441753Y-34474313D01*
X16317296Y-35100000D01*
X15591422Y-35100000D01*
X15652740Y-31408000D01*
X26188560Y-31408000D01*
X26188560Y-33108000D01*
X26232838Y-33343317D01*
X26371910Y-33559441D01*
X26584110Y-33704431D01*
X26836000Y-33755440D01*
X28536000Y-33755440D01*
X28771317Y-33711162D01*
X28987441Y-33572090D01*
X29132431Y-33359890D01*
X29183440Y-33108000D01*
X29183440Y-31408000D01*
X29139162Y-31172683D01*
X29000090Y-30956559D01*
X28787890Y-30811569D01*
X28679893Y-30789699D01*
X28957645Y-30484924D01*
X29127476Y-30074890D01*
X29006155Y-29845000D01*
X27813000Y-29845000D01*
X27813000Y-29865000D01*
X27559000Y-29865000D01*
X27559000Y-29845000D01*
X26365845Y-29845000D01*
X26244524Y-30074890D01*
X26414355Y-30484924D01*
X26690501Y-30787937D01*
X26600683Y-30804838D01*
X26384559Y-30943910D01*
X26239569Y-31156110D01*
X26188560Y-31408000D01*
X15652740Y-31408000D01*
X15686735Y-29361110D01*
X26244524Y-29361110D01*
X26365845Y-29591000D01*
X27559000Y-29591000D01*
X27559000Y-28397181D01*
X27813000Y-28397181D01*
X27813000Y-29591000D01*
X29006155Y-29591000D01*
X29127476Y-29361110D01*
X28957645Y-28951076D01*
X28567358Y-28522817D01*
X28042892Y-28276514D01*
X27813000Y-28397181D01*
X27559000Y-28397181D01*
X27329108Y-28276514D01*
X26804642Y-28522817D01*
X26414355Y-28951076D01*
X26244524Y-29361110D01*
X15686735Y-29361110D01*
X15732593Y-26600000D01*
X16352560Y-26600000D01*
X16352560Y-28600000D01*
X16396838Y-28835317D01*
X16535910Y-29051441D01*
X16748110Y-29196431D01*
X17000000Y-29247440D01*
X20600000Y-29247440D01*
X20835317Y-29203162D01*
X21051441Y-29064090D01*
X21196431Y-28851890D01*
X21247440Y-28600000D01*
X21247440Y-26600000D01*
X21203162Y-26364683D01*
X21064090Y-26148559D01*
X20851890Y-26003569D01*
X20600000Y-25952560D01*
X17000000Y-25952560D01*
X16764683Y-25996838D01*
X16548559Y-26135910D01*
X16403569Y-26348110D01*
X16352560Y-26600000D01*
X15732593Y-26600000D01*
X15745547Y-25820000D01*
X31014560Y-25820000D01*
X31014560Y-27520000D01*
X31058838Y-27755317D01*
X31197910Y-27971441D01*
X31410110Y-28116431D01*
X31662000Y-28167440D01*
X33362000Y-28167440D01*
X33597317Y-28123162D01*
X33813441Y-27984090D01*
X33958431Y-27771890D01*
X33980301Y-27663893D01*
X34285076Y-27941645D01*
X34695110Y-28111476D01*
X34925000Y-27990155D01*
X34925000Y-26797000D01*
X35179000Y-26797000D01*
X35179000Y-27990155D01*
X35408890Y-28111476D01*
X35818924Y-27941645D01*
X36247183Y-27551358D01*
X36493486Y-27026892D01*
X36372819Y-26797000D01*
X35179000Y-26797000D01*
X34925000Y-26797000D01*
X34905000Y-26797000D01*
X34905000Y-26543000D01*
X34925000Y-26543000D01*
X34925000Y-25349845D01*
X35179000Y-25349845D01*
X35179000Y-26543000D01*
X36372819Y-26543000D01*
X36493486Y-26313108D01*
X36247183Y-25788642D01*
X35818924Y-25398355D01*
X35408890Y-25228524D01*
X35179000Y-25349845D01*
X34925000Y-25349845D01*
X34695110Y-25228524D01*
X34285076Y-25398355D01*
X33982063Y-25674501D01*
X33965162Y-25584683D01*
X33826090Y-25368559D01*
X33613890Y-25223569D01*
X33362000Y-25172560D01*
X31662000Y-25172560D01*
X31426683Y-25216838D01*
X31210559Y-25355910D01*
X31065569Y-25568110D01*
X31014560Y-25820000D01*
X15745547Y-25820000D01*
X15805410Y-22215709D01*
X17054018Y-22734176D01*
X18937718Y-22735820D01*
X20678658Y-22016478D01*
X22011797Y-20685664D01*
X22734176Y-18945982D01*
X22735130Y-17852296D01*
X39065000Y-17852296D01*
X39065000Y-19547704D01*
X39189457Y-20173391D01*
X39543880Y-20703824D01*
X40074313Y-21058247D01*
X40700000Y-21182704D01*
X41325687Y-21058247D01*
X41856120Y-20703824D01*
X42210543Y-20173391D01*
X42335000Y-19547704D01*
X42335000Y-17852296D01*
X42210543Y-17226609D01*
X41992311Y-16900000D01*
X46552560Y-16900000D01*
X46552560Y-20500000D01*
X46596838Y-20735317D01*
X46735910Y-20951441D01*
X46948110Y-21096431D01*
X47200000Y-21147440D01*
X49200000Y-21147440D01*
X49435317Y-21103162D01*
X49651441Y-20964090D01*
X49796431Y-20751890D01*
X49847440Y-20500000D01*
X49847440Y-19580661D01*
X67436758Y-19580661D01*
X67648990Y-20094303D01*
X68041630Y-20487629D01*
X68554900Y-20700757D01*
X69110661Y-20701242D01*
X69624303Y-20489010D01*
X69829457Y-20284213D01*
X73113392Y-20284213D01*
X73182857Y-20526397D01*
X73706302Y-20713144D01*
X74261368Y-20685362D01*
X74645143Y-20526397D01*
X74714608Y-20284213D01*
X77939392Y-20284213D01*
X78008857Y-20526397D01*
X78532302Y-20713144D01*
X79087368Y-20685362D01*
X79471143Y-20526397D01*
X79540608Y-20284213D01*
X78740000Y-19483605D01*
X77939392Y-20284213D01*
X74714608Y-20284213D01*
X73914000Y-19483605D01*
X73113392Y-20284213D01*
X69829457Y-20284213D01*
X70017629Y-20096370D01*
X70230757Y-19583100D01*
X70231181Y-19096302D01*
X72504856Y-19096302D01*
X72532638Y-19651368D01*
X72691603Y-20035143D01*
X72933787Y-20104608D01*
X73734395Y-19304000D01*
X74093605Y-19304000D01*
X74894213Y-20104608D01*
X75136397Y-20035143D01*
X75323144Y-19511698D01*
X75302353Y-19096302D01*
X77330856Y-19096302D01*
X77358638Y-19651368D01*
X77517603Y-20035143D01*
X77759787Y-20104608D01*
X78560395Y-19304000D01*
X77759787Y-18503392D01*
X77517603Y-18572857D01*
X77330856Y-19096302D01*
X75302353Y-19096302D01*
X75295362Y-18956632D01*
X75136397Y-18572857D01*
X74894213Y-18503392D01*
X74093605Y-19304000D01*
X73734395Y-19304000D01*
X72933787Y-18503392D01*
X72691603Y-18572857D01*
X72504856Y-19096302D01*
X70231181Y-19096302D01*
X70231242Y-19027339D01*
X70019010Y-18513697D01*
X69829432Y-18323787D01*
X73113392Y-18323787D01*
X73914000Y-19124395D01*
X74714608Y-18323787D01*
X77939392Y-18323787D01*
X78740000Y-19124395D01*
X79540608Y-18323787D01*
X79471143Y-18081603D01*
X78947698Y-17894856D01*
X78392632Y-17922638D01*
X78008857Y-18081603D01*
X77939392Y-18323787D01*
X74714608Y-18323787D01*
X74645143Y-18081603D01*
X74121698Y-17894856D01*
X73566632Y-17922638D01*
X73182857Y-18081603D01*
X73113392Y-18323787D01*
X69829432Y-18323787D01*
X69626370Y-18120371D01*
X69113100Y-17907243D01*
X68557339Y-17906758D01*
X68043697Y-18118990D01*
X67650371Y-18511630D01*
X67437243Y-19024900D01*
X67436758Y-19580661D01*
X49847440Y-19580661D01*
X49847440Y-16900000D01*
X49803162Y-16664683D01*
X49664090Y-16448559D01*
X49451890Y-16303569D01*
X49200000Y-16252560D01*
X47200000Y-16252560D01*
X46964683Y-16296838D01*
X46748559Y-16435910D01*
X46603569Y-16648110D01*
X46552560Y-16900000D01*
X41992311Y-16900000D01*
X41856120Y-16696176D01*
X41325687Y-16341753D01*
X40700000Y-16217296D01*
X40074313Y-16341753D01*
X39543880Y-16696176D01*
X39189457Y-17226609D01*
X39065000Y-17852296D01*
X22735130Y-17852296D01*
X22735820Y-17062282D01*
X22016478Y-15321342D01*
X20685664Y-13988203D01*
X19665355Y-13564534D01*
X120172278Y-13588970D01*
X120172278Y-13588970D01*
G37*
X120172278Y-13588970D02*
X120315782Y-18285456D01*
X119128442Y-18262623D01*
X119125790Y-18262600D01*
X88011404Y-18314120D01*
X82016652Y-17991765D01*
X81813100Y-17907243D01*
X81257339Y-17906758D01*
X80743697Y-18118990D01*
X80350371Y-18511630D01*
X80137243Y-19024900D01*
X80137029Y-19269656D01*
X80121362Y-18956632D01*
X79962397Y-18572857D01*
X79720213Y-18503392D01*
X78919605Y-19304000D01*
X79720213Y-20104608D01*
X79962397Y-20035143D01*
X80136788Y-19546332D01*
X80136758Y-19580661D01*
X80348990Y-20094303D01*
X80741630Y-20487629D01*
X81205322Y-20680170D01*
X80975036Y-32814390D01*
X80984102Y-32863981D01*
X81011748Y-32906138D01*
X81053617Y-32934217D01*
X81100595Y-32943792D01*
X101448836Y-33171004D01*
X101466375Y-34944389D01*
X96145382Y-40265382D01*
X95952671Y-40553794D01*
X95885000Y-40894000D01*
X95885000Y-55511764D01*
X91833764Y-59563000D01*
X85217000Y-59563000D01*
X84876794Y-59630671D01*
X84588382Y-59823382D01*
X83401526Y-61010238D01*
X83291057Y-61055883D01*
X83027808Y-61318673D01*
X82885162Y-61662201D01*
X82884838Y-62034167D01*
X83026883Y-62377943D01*
X83158111Y-62509400D01*
X82279552Y-62509400D01*
X81627000Y-62107830D01*
X81627000Y-62101069D01*
X81706838Y-61908799D01*
X81707162Y-61536833D01*
X81565117Y-61193057D01*
X81302327Y-60929808D01*
X80958799Y-60787162D01*
X80586833Y-60786838D01*
X80243057Y-60928883D01*
X79979808Y-61191673D01*
X79837162Y-61535201D01*
X79836838Y-61907167D01*
X79917000Y-62101174D01*
X79917000Y-62585600D01*
X79936512Y-62683693D01*
X79940251Y-62783635D01*
X79968749Y-62845758D01*
X79982083Y-62912794D01*
X80037648Y-62995952D01*
X80079349Y-63086858D01*
X80129453Y-63133348D01*
X80167424Y-63190176D01*
X80250581Y-63245740D01*
X80323897Y-63313768D01*
X81451091Y-64007426D01*
X81464182Y-64027018D01*
X81638098Y-64143225D01*
X80039817Y-64135002D01*
X79990356Y-64144753D01*
X79948586Y-64172979D01*
X79921088Y-64215233D01*
X79912164Y-64261745D01*
X79909361Y-65658745D01*
X79919268Y-65708175D01*
X79947625Y-65749857D01*
X79989965Y-65777222D01*
X80035050Y-65785993D01*
X104646689Y-66039993D01*
X104696200Y-66030498D01*
X104738116Y-66002488D01*
X104765832Y-65960378D01*
X104775000Y-65913000D01*
X104775000Y-65313178D01*
X104833102Y-65216341D01*
X104851200Y-65151000D01*
X104851200Y-64389000D01*
X104849642Y-64381305D01*
X108784674Y-64381305D01*
X109071043Y-65074372D01*
X109600839Y-65605093D01*
X110293405Y-65892672D01*
X111043305Y-65893326D01*
X111736372Y-65606957D01*
X112002472Y-65341320D01*
X132016285Y-65341320D01*
X132145533Y-65634123D01*
X132845806Y-65902388D01*
X133595435Y-65882250D01*
X134194467Y-65634123D01*
X134323715Y-65341320D01*
X133170000Y-64187605D01*
X132016285Y-65341320D01*
X112002472Y-65341320D01*
X112267093Y-65077161D01*
X112554672Y-64384595D01*
X112555283Y-63683806D01*
X131275612Y-63683806D01*
X131295750Y-64433435D01*
X131543877Y-65032467D01*
X131836680Y-65161715D01*
X132990395Y-64008000D01*
X133349605Y-64008000D01*
X134503320Y-65161715D01*
X134796123Y-65032467D01*
X135064388Y-64332194D01*
X135044250Y-63582565D01*
X134796123Y-62983533D01*
X134503320Y-62854285D01*
X133349605Y-64008000D01*
X132990395Y-64008000D01*
X131836680Y-62854285D01*
X131543877Y-62983533D01*
X131275612Y-63683806D01*
X112555283Y-63683806D01*
X112555326Y-63634695D01*
X112268957Y-62941628D01*
X112002475Y-62674680D01*
X132016285Y-62674680D01*
X133170000Y-63828395D01*
X134323715Y-62674680D01*
X134194467Y-62381877D01*
X133494194Y-62113612D01*
X132744565Y-62133750D01*
X132145533Y-62381877D01*
X132016285Y-62674680D01*
X112002475Y-62674680D01*
X111739161Y-62410907D01*
X111046595Y-62123328D01*
X110296695Y-62122674D01*
X109603628Y-62409043D01*
X109072907Y-62938839D01*
X108785328Y-63631405D01*
X108784674Y-64381305D01*
X104849642Y-64381305D01*
X104841194Y-64339590D01*
X104812753Y-64297965D01*
X104770359Y-64270685D01*
X104724853Y-64262002D01*
X93177452Y-64202593D01*
X93440218Y-64027018D01*
X99434618Y-58032618D01*
X99532184Y-57886600D01*
X99627329Y-57744206D01*
X99695000Y-57404000D01*
X99695000Y-41781981D01*
X99744615Y-41707726D01*
X101518937Y-40258968D01*
X101605449Y-49006329D01*
X101532799Y-48976162D01*
X101160833Y-48975838D01*
X100891408Y-49087162D01*
X100878794Y-49089671D01*
X100868194Y-49096754D01*
X100817057Y-49117883D01*
X100777553Y-49157318D01*
X100590382Y-49282382D01*
X100397671Y-49570794D01*
X100330000Y-49911000D01*
X100397671Y-50251206D01*
X100590382Y-50539618D01*
X100776583Y-50664034D01*
X100815673Y-50703192D01*
X100867223Y-50724598D01*
X100878794Y-50732329D01*
X100892323Y-50735020D01*
X101159201Y-50845838D01*
X101531167Y-50846162D01*
X101623269Y-50808106D01*
X101676206Y-56160656D01*
X101686700Y-56209965D01*
X101715551Y-56251306D01*
X101782655Y-56284727D01*
X103332055Y-56538727D01*
X103382433Y-56536846D01*
X103428110Y-56515514D01*
X103461889Y-56478091D01*
X103479600Y-56413502D01*
X103481024Y-54631305D01*
X114534674Y-54631305D01*
X114821043Y-55324372D01*
X115350839Y-55855093D01*
X116043405Y-56142672D01*
X116793305Y-56143326D01*
X117486372Y-55856957D01*
X118017093Y-55327161D01*
X118304672Y-54634595D01*
X118305326Y-53884695D01*
X118018957Y-53191628D01*
X117489161Y-52660907D01*
X116796595Y-52373328D01*
X116046695Y-52372674D01*
X115353628Y-52659043D01*
X114822907Y-53188839D01*
X114535328Y-53881405D01*
X114534674Y-54631305D01*
X103481024Y-54631305D01*
X103484087Y-50800000D01*
X105493811Y-50800000D01*
X105604201Y-50845838D01*
X105976167Y-50846162D01*
X106319943Y-50704117D01*
X106583192Y-50441327D01*
X106725838Y-50097799D01*
X106726162Y-49725833D01*
X106584117Y-49382057D01*
X106321327Y-49118808D01*
X105977799Y-48976162D01*
X105605833Y-48975838D01*
X105494112Y-49022000D01*
X103485509Y-49022000D01*
X103493803Y-38646463D01*
X107035522Y-35754600D01*
X134010400Y-35754600D01*
X134337595Y-35689517D01*
X134614976Y-35504176D01*
X135910376Y-34208776D01*
X136095717Y-33931395D01*
X136119392Y-33812370D01*
X136160800Y-33604200D01*
X136160800Y-31392469D01*
X136240638Y-31200199D01*
X136240962Y-30828233D01*
X136098917Y-30484457D01*
X135836127Y-30221208D01*
X135492599Y-30078562D01*
X135120633Y-30078238D01*
X134776857Y-30220283D01*
X134513608Y-30483073D01*
X134370962Y-30826601D01*
X134370638Y-31198567D01*
X134450800Y-31392574D01*
X134450800Y-33250048D01*
X133656248Y-34044600D01*
X115411973Y-34044600D01*
X115795824Y-33788120D01*
X116150247Y-33257687D01*
X116274704Y-32632000D01*
X116150247Y-32006313D01*
X115795824Y-31475880D01*
X115265391Y-31121457D01*
X114639704Y-30997000D01*
X112944296Y-30997000D01*
X112318609Y-31121457D01*
X111788176Y-31475880D01*
X111433753Y-32006313D01*
X111309296Y-32632000D01*
X111433753Y-33257687D01*
X111788176Y-33788120D01*
X112172027Y-34044600D01*
X109139104Y-34044600D01*
X109139162Y-33977833D01*
X108997117Y-33634057D01*
X108734327Y-33370808D01*
X108390799Y-33228162D01*
X108018833Y-33227838D01*
X107907112Y-33274000D01*
X104648000Y-33274000D01*
X104307794Y-33341671D01*
X104019382Y-33534382D01*
X103759000Y-33794764D01*
X103759000Y-30594236D01*
X104355836Y-29997400D01*
X106992411Y-29997400D01*
X107102801Y-30043238D01*
X107474767Y-30043562D01*
X107818543Y-29901517D01*
X108081792Y-29638727D01*
X108224438Y-29295199D01*
X108224762Y-28923233D01*
X108082717Y-28579457D01*
X107819927Y-28316208D01*
X107476399Y-28173562D01*
X107104433Y-28173238D01*
X106992712Y-28219400D01*
X103987600Y-28219400D01*
X103647394Y-28287071D01*
X103502006Y-28384216D01*
X103504899Y-24765000D01*
X139319000Y-24765000D01*
X139319000Y-36245800D01*
X108704389Y-36245800D01*
X108593999Y-36199962D01*
X108222033Y-36199638D01*
X107890161Y-36336764D01*
X107819927Y-36266408D01*
X107476399Y-36123762D01*
X107104433Y-36123438D01*
X106760657Y-36265483D01*
X106497408Y-36528273D01*
X106354762Y-36871801D01*
X106354438Y-37243767D01*
X106400600Y-37355488D01*
X106400600Y-38735000D01*
X106468271Y-39075206D01*
X106660982Y-39363618D01*
X106949394Y-39556329D01*
X107289600Y-39624000D01*
X109728000Y-39624000D01*
X110068206Y-39556329D01*
X110356618Y-39363618D01*
X110858236Y-38862000D01*
X111407943Y-38862000D01*
X111395569Y-38880110D01*
X111344560Y-39132000D01*
X111344560Y-41132000D01*
X111388838Y-41367317D01*
X111527910Y-41583441D01*
X111740110Y-41728431D01*
X111992000Y-41779440D01*
X115592000Y-41779440D01*
X115827317Y-41735162D01*
X116043441Y-41596090D01*
X116188431Y-41383890D01*
X116239440Y-41132000D01*
X116239440Y-39132000D01*
X116195162Y-38896683D01*
X116172844Y-38862000D01*
X129425764Y-38862000D01*
X130562382Y-39998618D01*
X130850794Y-40191329D01*
X131191000Y-40259000D01*
X139319000Y-40259000D01*
X139319000Y-44704000D01*
X133901189Y-44704000D01*
X133790799Y-44658162D01*
X133418833Y-44657838D01*
X133075057Y-44799883D01*
X132811808Y-45062673D01*
X132669162Y-45406201D01*
X132668838Y-45778167D01*
X132810883Y-46121943D01*
X133073673Y-46385192D01*
X133417201Y-46527838D01*
X133789167Y-46528162D01*
X133900888Y-46482000D01*
X139319000Y-46482000D01*
X139319000Y-57150000D01*
X139329006Y-57199410D01*
X139357447Y-57241035D01*
X139399841Y-57268315D01*
X139446000Y-57277000D01*
X140970000Y-57277000D01*
X141019410Y-57266994D01*
X141061035Y-57238553D01*
X141088315Y-57196159D01*
X141096996Y-57150977D01*
X141179065Y-46482000D01*
X146177000Y-46482000D01*
X146517206Y-46414329D01*
X146805618Y-46221618D01*
X147567618Y-45459618D01*
X147644410Y-45344691D01*
X150740000Y-45344691D01*
X150740000Y-46685250D01*
X150858162Y-46803412D01*
X150833872Y-46883930D01*
X150859239Y-47137511D01*
X150740000Y-47256750D01*
X150740000Y-48597309D01*
X150836673Y-48830698D01*
X151015301Y-49009327D01*
X151248690Y-49106000D01*
X152589250Y-49106000D01*
X152713822Y-48981428D01*
X152757257Y-48977083D01*
X152881782Y-48925502D01*
X153022791Y-48968041D01*
X153160750Y-49106000D01*
X154501310Y-49106000D01*
X154734699Y-49009327D01*
X154913327Y-48830698D01*
X155010000Y-48597309D01*
X155010000Y-47256750D01*
X154891838Y-47138588D01*
X154916128Y-47058070D01*
X154890761Y-46804489D01*
X155010000Y-46685250D01*
X155010000Y-45344691D01*
X154913327Y-45111302D01*
X154734699Y-44932673D01*
X154501310Y-44836000D01*
X153160750Y-44836000D01*
X153036178Y-44960572D01*
X152992743Y-44964917D01*
X152868218Y-45016498D01*
X152727209Y-44973959D01*
X152589250Y-44836000D01*
X151248690Y-44836000D01*
X151015301Y-44932673D01*
X150836673Y-45111302D01*
X150740000Y-45344691D01*
X147644410Y-45344691D01*
X147760329Y-45171206D01*
X147828000Y-44831000D01*
X147828000Y-41445189D01*
X147873838Y-41334799D01*
X147874162Y-40962833D01*
X147732117Y-40619057D01*
X147469327Y-40355808D01*
X147125799Y-40213162D01*
X146753833Y-40212838D01*
X146410057Y-40354883D01*
X146146808Y-40617673D01*
X146004162Y-40961201D01*
X146003838Y-41333167D01*
X146050000Y-41444888D01*
X146050000Y-44462764D01*
X145808764Y-44704000D01*
X141192742Y-44704000D01*
X141226934Y-40259000D01*
X145034000Y-40259000D01*
X145374206Y-40191329D01*
X145662618Y-39998618D01*
X155435236Y-30226000D01*
X156420811Y-30226000D01*
X156531201Y-30271838D01*
X156903167Y-30272162D01*
X157246943Y-30130117D01*
X157510192Y-29867327D01*
X157652838Y-29523799D01*
X157653162Y-29151833D01*
X157511117Y-28808057D01*
X157248327Y-28544808D01*
X156904799Y-28402162D01*
X156532833Y-28401838D01*
X156421112Y-28448000D01*
X155067000Y-28448000D01*
X154726795Y-28515670D01*
X154438382Y-28708382D01*
X145041465Y-38105299D01*
X154600545Y-27855200D01*
X158962034Y-27855200D01*
X159419000Y-28754391D01*
X159419000Y-28957931D01*
X159339162Y-29150201D01*
X159338838Y-29522167D01*
X159480883Y-29865943D01*
X159743673Y-30129192D01*
X160087201Y-30271838D01*
X160459167Y-30272162D01*
X160802943Y-30130117D01*
X161066192Y-29867327D01*
X161208838Y-29523799D01*
X161209162Y-29151833D01*
X161129000Y-28957826D01*
X161129000Y-28549600D01*
X161122458Y-28516713D01*
X161126435Y-28483417D01*
X161090117Y-28354120D01*
X161063917Y-28222406D01*
X161045288Y-28194526D01*
X161036220Y-28162243D01*
X160248820Y-26612842D01*
X160165785Y-26507284D01*
X160091176Y-26395624D01*
X160063295Y-26376995D01*
X160042564Y-26350640D01*
X159925461Y-26284896D01*
X159813794Y-26210283D01*
X159780906Y-26203741D01*
X159751667Y-26187326D01*
X159618321Y-26171401D01*
X159486600Y-26145200D01*
X155722615Y-26145200D01*
X155722762Y-25976833D01*
X155580717Y-25633057D01*
X155317927Y-25369808D01*
X154974399Y-25227162D01*
X154602433Y-25226838D01*
X154490712Y-25273000D01*
X153416000Y-25273000D01*
X153075795Y-25340670D01*
X152787382Y-25533382D01*
X142074964Y-36245800D01*
X141257805Y-36245800D01*
X141350027Y-24257000D01*
X161719510Y-24257000D01*
X164719026Y-30256032D01*
X164744290Y-59537600D01*
X139725400Y-59537600D01*
X139675990Y-59547606D01*
X139634365Y-59576047D01*
X139607085Y-59618441D01*
X139598463Y-59660591D01*
X139522263Y-62073591D01*
X139530705Y-62123293D01*
X139557817Y-62165794D01*
X139599330Y-62194399D01*
X139649200Y-62204600D01*
X170306466Y-62204600D01*
X170132797Y-103581139D01*
X170048565Y-103370088D01*
X169979040Y-103266039D01*
X169390072Y-102789533D01*
X166179605Y-106000000D01*
X169390072Y-109210467D01*
X169979040Y-108733961D01*
X170112474Y-108423276D01*
X170104332Y-110363000D01*
X167842069Y-110363000D01*
X168629912Y-110048565D01*
X168733961Y-109979040D01*
X169210467Y-109390072D01*
X166000000Y-106179605D01*
X162789533Y-109390072D01*
X163266039Y-109979040D01*
X164160048Y-110363000D01*
X143129000Y-110363000D01*
X143129000Y-106880403D01*
X161253191Y-106880403D01*
X161951435Y-108629912D01*
X162020960Y-108733961D01*
X162609928Y-109210467D01*
X165820395Y-106000000D01*
X162609928Y-102789533D01*
X162020960Y-103266039D01*
X161277604Y-104996862D01*
X161253191Y-106880403D01*
X143129000Y-106880403D01*
X143129000Y-102609928D01*
X162789533Y-102609928D01*
X166000000Y-105820395D01*
X169210467Y-102609928D01*
X168733961Y-102020960D01*
X167003138Y-101277604D01*
X165119597Y-101253191D01*
X163370088Y-101951435D01*
X163266039Y-102020960D01*
X162789533Y-102609928D01*
X143129000Y-102609928D01*
X143129000Y-86283800D01*
X144983200Y-86283800D01*
X145323406Y-86216129D01*
X145611818Y-86023418D01*
X151200545Y-80434691D01*
X153600000Y-80434691D01*
X153600000Y-81775250D01*
X153718162Y-81893412D01*
X153693872Y-81973930D01*
X153719239Y-82227511D01*
X153600000Y-82346750D01*
X153600000Y-83687309D01*
X153696673Y-83920698D01*
X153875301Y-84099327D01*
X154108690Y-84196000D01*
X155449250Y-84196000D01*
X155573822Y-84071428D01*
X155617257Y-84067083D01*
X155741782Y-84015502D01*
X155882791Y-84058041D01*
X156020750Y-84196000D01*
X157361310Y-84196000D01*
X157594699Y-84099327D01*
X157773327Y-83920698D01*
X157870000Y-83687309D01*
X157870000Y-82346750D01*
X157751838Y-82228588D01*
X157776128Y-82148070D01*
X157750761Y-81894489D01*
X157870000Y-81775250D01*
X157870000Y-80434691D01*
X157773327Y-80201302D01*
X157594699Y-80022673D01*
X157361310Y-79926000D01*
X156020750Y-79926000D01*
X155896178Y-80050572D01*
X155852743Y-80054917D01*
X155728218Y-80106498D01*
X155587209Y-80063959D01*
X155449250Y-79926000D01*
X154108690Y-79926000D01*
X153875301Y-80022673D01*
X153696673Y-80201302D01*
X153600000Y-80434691D01*
X151200545Y-80434691D01*
X164121474Y-67513762D01*
X164231943Y-67468117D01*
X164495192Y-67205327D01*
X164637838Y-66861799D01*
X164638162Y-66489833D01*
X164496117Y-66146057D01*
X164233327Y-65882808D01*
X163889799Y-65740162D01*
X163517833Y-65739838D01*
X163174057Y-65881883D01*
X162910808Y-66144673D01*
X162864451Y-66256313D01*
X144614964Y-84505800D01*
X143129000Y-84505800D01*
X143129000Y-68580000D01*
X143118994Y-68530590D01*
X143090553Y-68488965D01*
X143048159Y-68461685D01*
X143004171Y-68453019D01*
X141665894Y-68430142D01*
X144183036Y-65913000D01*
X157944811Y-65913000D01*
X158055201Y-65958838D01*
X158427167Y-65959162D01*
X158770943Y-65817117D01*
X158927800Y-65660533D01*
X158927800Y-67271964D01*
X156299526Y-69900238D01*
X156189057Y-69945883D01*
X155925808Y-70208673D01*
X155783162Y-70552201D01*
X155782838Y-70924167D01*
X155924883Y-71267943D01*
X156187673Y-71531192D01*
X156531201Y-71673838D01*
X156903167Y-71674162D01*
X157246943Y-71532117D01*
X157510192Y-71269327D01*
X157556549Y-71157687D01*
X160445418Y-68268818D01*
X160495384Y-68194038D01*
X160638129Y-67980406D01*
X160705800Y-67640200D01*
X160705800Y-64414400D01*
X160638129Y-64074194D01*
X160445418Y-63785782D01*
X159480218Y-62820582D01*
X159424923Y-62783635D01*
X159191806Y-62627871D01*
X158851600Y-62560200D01*
X143560800Y-62560200D01*
X143220594Y-62627871D01*
X142987477Y-62783635D01*
X142932182Y-62820582D01*
X122415364Y-83337400D01*
X109263189Y-83337400D01*
X109152799Y-83291562D01*
X108780833Y-83291238D01*
X108437057Y-83433283D01*
X108173808Y-83696073D01*
X108031162Y-84039601D01*
X108030838Y-84411567D01*
X108071810Y-84510728D01*
X107739433Y-84510438D01*
X107395657Y-84652483D01*
X107132408Y-84915273D01*
X106989762Y-85258801D01*
X106989438Y-85630767D01*
X107131483Y-85974543D01*
X107394273Y-86237792D01*
X107737801Y-86380438D01*
X108109767Y-86380762D01*
X108221488Y-86334600D01*
X123393200Y-86334600D01*
X123733406Y-86266929D01*
X124021818Y-86074218D01*
X139903200Y-70192836D01*
X139903200Y-84505800D01*
X133977389Y-84505800D01*
X133866999Y-84459962D01*
X133495033Y-84459638D01*
X133151257Y-84601683D01*
X132888008Y-84864473D01*
X132745362Y-85208001D01*
X132745038Y-85579967D01*
X132887083Y-85923743D01*
X133149873Y-86186992D01*
X133493401Y-86329638D01*
X133865367Y-86329962D01*
X133977088Y-86283800D01*
X139903200Y-86283800D01*
X139903200Y-99644382D01*
X124703086Y-99666205D01*
X128937736Y-94132400D01*
X133611611Y-94132400D01*
X133722001Y-94178238D01*
X134093967Y-94178562D01*
X134437743Y-94036517D01*
X134700992Y-93773727D01*
X134843638Y-93430199D01*
X134843962Y-93058233D01*
X134701917Y-92714457D01*
X134439127Y-92451208D01*
X134095599Y-92308562D01*
X133723633Y-92308238D01*
X133611912Y-92354400D01*
X128498600Y-92354400D01*
X128440509Y-92365955D01*
X128381400Y-92362159D01*
X128271879Y-92399497D01*
X128158394Y-92422071D01*
X128109146Y-92454977D01*
X128053085Y-92474090D01*
X127966192Y-92550497D01*
X127869982Y-92614782D01*
X127837075Y-92664031D01*
X127792596Y-92703142D01*
X122461767Y-99669423D01*
X104775000Y-99694817D01*
X104775000Y-95266000D01*
X112741560Y-95266000D01*
X112741560Y-97266000D01*
X112785838Y-97501317D01*
X112924910Y-97717441D01*
X113137110Y-97862431D01*
X113389000Y-97913440D01*
X116989000Y-97913440D01*
X117224317Y-97869162D01*
X117440441Y-97730090D01*
X117585431Y-97517890D01*
X117636440Y-97266000D01*
X117636440Y-95266000D01*
X117592162Y-95030683D01*
X117453090Y-94814559D01*
X117240890Y-94669569D01*
X116989000Y-94618560D01*
X113389000Y-94618560D01*
X113153683Y-94662838D01*
X112937559Y-94801910D01*
X112792569Y-95014110D01*
X112741560Y-95266000D01*
X104775000Y-95266000D01*
X104775000Y-93980000D01*
X107627411Y-93980000D01*
X107737801Y-94025838D01*
X108109767Y-94026162D01*
X108405611Y-93903922D01*
X108410273Y-93908592D01*
X108753801Y-94051238D01*
X109125767Y-94051562D01*
X109469543Y-93909517D01*
X109732792Y-93646727D01*
X109875438Y-93303199D01*
X109875762Y-92931233D01*
X109813150Y-92779700D01*
X109761929Y-92522194D01*
X109569218Y-92233782D01*
X106101436Y-88766000D01*
X112706296Y-88766000D01*
X112830753Y-89391687D01*
X113185176Y-89922120D01*
X113715609Y-90276543D01*
X114341296Y-90401000D01*
X116036704Y-90401000D01*
X116662391Y-90276543D01*
X117192824Y-89922120D01*
X117547247Y-89391687D01*
X117671704Y-88766000D01*
X117547247Y-88140313D01*
X117192824Y-87609880D01*
X116662391Y-87255457D01*
X116036704Y-87131000D01*
X114341296Y-87131000D01*
X113715609Y-87255457D01*
X113185176Y-87609880D01*
X112830753Y-88140313D01*
X112706296Y-88766000D01*
X106101436Y-88766000D01*
X105454418Y-88118982D01*
X105166006Y-87926271D01*
X104825800Y-87858600D01*
X104775000Y-87858600D01*
X104775000Y-74131305D01*
X114534674Y-74131305D01*
X114821043Y-74824372D01*
X115350839Y-75355093D01*
X116043405Y-75642672D01*
X116793305Y-75643326D01*
X117486372Y-75356957D01*
X118017093Y-74827161D01*
X118304672Y-74134595D01*
X118305326Y-73384695D01*
X118018957Y-72691628D01*
X117489161Y-72160907D01*
X116796595Y-71873328D01*
X116046695Y-71872674D01*
X115353628Y-72159043D01*
X114822907Y-72688839D01*
X114535328Y-73381405D01*
X114534674Y-74131305D01*
X104775000Y-74131305D01*
X104775000Y-70358000D01*
X104764994Y-70308590D01*
X104736553Y-70266965D01*
X104694159Y-70239685D01*
X104648000Y-70231000D01*
X100330000Y-70231000D01*
X100280590Y-70241006D01*
X100238965Y-70269447D01*
X100211685Y-70311841D01*
X100203002Y-70357364D01*
X100199769Y-71002533D01*
X99434618Y-70237382D01*
X99244549Y-70110382D01*
X99146206Y-70044671D01*
X98806000Y-69977000D01*
X97198189Y-69977000D01*
X97087799Y-69931162D01*
X96715833Y-69930838D01*
X96372057Y-70072883D01*
X96108808Y-70335673D01*
X95966162Y-70679201D01*
X95965838Y-71051167D01*
X96107883Y-71394943D01*
X96370673Y-71658192D01*
X96714201Y-71800838D01*
X97086167Y-71801162D01*
X97197888Y-71755000D01*
X98437764Y-71755000D01*
X99447382Y-72764618D01*
X99735794Y-72957329D01*
X100076000Y-73025000D01*
X100189635Y-73025000D01*
X100115308Y-87858600D01*
X87723989Y-87858600D01*
X87613599Y-87812762D01*
X87241633Y-87812438D01*
X86897857Y-87954483D01*
X86634608Y-88217273D01*
X86491962Y-88560801D01*
X86491638Y-88932767D01*
X86633683Y-89276543D01*
X86896473Y-89539792D01*
X87240001Y-89682438D01*
X87611967Y-89682762D01*
X87723688Y-89636600D01*
X100106399Y-89636600D01*
X100093544Y-92202000D01*
X86487000Y-92202000D01*
X86146794Y-92269671D01*
X85858382Y-92462382D01*
X84385182Y-93935582D01*
X84192471Y-94223994D01*
X84124800Y-94564200D01*
X84124800Y-95364364D01*
X83858164Y-95631000D01*
X83609189Y-95631000D01*
X83498799Y-95585162D01*
X83126833Y-95584838D01*
X82783057Y-95726883D01*
X82519808Y-95989673D01*
X82377162Y-96333201D01*
X82376838Y-96705167D01*
X82518883Y-97048943D01*
X82781673Y-97312192D01*
X83125201Y-97454838D01*
X83497167Y-97455162D01*
X83608888Y-97409000D01*
X84226400Y-97409000D01*
X84566606Y-97341329D01*
X84855018Y-97148618D01*
X85642418Y-96361218D01*
X85661138Y-96333201D01*
X85835129Y-96072806D01*
X85902800Y-95732600D01*
X85902800Y-94932436D01*
X86855236Y-93980000D01*
X100084635Y-93980000D01*
X100025835Y-105714800D01*
X90627703Y-105714800D01*
X90638244Y-103047800D01*
X92707600Y-103047800D01*
X92707600Y-103847800D01*
X92880658Y-104463820D01*
X93276283Y-104966722D01*
X93834245Y-105279944D01*
X93962166Y-105310924D01*
X94215600Y-105191577D01*
X94215600Y-103047800D01*
X94469600Y-103047800D01*
X94469600Y-105191577D01*
X94723034Y-105310924D01*
X94850955Y-105279944D01*
X95408917Y-104966722D01*
X95804542Y-104463820D01*
X95977600Y-103847800D01*
X95977600Y-103047800D01*
X94469600Y-103047800D01*
X94215600Y-103047800D01*
X92707600Y-103047800D01*
X90638244Y-103047800D01*
X90642410Y-101993800D01*
X92707600Y-101993800D01*
X92707600Y-102793800D01*
X94215600Y-102793800D01*
X94215600Y-100650023D01*
X94469600Y-100650023D01*
X94469600Y-102793800D01*
X95977600Y-102793800D01*
X95977600Y-101993800D01*
X95804542Y-101377780D01*
X95408917Y-100874878D01*
X94850955Y-100561656D01*
X94723034Y-100530676D01*
X94469600Y-100650023D01*
X94215600Y-100650023D01*
X93962166Y-100530676D01*
X93834245Y-100561656D01*
X93276283Y-100874878D01*
X92880658Y-101377780D01*
X92707600Y-101993800D01*
X90642410Y-101993800D01*
X90652599Y-99416102D01*
X90642789Y-99366653D01*
X90614513Y-99324916D01*
X90572226Y-99297469D01*
X90525600Y-99288600D01*
X81153000Y-99288600D01*
X81153000Y-97833189D01*
X81198838Y-97722799D01*
X81199162Y-97350833D01*
X81057117Y-97007057D01*
X80794327Y-96743808D01*
X80450799Y-96601162D01*
X80078833Y-96600838D01*
X79735057Y-96742883D01*
X79471808Y-97005673D01*
X79329162Y-97349201D01*
X79328838Y-97721167D01*
X79375000Y-97832888D01*
X79375000Y-99288600D01*
X77191528Y-99288600D01*
X77338854Y-79037691D01*
X85655000Y-79037691D01*
X85655000Y-80378250D01*
X85773162Y-80496412D01*
X85748872Y-80576930D01*
X85774239Y-80830511D01*
X85655000Y-80949750D01*
X85655000Y-82290309D01*
X85751673Y-82523698D01*
X85930301Y-82702327D01*
X86163690Y-82799000D01*
X87504250Y-82799000D01*
X87628822Y-82674428D01*
X87672257Y-82670083D01*
X87796782Y-82618502D01*
X87937791Y-82661041D01*
X88075750Y-82799000D01*
X89416310Y-82799000D01*
X89649699Y-82702327D01*
X89828327Y-82523698D01*
X89925000Y-82290309D01*
X89925000Y-80949750D01*
X89806838Y-80831588D01*
X89831128Y-80751070D01*
X89805761Y-80497489D01*
X89925000Y-80378250D01*
X89925000Y-79037691D01*
X89828327Y-78804302D01*
X89649699Y-78625673D01*
X89416310Y-78529000D01*
X88075750Y-78529000D01*
X87951178Y-78653572D01*
X87907743Y-78657917D01*
X87783218Y-78709498D01*
X87642209Y-78666959D01*
X87504250Y-78529000D01*
X86163690Y-78529000D01*
X85930301Y-78625673D01*
X85751673Y-78804302D01*
X85655000Y-79037691D01*
X77338854Y-79037691D01*
X77393797Y-71485603D01*
X77384151Y-71436121D01*
X77356013Y-71394291D01*
X77313819Y-71366703D01*
X77266822Y-71357679D01*
X25298422Y-71348600D01*
X25284870Y-71349323D01*
X24580418Y-71424800D01*
X14988126Y-71424800D01*
X15071833Y-66384740D01*
X16408964Y-66384740D01*
X16433244Y-66490086D01*
X16724788Y-67015606D01*
X17195248Y-67389554D01*
X17773000Y-67555000D01*
X18673000Y-67555000D01*
X18673000Y-66147000D01*
X18927000Y-66147000D01*
X18927000Y-67555000D01*
X19827000Y-67555000D01*
X20404752Y-67389554D01*
X20875212Y-67015606D01*
X21166756Y-66490086D01*
X21191036Y-66384740D01*
X21070378Y-66147000D01*
X18927000Y-66147000D01*
X18673000Y-66147000D01*
X16529622Y-66147000D01*
X16408964Y-66384740D01*
X15071833Y-66384740D01*
X15083948Y-65655260D01*
X16408964Y-65655260D01*
X16529622Y-65893000D01*
X18673000Y-65893000D01*
X18673000Y-64485000D01*
X18927000Y-64485000D01*
X18927000Y-65893000D01*
X21070378Y-65893000D01*
X21191036Y-65655260D01*
X21166756Y-65549914D01*
X20875212Y-65024394D01*
X20404752Y-64650446D01*
X19827000Y-64485000D01*
X18927000Y-64485000D01*
X18673000Y-64485000D01*
X17773000Y-64485000D01*
X17195248Y-64650446D01*
X16724788Y-65024394D01*
X16433244Y-65549914D01*
X16408964Y-65655260D01*
X15083948Y-65655260D01*
X15156203Y-61304740D01*
X16408964Y-61304740D01*
X16433244Y-61410086D01*
X16724788Y-61935606D01*
X17195248Y-62309554D01*
X17773000Y-62475000D01*
X18673000Y-62475000D01*
X18673000Y-61067000D01*
X18927000Y-61067000D01*
X18927000Y-62475000D01*
X19827000Y-62475000D01*
X20404752Y-62309554D01*
X20875212Y-61935606D01*
X21166756Y-61410086D01*
X21191036Y-61304740D01*
X21070378Y-61067000D01*
X18927000Y-61067000D01*
X18673000Y-61067000D01*
X16529622Y-61067000D01*
X16408964Y-61304740D01*
X15156203Y-61304740D01*
X15168318Y-60575260D01*
X16408964Y-60575260D01*
X16529622Y-60813000D01*
X18673000Y-60813000D01*
X18673000Y-59405000D01*
X18927000Y-59405000D01*
X18927000Y-60813000D01*
X21070378Y-60813000D01*
X21101183Y-60752302D01*
X45580856Y-60752302D01*
X45608638Y-61307368D01*
X45767603Y-61691143D01*
X46009787Y-61760608D01*
X46810395Y-60960000D01*
X47169605Y-60960000D01*
X47970213Y-61760608D01*
X48212397Y-61691143D01*
X48399144Y-61167698D01*
X48371362Y-60612632D01*
X48212397Y-60228857D01*
X47970213Y-60159392D01*
X47169605Y-60960000D01*
X46810395Y-60960000D01*
X46009787Y-60159392D01*
X45767603Y-60228857D01*
X45580856Y-60752302D01*
X21101183Y-60752302D01*
X21191036Y-60575260D01*
X21166756Y-60469914D01*
X20875212Y-59944394D01*
X20404752Y-59570446D01*
X19827000Y-59405000D01*
X18927000Y-59405000D01*
X18673000Y-59405000D01*
X17773000Y-59405000D01*
X17195248Y-59570446D01*
X16724788Y-59944394D01*
X16433244Y-60469914D01*
X16408964Y-60575260D01*
X15168318Y-60575260D01*
X15331002Y-50780000D01*
X16317296Y-50780000D01*
X16434141Y-51367419D01*
X16766887Y-51865409D01*
X17264877Y-52198155D01*
X17852296Y-52315000D01*
X19747704Y-52315000D01*
X20335123Y-52198155D01*
X20833113Y-51865409D01*
X20938361Y-51707894D01*
X24690948Y-51752437D01*
X24696229Y-51751452D01*
X24701500Y-51752500D01*
X44323000Y-51752500D01*
X44333557Y-51750400D01*
X44344161Y-51752248D01*
X45928984Y-51714514D01*
X46197630Y-51983629D01*
X46405512Y-52069949D01*
X46199697Y-52154990D01*
X45903170Y-52451000D01*
X28168600Y-52451000D01*
X27828394Y-52518671D01*
X27618313Y-52659043D01*
X27539982Y-52711382D01*
X25280364Y-54971000D01*
X20964349Y-54971000D01*
X20833113Y-54774591D01*
X20335123Y-54441845D01*
X19747704Y-54325000D01*
X17852296Y-54325000D01*
X17264877Y-54441845D01*
X16766887Y-54774591D01*
X16434141Y-55272581D01*
X16317296Y-55860000D01*
X16434141Y-56447419D01*
X16766887Y-56945409D01*
X17264877Y-57278155D01*
X17852296Y-57395000D01*
X19747704Y-57395000D01*
X20335123Y-57278155D01*
X20833113Y-56945409D01*
X20964349Y-56749000D01*
X25648600Y-56749000D01*
X25988806Y-56681329D01*
X26277218Y-56488618D01*
X28536836Y-54229000D01*
X45903515Y-54229000D01*
X46197630Y-54523629D01*
X46405512Y-54609949D01*
X46199697Y-54694990D01*
X45806371Y-55087630D01*
X45593243Y-55600900D01*
X45592758Y-56156661D01*
X45804990Y-56670303D01*
X46197630Y-57063629D01*
X46405512Y-57149949D01*
X46199697Y-57234990D01*
X45806371Y-57627630D01*
X45593243Y-58140900D01*
X45592758Y-58696661D01*
X45804990Y-59210303D01*
X46197630Y-59603629D01*
X46389727Y-59683395D01*
X46258857Y-59737603D01*
X46189392Y-59979787D01*
X46990000Y-60780395D01*
X47790608Y-59979787D01*
X47721143Y-59737603D01*
X47580682Y-59687491D01*
X47780303Y-59605010D01*
X48173629Y-59212370D01*
X48386757Y-58699100D01*
X48387242Y-58143339D01*
X48175010Y-57629697D01*
X47782370Y-57236371D01*
X47574488Y-57150051D01*
X47780303Y-57065010D01*
X48173629Y-56672370D01*
X48386757Y-56159100D01*
X48387242Y-55603339D01*
X48175010Y-55089697D01*
X47782370Y-54696371D01*
X47574488Y-54610051D01*
X47780303Y-54525010D01*
X48173629Y-54132370D01*
X48386757Y-53619100D01*
X48387242Y-53063339D01*
X48175010Y-52549697D01*
X47782370Y-52156371D01*
X47574488Y-52070051D01*
X47780303Y-51985010D01*
X48173629Y-51592370D01*
X48386757Y-51079100D01*
X48387242Y-50523339D01*
X48175010Y-50009697D01*
X47782370Y-49616371D01*
X47574488Y-49530051D01*
X47780303Y-49445010D01*
X48073194Y-49152630D01*
X48463200Y-49542636D01*
X48463200Y-62725364D01*
X48263852Y-62924712D01*
X48175010Y-62709697D01*
X47782370Y-62316371D01*
X47590273Y-62236605D01*
X47721143Y-62182397D01*
X47790608Y-61940213D01*
X46990000Y-61139605D01*
X46189392Y-61940213D01*
X46258857Y-62182397D01*
X46399318Y-62232509D01*
X46199697Y-62314990D01*
X45806371Y-62707630D01*
X45593243Y-63220900D01*
X45592758Y-63776661D01*
X45804990Y-64290303D01*
X46197630Y-64683629D01*
X46222125Y-64693800D01*
X41046400Y-64693800D01*
X40706194Y-64761471D01*
X40502999Y-64897242D01*
X40417782Y-64954182D01*
X39147782Y-66224182D01*
X38955071Y-66512594D01*
X38887400Y-66852800D01*
X38887400Y-67995800D01*
X38955071Y-68336006D01*
X39147782Y-68624418D01*
X39963780Y-69440416D01*
X40252192Y-69633127D01*
X40592398Y-69700798D01*
X62582402Y-69700798D01*
X62922608Y-69633127D01*
X63211020Y-69440416D01*
X65398618Y-67252818D01*
X65591329Y-66964406D01*
X65659000Y-66624200D01*
X65659000Y-43249191D01*
X87176500Y-43249191D01*
X87176500Y-44589750D01*
X87294662Y-44707912D01*
X87270372Y-44788430D01*
X87295739Y-45042011D01*
X87176500Y-45161250D01*
X87176500Y-46501809D01*
X87273173Y-46735198D01*
X87451801Y-46913827D01*
X87685190Y-47010500D01*
X89025750Y-47010500D01*
X89150322Y-46885928D01*
X89193757Y-46881583D01*
X89318282Y-46830002D01*
X89459291Y-46872541D01*
X89597250Y-47010500D01*
X90937810Y-47010500D01*
X91171199Y-46913827D01*
X91349827Y-46735198D01*
X91446500Y-46501809D01*
X91446500Y-45161250D01*
X91328338Y-45043088D01*
X91352628Y-44962570D01*
X91327261Y-44708989D01*
X91446500Y-44589750D01*
X91446500Y-43249191D01*
X91349827Y-43015802D01*
X91171199Y-42837173D01*
X90937810Y-42740500D01*
X89597250Y-42740500D01*
X89472678Y-42865072D01*
X89429243Y-42869417D01*
X89304718Y-42920998D01*
X89163709Y-42878459D01*
X89025750Y-42740500D01*
X87685190Y-42740500D01*
X87451801Y-42837173D01*
X87273173Y-43015802D01*
X87176500Y-43249191D01*
X65659000Y-43249191D01*
X65659000Y-39382636D01*
X66001274Y-39040362D01*
X66111743Y-38994717D01*
X66374992Y-38731927D01*
X66517638Y-38388399D01*
X66517962Y-38016433D01*
X66375917Y-37672657D01*
X66244580Y-37541090D01*
X66501992Y-37284127D01*
X66644638Y-36940599D01*
X66644962Y-36568633D01*
X66544800Y-36326222D01*
X66544800Y-33959800D01*
X66481239Y-33640259D01*
X66300234Y-33369366D01*
X63626812Y-30695944D01*
X63627242Y-30203339D01*
X63415010Y-29689697D01*
X63022370Y-29296371D01*
X62814488Y-29210051D01*
X63020303Y-29125010D01*
X63413629Y-28732370D01*
X63626757Y-28219100D01*
X63627242Y-27663339D01*
X63415010Y-27149697D01*
X63022370Y-26756371D01*
X62875535Y-26695400D01*
X64472811Y-26695400D01*
X64583201Y-26741238D01*
X64955167Y-26741562D01*
X65298943Y-26599517D01*
X65562192Y-26336727D01*
X65704838Y-25993199D01*
X65705162Y-25621233D01*
X65563117Y-25277457D01*
X65300327Y-25014208D01*
X64956799Y-24871562D01*
X64584833Y-24871238D01*
X64473112Y-24917400D01*
X63266667Y-24917400D01*
X63266762Y-24808433D01*
X63213892Y-24680478D01*
X63189834Y-24559531D01*
X63164666Y-24403842D01*
X63156108Y-24389976D01*
X63152929Y-24373994D01*
X63065312Y-24242866D01*
X62982484Y-24108666D01*
X62969271Y-24099130D01*
X62960218Y-24085582D01*
X62829088Y-23997964D01*
X62701210Y-23905677D01*
X60923210Y-23092877D01*
X60903309Y-23088166D01*
X60886197Y-23076960D01*
X60735206Y-23048375D01*
X60585667Y-23012978D01*
X60565475Y-23016242D01*
X60545380Y-23012438D01*
X41317580Y-23190238D01*
X41151742Y-23224822D01*
X40985595Y-23257871D01*
X40982114Y-23260197D01*
X40978014Y-23261052D01*
X40837992Y-23356496D01*
X40697182Y-23450582D01*
X32829564Y-31318200D01*
X30497789Y-31318200D01*
X30387399Y-31272362D01*
X30015433Y-31272038D01*
X29671657Y-31414083D01*
X29408408Y-31676873D01*
X29265762Y-32020401D01*
X29265438Y-32392367D01*
X29407483Y-32736143D01*
X29670273Y-32999392D01*
X30013801Y-33142038D01*
X30385767Y-33142362D01*
X30497488Y-33096200D01*
X33197800Y-33096200D01*
X33538006Y-33028529D01*
X33826418Y-32835818D01*
X41697435Y-24964801D01*
X60363953Y-24792192D01*
X60637846Y-24917400D01*
X60147200Y-24917400D01*
X59806994Y-24985071D01*
X59659221Y-25083810D01*
X59518582Y-25177782D01*
X57207182Y-27489182D01*
X57014471Y-27777594D01*
X56946800Y-28117800D01*
X56946800Y-35344164D01*
X47762743Y-44528221D01*
X47574488Y-44450051D01*
X47780303Y-44365010D01*
X48173629Y-43972370D01*
X48386757Y-43459100D01*
X48387242Y-42903339D01*
X48175010Y-42389697D01*
X47782370Y-41996371D01*
X47574488Y-41910051D01*
X47780303Y-41825010D01*
X48173629Y-41432370D01*
X48386757Y-40919100D01*
X48387242Y-40363339D01*
X48175010Y-39849697D01*
X47782370Y-39456371D01*
X47574488Y-39370051D01*
X47780303Y-39285010D01*
X48173629Y-38892370D01*
X48386757Y-38379100D01*
X48387242Y-37823339D01*
X48175010Y-37309697D01*
X47782370Y-36916371D01*
X47574488Y-36830051D01*
X47780303Y-36745010D01*
X48173629Y-36352370D01*
X48386757Y-35839100D01*
X48387242Y-35283339D01*
X48175010Y-34769697D01*
X47782370Y-34376371D01*
X47574488Y-34290051D01*
X47780303Y-34205010D01*
X48173629Y-33812370D01*
X48386757Y-33299100D01*
X48387242Y-32743339D01*
X48175010Y-32229697D01*
X47782370Y-31836371D01*
X47574488Y-31750051D01*
X47780303Y-31665010D01*
X48173629Y-31272370D01*
X48386757Y-30759100D01*
X48387242Y-30203339D01*
X48175010Y-29689697D01*
X47782370Y-29296371D01*
X47574488Y-29210051D01*
X47780303Y-29125010D01*
X48173629Y-28732370D01*
X48386757Y-28219100D01*
X48387242Y-27663339D01*
X48175010Y-27149697D01*
X47782370Y-26756371D01*
X47269100Y-26543243D01*
X46713339Y-26542758D01*
X46199697Y-26754990D01*
X45806371Y-27147630D01*
X45593243Y-27660900D01*
X45592758Y-28216661D01*
X45804990Y-28730303D01*
X46197630Y-29123629D01*
X46405512Y-29209949D01*
X46199697Y-29294990D01*
X45806371Y-29687630D01*
X45593243Y-30200900D01*
X45592758Y-30756661D01*
X45804990Y-31270303D01*
X46197630Y-31663629D01*
X46405512Y-31749949D01*
X46199697Y-31834990D01*
X45806371Y-32227630D01*
X45593243Y-32740900D01*
X45592758Y-33296661D01*
X45804990Y-33810303D01*
X46197630Y-34203629D01*
X46405512Y-34289949D01*
X46199697Y-34374990D01*
X45806371Y-34767630D01*
X45593243Y-35280900D01*
X45592758Y-35836661D01*
X45804990Y-36350303D01*
X46197630Y-36743629D01*
X46405512Y-36829949D01*
X46199697Y-36914990D01*
X45806371Y-37307630D01*
X45593243Y-37820900D01*
X45592758Y-38376661D01*
X45804990Y-38890303D01*
X46197630Y-39283629D01*
X46405512Y-39369949D01*
X46199697Y-39454990D01*
X45806371Y-39847630D01*
X45593243Y-40360900D01*
X45592758Y-40916661D01*
X45804990Y-41430303D01*
X46197630Y-41823629D01*
X46405512Y-41909949D01*
X46199697Y-41994990D01*
X45806371Y-42387630D01*
X45593243Y-42900900D01*
X45592758Y-43456661D01*
X45804990Y-43970303D01*
X46197630Y-44363629D01*
X46405512Y-44449949D01*
X46199697Y-44534990D01*
X45806371Y-44927630D01*
X45593243Y-45440900D01*
X45592758Y-45996661D01*
X45804990Y-46510303D01*
X46197630Y-46903629D01*
X46405512Y-46989949D01*
X46199697Y-47074990D01*
X45806371Y-47467630D01*
X45593243Y-47980900D01*
X45592758Y-48536661D01*
X45804990Y-49050303D01*
X46197630Y-49443629D01*
X46405512Y-49529949D01*
X46199697Y-49614990D01*
X45876873Y-49937251D01*
X44312423Y-49974500D01*
X24706743Y-49974500D01*
X20990669Y-49930390D01*
X20833113Y-49694591D01*
X20335123Y-49361845D01*
X19747704Y-49245000D01*
X17852296Y-49245000D01*
X17264877Y-49361845D01*
X16766887Y-49694591D01*
X16434141Y-50192581D01*
X16317296Y-50780000D01*
X15331002Y-50780000D01*
X15430320Y-44800000D01*
X16352560Y-44800000D01*
X16352560Y-46600000D01*
X16396838Y-46835317D01*
X16535910Y-47051441D01*
X16748110Y-47196431D01*
X17000000Y-47247440D01*
X20600000Y-47247440D01*
X20835317Y-47203162D01*
X21051441Y-47064090D01*
X21196431Y-46851890D01*
X21247440Y-46600000D01*
X21247440Y-44800000D01*
X21203162Y-44564683D01*
X21064090Y-44348559D01*
X20851890Y-44203569D01*
X20600000Y-44152560D01*
X17000000Y-44152560D01*
X16764683Y-44196838D01*
X16548559Y-44335910D01*
X16403569Y-44548110D01*
X16352560Y-44800000D01*
X15430320Y-44800000D01*
X15591422Y-35100000D01*
X16317296Y-35100000D01*
X16441753Y-35725687D01*
X16796176Y-36256120D01*
X17326609Y-36610543D01*
X17952296Y-36735000D01*
X19647704Y-36735000D01*
X20273391Y-36610543D01*
X20803824Y-36256120D01*
X21158247Y-35725687D01*
X21282704Y-35100000D01*
X21158247Y-34474313D01*
X20803824Y-33943880D01*
X20273391Y-33589457D01*
X19647704Y-33465000D01*
X17952296Y-33465000D01*
X17326609Y-33589457D01*
X16796176Y-33943880D01*
X16441753Y-34474313D01*
X16317296Y-35100000D01*
X15591422Y-35100000D01*
X15652740Y-31408000D01*
X26188560Y-31408000D01*
X26188560Y-33108000D01*
X26232838Y-33343317D01*
X26371910Y-33559441D01*
X26584110Y-33704431D01*
X26836000Y-33755440D01*
X28536000Y-33755440D01*
X28771317Y-33711162D01*
X28987441Y-33572090D01*
X29132431Y-33359890D01*
X29183440Y-33108000D01*
X29183440Y-31408000D01*
X29139162Y-31172683D01*
X29000090Y-30956559D01*
X28787890Y-30811569D01*
X28679893Y-30789699D01*
X28957645Y-30484924D01*
X29127476Y-30074890D01*
X29006155Y-29845000D01*
X27813000Y-29845000D01*
X27813000Y-29865000D01*
X27559000Y-29865000D01*
X27559000Y-29845000D01*
X26365845Y-29845000D01*
X26244524Y-30074890D01*
X26414355Y-30484924D01*
X26690501Y-30787937D01*
X26600683Y-30804838D01*
X26384559Y-30943910D01*
X26239569Y-31156110D01*
X26188560Y-31408000D01*
X15652740Y-31408000D01*
X15686735Y-29361110D01*
X26244524Y-29361110D01*
X26365845Y-29591000D01*
X27559000Y-29591000D01*
X27559000Y-28397181D01*
X27813000Y-28397181D01*
X27813000Y-29591000D01*
X29006155Y-29591000D01*
X29127476Y-29361110D01*
X28957645Y-28951076D01*
X28567358Y-28522817D01*
X28042892Y-28276514D01*
X27813000Y-28397181D01*
X27559000Y-28397181D01*
X27329108Y-28276514D01*
X26804642Y-28522817D01*
X26414355Y-28951076D01*
X26244524Y-29361110D01*
X15686735Y-29361110D01*
X15732593Y-26600000D01*
X16352560Y-26600000D01*
X16352560Y-28600000D01*
X16396838Y-28835317D01*
X16535910Y-29051441D01*
X16748110Y-29196431D01*
X17000000Y-29247440D01*
X20600000Y-29247440D01*
X20835317Y-29203162D01*
X21051441Y-29064090D01*
X21196431Y-28851890D01*
X21247440Y-28600000D01*
X21247440Y-26600000D01*
X21203162Y-26364683D01*
X21064090Y-26148559D01*
X20851890Y-26003569D01*
X20600000Y-25952560D01*
X17000000Y-25952560D01*
X16764683Y-25996838D01*
X16548559Y-26135910D01*
X16403569Y-26348110D01*
X16352560Y-26600000D01*
X15732593Y-26600000D01*
X15745547Y-25820000D01*
X31014560Y-25820000D01*
X31014560Y-27520000D01*
X31058838Y-27755317D01*
X31197910Y-27971441D01*
X31410110Y-28116431D01*
X31662000Y-28167440D01*
X33362000Y-28167440D01*
X33597317Y-28123162D01*
X33813441Y-27984090D01*
X33958431Y-27771890D01*
X33980301Y-27663893D01*
X34285076Y-27941645D01*
X34695110Y-28111476D01*
X34925000Y-27990155D01*
X34925000Y-26797000D01*
X35179000Y-26797000D01*
X35179000Y-27990155D01*
X35408890Y-28111476D01*
X35818924Y-27941645D01*
X36247183Y-27551358D01*
X36493486Y-27026892D01*
X36372819Y-26797000D01*
X35179000Y-26797000D01*
X34925000Y-26797000D01*
X34905000Y-26797000D01*
X34905000Y-26543000D01*
X34925000Y-26543000D01*
X34925000Y-25349845D01*
X35179000Y-25349845D01*
X35179000Y-26543000D01*
X36372819Y-26543000D01*
X36493486Y-26313108D01*
X36247183Y-25788642D01*
X35818924Y-25398355D01*
X35408890Y-25228524D01*
X35179000Y-25349845D01*
X34925000Y-25349845D01*
X34695110Y-25228524D01*
X34285076Y-25398355D01*
X33982063Y-25674501D01*
X33965162Y-25584683D01*
X33826090Y-25368559D01*
X33613890Y-25223569D01*
X33362000Y-25172560D01*
X31662000Y-25172560D01*
X31426683Y-25216838D01*
X31210559Y-25355910D01*
X31065569Y-25568110D01*
X31014560Y-25820000D01*
X15745547Y-25820000D01*
X15805410Y-22215709D01*
X17054018Y-22734176D01*
X18937718Y-22735820D01*
X20678658Y-22016478D01*
X22011797Y-20685664D01*
X22734176Y-18945982D01*
X22735130Y-17852296D01*
X39065000Y-17852296D01*
X39065000Y-19547704D01*
X39189457Y-20173391D01*
X39543880Y-20703824D01*
X40074313Y-21058247D01*
X40700000Y-21182704D01*
X41325687Y-21058247D01*
X41856120Y-20703824D01*
X42210543Y-20173391D01*
X42335000Y-19547704D01*
X42335000Y-17852296D01*
X42210543Y-17226609D01*
X41992311Y-16900000D01*
X46552560Y-16900000D01*
X46552560Y-20500000D01*
X46596838Y-20735317D01*
X46735910Y-20951441D01*
X46948110Y-21096431D01*
X47200000Y-21147440D01*
X49200000Y-21147440D01*
X49435317Y-21103162D01*
X49651441Y-20964090D01*
X49796431Y-20751890D01*
X49847440Y-20500000D01*
X49847440Y-19580661D01*
X67436758Y-19580661D01*
X67648990Y-20094303D01*
X68041630Y-20487629D01*
X68554900Y-20700757D01*
X69110661Y-20701242D01*
X69624303Y-20489010D01*
X69829457Y-20284213D01*
X73113392Y-20284213D01*
X73182857Y-20526397D01*
X73706302Y-20713144D01*
X74261368Y-20685362D01*
X74645143Y-20526397D01*
X74714608Y-20284213D01*
X77939392Y-20284213D01*
X78008857Y-20526397D01*
X78532302Y-20713144D01*
X79087368Y-20685362D01*
X79471143Y-20526397D01*
X79540608Y-20284213D01*
X78740000Y-19483605D01*
X77939392Y-20284213D01*
X74714608Y-20284213D01*
X73914000Y-19483605D01*
X73113392Y-20284213D01*
X69829457Y-20284213D01*
X70017629Y-20096370D01*
X70230757Y-19583100D01*
X70231181Y-19096302D01*
X72504856Y-19096302D01*
X72532638Y-19651368D01*
X72691603Y-20035143D01*
X72933787Y-20104608D01*
X73734395Y-19304000D01*
X74093605Y-19304000D01*
X74894213Y-20104608D01*
X75136397Y-20035143D01*
X75323144Y-19511698D01*
X75302353Y-19096302D01*
X77330856Y-19096302D01*
X77358638Y-19651368D01*
X77517603Y-20035143D01*
X77759787Y-20104608D01*
X78560395Y-19304000D01*
X77759787Y-18503392D01*
X77517603Y-18572857D01*
X77330856Y-19096302D01*
X75302353Y-19096302D01*
X75295362Y-18956632D01*
X75136397Y-18572857D01*
X74894213Y-18503392D01*
X74093605Y-19304000D01*
X73734395Y-19304000D01*
X72933787Y-18503392D01*
X72691603Y-18572857D01*
X72504856Y-19096302D01*
X70231181Y-19096302D01*
X70231242Y-19027339D01*
X70019010Y-18513697D01*
X69829432Y-18323787D01*
X73113392Y-18323787D01*
X73914000Y-19124395D01*
X74714608Y-18323787D01*
X77939392Y-18323787D01*
X78740000Y-19124395D01*
X79540608Y-18323787D01*
X79471143Y-18081603D01*
X78947698Y-17894856D01*
X78392632Y-17922638D01*
X78008857Y-18081603D01*
X77939392Y-18323787D01*
X74714608Y-18323787D01*
X74645143Y-18081603D01*
X74121698Y-17894856D01*
X73566632Y-17922638D01*
X73182857Y-18081603D01*
X73113392Y-18323787D01*
X69829432Y-18323787D01*
X69626370Y-18120371D01*
X69113100Y-17907243D01*
X68557339Y-17906758D01*
X68043697Y-18118990D01*
X67650371Y-18511630D01*
X67437243Y-19024900D01*
X67436758Y-19580661D01*
X49847440Y-19580661D01*
X49847440Y-16900000D01*
X49803162Y-16664683D01*
X49664090Y-16448559D01*
X49451890Y-16303569D01*
X49200000Y-16252560D01*
X47200000Y-16252560D01*
X46964683Y-16296838D01*
X46748559Y-16435910D01*
X46603569Y-16648110D01*
X46552560Y-16900000D01*
X41992311Y-16900000D01*
X41856120Y-16696176D01*
X41325687Y-16341753D01*
X40700000Y-16217296D01*
X40074313Y-16341753D01*
X39543880Y-16696176D01*
X39189457Y-17226609D01*
X39065000Y-17852296D01*
X22735130Y-17852296D01*
X22735820Y-17062282D01*
X22016478Y-15321342D01*
X20685664Y-13988203D01*
X19665355Y-13564534D01*
X120172278Y-13588970D01*
G36*
X61439697Y-26754990D02*
X61046371Y-27147630D01*
X60833243Y-27660900D01*
X60832758Y-28216661D01*
X61044990Y-28730303D01*
X61437630Y-29123629D01*
X61645512Y-29209949D01*
X61439697Y-29294990D01*
X61046371Y-29687630D01*
X60833243Y-30200900D01*
X60832758Y-30756661D01*
X61044990Y-31270303D01*
X61437630Y-31663629D01*
X61645512Y-31749949D01*
X61439697Y-31834990D01*
X61046371Y-32227630D01*
X60833243Y-32740900D01*
X60832758Y-33296661D01*
X61044990Y-33810303D01*
X61437630Y-34203629D01*
X61645512Y-34289949D01*
X61439697Y-34374990D01*
X61046371Y-34767630D01*
X60833243Y-35280900D01*
X60832758Y-35836661D01*
X61044990Y-36350303D01*
X61437630Y-36743629D01*
X61645512Y-36829949D01*
X61439697Y-36914990D01*
X61046371Y-37307630D01*
X60833243Y-37820900D01*
X60832758Y-38376661D01*
X61044990Y-38890303D01*
X61437630Y-39283629D01*
X61645512Y-39369949D01*
X61439697Y-39454990D01*
X61046371Y-39847630D01*
X60833243Y-40360900D01*
X60832758Y-40916661D01*
X61044990Y-41430303D01*
X61437630Y-41823629D01*
X61645512Y-41909949D01*
X61439697Y-41994990D01*
X61046371Y-42387630D01*
X60833243Y-42900900D01*
X60832758Y-43456661D01*
X61044990Y-43970303D01*
X61437630Y-44363629D01*
X61645512Y-44449949D01*
X61439697Y-44534990D01*
X61046371Y-44927630D01*
X60833243Y-45440900D01*
X60832758Y-45996661D01*
X61044990Y-46510303D01*
X61437630Y-46903629D01*
X61645512Y-46989949D01*
X61439697Y-47074990D01*
X61046371Y-47467630D01*
X60833243Y-47980900D01*
X60832758Y-48536661D01*
X61044990Y-49050303D01*
X61437630Y-49443629D01*
X61645512Y-49529949D01*
X61439697Y-49614990D01*
X61046371Y-50007630D01*
X60833243Y-50520900D01*
X60832758Y-51076661D01*
X61044990Y-51590303D01*
X61437630Y-51983629D01*
X61645512Y-52069949D01*
X61439697Y-52154990D01*
X61046371Y-52547630D01*
X60833243Y-53060900D01*
X60832758Y-53616661D01*
X61044990Y-54130303D01*
X61437630Y-54523629D01*
X61629727Y-54603395D01*
X61498857Y-54657603D01*
X61429392Y-54899787D01*
X62230000Y-55700395D01*
X63030608Y-54899787D01*
X62961143Y-54657603D01*
X62820682Y-54607491D01*
X63020303Y-54525010D01*
X63413629Y-54132370D01*
X63626757Y-53619100D01*
X63627242Y-53063339D01*
X63415010Y-52549697D01*
X63022370Y-52156371D01*
X62814488Y-52070051D01*
X63020303Y-51985010D01*
X63413629Y-51592370D01*
X63626757Y-51079100D01*
X63627242Y-50523339D01*
X63415010Y-50009697D01*
X63022370Y-49616371D01*
X62814488Y-49530051D01*
X63020303Y-49445010D01*
X63413629Y-49052370D01*
X63626757Y-48539100D01*
X63627242Y-47983339D01*
X63415010Y-47469697D01*
X63022370Y-47076371D01*
X62814488Y-46990051D01*
X63020303Y-46905010D01*
X63413629Y-46512370D01*
X63626757Y-45999100D01*
X63627242Y-45443339D01*
X63415010Y-44929697D01*
X63022370Y-44536371D01*
X62814488Y-44450051D01*
X63020303Y-44365010D01*
X63413629Y-43972370D01*
X63626757Y-43459100D01*
X63627242Y-42903339D01*
X63415010Y-42389697D01*
X63022370Y-41996371D01*
X62814488Y-41910051D01*
X63020303Y-41825010D01*
X63413629Y-41432370D01*
X63626757Y-40919100D01*
X63627242Y-40363339D01*
X63415010Y-39849697D01*
X63022370Y-39456371D01*
X62814488Y-39370051D01*
X63020303Y-39285010D01*
X63413629Y-38892370D01*
X63626757Y-38379100D01*
X63627242Y-37823339D01*
X63415010Y-37309697D01*
X63022370Y-36916371D01*
X62814488Y-36830051D01*
X63020303Y-36745010D01*
X63413629Y-36352370D01*
X63626757Y-35839100D01*
X63627242Y-35283339D01*
X63415010Y-34769697D01*
X63022370Y-34376371D01*
X62814488Y-34290051D01*
X63020303Y-34205010D01*
X63413629Y-33812370D01*
X63626757Y-33299100D01*
X63626968Y-33057836D01*
X64874800Y-34305668D01*
X64874800Y-36326566D01*
X64774962Y-36567001D01*
X64774638Y-36938967D01*
X64916683Y-37282743D01*
X65048020Y-37414310D01*
X64790608Y-37671273D01*
X64744251Y-37782913D01*
X64141382Y-38385782D01*
X63948671Y-38674194D01*
X63881000Y-39014400D01*
X63881000Y-66255964D01*
X62214166Y-67922798D01*
X53871511Y-67922798D01*
X54106792Y-67687927D01*
X54249438Y-67344399D01*
X54249718Y-67022518D01*
X58534236Y-62738000D01*
X60820560Y-62738000D01*
X60820560Y-64262000D01*
X60864838Y-64497317D01*
X61003910Y-64713441D01*
X61216110Y-64858431D01*
X61468000Y-64909440D01*
X62992000Y-64909440D01*
X63227317Y-64865162D01*
X63443441Y-64726090D01*
X63588431Y-64513890D01*
X63639440Y-64262000D01*
X63639440Y-62738000D01*
X63595162Y-62502683D01*
X63456090Y-62286559D01*
X63243890Y-62141569D01*
X63060876Y-62104508D01*
X63413629Y-61752370D01*
X63626757Y-61239100D01*
X63627242Y-60683339D01*
X63415010Y-60169697D01*
X63022370Y-59776371D01*
X62814488Y-59690051D01*
X63020303Y-59605010D01*
X63413629Y-59212370D01*
X63626757Y-58699100D01*
X63627242Y-58143339D01*
X63415010Y-57629697D01*
X63022370Y-57236371D01*
X62830273Y-57156605D01*
X62961143Y-57102397D01*
X63030608Y-56860213D01*
X62230000Y-56059605D01*
X61429392Y-56860213D01*
X61498857Y-57102397D01*
X61639318Y-57152509D01*
X61439697Y-57234990D01*
X61046371Y-57627630D01*
X60833243Y-58140900D01*
X60832758Y-58696661D01*
X61044990Y-59210303D01*
X61437630Y-59603629D01*
X61645512Y-59689949D01*
X61439697Y-59774990D01*
X61046371Y-60167630D01*
X60833243Y-60680900D01*
X60832758Y-61236661D01*
X61044990Y-61750303D01*
X61397833Y-62103763D01*
X61232683Y-62134838D01*
X61016559Y-62273910D01*
X60871569Y-62486110D01*
X60820560Y-62738000D01*
X58534236Y-62738000D01*
X58845418Y-62426818D01*
X58875447Y-62381877D01*
X59038129Y-62138406D01*
X59105800Y-61798200D01*
X59105800Y-55672302D01*
X60820856Y-55672302D01*
X60848638Y-56227368D01*
X61007603Y-56611143D01*
X61249787Y-56680608D01*
X62050395Y-55880000D01*
X62409605Y-55880000D01*
X63210213Y-56680608D01*
X63452397Y-56611143D01*
X63639144Y-56087698D01*
X63611362Y-55532632D01*
X63452397Y-55148857D01*
X63210213Y-55079392D01*
X62409605Y-55880000D01*
X62050395Y-55880000D01*
X61249787Y-55079392D01*
X61007603Y-55148857D01*
X60820856Y-55672302D01*
X59105800Y-55672302D01*
X59105800Y-38270189D01*
X59151638Y-38159799D01*
X59151962Y-37787833D01*
X59009917Y-37444057D01*
X58747127Y-37180808D01*
X58403599Y-37038162D01*
X58031633Y-37037838D01*
X57687857Y-37179883D01*
X57424608Y-37442673D01*
X57281962Y-37786201D01*
X57281638Y-38158167D01*
X57327800Y-38269888D01*
X57327800Y-61429964D01*
X52685982Y-66071782D01*
X52493271Y-66360194D01*
X52425600Y-66700400D01*
X52425600Y-66860411D01*
X52379762Y-66970801D01*
X52379438Y-67342767D01*
X52521483Y-67686543D01*
X52757326Y-67922798D01*
X47667867Y-67922798D01*
X47720218Y-67887818D01*
X55670418Y-59937618D01*
X55863130Y-59649205D01*
X55930800Y-59309000D01*
X55930800Y-46390384D01*
X55964729Y-46339606D01*
X56032400Y-45999400D01*
X55964729Y-45659194D01*
X55772018Y-45370782D01*
X55662097Y-45297335D01*
X55572127Y-45207208D01*
X55228599Y-45064562D01*
X54856633Y-45064238D01*
X54512857Y-45206283D01*
X54249608Y-45469073D01*
X54106962Y-45812601D01*
X54106638Y-46184567D01*
X54152800Y-46296288D01*
X54152800Y-58940764D01*
X50241200Y-62852364D01*
X50241200Y-49174400D01*
X50173529Y-48834194D01*
X49980818Y-48545782D01*
X49066418Y-47631382D01*
X48880713Y-47507298D01*
X48778006Y-47438671D01*
X48437800Y-47371000D01*
X48076485Y-47371000D01*
X47782370Y-47076371D01*
X47574488Y-46990051D01*
X47780303Y-46905010D01*
X48138700Y-46547238D01*
X48168406Y-46541329D01*
X48456818Y-46348618D01*
X58464418Y-36341018D01*
X58657130Y-36052605D01*
X58724800Y-35712400D01*
X58724800Y-28486036D01*
X60515436Y-26695400D01*
X61583916Y-26695400D01*
X61439697Y-26754990D01*
X61439697Y-26754990D01*
G37*
X61439697Y-26754990D02*
X61046371Y-27147630D01*
X60833243Y-27660900D01*
X60832758Y-28216661D01*
X61044990Y-28730303D01*
X61437630Y-29123629D01*
X61645512Y-29209949D01*
X61439697Y-29294990D01*
X61046371Y-29687630D01*
X60833243Y-30200900D01*
X60832758Y-30756661D01*
X61044990Y-31270303D01*
X61437630Y-31663629D01*
X61645512Y-31749949D01*
X61439697Y-31834990D01*
X61046371Y-32227630D01*
X60833243Y-32740900D01*
X60832758Y-33296661D01*
X61044990Y-33810303D01*
X61437630Y-34203629D01*
X61645512Y-34289949D01*
X61439697Y-34374990D01*
X61046371Y-34767630D01*
X60833243Y-35280900D01*
X60832758Y-35836661D01*
X61044990Y-36350303D01*
X61437630Y-36743629D01*
X61645512Y-36829949D01*
X61439697Y-36914990D01*
X61046371Y-37307630D01*
X60833243Y-37820900D01*
X60832758Y-38376661D01*
X61044990Y-38890303D01*
X61437630Y-39283629D01*
X61645512Y-39369949D01*
X61439697Y-39454990D01*
X61046371Y-39847630D01*
X60833243Y-40360900D01*
X60832758Y-40916661D01*
X61044990Y-41430303D01*
X61437630Y-41823629D01*
X61645512Y-41909949D01*
X61439697Y-41994990D01*
X61046371Y-42387630D01*
X60833243Y-42900900D01*
X60832758Y-43456661D01*
X61044990Y-43970303D01*
X61437630Y-44363629D01*
X61645512Y-44449949D01*
X61439697Y-44534990D01*
X61046371Y-44927630D01*
X60833243Y-45440900D01*
X60832758Y-45996661D01*
X61044990Y-46510303D01*
X61437630Y-46903629D01*
X61645512Y-46989949D01*
X61439697Y-47074990D01*
X61046371Y-47467630D01*
X60833243Y-47980900D01*
X60832758Y-48536661D01*
X61044990Y-49050303D01*
X61437630Y-49443629D01*
X61645512Y-49529949D01*
X61439697Y-49614990D01*
X61046371Y-50007630D01*
X60833243Y-50520900D01*
X60832758Y-51076661D01*
X61044990Y-51590303D01*
X61437630Y-51983629D01*
X61645512Y-52069949D01*
X61439697Y-52154990D01*
X61046371Y-52547630D01*
X60833243Y-53060900D01*
X60832758Y-53616661D01*
X61044990Y-54130303D01*
X61437630Y-54523629D01*
X61629727Y-54603395D01*
X61498857Y-54657603D01*
X61429392Y-54899787D01*
X62230000Y-55700395D01*
X63030608Y-54899787D01*
X62961143Y-54657603D01*
X62820682Y-54607491D01*
X63020303Y-54525010D01*
X63413629Y-54132370D01*
X63626757Y-53619100D01*
X63627242Y-53063339D01*
X63415010Y-52549697D01*
X63022370Y-52156371D01*
X62814488Y-52070051D01*
X63020303Y-51985010D01*
X63413629Y-51592370D01*
X63626757Y-51079100D01*
X63627242Y-50523339D01*
X63415010Y-50009697D01*
X63022370Y-49616371D01*
X62814488Y-49530051D01*
X63020303Y-49445010D01*
X63413629Y-49052370D01*
X63626757Y-48539100D01*
X63627242Y-47983339D01*
X63415010Y-47469697D01*
X63022370Y-47076371D01*
X62814488Y-46990051D01*
X63020303Y-46905010D01*
X63413629Y-46512370D01*
X63626757Y-45999100D01*
X63627242Y-45443339D01*
X63415010Y-44929697D01*
X63022370Y-44536371D01*
X62814488Y-44450051D01*
X63020303Y-44365010D01*
X63413629Y-43972370D01*
X63626757Y-43459100D01*
X63627242Y-42903339D01*
X63415010Y-42389697D01*
X63022370Y-41996371D01*
X62814488Y-41910051D01*
X63020303Y-41825010D01*
X63413629Y-41432370D01*
X63626757Y-40919100D01*
X63627242Y-40363339D01*
X63415010Y-39849697D01*
X63022370Y-39456371D01*
X62814488Y-39370051D01*
X63020303Y-39285010D01*
X63413629Y-38892370D01*
X63626757Y-38379100D01*
X63627242Y-37823339D01*
X63415010Y-37309697D01*
X63022370Y-36916371D01*
X62814488Y-36830051D01*
X63020303Y-36745010D01*
X63413629Y-36352370D01*
X63626757Y-35839100D01*
X63627242Y-35283339D01*
X63415010Y-34769697D01*
X63022370Y-34376371D01*
X62814488Y-34290051D01*
X63020303Y-34205010D01*
X63413629Y-33812370D01*
X63626757Y-33299100D01*
X63626968Y-33057836D01*
X64874800Y-34305668D01*
X64874800Y-36326566D01*
X64774962Y-36567001D01*
X64774638Y-36938967D01*
X64916683Y-37282743D01*
X65048020Y-37414310D01*
X64790608Y-37671273D01*
X64744251Y-37782913D01*
X64141382Y-38385782D01*
X63948671Y-38674194D01*
X63881000Y-39014400D01*
X63881000Y-66255964D01*
X62214166Y-67922798D01*
X53871511Y-67922798D01*
X54106792Y-67687927D01*
X54249438Y-67344399D01*
X54249718Y-67022518D01*
X58534236Y-62738000D01*
X60820560Y-62738000D01*
X60820560Y-64262000D01*
X60864838Y-64497317D01*
X61003910Y-64713441D01*
X61216110Y-64858431D01*
X61468000Y-64909440D01*
X62992000Y-64909440D01*
X63227317Y-64865162D01*
X63443441Y-64726090D01*
X63588431Y-64513890D01*
X63639440Y-64262000D01*
X63639440Y-62738000D01*
X63595162Y-62502683D01*
X63456090Y-62286559D01*
X63243890Y-62141569D01*
X63060876Y-62104508D01*
X63413629Y-61752370D01*
X63626757Y-61239100D01*
X63627242Y-60683339D01*
X63415010Y-60169697D01*
X63022370Y-59776371D01*
X62814488Y-59690051D01*
X63020303Y-59605010D01*
X63413629Y-59212370D01*
X63626757Y-58699100D01*
X63627242Y-58143339D01*
X63415010Y-57629697D01*
X63022370Y-57236371D01*
X62830273Y-57156605D01*
X62961143Y-57102397D01*
X63030608Y-56860213D01*
X62230000Y-56059605D01*
X61429392Y-56860213D01*
X61498857Y-57102397D01*
X61639318Y-57152509D01*
X61439697Y-57234990D01*
X61046371Y-57627630D01*
X60833243Y-58140900D01*
X60832758Y-58696661D01*
X61044990Y-59210303D01*
X61437630Y-59603629D01*
X61645512Y-59689949D01*
X61439697Y-59774990D01*
X61046371Y-60167630D01*
X60833243Y-60680900D01*
X60832758Y-61236661D01*
X61044990Y-61750303D01*
X61397833Y-62103763D01*
X61232683Y-62134838D01*
X61016559Y-62273910D01*
X60871569Y-62486110D01*
X60820560Y-62738000D01*
X58534236Y-62738000D01*
X58845418Y-62426818D01*
X58875447Y-62381877D01*
X59038129Y-62138406D01*
X59105800Y-61798200D01*
X59105800Y-55672302D01*
X60820856Y-55672302D01*
X60848638Y-56227368D01*
X61007603Y-56611143D01*
X61249787Y-56680608D01*
X62050395Y-55880000D01*
X62409605Y-55880000D01*
X63210213Y-56680608D01*
X63452397Y-56611143D01*
X63639144Y-56087698D01*
X63611362Y-55532632D01*
X63452397Y-55148857D01*
X63210213Y-55079392D01*
X62409605Y-55880000D01*
X62050395Y-55880000D01*
X61249787Y-55079392D01*
X61007603Y-55148857D01*
X60820856Y-55672302D01*
X59105800Y-55672302D01*
X59105800Y-38270189D01*
X59151638Y-38159799D01*
X59151962Y-37787833D01*
X59009917Y-37444057D01*
X58747127Y-37180808D01*
X58403599Y-37038162D01*
X58031633Y-37037838D01*
X57687857Y-37179883D01*
X57424608Y-37442673D01*
X57281962Y-37786201D01*
X57281638Y-38158167D01*
X57327800Y-38269888D01*
X57327800Y-61429964D01*
X52685982Y-66071782D01*
X52493271Y-66360194D01*
X52425600Y-66700400D01*
X52425600Y-66860411D01*
X52379762Y-66970801D01*
X52379438Y-67342767D01*
X52521483Y-67686543D01*
X52757326Y-67922798D01*
X47667867Y-67922798D01*
X47720218Y-67887818D01*
X55670418Y-59937618D01*
X55863130Y-59649205D01*
X55930800Y-59309000D01*
X55930800Y-46390384D01*
X55964729Y-46339606D01*
X56032400Y-45999400D01*
X55964729Y-45659194D01*
X55772018Y-45370782D01*
X55662097Y-45297335D01*
X55572127Y-45207208D01*
X55228599Y-45064562D01*
X54856633Y-45064238D01*
X54512857Y-45206283D01*
X54249608Y-45469073D01*
X54106962Y-45812601D01*
X54106638Y-46184567D01*
X54152800Y-46296288D01*
X54152800Y-58940764D01*
X50241200Y-62852364D01*
X50241200Y-49174400D01*
X50173529Y-48834194D01*
X49980818Y-48545782D01*
X49066418Y-47631382D01*
X48880713Y-47507298D01*
X48778006Y-47438671D01*
X48437800Y-47371000D01*
X48076485Y-47371000D01*
X47782370Y-47076371D01*
X47574488Y-46990051D01*
X47780303Y-46905010D01*
X48138700Y-46547238D01*
X48168406Y-46541329D01*
X48456818Y-46348618D01*
X58464418Y-36341018D01*
X58657130Y-36052605D01*
X58724800Y-35712400D01*
X58724800Y-28486036D01*
X60515436Y-26695400D01*
X61583916Y-26695400D01*
X61439697Y-26754990D01*
M02*
